<?xml version="1.0" encoding="utf-8" ?>
<svg baseProfile="full" height="1100" version="1.1" viewBox="0,0,1400,1100" width="1400" xmlns="http://www.w3.org/2000/svg" xmlns:ev="http://www.w3.org/2001/xml-events" xmlns:xlink="http://www.w3.org/1999/xlink"><defs><marker id="arrow-end" markerHeight="10" markerWidth="10" orient="auto" refX="10" refY="5"><path d="M 0 0 L 10 5 L 0 10 z" fill="black" /></marker><marker id="arrow-start" markerHeight="10" markerWidth="10" orient="auto" refX="0" refY="5"><path d="M 10 0 L 0 5 L 10 10 z" fill="black" /></marker><linearGradient id="gradient-layout_container" x1="0%" x2="0%" y1="0%" y2="100%"><stop offset="0%" stop-color="#eeeeff" /><stop offset="100%" stop-color="#a2a2b2" /></linearGradient><linearGradient id="gradient-layout_container_icon" x1="0%" x2="0%" y1="0%" y2="100%"><stop offset="0%" stop-color="#eeeeff" /><stop offset="100%" stop-color="#a2a2b2" /></linearGradient><linearGradient id="gradient-routing_container" x1="0%" x2="0%" y1="0%" y2="100%"><stop offset="0%" stop-color="#ffeeee" /><stop offset="100%" stop-color="#b2a2a2" /></linearGradient><linearGradient id="gradient-routing_container_icon" x1="0%" x2="0%" y1="0%" y2="100%"><stop offset="0%" stop-color="#ffeeee" /><stop offset="100%" stop-color="#b2a2a2" /></linearGradient><linearGradient id="gradient-analysis_container" x1="0%" x2="0%" y1="0%" y2="100%"><stop offset="0%" stop-color="#fffaee" /><stop offset="100%" stop-color="#b2ada2" /></linearGradient><linearGradient id="gradient-analysis_container_icon" x1="0%" x2="0%" y1="0%" y2="100%"><stop offset="0%" stop-color="#fffaee" /><stop offset="100%" stop-color="#b2ada2" /></linearGradient><linearGradient id="gradient-draw_container" x1="0%" x2="0%" y1="0%" y2="100%"><stop offset="0%" stop-color="#f4eeff" /><stop offset="100%" stop-color="#a8a2b2" /></linearGradient><linearGradient id="gradient-draw_container_icon" x1="0%" x2="0%" y1="0%" y2="100%"><stop offset="0%" stop-color="#f4eeff" /><stop offset="100%" stop-color="#a8a2b2" /></linearGradient><linearGradient id="gradient-input" x1="0%" x2="0%" y1="0%" y2="100%"><stop offset="0%" stop-color="#c5e3ed" /><stop offset="100%" stop-color="#7997a1" /></linearGradient><linearGradient id="gradient-main" x1="0%" x2="0%" y1="0%" y2="100%"><stop offset="0%" stop-color="#b1f3b1" /><stop offset="100%" stop-color="#64a664" /></linearGradient><linearGradient id="gradient-generator" x1="0%" x2="0%" y1="0%" y2="100%"><stop offset="0%" stop-color="#ffe34c" /><stop offset="100%" stop-color="#b29600" /></linearGradient><linearGradient id="gradient-svgwrite" x1="0%" x2="0%" y1="0%" y2="100%"><stop offset="0%" stop-color="#4cffff" /><stop offset="100%" stop-color="#00b2b2" /></linearGradient><linearGradient id="gradient-layout" x1="0%" x2="0%" y1="0%" y2="100%"><stop offset="0%" stop-color="#a6a6a6" /><stop offset="100%" stop-color="#595959" /></linearGradient><linearGradient id="gradient-sizing" x1="0%" x2="0%" y1="0%" y2="100%"><stop offset="0%" stop-color="#a6a6a6" /><stop offset="100%" stop-color="#595959" /></linearGradient><linearGradient id="gradient-positioner" x1="0%" x2="0%" y1="0%" y2="100%"><stop offset="0%" stop-color="#a6a6a6" /><stop offset="100%" stop-color="#595959" /></linearGradient><linearGradient id="gradient-optimizer" x1="0%" x2="0%" y1="0%" y2="100%"><stop offset="0%" stop-color="#ff917e" /><stop offset="100%" stop-color="#b24531" /></linearGradient><linearGradient id="gradient-router_mgr" x1="0%" x2="0%" y1="0%" y2="100%"><stop offset="0%" stop-color="#ff9797" /><stop offset="100%" stop-color="#b24a4a" /></linearGradient><linearGradient id="gradient-routers" x1="0%" x2="0%" y1="0%" y2="100%"><stop offset="0%" stop-color="#ffbca1" /><stop offset="100%" stop-color="#b27055" /></linearGradient><linearGradient id="gradient-geometry" x1="0%" x2="0%" y1="0%" y2="100%"><stop offset="0%" stop-color="#ffc04c" /><stop offset="100%" stop-color="#b27300" /></linearGradient><linearGradient id="gradient-graph" x1="0%" x2="0%" y1="0%" y2="100%"><stop offset="0%" stop-color="#a6a6a6" /><stop offset="100%" stop-color="#595959" /></linearGradient><linearGradient id="gradient-collision" x1="0%" x2="0%" y1="0%" y2="100%"><stop offset="0%" stop-color="#a6a6a6" /><stop offset="100%" stop-color="#595959" /></linearGradient><linearGradient id="gradient-render" x1="0%" x2="0%" y1="0%" y2="100%"><stop offset="0%" stop-color="#a64ca6" /><stop offset="100%" stop-color="#590059" /></linearGradient><linearGradient id="gradient-icons" x1="0%" x2="0%" y1="0%" y2="100%"><stop offset="0%" stop-color="#a64ca6" /><stop offset="100%" stop-color="#590059" /></linearGradient><linearGradient id="gradient-connections" x1="0%" x2="0%" y1="0%" y2="100%"><stop offset="0%" stop-color="#ffc04c" /><stop offset="100%" stop-color="#b27300" /></linearGradient><linearGradient id="gradient-labels" x1="0%" x2="0%" y1="0%" y2="100%"><stop offset="0%" stop-color="#ffd2da" /><stop offset="100%" stop-color="#b2868e" /></linearGradient><linearGradient id="gradient-containers" x1="0%" x2="0%" y1="0%" y2="100%"><stop offset="0%" stop-color="#a6a6a6" /><stop offset="100%" stop-color="#595959" /></linearGradient><linearGradient id="gradient-output" x1="0%" x2="0%" y1="0%" y2="100%"><stop offset="0%" stop-color="#b1f3b1" /><stop offset="100%" stop-color="#64a664" /></linearGradient></defs><rect fill="white" fill-opacity="0.85" height="60" rx="5" ry="5" stroke="#CCCCCC" stroke-width="1" width="190" x="1200" y="10" /><text fill="#FF0000" font-family="Arial, monospace" font-size="11px" x="1210" y="32">Generado: 2026-01-10 01:23:19</text><text fill="#FF0000" font-family="Arial, monospace" font-size="11px" x="1210" y="52">GAG v3.0.0</text><rect fill="url(#gradient-layout_container)" height="370" opacity="0.3" rx="8.0" ry="8.0" stroke="black" stroke-width="2" width="160" x="920" y="110" /><rect fill="url(#gradient-layout_container_icon)" height="50" stroke="black" width="80" x="930" y="120" /><text fill="black" font-family="Arial, sans-serif" font-size="16px" font-weight="bold" text-anchor="middle" x="1000.0" y="82">Layout Module</text><text fill="black" font-family="Arial, sans-serif" font-size="16px" font-weight="bold" text-anchor="middle" x="1000.0" y="100">(jerárquico v3.0)</text><rect fill="url(#gradient-routing_container)" height="250" opacity="0.3" rx="8.0" ry="8.0" stroke="black" stroke-width="2" width="160" x="1290" y="110" /><rect fill="url(#gradient-routing_container_icon)" height="50" stroke="black" width="80" x="1300" y="120" /><text fill="black" font-family="Arial, sans-serif" font-size="16px" font-weight="bold" text-anchor="middle" x="1370.0" y="82">Routing Module</text><text fill="black" font-family="Arial, sans-serif" font-size="16px" font-weight="bold" text-anchor="middle" x="1370.0" y="100">(v3.0)</text><rect fill="url(#gradient-analysis_container)" height="370" opacity="0.3" rx="8.0" ry="8.0" stroke="black" stroke-width="2" width="160" x="60" y="110" /><rect fill="url(#gradient-analysis_container_icon)" height="50" stroke="black" width="80" x="70" y="120" /><text fill="black" font-family="Arial, sans-serif" font-size="16px" font-weight="bold" text-anchor="middle" x="140.0" y="100">Analysis Module</text><rect fill="url(#gradient-draw_container)" height="250" opacity="0.3" rx="12.5" ry="12.5" stroke="black" stroke-width="2" width="280" x="430" y="110" /><rect fill="url(#gradient-draw_container_icon)" height="50" stroke="black" width="80" x="440" y="120" /><text fill="black" font-family="Arial, sans-serif" font-size="16px" font-weight="bold" text-anchor="middle" x="570.0" y="100">Draw Module</text><rect fill="url(#gradient-input)" height="50" stroke="black" width="80" x="650" y="50" /><rect fill="url(#gradient-main)" height="50" stroke="black" width="80" x="650" y="160" /><rect fill="url(#gradient-generator)" height="50" stroke="black" width="80" x="650" y="270" /><ellipse cx="1090.0" cy="295.0" fill="url(#gradient-svgwrite)" rx="40.0" ry="25.0" stroke="black" /><rect fill="url(#gradient-layout)" height="50" stroke="black" width="80" x="960" y="150" /><rect fill="url(#gradient-sizing)" height="50" stroke="black" width="80" x="960" y="270" /><rect fill="url(#gradient-positioner)" height="50" stroke="black" width="80" x="960" y="390" /><rect fill="url(#gradient-optimizer)" height="50" stroke="black" width="80" x="650" y="520" /><rect fill="url(#gradient-router_mgr)" height="50" stroke="black" width="80" x="1330" y="150" /><ellipse cx="1370.0" cy="295.0" fill="url(#gradient-routers)" rx="40.0" ry="25.0" stroke="black" /><rect fill="url(#gradient-geometry)" height="50" stroke="black" width="80" x="100" y="150" /><rect fill="url(#gradient-graph)" height="50" stroke="black" width="80" x="100" y="270" /><rect fill="url(#gradient-collision)" height="50" stroke="black" width="80" x="100" y="390" /><rect fill="url(#gradient-render)" height="50" stroke="black" width="80" x="650" y="810" /><rect fill="url(#gradient-icons)" height="50" stroke="black" width="80" x="470" y="150" /><rect fill="url(#gradient-connections)" height="50" stroke="black" width="80" x="590" y="150" /><rect fill="url(#gradient-labels)" height="50" stroke="black" width="80" x="470" y="270" /><rect fill="url(#gradient-containers)" height="50" stroke="black" width="80" x="590" y="270" /><rect fill="url(#gradient-output)" height="50" stroke="black" width="80" x="650" y="1000" /><line marker-end="url(#arrow-end)" stroke="black" stroke-width="2" x1="690.0" x2="690.0" y1="107.0" y2="153.0" /><line marker-end="url(#arrow-end)" stroke="black" stroke-width="2" x1="690.0" x2="690.0" y1="217.0" y2="263.0" /><path d="M 722.0,295.0 C 823.3333333333334,375.0 956.6666666666667,375.0 1050.0,295.0" fill="none" marker-end="url(#arrow-end)" stroke="black" stroke-width="2" /><polyline fill="none" marker-end="url(#arrow-end)" points="690.0,263.0 690.0,235.0 1000.0,235.0 1000.0,207.0" stroke="black" stroke-width="2" /><polyline fill="none" marker-end="url(#arrow-end)" points="1000.0,207.0 1000.0,263.0" stroke="black" stroke-width="2" /><polyline fill="none" marker-end="url(#arrow-end)" points="1000.0,207.0 1000.0,383.0" stroke="black" stroke-width="2" /><line marker-end="url(#arrow-end)" stroke="black" stroke-width="2" x1="979.448964396467" x2="710.551035603533" y1="199.52865539776525" y2="520.4713446022348" /><polyline fill="none" marker-end="url(#arrow-end)" points="722.0,545.0 1030.0,545.0 1030.0,175.0 1338.0,175.0" stroke="black" stroke-width="2" /><polyline fill="none" marker-end="url(#arrow-end)" points="1370.0,207.0 1370.0,255.0" stroke="black" stroke-width="2" /><polyline fill="none" marker-end="url(#arrow-end)" points="658.0,545.0 415.0,545.0 415.0,175.0 172.0,175.0" stroke="black" stroke-width="2" /><path d="M 660.8682727211966,531.7583057823621 C 569.1666666666666,324.1666666666667 385.8333333333333,240.83333333333337 169.13172727880334,308.24169421763787" fill="none" marker-end="url(#arrow-end)" stroke="black" stroke-width="2" /><path d="M 658.8580923911549,537.639185474273 C 539.1666666666666,364.1666666666667 355.8333333333333,320.8333333333333 171.14190760884512,422.36081452572705" fill="none" marker-end="url(#arrow-end)" stroke="black" stroke-width="2" /><polyline fill="none" marker-end="url(#arrow-end)" points="140.0,383.0 140.0,207.0" stroke="black" stroke-width="2" /><path d="M 968.3070433483043,290.57772697883314 C 749.3333333333333,-3.0 462.66666666666663,-43.0 171.69295665169565,179.42227302116683" fill="none" marker-end="url(#arrow-end)" stroke="black" stroke-width="2" /><line marker-end="url(#arrow-end)" stroke="black" stroke-width="2" x1="690.0" x2="690.0" y1="577.0" y2="803.0" /><polyline fill="none" marker-end="url(#arrow-end)" points="690.0,803.0 690.0,505.0 510.0,505.0 510.0,207.0" stroke="black" stroke-width="2" /><polyline fill="none" marker-end="url(#arrow-end)" points="690.0,803.0 690.0,505.0 630.0,505.0 630.0,207.0" stroke="black" stroke-width="2" /><polyline fill="none" marker-end="url(#arrow-end)" points="690.0,803.0 690.0,565.0 510.0,565.0 510.0,327.0" stroke="black" stroke-width="2" /><polyline fill="none" marker-end="url(#arrow-end)" points="690.0,803.0 690.0,565.0 630.0,565.0 630.0,327.0" stroke="black" stroke-width="2" /><path d="M 662.0,175.0 C 876.6666666666666,434.0 1123.3333333333333,434.0 1338.0,175.0" fill="none" marker-end="url(#arrow-end)" stroke="black" stroke-width="2" /><polyline fill="none" marker-end="url(#arrow-end)" points="510.0,207.0 510.0,600.0 690.0,600.0 690.0,993.0" stroke="black" stroke-width="2" /><polyline fill="none" marker-end="url(#arrow-end)" points="630.0,207.0 630.0,600.0 690.0,600.0 690.0,993.0" stroke="black" stroke-width="2" /><polyline fill="none" marker-end="url(#arrow-end)" points="510.0,327.0 510.0,660.0 690.0,660.0 690.0,993.0" stroke="black" stroke-width="2" /><polyline fill="none" marker-end="url(#arrow-end)" points="630.0,327.0 630.0,660.0 690.0,660.0 690.0,993.0" stroke="black" stroke-width="2" /><path d="M 730.0,1037.0 A 70,70 0 0,1 730.0,1013.0" fill="none" marker-end="url(#arrow-end)" stroke="black" stroke-width="2" /><text fill="black" font-family="Arial, sans-serif" font-size="14px" text-anchor="start" x="745.0" y="82.0">archivo.gag</text><text fill="black" font-family="Arial, sans-serif" font-size="14px" text-anchor="start" x="745.0" y="100.0">(JSON SDJF v3.0)</text><text fill="black" font-family="Arial, sans-serif" font-size="14px" text-anchor="middle" x="690.0" y="230.0">main.py</text><text fill="black" font-family="Arial, sans-serif" font-size="14px" text-anchor="middle" x="690.0" y="248.0">(CLI)</text><text fill="black" font-family="Arial, sans-serif" font-size="14px" text-anchor="start" x="769.0" y="307.0">generator.py</text><text fill="black" font-family="Arial, sans-serif" font-size="14px" text-anchor="start" x="769.0" y="325.0">(orquestador)</text><text fill="black" font-family="Arial, sans-serif" font-size="14px" text-anchor="middle" x="1090.0" y="242">svgwrite</text><text fill="black" font-family="Arial, sans-serif" font-size="14px" text-anchor="middle" x="1090.0" y="260">(librería externa)</text><text fill="black" font-family="Arial, sans-serif" font-size="14px" text-anchor="middle" x="1000.0" y="230.0">Layout</text><text fill="black" font-family="Arial, sans-serif" font-size="14px" text-anchor="middle" x="1000.0" y="248.0">Patrón Inmutable</text><text fill="black" font-family="Arial, sans-serif" font-size="14px" text-anchor="middle" x="1000.0" y="340.0">SizingCalculator</text><text fill="black" font-family="Arial, sans-serif" font-size="14px" text-anchor="middle" x="1000.0" y="358.0">hp/wp (v3.0)</text><text fill="black" font-family="Arial, sans-serif" font-size="14px" text-anchor="middle" x="1000.0" y="460.0">AutoLayoutPositioner</text><text fill="black" font-family="Arial, sans-serif" font-size="14px" text-anchor="middle" x="1000.0" y="478.0">Layout jerárquico</text><text fill="black" font-family="Arial, sans-serif" font-size="14px" text-anchor="start" x="785.0" y="565.0">AutoLayoutOptimizer</text><text fill="black" font-family="Arial, sans-serif" font-size="14px" text-anchor="start" x="785.0" y="583.0">v3.0 Jerárquico</text><text fill="black" font-family="Arial, sans-serif" font-size="14px" text-anchor="middle" x="1370.0" y="230.0">RouterManager</text><text fill="black" font-family="Arial, sans-serif" font-size="14px" text-anchor="middle" x="1370.0" y="248.0">Coordinador</text><text fill="black" font-family="Arial, sans-serif" font-size="14px" text-anchor="middle" x="1370.0" y="355.0">5 Routers</text><text fill="black" font-family="Arial, sans-serif" font-size="14px" text-anchor="middle" x="1370.0" y="373.0">straight/orthogonal</text><text fill="black" font-family="Arial, sans-serif" font-size="14px" text-anchor="middle" x="1370.0" y="391.0">bezier/arc/manual</text><text fill="black" font-family="Arial, sans-serif" font-size="14px" text-anchor="middle" x="140.0" y="220.0">GeometryCalculator</text><text fill="black" font-family="Arial, sans-serif" font-size="14px" text-anchor="middle" x="140.0" y="238.0">bboxes</text><text fill="black" font-family="Arial, sans-serif" font-size="14px" text-anchor="middle" x="140.0" y="256.0">intersecciones</text><text fill="black" font-family="Arial, sans-serif" font-size="14px" text-anchor="end" x="85" y="295.0">GraphAnalyzer</text><text fill="black" font-family="Arial, sans-serif" font-size="14px" text-anchor="end" x="85" y="313.0">topología (v3.0)</text><text fill="black" font-family="Arial, sans-serif" font-size="14px" text-anchor="end" x="85" y="331.0">niveles</text><text fill="black" font-family="Arial, sans-serif" font-size="14px" text-anchor="end" x="85" y="349.0">grupos</text><text fill="black" font-family="Arial, sans-serif" font-size="14px" text-anchor="middle" x="140.0" y="460.0">CollisionDetector</text><text fill="black" font-family="Arial, sans-serif" font-size="14px" text-anchor="middle" x="140.0" y="478.0">detect_all()</text><text fill="black" font-family="Arial, sans-serif" font-size="14px" text-anchor="middle" x="140.0" y="496.0">count()</text><text fill="black" font-family="Arial, sans-serif" font-size="14px" text-anchor="start" x="745.0" y="847.0">Renderizado SVG</text><text fill="black" font-family="Arial, sans-serif" font-size="14px" text-anchor="start" x="745.0" y="865.0">(3 fases secuenciales)</text><text fill="black" font-family="Arial, sans-serif" font-size="14px" text-anchor="middle" x="510.0" y="104">icons.py</text><text fill="black" font-family="Arial, sans-serif" font-size="14px" text-anchor="middle" x="510.0" y="122">Fase 1: Shapes</text><text fill="black" font-family="Arial, sans-serif" font-size="14px" text-anchor="middle" x="510.0" y="140">4 tipos + BWT</text><text fill="black" font-family="Arial, sans-serif" font-size="14px" text-anchor="middle" x="630.0" y="104">connections.py</text><text fill="black" font-family="Arial, sans-serif" font-size="14px" text-anchor="middle" x="630.0" y="122">Fase 2: Lines</text><text fill="black" font-family="Arial, sans-serif" font-size="14px" text-anchor="middle" x="630.0" y="140">Routing types (v3.0)</text><text fill="black" font-family="Arial, sans-serif" font-size="14px" text-anchor="end" x="455" y="295.0">labels</text><text fill="black" font-family="Arial, sans-serif" font-size="14px" text-anchor="end" x="455" y="313.0">Fase 3: Text</text><text fill="black" font-family="Arial, sans-serif" font-size="14px" text-anchor="end" x="455" y="331.0">draw_*_label()</text><text fill="black" font-family="Arial, sans-serif" font-size="14px" text-anchor="middle" x="630.0" y="340.0">container.py</text><text fill="black" font-family="Arial, sans-serif" font-size="14px" text-anchor="middle" x="630.0" y="358.0">Agrupación visual</text><text fill="black" font-family="Arial, sans-serif" font-size="14px" text-anchor="middle" x="630.0" y="376.0">(v1.5)</text><text fill="black" font-family="Arial, sans-serif" font-size="14px" text-anchor="middle" x="690.0" y="1085.0">archivo.svg</text><text fill="black" font-family="Arial, sans-serif" font-size="14px" text-anchor="middle" x="690.0" y="1103.0">(Salida vectorial)</text><text fill="gray" font-family="Arial, sans-serif" font-size="12px" text-anchor="middle" x="690.0" y="145.0">lee JSON</text><text fill="gray" font-family="Arial, sans-serif" font-size="12px" text-anchor="middle" x="690.0" y="225.0">generate_diagram()</text><text fill="gray" font-family="Arial, sans-serif" font-size="12px" text-anchor="middle" x="886.0" y="280.0">Drawing()</text><text fill="gray" font-family="Arial, sans-serif" font-size="12px" text-anchor="middle" x="845.0" y="220.0">Layout(...)</text><text fill="gray" font-family="Arial, sans-serif" font-size="12px" text-anchor="middle" x="1000.0" y="220.0">usa</text><text fill="gray" font-family="Arial, sans-serif" font-size="12px" text-anchor="middle" x="1000.0" y="280.0">usa</text><text fill="gray" font-family="Arial, sans-serif" font-size="12px" text-anchor="middle" x="845.0" y="345.0">optimize()</text><text fill="gray" font-family="Arial, sans-serif" font-size="12px" text-anchor="middle" x="1030.0" y="345.0">calculate_all_paths()
v3.0</text><text fill="gray" font-family="Arial, sans-serif" font-size="12px" text-anchor="middle" x="1370.0" y="216.0">delega</text><text fill="gray" font-family="Arial, sans-serif" font-size="12px" text-anchor="middle" x="415.0" y="345.0">usa</text><text fill="gray" font-family="Arial, sans-serif" font-size="12px" text-anchor="middle" x="415.0" y="405.0">analyze()</text><text fill="gray" font-family="Arial, sans-serif" font-size="12px" text-anchor="middle" x="415.0" y="465.0">evaluate()</text><text fill="gray" font-family="Arial, sans-serif" font-size="12px" text-anchor="middle" x="140.0" y="280.0">usa bboxes</text><text fill="gray" font-family="Arial, sans-serif" font-size="12px" text-anchor="middle" x="570.0" y="220.0">calcula tamaños</text><text fill="gray" font-family="Arial, sans-serif" font-size="12px" text-anchor="middle" x="690.0" y="675.0">layout optimizado</text><text fill="gray" font-family="Arial, sans-serif" font-size="12px" text-anchor="middle" x="600.0" y="490.0">fase 1</text><text fill="gray" font-family="Arial, sans-serif" font-size="12px" text-anchor="middle" x="660.0" y="490.0">fase 2</text><text fill="gray" font-family="Arial, sans-serif" font-size="12px" text-anchor="middle" x="600.0" y="550.0">fase 3</text><text fill="gray" font-family="Arial, sans-serif" font-size="12px" text-anchor="end" x="630.0" y="565.0">si usa contains</text><text fill="gray" font-family="Arial, sans-serif" font-size="12px" text-anchor="middle" x="1000.0" y="160.0">lee computed_path</text><text fill="gray" font-family="Arial, sans-serif" font-size="12px" text-anchor="middle" x="600.0" y="585.0">dwg.add()</text><text fill="gray" font-family="Arial, sans-serif" font-size="12px" text-anchor="end" x="630.0" y="600.0">dwg.add()</text><text fill="gray" font-family="Arial, sans-serif" font-size="12px" text-anchor="middle" x="600.0" y="645.0">dwg.add()</text><text fill="gray" font-family="Arial, sans-serif" font-size="12px" text-anchor="end" x="630.0" y="660.0">dwg.add()</text><text fill="gray" font-family="Arial, sans-serif" font-size="12px" text-anchor="middle" x="800.0" y="1010.0">dwg.save()</text><text fill="black" font-family="Arial, sans-serif" font-size="16px" font-weight="bold" text-anchor="middle" x="1000.0" y="100">Layout Module</text><text fill="black" font-family="Arial, sans-serif" font-size="16px" font-weight="bold" text-anchor="middle" x="1000.0" y="118">(jerárquico v3.0)</text><text fill="black" font-family="Arial, sans-serif" font-size="16px" font-weight="bold" text-anchor="end" x="1350.0" y="100">Routing Module</text><text fill="black" font-family="Arial, sans-serif" font-size="16px" font-weight="bold" text-anchor="end" x="1350.0" y="118">(v3.0)</text><text fill="black" font-family="Arial, sans-serif" font-size="16px" font-weight="bold" text-anchor="middle" x="140.0" y="100">Analysis Module</text><text fill="black" font-family="Arial, sans-serif" font-size="16px" font-weight="bold" text-anchor="middle" x="582.0" y="100">Draw Module</text></svg>