<?xml version="1.0" encoding="utf-8" ?>
<svg baseProfile="full" height="1000" version="1.1" viewBox="0,0,1400,1000" width="1400" xmlns="http://www.w3.org/2000/svg" xmlns:ev="http://www.w3.org/2001/xml-events" xmlns:xlink="http://www.w3.org/1999/xlink"><defs><marker id="arrow-end" markerHeight="10" markerWidth="10" orient="auto" refX="10" refY="5"><path d="M 0 0 L 10 5 L 0 10 z" fill="black" /></marker><marker id="arrow-start" markerHeight="10" markerWidth="10" orient="auto" refX="0" refY="5"><path d="M 10 0 L 0 5 L 10 10 z" fill="black" /></marker><linearGradient id="gradient-americas" x1="0%" x2="0%" y1="0%" y2="100%"><stop offset="0%" stop-color="#abdcf1" /><stop offset="100%" stop-color="#5e90a4" /></linearGradient><linearGradient id="gradient-norte" x1="0%" x2="0%" y1="0%" y2="100%"><stop offset="0%" stop-color="#ffe34c" /><stop offset="100%" stop-color="#b29600" /></linearGradient><linearGradient id="gradient-centro" x1="0%" x2="0%" y1="0%" y2="100%"><stop offset="0%" stop-color="#ffc04c" /><stop offset="100%" stop-color="#b27300" /></linearGradient><linearGradient id="gradient-sur" x1="0%" x2="0%" y1="0%" y2="100%"><stop offset="0%" stop-color="#b1f3b1" /><stop offset="100%" stop-color="#64a664" /></linearGradient><linearGradient id="gradient-canada" x1="0%" x2="0%" y1="0%" y2="100%"><stop offset="0%" stop-color="#ff9797" /><stop offset="100%" stop-color="#b24a4a" /></linearGradient><linearGradient id="gradient-usa" x1="0%" x2="0%" y1="0%" y2="100%"><stop offset="0%" stop-color="#83dcd5" /><stop offset="100%" stop-color="#368f89" /></linearGradient><linearGradient id="gradient-mexico" x1="0%" x2="0%" y1="0%" y2="100%"><stop offset="0%" stop-color="#b4eae0" /><stop offset="100%" stop-color="#689d93" /></linearGradient><linearGradient id="gradient-guatemala" x1="0%" x2="0%" y1="0%" y2="100%"><stop offset="0%" stop-color="#f6a6a6" /><stop offset="100%" stop-color="#aa5a5a" /></linearGradient><linearGradient id="gradient-costarica" x1="0%" x2="0%" y1="0%" y2="100%"><stop offset="0%" stop-color="#c3b5e5" /><stop offset="100%" stop-color="#766998" /></linearGradient><linearGradient id="gradient-panama" x1="0%" x2="0%" y1="0%" y2="100%"><stop offset="0%" stop-color="#fccee0" /><stop offset="100%" stop-color="#b08293" /></linearGradient><linearGradient id="gradient-colombia" x1="0%" x2="0%" y1="0%" y2="100%"><stop offset="0%" stop-color="#ffffdf" /><stop offset="100%" stop-color="#b2b293" /></linearGradient><linearGradient id="gradient-venezuela" x1="0%" x2="0%" y1="0%" y2="100%"><stop offset="0%" stop-color="#c2e3f0" /><stop offset="100%" stop-color="#7597a3" /></linearGradient><linearGradient id="gradient-brasil" x1="0%" x2="0%" y1="0%" y2="100%"><stop offset="0%" stop-color="#ffdbdb" /><stop offset="100%" stop-color="#b28e8e" /></linearGradient><linearGradient id="gradient-peru" x1="0%" x2="0%" y1="0%" y2="100%"><stop offset="0%" stop-color="#e0c0c0" /><stop offset="100%" stop-color="#947373" /></linearGradient><linearGradient id="gradient-ecuador" x1="0%" x2="0%" y1="0%" y2="100%"><stop offset="0%" stop-color="#bae4df" /><stop offset="100%" stop-color="#6d9793" /></linearGradient><linearGradient id="gradient-bolivia" x1="0%" x2="0%" y1="0%" y2="100%"><stop offset="0%" stop-color="#fffae6" /><stop offset="100%" stop-color="#b2ad9a" /></linearGradient><linearGradient id="gradient-chile" x1="0%" x2="0%" y1="0%" y2="100%"><stop offset="0%" stop-color="#e9cfec" /><stop offset="100%" stop-color="#9c829f" /></linearGradient><linearGradient id="gradient-argentina" x1="0%" x2="0%" y1="0%" y2="100%"><stop offset="0%" stop-color="#ffe8e0" /><stop offset="100%" stop-color="#b29c93" /></linearGradient><linearGradient id="gradient-uruguay" x1="0%" x2="0%" y1="0%" y2="100%"><stop offset="0%" stop-color="#d7dcf0" /><stop offset="100%" stop-color="#8b90a3" /></linearGradient><linearGradient id="gradient-paraguay" x1="0%" x2="0%" y1="0%" y2="100%"><stop offset="0%" stop-color="#cbf0e3" /><stop offset="100%" stop-color="#7ea396" /></linearGradient></defs><ellipse cx="640.0" cy="75.0" fill="url(#gradient-americas)" rx="40.0" ry="25.0" stroke="black" /><rect fill="url(#gradient-norte)" height="50" stroke="black" width="80" x="300" y="200" /><rect fill="url(#gradient-centro)" height="50" stroke="black" width="80" x="600" y="200" /><rect fill="url(#gradient-sur)" height="50" stroke="black" width="80" x="900" y="200" /><rect fill="url(#gradient-canada)" height="50" stroke="black" width="80" x="100" y="380" /><rect fill="url(#gradient-usa)" height="50" stroke="black" width="80" x="300" y="380" /><rect fill="url(#gradient-mexico)" height="50" stroke="black" width="80" x="500" y="380" /><rect fill="url(#gradient-guatemala)" height="50" stroke="black" width="80" x="550" y="500" /><rect fill="url(#gradient-costarica)" height="50" stroke="black" width="80" x="650" y="500" /><rect fill="url(#gradient-panama)" height="50" stroke="black" width="80" x="750" y="500" /><rect fill="url(#gradient-colombia)" height="50" stroke="black" width="80" x="850" y="380" /><rect fill="url(#gradient-venezuela)" height="50" stroke="black" width="80" x="950" y="380" /><rect fill="url(#gradient-brasil)" height="50" stroke="black" width="80" x="1050" y="500" /><rect fill="url(#gradient-peru)" height="50" stroke="black" width="80" x="800" y="620" /><rect fill="url(#gradient-ecuador)" height="50" stroke="black" width="80" x="700" y="620" /><rect fill="url(#gradient-bolivia)" height="50" stroke="black" width="80" x="900" y="680" /><rect fill="url(#gradient-chile)" height="50" stroke="black" width="80" x="800" y="780" /><rect fill="url(#gradient-argentina)" height="50" stroke="black" width="80" x="950" y="780" /><rect fill="url(#gradient-uruguay)" height="50" stroke="black" width="80" x="1050" y="780" /><rect fill="url(#gradient-paraguay)" height="50" stroke="black" width="80" x="1000" y="680" /><path d="M 604.2229123600034,92.88854381999832 C 510.0,65.0 410.0,115.0 368.62167011199733,210.68916494400133" fill="none" marker-end="url(#arrow-end)" stroke="black" stroke-width="2" /><line marker-end="url(#arrow-end)" stroke="black" stroke-width="2" x1="640.0" x2="640.0" y1="115.0" y2="193.0" /><path d="M 675.7770876399966,92.88854381999832 C 710.0,185.0 810.0,235.0 911.3783298880027,210.68916494400133" fill="none" marker-end="url(#arrow-end)" stroke="black" stroke-width="2" /><polyline fill="none" marker-end="url(#arrow-end)" points="340.0,257.0 340.0,315.0 140.0,315.0 140.0,373.0" stroke="black" stroke-width="2" /><polyline fill="none" marker-end="url(#arrow-end)" points="340.0,257.0 340.0,373.0" stroke="black" stroke-width="2" /><polyline fill="none" marker-end="url(#arrow-end)" points="340.0,257.0 340.0,315.0 540.0,315.0 540.0,373.0" stroke="black" stroke-width="2" /><polyline fill="none" marker-end="url(#arrow-end)" points="640.0,257.0 640.0,375.0 590.0,375.0 590.0,493.0" stroke="black" stroke-width="2" /><polyline fill="none" marker-end="url(#arrow-end)" points="640.0,257.0 640.0,375.0 690.0,375.0 690.0,493.0" stroke="black" stroke-width="2" /><polyline fill="none" marker-end="url(#arrow-end)" points="640.0,257.0 640.0,375.0 790.0,375.0 790.0,493.0" stroke="black" stroke-width="2" /><polyline fill="none" marker-end="url(#arrow-end)" points="940.0,257.0 940.0,315.0 890.0,315.0 890.0,373.0" stroke="black" stroke-width="2" /><polyline fill="none" marker-end="url(#arrow-end)" points="940.0,257.0 940.0,315.0 990.0,315.0 990.0,373.0" stroke="black" stroke-width="2" /><path d="M 954.3108350559986,253.6216701119973 C 915.0,362.5 965.0,462.5 1075.6891649440013,496.37832988800267" fill="none" marker-end="url(#arrow-end)" stroke="black" stroke-width="2" /><polyline fill="none" marker-end="url(#arrow-end)" marker-start="url(#arrow-start)" points="172.0,405.0 308.0,405.0" stroke="black" stroke-width="2" /><polyline fill="none" marker-end="url(#arrow-end)" marker-start="url(#arrow-start)" points="372.0,405.0 508.0,405.0" stroke="black" stroke-width="2" /><polyline fill="none" marker-end="url(#arrow-end)" marker-start="url(#arrow-start)" points="540.0,437.0 540.0,465.0 590.0,465.0 590.0,493.0" stroke="black" stroke-width="2" /><polyline fill="none" marker-end="url(#arrow-end)" marker-start="url(#arrow-start)" points="790.0,493.0 790.0,465.0 890.0,465.0 890.0,437.0" stroke="black" stroke-width="2" /><line marker-end="url(#arrow-end)" marker-start="url(#arrow-start)" stroke="black" stroke-width="2" x1="922.0" x2="958.0" y1="405.0" y2="405.0" /><polyline fill="none" marker-end="url(#arrow-end)" marker-start="url(#arrow-start)" points="890.0,437.0 890.0,525.0 740.0,525.0 740.0,613.0" stroke="black" stroke-width="2" /><polyline fill="none" marker-end="url(#arrow-end)" marker-start="url(#arrow-start)" points="890.0,437.0 890.0,525.0 840.0,525.0 840.0,613.0" stroke="black" stroke-width="2" /><path d="M 917.4397736228015,421.46386417368086 C 920.6666666666666,505.0 987.3333333333334,545.0 1062.5602263771987,508.53613582631914" fill="none" marker-end="url(#arrow-end)" marker-start="url(#arrow-start)" stroke="black" stroke-width="2" /><line marker-end="url(#arrow-end)" marker-start="url(#arrow-start)" stroke="black" stroke-width="2" x1="772.0" x2="808.0" y1="645.0" y2="645.0" /><polyline fill="none" marker-end="url(#arrow-end)" marker-start="url(#arrow-start)" points="872.0,645.0 890.0,645.0 890.0,705.0 908.0,705.0" stroke="black" stroke-width="2" /><polyline fill="none" marker-end="url(#arrow-end)" marker-start="url(#arrow-start)" points="840.0,677.0 840.0,773.0" stroke="black" stroke-width="2" /><polyline fill="none" marker-end="url(#arrow-end)" marker-start="url(#arrow-start)" points="940.0,673.0 940.0,615.0 1090.0,615.0 1090.0,557.0" stroke="black" stroke-width="2" /><line marker-end="url(#arrow-end)" marker-start="url(#arrow-start)" stroke="black" stroke-width="2" x1="972.0" x2="1008.0" y1="705.0" y2="705.0" /><polyline fill="none" marker-end="url(#arrow-end)" marker-start="url(#arrow-start)" points="940.0,737.0 940.0,755.0 990.0,755.0 990.0,773.0" stroke="black" stroke-width="2" /><polyline fill="none" marker-end="url(#arrow-end)" marker-start="url(#arrow-start)" points="940.0,737.0 940.0,755.0 840.0,755.0 840.0,773.0" stroke="black" stroke-width="2" /><polyline fill="none" marker-end="url(#arrow-end)" marker-start="url(#arrow-start)" points="872.0,805.0 958.0,805.0" stroke="black" stroke-width="2" /><line marker-end="url(#arrow-end)" marker-start="url(#arrow-start)" stroke="black" stroke-width="2" x1="1022.0" x2="1058.0" y1="805.0" y2="805.0" /><polyline fill="none" marker-end="url(#arrow-end)" marker-start="url(#arrow-start)" points="990.0,773.0 990.0,755.0 1040.0,755.0 1040.0,737.0" stroke="black" stroke-width="2" /><polyline fill="none" marker-end="url(#arrow-end)" marker-start="url(#arrow-start)" points="1090.0,557.0 1090.0,615.0 1040.0,615.0 1040.0,673.0" stroke="black" stroke-width="2" /><path d="M 1079.237235296059,555.1357411710349 C 986.6666666666667,593.3333333333334 953.3333333333334,686.6666666666666 1000.762764703941,774.8642588289651" fill="none" marker-end="url(#arrow-end)" marker-start="url(#arrow-start)" stroke="black" stroke-width="2" /><polyline fill="none" marker-end="url(#arrow-end)" marker-start="url(#arrow-start)" points="1090.0,557.0 1090.0,773.0" stroke="black" stroke-width="2" /><text fill="black" font-family="Arial, sans-serif" font-size="14px" text-anchor="start" x="695.0" y="112.0">América</text><text fill="black" font-family="Arial, sans-serif" font-size="14px" text-anchor="start" x="695.0" y="130.0">Continente</text><text fill="black" font-family="Arial, sans-serif" font-size="14px" text-anchor="start" x="395.0" y="245.0">América</text><text fill="black" font-family="Arial, sans-serif" font-size="14px" text-anchor="start" x="395.0" y="263.0">del Norte</text><text fill="black" font-family="Arial, sans-serif" font-size="14px" text-anchor="start" x="695.0" y="237.0">América</text><text fill="black" font-family="Arial, sans-serif" font-size="14px" text-anchor="start" x="695.0" y="255.0">Central</text><text fill="black" font-family="Arial, sans-serif" font-size="14px" text-anchor="start" x="995.0" y="245.0">América</text><text fill="black" font-family="Arial, sans-serif" font-size="14px" text-anchor="start" x="995.0" y="263.0">del Sur</text><text fill="black" font-family="Arial, sans-serif" font-size="14px" text-anchor="middle" x="140.0" y="450.0">Canadá</text><text fill="black" font-family="Arial, sans-serif" font-size="14px" text-anchor="middle" x="340.0" y="465.0">Estados Unidos</text><text fill="black" font-family="Arial, sans-serif" font-size="14px" text-anchor="middle" x="540.0" y="370">México</text><text fill="black" font-family="Arial, sans-serif" font-size="14px" text-anchor="middle" x="590.0" y="570.0">Guatemala</text><text fill="black" font-family="Arial, sans-serif" font-size="14px" text-anchor="middle" x="690.0" y="570.0">Costa Rica</text><text fill="black" font-family="Arial, sans-serif" font-size="14px" text-anchor="middle" x="790.0" y="490">Panamá</text><text fill="black" font-family="Arial, sans-serif" font-size="14px" text-anchor="end" x="835" y="405.0">Colombia</text><text fill="black" font-family="Arial, sans-serif" font-size="14px" text-anchor="start" x="1045.0" y="405.0">Venezuela</text><text fill="black" font-family="Arial, sans-serif" font-size="14px" text-anchor="start" x="1145.0" y="537.0">Brasil</text><text fill="black" font-family="Arial, sans-serif" font-size="14px" text-anchor="middle" x="840.0" y="690.0">Perú</text><text fill="black" font-family="Arial, sans-serif" font-size="14px" text-anchor="middle" x="740.0" y="690.0">Ecuador</text><text fill="black" font-family="Arial, sans-serif" font-size="14px" text-anchor="middle" x="940.0" y="750.0">Bolivia</text><text fill="black" font-family="Arial, sans-serif" font-size="14px" text-anchor="middle" x="840.0" y="850.0">Chile</text><text fill="black" font-family="Arial, sans-serif" font-size="14px" text-anchor="middle" x="990.0" y="860.0">Argentina</text><text fill="black" font-family="Arial, sans-serif" font-size="14px" text-anchor="middle" x="1090.0" y="850.0">Uruguay</text><text fill="black" font-family="Arial, sans-serif" font-size="14px" text-anchor="start" x="1095.0" y="705.0">Paraguay</text><text fill="gray" font-family="Arial, sans-serif" font-size="12px" text-anchor="middle" x="240.0" y="305.0">país</text><text fill="gray" font-family="Arial, sans-serif" font-size="12px" text-anchor="middle" x="340.0" y="305.0">país</text><text fill="gray" font-family="Arial, sans-serif" font-size="12px" text-anchor="middle" x="440.0" y="305.0">país</text><text fill="gray" font-family="Arial, sans-serif" font-size="12px" text-anchor="middle" x="615.0" y="365.0">país</text><text fill="gray" font-family="Arial, sans-serif" font-size="12px" text-anchor="middle" x="665.0" y="365.0">país</text><text fill="gray" font-family="Arial, sans-serif" font-size="12px" text-anchor="middle" x="715.0" y="365.0">país</text><text fill="gray" font-family="Arial, sans-serif" font-size="12px" text-anchor="middle" x="915.0" y="305.0">país</text><text fill="gray" font-family="Arial, sans-serif" font-size="12px" text-anchor="middle" x="965.0" y="305.0">país</text><text fill="gray" font-family="Arial, sans-serif" font-size="12px" text-anchor="middle" x="1015.0" y="365.0">país</text><text fill="gray" font-family="Arial, sans-serif" font-size="12px" text-anchor="middle" x="240.0" y="395.0">frontera</text><text fill="gray" font-family="Arial, sans-serif" font-size="12px" text-anchor="middle" x="440.0" y="395.0">frontera</text><text fill="gray" font-family="Arial, sans-serif" font-size="12px" text-anchor="middle" x="565.0" y="455.0">frontera</text><text fill="gray" font-family="Arial, sans-serif" font-size="12px" text-anchor="middle" x="840.0" y="455.0">frontera</text><text fill="gray" font-family="Arial, sans-serif" font-size="12px" text-anchor="middle" x="940.0" y="395.0">frontera</text><text fill="gray" font-family="Arial, sans-serif" font-size="12px" text-anchor="middle" x="815.0" y="515.0">frontera</text><text fill="gray" font-family="Arial, sans-serif" font-size="12px" text-anchor="middle" x="865.0" y="515.0">frontera</text><text fill="gray" font-family="Arial, sans-serif" font-size="12px" text-anchor="middle" x="990.0" y="455.0">frontera</text><text fill="gray" font-family="Arial, sans-serif" font-size="12px" text-anchor="middle" x="790.0" y="635.0">frontera</text><text fill="gray" font-family="Arial, sans-serif" font-size="12px" text-anchor="middle" x="890.0" y="665.0">frontera</text><text fill="gray" font-family="Arial, sans-serif" font-size="12px" text-anchor="middle" x="840.0" y="715.0">frontera</text><text fill="gray" font-family="Arial, sans-serif" font-size="12px" text-anchor="middle" x="1015.0" y="605.0">frontera</text><text fill="gray" font-family="Arial, sans-serif" font-size="12px" text-anchor="middle" x="990.0" y="695.0">frontera</text><text fill="gray" font-family="Arial, sans-serif" font-size="12px" text-anchor="middle" x="965.0" y="745.0">frontera</text><text fill="gray" font-family="Arial, sans-serif" font-size="12px" text-anchor="middle" x="890.0" y="745.0">frontera</text><text fill="gray" font-family="Arial, sans-serif" font-size="12px" text-anchor="middle" x="915.0" y="795.0">frontera</text><text fill="gray" font-family="Arial, sans-serif" font-size="12px" text-anchor="middle" x="1040.0" y="795.0">frontera</text><text fill="gray" font-family="Arial, sans-serif" font-size="12px" text-anchor="middle" x="1015.0" y="745.0">frontera</text><text fill="gray" font-family="Arial, sans-serif" font-size="12px" text-anchor="middle" x="1065.0" y="605.0">frontera</text><text fill="gray" font-family="Arial, sans-serif" font-size="12px" text-anchor="middle" x="1040.0" y="655.0">frontera</text><text fill="gray" font-family="Arial, sans-serif" font-size="12px" text-anchor="middle" x="1090.0" y="655.0">frontera</text></svg>