<?xml version="1.0" encoding="utf-8" ?>
<svg baseProfile="full" height="900" version="1.1" width="1400" xmlns="http://www.w3.org/2000/svg" xmlns:ev="http://www.w3.org/2001/xml-events" xmlns:xlink="http://www.w3.org/1999/xlink"><defs /><line stroke="black" stroke-width="2" x1="140.0" x2="440.0" y1="225.0" y2="225.0" /><text fill="gray" font-size="12px" text-anchor="middle" x="290.0" y="215.0">Dificultad: Baja → Media</text><line stroke="black" stroke-width="2" x1="440.0" x2="740.0" y1="225.0" y2="225.0" /><text fill="gray" font-size="12px" text-anchor="middle" x="590.0" y="215.0">Media</text><line stroke="black" stroke-width="2" x1="740.0" x2="1040.0" y1="225.0" y2="225.0" /><text fill="gray" font-size="12px" text-anchor="middle" x="890.0" y="215.0">Media</text><line stroke="black" stroke-width="2" x1="1040.0" x2="1340.0" y1="225.0" y2="225.0" /><text fill="gray" font-size="12px" text-anchor="middle" x="1190.0" y="215.0">Alta</text><rect fill="lightgreen" height="50" stroke="black" width="80" x="100" y="200" /><text fill="black" font-size="14px" text-anchor="middle" x="140.0" y="270">Mejora de Estilo Básico</text><text fill="black" font-size="14px" text-anchor="middle" x="140.0" y="288">(Formas detalladas: racks, nubes suaves)</text><rect fill="gold" height="50" stroke="black" width="80" x="400" y="200" /><text fill="black" font-size="14px" text-anchor="middle" x="440.0" y="270">Iconografía por Tipo</text><text fill="black" font-size="14px" text-anchor="middle" x="440.0" y="288">(Usar mini-iconos SVG específicos)</text><path d="M710,240 Q740,200 770,240 Q775,250 740,255 Q705,250 710,240 Z" fill="yellow" stroke="black" stroke-width="2" /><path d="M720,238 Q740,210 760,238 Q762,242 740,247 Q718,244 720,238 Z" fill="#eeeeee" stroke="black" stroke-width="1" /><rect fill="gray" height="14" stroke="black" transform="rotate(-35,755,237)" width="40" x="735" y="230" /><text fill="black" font-size="14px" text-anchor="middle" x="740.0" y="270">Gradientes de Color</text><text fill="black" font-size="14px" text-anchor="middle" x="740.0" y="288">(Fondos con degradados suaves)</text><rect fill="gold" height="50" stroke="black" width="80" x="1000" y="200" /><text fill="black" font-size="14px" text-anchor="middle" x="1040.0" y="270">Sombreados y Bordes</text><text fill="black" font-size="14px" text-anchor="middle" x="1040.0" y="288">(Shadow, redondeos SVG)</text><rect fill="tomato" height="50" stroke="black" width="80" x="1300" y="200" /><text fill="black" font-size="14px" text-anchor="middle" x="1340.0" y="270">Plantilla de Temas</text><text fill="black" font-size="14px" text-anchor="middle" x="1340.0" y="288">(Estilos Clásico, Cloud, Tech, etc.)</text></svg>