<?xml version="1.0" encoding="utf-8" ?>
<svg baseProfile="full" height="900" version="1.1" width="1400" xmlns="http://www.w3.org/2000/svg" xmlns:ev="http://www.w3.org/2001/xml-events" xmlns:xlink="http://www.w3.org/1999/xlink"><defs /><line stroke="black" stroke-width="2" x1="140.0" x2="440.0" y1="225.0" y2="225.0" /><text fill="gray" font-size="12px" text-anchor="middle" x="290.0" y="215.0">Dificultad: Baja → Media</text><line stroke="black" stroke-width="2" x1="440.0" x2="740.0" y1="225.0" y2="225.0" /><text fill="gray" font-size="12px" text-anchor="middle" x="590.0" y="215.0">Media</text><line stroke="black" stroke-width="2" x1="740.0" x2="1040.0" y1="225.0" y2="225.0" /><text fill="gray" font-size="12px" text-anchor="middle" x="890.0" y="215.0">Media</text><line stroke="black" stroke-width="2" x1="1040.0" x2="1340.0" y1="225.0" y2="225.0" /><text fill="gray" font-size="12px" text-anchor="middle" x="1190.0" y="215.0">Alta</text><rect fill="lightgreen" height="50" stroke="black" width="80" x="100" y="200" /><text fill="black" font-size="14px" text-anchor="middle" x="140.0" y="270">Mejora de Estilo Básico</text><text fill="black" font-size="14px" text-anchor="middle" x="140.0" y="288">(Formas detalladas: racks, nubes suaves)</text><rect fill="gold" height="50" stroke="black" width="80" x="400" y="200" /><text fill="black" font-size="14px" text-anchor="middle" x="440.0" y="270">Iconografía por Tipo</text><text fill="black" font-size="14px" text-anchor="middle" x="440.0" y="288">(Usar mini-iconos SVG específicos)</text><rect fill="gold" height="50" stroke="black" width="80" x="700" y="200" /><text fill="black" font-size="14px" text-anchor="middle" x="740.0" y="270">Gradientes de Color</text><text fill="black" font-size="14px" text-anchor="middle" x="740.0" y="288">(Fondos con degradados suaves)</text><rect fill="gold" height="50" stroke="black" width="80" x="1000" y="200" /><text fill="black" font-size="14px" text-anchor="middle" x="1040.0" y="270">Sombreados y Bordes</text><text fill="black" font-size="14px" text-anchor="middle" x="1040.0" y="288">(Shadow, redondeos SVG)</text><rect fill="tomato" height="50" stroke="black" width="80" x="1300" y="200" /><text fill="black" font-size="14px" text-anchor="middle" x="1340.0" y="270">Plantilla de Temas</text><text fill="black" font-size="14px" text-anchor="middle" x="1340.0" y="288">(Estilos Clásico, Cloud, Tech, etc.)</text></svg>