<?xml version="1.0" encoding="utf-8" ?>
<svg baseProfile="full" height="900" version="1.1" viewBox="0,0,1400,900" width="1400" xmlns="http://www.w3.org/2000/svg" xmlns:ev="http://www.w3.org/2001/xml-events" xmlns:xlink="http://www.w3.org/1999/xlink"><defs><marker id="arrow-end" markerHeight="10" markerWidth="10" orient="auto" refX="10" refY="5"><path d="M 0 0 L 10 5 L 0 10 z" fill="black" /></marker><marker id="arrow-start" markerHeight="10" markerWidth="10" orient="auto" refX="0" refY="5"><path d="M 10 0 L 0 5 L 10 10 z" fill="black" /></marker><linearGradient id="gradient-input_svg" x1="0%" x2="0%" y1="0%" y2="100%"><stop offset="0%" stop-color="#a6a6a6" /><stop offset="100%" stop-color="#595959" /></linearGradient><linearGradient id="gradient-parser" x1="0%" x2="0%" y1="0%" y2="100%"><stop offset="0%" stop-color="#81b8ff" /><stop offset="100%" stop-color="#356bb2" /></linearGradient><linearGradient id="gradient-extract_elements" x1="0%" x2="0%" y1="0%" y2="100%"><stop offset="0%" stop-color="#81b8ff" /><stop offset="100%" stop-color="#356bb2" /></linearGradient><linearGradient id="gradient-extract_attrs" x1="0%" x2="0%" y1="0%" y2="100%"><stop offset="0%" stop-color="#81b8ff" /><stop offset="100%" stop-color="#356bb2" /></linearGradient><linearGradient id="gradient-normalizer" x1="0%" x2="0%" y1="0%" y2="100%"><stop offset="0%" stop-color="#ffc081" /><stop offset="100%" stop-color="#b27435" /></linearGradient><linearGradient id="gradient-calc_bbox" x1="0%" x2="0%" y1="0%" y2="100%"><stop offset="0%" stop-color="#ffc081" /><stop offset="100%" stop-color="#b27435" /></linearGradient><linearGradient id="gradient-calc_scale" x1="0%" x2="0%" y1="0%" y2="100%"><stop offset="0%" stop-color="#ffc081" /><stop offset="100%" stop-color="#b27435" /></linearGradient><linearGradient id="gradient-normalize_coords" x1="0%" x2="0%" y1="0%" y2="100%"><stop offset="0%" stop-color="#ffc081" /><stop offset="100%" stop-color="#b27435" /></linearGradient><linearGradient id="gradient-simplifier" x1="0%" x2="0%" y1="0%" y2="100%"><stop offset="0%" stop-color="#c081c0" /><stop offset="100%" stop-color="#743574" /></linearGradient><linearGradient id="gradient-combine_paths" x1="0%" x2="0%" y1="0%" y2="100%"><stop offset="0%" stop-color="#c081c0" /><stop offset="100%" stop-color="#743574" /></linearGradient><linearGradient id="gradient-remove_invisible" x1="0%" x2="0%" y1="0%" y2="100%"><stop offset="0%" stop-color="#c081c0" /><stop offset="100%" stop-color="#743574" /></linearGradient><linearGradient id="gradient-optimize_paths" x1="0%" x2="0%" y1="0%" y2="100%"><stop offset="0%" stop-color="#c081c0" /><stop offset="100%" stop-color="#743574" /></linearGradient><linearGradient id="gradient-codegen" x1="0%" x2="0%" y1="0%" y2="100%"><stop offset="0%" stop-color="#c8f6c8" /><stop offset="100%" stop-color="#7baa7b" /></linearGradient><linearGradient id="gradient-create_function" x1="0%" x2="0%" y1="0%" y2="100%"><stop offset="0%" stop-color="#c8f6c8" /><stop offset="100%" stop-color="#7baa7b" /></linearGradient><linearGradient id="gradient-generate_paths" x1="0%" x2="0%" y1="0%" y2="100%"><stop offset="0%" stop-color="#c8f6c8" /><stop offset="100%" stop-color="#7baa7b" /></linearGradient><linearGradient id="gradient-format_code" x1="0%" x2="0%" y1="0%" y2="100%"><stop offset="0%" stop-color="#c8f6c8" /><stop offset="100%" stop-color="#7baa7b" /></linearGradient><linearGradient id="gradient-output_py" x1="0%" x2="0%" y1="0%" y2="100%"><stop offset="0%" stop-color="#a6a6a6" /><stop offset="100%" stop-color="#595959" /></linearGradient><linearGradient id="gradient-register" x1="0%" x2="0%" y1="0%" y2="100%"><stop offset="0%" stop-color="#ffeb81" /><stop offset="100%" stop-color="#b29e35" /></linearGradient><linearGradient id="gradient-ready" x1="0%" x2="0%" y1="0%" y2="100%"><stop offset="0%" stop-color="#c8f6c8" /><stop offset="100%" stop-color="#7baa7b" /></linearGradient></defs><ellipse cx="1190.0" cy="475.0" fill="url(#gradient-input_svg)" rx="40.0" ry="25.0" stroke="black" /><rect fill="url(#gradient-parser)" height="50" stroke="black" width="80" x="1000.0" y="450.0" /><rect fill="url(#gradient-extract_elements)" height="50" stroke="black" width="80" x="965.636807695963" y="589.4169516131305" /><rect fill="url(#gradient-extract_attrs)" height="50" stroke="black" width="80" x="870.4194240193467" y="696.8951597680968" /><rect fill="url(#gradient-normalizer)" height="50" stroke="black" width="80" x="640.0" y="390.0" /><rect fill="url(#gradient-calc_bbox)" height="50" stroke="black" width="80" x="736.161004076597" y="747.8126622294162" /><rect fill="url(#gradient-calc_scale)" height="50" stroke="black" width="80" x="593.6185338872393" y="730.5048728056245" /><rect fill="url(#gradient-normalize_coords)" height="50" stroke="black" width="80" x="475.44677554866973" y="648.9367974722386" /><rect fill="url(#gradient-simplifier)" height="50" stroke="black" width="80" x="760.0" y="390.0" /><rect fill="url(#gradient-combine_paths)" height="50" stroke="black" width="80" x="408.71745477218445" y="521.7946992862675" /><rect fill="url(#gradient-remove_invisible)" height="50" stroke="black" width="80" x="408.71745477218434" y="378.20530071373275" /><rect fill="url(#gradient-optimize_paths)" height="50" stroke="black" width="80" x="475.4467755486696" y="251.06320252776152" /><rect fill="url(#gradient-codegen)" height="50" stroke="black" width="80" x="640.0" y="510.0" /><rect fill="url(#gradient-create_function)" height="50" stroke="black" width="80" x="593.6185338872392" y="169.49512719437558" /><rect fill="url(#gradient-generate_paths)" height="50" stroke="black" width="80" x="736.1610040765967" y="152.18733777058378" /><rect fill="url(#gradient-format_code)" height="50" stroke="black" width="80" x="870.4194240193467" y="203.10484023190304" /><ellipse cx="800.0" cy="535.0" fill="url(#gradient-output_py)" rx="40.0" ry="25.0" stroke="black" /><rect fill="url(#gradient-register)" height="50" stroke="black" width="80" x="965.636807695963" y="310.5830483868692" /><ellipse cx="290.0" cy="475.00000000000006" fill="url(#gradient-ready)" rx="40.0" ry="25.0" stroke="black" /><line stroke="black" stroke-width="2" x1="1150.0" x2="1072.0" y1="475.0" y2="475.0" /><polyline fill="none" points="1040.0,507.0 1040.0,544.7084758065653 1005.636807695963,544.7084758065653 1005.636807695963,582.4169516131305" stroke="black" stroke-width="2" /><polyline fill="none" points="1040.0,507.0 1040.0,598.4475798840484 910.4194240193467,598.4475798840484 910.4194240193467,689.8951597680968" stroke="black" stroke-width="2" /><path d="M 978.3473379462486,597.7051342140735 C 927.0037478726115,499.0991132543593 818.4581453072906,432.62679604998243 707.2894697497144,431.711817399057" fill="none" stroke="black" stroke-width="2" /><path d="M 891.2061890258307,696.3050913609212 C 879.6472233114457,585.0338595758293 802.8407486383301,482.7354729864636 699.213234993516,440.59006840717564" fill="none" stroke="black" stroke-width="2" /><polyline fill="none" points="680.0,447.0 680.0,593.9063311147081 776.161004076597,593.9063311147081 776.161004076597,740.8126622294162" stroke="black" stroke-width="2" /><polyline fill="none" points="680.0,447.0 680.0,585.2524364028122 633.6185338872393,585.2524364028122 633.6185338872393,723.5048728056245" stroke="black" stroke-width="2" /><polyline fill="none" points="680.0,447.0 680.0,544.4683987361193 515.4467755486697,544.4683987361193 515.4467755486697,641.9367974722386" stroke="black" stroke-width="2" /><path d="M 778.288263687808,740.8834472915805 C 837.779235385477,657.1176242081212 845.7255673599448,537.8467367983158 797.872740388789,446.9292149378357" fill="none" stroke="black" stroke-width="2" /><path d="M 647.6672891577857,726.7536558688008 C 740.1547535123365,666.9604684539971 795.6152422165901,553.4588441854556 785.9512447294536,443.75121693682365" fill="none" stroke="black" stroke-width="2" /><path d="M 539.1144205310236,652.3997925507259 C 649.1383699866157,630.3075153158586 743.9894448037257,543.9952494917791 776.3323550176461,436.5370049215127" fill="none" stroke="black" stroke-width="2" /><polyline fill="none" points="768.0,415.0 624.3587273860923,415.0 624.3587273860923,546.7946992862675 480.71745477218445,546.7946992862675" stroke="black" stroke-width="2" /><polyline fill="none" points="768.0,415.0 624.3587273860921,415.0 624.3587273860921,403.20530071373275 480.71745477218434,403.20530071373275" stroke="black" stroke-width="2" /><polyline fill="none" points="768.0,415.0 657.7233877743348,415.0 657.7233877743348,276.0632025277615 547.4467755486696,276.0632025277615" stroke="black" stroke-width="2" /><path d="M 480.6759247730343,545.164915495459 C 527.5808414077297,577.555514641684 604.6750231503349,573.6239482129281 648.0415299991502,536.6297837908085" fill="none" stroke="black" stroke-width="2" /><path d="M 476.52020722746477,419.04849975655236 C 506.0424316218495,481.82924892666085 583.1366133644547,525.7608153554166 652.1972475447196,519.1568009571804" fill="none" stroke="black" stroke-width="2" /><path d="M 532.6101037464558,303.0709822435226 C 531.457330744944,387.05845201954054 586.3084055620542,473.37071784362 662.8366718022138,507.9922202842389" fill="none" stroke="black" stroke-width="2" /><polyline fill="none" points="680.0,503.0 680.0,364.74756359718776 633.6185338872392,364.74756359718776 633.6185338872392,226.49512719437558" stroke="black" stroke-width="2" /><polyline fill="none" points="680.0,503.0 680.0,356.0936688852919 776.1610040765967,356.0936688852919 776.1610040765967,209.18733777058378" stroke="black" stroke-width="2" /><polyline fill="none" points="680.0,503.0 680.0,381.5524201159515 910.4194240193467,381.5524201159515 910.4194240193467,260.10484023190304" stroke="black" stroke-width="2" /><path d="M 647.6672891577856,223.2463441311992 C 638.0032916706492,332.9539713798312 693.4637803749027,446.45559564837265 782.4390559118169,499.06097882897046" fill="none" stroke="black" stroke-width="2" /><path d="M 778.2882636878077,209.11655270841948 C 730.435436716652,300.0340745688997 738.3817686911199,419.30496197870514 797.3409254859862,495.0884813277054" fill="none" stroke="black" stroke-width="2" /><path d="M 899.5858586967594,258.2152016113557 C 827.5786753810166,313.84031321836665 790.772200707901,416.1386998077323 813.5419566532341,497.3620482756842" fill="none" stroke="black" stroke-width="2" /><line stroke="black" stroke-width="2" x1="828.7152088236184" x2="982.6646406370683" y1="507.1533344506745" y2="357.8603808263296" /><line stroke="black" stroke-width="2" x1="974.2272992877181" x2="329.26188551030606" y1="341.7020990936698" y2="467.3511866164993" /><text fill="black" font-family="Arial, sans-serif" font-size="14px" text-anchor="middle" x="1190.0" y="520.0">archivo.svg</text><text fill="black" font-family="Arial, sans-serif" font-size="14px" text-anchor="middle" x="1190.0" y="538.0">(input)</text><text fill="black" font-family="Arial, sans-serif" font-size="14px" text-anchor="middle" x="1040.0" y="422.0">SVG Parser</text><text fill="black" font-family="Arial, sans-serif" font-size="14px" text-anchor="middle" x="1040.0" y="440.0">(Fase 1)</text><text fill="black" font-family="Arial, sans-serif" font-size="14px" text-anchor="start" x="1060.636807695963" y="614.4169516131305">Extraer Elementos</text><text fill="black" font-family="Arial, sans-serif" font-size="14px" text-anchor="start" x="1060.636807695963" y="632.4169516131305">&lt;path&gt; &lt;rect&gt;</text><text fill="black" font-family="Arial, sans-serif" font-size="14px" text-anchor="start" x="1060.636807695963" y="650.4169516131305">&lt;circle&gt; etc.</text><text fill="black" font-family="Arial, sans-serif" font-size="14px" text-anchor="middle" x="910.4194240193467" y="766.8951597680968">Extraer Atributos</text><text fill="black" font-family="Arial, sans-serif" font-size="14px" text-anchor="middle" x="910.4194240193467" y="784.8951597680968">fill, stroke</text><text fill="black" font-family="Arial, sans-serif" font-size="14px" text-anchor="middle" x="910.4194240193467" y="802.8951597680968">transform</text><text fill="black" font-family="Arial, sans-serif" font-size="14px" text-anchor="middle" x="680.0" y="362.0">Normalizer</text><text fill="black" font-family="Arial, sans-serif" font-size="14px" text-anchor="middle" x="680.0" y="380.0">(Fase 2)</text><text fill="black" font-family="Arial, sans-serif" font-size="14px" text-anchor="middle" x="776.161004076597" y="817.8126622294162">Calcular</text><text fill="black" font-family="Arial, sans-serif" font-size="14px" text-anchor="middle" x="776.161004076597" y="835.8126622294162">Bounding Box</text><text fill="black" font-family="Arial, sans-serif" font-size="14px" text-anchor="middle" x="633.6185338872393" y="800.5048728056245">Calcular Escala</text><text fill="black" font-family="Arial, sans-serif" font-size="14px" text-anchor="middle" x="633.6185338872393" y="818.5048728056245">ICON_WIDTH/HEIGHT</text><text fill="black" font-family="Arial, sans-serif" font-size="14px" text-anchor="middle" x="515.4467755486697" y="718.9367974722386">Normalizar</text><text fill="black" font-family="Arial, sans-serif" font-size="14px" text-anchor="middle" x="515.4467755486697" y="736.9367974722386">Coordenadas</text><text fill="black" font-family="Arial, sans-serif" font-size="14px" text-anchor="middle" x="515.4467755486697" y="754.9367974722386">(0,0 origin)</text><text fill="black" font-family="Arial, sans-serif" font-size="14px" text-anchor="start" x="855.0" y="415.0">Simplifier</text><text fill="black" font-family="Arial, sans-serif" font-size="14px" text-anchor="start" x="855.0" y="433.0">(Fase 3)</text><text fill="black" font-family="Arial, sans-serif" font-size="14px" text-anchor="start" x="855.0" y="451.0">Opcional</text><text fill="black" font-family="Arial, sans-serif" font-size="14px" text-anchor="middle" x="448.71745477218445" y="591.7946992862675">Combinar</text><text fill="black" font-family="Arial, sans-serif" font-size="14px" text-anchor="middle" x="448.71745477218445" y="609.7946992862675">Paths Similares</text><text fill="black" font-family="Arial, sans-serif" font-size="14px" text-anchor="middle" x="448.71745477218434" y="332.20530071373275">Eliminar</text><text fill="black" font-family="Arial, sans-serif" font-size="14px" text-anchor="middle" x="448.71745477218434" y="350.20530071373275">Invisibles</text><text fill="black" font-family="Arial, sans-serif" font-size="14px" text-anchor="middle" x="448.71745477218434" y="368.20530071373275">opacity=0</text><text fill="black" font-family="Arial, sans-serif" font-size="14px" text-anchor="middle" x="515.4467755486696" y="205.06320252776152">Optimizar</text><text fill="black" font-family="Arial, sans-serif" font-size="14px" text-anchor="middle" x="515.4467755486696" y="223.06320252776152">Path Data</text><text fill="black" font-family="Arial, sans-serif" font-size="14px" text-anchor="middle" x="515.4467755486696" y="241.06320252776152">Reducir decimales</text><text fill="black" font-family="Arial, sans-serif" font-size="14px" text-anchor="end" x="625.0" y="535.0">Code Generator</text><text fill="black" font-family="Arial, sans-serif" font-size="14px" text-anchor="end" x="625.0" y="553.0">(Fase 4)</text><text fill="black" font-family="Arial, sans-serif" font-size="14px" text-anchor="middle" x="633.6185338872392" y="141.49512719437558">Crear Función</text><text fill="black" font-family="Arial, sans-serif" font-size="14px" text-anchor="middle" x="633.6185338872392" y="159.49512719437558">draw_&lt;nombre&gt;()</text><text fill="black" font-family="Arial, sans-serif" font-size="14px" text-anchor="middle" x="776.1610040765967" y="106.18733777058378">Generar</text><text fill="black" font-family="Arial, sans-serif" font-size="14px" text-anchor="middle" x="776.1610040765967" y="124.18733777058378">dwg.add()</text><text fill="black" font-family="Arial, sans-serif" font-size="14px" text-anchor="middle" x="776.1610040765967" y="142.18733777058378">para cada elemento</text><text fill="black" font-family="Arial, sans-serif" font-size="14px" text-anchor="start" x="965.4194240193467" y="228.10484023190304">Formatear</text><text fill="black" font-family="Arial, sans-serif" font-size="14px" text-anchor="start" x="965.4194240193467" y="246.10484023190304">Código PEP8</text><text fill="black" font-family="Arial, sans-serif" font-size="14px" text-anchor="start" x="855.0" y="535.0">draw_&lt;nombre&gt;.py</text><text fill="black" font-family="Arial, sans-serif" font-size="14px" text-anchor="start" x="855.0" y="553.0">(output)</text><text fill="black" font-family="Arial, sans-serif" font-size="14px" text-anchor="start" x="1060.636807695963" y="335.5830483868692">Registrar en</text><text fill="black" font-family="Arial, sans-serif" font-size="14px" text-anchor="start" x="1060.636807695963" y="353.5830483868692">ICON_TYPES</text><text fill="black" font-family="Arial, sans-serif" font-size="14px" text-anchor="start" x="1060.636807695963" y="371.5830483868692">(opcional)</text><text fill="black" font-family="Arial, sans-serif" font-size="14px" text-anchor="middle" x="290.0" y="520.0">Ícono Listo</text><text fill="black" font-family="Arial, sans-serif" font-size="14px" text-anchor="middle" x="290.0" y="538.0">para Usar en .gag</text><text fill="gray" font-family="Arial, sans-serif" font-size="12px" text-anchor="middle" x="1111.0" y="465.0">lee SVG</text><text fill="gray" font-family="Arial, sans-serif" font-size="12px" text-anchor="middle" x="1022.8184038479815" y="534.7084758065653">parsea XML</text><text fill="gray" font-family="Arial, sans-serif" font-size="12px" text-anchor="middle" x="975.2097120096734" y="588.4475798840484">extrae</text><text fill="gray" font-family="Arial, sans-serif" font-size="12px" text-anchor="middle" x="728.0805020382985" y="583.9063311147081">procesa</text><text fill="gray" font-family="Arial, sans-serif" font-size="12px" text-anchor="middle" x="624.3587273860923" y="470.89734964313374">optimiza</text><text fill="gray" font-family="Arial, sans-serif" font-size="12px" text-anchor="middle" x="656.8092669436196" y="354.74756359718776">genera</text><text fill="gray" font-family="Arial, sans-serif" font-size="12px" text-anchor="middle" x="905.6899247303434" y="422.5068576385021">registro
opcional</text><text fill="gray" font-family="Arial, sans-serif" font-size="12px" text-anchor="middle" x="651.744592399012" y="394.52664285508456">disponible</text></svg>