<?xml version="1.0" encoding="utf-8" ?>
<svg baseProfile="full" height="500" version="1.1" viewBox="0,0,700,500" width="700" xmlns="http://www.w3.org/2000/svg" xmlns:ev="http://www.w3.org/2001/xml-events" xmlns:xlink="http://www.w3.org/1999/xlink"><defs><marker id="arrow-end" markerHeight="10" markerWidth="10" orient="auto" refX="10" refY="5"><path d="M 0 0 L 10 5 L 0 10 z" fill="black" /></marker><marker id="arrow-start" markerHeight="10" markerWidth="10" orient="auto" refX="0" refY="5"><path d="M 10 0 L 0 5 L 10 10 z" fill="black" /></marker><linearGradient id="gradient-cliente" x1="0%" x2="0%" y1="0%" y2="100%"><stop offset="0%" stop-color="#c5e3ed" /><stop offset="100%" stop-color="#7997a1" /></linearGradient><linearGradient id="gradient-firewall" x1="0%" x2="0%" y1="0%" y2="100%"><stop offset="0%" stop-color="#ff917e" /><stop offset="100%" stop-color="#b24531" /></linearGradient><linearGradient id="gradient-servidor" x1="0%" x2="0%" y1="0%" y2="100%"><stop offset="0%" stop-color="#b1f3b1" /><stop offset="100%" stop-color="#64a664" /></linearGradient><linearGradient id="gradient-nube" x1="0%" x2="0%" y1="0%" y2="100%"><stop offset="0%" stop-color="#ffe34c" /><stop offset="100%" stop-color="#b29600" /></linearGradient></defs><rect fill="url(#gradient-cliente)" height="50" stroke="black" width="80" x="50" y="100" /><text fill="black" font-size="14px" text-anchor="middle" x="90" y="170">Cliente</text><rect fill="url(#gradient-firewall)" height="50" stroke="black" width="80" x="250" y="100" /><text fill="black" font-size="14px" text-anchor="middle" x="290" y="170">Firewall</text><rect fill="url(#gradient-servidor)" height="50" stroke="black" width="80" x="450" y="100" /><text fill="black" font-size="14px" text-anchor="middle" x="490" y="170">Servidor</text><ellipse cx="290.0" cy="325.0" fill="url(#gradient-nube)" rx="40.0" ry="25.0" stroke="black" /><text fill="black" font-size="14px" text-anchor="middle" x="290" y="370">Cloud</text><line marker-end="url(#arrow-end)" stroke="black" stroke-width="2" x1="122.0" x2="258.0" y1="125.0" y2="125.0" /><text fill="gray" font-size="12px" text-anchor="middle" x="190.0" y="115.0">forward (-&gt;)</text><line marker-end="url(#arrow-end)" marker-start="url(#arrow-start)" stroke="black" stroke-width="2" x1="322.0" x2="458.0" y1="125.0" y2="125.0" /><text fill="gray" font-size="12px" text-anchor="middle" x="390.0" y="115.0">bidirectional (&lt;-&gt;)</text><line marker-start="url(#arrow-start)" stroke="black" stroke-width="2" x1="467.37258300203047" x2="318.2842712474619" y1="147.62741699796953" y2="296.7157287525381" /><text fill="gray" font-size="12px" text-anchor="middle" x="392.8284271247462" y="212.17157287525382">backward (&lt;-)</text><line stroke="black" stroke-width="2" x1="112.62741699796952" x2="261.7157287525381" y1="147.62741699796953" y2="296.7157287525381" /><text fill="gray" font-size="12px" text-anchor="middle" x="187.17157287525382" y="212.17157287525382">sin direccion</text></svg>