<?xml version="1.0" encoding="utf-8" ?>
<svg baseProfile="full" height="750" version="1.1" viewBox="0,0,1000,750" width="1000" xmlns="http://www.w3.org/2000/svg" xmlns:ev="http://www.w3.org/2001/xml-events" xmlns:xlink="http://www.w3.org/1999/xlink"><defs><marker id="arrow-end" markerHeight="10" markerWidth="10" orient="auto" refX="10" refY="5"><path d="M 0 0 L 10 5 L 0 10 z" fill="black" /></marker><marker id="arrow-start" markerHeight="10" markerWidth="10" orient="auto" refX="0" refY="5"><path d="M 10 0 L 0 5 L 10 10 z" fill="black" /></marker><linearGradient id="gradient-input" x1="0%" x2="0%" y1="0%" y2="100%"><stop offset="0%" stop-color="#c5e3ed" /><stop offset="100%" stop-color="#7997a1" /></linearGradient><linearGradient id="gradient-main" x1="0%" x2="0%" y1="0%" y2="100%"><stop offset="0%" stop-color="#b1f3b1" /><stop offset="100%" stop-color="#64a664" /></linearGradient><linearGradient id="gradient-generator" x1="0%" x2="0%" y1="0%" y2="100%"><stop offset="0%" stop-color="#ffe34c" /><stop offset="100%" stop-color="#b29600" /></linearGradient><linearGradient id="gradient-svgwrite" x1="0%" x2="0%" y1="0%" y2="100%"><stop offset="0%" stop-color="#4cffff" /><stop offset="100%" stop-color="#00b2b2" /></linearGradient><linearGradient id="gradient-canvas" x1="0%" x2="0%" y1="0%" y2="100%"><stop offset="0%" stop-color="#ffe34c" /><stop offset="100%" stop-color="#b29600" /></linearGradient><linearGradient id="gradient-loop_elem" x1="0%" x2="0%" y1="0%" y2="100%"><stop offset="0%" stop-color="#ffc04c" /><stop offset="100%" stop-color="#b27300" /></linearGradient><linearGradient id="gradient-loop_conn" x1="0%" x2="0%" y1="0%" y2="100%"><stop offset="0%" stop-color="#ffc04c" /><stop offset="100%" stop-color="#b27300" /></linearGradient><linearGradient id="gradient-icons" x1="0%" x2="0%" y1="0%" y2="100%"><stop offset="0%" stop-color="#a64ca6" /><stop offset="100%" stop-color="#590059" /></linearGradient><linearGradient id="gradient-gradient" x1="0%" x2="0%" y1="0%" y2="100%"><stop offset="0%" stop-color="#a64ca6" /><stop offset="100%" stop-color="#590059" /></linearGradient><linearGradient id="gradient-try_import" x1="0%" x2="0%" y1="0%" y2="100%"><stop offset="0%" stop-color="#ffff4c" /><stop offset="100%" stop-color="#b2b200" /></linearGradient><linearGradient id="gradient-modules" x1="0%" x2="0%" y1="0%" y2="100%"><stop offset="0%" stop-color="#b1f3b1" /><stop offset="100%" stop-color="#64a664" /></linearGradient><linearGradient id="gradient-bwt" x1="0%" x2="0%" y1="0%" y2="100%"><stop offset="0%" stop-color="#ff917e" /><stop offset="100%" stop-color="#b24531" /></linearGradient><linearGradient id="gradient-connections" x1="0%" x2="0%" y1="0%" y2="100%"><stop offset="0%" stop-color="#ffc04c" /><stop offset="100%" stop-color="#b27300" /></linearGradient><linearGradient id="gradient-output" x1="0%" x2="0%" y1="0%" y2="100%"><stop offset="0%" stop-color="#b1f3b1" /><stop offset="100%" stop-color="#64a664" /></linearGradient></defs><rect fill="url(#gradient-input)" height="50" stroke="black" width="80" x="100" y="30" /><text fill="black" font-size="14px" text-anchor="middle" x="140" y="100">archivo.gag</text><text fill="black" font-size="14px" text-anchor="middle" x="140" y="118">(JSON SDJF)</text><rect fill="url(#gradient-main)" height="50" stroke="black" width="80" x="300" y="30" /><text fill="black" font-size="14px" text-anchor="middle" x="340" y="100">main.py</text><text fill="black" font-size="14px" text-anchor="middle" x="340" y="118">(entrada CLI)</text><rect fill="url(#gradient-generator)" height="50" stroke="black" width="80" x="500" y="30" /><text fill="black" font-size="14px" text-anchor="middle" x="540" y="100">generator.py</text><text fill="black" font-size="14px" text-anchor="middle" x="540" y="118">(orquestador)</text><ellipse cx="740.0" cy="55.0" fill="url(#gradient-svgwrite)" rx="40.0" ry="25.0" stroke="black" /><text fill="black" font-size="14px" text-anchor="middle" x="740" y="100">svgwrite</text><text fill="black" font-size="14px" text-anchor="middle" x="740" y="118">(libreria)</text><rect fill="url(#gradient-canvas)" height="50" stroke="black" width="80" x="500" y="150" /><text fill="black" font-size="14px" text-anchor="middle" x="540" y="220">Crear canvas</text><text fill="black" font-size="14px" text-anchor="middle" x="540" y="238">+ markers</text><rect fill="url(#gradient-loop_elem)" height="50" stroke="black" width="80" x="300" y="150" /><text fill="black" font-size="14px" text-anchor="middle" x="340" y="220">for element</text><text fill="black" font-size="14px" text-anchor="middle" x="340" y="238">in elements</text><rect fill="url(#gradient-loop_conn)" height="50" stroke="black" width="80" x="700" y="150" /><text fill="black" font-size="14px" text-anchor="middle" x="740" y="220">for conn</text><text fill="black" font-size="14px" text-anchor="middle" x="740" y="238">in connections</text><rect fill="url(#gradient-icons)" height="50" stroke="black" width="80" x="300" y="270" /><text fill="black" font-size="14px" text-anchor="middle" x="340" y="340">draw/icons.py</text><text fill="black" font-size="14px" text-anchor="middle" x="340" y="358">draw_icon()</text><rect fill="url(#gradient-gradient)" height="50" stroke="black" width="80" x="300" y="390" /><text fill="black" font-size="14px" text-anchor="middle" x="340" y="460">1. create_gradient()</text><text fill="black" font-size="14px" text-anchor="middle" x="340" y="478">claro -&gt; oscuro</text><rect fill="url(#gradient-try_import)" height="50" stroke="black" width="80" x="300" y="510" /><text fill="black" font-size="14px" text-anchor="middle" x="340" y="580">2. try: importlib</text><text fill="black" font-size="14px" text-anchor="middle" x="340" y="598">draw_{type}()</text><rect fill="url(#gradient-modules)" height="50" stroke="black" width="80" x="100" y="600" /><text fill="black" font-size="14px" text-anchor="middle" x="140" y="670">building.py</text><text fill="black" font-size="14px" text-anchor="middle" x="140" y="688">server.py</text><text fill="black" font-size="14px" text-anchor="middle" x="140" y="706">cloud.py</text><text fill="black" font-size="14px" text-anchor="middle" x="140" y="724">firewall.py</text><rect fill="url(#gradient-bwt)" height="50" stroke="black" width="80" x="500" y="600" /><text fill="black" font-size="14px" text-anchor="middle" x="540" y="670">3. except:</text><text fill="black" font-size="14px" text-anchor="middle" x="540" y="688">bwt.py (fallback)</text><rect fill="url(#gradient-connections)" height="50" stroke="black" width="80" x="700" y="270" /><text fill="black" font-size="14px" text-anchor="middle" x="740" y="340">connections.py</text><text fill="black" font-size="14px" text-anchor="middle" x="740" y="358">draw_connection()</text><rect fill="url(#gradient-output)" height="50" stroke="black" width="80" x="700" y="390" /><text fill="black" font-size="14px" text-anchor="middle" x="740" y="460">dwg.save()</text><text fill="black" font-size="14px" text-anchor="middle" x="740" y="478">archivo.svg</text><line marker-end="url(#arrow-end)" stroke="black" stroke-width="2" x1="172.0" x2="308.0" y1="55.0" y2="55.0" /><text fill="gray" font-size="12px" text-anchor="middle" x="240.0" y="45.0">lee JSON</text><line marker-end="url(#arrow-end)" stroke="black" stroke-width="2" x1="372.0" x2="508.0" y1="55.0" y2="55.0" /><text fill="gray" font-size="12px" text-anchor="middle" x="440.0" y="45.0">generate_diagram()</text><line marker-end="url(#arrow-end)" stroke="black" stroke-width="2" x1="572.0" x2="700.0" y1="55.0" y2="55.0" /><text fill="gray" font-size="12px" text-anchor="middle" x="636.0" y="45.0">Drawing()</text><line marker-end="url(#arrow-end)" stroke="black" stroke-width="2" x1="540.0" x2="540.0" y1="87.0" y2="143.0" /><text fill="gray" font-size="12px" text-anchor="middle" x="540.0" y="105.0" /><line marker-end="url(#arrow-end)" stroke="black" stroke-width="2" x1="508.0" x2="372.0" y1="175.0" y2="175.0" /><text fill="gray" font-size="12px" text-anchor="middle" x="440.0" y="165.0" /><line marker-end="url(#arrow-end)" stroke="black" stroke-width="2" x1="572.0" x2="708.0" y1="175.0" y2="175.0" /><text fill="gray" font-size="12px" text-anchor="middle" x="640.0" y="165.0" /><line marker-end="url(#arrow-end)" stroke="black" stroke-width="2" x1="340.0" x2="340.0" y1="207.0" y2="263.0" /><text fill="gray" font-size="12px" text-anchor="middle" x="340.0" y="225.0" /><line marker-end="url(#arrow-end)" stroke="black" stroke-width="2" x1="340.0" x2="340.0" y1="327.0" y2="383.0" /><text fill="gray" font-size="12px" text-anchor="middle" x="340.0" y="345.0" /><line marker-end="url(#arrow-end)" stroke="black" stroke-width="2" x1="340.0" x2="340.0" y1="447.0" y2="503.0" /><text fill="gray" font-size="12px" text-anchor="middle" x="340.0" y="465.0" /><line marker-end="url(#arrow-end)" stroke="black" stroke-width="2" x1="310.8185118343966" x2="169.1814881656034" y1="548.1316696745215" y2="611.8683303254785" /><text fill="gray" font-size="12px" text-anchor="middle" x="240.0" y="570.0">OK</text><line marker-end="url(#arrow-end)" stroke="black" stroke-width="2" x1="369.1814881656034" x2="510.8185118343966" y1="548.1316696745215" y2="611.8683303254785" /><text fill="gray" font-size="12px" text-anchor="middle" x="440.0" y="570.0">Error</text><line marker-end="url(#arrow-end)" stroke="black" stroke-width="2" x1="740.0" x2="740.0" y1="207.0" y2="263.0" /><text fill="gray" font-size="12px" text-anchor="middle" x="740.0" y="225.0" /><line marker-end="url(#arrow-end)" stroke="black" stroke-width="2" x1="740.0" x2="740.0" y1="327.0" y2="383.0" /><text fill="gray" font-size="12px" text-anchor="middle" x="740.0" y="345.0" /></svg>