<?xml version="1.0" encoding="utf-8" ?>
<svg baseProfile="full" height="700" version="1.1" viewBox="0,0,1100,700" width="1100" xmlns="http://www.w3.org/2000/svg" xmlns:ev="http://www.w3.org/2001/xml-events" xmlns:xlink="http://www.w3.org/1999/xlink"><defs><marker id="arrow-end" markerHeight="10" markerWidth="10" orient="auto" refX="10" refY="5"><path d="M 0 0 L 10 5 L 0 10 z" fill="black" /></marker><marker id="arrow-start" markerHeight="10" markerWidth="10" orient="auto" refX="0" refY="5"><path d="M 10 0 L 0 5 L 10 10 z" fill="black" /></marker><linearGradient id="gradient-input" x1="0%" x2="0%" y1="0%" y2="100%"><stop offset="0%" stop-color="#c5e3ed" /><stop offset="100%" stop-color="#7997a1" /></linearGradient><linearGradient id="gradient-main" x1="0%" x2="0%" y1="0%" y2="100%"><stop offset="0%" stop-color="#b1f3b1" /><stop offset="100%" stop-color="#64a664" /></linearGradient><linearGradient id="gradient-generator" x1="0%" x2="0%" y1="0%" y2="100%"><stop offset="0%" stop-color="#ffe34c" /><stop offset="100%" stop-color="#b29600" /></linearGradient><linearGradient id="gradient-svgwrite" x1="0%" x2="0%" y1="0%" y2="100%"><stop offset="0%" stop-color="#4cffff" /><stop offset="100%" stop-color="#00b2b2" /></linearGradient><linearGradient id="gradient-canvas" x1="0%" x2="0%" y1="0%" y2="100%"><stop offset="0%" stop-color="#ffe34c" /><stop offset="100%" stop-color="#b29600" /></linearGradient><linearGradient id="gradient-icons" x1="0%" x2="0%" y1="0%" y2="100%"><stop offset="0%" stop-color="#ffc04c" /><stop offset="100%" stop-color="#b27300" /></linearGradient><linearGradient id="gradient-gradient" x1="0%" x2="0%" y1="0%" y2="100%"><stop offset="0%" stop-color="#a64ca6" /><stop offset="100%" stop-color="#590059" /></linearGradient><linearGradient id="gradient-dynamic" x1="0%" x2="0%" y1="0%" y2="100%"><stop offset="0%" stop-color="#ffd2da" /><stop offset="100%" stop-color="#b2868e" /></linearGradient><linearGradient id="gradient-modules" x1="0%" x2="0%" y1="0%" y2="100%"><stop offset="0%" stop-color="#b1f3b1" /><stop offset="100%" stop-color="#64a664" /></linearGradient><linearGradient id="gradient-bwt" x1="0%" x2="0%" y1="0%" y2="100%"><stop offset="0%" stop-color="#ff917e" /><stop offset="100%" stop-color="#b24531" /></linearGradient><linearGradient id="gradient-connections" x1="0%" x2="0%" y1="0%" y2="100%"><stop offset="0%" stop-color="#ffc04c" /><stop offset="100%" stop-color="#b27300" /></linearGradient><linearGradient id="gradient-output" x1="0%" x2="0%" y1="0%" y2="100%"><stop offset="0%" stop-color="#b1f3b1" /><stop offset="100%" stop-color="#64a664" /></linearGradient><linearGradient id="gradient-decision" x1="0%" x2="0%" y1="0%" y2="100%"><stop offset="0%" stop-color="#ffff4c" /><stop offset="100%" stop-color="#b2b200" /></linearGradient></defs><rect fill="url(#gradient-input)" height="50" stroke="black" width="80" x="50" y="50" /><text fill="black" font-size="14px" text-anchor="middle" x="90" y="120">archivo.gag</text><text fill="black" font-size="14px" text-anchor="middle" x="90" y="138">(JSON SDJF)</text><rect fill="url(#gradient-main)" height="50" stroke="black" width="80" x="250" y="50" /><text fill="black" font-size="14px" text-anchor="middle" x="290" y="120">main.py</text><text fill="black" font-size="14px" text-anchor="middle" x="290" y="138">(entrada CLI)</text><rect fill="url(#gradient-generator)" height="50" stroke="black" width="80" x="450" y="50" /><text fill="black" font-size="14px" text-anchor="middle" x="490" y="120">generator.py</text><text fill="black" font-size="14px" text-anchor="middle" x="490" y="138">(orquestador)</text><ellipse cx="690.0" cy="75.0" fill="url(#gradient-svgwrite)" rx="40.0" ry="25.0" stroke="black" /><text fill="black" font-size="14px" text-anchor="middle" x="690" y="120">svgwrite</text><text fill="black" font-size="14px" text-anchor="middle" x="690" y="138">(libreria SVG)</text><rect fill="url(#gradient-canvas)" height="50" stroke="black" width="80" x="450" y="180" /><text fill="black" font-size="14px" text-anchor="middle" x="490" y="250">Crear canvas</text><text fill="black" font-size="14px" text-anchor="middle" x="490" y="268">+ markers flechas</text><rect fill="url(#gradient-icons)" height="50" stroke="black" width="80" x="250" y="300" /><text fill="black" font-size="14px" text-anchor="middle" x="290" y="370">draw/icons.py</text><text fill="black" font-size="14px" text-anchor="middle" x="290" y="388">(dispatcher)</text><rect fill="url(#gradient-gradient)" height="50" stroke="black" width="80" x="50" y="300" /><text fill="black" font-size="14px" text-anchor="middle" x="90" y="370">create_gradient()</text><text fill="black" font-size="14px" text-anchor="middle" x="90" y="388">(claro -&gt; oscuro)</text><ellipse cx="290.0" cy="455.0" fill="url(#gradient-dynamic)" rx="40.0" ry="25.0" stroke="black" /><text fill="black" font-size="14px" text-anchor="middle" x="290" y="500">importlib</text><text fill="black" font-size="14px" text-anchor="middle" x="290" y="518">(carga dinamica)</text><rect fill="url(#gradient-modules)" height="50" stroke="black" width="80" x="50" y="430" /><text fill="black" font-size="14px" text-anchor="middle" x="90" y="500">building.py</text><text fill="black" font-size="14px" text-anchor="middle" x="90" y="518">server.py</text><text fill="black" font-size="14px" text-anchor="middle" x="90" y="536">cloud.py</text><text fill="black" font-size="14px" text-anchor="middle" x="90" y="554">firewall.py</text><rect fill="url(#gradient-bwt)" height="50" stroke="black" width="80" x="450" y="430" /><text fill="black" font-size="14px" text-anchor="middle" x="490" y="500">bwt.py</text><text fill="black" font-size="14px" text-anchor="middle" x="490" y="518">(fallback)</text><rect fill="url(#gradient-connections)" height="50" stroke="black" width="80" x="650" y="300" /><text fill="black" font-size="14px" text-anchor="middle" x="690" y="370">connections.py</text><text fill="black" font-size="14px" text-anchor="middle" x="690" y="388">(lineas + flechas)</text><rect fill="url(#gradient-output)" height="50" stroke="black" width="80" x="850" y="180" /><text fill="black" font-size="14px" text-anchor="middle" x="890" y="250">archivo.svg</text><text fill="black" font-size="14px" text-anchor="middle" x="890" y="268">(resultado)</text><rect fill="url(#gradient-decision)" height="50" stroke="black" width="80" x="450" y="300" /><text fill="black" font-size="14px" text-anchor="middle" x="490" y="370">type existe?</text><line marker-end="url(#arrow-end)" stroke="black" stroke-width="2" x1="122.0" x2="258.0" y1="75.0" y2="75.0" /><text fill="gray" font-size="12px" text-anchor="middle" x="190.0" y="65.0">lee JSON</text><line marker-end="url(#arrow-end)" stroke="black" stroke-width="2" x1="322.0" x2="458.0" y1="75.0" y2="75.0" /><text fill="gray" font-size="12px" text-anchor="middle" x="390.0" y="65.0">generate_diagram()</text><line marker-end="url(#arrow-end)" stroke="black" stroke-width="2" x1="522.0" x2="650.0" y1="75.0" y2="75.0" /><text fill="gray" font-size="12px" text-anchor="middle" x="586.0" y="65.0">crea Drawing</text><line marker-end="url(#arrow-end)" stroke="black" stroke-width="2" x1="490.0" x2="490.0" y1="107.0" y2="173.0" /><text fill="gray" font-size="12px" text-anchor="middle" x="490.0" y="130.0">setup</text><line marker-end="url(#arrow-end)" stroke="black" stroke-width="2" x1="462.5602263771986" x2="317.4397736228014" y1="221.46386417368086" y2="308.53613582631914" /><text fill="gray" font-size="12px" text-anchor="middle" x="390.0" y="255.0">for elem in elements</text><line marker-end="url(#arrow-end)" stroke="black" stroke-width="2" x1="258.0" x2="122.0" y1="325.0" y2="325.0" /><text fill="gray" font-size="12px" text-anchor="middle" x="190.0" y="315.0">genera gradiente</text><line marker-end="url(#arrow-end)" stroke="black" stroke-width="2" x1="290.0" x2="290.0" y1="357.0" y2="415.0" /><text fill="gray" font-size="12px" text-anchor="middle" x="290.0" y="376.0">import modulo</text><line marker-end="url(#arrow-end)" stroke="black" stroke-width="2" x1="250.0" x2="122.0" y1="455.0" y2="455.0" /><text fill="gray" font-size="12px" text-anchor="middle" x="186.0" y="445.0">draw_{type}()</text><line marker-end="url(#arrow-end)" stroke="black" stroke-width="2" x1="322.0" x2="458.0" y1="325.0" y2="325.0" /><text fill="gray" font-size="12px" text-anchor="middle" x="390.0" y="315.0">verifica tipo</text><line marker-end="url(#arrow-end)" stroke="black" stroke-width="2" x1="490.0" x2="490.0" y1="357.0" y2="423.0" /><text fill="gray" font-size="12px" text-anchor="middle" x="490.0" y="380.0">NO: fallback</text><line marker-end="url(#arrow-end)" stroke="black" stroke-width="2" x1="517.4397736228015" x2="662.5602263771985" y1="221.46386417368086" y2="308.53613582631914" /><text fill="gray" font-size="12px" text-anchor="middle" x="590.0" y="255.0">for conn in connections</text><line marker-end="url(#arrow-end)" stroke="black" stroke-width="2" x1="717.4397736228015" x2="862.5602263771985" y1="308.53613582631914" y2="221.46386417368086" /><text fill="gray" font-size="12px" text-anchor="middle" x="790.0" y="255.0">dwg.save()</text></svg>