<?xml version="1.0" encoding="utf-8" ?>
<svg baseProfile="full" height="600" version="1.1" viewBox="0,0,800,600" width="800" xmlns="http://www.w3.org/2000/svg" xmlns:ev="http://www.w3.org/2001/xml-events" xmlns:xlink="http://www.w3.org/1999/xlink"><defs><marker id="arrow-end" markerHeight="10" markerWidth="10" orient="auto" refX="10" refY="5"><path d="M 0 0 L 10 5 L 0 10 z" fill="black" /></marker><marker id="arrow-start" markerHeight="10" markerWidth="10" orient="auto" refX="0" refY="5"><path d="M 10 0 L 0 5 L 10 10 z" fill="black" /></marker><linearGradient id="gradient-a" x1="0%" x2="0%" y1="0%" y2="100%"><stop offset="0%" stop-color="#c5e3ed" /><stop offset="100%" stop-color="#7997a1" /></linearGradient><linearGradient id="gradient-b" x1="0%" x2="0%" y1="0%" y2="100%"><stop offset="0%" stop-color="#b1f3b1" /><stop offset="100%" stop-color="#64a664" /></linearGradient><linearGradient id="gradient-c" x1="0%" x2="0%" y1="0%" y2="100%"><stop offset="0%" stop-color="#ffc04c" /><stop offset="100%" stop-color="#b27300" /></linearGradient><linearGradient id="gradient-d" x1="0%" x2="0%" y1="0%" y2="100%"><stop offset="0%" stop-color="#ffd2da" /><stop offset="100%" stop-color="#b2868e" /></linearGradient><linearGradient id="gradient-center" x1="0%" x2="0%" y1="0%" y2="100%"><stop offset="0%" stop-color="#ff917e" /><stop offset="100%" stop-color="#b24531" /></linearGradient></defs><rect fill="url(#gradient-a)" height="50" stroke="black" width="80" x="100" y="100" /><rect fill="url(#gradient-b)" height="50" stroke="black" width="80" x="600" y="100" /><rect fill="url(#gradient-c)" height="50" stroke="black" width="80" x="100" y="400" /><rect fill="url(#gradient-d)" height="50" stroke="black" width="80" x="600" y="400" /><rect fill="url(#gradient-center)" height="50" stroke="black" width="80" x="350" y="250" /><line marker-end="url(#arrow-end)" stroke="black" stroke-width="2" x1="167.43977362280143" x2="612.5602263771985" y1="141.46386417368086" y2="408.53613582631914" /><polyline fill="none" marker-end="url(#arrow-end)" points="140.0,457.0 140,450 640,450 640,150 640.0,157.0" stroke="black" stroke-width="2" /><polyline fill="none" marker-end="url(#arrow-end)" marker-start="url(#arrow-start)" points="172.0,125.0 350,125 608.0,125.0" stroke="black" stroke-width="2" /><polyline fill="none" marker-end="url(#arrow-end)" points="172.0,425.0 350,425 608.0,425.0" stroke="black" stroke-width="2" /><text fill="black" font-family="Arial, sans-serif" font-size="14px" text-anchor="middle" x="140" y="170">Elemento A</text><text fill="black" font-family="Arial, sans-serif" font-size="14px" text-anchor="middle" x="640" y="170">Elemento B</text><text fill="black" font-family="Arial, sans-serif" font-size="14px" text-anchor="middle" x="140" y="470">Elemento C</text><text fill="black" font-family="Arial, sans-serif" font-size="14px" text-anchor="middle" x="640" y="470">Elemento D</text><text fill="black" font-family="Arial, sans-serif" font-size="14px" text-anchor="middle" x="390" y="320">Centro</text><text fill="black" font-family="Arial, sans-serif" font-size="14px" text-anchor="middle" x="390" y="338">(evitado)</text><text fill="gray" font-family="Arial, sans-serif" font-size="12px" text-anchor="middle" x="390.0" y="265.0">Línea directa
(cruza centro)</text><text fill="gray" font-family="Arial, sans-serif" font-size="12px" text-anchor="middle" x="440.0" y="322.8">Con waypoints
(routing en U)</text><text fill="gray" font-family="Arial, sans-serif" font-size="12px" text-anchor="middle" x="376.6666666666667" y="115.0">Waypoint intermedio</text><text fill="gray" font-family="Arial, sans-serif" font-size="12px" text-anchor="middle" x="376.6666666666667" y="415.0">Routing inferior</text></svg>