<?xml version="1.0" encoding="utf-8" ?>
<svg baseProfile="full" height="700" version="1.1" viewBox="0,0,1000,700" width="1000" xmlns="http://www.w3.org/2000/svg" xmlns:ev="http://www.w3.org/2001/xml-events" xmlns:xlink="http://www.w3.org/1999/xlink"><defs><marker id="arrow-end" markerHeight="10" markerWidth="10" orient="auto" refX="10" refY="5"><path d="M 0 0 L 10 5 L 0 10 z" fill="black" /></marker><marker id="arrow-start" markerHeight="10" markerWidth="10" orient="auto" refX="0" refY="5"><path d="M 10 0 L 0 5 L 10 10 z" fill="black" /></marker><linearGradient id="gradient-backend-module" x1="0%" x2="0%" y1="0%" y2="100%"><stop offset="0%" stop-color="#c5e3ed" /><stop offset="100%" stop-color="#7997a1" /></linearGradient><linearGradient id="gradient-backend-module_icon" x1="0%" x2="0%" y1="0%" y2="100%"><stop offset="0%" stop-color="#c5e3ed" /><stop offset="100%" stop-color="#7997a1" /></linearGradient><linearGradient id="gradient-frontend-module" x1="0%" x2="0%" y1="0%" y2="100%"><stop offset="0%" stop-color="#b1f3b1" /><stop offset="100%" stop-color="#64a664" /></linearGradient><linearGradient id="gradient-frontend-module_icon" x1="0%" x2="0%" y1="0%" y2="100%"><stop offset="0%" stop-color="#b1f3b1" /><stop offset="100%" stop-color="#64a664" /></linearGradient><linearGradient id="gradient-api" x1="0%" x2="0%" y1="0%" y2="100%"><stop offset="0%" stop-color="#4ca64c" /><stop offset="100%" stop-color="#005900" /></linearGradient><linearGradient id="gradient-db" x1="0%" x2="0%" y1="0%" y2="100%"><stop offset="0%" stop-color="#ffc04c" /><stop offset="100%" stop-color="#b27300" /></linearGradient><linearGradient id="gradient-cache" x1="0%" x2="0%" y1="0%" y2="100%"><stop offset="0%" stop-color="#4cffff" /><stop offset="100%" stop-color="#00b2b2" /></linearGradient><linearGradient id="gradient-webapp" x1="0%" x2="0%" y1="0%" y2="100%"><stop offset="0%" stop-color="#a64ca6" /><stop offset="100%" stop-color="#590059" /></linearGradient><linearGradient id="gradient-mobile" x1="0%" x2="0%" y1="0%" y2="100%"><stop offset="0%" stop-color="#ffd2da" /><stop offset="100%" stop-color="#b2868e" /></linearGradient><linearGradient id="gradient-external-service" x1="0%" x2="0%" y1="0%" y2="100%"><stop offset="0%" stop-color="#ffff4c" /><stop offset="100%" stop-color="#b2b200" /></linearGradient></defs><rect fill="url(#gradient-backend-module)" height="292.3076923076923" opacity="0.3" rx="14.615384615384617" ry="14.615384615384617" stroke="black" stroke-width="2" width="380" x="100" y="93.84615384615384" /><rect fill="url(#gradient-backend-module_icon)" height="50" stroke="black" width="80" x="110" y="103.84615384615384" /><text fill="black" font-family="Arial, sans-serif" font-size="16px" font-weight="bold" text-anchor="middle" x="290.0" y="83.84615384615384">Backend Module</text><rect fill="url(#gradient-frontend-module)" height="253.84615384615384" opacity="0.3" rx="12.692307692307693" ry="12.692307692307693" stroke="black" stroke-width="2" width="330" x="550" y="48.07692307692308" /><rect fill="url(#gradient-frontend-module_icon)" height="50" stroke="black" width="80" x="560" y="58.07692307692308" /><text fill="black" font-family="Arial, sans-serif" font-size="16px" font-weight="bold" text-anchor="middle" x="715.0" y="38.07692307692308">Frontend Module</text><rect fill="url(#gradient-api)" height="50" stroke="black" width="80" x="150" y="150" /><rect fill="url(#gradient-db)" height="50" stroke="black" width="80" x="350" y="150" /><ellipse cx="290.0" cy="305.0" fill="url(#gradient-cache)" rx="40.0" ry="25.0" stroke="black" /><rect fill="url(#gradient-webapp)" height="50" stroke="black" width="80" x="600" y="150" /><rect fill="url(#gradient-mobile)" height="50" stroke="black" width="80" x="750" y="150" /><ellipse cx="490.0" cy="525.0" fill="url(#gradient-external-service)" rx="40.0" ry="25.0" stroke="black" /><line marker-end="url(#arrow-end)" marker-start="url(#arrow-start)" stroke="black" stroke-width="2" x1="222.0" x2="358.0" y1="175.0" y2="175.0" /><line marker-end="url(#arrow-end)" marker-start="url(#arrow-start)" stroke="black" stroke-width="2" x1="209.51074434719015" x2="265.6115695660123" y1="200.3639676513472" y2="273.295040435816" /><polyline fill="none" marker-end="url(#arrow-end)" points="640.0,207.0 640,200 190,200 190.0,207.0" stroke="black" stroke-width="2" /><polyline fill="none" marker-end="url(#arrow-end)" points="790.0,207.0 790,250 190,250 190.0,207.0" stroke="black" stroke-width="2" /><polyline fill="none" marker-end="url(#arrow-end)" points="190.0,207.0 190,400 490,400 490.0,485.0" stroke="black" stroke-width="2" /><text fill="black" font-family="Arial, sans-serif" font-size="14px" text-anchor="middle" x="190.0" y="140">REST API</text><text fill="black" font-family="Arial, sans-serif" font-size="14px" text-anchor="middle" x="390.0" y="220.0">Database</text><text fill="black" font-family="Arial, sans-serif" font-size="14px" text-anchor="start" x="345.0" y="305.0">Redis Cache</text><text fill="black" font-family="Arial, sans-serif" font-size="14px" text-anchor="middle" x="640.0" y="220.0">Web App</text><text fill="black" font-family="Arial, sans-serif" font-size="14px" text-anchor="middle" x="790.0" y="220.0">Mobile App</text><text fill="black" font-family="Arial, sans-serif" font-size="14px" text-anchor="middle" x="490.0" y="570.0">External API</text><text fill="gray" font-family="Arial, sans-serif" font-size="12px" text-anchor="middle" x="290.0" y="165.0">queries</text><text fill="gray" font-family="Arial, sans-serif" font-size="12px" text-anchor="middle" x="237.56115695660122" y="226.8295040435816">get/set</text><text fill="gray" font-family="Arial, sans-serif" font-size="12px" text-anchor="middle" x="415.0" y="193.5">HTTP requests</text><text fill="gray" font-family="Arial, sans-serif" font-size="12px" text-anchor="middle" x="490.0" y="218.5">HTTP requests</text><text fill="gray" font-family="Arial, sans-serif" font-size="12px" text-anchor="middle" x="340.0" y="363.0">integrations</text></svg>