<?xml version="1.0" encoding="utf-8" ?>
<svg baseProfile="full" height="450" version="1.1" viewBox="0,0,1400,450" width="1400" xmlns="http://www.w3.org/2000/svg" xmlns:ev="http://www.w3.org/2001/xml-events" xmlns:xlink="http://www.w3.org/1999/xlink"><defs><filter height="140%" id="text-glow" width="140%" x="-20%" y="-20%"><feGaussianBlur in="SourceGraphic" result="blur" stdDeviation="2" /><feFlood flood-color="white" flood-opacity="1" result="color" /><feComposite in="color" in2="blur" operator="in" result="shadow" /><feMerge><feMergeNode in="shadow" /><feMergeNode in="shadow" /><feMergeNode in="SourceGraphic" /></feMerge></filter><marker id="arrow-end" markerHeight="10" markerWidth="10" orient="auto" refX="10" refY="5"><path d="M 0 0 L 10 5 L 0 10 z" fill="black" /></marker><marker id="arrow-start" markerHeight="10" markerWidth="10" orient="auto" refX="0" refY="5"><path d="M 10 0 L 0 5 L 10 10 z" fill="black" /></marker><marker id="circle-start" markerHeight="10" markerWidth="10" orient="auto" refX="5" refY="5"><circle cx="5" cy="5" fill="black" r="4" /></marker><marker id="circle-end" markerHeight="10" markerWidth="10" orient="auto" refX="5" refY="5"><circle cx="5" cy="5" fill="black" r="4" /></marker><linearGradient id="gradient-server1" x1="0%" x2="0%" y1="0%" y2="100%"><stop offset="0%" stop-color="#b1f3b1" /><stop offset="100%" stop-color="#64a664" /></linearGradient><linearGradient id="gradient-cloud1" x1="0%" x2="0%" y1="0%" y2="100%"><stop offset="0%" stop-color="#c5e3ed" /><stop offset="100%" stop-color="#7997a1" /></linearGradient><linearGradient id="gradient-building1" x1="0%" x2="0%" y1="0%" y2="100%"><stop offset="0%" stop-color="#ededfb" /><stop offset="100%" stop-color="#a1a1af" /></linearGradient><linearGradient id="gradient-database1" x1="0%" x2="0%" y1="0%" y2="100%"><stop offset="0%" stop-color="#ffe34c" /><stop offset="100%" stop-color="#b29600" /></linearGradient><linearGradient id="gradient-router1" x1="0%" x2="0%" y1="0%" y2="100%"><stop offset="0%" stop-color="#ffc04c" /><stop offset="100%" stop-color="#b27300" /></linearGradient><linearGradient id="gradient-computer1" x1="0%" x2="0%" y1="0%" y2="100%"><stop offset="0%" stop-color="#4cffff" /><stop offset="100%" stop-color="#00b2b2" /></linearGradient><linearGradient id="gradient-laptop1" x1="0%" x2="0%" y1="0%" y2="100%"><stop offset="0%" stop-color="#d2d2d2" /><stop offset="100%" stop-color="#868686" /></linearGradient><linearGradient id="gradient-document1" x1="0%" x2="0%" y1="0%" y2="100%"><stop offset="0%" stop-color="#ffffe9" /><stop offset="100%" stop-color="#b2b29c" /></linearGradient><linearGradient id="gradient-user1" x1="0%" x2="0%" y1="0%" y2="100%"><stop offset="0%" stop-color="#ffd2da" /><stop offset="100%" stop-color="#b2868e" /></linearGradient></defs><g id="server1"><rect fill="url(#gradient-server1)" height="50" rx="4" ry="4" stroke="black" stroke-width="1.2" width="80" x="50" y="100" /><line stroke="#568e56" stroke-width="0.8" x1="52" x2="128" y1="116.66666666666667" y2="116.66666666666667" /><line stroke="#568e56" stroke-width="0.8" x1="52" x2="128" y1="133.33333333333334" y2="133.33333333333334" /><circle cx="118" cy="108.33333333333333" fill="#00cc44" r="2.5" stroke="#568e56" stroke-width="0.5" /><circle cx="110" cy="108.33333333333333" fill="#ffaa00" r="2.5" stroke="#568e56" stroke-width="0.5" /><circle cx="118" cy="125.0" fill="#00cc44" r="2.5" stroke="#568e56" stroke-width="0.5" /><circle cx="110" cy="125.0" fill="#ffaa00" r="2.5" stroke="#568e56" stroke-width="0.5" /><circle cx="118" cy="141.66666666666669" fill="#00cc44" r="2.5" stroke="#568e56" stroke-width="0.5" /><circle cx="110" cy="141.66666666666669" fill="#ffaa00" r="2.5" stroke="#568e56" stroke-width="0.5" /><line stroke="#568e56" stroke-width="0.6" x1="56" x2="68" y1="105.0" y2="105.0" /><line stroke="#568e56" stroke-width="0.6" x1="56" x2="68" y1="108.33333333333333" y2="108.33333333333333" /><line stroke="#568e56" stroke-width="0.6" x1="56" x2="68" y1="111.66666666666667" y2="111.66666666666667" /><line stroke="#568e56" stroke-width="0.6" x1="56" x2="68" y1="121.66666666666667" y2="121.66666666666667" /><line stroke="#568e56" stroke-width="0.6" x1="56" x2="68" y1="125.0" y2="125.0" /><line stroke="#568e56" stroke-width="0.6" x1="56" x2="68" y1="128.33333333333334" y2="128.33333333333334" /><line stroke="#568e56" stroke-width="0.6" x1="56" x2="68" y1="138.33333333333334" y2="138.33333333333334" /><line stroke="#568e56" stroke-width="0.6" x1="56" x2="68" y1="141.66666666666669" y2="141.66666666666669" /><line stroke="#568e56" stroke-width="0.6" x1="56" x2="68" y1="145.0" y2="145.0" /></g><g id="cloud1"><ellipse cx="240.0" cy="133.0" fill="url(#gradient-cloud1)" rx="36.0" ry="11.0" stroke="#7997a1" stroke-width="0.8" /><circle cx="240.0" cy="121.0" fill="url(#gradient-cloud1)" r="17.0" stroke="#7997a1" stroke-width="0.8" /><circle cx="226.0" cy="127.0" fill="url(#gradient-cloud1)" r="13.0" stroke="#7997a1" stroke-width="0.8" /><circle cx="254.0" cy="127.0" fill="url(#gradient-cloud1)" r="13.0" stroke="#7997a1" stroke-width="0.8" /><ellipse cx="240.0" cy="129.0" fill="url(#gradient-cloud1)" rx="30.4" ry="14.000000000000002" stroke="none" /></g><g id="building1"><rect fill="url(#gradient-building1)" height="46" rx="2" ry="2" stroke="black" stroke-width="1.2" width="64" x="358" y="104" /><polygon fill="#73737d" points="354,104 390.0,94 426,104" stroke="black" stroke-width="1.0" /><rect fill="#f2f2fc" height="7" stroke="#73737d" stroke-width="0.7" width="10" x="365" y="110" /><line stroke="#73737d" stroke-width="0.5" x1="370.0" x2="370.0" y1="110" y2="117" /><line stroke="#73737d" stroke-width="0.5" x1="365" x2="375" y1="113.5" y2="113.5" /><rect fill="#f2f2fc" height="7" stroke="#73737d" stroke-width="0.7" width="10" x="385" y="110" /><line stroke="#73737d" stroke-width="0.5" x1="390.0" x2="390.0" y1="110" y2="117" /><line stroke="#73737d" stroke-width="0.5" x1="385" x2="395" y1="113.5" y2="113.5" /><rect fill="#f2f2fc" height="7" stroke="#73737d" stroke-width="0.7" width="10" x="405" y="110" /><line stroke="#73737d" stroke-width="0.5" x1="410.0" x2="410.0" y1="110" y2="117" /><line stroke="#73737d" stroke-width="0.5" x1="405" x2="415" y1="113.5" y2="113.5" /><rect fill="#f2f2fc" height="7" stroke="#73737d" stroke-width="0.7" width="10" x="365" y="124" /><line stroke="#73737d" stroke-width="0.5" x1="370.0" x2="370.0" y1="124" y2="131" /><line stroke="#73737d" stroke-width="0.5" x1="365" x2="375" y1="127.5" y2="127.5" /><rect fill="#f2f2fc" height="7" stroke="#73737d" stroke-width="0.7" width="10" x="385" y="124" /><line stroke="#73737d" stroke-width="0.5" x1="390.0" x2="390.0" y1="124" y2="131" /><line stroke="#73737d" stroke-width="0.5" x1="385" x2="395" y1="127.5" y2="127.5" /><rect fill="#f2f2fc" height="7" stroke="#73737d" stroke-width="0.7" width="10" x="405" y="124" /><line stroke="#73737d" stroke-width="0.5" x1="410.0" x2="410.0" y1="124" y2="131" /><line stroke="#73737d" stroke-width="0.5" x1="405" x2="415" y1="127.5" y2="127.5" /><rect fill="#73737d" height="12" stroke="black" stroke-width="0.8" width="10" x="385.0" y="138" /><circle cx="392.5" cy="144.0" fill="#f2f2fc" r="1.2" /></g><g id="firewall1"><g transform="translate(500,100) scale(1.6,1.6666666666666667) translate(10,0)"><path d="m 211.5145,221.09759 -99.80744,57.62385 -99.807437,-57.62385 0,-115.2477 99.807437,-57.623854 99.80744,57.623854 z" fill="#a90000" opacity="0.72" stroke="#cbcbcb" stroke-width="0.48" transform="matrix(0.0751447,0.02631765,-0.04338481,0.0455835,8.97,11.04)" /><path d="m 211.5145,221.09759 -99.80744,57.62385 -99.807437,-57.62385 0,-115.2477 99.807437,-57.623854 99.80744,57.623854 z" fill="#ff7000" opacity="0.82" stroke="#cbcbcb" stroke-width="0.48" transform="matrix(0.0751447,0.02631765,-0.04338481,0.0455835,13.97,16.29)" /><path d="m 211.5145,221.09759 -99.80744,57.62385 -99.807437,-57.62385 0,-115.2477 99.807437,-57.623854 99.80744,57.623854 z" fill="#ffa900" opacity="0.72" stroke="#cbcbcb" stroke-width="0.48" transform="matrix(0.0751447,0.02631765,-0.04338481,0.0455835,18.97,11.04)" /><path d="m 211.5145,221.09759 -99.80744,57.62385 -99.807437,-57.62385 0,-115.2477 99.807437,-57.623854 99.80744,57.623854 z" fill="#d40000" opacity="0.85" stroke="#cbcbcb" stroke-width="0.48" transform="matrix(0.0751447,0.02631765,-0.04338481,0.0455835,18.97,21.54)" /><path d="m 211.5145,221.09759 -99.80744,57.62385 -99.807437,-57.62385 0,-115.2477 99.807437,-57.623854 99.80744,57.623854 z" fill="#a90000" opacity="1.0" stroke="#cbcbcb" stroke-width="0.48" transform="matrix(0.0751447,0.02631765,-0.04338481,0.0455835,23.97,26.80)" /><path d="m 211.5145,221.09759 -99.80744,57.62385 -99.807437,-57.62385 0,-115.2477 99.807437,-57.623854 99.80744,57.623854 z" fill="#ff7000" opacity="0.82" stroke="#cbcbcb" stroke-width="0.48" transform="matrix(0.0751447,0.02631765,-0.04338481,0.0455835,23.97,16.29)" /><path d="m 211.5145,221.09759 -99.80744,57.62385 -99.807437,-57.62385 0,-115.2477 99.807437,-57.623854 99.80744,57.623854 z" fill="#ffa900" opacity="0.72" stroke="#cbcbcb" stroke-width="0.48" transform="matrix(0.0751447,0.02631765,-0.04338481,0.0455835,28.97,11.04)" /><path d="m 211.5145,221.09759 -99.80744,57.62385 -99.807437,-57.62385 0,-115.2477 99.807437,-57.623854 99.80744,57.623854 z" fill="#d40000" opacity="0.85" stroke="#cbcbcb" stroke-width="0.48" transform="matrix(0.0751447,0.02631765,-0.04338481,0.0455835,28.97,21.54)" /><path d="m 211.5145,221.09759 -99.80744,57.62385 -99.807437,-57.62385 0,-115.2477 99.807437,-57.623854 99.80744,57.623854 z" fill="#ff7000" opacity="0.82" stroke="#cbcbcb" stroke-width="0.48" transform="matrix(0.0751447,0.02631765,-0.04338481,0.0455835,33.97,16.29)" /><path d="m 211.5145,221.09759 -99.80744,57.62385 -99.807437,-57.62385 0,-115.2477 99.807437,-57.623854 99.80744,57.623854 z" fill="#ffa900" opacity="0.72" stroke="#cbcbcb" stroke-width="0.48" transform="matrix(0.0751447,0.02631765,-0.04338481,0.0455835,38.97,11.04)" /><path d="m 211.5145,221.09759 -99.80744,57.62385 -99.807437,-57.62385 0,-115.2477 99.807437,-57.623854 99.80744,57.623854 z" fill="#ffd400" opacity="0.45" stroke="#cbcbcb" stroke-width="0.48" transform="matrix(0.0751447,0.02631765,-0.04338481,0.0455835,13.97,5.78)" /><path d="m 211.5145,221.09759 -99.80744,57.62385 -99.807437,-57.62385 0,-115.2477 99.807437,-57.623854 99.80744,57.623854 z" fill="#ffe200" opacity="0.5" stroke="#cbcbcb" stroke-width="0.48" transform="matrix(0.0751447,0.02631765,-0.04338481,0.0455835,18.97,0.53)" /><path d="m 211.5145,221.09759 -99.80744,57.62385 -99.807437,-57.62385 0,-115.2477 99.807437,-57.623854 99.80744,57.623854 z" fill="#ffd400" opacity="0.45" stroke="#cbcbcb" stroke-width="0.48" transform="matrix(0.0751447,0.02631765,-0.04338481,0.0455835,23.97,5.78)" /><path d="m 211.5145,221.09759 -99.80744,57.62385 -99.807437,-57.62385 0,-115.2477 99.807437,-57.623854 99.80744,57.623854 z" fill="#ffe200" opacity="0.6" stroke="#cbcbcb" stroke-width="0.48" transform="matrix(0.0751447,0.02631765,-0.04338481,0.0455835,23.97,-4.73)" /><path d="m 211.5145,221.09759 -99.80744,57.62385 -99.807437,-57.62385 0,-115.2477 99.807437,-57.623854 99.80744,57.623854 z" fill="#ffe200" opacity="0.5" stroke="#cbcbcb" stroke-width="0.48" transform="matrix(0.0751447,0.02631765,-0.04338481,0.0455835,28.97,0.53)" /><path d="m 211.5145,221.09759 -99.80744,57.62385 -99.807437,-57.62385 0,-115.2477 99.807437,-57.623854 99.80744,57.623854 z" fill="#ffd400" opacity="0.45" stroke="#cbcbcb" stroke-width="0.48" transform="matrix(0.0751447,0.02631765,-0.04338481,0.0455835,33.97,5.78)" /></g></g><g id="database1"><rect fill="url(#gradient-database1)" height="30" stroke="none" width="67.2" x="656.4" y="110" /><line stroke="black" stroke-width="1.2" x1="656.4" x2="656.4" y1="110" y2="140" /><line stroke="black" stroke-width="1.2" x1="723.6" x2="723.6" y1="110" y2="140" /><ellipse cx="690.0" cy="140" fill="url(#gradient-database1)" rx="33.6" ry="8" stroke="black" stroke-width="1.2" /><ellipse cx="690.0" cy="110" fill="#ffe34c" rx="33.6" ry="8" stroke="black" stroke-width="1.2" /><ellipse cx="690.0" cy="120.0" fill="none" rx="33.6" ry="4.8" stroke="#998100" stroke-width="0.6" /><ellipse cx="690.0" cy="130.0" fill="none" rx="33.6" ry="4.8" stroke="#998100" stroke-width="0.6" /></g><g id="router1"><rect fill="url(#gradient-router1)" height="36" rx="3" ry="3" stroke="black" stroke-width="1.2" width="76" x="802" y="114" /><line stroke="black" stroke-width="1.5" x1="820" x2="810" y1="114" y2="102" /><circle cx="810" cy="102" fill="#7f5200" r="2.5" stroke="black" stroke-width="0.8" /><line stroke="black" stroke-width="1.5" x1="860" x2="870" y1="114" y2="102" /><circle cx="870" cy="102" fill="#7f5200" r="2.5" stroke="black" stroke-width="0.8" /><rect fill="#7f5200" height="6" stroke="black" stroke-width="0.6" width="8" x="808.0" y="140" /><rect fill="#7f5200" height="6" stroke="black" stroke-width="0.6" width="8" x="824.0" y="140" /><rect fill="#7f5200" height="6" stroke="black" stroke-width="0.6" width="8" x="840.0" y="140" /><rect fill="#7f5200" height="6" stroke="black" stroke-width="0.6" width="8" x="856.0" y="140" /><circle cx="812" cy="120" fill="#00cc44" r="2" stroke="#7f5200" stroke-width="0.4" /><circle cx="824" cy="120" fill="#00cc44" r="2" stroke="#7f5200" stroke-width="0.4" /><circle cx="836" cy="120" fill="#00cc44" r="2" stroke="#7f5200" stroke-width="0.4" /><circle cx="848" cy="120" fill="#ffaa00" r="2" stroke="#7f5200" stroke-width="0.4" /><circle cx="860" cy="120" fill="#ffaa00" r="2" stroke="#7f5200" stroke-width="0.4" /></g><g id="computer1"><rect fill="#007f7f" height="34.0" rx="3" ry="3" stroke="black" stroke-width="1.2" width="76" x="952" y="100" /><rect fill="#7fffff" height="24.0" stroke="#007f7f" stroke-width="0.5" width="68" x="956" y="104" /><rect fill="url(#gradient-computer1)" height="6" stroke="black" stroke-width="0.8" width="10" x="985.0" y="134.0" /><rect fill="url(#gradient-computer1)" height="4" rx="2" ry="2" stroke="black" stroke-width="1.0" width="30" x="975.0" y="140.0" /><circle cx="990.0" cy="131.0" fill="#00cc44" r="1.5" stroke="#007f7f" stroke-width="0.4" /></g><g id="laptop1"><rect fill="#606060" height="31.0" rx="3" ry="3" stroke="black" stroke-width="1.2" width="72" x="1104" y="100" /><rect fill="#dfdfdf" height="22.6" stroke="#606060" stroke-width="0.5" width="60" x="1110" y="103.6" /><rect fill="url(#gradient-laptop1)" height="19.0" rx="2" ry="2" stroke="black" stroke-width="1.2" width="80" x="1100" y="131.0" /><rect fill="#606060" height="3" rx="0.5" ry="0.5" stroke="none" width="7" x="1108" y="134.0" /><rect fill="#606060" height="3" rx="0.5" ry="0.5" stroke="none" width="7" x="1118" y="134.0" /><rect fill="#606060" height="3" rx="0.5" ry="0.5" stroke="none" width="7" x="1128" y="134.0" /><rect fill="#606060" height="3" rx="0.5" ry="0.5" stroke="none" width="7" x="1138" y="134.0" /><rect fill="#606060" height="3" rx="0.5" ry="0.5" stroke="none" width="7" x="1148" y="134.0" /><rect fill="#606060" height="3" rx="0.5" ry="0.5" stroke="none" width="7" x="1158" y="134.0" /><rect fill="#606060" height="3" rx="0.5" ry="0.5" stroke="none" width="7" x="1108" y="139.0" /><rect fill="#606060" height="3" rx="0.5" ry="0.5" stroke="none" width="7" x="1118" y="139.0" /><rect fill="#606060" height="3" rx="0.5" ry="0.5" stroke="none" width="7" x="1128" y="139.0" /><rect fill="#606060" height="3" rx="0.5" ry="0.5" stroke="none" width="7" x="1138" y="139.0" /><rect fill="#606060" height="3" rx="0.5" ry="0.5" stroke="none" width="7" x="1148" y="139.0" /><rect fill="#606060" height="3" rx="0.5" ry="0.5" stroke="none" width="7" x="1158" y="139.0" /><rect fill="#606060" height="6" opacity="0.4" rx="1" ry="1" stroke="none" width="16" x="1132.0" y="143.0" /></g><g id="document1"><polygon fill="url(#gradient-document1)" points="60,250 108,250 120,262 120,300 60,300" stroke="black" stroke-width="1.2" /><polygon fill="#999986" points="108,250 120,262 108,262" stroke="black" stroke-width="0.8" /><line stroke="#999986" stroke-linecap="round" stroke-width="1.5" x1="66" x2="96" y1="264" y2="264" /><line stroke="#999986" stroke-linecap="round" stroke-width="1.5" x1="66" x2="112" y1="272" y2="272" /><line stroke="#999986" stroke-linecap="round" stroke-width="1.5" x1="66" x2="112" y1="280" y2="280" /><line stroke="#999986" stroke-linecap="round" stroke-width="1.5" x1="66" x2="93.6" y1="288" y2="288" /></g><g id="user1"><circle cx="240.0" cy="263.0" fill="url(#gradient-user1)" r="11.0" stroke="black" stroke-width="1.2" /><path d="M 218.0,300 L 218.0,283.9 Q 218.0,277.0 240.0,277.0 Q 262.0,277.0 262.0,283.9 L 262.0,300 Z" fill="url(#gradient-user1)" stroke="black" stroke-width="1.2" /></g><text fill="black" filter="url(#text-glow)" font-family="Arial, sans-serif" font-size="14px" text-anchor="middle" x="90.0" y="171.0">Server</text><text fill="black" filter="url(#text-glow)" font-family="Arial, sans-serif" font-size="14px" text-anchor="middle" x="90.0" y="189.0">(Rack server)</text><text fill="black" filter="url(#text-glow)" font-family="Arial, sans-serif" font-size="14px" text-anchor="middle" x="240.0" y="171.0">Cloud</text><text fill="black" filter="url(#text-glow)" font-family="Arial, sans-serif" font-size="14px" text-anchor="middle" x="240.0" y="189.0">(Nube)</text><text fill="black" filter="url(#text-glow)" font-family="Arial, sans-serif" font-size="14px" text-anchor="middle" x="390.0" y="171.0">Building</text><text fill="black" filter="url(#text-glow)" font-family="Arial, sans-serif" font-size="14px" text-anchor="middle" x="390.0" y="189.0">(Edificio)</text><text fill="black" filter="url(#text-glow)" font-family="Arial, sans-serif" font-size="14px" text-anchor="middle" x="540.0" y="171.0">Firewall</text><text fill="black" filter="url(#text-glow)" font-family="Arial, sans-serif" font-size="14px" text-anchor="middle" x="540.0" y="189.0">(Cortafuegos)</text><text fill="black" filter="url(#text-glow)" font-family="Arial, sans-serif" font-size="14px" text-anchor="middle" x="690.0" y="171.0">Database</text><text fill="black" filter="url(#text-glow)" font-family="Arial, sans-serif" font-size="14px" text-anchor="middle" x="690.0" y="189.0">(Base de datos)</text><text fill="black" filter="url(#text-glow)" font-family="Arial, sans-serif" font-size="14px" text-anchor="middle" x="840.0" y="171.0">Router</text><text fill="black" filter="url(#text-glow)" font-family="Arial, sans-serif" font-size="14px" text-anchor="middle" x="840.0" y="189.0">(Enrutador)</text><text fill="black" filter="url(#text-glow)" font-family="Arial, sans-serif" font-size="14px" text-anchor="middle" x="990.0" y="171.0">Computer</text><text fill="black" filter="url(#text-glow)" font-family="Arial, sans-serif" font-size="14px" text-anchor="middle" x="990.0" y="189.0">(Monitor)</text><text fill="black" filter="url(#text-glow)" font-family="Arial, sans-serif" font-size="14px" text-anchor="middle" x="1140.0" y="171.0">Laptop</text><text fill="black" filter="url(#text-glow)" font-family="Arial, sans-serif" font-size="14px" text-anchor="middle" x="1140.0" y="189.0">(Portatil)</text><text fill="black" filter="url(#text-glow)" font-family="Arial, sans-serif" font-size="14px" text-anchor="middle" x="90.0" y="321.0">Document</text><text fill="black" filter="url(#text-glow)" font-family="Arial, sans-serif" font-size="14px" text-anchor="middle" x="90.0" y="339.0">(Archivo)</text><text fill="black" filter="url(#text-glow)" font-family="Arial, sans-serif" font-size="14px" text-anchor="middle" x="240.0" y="321.0">User</text><text fill="black" filter="url(#text-glow)" font-family="Arial, sans-serif" font-size="14px" text-anchor="middle" x="240.0" y="339.0">(Persona)</text></svg>