<?xml version="1.0" encoding="utf-8" ?>
<svg baseProfile="full" height="500" version="1.1" viewBox="0,0,700,500" width="700" xmlns="http://www.w3.org/2000/svg" xmlns:ev="http://www.w3.org/2001/xml-events" xmlns:xlink="http://www.w3.org/1999/xlink"><defs><filter height="140%" id="text-glow" width="140%" x="-20%" y="-20%"><feGaussianBlur in="SourceGraphic" result="blur" stdDeviation="2" /><feFlood flood-color="white" flood-opacity="1" result="color" /><feComposite in="color" in2="blur" operator="in" result="shadow" /><feMerge><feMergeNode in="shadow" /><feMergeNode in="shadow" /><feMergeNode in="SourceGraphic" /></feMerge></filter><marker id="arrow-end" markerHeight="10" markerWidth="10" orient="auto" refX="10" refY="5"><path d="M 0 0 L 10 5 L 0 10 z" fill="black" /></marker><marker id="arrow-start" markerHeight="10" markerWidth="10" orient="auto" refX="0" refY="5"><path d="M 10 0 L 0 5 L 10 10 z" fill="black" /></marker><marker id="circle-start" markerHeight="10" markerWidth="10" orient="auto" refX="5" refY="5"><circle cx="5" cy="5" fill="black" r="4" /></marker><marker id="circle-end" markerHeight="10" markerWidth="10" orient="auto" refX="5" refY="5"><circle cx="5" cy="5" fill="black" r="4" /></marker><linearGradient id="gradient-cliente" x1="0%" x2="0%" y1="0%" y2="100%"><stop offset="0%" stop-color="#c5e3ed" /><stop offset="100%" stop-color="#7997a1" /></linearGradient><linearGradient id="gradient-servidor" x1="0%" x2="0%" y1="0%" y2="100%"><stop offset="0%" stop-color="#b1f3b1" /><stop offset="100%" stop-color="#64a664" /></linearGradient><linearGradient id="gradient-nube" x1="0%" x2="0%" y1="0%" y2="100%"><stop offset="0%" stop-color="#ffe34c" /><stop offset="100%" stop-color="#b29600" /></linearGradient></defs><g id="cliente"><rect fill="url(#gradient-cliente)" height="46" rx="2" ry="2" stroke="black" stroke-width="1.2" width="64" x="58" y="104" /><polygon fill="#566c73" points="54,104 90.0,94 126,104" stroke="black" stroke-width="1.0" /><rect fill="#d6ebf2" height="7" stroke="#566c73" stroke-width="0.7" width="10" x="65" y="110" /><line stroke="#566c73" stroke-width="0.5" x1="70.0" x2="70.0" y1="110" y2="117" /><line stroke="#566c73" stroke-width="0.5" x1="65" x2="75" y1="113.5" y2="113.5" /><rect fill="#d6ebf2" height="7" stroke="#566c73" stroke-width="0.7" width="10" x="85" y="110" /><line stroke="#566c73" stroke-width="0.5" x1="90.0" x2="90.0" y1="110" y2="117" /><line stroke="#566c73" stroke-width="0.5" x1="85" x2="95" y1="113.5" y2="113.5" /><rect fill="#d6ebf2" height="7" stroke="#566c73" stroke-width="0.7" width="10" x="105" y="110" /><line stroke="#566c73" stroke-width="0.5" x1="110.0" x2="110.0" y1="110" y2="117" /><line stroke="#566c73" stroke-width="0.5" x1="105" x2="115" y1="113.5" y2="113.5" /><rect fill="#d6ebf2" height="7" stroke="#566c73" stroke-width="0.7" width="10" x="65" y="124" /><line stroke="#566c73" stroke-width="0.5" x1="70.0" x2="70.0" y1="124" y2="131" /><line stroke="#566c73" stroke-width="0.5" x1="65" x2="75" y1="127.5" y2="127.5" /><rect fill="#d6ebf2" height="7" stroke="#566c73" stroke-width="0.7" width="10" x="85" y="124" /><line stroke="#566c73" stroke-width="0.5" x1="90.0" x2="90.0" y1="124" y2="131" /><line stroke="#566c73" stroke-width="0.5" x1="85" x2="95" y1="127.5" y2="127.5" /><rect fill="#d6ebf2" height="7" stroke="#566c73" stroke-width="0.7" width="10" x="105" y="124" /><line stroke="#566c73" stroke-width="0.5" x1="110.0" x2="110.0" y1="124" y2="131" /><line stroke="#566c73" stroke-width="0.5" x1="105" x2="115" y1="127.5" y2="127.5" /><rect fill="#566c73" height="12" stroke="black" stroke-width="0.8" width="10" x="85.0" y="138" /><circle cx="92.5" cy="144.0" fill="#d6ebf2" r="1.2" /></g><g id="firewall"><g transform="translate(250,100) scale(1.6,1.6666666666666667) translate(10,0)"><path d="m 211.5145,221.09759 -99.80744,57.62385 -99.807437,-57.62385 0,-115.2477 99.807437,-57.623854 99.80744,57.623854 z" fill="#a90000" opacity="0.72" stroke="#cbcbcb" stroke-width="0.48" transform="matrix(0.0751447,0.02631765,-0.04338481,0.0455835,8.97,11.04)" /><path d="m 211.5145,221.09759 -99.80744,57.62385 -99.807437,-57.62385 0,-115.2477 99.807437,-57.623854 99.80744,57.623854 z" fill="#ff7000" opacity="0.82" stroke="#cbcbcb" stroke-width="0.48" transform="matrix(0.0751447,0.02631765,-0.04338481,0.0455835,13.97,16.29)" /><path d="m 211.5145,221.09759 -99.80744,57.62385 -99.807437,-57.62385 0,-115.2477 99.807437,-57.623854 99.80744,57.623854 z" fill="#ffa900" opacity="0.72" stroke="#cbcbcb" stroke-width="0.48" transform="matrix(0.0751447,0.02631765,-0.04338481,0.0455835,18.97,11.04)" /><path d="m 211.5145,221.09759 -99.80744,57.62385 -99.807437,-57.62385 0,-115.2477 99.807437,-57.623854 99.80744,57.623854 z" fill="#d40000" opacity="0.85" stroke="#cbcbcb" stroke-width="0.48" transform="matrix(0.0751447,0.02631765,-0.04338481,0.0455835,18.97,21.54)" /><path d="m 211.5145,221.09759 -99.80744,57.62385 -99.807437,-57.62385 0,-115.2477 99.807437,-57.623854 99.80744,57.623854 z" fill="#a90000" opacity="1.0" stroke="#cbcbcb" stroke-width="0.48" transform="matrix(0.0751447,0.02631765,-0.04338481,0.0455835,23.97,26.80)" /><path d="m 211.5145,221.09759 -99.80744,57.62385 -99.807437,-57.62385 0,-115.2477 99.807437,-57.623854 99.80744,57.623854 z" fill="#ff7000" opacity="0.82" stroke="#cbcbcb" stroke-width="0.48" transform="matrix(0.0751447,0.02631765,-0.04338481,0.0455835,23.97,16.29)" /><path d="m 211.5145,221.09759 -99.80744,57.62385 -99.807437,-57.62385 0,-115.2477 99.807437,-57.623854 99.80744,57.623854 z" fill="#ffa900" opacity="0.72" stroke="#cbcbcb" stroke-width="0.48" transform="matrix(0.0751447,0.02631765,-0.04338481,0.0455835,28.97,11.04)" /><path d="m 211.5145,221.09759 -99.80744,57.62385 -99.807437,-57.62385 0,-115.2477 99.807437,-57.623854 99.80744,57.623854 z" fill="#d40000" opacity="0.85" stroke="#cbcbcb" stroke-width="0.48" transform="matrix(0.0751447,0.02631765,-0.04338481,0.0455835,28.97,21.54)" /><path d="m 211.5145,221.09759 -99.80744,57.62385 -99.807437,-57.62385 0,-115.2477 99.807437,-57.623854 99.80744,57.623854 z" fill="#ff7000" opacity="0.82" stroke="#cbcbcb" stroke-width="0.48" transform="matrix(0.0751447,0.02631765,-0.04338481,0.0455835,33.97,16.29)" /><path d="m 211.5145,221.09759 -99.80744,57.62385 -99.807437,-57.62385 0,-115.2477 99.807437,-57.623854 99.80744,57.623854 z" fill="#ffa900" opacity="0.72" stroke="#cbcbcb" stroke-width="0.48" transform="matrix(0.0751447,0.02631765,-0.04338481,0.0455835,38.97,11.04)" /><path d="m 211.5145,221.09759 -99.80744,57.62385 -99.807437,-57.62385 0,-115.2477 99.807437,-57.623854 99.80744,57.623854 z" fill="#ffd400" opacity="0.45" stroke="#cbcbcb" stroke-width="0.48" transform="matrix(0.0751447,0.02631765,-0.04338481,0.0455835,13.97,5.78)" /><path d="m 211.5145,221.09759 -99.80744,57.62385 -99.807437,-57.62385 0,-115.2477 99.807437,-57.623854 99.80744,57.623854 z" fill="#ffe200" opacity="0.5" stroke="#cbcbcb" stroke-width="0.48" transform="matrix(0.0751447,0.02631765,-0.04338481,0.0455835,18.97,0.53)" /><path d="m 211.5145,221.09759 -99.80744,57.62385 -99.807437,-57.62385 0,-115.2477 99.807437,-57.623854 99.80744,57.623854 z" fill="#ffd400" opacity="0.45" stroke="#cbcbcb" stroke-width="0.48" transform="matrix(0.0751447,0.02631765,-0.04338481,0.0455835,23.97,5.78)" /><path d="m 211.5145,221.09759 -99.80744,57.62385 -99.807437,-57.62385 0,-115.2477 99.807437,-57.623854 99.80744,57.623854 z" fill="#ffe200" opacity="0.6" stroke="#cbcbcb" stroke-width="0.48" transform="matrix(0.0751447,0.02631765,-0.04338481,0.0455835,23.97,-4.73)" /><path d="m 211.5145,221.09759 -99.80744,57.62385 -99.807437,-57.62385 0,-115.2477 99.807437,-57.623854 99.80744,57.623854 z" fill="#ffe200" opacity="0.5" stroke="#cbcbcb" stroke-width="0.48" transform="matrix(0.0751447,0.02631765,-0.04338481,0.0455835,28.97,0.53)" /><path d="m 211.5145,221.09759 -99.80744,57.62385 -99.807437,-57.62385 0,-115.2477 99.807437,-57.623854 99.80744,57.623854 z" fill="#ffd400" opacity="0.45" stroke="#cbcbcb" stroke-width="0.48" transform="matrix(0.0751447,0.02631765,-0.04338481,0.0455835,33.97,5.78)" /></g></g><g id="servidor"><rect fill="url(#gradient-servidor)" height="50" rx="4" ry="4" stroke="black" stroke-width="1.2" width="80" x="450" y="100" /><line stroke="#568e56" stroke-width="0.8" x1="452" x2="528" y1="116.66666666666667" y2="116.66666666666667" /><line stroke="#568e56" stroke-width="0.8" x1="452" x2="528" y1="133.33333333333334" y2="133.33333333333334" /><circle cx="518" cy="108.33333333333333" fill="#00cc44" r="2.5" stroke="#568e56" stroke-width="0.5" /><circle cx="510" cy="108.33333333333333" fill="#ffaa00" r="2.5" stroke="#568e56" stroke-width="0.5" /><circle cx="518" cy="125.0" fill="#00cc44" r="2.5" stroke="#568e56" stroke-width="0.5" /><circle cx="510" cy="125.0" fill="#ffaa00" r="2.5" stroke="#568e56" stroke-width="0.5" /><circle cx="518" cy="141.66666666666669" fill="#00cc44" r="2.5" stroke="#568e56" stroke-width="0.5" /><circle cx="510" cy="141.66666666666669" fill="#ffaa00" r="2.5" stroke="#568e56" stroke-width="0.5" /><line stroke="#568e56" stroke-width="0.6" x1="456" x2="468" y1="105.0" y2="105.0" /><line stroke="#568e56" stroke-width="0.6" x1="456" x2="468" y1="108.33333333333333" y2="108.33333333333333" /><line stroke="#568e56" stroke-width="0.6" x1="456" x2="468" y1="111.66666666666667" y2="111.66666666666667" /><line stroke="#568e56" stroke-width="0.6" x1="456" x2="468" y1="121.66666666666667" y2="121.66666666666667" /><line stroke="#568e56" stroke-width="0.6" x1="456" x2="468" y1="125.0" y2="125.0" /><line stroke="#568e56" stroke-width="0.6" x1="456" x2="468" y1="128.33333333333334" y2="128.33333333333334" /><line stroke="#568e56" stroke-width="0.6" x1="456" x2="468" y1="138.33333333333334" y2="138.33333333333334" /><line stroke="#568e56" stroke-width="0.6" x1="456" x2="468" y1="141.66666666666669" y2="141.66666666666669" /><line stroke="#568e56" stroke-width="0.6" x1="456" x2="468" y1="145.0" y2="145.0" /></g><g id="nube"><ellipse cx="290.0" cy="333.0" fill="url(#gradient-nube)" rx="36.0" ry="11.0" stroke="#b29600" stroke-width="0.8" /><circle cx="290.0" cy="321.0" fill="url(#gradient-nube)" r="17.0" stroke="#b29600" stroke-width="0.8" /><circle cx="276.0" cy="327.0" fill="url(#gradient-nube)" r="13.0" stroke="#b29600" stroke-width="0.8" /><circle cx="304.0" cy="327.0" fill="url(#gradient-nube)" r="13.0" stroke="#b29600" stroke-width="0.8" /><ellipse cx="290.0" cy="329.0" fill="url(#gradient-nube)" rx="30.4" ry="14.000000000000002" stroke="none" /></g><line marker-end="url(#arrow-end)" marker-start="url(#circle-start)" stroke="black" stroke-width="2" x1="122.0" x2="258.0" y1="125.0" y2="125.0" /><line marker-end="url(#arrow-end)" marker-start="url(#arrow-start)" stroke="black" stroke-width="2" x1="322.0" x2="458.0" y1="125.0" y2="125.0" /><line marker-end="url(#circle-end)" marker-start="url(#arrow-start)" stroke="black" stroke-width="2" x1="467.37258300203047" x2="318.2842712474619" y1="147.62741699796953" y2="296.7157287525381" /><line stroke="black" stroke-width="2" x1="112.62741699796952" x2="261.7157287525381" y1="147.62741699796953" y2="296.7157287525381" /><text fill="black" filter="url(#text-glow)" font-family="Arial, sans-serif" font-size="14px" text-anchor="start" x="142.6" y="171.0">Cliente</text><text fill="black" filter="url(#text-glow)" font-family="Arial, sans-serif" font-size="14px" text-anchor="start" x="342.6" y="171.0">Firewall</text><text fill="black" filter="url(#text-glow)" font-family="Arial, sans-serif" font-size="14px" text-anchor="start" x="542.6" y="125.0">Servidor</text><text fill="black" filter="url(#text-glow)" font-family="Arial, sans-serif" font-size="14px" text-anchor="middle" x="290.0" y="371.0">Cloud</text><text fill="gray" filter="url(#text-glow)" font-family="Arial, sans-serif" font-size="12px" text-anchor="middle" x="190.0" y="82.0">forward (-&gt;)</text><text fill="gray" filter="url(#text-glow)" font-family="Arial, sans-serif" font-size="12px" text-anchor="middle" x="390.0" y="82.0">bidirectional (&lt;-&gt;)</text><text fill="gray" filter="url(#text-glow)" font-family="Arial, sans-serif" font-size="12px" text-anchor="end" x="342.0284271247462" y="222.17157287525382">backward (&lt;-)</text><text fill="gray" filter="url(#text-glow)" font-family="Arial, sans-serif" font-size="12px" text-anchor="end" x="136.37157287525383" y="222.17157287525382">sin direccion</text></svg>