<?xml version="1.0" encoding="utf-8" ?>
<svg baseProfile="full" height="900.0" version="1.1" viewBox="0,0,910.0,900.0" width="910.0" xmlns="http://www.w3.org/2000/svg" xmlns:ev="http://www.w3.org/2001/xml-events" xmlns:xlink="http://www.w3.org/1999/xlink"><defs><marker id="arrow-end" markerHeight="10" markerWidth="10" orient="auto" refX="10" refY="5"><path d="M 0 0 L 10 5 L 0 10 z" fill="black" /></marker><marker id="arrow-start" markerHeight="10" markerWidth="10" orient="auto" refX="0" refY="5"><path d="M 10 0 L 0 5 L 10 10 z" fill="black" /></marker><marker id="circle-start" markerHeight="10" markerWidth="10" orient="auto" refX="5" refY="5"><circle cx="5" cy="5" fill="black" r="4" /></marker><marker id="circle-end" markerHeight="10" markerWidth="10" orient="auto" refX="5" refY="5"><circle cx="5" cy="5" fill="black" r="4" /></marker><linearGradient id="gradient-cliente" x1="0%" x2="0%" y1="0%" y2="100%"><stop offset="0%" stop-color="#c5e3ed" /><stop offset="100%" stop-color="#7997a1" /></linearGradient><linearGradient id="gradient-servidor" x1="0%" x2="0%" y1="0%" y2="100%"><stop offset="0%" stop-color="#b1f3b1" /><stop offset="100%" stop-color="#64a664" /></linearGradient><linearGradient id="gradient-nube" x1="0%" x2="0%" y1="0%" y2="100%"><stop offset="0%" stop-color="#ffe34c" /><stop offset="100%" stop-color="#b29600" /></linearGradient></defs><g id="cliente"><g transform="translate(110.0,30.0) scale(1.2048192771084338,0.6928406466512702) translate(-0.9,-1.4)"><path d="M 22.754087,32.116749 0.94545599,43.000013 V 4.7289739 L 22.754087,1.5702876 Z" fill="#e9e9ff" stroke="none" /><path d="M 50.712576,33.120864 V 1.4628125 L 22.754087,1.5702876 V 32.116749 Z" fill="#353564" stroke="none" /><path d="M 50.712576,33.120864 35.295871,44.770537 0.94545599,43.000013 22.754087,32.116749 Z" fill="#4d4d9f" stroke="none" /><path d="M 50.712576,1.4628125 35.295871,4.7384198 0.94545599,4.7289739 22.754087,1.5702876 Z" fill="#1c1ce6" opacity="1" stroke="none" /><path d="M 35.295871,44.770537 V 4.7384198 L 0.94545599,4.7289739 V 43.000013 Z" fill="#1a52ff" opacity="0.96" stroke="none" /><path d="M 50.712576,33.120864 35.295871,44.770537 V 4.7384198 L 50.712576,1.4628125 Z" fill="#1c9bd0" stroke="none" /><rect fill="none" height="43.3" opacity="0.67" stroke="#cbcbcb" stroke-width="0.48" width="49.8" x="0.9" y="1.4" /></g></g><g id="firewall"><g transform="translate(100.0,310.0) scale(1.6,1.6666666666666667) translate(10,0)"><path d="m 211.5145,221.09759 -99.80744,57.62385 -99.807437,-57.62385 0,-115.2477 99.807437,-57.623854 99.80744,57.623854 z" fill="#a90000" opacity="0.72" stroke="#cbcbcb" stroke-width="0.48" transform="matrix(0.0751447,0.02631765,-0.04338481,0.0455835,8.97,11.04)" /><path d="m 211.5145,221.09759 -99.80744,57.62385 -99.807437,-57.62385 0,-115.2477 99.807437,-57.623854 99.80744,57.623854 z" fill="#ff7000" opacity="0.82" stroke="#cbcbcb" stroke-width="0.48" transform="matrix(0.0751447,0.02631765,-0.04338481,0.0455835,13.97,16.29)" /><path d="m 211.5145,221.09759 -99.80744,57.62385 -99.807437,-57.62385 0,-115.2477 99.807437,-57.623854 99.80744,57.623854 z" fill="#ffa900" opacity="0.72" stroke="#cbcbcb" stroke-width="0.48" transform="matrix(0.0751447,0.02631765,-0.04338481,0.0455835,18.97,11.04)" /><path d="m 211.5145,221.09759 -99.80744,57.62385 -99.807437,-57.62385 0,-115.2477 99.807437,-57.623854 99.80744,57.623854 z" fill="#d40000" opacity="0.85" stroke="#cbcbcb" stroke-width="0.48" transform="matrix(0.0751447,0.02631765,-0.04338481,0.0455835,18.97,21.54)" /><path d="m 211.5145,221.09759 -99.80744,57.62385 -99.807437,-57.62385 0,-115.2477 99.807437,-57.623854 99.80744,57.623854 z" fill="#a90000" opacity="1.0" stroke="#cbcbcb" stroke-width="0.48" transform="matrix(0.0751447,0.02631765,-0.04338481,0.0455835,23.97,26.80)" /><path d="m 211.5145,221.09759 -99.80744,57.62385 -99.807437,-57.62385 0,-115.2477 99.807437,-57.623854 99.80744,57.623854 z" fill="#ff7000" opacity="0.82" stroke="#cbcbcb" stroke-width="0.48" transform="matrix(0.0751447,0.02631765,-0.04338481,0.0455835,23.97,16.29)" /><path d="m 211.5145,221.09759 -99.80744,57.62385 -99.807437,-57.62385 0,-115.2477 99.807437,-57.623854 99.80744,57.623854 z" fill="#ffa900" opacity="0.72" stroke="#cbcbcb" stroke-width="0.48" transform="matrix(0.0751447,0.02631765,-0.04338481,0.0455835,28.97,11.04)" /><path d="m 211.5145,221.09759 -99.80744,57.62385 -99.807437,-57.62385 0,-115.2477 99.807437,-57.623854 99.80744,57.623854 z" fill="#d40000" opacity="0.85" stroke="#cbcbcb" stroke-width="0.48" transform="matrix(0.0751447,0.02631765,-0.04338481,0.0455835,28.97,21.54)" /><path d="m 211.5145,221.09759 -99.80744,57.62385 -99.807437,-57.62385 0,-115.2477 99.807437,-57.623854 99.80744,57.623854 z" fill="#ff7000" opacity="0.82" stroke="#cbcbcb" stroke-width="0.48" transform="matrix(0.0751447,0.02631765,-0.04338481,0.0455835,33.97,16.29)" /><path d="m 211.5145,221.09759 -99.80744,57.62385 -99.807437,-57.62385 0,-115.2477 99.807437,-57.623854 99.80744,57.623854 z" fill="#ffa900" opacity="0.72" stroke="#cbcbcb" stroke-width="0.48" transform="matrix(0.0751447,0.02631765,-0.04338481,0.0455835,38.97,11.04)" /><path d="m 211.5145,221.09759 -99.80744,57.62385 -99.807437,-57.62385 0,-115.2477 99.807437,-57.623854 99.80744,57.623854 z" fill="#ffd400" opacity="0.45" stroke="#cbcbcb" stroke-width="0.48" transform="matrix(0.0751447,0.02631765,-0.04338481,0.0455835,13.97,5.78)" /><path d="m 211.5145,221.09759 -99.80744,57.62385 -99.807437,-57.62385 0,-115.2477 99.807437,-57.623854 99.80744,57.623854 z" fill="#ffe200" opacity="0.5" stroke="#cbcbcb" stroke-width="0.48" transform="matrix(0.0751447,0.02631765,-0.04338481,0.0455835,18.97,0.53)" /><path d="m 211.5145,221.09759 -99.80744,57.62385 -99.807437,-57.62385 0,-115.2477 99.807437,-57.623854 99.80744,57.623854 z" fill="#ffd400" opacity="0.45" stroke="#cbcbcb" stroke-width="0.48" transform="matrix(0.0751447,0.02631765,-0.04338481,0.0455835,23.97,5.78)" /><path d="m 211.5145,221.09759 -99.80744,57.62385 -99.807437,-57.62385 0,-115.2477 99.807437,-57.623854 99.80744,57.623854 z" fill="#ffe200" opacity="0.6" stroke="#cbcbcb" stroke-width="0.48" transform="matrix(0.0751447,0.02631765,-0.04338481,0.0455835,23.97,-4.73)" /><path d="m 211.5145,221.09759 -99.80744,57.62385 -99.807437,-57.62385 0,-115.2477 99.807437,-57.623854 99.80744,57.623854 z" fill="#ffe200" opacity="0.5" stroke="#cbcbcb" stroke-width="0.48" transform="matrix(0.0751447,0.02631765,-0.04338481,0.0455835,28.97,0.53)" /><path d="m 211.5145,221.09759 -99.80744,57.62385 -99.807437,-57.62385 0,-115.2477 99.807437,-57.623854 99.80744,57.623854 z" fill="#ffd400" opacity="0.45" stroke="#cbcbcb" stroke-width="0.48" transform="matrix(0.0751447,0.02631765,-0.04338481,0.0455835,33.97,5.78)" /></g></g><rect fill="url(#gradient-servidor)" height="50" stroke="black" width="80" x="100.0" y="600.0" /><ellipse cx="620.0" cy="625.0" fill="url(#gradient-nube)" rx="40.0" ry="25.0" stroke="black" /><line marker-end="url(#arrow-end)" marker-start="url(#circle-start)" stroke="black" stroke-width="2" x1="140.0" x2="140.0" y1="77.0" y2="303.0" /><line marker-end="url(#arrow-end)" marker-start="url(#arrow-start)" stroke="black" stroke-width="2" x1="140.0" x2="140.0" y1="367.0" y2="593.0" /><line marker-end="url(#circle-end)" marker-start="url(#arrow-start)" stroke="black" stroke-width="2" x1="172.0" x2="580.0" y1="625.0" y2="625.0" /><line stroke="black" stroke-width="2" x1="160.40216684909524" x2="594.497291438631" y1="69.65261827599008" y2="594.1842271550124" /><text fill="black" font-family="Arial, sans-serif" font-size="14px" text-anchor="start" x="192.6" y="45.0">Cliente</text><text fill="black" font-family="Arial, sans-serif" font-size="14px" text-anchor="end" x="87.4" y="335.0">Firewall</text><text fill="black" font-family="Arial, sans-serif" font-size="14px" text-anchor="middle" x="140.0" y="671.0">Servidor</text><text fill="black" font-family="Arial, sans-serif" font-size="14px" text-anchor="middle" x="620.0" y="671.0">Cloud</text><text fill="gray" font-family="Arial, sans-serif" font-size="12px" text-anchor="end" x="89.2" y="190.0">forward (-&gt;)</text><text fill="gray" font-family="Arial, sans-serif" font-size="12px" text-anchor="start" x="190.8" y="480.0">bidirectional (&lt;-&gt;)</text><text fill="gray" font-family="Arial, sans-serif" font-size="12px" text-anchor="middle" x="376.0" y="582.0">backward (&lt;-)</text><text fill="gray" font-family="Arial, sans-serif" font-size="12px" text-anchor="end" x="326.6497291438631" y="331.91842271550126">sin direccion</text></svg>