<?xml version="1.0" encoding="utf-8" ?>
<svg baseProfile="full" height="320.0" version="1.1" viewBox="0,0,5710.0,320.0" width="5710.0" xmlns="http://www.w3.org/2000/svg" xmlns:ev="http://www.w3.org/2001/xml-events" xmlns:xlink="http://www.w3.org/1999/xlink"><defs><filter height="140%" id="text-glow" width="140%" x="-20%" y="-20%"><feGaussianBlur in="SourceGraphic" result="blur" stdDeviation="2" /><feFlood flood-color="white" flood-opacity="1" result="color" /><feComposite in="color" in2="blur" operator="in" result="shadow" /><feMerge><feMergeNode in="shadow" /><feMergeNode in="shadow" /><feMergeNode in="SourceGraphic" /></feMerge></filter><marker id="arrow-end" markerHeight="10" markerWidth="10" orient="auto" refX="10" refY="5"><path d="M 0 0 L 10 5 L 0 10 z" fill="black" /></marker><marker id="arrow-start" markerHeight="10" markerWidth="10" orient="auto" refX="0" refY="5"><path d="M 10 0 L 0 5 L 10 10 z" fill="black" /></marker><marker id="circle-start" markerHeight="10" markerWidth="10" orient="auto" refX="5" refY="5"><circle cx="5" cy="5" fill="black" r="4" /></marker><marker id="circle-end" markerHeight="10" markerWidth="10" orient="auto" refX="5" refY="5"><circle cx="5" cy="5" fill="black" r="4" /></marker><linearGradient id="gradient-color1" x1="0%" x2="0%" y1="0%" y2="100%"><stop offset="0%" stop-color="#b1f3b1" /><stop offset="100%" stop-color="#64a664" /></linearGradient><linearGradient id="gradient-color2" x1="0%" x2="0%" y1="0%" y2="100%"><stop offset="0%" stop-color="#ffe34c" /><stop offset="100%" stop-color="#b29600" /></linearGradient><linearGradient id="gradient-color3" x1="0%" x2="0%" y1="0%" y2="100%"><stop offset="0%" stop-color="#ff917e" /><stop offset="100%" stop-color="#b24531" /></linearGradient><linearGradient id="gradient-color4" x1="0%" x2="0%" y1="0%" y2="100%"><stop offset="0%" stop-color="#c5e3ed" /><stop offset="100%" stop-color="#7997a1" /></linearGradient><linearGradient id="gradient-color5" x1="0%" x2="0%" y1="0%" y2="100%"><stop offset="0%" stop-color="#a64ca6" /><stop offset="100%" stop-color="#590059" /></linearGradient><linearGradient id="gradient-color6" x1="0%" x2="0%" y1="0%" y2="100%"><stop offset="0%" stop-color="#4cffff" /><stop offset="100%" stop-color="#00b2b2" /></linearGradient><linearGradient id="gradient-hex1" x1="0%" x2="0%" y1="0%" y2="100%"><stop offset="0%" stop-color="#ff8970" /><stop offset="100%" stop-color="#b23c23" /></linearGradient><linearGradient id="gradient-hex2" x1="0%" x2="0%" y1="0%" y2="100%"><stop offset="0%" stop-color="#70b6e5" /><stop offset="100%" stop-color="#246a99" /></linearGradient><linearGradient id="gradient-hex3" x1="0%" x2="0%" y1="0%" y2="100%"><stop offset="0%" stop-color="#6cdb9b" /><stop offset="100%" stop-color="#208e4f" /></linearGradient><linearGradient id="gradient-hex4" x1="0%" x2="0%" y1="0%" y2="100%"><stop offset="0%" stop-color="#b98acb" /><stop offset="100%" stop-color="#6c3e7f" /></linearGradient><linearGradient id="gradient-hex5" x1="0%" x2="0%" y1="0%" y2="100%"><stop offset="0%" stop-color="#ee8176" /><stop offset="100%" stop-color="#a1352a" /></linearGradient><linearGradient id="gradient-hex6" x1="0%" x2="0%" y1="0%" y2="100%"><stop offset="0%" stop-color="#5ed0b9" /><stop offset="100%" stop-color="#12836d" /></linearGradient></defs><g id="color1"><rect fill="url(#gradient-color1)" height="46" rx="2" ry="2" stroke="black" stroke-width="1.2" width="64" x="1068.0" y="24.0" /><polygon fill="#487748" points="1064.0,24.0 1100.0,14.0 1136.0,24.0" stroke="black" stroke-width="1.0" /><rect fill="#c7f6c7" height="7" stroke="#487748" stroke-width="0.7" width="10" x="1075.0" y="30.0" /><line stroke="#487748" stroke-width="0.5" x1="1080.0" x2="1080.0" y1="30.0" y2="37.0" /><line stroke="#487748" stroke-width="0.5" x1="1075.0" x2="1085.0" y1="33.5" y2="33.5" /><rect fill="#c7f6c7" height="7" stroke="#487748" stroke-width="0.7" width="10" x="1095.0" y="30.0" /><line stroke="#487748" stroke-width="0.5" x1="1100.0" x2="1100.0" y1="30.0" y2="37.0" /><line stroke="#487748" stroke-width="0.5" x1="1095.0" x2="1105.0" y1="33.5" y2="33.5" /><rect fill="#c7f6c7" height="7" stroke="#487748" stroke-width="0.7" width="10" x="1115.0" y="30.0" /><line stroke="#487748" stroke-width="0.5" x1="1120.0" x2="1120.0" y1="30.0" y2="37.0" /><line stroke="#487748" stroke-width="0.5" x1="1115.0" x2="1125.0" y1="33.5" y2="33.5" /><rect fill="#c7f6c7" height="7" stroke="#487748" stroke-width="0.7" width="10" x="1075.0" y="44.0" /><line stroke="#487748" stroke-width="0.5" x1="1080.0" x2="1080.0" y1="44.0" y2="51.0" /><line stroke="#487748" stroke-width="0.5" x1="1075.0" x2="1085.0" y1="47.5" y2="47.5" /><rect fill="#c7f6c7" height="7" stroke="#487748" stroke-width="0.7" width="10" x="1095.0" y="44.0" /><line stroke="#487748" stroke-width="0.5" x1="1100.0" x2="1100.0" y1="44.0" y2="51.0" /><line stroke="#487748" stroke-width="0.5" x1="1095.0" x2="1105.0" y1="47.5" y2="47.5" /><rect fill="#c7f6c7" height="7" stroke="#487748" stroke-width="0.7" width="10" x="1115.0" y="44.0" /><line stroke="#487748" stroke-width="0.5" x1="1120.0" x2="1120.0" y1="44.0" y2="51.0" /><line stroke="#487748" stroke-width="0.5" x1="1115.0" x2="1125.0" y1="47.5" y2="47.5" /><rect fill="#487748" height="12" stroke="black" stroke-width="0.8" width="10" x="1095.0" y="58.0" /><circle cx="1102.5" cy="64.0" fill="#c7f6c7" r="1.2" /></g><g id="color2"><rect fill="url(#gradient-color2)" height="46" rx="2" ry="2" stroke="black" stroke-width="1.2" width="64" x="1548.0" y="24.0" /><polygon fill="#7f6b00" points="1544.0,24.0 1580.0,14.0 1616.0,24.0" stroke="black" stroke-width="1.0" /><rect fill="#ffeb7f" height="7" stroke="#7f6b00" stroke-width="0.7" width="10" x="1555.0" y="30.0" /><line stroke="#7f6b00" stroke-width="0.5" x1="1560.0" x2="1560.0" y1="30.0" y2="37.0" /><line stroke="#7f6b00" stroke-width="0.5" x1="1555.0" x2="1565.0" y1="33.5" y2="33.5" /><rect fill="#ffeb7f" height="7" stroke="#7f6b00" stroke-width="0.7" width="10" x="1575.0" y="30.0" /><line stroke="#7f6b00" stroke-width="0.5" x1="1580.0" x2="1580.0" y1="30.0" y2="37.0" /><line stroke="#7f6b00" stroke-width="0.5" x1="1575.0" x2="1585.0" y1="33.5" y2="33.5" /><rect fill="#ffeb7f" height="7" stroke="#7f6b00" stroke-width="0.7" width="10" x="1595.0" y="30.0" /><line stroke="#7f6b00" stroke-width="0.5" x1="1600.0" x2="1600.0" y1="30.0" y2="37.0" /><line stroke="#7f6b00" stroke-width="0.5" x1="1595.0" x2="1605.0" y1="33.5" y2="33.5" /><rect fill="#ffeb7f" height="7" stroke="#7f6b00" stroke-width="0.7" width="10" x="1555.0" y="44.0" /><line stroke="#7f6b00" stroke-width="0.5" x1="1560.0" x2="1560.0" y1="44.0" y2="51.0" /><line stroke="#7f6b00" stroke-width="0.5" x1="1555.0" x2="1565.0" y1="47.5" y2="47.5" /><rect fill="#ffeb7f" height="7" stroke="#7f6b00" stroke-width="0.7" width="10" x="1575.0" y="44.0" /><line stroke="#7f6b00" stroke-width="0.5" x1="1580.0" x2="1580.0" y1="44.0" y2="51.0" /><line stroke="#7f6b00" stroke-width="0.5" x1="1575.0" x2="1585.0" y1="47.5" y2="47.5" /><rect fill="#ffeb7f" height="7" stroke="#7f6b00" stroke-width="0.7" width="10" x="1595.0" y="44.0" /><line stroke="#7f6b00" stroke-width="0.5" x1="1600.0" x2="1600.0" y1="44.0" y2="51.0" /><line stroke="#7f6b00" stroke-width="0.5" x1="1595.0" x2="1605.0" y1="47.5" y2="47.5" /><rect fill="#7f6b00" height="12" stroke="black" stroke-width="0.8" width="10" x="1575.0" y="58.0" /><circle cx="1582.5" cy="64.0" fill="#ffeb7f" r="1.2" /></g><g id="color3"><rect fill="url(#gradient-color3)" height="46" rx="2" ry="2" stroke="black" stroke-width="1.2" width="64" x="588.0" y="24.0" /><polygon fill="#7f3123" points="584.0,24.0 620.0,14.0 656.0,24.0" stroke="black" stroke-width="1.0" /><rect fill="#ffb1a3" height="7" stroke="#7f3123" stroke-width="0.7" width="10" x="595.0" y="30.0" /><line stroke="#7f3123" stroke-width="0.5" x1="600.0" x2="600.0" y1="30.0" y2="37.0" /><line stroke="#7f3123" stroke-width="0.5" x1="595.0" x2="605.0" y1="33.5" y2="33.5" /><rect fill="#ffb1a3" height="7" stroke="#7f3123" stroke-width="0.7" width="10" x="615.0" y="30.0" /><line stroke="#7f3123" stroke-width="0.5" x1="620.0" x2="620.0" y1="30.0" y2="37.0" /><line stroke="#7f3123" stroke-width="0.5" x1="615.0" x2="625.0" y1="33.5" y2="33.5" /><rect fill="#ffb1a3" height="7" stroke="#7f3123" stroke-width="0.7" width="10" x="635.0" y="30.0" /><line stroke="#7f3123" stroke-width="0.5" x1="640.0" x2="640.0" y1="30.0" y2="37.0" /><line stroke="#7f3123" stroke-width="0.5" x1="635.0" x2="645.0" y1="33.5" y2="33.5" /><rect fill="#ffb1a3" height="7" stroke="#7f3123" stroke-width="0.7" width="10" x="595.0" y="44.0" /><line stroke="#7f3123" stroke-width="0.5" x1="600.0" x2="600.0" y1="44.0" y2="51.0" /><line stroke="#7f3123" stroke-width="0.5" x1="595.0" x2="605.0" y1="47.5" y2="47.5" /><rect fill="#ffb1a3" height="7" stroke="#7f3123" stroke-width="0.7" width="10" x="615.0" y="44.0" /><line stroke="#7f3123" stroke-width="0.5" x1="620.0" x2="620.0" y1="44.0" y2="51.0" /><line stroke="#7f3123" stroke-width="0.5" x1="615.0" x2="625.0" y1="47.5" y2="47.5" /><rect fill="#ffb1a3" height="7" stroke="#7f3123" stroke-width="0.7" width="10" x="635.0" y="44.0" /><line stroke="#7f3123" stroke-width="0.5" x1="640.0" x2="640.0" y1="44.0" y2="51.0" /><line stroke="#7f3123" stroke-width="0.5" x1="635.0" x2="645.0" y1="47.5" y2="47.5" /><rect fill="#7f3123" height="12" stroke="black" stroke-width="0.8" width="10" x="615.0" y="58.0" /><circle cx="622.5" cy="64.0" fill="#ffb1a3" r="1.2" /></g><g id="color4"><rect fill="url(#gradient-color4)" height="46" rx="2" ry="2" stroke="black" stroke-width="1.2" width="64" x="2028.0" y="24.0" /><polygon fill="#566c73" points="2024.0,24.0 2060.0,14.0 2096.0,24.0" stroke="black" stroke-width="1.0" /><rect fill="#d6ebf2" height="7" stroke="#566c73" stroke-width="0.7" width="10" x="2035.0" y="30.0" /><line stroke="#566c73" stroke-width="0.5" x1="2040.0" x2="2040.0" y1="30.0" y2="37.0" /><line stroke="#566c73" stroke-width="0.5" x1="2035.0" x2="2045.0" y1="33.5" y2="33.5" /><rect fill="#d6ebf2" height="7" stroke="#566c73" stroke-width="0.7" width="10" x="2055.0" y="30.0" /><line stroke="#566c73" stroke-width="0.5" x1="2060.0" x2="2060.0" y1="30.0" y2="37.0" /><line stroke="#566c73" stroke-width="0.5" x1="2055.0" x2="2065.0" y1="33.5" y2="33.5" /><rect fill="#d6ebf2" height="7" stroke="#566c73" stroke-width="0.7" width="10" x="2075.0" y="30.0" /><line stroke="#566c73" stroke-width="0.5" x1="2080.0" x2="2080.0" y1="30.0" y2="37.0" /><line stroke="#566c73" stroke-width="0.5" x1="2075.0" x2="2085.0" y1="33.5" y2="33.5" /><rect fill="#d6ebf2" height="7" stroke="#566c73" stroke-width="0.7" width="10" x="2035.0" y="44.0" /><line stroke="#566c73" stroke-width="0.5" x1="2040.0" x2="2040.0" y1="44.0" y2="51.0" /><line stroke="#566c73" stroke-width="0.5" x1="2035.0" x2="2045.0" y1="47.5" y2="47.5" /><rect fill="#d6ebf2" height="7" stroke="#566c73" stroke-width="0.7" width="10" x="2055.0" y="44.0" /><line stroke="#566c73" stroke-width="0.5" x1="2060.0" x2="2060.0" y1="44.0" y2="51.0" /><line stroke="#566c73" stroke-width="0.5" x1="2055.0" x2="2065.0" y1="47.5" y2="47.5" /><rect fill="#d6ebf2" height="7" stroke="#566c73" stroke-width="0.7" width="10" x="2075.0" y="44.0" /><line stroke="#566c73" stroke-width="0.5" x1="2080.0" x2="2080.0" y1="44.0" y2="51.0" /><line stroke="#566c73" stroke-width="0.5" x1="2075.0" x2="2085.0" y1="47.5" y2="47.5" /><rect fill="#566c73" height="12" stroke="black" stroke-width="0.8" width="10" x="2055.0" y="58.0" /><circle cx="2062.5" cy="64.0" fill="#d6ebf2" r="1.2" /></g><g id="color5"><rect fill="url(#gradient-color5)" height="46" rx="2" ry="2" stroke="black" stroke-width="1.2" width="64" x="108.0" y="24.0" /><polygon fill="#400040" points="104.0,24.0 140.0,14.0 176.0,24.0" stroke="black" stroke-width="1.0" /><rect fill="#bf7fbf" height="7" stroke="#400040" stroke-width="0.7" width="10" x="115.0" y="30.0" /><line stroke="#400040" stroke-width="0.5" x1="120.0" x2="120.0" y1="30.0" y2="37.0" /><line stroke="#400040" stroke-width="0.5" x1="115.0" x2="125.0" y1="33.5" y2="33.5" /><rect fill="#bf7fbf" height="7" stroke="#400040" stroke-width="0.7" width="10" x="135.0" y="30.0" /><line stroke="#400040" stroke-width="0.5" x1="140.0" x2="140.0" y1="30.0" y2="37.0" /><line stroke="#400040" stroke-width="0.5" x1="135.0" x2="145.0" y1="33.5" y2="33.5" /><rect fill="#bf7fbf" height="7" stroke="#400040" stroke-width="0.7" width="10" x="155.0" y="30.0" /><line stroke="#400040" stroke-width="0.5" x1="160.0" x2="160.0" y1="30.0" y2="37.0" /><line stroke="#400040" stroke-width="0.5" x1="155.0" x2="165.0" y1="33.5" y2="33.5" /><rect fill="#bf7fbf" height="7" stroke="#400040" stroke-width="0.7" width="10" x="115.0" y="44.0" /><line stroke="#400040" stroke-width="0.5" x1="120.0" x2="120.0" y1="44.0" y2="51.0" /><line stroke="#400040" stroke-width="0.5" x1="115.0" x2="125.0" y1="47.5" y2="47.5" /><rect fill="#bf7fbf" height="7" stroke="#400040" stroke-width="0.7" width="10" x="135.0" y="44.0" /><line stroke="#400040" stroke-width="0.5" x1="140.0" x2="140.0" y1="44.0" y2="51.0" /><line stroke="#400040" stroke-width="0.5" x1="135.0" x2="145.0" y1="47.5" y2="47.5" /><rect fill="#bf7fbf" height="7" stroke="#400040" stroke-width="0.7" width="10" x="155.0" y="44.0" /><line stroke="#400040" stroke-width="0.5" x1="160.0" x2="160.0" y1="44.0" y2="51.0" /><line stroke="#400040" stroke-width="0.5" x1="155.0" x2="165.0" y1="47.5" y2="47.5" /><rect fill="#400040" height="12" stroke="black" stroke-width="0.8" width="10" x="135.0" y="58.0" /><circle cx="142.5" cy="64.0" fill="#bf7fbf" r="1.2" /></g><g id="color6"><rect fill="url(#gradient-color6)" height="46" rx="2" ry="2" stroke="black" stroke-width="1.2" width="64" x="2508.0" y="24.0" /><polygon fill="#007f7f" points="2504.0,24.0 2540.0,14.0 2576.0,24.0" stroke="black" stroke-width="1.0" /><rect fill="#7fffff" height="7" stroke="#007f7f" stroke-width="0.7" width="10" x="2515.0" y="30.0" /><line stroke="#007f7f" stroke-width="0.5" x1="2520.0" x2="2520.0" y1="30.0" y2="37.0" /><line stroke="#007f7f" stroke-width="0.5" x1="2515.0" x2="2525.0" y1="33.5" y2="33.5" /><rect fill="#7fffff" height="7" stroke="#007f7f" stroke-width="0.7" width="10" x="2535.0" y="30.0" /><line stroke="#007f7f" stroke-width="0.5" x1="2540.0" x2="2540.0" y1="30.0" y2="37.0" /><line stroke="#007f7f" stroke-width="0.5" x1="2535.0" x2="2545.0" y1="33.5" y2="33.5" /><rect fill="#7fffff" height="7" stroke="#007f7f" stroke-width="0.7" width="10" x="2555.0" y="30.0" /><line stroke="#007f7f" stroke-width="0.5" x1="2560.0" x2="2560.0" y1="30.0" y2="37.0" /><line stroke="#007f7f" stroke-width="0.5" x1="2555.0" x2="2565.0" y1="33.5" y2="33.5" /><rect fill="#7fffff" height="7" stroke="#007f7f" stroke-width="0.7" width="10" x="2515.0" y="44.0" /><line stroke="#007f7f" stroke-width="0.5" x1="2520.0" x2="2520.0" y1="44.0" y2="51.0" /><line stroke="#007f7f" stroke-width="0.5" x1="2515.0" x2="2525.0" y1="47.5" y2="47.5" /><rect fill="#7fffff" height="7" stroke="#007f7f" stroke-width="0.7" width="10" x="2535.0" y="44.0" /><line stroke="#007f7f" stroke-width="0.5" x1="2540.0" x2="2540.0" y1="44.0" y2="51.0" /><line stroke="#007f7f" stroke-width="0.5" x1="2535.0" x2="2545.0" y1="47.5" y2="47.5" /><rect fill="#7fffff" height="7" stroke="#007f7f" stroke-width="0.7" width="10" x="2555.0" y="44.0" /><line stroke="#007f7f" stroke-width="0.5" x1="2560.0" x2="2560.0" y1="44.0" y2="51.0" /><line stroke="#007f7f" stroke-width="0.5" x1="2555.0" x2="2565.0" y1="47.5" y2="47.5" /><rect fill="#007f7f" height="12" stroke="black" stroke-width="0.8" width="10" x="2535.0" y="58.0" /><circle cx="2542.5" cy="64.0" fill="#7fffff" r="1.2" /></g><g id="hex1"><rect fill="url(#gradient-hex1)" height="50" rx="4" ry="4" stroke="black" stroke-width="1.2" width="80" x="4900.0" y="20.0" /><line stroke="#99341e" stroke-width="0.8" x1="4902.0" x2="4978.0" y1="36.66666666666667" y2="36.66666666666667" /><line stroke="#99341e" stroke-width="0.8" x1="4902.0" x2="4978.0" y1="53.333333333333336" y2="53.333333333333336" /><circle cx="4968.0" cy="28.333333333333336" fill="#00cc44" r="2.5" stroke="#99341e" stroke-width="0.5" /><circle cx="4960.0" cy="28.333333333333336" fill="#ffaa00" r="2.5" stroke="#99341e" stroke-width="0.5" /><circle cx="4968.0" cy="45.00000000000001" fill="#00cc44" r="2.5" stroke="#99341e" stroke-width="0.5" /><circle cx="4960.0" cy="45.00000000000001" fill="#ffaa00" r="2.5" stroke="#99341e" stroke-width="0.5" /><circle cx="4968.0" cy="61.66666666666667" fill="#00cc44" r="2.5" stroke="#99341e" stroke-width="0.5" /><circle cx="4960.0" cy="61.66666666666667" fill="#ffaa00" r="2.5" stroke="#99341e" stroke-width="0.5" /><line stroke="#99341e" stroke-width="0.6" x1="4906.0" x2="4918.0" y1="25.0" y2="25.0" /><line stroke="#99341e" stroke-width="0.6" x1="4906.0" x2="4918.0" y1="28.333333333333336" y2="28.333333333333336" /><line stroke="#99341e" stroke-width="0.6" x1="4906.0" x2="4918.0" y1="31.666666666666668" y2="31.666666666666668" /><line stroke="#99341e" stroke-width="0.6" x1="4906.0" x2="4918.0" y1="41.66666666666667" y2="41.66666666666667" /><line stroke="#99341e" stroke-width="0.6" x1="4906.0" x2="4918.0" y1="45.00000000000001" y2="45.00000000000001" /><line stroke="#99341e" stroke-width="0.6" x1="4906.0" x2="4918.0" y1="48.33333333333334" y2="48.33333333333334" /><line stroke="#99341e" stroke-width="0.6" x1="4906.0" x2="4918.0" y1="58.333333333333336" y2="58.333333333333336" /><line stroke="#99341e" stroke-width="0.6" x1="4906.0" x2="4918.0" y1="61.66666666666667" y2="61.66666666666667" /><line stroke="#99341e" stroke-width="0.6" x1="4906.0" x2="4918.0" y1="65.0" y2="65.0" /></g><g id="hex2"><rect fill="url(#gradient-hex2)" height="50" rx="4" ry="4" stroke="black" stroke-width="1.2" width="80" x="5380.0" y="20.0" /><line stroke="#1f5b83" stroke-width="0.8" x1="5382.0" x2="5458.0" y1="36.66666666666667" y2="36.66666666666667" /><line stroke="#1f5b83" stroke-width="0.8" x1="5382.0" x2="5458.0" y1="53.333333333333336" y2="53.333333333333336" /><circle cx="5448.0" cy="28.333333333333336" fill="#00cc44" r="2.5" stroke="#1f5b83" stroke-width="0.5" /><circle cx="5440.0" cy="28.333333333333336" fill="#ffaa00" r="2.5" stroke="#1f5b83" stroke-width="0.5" /><circle cx="5448.0" cy="45.00000000000001" fill="#00cc44" r="2.5" stroke="#1f5b83" stroke-width="0.5" /><circle cx="5440.0" cy="45.00000000000001" fill="#ffaa00" r="2.5" stroke="#1f5b83" stroke-width="0.5" /><circle cx="5448.0" cy="61.66666666666667" fill="#00cc44" r="2.5" stroke="#1f5b83" stroke-width="0.5" /><circle cx="5440.0" cy="61.66666666666667" fill="#ffaa00" r="2.5" stroke="#1f5b83" stroke-width="0.5" /><line stroke="#1f5b83" stroke-width="0.6" x1="5386.0" x2="5398.0" y1="25.0" y2="25.0" /><line stroke="#1f5b83" stroke-width="0.6" x1="5386.0" x2="5398.0" y1="28.333333333333336" y2="28.333333333333336" /><line stroke="#1f5b83" stroke-width="0.6" x1="5386.0" x2="5398.0" y1="31.666666666666668" y2="31.666666666666668" /><line stroke="#1f5b83" stroke-width="0.6" x1="5386.0" x2="5398.0" y1="41.66666666666667" y2="41.66666666666667" /><line stroke="#1f5b83" stroke-width="0.6" x1="5386.0" x2="5398.0" y1="45.00000000000001" y2="45.00000000000001" /><line stroke="#1f5b83" stroke-width="0.6" x1="5386.0" x2="5398.0" y1="48.33333333333334" y2="48.33333333333334" /><line stroke="#1f5b83" stroke-width="0.6" x1="5386.0" x2="5398.0" y1="58.333333333333336" y2="58.333333333333336" /><line stroke="#1f5b83" stroke-width="0.6" x1="5386.0" x2="5398.0" y1="61.66666666666667" y2="61.66666666666667" /><line stroke="#1f5b83" stroke-width="0.6" x1="5386.0" x2="5398.0" y1="65.0" y2="65.0" /></g><g id="hex3"><rect fill="url(#gradient-hex3)" height="50" rx="4" ry="4" stroke="black" stroke-width="1.2" width="80" x="4420.0" y="20.0" /><line stroke="#1b7a43" stroke-width="0.8" x1="4422.0" x2="4498.0" y1="36.66666666666667" y2="36.66666666666667" /><line stroke="#1b7a43" stroke-width="0.8" x1="4422.0" x2="4498.0" y1="53.333333333333336" y2="53.333333333333336" /><circle cx="4488.0" cy="28.333333333333336" fill="#00cc44" r="2.5" stroke="#1b7a43" stroke-width="0.5" /><circle cx="4480.0" cy="28.333333333333336" fill="#ffaa00" r="2.5" stroke="#1b7a43" stroke-width="0.5" /><circle cx="4488.0" cy="45.00000000000001" fill="#00cc44" r="2.5" stroke="#1b7a43" stroke-width="0.5" /><circle cx="4480.0" cy="45.00000000000001" fill="#ffaa00" r="2.5" stroke="#1b7a43" stroke-width="0.5" /><circle cx="4488.0" cy="61.66666666666667" fill="#00cc44" r="2.5" stroke="#1b7a43" stroke-width="0.5" /><circle cx="4480.0" cy="61.66666666666667" fill="#ffaa00" r="2.5" stroke="#1b7a43" stroke-width="0.5" /><line stroke="#1b7a43" stroke-width="0.6" x1="4426.0" x2="4438.0" y1="25.0" y2="25.0" /><line stroke="#1b7a43" stroke-width="0.6" x1="4426.0" x2="4438.0" y1="28.333333333333336" y2="28.333333333333336" /><line stroke="#1b7a43" stroke-width="0.6" x1="4426.0" x2="4438.0" y1="31.666666666666668" y2="31.666666666666668" /><line stroke="#1b7a43" stroke-width="0.6" x1="4426.0" x2="4438.0" y1="41.66666666666667" y2="41.66666666666667" /><line stroke="#1b7a43" stroke-width="0.6" x1="4426.0" x2="4438.0" y1="45.00000000000001" y2="45.00000000000001" /><line stroke="#1b7a43" stroke-width="0.6" x1="4426.0" x2="4438.0" y1="48.33333333333334" y2="48.33333333333334" /><line stroke="#1b7a43" stroke-width="0.6" x1="4426.0" x2="4438.0" y1="58.333333333333336" y2="58.333333333333336" /><line stroke="#1b7a43" stroke-width="0.6" x1="4426.0" x2="4438.0" y1="61.66666666666667" y2="61.66666666666667" /><line stroke="#1b7a43" stroke-width="0.6" x1="4426.0" x2="4438.0" y1="65.0" y2="65.0" /></g><g id="hex4"><ellipse cx="3500.0" cy="53.0" fill="url(#gradient-hex4)" rx="36.0" ry="11.0" stroke="#6c3e7f" stroke-width="0.8" /><circle cx="3500.0" cy="41.0" fill="url(#gradient-hex4)" r="17.0" stroke="#6c3e7f" stroke-width="0.8" /><circle cx="3486.0" cy="47.0" fill="url(#gradient-hex4)" r="13.0" stroke="#6c3e7f" stroke-width="0.8" /><circle cx="3514.0" cy="47.0" fill="url(#gradient-hex4)" r="13.0" stroke="#6c3e7f" stroke-width="0.8" /><ellipse cx="3500.0" cy="49.0" fill="url(#gradient-hex4)" rx="30.4" ry="14.000000000000002" stroke="none" /></g><g id="hex5"><ellipse cx="3020.0" cy="53.0" fill="url(#gradient-hex5)" rx="36.0" ry="11.0" stroke="#a1352a" stroke-width="0.8" /><circle cx="3020.0" cy="41.0" fill="url(#gradient-hex5)" r="17.0" stroke="#a1352a" stroke-width="0.8" /><circle cx="3006.0" cy="47.0" fill="url(#gradient-hex5)" r="13.0" stroke="#a1352a" stroke-width="0.8" /><circle cx="3034.0" cy="47.0" fill="url(#gradient-hex5)" r="13.0" stroke="#a1352a" stroke-width="0.8" /><ellipse cx="3020.0" cy="49.0" fill="url(#gradient-hex5)" rx="30.4" ry="14.000000000000002" stroke="none" /></g><g id="hex6"><ellipse cx="3980.0" cy="53.0" fill="url(#gradient-hex6)" rx="36.0" ry="11.0" stroke="#12836d" stroke-width="0.8" /><circle cx="3980.0" cy="41.0" fill="url(#gradient-hex6)" r="17.0" stroke="#12836d" stroke-width="0.8" /><circle cx="3966.0" cy="47.0" fill="url(#gradient-hex6)" r="13.0" stroke="#12836d" stroke-width="0.8" /><circle cx="3994.0" cy="47.0" fill="url(#gradient-hex6)" r="13.0" stroke="#12836d" stroke-width="0.8" /><ellipse cx="3980.0" cy="49.0" fill="url(#gradient-hex6)" rx="30.4" ry="14.000000000000002" stroke="none" /></g><text fill="black" filter="url(#text-glow)" font-family="Arial, sans-serif" font-size="14px" text-anchor="middle" x="1100.0" y="91.0">lightgreen</text><text fill="black" filter="url(#text-glow)" font-family="Arial, sans-serif" font-size="14px" text-anchor="middle" x="1580.0" y="91.0">gold</text><text fill="black" filter="url(#text-glow)" font-family="Arial, sans-serif" font-size="14px" text-anchor="middle" x="620.0" y="91.0">tomato</text><text fill="black" filter="url(#text-glow)" font-family="Arial, sans-serif" font-size="14px" text-anchor="middle" x="2060.0" y="91.0">lightblue</text><text fill="black" filter="url(#text-glow)" font-family="Arial, sans-serif" font-size="14px" text-anchor="middle" x="140.0" y="91.0">purple</text><text fill="black" filter="url(#text-glow)" font-family="Arial, sans-serif" font-size="14px" text-anchor="middle" x="2540.0" y="91.0">cyan</text><text fill="black" filter="url(#text-glow)" font-family="Arial, sans-serif" font-size="14px" text-anchor="middle" x="4940.0" y="91.0">#FF5733</text><text fill="black" filter="url(#text-glow)" font-family="Arial, sans-serif" font-size="14px" text-anchor="middle" x="4940.0" y="109.0">(hex)</text><text fill="black" filter="url(#text-glow)" font-family="Arial, sans-serif" font-size="14px" text-anchor="middle" x="5420.0" y="91.0">#3498DB</text><text fill="black" filter="url(#text-glow)" font-family="Arial, sans-serif" font-size="14px" text-anchor="middle" x="5420.0" y="109.0">(hex)</text><text fill="black" filter="url(#text-glow)" font-family="Arial, sans-serif" font-size="14px" text-anchor="middle" x="4460.0" y="91.0">#2ECC71</text><text fill="black" filter="url(#text-glow)" font-family="Arial, sans-serif" font-size="14px" text-anchor="middle" x="4460.0" y="109.0">(hex)</text><text fill="black" filter="url(#text-glow)" font-family="Arial, sans-serif" font-size="14px" text-anchor="middle" x="3500.0" y="91.0">#9B59B6</text><text fill="black" filter="url(#text-glow)" font-family="Arial, sans-serif" font-size="14px" text-anchor="middle" x="3500.0" y="109.0">(hex)</text><text fill="black" filter="url(#text-glow)" font-family="Arial, sans-serif" font-size="14px" text-anchor="middle" x="3020.0" y="91.0">#E74C3C</text><text fill="black" filter="url(#text-glow)" font-family="Arial, sans-serif" font-size="14px" text-anchor="middle" x="3020.0" y="109.0">(hex)</text><text fill="black" filter="url(#text-glow)" font-family="Arial, sans-serif" font-size="14px" text-anchor="middle" x="3980.0" y="91.0">#1ABC9C</text><text fill="black" filter="url(#text-glow)" font-family="Arial, sans-serif" font-size="14px" text-anchor="middle" x="3980.0" y="109.0">(hex)</text></svg>