<?xml version="1.0" encoding="utf-8" ?>
<svg baseProfile="full" height="420" version="1.1" viewBox="0,0,930,420" width="930" xmlns="http://www.w3.org/2000/svg" xmlns:ev="http://www.w3.org/2001/xml-events" xmlns:xlink="http://www.w3.org/1999/xlink"><defs><marker id="arrow-end" markerHeight="10" markerWidth="10" orient="auto" refX="10" refY="5"><path d="M 0 0 L 10 5 L 0 10 z" fill="black" /></marker><marker id="arrow-start" markerHeight="10" markerWidth="10" orient="auto" refX="0" refY="5"><path d="M 10 0 L 0 5 L 10 10 z" fill="black" /></marker><linearGradient id="gradient-color1" x1="0%" x2="0%" y1="0%" y2="100%"><stop offset="0%" stop-color="#b1f3b1" /><stop offset="100%" stop-color="#64a664" /></linearGradient><linearGradient id="gradient-color2" x1="0%" x2="0%" y1="0%" y2="100%"><stop offset="0%" stop-color="#ffe34c" /><stop offset="100%" stop-color="#b29600" /></linearGradient><linearGradient id="gradient-color3" x1="0%" x2="0%" y1="0%" y2="100%"><stop offset="0%" stop-color="#ff917e" /><stop offset="100%" stop-color="#b24531" /></linearGradient><linearGradient id="gradient-color4" x1="0%" x2="0%" y1="0%" y2="100%"><stop offset="0%" stop-color="#c5e3ed" /><stop offset="100%" stop-color="#7997a1" /></linearGradient><linearGradient id="gradient-color5" x1="0%" x2="0%" y1="0%" y2="100%"><stop offset="0%" stop-color="#a64ca6" /><stop offset="100%" stop-color="#590059" /></linearGradient><linearGradient id="gradient-color6" x1="0%" x2="0%" y1="0%" y2="100%"><stop offset="0%" stop-color="#4cffff" /><stop offset="100%" stop-color="#00b2b2" /></linearGradient><linearGradient id="gradient-hex1" x1="0%" x2="0%" y1="0%" y2="100%"><stop offset="0%" stop-color="#ff8970" /><stop offset="100%" stop-color="#b23c23" /></linearGradient><linearGradient id="gradient-hex2" x1="0%" x2="0%" y1="0%" y2="100%"><stop offset="0%" stop-color="#70b6e5" /><stop offset="100%" stop-color="#246a99" /></linearGradient><linearGradient id="gradient-hex3" x1="0%" x2="0%" y1="0%" y2="100%"><stop offset="0%" stop-color="#6cdb9b" /><stop offset="100%" stop-color="#208e4f" /></linearGradient><linearGradient id="gradient-hex4" x1="0%" x2="0%" y1="0%" y2="100%"><stop offset="0%" stop-color="#b98acb" /><stop offset="100%" stop-color="#6c3e7f" /></linearGradient><linearGradient id="gradient-hex5" x1="0%" x2="0%" y1="0%" y2="100%"><stop offset="0%" stop-color="#ee8176" /><stop offset="100%" stop-color="#a1352a" /></linearGradient><linearGradient id="gradient-hex6" x1="0%" x2="0%" y1="0%" y2="100%"><stop offset="0%" stop-color="#5ed0b9" /><stop offset="100%" stop-color="#12836d" /></linearGradient></defs><rect fill="url(#gradient-color1)" height="30.0" stroke="black" width="60.0" x="60.0" y="110.0" /><rect fill="url(#gradient-color2)" height="30.0" stroke="black" width="60.0" x="180.0" y="110.0" /><rect fill="url(#gradient-color3)" height="30.0" stroke="black" width="60.0" x="300.0" y="110.0" /><rect fill="url(#gradient-color4)" height="30.0" stroke="black" width="60.0" x="420.0" y="110.0" /><rect fill="url(#gradient-color5)" height="30.0" stroke="black" width="60.0" x="540.0" y="110.0" /><rect fill="url(#gradient-color6)" height="30.0" stroke="black" width="60.0" x="660.0" y="110.0" /><rect fill="url(#gradient-hex1)" height="50" stroke="black" width="80" x="50" y="250" /><rect fill="url(#gradient-hex2)" height="50" stroke="black" width="80" x="170" y="250" /><rect fill="url(#gradient-hex3)" height="50" stroke="black" width="80" x="290" y="250" /><ellipse cx="450.0" cy="275.0" fill="url(#gradient-hex4)" rx="40.0" ry="25.0" stroke="black" /><ellipse cx="570.0" cy="275.0" fill="url(#gradient-hex5)" rx="40.0" ry="25.0" stroke="black" /><ellipse cx="690.0" cy="275.0" fill="url(#gradient-hex6)" rx="40.0" ry="25.0" stroke="black" /><text fill="black" font-family="Arial, sans-serif" font-size="14px" text-anchor="middle" x="90.0" y="171.0">lightgreen</text><text fill="black" font-family="Arial, sans-serif" font-size="14px" text-anchor="middle" x="210.0" y="171.0">gold</text><text fill="black" font-family="Arial, sans-serif" font-size="14px" text-anchor="middle" x="330.0" y="171.0">tomato</text><text fill="black" font-family="Arial, sans-serif" font-size="14px" text-anchor="middle" x="450.0" y="171.0">lightblue</text><text fill="black" font-family="Arial, sans-serif" font-size="14px" text-anchor="middle" x="570.0" y="171.0">purple</text><text fill="black" font-family="Arial, sans-serif" font-size="14px" text-anchor="middle" x="690.0" y="171.0">cyan</text><text fill="black" font-family="Arial, sans-serif" font-size="14px" text-anchor="middle" x="90.0" y="321.0">#FF5733
(hex)</text><text fill="black" font-family="Arial, sans-serif" font-size="14px" text-anchor="middle" x="210.0" y="321.0">#3498DB
(hex)</text><text fill="black" font-family="Arial, sans-serif" font-size="14px" text-anchor="middle" x="330.0" y="321.0">#2ECC71
(hex)</text><text fill="black" font-family="Arial, sans-serif" font-size="14px" text-anchor="middle" x="450.0" y="321.0">#9B59B6
(hex)</text><text fill="black" font-family="Arial, sans-serif" font-size="14px" text-anchor="middle" x="570.0" y="321.0">#E74C3C
(hex)</text><text fill="black" font-family="Arial, sans-serif" font-size="14px" text-anchor="middle" x="690.0" y="321.0">#1ABC9C
(hex)</text></svg>