<?xml version="1.0" encoding="utf-8" ?>
<svg baseProfile="full" height="450" version="1.1" viewBox="0,0,900,450" width="900" xmlns="http://www.w3.org/2000/svg" xmlns:ev="http://www.w3.org/2001/xml-events" xmlns:xlink="http://www.w3.org/1999/xlink"><defs><filter height="140%" id="text-glow" width="140%" x="-20%" y="-20%"><feGaussianBlur in="SourceGraphic" result="blur" stdDeviation="2" /><feFlood flood-color="white" flood-opacity="1" result="color" /><feComposite in="color" in2="blur" operator="in" result="shadow" /><feMerge><feMergeNode in="shadow" /><feMergeNode in="shadow" /><feMergeNode in="SourceGraphic" /></feMerge></filter><marker id="arrow-end" markerHeight="10" markerWidth="10" orient="auto" refX="10" refY="5"><path d="M 0 0 L 10 5 L 0 10 z" fill="black" /></marker><marker id="arrow-start" markerHeight="10" markerWidth="10" orient="auto" refX="0" refY="5"><path d="M 10 0 L 0 5 L 10 10 z" fill="black" /></marker><marker id="circle-start" markerHeight="10" markerWidth="10" orient="auto" refX="5" refY="5"><circle cx="5" cy="5" fill="black" r="4" /></marker><marker id="circle-end" markerHeight="10" markerWidth="10" orient="auto" refX="5" refY="5"><circle cx="5" cy="5" fill="black" r="4" /></marker><linearGradient id="gradient-color1" x1="0%" x2="0%" y1="0%" y2="100%"><stop offset="0%" stop-color="#b1f3b1" /><stop offset="100%" stop-color="#64a664" /></linearGradient><linearGradient id="gradient-color2" x1="0%" x2="0%" y1="0%" y2="100%"><stop offset="0%" stop-color="#ffe34c" /><stop offset="100%" stop-color="#b29600" /></linearGradient><linearGradient id="gradient-color3" x1="0%" x2="0%" y1="0%" y2="100%"><stop offset="0%" stop-color="#ff917e" /><stop offset="100%" stop-color="#b24531" /></linearGradient><linearGradient id="gradient-color4" x1="0%" x2="0%" y1="0%" y2="100%"><stop offset="0%" stop-color="#c5e3ed" /><stop offset="100%" stop-color="#7997a1" /></linearGradient><linearGradient id="gradient-color5" x1="0%" x2="0%" y1="0%" y2="100%"><stop offset="0%" stop-color="#a64ca6" /><stop offset="100%" stop-color="#590059" /></linearGradient><linearGradient id="gradient-color6" x1="0%" x2="0%" y1="0%" y2="100%"><stop offset="0%" stop-color="#4cffff" /><stop offset="100%" stop-color="#00b2b2" /></linearGradient><linearGradient id="gradient-hex1" x1="0%" x2="0%" y1="0%" y2="100%"><stop offset="0%" stop-color="#ff8970" /><stop offset="100%" stop-color="#b23c23" /></linearGradient><linearGradient id="gradient-hex2" x1="0%" x2="0%" y1="0%" y2="100%"><stop offset="0%" stop-color="#70b6e5" /><stop offset="100%" stop-color="#246a99" /></linearGradient><linearGradient id="gradient-hex3" x1="0%" x2="0%" y1="0%" y2="100%"><stop offset="0%" stop-color="#6cdb9b" /><stop offset="100%" stop-color="#208e4f" /></linearGradient><linearGradient id="gradient-hex4" x1="0%" x2="0%" y1="0%" y2="100%"><stop offset="0%" stop-color="#b98acb" /><stop offset="100%" stop-color="#6c3e7f" /></linearGradient><linearGradient id="gradient-hex5" x1="0%" x2="0%" y1="0%" y2="100%"><stop offset="0%" stop-color="#ee8176" /><stop offset="100%" stop-color="#a1352a" /></linearGradient><linearGradient id="gradient-hex6" x1="0%" x2="0%" y1="0%" y2="100%"><stop offset="0%" stop-color="#5ed0b9" /><stop offset="100%" stop-color="#12836d" /></linearGradient></defs><g id="color1"><rect fill="url(#gradient-color1)" height="46" rx="2" ry="2" stroke="black" stroke-width="1.2" width="64" x="58" y="104" /><polygon fill="#487748" points="54,104 90.0,94 126,104" stroke="black" stroke-width="1.0" /><rect fill="#c7f6c7" height="7" stroke="#487748" stroke-width="0.7" width="10" x="65" y="110" /><line stroke="#487748" stroke-width="0.5" x1="70.0" x2="70.0" y1="110" y2="117" /><line stroke="#487748" stroke-width="0.5" x1="65" x2="75" y1="113.5" y2="113.5" /><rect fill="#c7f6c7" height="7" stroke="#487748" stroke-width="0.7" width="10" x="85" y="110" /><line stroke="#487748" stroke-width="0.5" x1="90.0" x2="90.0" y1="110" y2="117" /><line stroke="#487748" stroke-width="0.5" x1="85" x2="95" y1="113.5" y2="113.5" /><rect fill="#c7f6c7" height="7" stroke="#487748" stroke-width="0.7" width="10" x="105" y="110" /><line stroke="#487748" stroke-width="0.5" x1="110.0" x2="110.0" y1="110" y2="117" /><line stroke="#487748" stroke-width="0.5" x1="105" x2="115" y1="113.5" y2="113.5" /><rect fill="#c7f6c7" height="7" stroke="#487748" stroke-width="0.7" width="10" x="65" y="124" /><line stroke="#487748" stroke-width="0.5" x1="70.0" x2="70.0" y1="124" y2="131" /><line stroke="#487748" stroke-width="0.5" x1="65" x2="75" y1="127.5" y2="127.5" /><rect fill="#c7f6c7" height="7" stroke="#487748" stroke-width="0.7" width="10" x="85" y="124" /><line stroke="#487748" stroke-width="0.5" x1="90.0" x2="90.0" y1="124" y2="131" /><line stroke="#487748" stroke-width="0.5" x1="85" x2="95" y1="127.5" y2="127.5" /><rect fill="#c7f6c7" height="7" stroke="#487748" stroke-width="0.7" width="10" x="105" y="124" /><line stroke="#487748" stroke-width="0.5" x1="110.0" x2="110.0" y1="124" y2="131" /><line stroke="#487748" stroke-width="0.5" x1="105" x2="115" y1="127.5" y2="127.5" /><rect fill="#487748" height="12" stroke="black" stroke-width="0.8" width="10" x="85.0" y="138" /><circle cx="92.5" cy="144.0" fill="#c7f6c7" r="1.2" /></g><g id="color2"><rect fill="url(#gradient-color2)" height="46" rx="2" ry="2" stroke="black" stroke-width="1.2" width="64" x="178" y="104" /><polygon fill="#7f6b00" points="174,104 210.0,94 246,104" stroke="black" stroke-width="1.0" /><rect fill="#ffeb7f" height="7" stroke="#7f6b00" stroke-width="0.7" width="10" x="185" y="110" /><line stroke="#7f6b00" stroke-width="0.5" x1="190.0" x2="190.0" y1="110" y2="117" /><line stroke="#7f6b00" stroke-width="0.5" x1="185" x2="195" y1="113.5" y2="113.5" /><rect fill="#ffeb7f" height="7" stroke="#7f6b00" stroke-width="0.7" width="10" x="205" y="110" /><line stroke="#7f6b00" stroke-width="0.5" x1="210.0" x2="210.0" y1="110" y2="117" /><line stroke="#7f6b00" stroke-width="0.5" x1="205" x2="215" y1="113.5" y2="113.5" /><rect fill="#ffeb7f" height="7" stroke="#7f6b00" stroke-width="0.7" width="10" x="225" y="110" /><line stroke="#7f6b00" stroke-width="0.5" x1="230.0" x2="230.0" y1="110" y2="117" /><line stroke="#7f6b00" stroke-width="0.5" x1="225" x2="235" y1="113.5" y2="113.5" /><rect fill="#ffeb7f" height="7" stroke="#7f6b00" stroke-width="0.7" width="10" x="185" y="124" /><line stroke="#7f6b00" stroke-width="0.5" x1="190.0" x2="190.0" y1="124" y2="131" /><line stroke="#7f6b00" stroke-width="0.5" x1="185" x2="195" y1="127.5" y2="127.5" /><rect fill="#ffeb7f" height="7" stroke="#7f6b00" stroke-width="0.7" width="10" x="205" y="124" /><line stroke="#7f6b00" stroke-width="0.5" x1="210.0" x2="210.0" y1="124" y2="131" /><line stroke="#7f6b00" stroke-width="0.5" x1="205" x2="215" y1="127.5" y2="127.5" /><rect fill="#ffeb7f" height="7" stroke="#7f6b00" stroke-width="0.7" width="10" x="225" y="124" /><line stroke="#7f6b00" stroke-width="0.5" x1="230.0" x2="230.0" y1="124" y2="131" /><line stroke="#7f6b00" stroke-width="0.5" x1="225" x2="235" y1="127.5" y2="127.5" /><rect fill="#7f6b00" height="12" stroke="black" stroke-width="0.8" width="10" x="205.0" y="138" /><circle cx="212.5" cy="144.0" fill="#ffeb7f" r="1.2" /></g><g id="color3"><rect fill="url(#gradient-color3)" height="46" rx="2" ry="2" stroke="black" stroke-width="1.2" width="64" x="298" y="104" /><polygon fill="#7f3123" points="294,104 330.0,94 366,104" stroke="black" stroke-width="1.0" /><rect fill="#ffb1a3" height="7" stroke="#7f3123" stroke-width="0.7" width="10" x="305" y="110" /><line stroke="#7f3123" stroke-width="0.5" x1="310.0" x2="310.0" y1="110" y2="117" /><line stroke="#7f3123" stroke-width="0.5" x1="305" x2="315" y1="113.5" y2="113.5" /><rect fill="#ffb1a3" height="7" stroke="#7f3123" stroke-width="0.7" width="10" x="325" y="110" /><line stroke="#7f3123" stroke-width="0.5" x1="330.0" x2="330.0" y1="110" y2="117" /><line stroke="#7f3123" stroke-width="0.5" x1="325" x2="335" y1="113.5" y2="113.5" /><rect fill="#ffb1a3" height="7" stroke="#7f3123" stroke-width="0.7" width="10" x="345" y="110" /><line stroke="#7f3123" stroke-width="0.5" x1="350.0" x2="350.0" y1="110" y2="117" /><line stroke="#7f3123" stroke-width="0.5" x1="345" x2="355" y1="113.5" y2="113.5" /><rect fill="#ffb1a3" height="7" stroke="#7f3123" stroke-width="0.7" width="10" x="305" y="124" /><line stroke="#7f3123" stroke-width="0.5" x1="310.0" x2="310.0" y1="124" y2="131" /><line stroke="#7f3123" stroke-width="0.5" x1="305" x2="315" y1="127.5" y2="127.5" /><rect fill="#ffb1a3" height="7" stroke="#7f3123" stroke-width="0.7" width="10" x="325" y="124" /><line stroke="#7f3123" stroke-width="0.5" x1="330.0" x2="330.0" y1="124" y2="131" /><line stroke="#7f3123" stroke-width="0.5" x1="325" x2="335" y1="127.5" y2="127.5" /><rect fill="#ffb1a3" height="7" stroke="#7f3123" stroke-width="0.7" width="10" x="345" y="124" /><line stroke="#7f3123" stroke-width="0.5" x1="350.0" x2="350.0" y1="124" y2="131" /><line stroke="#7f3123" stroke-width="0.5" x1="345" x2="355" y1="127.5" y2="127.5" /><rect fill="#7f3123" height="12" stroke="black" stroke-width="0.8" width="10" x="325.0" y="138" /><circle cx="332.5" cy="144.0" fill="#ffb1a3" r="1.2" /></g><g id="color4"><rect fill="url(#gradient-color4)" height="46" rx="2" ry="2" stroke="black" stroke-width="1.2" width="64" x="418" y="104" /><polygon fill="#566c73" points="414,104 450.0,94 486,104" stroke="black" stroke-width="1.0" /><rect fill="#d6ebf2" height="7" stroke="#566c73" stroke-width="0.7" width="10" x="425" y="110" /><line stroke="#566c73" stroke-width="0.5" x1="430.0" x2="430.0" y1="110" y2="117" /><line stroke="#566c73" stroke-width="0.5" x1="425" x2="435" y1="113.5" y2="113.5" /><rect fill="#d6ebf2" height="7" stroke="#566c73" stroke-width="0.7" width="10" x="445" y="110" /><line stroke="#566c73" stroke-width="0.5" x1="450.0" x2="450.0" y1="110" y2="117" /><line stroke="#566c73" stroke-width="0.5" x1="445" x2="455" y1="113.5" y2="113.5" /><rect fill="#d6ebf2" height="7" stroke="#566c73" stroke-width="0.7" width="10" x="465" y="110" /><line stroke="#566c73" stroke-width="0.5" x1="470.0" x2="470.0" y1="110" y2="117" /><line stroke="#566c73" stroke-width="0.5" x1="465" x2="475" y1="113.5" y2="113.5" /><rect fill="#d6ebf2" height="7" stroke="#566c73" stroke-width="0.7" width="10" x="425" y="124" /><line stroke="#566c73" stroke-width="0.5" x1="430.0" x2="430.0" y1="124" y2="131" /><line stroke="#566c73" stroke-width="0.5" x1="425" x2="435" y1="127.5" y2="127.5" /><rect fill="#d6ebf2" height="7" stroke="#566c73" stroke-width="0.7" width="10" x="445" y="124" /><line stroke="#566c73" stroke-width="0.5" x1="450.0" x2="450.0" y1="124" y2="131" /><line stroke="#566c73" stroke-width="0.5" x1="445" x2="455" y1="127.5" y2="127.5" /><rect fill="#d6ebf2" height="7" stroke="#566c73" stroke-width="0.7" width="10" x="465" y="124" /><line stroke="#566c73" stroke-width="0.5" x1="470.0" x2="470.0" y1="124" y2="131" /><line stroke="#566c73" stroke-width="0.5" x1="465" x2="475" y1="127.5" y2="127.5" /><rect fill="#566c73" height="12" stroke="black" stroke-width="0.8" width="10" x="445.0" y="138" /><circle cx="452.5" cy="144.0" fill="#d6ebf2" r="1.2" /></g><g id="color5"><rect fill="url(#gradient-color5)" height="46" rx="2" ry="2" stroke="black" stroke-width="1.2" width="64" x="538" y="104" /><polygon fill="#400040" points="534,104 570.0,94 606,104" stroke="black" stroke-width="1.0" /><rect fill="#bf7fbf" height="7" stroke="#400040" stroke-width="0.7" width="10" x="545" y="110" /><line stroke="#400040" stroke-width="0.5" x1="550.0" x2="550.0" y1="110" y2="117" /><line stroke="#400040" stroke-width="0.5" x1="545" x2="555" y1="113.5" y2="113.5" /><rect fill="#bf7fbf" height="7" stroke="#400040" stroke-width="0.7" width="10" x="565" y="110" /><line stroke="#400040" stroke-width="0.5" x1="570.0" x2="570.0" y1="110" y2="117" /><line stroke="#400040" stroke-width="0.5" x1="565" x2="575" y1="113.5" y2="113.5" /><rect fill="#bf7fbf" height="7" stroke="#400040" stroke-width="0.7" width="10" x="585" y="110" /><line stroke="#400040" stroke-width="0.5" x1="590.0" x2="590.0" y1="110" y2="117" /><line stroke="#400040" stroke-width="0.5" x1="585" x2="595" y1="113.5" y2="113.5" /><rect fill="#bf7fbf" height="7" stroke="#400040" stroke-width="0.7" width="10" x="545" y="124" /><line stroke="#400040" stroke-width="0.5" x1="550.0" x2="550.0" y1="124" y2="131" /><line stroke="#400040" stroke-width="0.5" x1="545" x2="555" y1="127.5" y2="127.5" /><rect fill="#bf7fbf" height="7" stroke="#400040" stroke-width="0.7" width="10" x="565" y="124" /><line stroke="#400040" stroke-width="0.5" x1="570.0" x2="570.0" y1="124" y2="131" /><line stroke="#400040" stroke-width="0.5" x1="565" x2="575" y1="127.5" y2="127.5" /><rect fill="#bf7fbf" height="7" stroke="#400040" stroke-width="0.7" width="10" x="585" y="124" /><line stroke="#400040" stroke-width="0.5" x1="590.0" x2="590.0" y1="124" y2="131" /><line stroke="#400040" stroke-width="0.5" x1="585" x2="595" y1="127.5" y2="127.5" /><rect fill="#400040" height="12" stroke="black" stroke-width="0.8" width="10" x="565.0" y="138" /><circle cx="572.5" cy="144.0" fill="#bf7fbf" r="1.2" /></g><g id="color6"><rect fill="url(#gradient-color6)" height="46" rx="2" ry="2" stroke="black" stroke-width="1.2" width="64" x="658" y="104" /><polygon fill="#007f7f" points="654,104 690.0,94 726,104" stroke="black" stroke-width="1.0" /><rect fill="#7fffff" height="7" stroke="#007f7f" stroke-width="0.7" width="10" x="665" y="110" /><line stroke="#007f7f" stroke-width="0.5" x1="670.0" x2="670.0" y1="110" y2="117" /><line stroke="#007f7f" stroke-width="0.5" x1="665" x2="675" y1="113.5" y2="113.5" /><rect fill="#7fffff" height="7" stroke="#007f7f" stroke-width="0.7" width="10" x="685" y="110" /><line stroke="#007f7f" stroke-width="0.5" x1="690.0" x2="690.0" y1="110" y2="117" /><line stroke="#007f7f" stroke-width="0.5" x1="685" x2="695" y1="113.5" y2="113.5" /><rect fill="#7fffff" height="7" stroke="#007f7f" stroke-width="0.7" width="10" x="705" y="110" /><line stroke="#007f7f" stroke-width="0.5" x1="710.0" x2="710.0" y1="110" y2="117" /><line stroke="#007f7f" stroke-width="0.5" x1="705" x2="715" y1="113.5" y2="113.5" /><rect fill="#7fffff" height="7" stroke="#007f7f" stroke-width="0.7" width="10" x="665" y="124" /><line stroke="#007f7f" stroke-width="0.5" x1="670.0" x2="670.0" y1="124" y2="131" /><line stroke="#007f7f" stroke-width="0.5" x1="665" x2="675" y1="127.5" y2="127.5" /><rect fill="#7fffff" height="7" stroke="#007f7f" stroke-width="0.7" width="10" x="685" y="124" /><line stroke="#007f7f" stroke-width="0.5" x1="690.0" x2="690.0" y1="124" y2="131" /><line stroke="#007f7f" stroke-width="0.5" x1="685" x2="695" y1="127.5" y2="127.5" /><rect fill="#7fffff" height="7" stroke="#007f7f" stroke-width="0.7" width="10" x="705" y="124" /><line stroke="#007f7f" stroke-width="0.5" x1="710.0" x2="710.0" y1="124" y2="131" /><line stroke="#007f7f" stroke-width="0.5" x1="705" x2="715" y1="127.5" y2="127.5" /><rect fill="#007f7f" height="12" stroke="black" stroke-width="0.8" width="10" x="685.0" y="138" /><circle cx="692.5" cy="144.0" fill="#7fffff" r="1.2" /></g><g id="hex1"><rect fill="url(#gradient-hex1)" height="50" rx="4" ry="4" stroke="black" stroke-width="1.2" width="80" x="50" y="250" /><line stroke="#99341e" stroke-width="0.8" x1="52" x2="128" y1="266.6666666666667" y2="266.6666666666667" /><line stroke="#99341e" stroke-width="0.8" x1="52" x2="128" y1="283.3333333333333" y2="283.3333333333333" /><circle cx="118" cy="258.3333333333333" fill="#00cc44" r="2.5" stroke="#99341e" stroke-width="0.5" /><circle cx="110" cy="258.3333333333333" fill="#ffaa00" r="2.5" stroke="#99341e" stroke-width="0.5" /><circle cx="118" cy="275.0" fill="#00cc44" r="2.5" stroke="#99341e" stroke-width="0.5" /><circle cx="110" cy="275.0" fill="#ffaa00" r="2.5" stroke="#99341e" stroke-width="0.5" /><circle cx="118" cy="291.66666666666663" fill="#00cc44" r="2.5" stroke="#99341e" stroke-width="0.5" /><circle cx="110" cy="291.66666666666663" fill="#ffaa00" r="2.5" stroke="#99341e" stroke-width="0.5" /><line stroke="#99341e" stroke-width="0.6" x1="56" x2="68" y1="255.0" y2="255.0" /><line stroke="#99341e" stroke-width="0.6" x1="56" x2="68" y1="258.3333333333333" y2="258.3333333333333" /><line stroke="#99341e" stroke-width="0.6" x1="56" x2="68" y1="261.6666666666667" y2="261.6666666666667" /><line stroke="#99341e" stroke-width="0.6" x1="56" x2="68" y1="271.6666666666667" y2="271.6666666666667" /><line stroke="#99341e" stroke-width="0.6" x1="56" x2="68" y1="275.0" y2="275.0" /><line stroke="#99341e" stroke-width="0.6" x1="56" x2="68" y1="278.33333333333337" y2="278.33333333333337" /><line stroke="#99341e" stroke-width="0.6" x1="56" x2="68" y1="288.3333333333333" y2="288.3333333333333" /><line stroke="#99341e" stroke-width="0.6" x1="56" x2="68" y1="291.66666666666663" y2="291.66666666666663" /><line stroke="#99341e" stroke-width="0.6" x1="56" x2="68" y1="295.0" y2="295.0" /></g><g id="hex2"><rect fill="url(#gradient-hex2)" height="50" rx="4" ry="4" stroke="black" stroke-width="1.2" width="80" x="170" y="250" /><line stroke="#1f5b83" stroke-width="0.8" x1="172" x2="248" y1="266.6666666666667" y2="266.6666666666667" /><line stroke="#1f5b83" stroke-width="0.8" x1="172" x2="248" y1="283.3333333333333" y2="283.3333333333333" /><circle cx="238" cy="258.3333333333333" fill="#00cc44" r="2.5" stroke="#1f5b83" stroke-width="0.5" /><circle cx="230" cy="258.3333333333333" fill="#ffaa00" r="2.5" stroke="#1f5b83" stroke-width="0.5" /><circle cx="238" cy="275.0" fill="#00cc44" r="2.5" stroke="#1f5b83" stroke-width="0.5" /><circle cx="230" cy="275.0" fill="#ffaa00" r="2.5" stroke="#1f5b83" stroke-width="0.5" /><circle cx="238" cy="291.66666666666663" fill="#00cc44" r="2.5" stroke="#1f5b83" stroke-width="0.5" /><circle cx="230" cy="291.66666666666663" fill="#ffaa00" r="2.5" stroke="#1f5b83" stroke-width="0.5" /><line stroke="#1f5b83" stroke-width="0.6" x1="176" x2="188" y1="255.0" y2="255.0" /><line stroke="#1f5b83" stroke-width="0.6" x1="176" x2="188" y1="258.3333333333333" y2="258.3333333333333" /><line stroke="#1f5b83" stroke-width="0.6" x1="176" x2="188" y1="261.6666666666667" y2="261.6666666666667" /><line stroke="#1f5b83" stroke-width="0.6" x1="176" x2="188" y1="271.6666666666667" y2="271.6666666666667" /><line stroke="#1f5b83" stroke-width="0.6" x1="176" x2="188" y1="275.0" y2="275.0" /><line stroke="#1f5b83" stroke-width="0.6" x1="176" x2="188" y1="278.33333333333337" y2="278.33333333333337" /><line stroke="#1f5b83" stroke-width="0.6" x1="176" x2="188" y1="288.3333333333333" y2="288.3333333333333" /><line stroke="#1f5b83" stroke-width="0.6" x1="176" x2="188" y1="291.66666666666663" y2="291.66666666666663" /><line stroke="#1f5b83" stroke-width="0.6" x1="176" x2="188" y1="295.0" y2="295.0" /></g><g id="hex3"><rect fill="url(#gradient-hex3)" height="50" rx="4" ry="4" stroke="black" stroke-width="1.2" width="80" x="290" y="250" /><line stroke="#1b7a43" stroke-width="0.8" x1="292" x2="368" y1="266.6666666666667" y2="266.6666666666667" /><line stroke="#1b7a43" stroke-width="0.8" x1="292" x2="368" y1="283.3333333333333" y2="283.3333333333333" /><circle cx="358" cy="258.3333333333333" fill="#00cc44" r="2.5" stroke="#1b7a43" stroke-width="0.5" /><circle cx="350" cy="258.3333333333333" fill="#ffaa00" r="2.5" stroke="#1b7a43" stroke-width="0.5" /><circle cx="358" cy="275.0" fill="#00cc44" r="2.5" stroke="#1b7a43" stroke-width="0.5" /><circle cx="350" cy="275.0" fill="#ffaa00" r="2.5" stroke="#1b7a43" stroke-width="0.5" /><circle cx="358" cy="291.66666666666663" fill="#00cc44" r="2.5" stroke="#1b7a43" stroke-width="0.5" /><circle cx="350" cy="291.66666666666663" fill="#ffaa00" r="2.5" stroke="#1b7a43" stroke-width="0.5" /><line stroke="#1b7a43" stroke-width="0.6" x1="296" x2="308" y1="255.0" y2="255.0" /><line stroke="#1b7a43" stroke-width="0.6" x1="296" x2="308" y1="258.3333333333333" y2="258.3333333333333" /><line stroke="#1b7a43" stroke-width="0.6" x1="296" x2="308" y1="261.6666666666667" y2="261.6666666666667" /><line stroke="#1b7a43" stroke-width="0.6" x1="296" x2="308" y1="271.6666666666667" y2="271.6666666666667" /><line stroke="#1b7a43" stroke-width="0.6" x1="296" x2="308" y1="275.0" y2="275.0" /><line stroke="#1b7a43" stroke-width="0.6" x1="296" x2="308" y1="278.33333333333337" y2="278.33333333333337" /><line stroke="#1b7a43" stroke-width="0.6" x1="296" x2="308" y1="288.3333333333333" y2="288.3333333333333" /><line stroke="#1b7a43" stroke-width="0.6" x1="296" x2="308" y1="291.66666666666663" y2="291.66666666666663" /><line stroke="#1b7a43" stroke-width="0.6" x1="296" x2="308" y1="295.0" y2="295.0" /></g><g id="hex4"><ellipse cx="450.0" cy="283.0" fill="url(#gradient-hex4)" rx="36.0" ry="11.0" stroke="#6c3e7f" stroke-width="0.8" /><circle cx="450.0" cy="271.0" fill="url(#gradient-hex4)" r="17.0" stroke="#6c3e7f" stroke-width="0.8" /><circle cx="436.0" cy="277.0" fill="url(#gradient-hex4)" r="13.0" stroke="#6c3e7f" stroke-width="0.8" /><circle cx="464.0" cy="277.0" fill="url(#gradient-hex4)" r="13.0" stroke="#6c3e7f" stroke-width="0.8" /><ellipse cx="450.0" cy="279.0" fill="url(#gradient-hex4)" rx="30.4" ry="14.000000000000002" stroke="none" /></g><g id="hex5"><ellipse cx="570.0" cy="283.0" fill="url(#gradient-hex5)" rx="36.0" ry="11.0" stroke="#a1352a" stroke-width="0.8" /><circle cx="570.0" cy="271.0" fill="url(#gradient-hex5)" r="17.0" stroke="#a1352a" stroke-width="0.8" /><circle cx="556.0" cy="277.0" fill="url(#gradient-hex5)" r="13.0" stroke="#a1352a" stroke-width="0.8" /><circle cx="584.0" cy="277.0" fill="url(#gradient-hex5)" r="13.0" stroke="#a1352a" stroke-width="0.8" /><ellipse cx="570.0" cy="279.0" fill="url(#gradient-hex5)" rx="30.4" ry="14.000000000000002" stroke="none" /></g><g id="hex6"><ellipse cx="690.0" cy="283.0" fill="url(#gradient-hex6)" rx="36.0" ry="11.0" stroke="#12836d" stroke-width="0.8" /><circle cx="690.0" cy="271.0" fill="url(#gradient-hex6)" r="17.0" stroke="#12836d" stroke-width="0.8" /><circle cx="676.0" cy="277.0" fill="url(#gradient-hex6)" r="13.0" stroke="#12836d" stroke-width="0.8" /><circle cx="704.0" cy="277.0" fill="url(#gradient-hex6)" r="13.0" stroke="#12836d" stroke-width="0.8" /><ellipse cx="690.0" cy="279.0" fill="url(#gradient-hex6)" rx="30.4" ry="14.000000000000002" stroke="none" /></g><text fill="black" filter="url(#text-glow)" font-family="Arial, sans-serif" font-size="14px" text-anchor="middle" x="90.0" y="171.0">lightgreen</text><text fill="black" filter="url(#text-glow)" font-family="Arial, sans-serif" font-size="14px" text-anchor="middle" x="210.0" y="171.0">gold</text><text fill="black" filter="url(#text-glow)" font-family="Arial, sans-serif" font-size="14px" text-anchor="middle" x="330.0" y="171.0">tomato</text><text fill="black" filter="url(#text-glow)" font-family="Arial, sans-serif" font-size="14px" text-anchor="middle" x="450.0" y="171.0">lightblue</text><text fill="black" filter="url(#text-glow)" font-family="Arial, sans-serif" font-size="14px" text-anchor="middle" x="570.0" y="171.0">purple</text><text fill="black" filter="url(#text-glow)" font-family="Arial, sans-serif" font-size="14px" text-anchor="middle" x="690.0" y="171.0">cyan</text><text fill="black" filter="url(#text-glow)" font-family="Arial, sans-serif" font-size="14px" text-anchor="middle" x="90.0" y="321.0">#FF5733</text><text fill="black" filter="url(#text-glow)" font-family="Arial, sans-serif" font-size="14px" text-anchor="middle" x="90.0" y="339.0">(hex)</text><text fill="black" filter="url(#text-glow)" font-family="Arial, sans-serif" font-size="14px" text-anchor="middle" x="210.0" y="321.0">#3498DB</text><text fill="black" filter="url(#text-glow)" font-family="Arial, sans-serif" font-size="14px" text-anchor="middle" x="210.0" y="339.0">(hex)</text><text fill="black" filter="url(#text-glow)" font-family="Arial, sans-serif" font-size="14px" text-anchor="middle" x="330.0" y="321.0">#2ECC71</text><text fill="black" filter="url(#text-glow)" font-family="Arial, sans-serif" font-size="14px" text-anchor="middle" x="330.0" y="339.0">(hex)</text><text fill="black" filter="url(#text-glow)" font-family="Arial, sans-serif" font-size="14px" text-anchor="middle" x="450.0" y="321.0">#9B59B6</text><text fill="black" filter="url(#text-glow)" font-family="Arial, sans-serif" font-size="14px" text-anchor="middle" x="450.0" y="339.0">(hex)</text><text fill="black" filter="url(#text-glow)" font-family="Arial, sans-serif" font-size="14px" text-anchor="middle" x="570.0" y="321.0">#E74C3C</text><text fill="black" filter="url(#text-glow)" font-family="Arial, sans-serif" font-size="14px" text-anchor="middle" x="570.0" y="339.0">(hex)</text><text fill="black" filter="url(#text-glow)" font-family="Arial, sans-serif" font-size="14px" text-anchor="middle" x="690.0" y="321.0">#1ABC9C</text><text fill="black" filter="url(#text-glow)" font-family="Arial, sans-serif" font-size="14px" text-anchor="middle" x="690.0" y="339.0">(hex)</text></svg>