<?xml version="1.0" encoding="utf-8" ?>
<svg baseProfile="full" height="320.0" version="1.1" viewBox="0,0,5710.0,320.0" width="5710.0" xmlns="http://www.w3.org/2000/svg" xmlns:ev="http://www.w3.org/2001/xml-events" xmlns:xlink="http://www.w3.org/1999/xlink"><defs><marker id="arrow-end" markerHeight="10" markerWidth="10" orient="auto" refX="10" refY="5"><path d="M 0 0 L 10 5 L 0 10 z" fill="black" /></marker><marker id="arrow-start" markerHeight="10" markerWidth="10" orient="auto" refX="0" refY="5"><path d="M 10 0 L 0 5 L 10 10 z" fill="black" /></marker><marker id="circle-start" markerHeight="10" markerWidth="10" orient="auto" refX="5" refY="5"><circle cx="5" cy="5" fill="black" r="4" /></marker><marker id="circle-end" markerHeight="10" markerWidth="10" orient="auto" refX="5" refY="5"><circle cx="5" cy="5" fill="black" r="4" /></marker><linearGradient id="gradient-color1" x1="0%" x2="0%" y1="0%" y2="100%"><stop offset="0%" stop-color="#b1f3b1" /><stop offset="100%" stop-color="#64a664" /></linearGradient><linearGradient id="gradient-color2" x1="0%" x2="0%" y1="0%" y2="100%"><stop offset="0%" stop-color="#ffe34c" /><stop offset="100%" stop-color="#b29600" /></linearGradient><linearGradient id="gradient-color3" x1="0%" x2="0%" y1="0%" y2="100%"><stop offset="0%" stop-color="#ff917e" /><stop offset="100%" stop-color="#b24531" /></linearGradient><linearGradient id="gradient-color4" x1="0%" x2="0%" y1="0%" y2="100%"><stop offset="0%" stop-color="#c5e3ed" /><stop offset="100%" stop-color="#7997a1" /></linearGradient><linearGradient id="gradient-color5" x1="0%" x2="0%" y1="0%" y2="100%"><stop offset="0%" stop-color="#a64ca6" /><stop offset="100%" stop-color="#590059" /></linearGradient><linearGradient id="gradient-color6" x1="0%" x2="0%" y1="0%" y2="100%"><stop offset="0%" stop-color="#4cffff" /><stop offset="100%" stop-color="#00b2b2" /></linearGradient><linearGradient id="gradient-hex1" x1="0%" x2="0%" y1="0%" y2="100%"><stop offset="0%" stop-color="#ff8970" /><stop offset="100%" stop-color="#b23c23" /></linearGradient><linearGradient id="gradient-hex2" x1="0%" x2="0%" y1="0%" y2="100%"><stop offset="0%" stop-color="#70b6e5" /><stop offset="100%" stop-color="#246a99" /></linearGradient><linearGradient id="gradient-hex3" x1="0%" x2="0%" y1="0%" y2="100%"><stop offset="0%" stop-color="#6cdb9b" /><stop offset="100%" stop-color="#208e4f" /></linearGradient><linearGradient id="gradient-hex4" x1="0%" x2="0%" y1="0%" y2="100%"><stop offset="0%" stop-color="#b98acb" /><stop offset="100%" stop-color="#6c3e7f" /></linearGradient><linearGradient id="gradient-hex5" x1="0%" x2="0%" y1="0%" y2="100%"><stop offset="0%" stop-color="#ee8176" /><stop offset="100%" stop-color="#a1352a" /></linearGradient><linearGradient id="gradient-hex6" x1="0%" x2="0%" y1="0%" y2="100%"><stop offset="0%" stop-color="#5ed0b9" /><stop offset="100%" stop-color="#12836d" /></linearGradient></defs><g id="color1"><g transform="translate(1070.0,30.0) scale(1.2048192771084338,0.6928406466512702) translate(-0.9,-1.4)"><path d="M 22.754087,32.116749 0.94545599,43.000013 V 4.7289739 L 22.754087,1.5702876 Z" fill="#e9e9ff" stroke="none" /><path d="M 50.712576,33.120864 V 1.4628125 L 22.754087,1.5702876 V 32.116749 Z" fill="#353564" stroke="none" /><path d="M 50.712576,33.120864 35.295871,44.770537 0.94545599,43.000013 22.754087,32.116749 Z" fill="#4d4d9f" stroke="none" /><path d="M 50.712576,1.4628125 35.295871,4.7384198 0.94545599,4.7289739 22.754087,1.5702876 Z" fill="#1c1ce6" opacity="1" stroke="none" /><path d="M 35.295871,44.770537 V 4.7384198 L 0.94545599,4.7289739 V 43.000013 Z" fill="#1a52ff" opacity="0.96" stroke="none" /><path d="M 50.712576,33.120864 35.295871,44.770537 V 4.7384198 L 50.712576,1.4628125 Z" fill="#1c9bd0" stroke="none" /><rect fill="none" height="43.3" opacity="0.67" stroke="#cbcbcb" stroke-width="0.48" width="49.8" x="0.9" y="1.4" /></g></g><g id="color2"><g transform="translate(1550.0,30.0) scale(1.2048192771084338,0.6928406466512702) translate(-0.9,-1.4)"><path d="M 22.754087,32.116749 0.94545599,43.000013 V 4.7289739 L 22.754087,1.5702876 Z" fill="#e9e9ff" stroke="none" /><path d="M 50.712576,33.120864 V 1.4628125 L 22.754087,1.5702876 V 32.116749 Z" fill="#353564" stroke="none" /><path d="M 50.712576,33.120864 35.295871,44.770537 0.94545599,43.000013 22.754087,32.116749 Z" fill="#4d4d9f" stroke="none" /><path d="M 50.712576,1.4628125 35.295871,4.7384198 0.94545599,4.7289739 22.754087,1.5702876 Z" fill="#1c1ce6" opacity="1" stroke="none" /><path d="M 35.295871,44.770537 V 4.7384198 L 0.94545599,4.7289739 V 43.000013 Z" fill="#1a52ff" opacity="0.96" stroke="none" /><path d="M 50.712576,33.120864 35.295871,44.770537 V 4.7384198 L 50.712576,1.4628125 Z" fill="#1c9bd0" stroke="none" /><rect fill="none" height="43.3" opacity="0.67" stroke="#cbcbcb" stroke-width="0.48" width="49.8" x="0.9" y="1.4" /></g></g><g id="color3"><g transform="translate(590.0,30.0) scale(1.2048192771084338,0.6928406466512702) translate(-0.9,-1.4)"><path d="M 22.754087,32.116749 0.94545599,43.000013 V 4.7289739 L 22.754087,1.5702876 Z" fill="#e9e9ff" stroke="none" /><path d="M 50.712576,33.120864 V 1.4628125 L 22.754087,1.5702876 V 32.116749 Z" fill="#353564" stroke="none" /><path d="M 50.712576,33.120864 35.295871,44.770537 0.94545599,43.000013 22.754087,32.116749 Z" fill="#4d4d9f" stroke="none" /><path d="M 50.712576,1.4628125 35.295871,4.7384198 0.94545599,4.7289739 22.754087,1.5702876 Z" fill="#1c1ce6" opacity="1" stroke="none" /><path d="M 35.295871,44.770537 V 4.7384198 L 0.94545599,4.7289739 V 43.000013 Z" fill="#1a52ff" opacity="0.96" stroke="none" /><path d="M 50.712576,33.120864 35.295871,44.770537 V 4.7384198 L 50.712576,1.4628125 Z" fill="#1c9bd0" stroke="none" /><rect fill="none" height="43.3" opacity="0.67" stroke="#cbcbcb" stroke-width="0.48" width="49.8" x="0.9" y="1.4" /></g></g><g id="color4"><g transform="translate(2030.0,30.0) scale(1.2048192771084338,0.6928406466512702) translate(-0.9,-1.4)"><path d="M 22.754087,32.116749 0.94545599,43.000013 V 4.7289739 L 22.754087,1.5702876 Z" fill="#e9e9ff" stroke="none" /><path d="M 50.712576,33.120864 V 1.4628125 L 22.754087,1.5702876 V 32.116749 Z" fill="#353564" stroke="none" /><path d="M 50.712576,33.120864 35.295871,44.770537 0.94545599,43.000013 22.754087,32.116749 Z" fill="#4d4d9f" stroke="none" /><path d="M 50.712576,1.4628125 35.295871,4.7384198 0.94545599,4.7289739 22.754087,1.5702876 Z" fill="#1c1ce6" opacity="1" stroke="none" /><path d="M 35.295871,44.770537 V 4.7384198 L 0.94545599,4.7289739 V 43.000013 Z" fill="#1a52ff" opacity="0.96" stroke="none" /><path d="M 50.712576,33.120864 35.295871,44.770537 V 4.7384198 L 50.712576,1.4628125 Z" fill="#1c9bd0" stroke="none" /><rect fill="none" height="43.3" opacity="0.67" stroke="#cbcbcb" stroke-width="0.48" width="49.8" x="0.9" y="1.4" /></g></g><g id="color5"><g transform="translate(110.0,30.0) scale(1.2048192771084338,0.6928406466512702) translate(-0.9,-1.4)"><path d="M 22.754087,32.116749 0.94545599,43.000013 V 4.7289739 L 22.754087,1.5702876 Z" fill="#e9e9ff" stroke="none" /><path d="M 50.712576,33.120864 V 1.4628125 L 22.754087,1.5702876 V 32.116749 Z" fill="#353564" stroke="none" /><path d="M 50.712576,33.120864 35.295871,44.770537 0.94545599,43.000013 22.754087,32.116749 Z" fill="#4d4d9f" stroke="none" /><path d="M 50.712576,1.4628125 35.295871,4.7384198 0.94545599,4.7289739 22.754087,1.5702876 Z" fill="#1c1ce6" opacity="1" stroke="none" /><path d="M 35.295871,44.770537 V 4.7384198 L 0.94545599,4.7289739 V 43.000013 Z" fill="#1a52ff" opacity="0.96" stroke="none" /><path d="M 50.712576,33.120864 35.295871,44.770537 V 4.7384198 L 50.712576,1.4628125 Z" fill="#1c9bd0" stroke="none" /><rect fill="none" height="43.3" opacity="0.67" stroke="#cbcbcb" stroke-width="0.48" width="49.8" x="0.9" y="1.4" /></g></g><g id="color6"><g transform="translate(2510.0,30.0) scale(1.2048192771084338,0.6928406466512702) translate(-0.9,-1.4)"><path d="M 22.754087,32.116749 0.94545599,43.000013 V 4.7289739 L 22.754087,1.5702876 Z" fill="#e9e9ff" stroke="none" /><path d="M 50.712576,33.120864 V 1.4628125 L 22.754087,1.5702876 V 32.116749 Z" fill="#353564" stroke="none" /><path d="M 50.712576,33.120864 35.295871,44.770537 0.94545599,43.000013 22.754087,32.116749 Z" fill="#4d4d9f" stroke="none" /><path d="M 50.712576,1.4628125 35.295871,4.7384198 0.94545599,4.7289739 22.754087,1.5702876 Z" fill="#1c1ce6" opacity="1" stroke="none" /><path d="M 35.295871,44.770537 V 4.7384198 L 0.94545599,4.7289739 V 43.000013 Z" fill="#1a52ff" opacity="0.96" stroke="none" /><path d="M 50.712576,33.120864 35.295871,44.770537 V 4.7384198 L 50.712576,1.4628125 Z" fill="#1c9bd0" stroke="none" /><rect fill="none" height="43.3" opacity="0.67" stroke="#cbcbcb" stroke-width="0.48" width="49.8" x="0.9" y="1.4" /></g></g><rect fill="url(#gradient-hex1)" height="50" stroke="black" width="80" x="4900.0" y="20.0" /><rect fill="url(#gradient-hex2)" height="50" stroke="black" width="80" x="5380.0" y="20.0" /><rect fill="url(#gradient-hex3)" height="50" stroke="black" width="80" x="4420.0" y="20.0" /><ellipse cx="3500.0" cy="45.0" fill="url(#gradient-hex4)" rx="40.0" ry="25.0" stroke="black" /><ellipse cx="3020.0" cy="45.0" fill="url(#gradient-hex5)" rx="40.0" ry="25.0" stroke="black" /><ellipse cx="3980.0" cy="45.0" fill="url(#gradient-hex6)" rx="40.0" ry="25.0" stroke="black" /><text fill="black" font-family="Arial, sans-serif" font-size="14px" text-anchor="middle" x="1100.0" y="91.0">lightgreen</text><text fill="black" font-family="Arial, sans-serif" font-size="14px" text-anchor="middle" x="1580.0" y="91.0">gold</text><text fill="black" font-family="Arial, sans-serif" font-size="14px" text-anchor="middle" x="620.0" y="91.0">tomato</text><text fill="black" font-family="Arial, sans-serif" font-size="14px" text-anchor="middle" x="2060.0" y="91.0">lightblue</text><text fill="black" font-family="Arial, sans-serif" font-size="14px" text-anchor="middle" x="140.0" y="91.0">purple</text><text fill="black" font-family="Arial, sans-serif" font-size="14px" text-anchor="middle" x="2540.0" y="91.0">cyan</text><text fill="black" font-family="Arial, sans-serif" font-size="14px" text-anchor="middle" x="4940.0" y="91.0">#FF5733</text><text fill="black" font-family="Arial, sans-serif" font-size="14px" text-anchor="middle" x="4940.0" y="109.0">(hex)</text><text fill="black" font-family="Arial, sans-serif" font-size="14px" text-anchor="middle" x="5420.0" y="91.0">#3498DB</text><text fill="black" font-family="Arial, sans-serif" font-size="14px" text-anchor="middle" x="5420.0" y="109.0">(hex)</text><text fill="black" font-family="Arial, sans-serif" font-size="14px" text-anchor="middle" x="4460.0" y="91.0">#2ECC71</text><text fill="black" font-family="Arial, sans-serif" font-size="14px" text-anchor="middle" x="4460.0" y="109.0">(hex)</text><text fill="black" font-family="Arial, sans-serif" font-size="14px" text-anchor="middle" x="3500.0" y="91.0">#9B59B6</text><text fill="black" font-family="Arial, sans-serif" font-size="14px" text-anchor="middle" x="3500.0" y="109.0">(hex)</text><text fill="black" font-family="Arial, sans-serif" font-size="14px" text-anchor="middle" x="3020.0" y="91.0">#E74C3C</text><text fill="black" font-family="Arial, sans-serif" font-size="14px" text-anchor="middle" x="3020.0" y="109.0">(hex)</text><text fill="black" font-family="Arial, sans-serif" font-size="14px" text-anchor="middle" x="3980.0" y="91.0">#1ABC9C</text><text fill="black" font-family="Arial, sans-serif" font-size="14px" text-anchor="middle" x="3980.0" y="109.0">(hex)</text></svg>