<?xml version="1.0" encoding="utf-8" ?>
<svg baseProfile="full" height="1100" version="1.1" viewBox="0,0,1400,1100" width="1400" xmlns="http://www.w3.org/2000/svg" xmlns:ev="http://www.w3.org/2001/xml-events" xmlns:xlink="http://www.w3.org/1999/xlink"><defs><marker id="arrow-end" markerHeight="10" markerWidth="10" orient="auto" refX="10" refY="5"><path d="M 0 0 L 10 5 L 0 10 z" fill="black" /></marker><marker id="arrow-start" markerHeight="10" markerWidth="10" orient="auto" refX="0" refY="5"><path d="M 10 0 L 0 5 L 10 10 z" fill="black" /></marker><linearGradient id="gradient-layout_container" x1="0%" x2="0%" y1="0%" y2="100%"><stop offset="0%" stop-color="#eeeeff" /><stop offset="100%" stop-color="#a2a2b2" /></linearGradient><linearGradient id="gradient-layout_container_icon" x1="0%" x2="0%" y1="0%" y2="100%"><stop offset="0%" stop-color="#eeeeff" /><stop offset="100%" stop-color="#a2a2b2" /></linearGradient><linearGradient id="gradient-routing_container" x1="0%" x2="0%" y1="0%" y2="100%"><stop offset="0%" stop-color="#ffeeee" /><stop offset="100%" stop-color="#b2a2a2" /></linearGradient><linearGradient id="gradient-routing_container_icon" x1="0%" x2="0%" y1="0%" y2="100%"><stop offset="0%" stop-color="#ffeeee" /><stop offset="100%" stop-color="#b2a2a2" /></linearGradient><linearGradient id="gradient-analysis_container" x1="0%" x2="0%" y1="0%" y2="100%"><stop offset="0%" stop-color="#fffaee" /><stop offset="100%" stop-color="#b2ada2" /></linearGradient><linearGradient id="gradient-analysis_container_icon" x1="0%" x2="0%" y1="0%" y2="100%"><stop offset="0%" stop-color="#fffaee" /><stop offset="100%" stop-color="#b2ada2" /></linearGradient><linearGradient id="gradient-draw_container" x1="0%" x2="0%" y1="0%" y2="100%"><stop offset="0%" stop-color="#f4eeff" /><stop offset="100%" stop-color="#a8a2b2" /></linearGradient><linearGradient id="gradient-draw_container_icon" x1="0%" x2="0%" y1="0%" y2="100%"><stop offset="0%" stop-color="#f4eeff" /><stop offset="100%" stop-color="#a8a2b2" /></linearGradient><linearGradient id="gradient-input" x1="0%" x2="0%" y1="0%" y2="100%"><stop offset="0%" stop-color="#c5e3ed" /><stop offset="100%" stop-color="#7997a1" /></linearGradient><linearGradient id="gradient-main" x1="0%" x2="0%" y1="0%" y2="100%"><stop offset="0%" stop-color="#b1f3b1" /><stop offset="100%" stop-color="#64a664" /></linearGradient><linearGradient id="gradient-generator" x1="0%" x2="0%" y1="0%" y2="100%"><stop offset="0%" stop-color="#ffe34c" /><stop offset="100%" stop-color="#b29600" /></linearGradient><linearGradient id="gradient-svgwrite" x1="0%" x2="0%" y1="0%" y2="100%"><stop offset="0%" stop-color="#4cffff" /><stop offset="100%" stop-color="#00b2b2" /></linearGradient><linearGradient id="gradient-layout" x1="0%" x2="0%" y1="0%" y2="100%"><stop offset="0%" stop-color="#a6a6a6" /><stop offset="100%" stop-color="#595959" /></linearGradient><linearGradient id="gradient-sizing" x1="0%" x2="0%" y1="0%" y2="100%"><stop offset="0%" stop-color="#a6a6a6" /><stop offset="100%" stop-color="#595959" /></linearGradient><linearGradient id="gradient-positioner" x1="0%" x2="0%" y1="0%" y2="100%"><stop offset="0%" stop-color="#a6a6a6" /><stop offset="100%" stop-color="#595959" /></linearGradient><linearGradient id="gradient-optimizer" x1="0%" x2="0%" y1="0%" y2="100%"><stop offset="0%" stop-color="#ff917e" /><stop offset="100%" stop-color="#b24531" /></linearGradient><linearGradient id="gradient-router_mgr" x1="0%" x2="0%" y1="0%" y2="100%"><stop offset="0%" stop-color="#ff9797" /><stop offset="100%" stop-color="#b24a4a" /></linearGradient><linearGradient id="gradient-routers" x1="0%" x2="0%" y1="0%" y2="100%"><stop offset="0%" stop-color="#ffbca1" /><stop offset="100%" stop-color="#b27055" /></linearGradient><linearGradient id="gradient-geometry" x1="0%" x2="0%" y1="0%" y2="100%"><stop offset="0%" stop-color="#ffc04c" /><stop offset="100%" stop-color="#b27300" /></linearGradient><linearGradient id="gradient-graph" x1="0%" x2="0%" y1="0%" y2="100%"><stop offset="0%" stop-color="#a6a6a6" /><stop offset="100%" stop-color="#595959" /></linearGradient><linearGradient id="gradient-collision" x1="0%" x2="0%" y1="0%" y2="100%"><stop offset="0%" stop-color="#a6a6a6" /><stop offset="100%" stop-color="#595959" /></linearGradient><linearGradient id="gradient-render" x1="0%" x2="0%" y1="0%" y2="100%"><stop offset="0%" stop-color="#a64ca6" /><stop offset="100%" stop-color="#590059" /></linearGradient><linearGradient id="gradient-icons" x1="0%" x2="0%" y1="0%" y2="100%"><stop offset="0%" stop-color="#a64ca6" /><stop offset="100%" stop-color="#590059" /></linearGradient><linearGradient id="gradient-connections" x1="0%" x2="0%" y1="0%" y2="100%"><stop offset="0%" stop-color="#ffc04c" /><stop offset="100%" stop-color="#b27300" /></linearGradient><linearGradient id="gradient-labels" x1="0%" x2="0%" y1="0%" y2="100%"><stop offset="0%" stop-color="#ffd2da" /><stop offset="100%" stop-color="#b2868e" /></linearGradient><linearGradient id="gradient-containers" x1="0%" x2="0%" y1="0%" y2="100%"><stop offset="0%" stop-color="#a6a6a6" /><stop offset="100%" stop-color="#595959" /></linearGradient><linearGradient id="gradient-output" x1="0%" x2="0%" y1="0%" y2="100%"><stop offset="0%" stop-color="#b1f3b1" /><stop offset="100%" stop-color="#64a664" /></linearGradient></defs><rect fill="url(#gradient-layout_container)" height="223" opacity="0.3" rx="11.15" ry="11.15" stroke="black" stroke-width="2" width="246" x="460.0" y="20" /><rect fill="url(#gradient-layout_container_icon)" height="50" stroke="black" width="80" x="470.0" y="20" /><rect fill="url(#gradient-routing_container)" height="153" opacity="0.3" rx="7.65" ry="7.65" stroke="black" stroke-width="2" width="222" x="700.0" y="20" /><rect fill="url(#gradient-routing_container_icon)" height="50" stroke="black" width="80" x="710.0" y="20" /><rect fill="url(#gradient-analysis_container)" height="223" opacity="0.3" rx="11.15" ry="11.15" stroke="black" stroke-width="2" width="230" x="820.0" y="20" /><rect fill="url(#gradient-analysis_container_icon)" height="50" stroke="black" width="80" x="830.0" y="20" /><rect fill="url(#gradient-draw_container)" height="223" opacity="0.3" rx="10.0" ry="10.0" stroke="black" stroke-width="2" width="200" x="940.0" y="20" /><rect fill="url(#gradient-draw_container_icon)" height="50" stroke="black" width="80" x="950.0" y="20" /><rect fill="url(#gradient-input)" height="30.0" stroke="black" width="60.0" x="590.0" y="681.5" /><rect fill="url(#gradient-main)" height="50" stroke="black" width="80" x="640.0" y="671.5" /><rect fill="url(#gradient-generator)" height="50" stroke="black" width="80" x="700.0" y="671.5" /><ellipse cx="740.0" cy="696.5" fill="url(#gradient-svgwrite)" rx="40.0" ry="25.0" stroke="black" /><rect fill="url(#gradient-layout)" height="50" stroke="black" width="80" x="470.0" y="80" /><rect fill="url(#gradient-sizing)" height="30.0" stroke="black" width="60.0" x="580.0" y="90.0" /><rect fill="url(#gradient-positioner)" height="30.0" stroke="black" width="60.0" x="480.0" y="160.0" /><rect fill="url(#gradient-optimizer)" height="50" stroke="black" width="80" x="700.0" y="671.5" /><rect fill="url(#gradient-router_mgr)" height="50" stroke="black" width="80" x="710.0" y="80" /><ellipse cx="850.0" cy="105.0" fill="url(#gradient-routers)" rx="40.0" ry="25.0" stroke="black" /><rect fill="url(#gradient-geometry)" height="30.0" stroke="black" width="60.0" x="840.0" y="90.0" /><rect fill="url(#gradient-graph)" height="30.0" stroke="black" width="60.0" x="940.0" y="90.0" /><rect fill="url(#gradient-collision)" height="30.0" stroke="black" width="60.0" x="840.0" y="160.0" /><rect fill="url(#gradient-render)" height="50" stroke="black" width="80" x="760.0" y="671.5" /><rect fill="url(#gradient-icons)" height="30.0" stroke="black" width="60.0" x="960.0" y="90.0" /><rect fill="url(#gradient-connections)" height="30.0" stroke="black" width="60.0" x="1060.0" y="90.0" /><rect fill="url(#gradient-labels)" height="30.0" stroke="black" width="60.0" x="960.0" y="160.0" /><rect fill="url(#gradient-containers)" height="30.0" stroke="black" width="60.0" x="1060.0" y="160.0" /><rect fill="url(#gradient-output)" height="30.0" stroke="black" width="60.0" x="830.0" y="681.5" /><line marker-end="url(#arrow-end)" stroke="black" stroke-width="2" x1="651.7528920548374" x2="648.2471079451626" y1="700.0308884931453" y2="700.4691115068547" /><line marker-end="url(#arrow-end)" stroke="black" stroke-width="2" x1="711.5283817513492" x2="720.4716182486508" y1="701.973677387387" y2="703.526322612613" /><path d="M 729.8389814979291,685.9156057270095 C 750.5,702.4333333333334 746.5,698.2666666666667 767.7012731275886,725.3554928412381" fill="none" marker-end="url(#arrow-end)" stroke="black" stroke-width="2" /><polyline fill="none" marker-end="url(#arrow-end)" points="752.0,677.0 752.0,409.5 510.0,409.5 510.0,142.0" stroke="black" stroke-width="2" /><polyline fill="none" marker-end="url(#arrow-end)" points="542.0,110.0 560.0,110.0 560.0,105.0 578.0,105.0" stroke="black" stroke-width="2" /><polyline fill="none" marker-end="url(#arrow-end)" points="510.0,142.0 510.0,143.0" stroke="black" stroke-width="2" /><line marker-end="url(#arrow-end)" stroke="black" stroke-width="2" x1="522.1950333940433" x2="747.8049666059567" y1="139.58515101394903" y2="686.914848986051" /><polyline fill="none" marker-end="url(#arrow-end)" points="760.0,684.5 760.0,413.25 750.0,413.25 750.0,142.0" stroke="black" stroke-width="2" /><polyline fill="none" marker-end="url(#arrow-end)" points="782.0,110.0 800.0,110.0 800.0,112.5 810.0,112.5" stroke="black" stroke-width="2" /><polyline fill="none" marker-end="url(#arrow-end)" points="760.0,684.5 760.0,410.75 870.0,410.75 870.0,137.0" stroke="black" stroke-width="2" /><path d="M 770.393561238094,686.2349395376452 C 982.875,565.1666666666666 1052.875,361.3333333333333 959.606438761906,135.26506046235477" fill="none" marker-end="url(#arrow-end)" stroke="black" stroke-width="2" /><path d="M 766.370352088591,685.1404940366181 C 932.0416666666666,563.5 968.7083333333334,383.0 863.629647911409,206.3595059633819" fill="none" marker-end="url(#arrow-end)" stroke="black" stroke-width="2" /><polyline fill="none" marker-end="url(#arrow-end)" points="870.0,143.0 870.0,137.0" stroke="black" stroke-width="2" /><path d="M 642.0,105.0 C 696.6666666666666,183.0 783.3333333333334,183.0 838.0,105.0" fill="none" marker-end="url(#arrow-end)" stroke="black" stroke-width="2" /><line marker-end="url(#arrow-end)" stroke="black" stroke-width="2" x1="791.4519099818983" x2="768.5480900181017" y1="710.602766878394" y2="714.897233121606" /><polyline fill="none" marker-end="url(#arrow-end)" points="800.0,677.0 800.0,407.0 990.0,407.0 990.0,137.0" stroke="black" stroke-width="2" /><polyline fill="none" marker-end="url(#arrow-end)" points="800.0,677.0 800.0,410.75 1090.0,410.75 1090.0,144.5" stroke="black" stroke-width="2" /><polyline fill="none" marker-end="url(#arrow-end)" points="800.0,677.0 800.0,442.0 990.0,442.0 990.0,207.0" stroke="black" stroke-width="2" /><polyline fill="none" marker-end="url(#arrow-end)" points="800.0,677.0 800.0,442.0 1090.0,442.0 1090.0,207.0" stroke="black" stroke-width="2" /><path d="M 1058.0008650168274,112.26471224277078 C 977.5416666666666,-7.333333333333314 864.2083333333334,-8.166666666666657 781.9991349831726,110.23528775722922" fill="none" marker-end="url(#arrow-end)" stroke="black" stroke-width="2" /><polyline fill="none" marker-end="url(#arrow-end)" points="990.0,137.0 990.0,404.5 860.0,404.5 860.0,672.0" stroke="black" stroke-width="2" /><polyline fill="none" marker-end="url(#arrow-end)" points="1090.0,144.5 1090.0,408.25 860.0,408.25 860.0,672.0" stroke="black" stroke-width="2" /><polyline fill="none" marker-end="url(#arrow-end)" points="990.0,207.0 990.0,439.5 860.0,439.5 860.0,672.0" stroke="black" stroke-width="2" /><polyline fill="none" marker-end="url(#arrow-end)" points="1090.0,207.0 1090.0,439.5 860.0,439.5 860.0,672.0" stroke="black" stroke-width="2" /><path d="M 900.0,716.0 A 70,70 0 0,1 900.0,692.0" fill="none" marker-end="url(#arrow-end)" stroke="black" stroke-width="2" /><text fill="black" font-family="Arial, sans-serif" font-size="14px" text-anchor="end" x="567.4" y="696.5">archivo.gag
(JSON SDJF v3.0)</text><text fill="black" font-family="Arial, sans-serif" font-size="14px" text-anchor="middle" x="680.0" y="650.5">main.py
(CLI)</text><text fill="black" font-family="Arial, sans-serif" font-size="14px" text-anchor="middle" x="740.0" y="742.5">generator.py
(orquestador)</text><text fill="black" font-family="Arial, sans-serif" font-size="14px" text-anchor="middle" x="740.0" y="742.5">svgwrite
(librería externa)</text><text fill="black" font-family="Arial, sans-serif" font-size="14px" text-anchor="end" x="457.4" y="105.0">Layout
Patrón Inmutable</text><text fill="black" font-family="Arial, sans-serif" font-size="14px" text-anchor="middle" x="610.0" y="151.0">SizingCalculator
hp/wp (v3.0)</text><text fill="black" font-family="Arial, sans-serif" font-size="14px" text-anchor="end" x="457.4" y="175.0">AutoLayoutPositioner
Layout jerárquico</text><text fill="black" font-family="Arial, sans-serif" font-size="14px" text-anchor="middle" x="740.0" y="742.5">AutoLayoutOptimizer
v3.0 Jerárquico</text><text fill="black" font-family="Arial, sans-serif" font-size="14px" text-anchor="middle" x="750.0" y="151.0">RouterManager
Coordinador</text><text fill="black" font-family="Arial, sans-serif" font-size="14px" text-anchor="middle" x="850.0" y="59.0">5 Routers
straight/orthogonal
bezier/arc/manual</text><text fill="black" font-family="Arial, sans-serif" font-size="14px" text-anchor="middle" x="870.0" y="59.0">GeometryCalculator
bboxes
intersecciones</text><text fill="black" font-family="Arial, sans-serif" font-size="14px" text-anchor="start" x="1022.6" y="105.0">GraphAnalyzer
topología (v3.0)
niveles
grupos</text><text fill="black" font-family="Arial, sans-serif" font-size="14px" text-anchor="end" x="817.4" y="175.0">CollisionDetector
detect_all()
count()</text><text fill="black" font-family="Arial, sans-serif" font-size="14px" text-anchor="middle" x="800.0" y="742.5">Renderizado SVG
(3 fases secuenciales)</text><text fill="black" font-family="Arial, sans-serif" font-size="14px" text-anchor="middle" x="990.0" y="59.0">icons.py
Fase 1: Shapes
4 tipos + BWT</text><text fill="black" font-family="Arial, sans-serif" font-size="14px" text-anchor="start" x="1142.6" y="105.0">connections.py
Fase 2: Lines
Routing types (v3.0)</text><text fill="black" font-family="Arial, sans-serif" font-size="14px" text-anchor="end" x="937.4" y="175.0">labels
Fase 3: Text
draw_*_label()</text><text fill="black" font-family="Arial, sans-serif" font-size="14px" text-anchor="start" x="1142.6" y="175.0">container.py
Agrupación visual
(v1.5)</text><text fill="black" font-family="Arial, sans-serif" font-size="14px" text-anchor="start" x="912.6" y="696.5">archivo.svg
(Salida vectorial)</text><text fill="gray" font-family="Arial, sans-serif" font-size="12px" text-anchor="middle" x="650.0" y="657.25">lee JSON</text><text fill="gray" font-family="Arial, sans-serif" font-size="12px" text-anchor="middle" x="716.0" y="745.75">generate_diagram()</text><text fill="gray" font-family="Arial, sans-serif" font-size="12px" text-anchor="start" x="799.5701273127588" y="748.6355492841237">Drawing()</text><text fill="gray" font-family="Arial, sans-serif" font-size="12px" text-anchor="end" x="580.2" y="409.5">Layout(...)</text><text fill="gray" font-family="Arial, sans-serif" font-size="12px" text-anchor="middle" x="560.0" y="64.5">usa</text><text fill="gray" font-family="Arial, sans-serif" font-size="12px" text-anchor="end" x="459.2" y="142.5">usa</text><text fill="gray" font-family="Arial, sans-serif" font-size="12px" text-anchor="end" x="584.2" y="370.25">optimize()</text><text fill="gray" font-family="Arial, sans-serif" font-size="12px" text-anchor="end" x="704.2" y="456.25">calculate_all_paths()
v3.0</text><text fill="gray" font-family="Arial, sans-serif" font-size="12px" text-anchor="middle" x="798.0" y="68.25">delega</text><text fill="gray" font-family="Arial, sans-serif" font-size="12px" text-anchor="middle" x="815.0" y="453.75">usa</text><text fill="gray" font-family="Arial, sans-serif" font-size="12px" text-anchor="middle" x="865.0" y="367.75">analyze()</text><text fill="gray" font-family="Arial, sans-serif" font-size="12px" text-anchor="end" x="764.2" y="402.75">evaluate()</text><text fill="gray" font-family="Arial, sans-serif" font-size="12px" text-anchor="middle" x="870.0" y="97.0">usa bboxes</text><text fill="gray" font-family="Arial, sans-serif" font-size="12px" text-anchor="end" x="689.2" y="62.0">calcula tamaños</text><text fill="gray" font-family="Arial, sans-serif" font-size="12px" text-anchor="start" x="830.8" y="712.75">layout optimizado</text><text fill="gray" font-family="Arial, sans-serif" font-size="12px" text-anchor="start" x="945.8" y="450.0">fase 1</text><text fill="gray" font-family="Arial, sans-serif" font-size="12px" text-anchor="start" x="995.8" y="410.75">fase 2</text><text fill="gray" font-family="Arial, sans-serif" font-size="12px" text-anchor="end" x="844.2" y="485.0">fase 3</text><text fill="gray" font-family="Arial, sans-serif" font-size="12px" text-anchor="start" x="995.8" y="485.0">si usa contains</text><text fill="gray" font-family="Arial, sans-serif" font-size="12px" text-anchor="start" x="970.8" y="68.25">lee computed_path</text><text fill="gray" font-family="Arial, sans-serif" font-size="12px" text-anchor="start" x="975.8" y="447.5">dwg.add()</text><text fill="gray" font-family="Arial, sans-serif" font-size="12px" text-anchor="start" x="1025.8" y="365.25">dwg.add()</text><text fill="gray" font-family="Arial, sans-serif" font-size="12px" text-anchor="end" x="874.2" y="439.5">dwg.add()</text><text fill="gray" font-family="Arial, sans-serif" font-size="12px" text-anchor="start" x="1025.8" y="482.5">dwg.add()</text><text fill="gray" font-family="Arial, sans-serif" font-size="12px" text-anchor="middle" x="970.0" y="661.0">dwg.save()</text><text fill="black" font-family="Arial, sans-serif" font-size="16px" font-weight="bold" text-anchor="start" x="560.0" y="36">Layout Module</text><text fill="black" font-family="Arial, sans-serif" font-size="16px" font-weight="bold" text-anchor="start" x="560.0" y="54">(jerárquico v3.0)</text><text fill="black" font-family="Arial, sans-serif" font-size="16px" font-weight="bold" text-anchor="start" x="800.0" y="36">Routing Module</text><text fill="black" font-family="Arial, sans-serif" font-size="16px" font-weight="bold" text-anchor="start" x="800.0" y="54">(v3.0)</text><text fill="black" font-family="Arial, sans-serif" font-size="16px" font-weight="bold" text-anchor="start" x="920.0" y="36">Analysis Module</text><text fill="black" font-family="Arial, sans-serif" font-size="16px" font-weight="bold" text-anchor="start" x="1040.0" y="36">Draw Module</text></svg>