<?xml version="1.0" encoding="utf-8" ?>
<svg baseProfile="full" height="4414.0" version="1.1" viewBox="0,0,2243.0,4414.0" width="2243.0" xmlns="http://www.w3.org/2000/svg" xmlns:ev="http://www.w3.org/2001/xml-events" xmlns:xlink="http://www.w3.org/1999/xlink"><defs><marker id="arrow-end" markerHeight="10" markerWidth="10" orient="auto" refX="10" refY="5"><path d="M 0 0 L 10 5 L 0 10 z" fill="black" /></marker><marker id="arrow-start" markerHeight="10" markerWidth="10" orient="auto" refX="0" refY="5"><path d="M 10 0 L 0 5 L 10 10 z" fill="black" /></marker><marker id="circle-start" markerHeight="10" markerWidth="10" orient="auto" refX="5" refY="5"><circle cx="5" cy="5" fill="black" r="4" /></marker><marker id="circle-end" markerHeight="10" markerWidth="10" orient="auto" refX="5" refY="5"><circle cx="5" cy="5" fill="black" r="4" /></marker><linearGradient id="gradient-layout_module-stage" x1="0%" x2="0%" y1="0%" y2="100%"><stop offset="0%" stop-color="#a6a6a6" /><stop offset="100%" stop-color="#595959" /></linearGradient><linearGradient id="gradient-laf_module-stage" x1="0%" x2="0%" y1="0%" y2="100%"><stop offset="0%" stop-color="#a6a6a6" /><stop offset="100%" stop-color="#595959" /></linearGradient><linearGradient id="gradient-routing_module-stage" x1="0%" x2="0%" y1="0%" y2="100%"><stop offset="0%" stop-color="#a6a6a6" /><stop offset="100%" stop-color="#595959" /></linearGradient><linearGradient id="gradient-analysis_module-stage" x1="0%" x2="0%" y1="0%" y2="100%"><stop offset="0%" stop-color="#a6a6a6" /><stop offset="100%" stop-color="#595959" /></linearGradient><linearGradient id="gradient-draw_module-stage" x1="0%" x2="0%" y1="0%" y2="100%"><stop offset="0%" stop-color="#a6a6a6" /><stop offset="100%" stop-color="#595959" /></linearGradient><linearGradient id="gradient-input" x1="0%" x2="0%" y1="0%" y2="100%"><stop offset="0%" stop-color="#a6a6a6" /><stop offset="100%" stop-color="#595959" /></linearGradient><linearGradient id="gradient-main" x1="0%" x2="0%" y1="0%" y2="100%"><stop offset="0%" stop-color="#a6a6a6" /><stop offset="100%" stop-color="#595959" /></linearGradient><linearGradient id="gradient-generator" x1="0%" x2="0%" y1="0%" y2="100%"><stop offset="0%" stop-color="#a6a6a6" /><stop offset="100%" stop-color="#595959" /></linearGradient><linearGradient id="gradient-svgwrite" x1="0%" x2="0%" y1="0%" y2="100%"><stop offset="0%" stop-color="#a6a6a6" /><stop offset="100%" stop-color="#595959" /></linearGradient><linearGradient id="gradient-layout" x1="0%" x2="0%" y1="0%" y2="100%"><stop offset="0%" stop-color="#a6a6a6" /><stop offset="100%" stop-color="#595959" /></linearGradient><linearGradient id="gradient-sizing" x1="0%" x2="0%" y1="0%" y2="100%"><stop offset="0%" stop-color="#a6a6a6" /><stop offset="100%" stop-color="#595959" /></linearGradient><linearGradient id="gradient-positioner" x1="0%" x2="0%" y1="0%" y2="100%"><stop offset="0%" stop-color="#a6a6a6" /><stop offset="100%" stop-color="#595959" /></linearGradient><linearGradient id="gradient-optimizer" x1="0%" x2="0%" y1="0%" y2="100%"><stop offset="0%" stop-color="#a6a6a6" /><stop offset="100%" stop-color="#595959" /></linearGradient><linearGradient id="gradient-laf_optimizer" x1="0%" x2="0%" y1="0%" y2="100%"><stop offset="0%" stop-color="#a6a6a6" /><stop offset="100%" stop-color="#595959" /></linearGradient><linearGradient id="gradient-label_position_optimizer" x1="0%" x2="0%" y1="0%" y2="100%"><stop offset="0%" stop-color="#a6a6a6" /><stop offset="100%" stop-color="#595959" /></linearGradient><linearGradient id="gradient-structure_analyzer" x1="0%" x2="0%" y1="0%" y2="100%"><stop offset="0%" stop-color="#a6a6a6" /><stop offset="100%" stop-color="#595959" /></linearGradient><linearGradient id="gradient-topology_viz" x1="0%" x2="0%" y1="0%" y2="100%"><stop offset="0%" stop-color="#a6a6a6" /><stop offset="100%" stop-color="#595959" /></linearGradient><linearGradient id="gradient-centrality_order" x1="0%" x2="0%" y1="0%" y2="100%"><stop offset="0%" stop-color="#a6a6a6" /><stop offset="100%" stop-color="#595959" /></linearGradient><linearGradient id="gradient-abstract_placer" x1="0%" x2="0%" y1="0%" y2="100%"><stop offset="0%" stop-color="#a6a6a6" /><stop offset="100%" stop-color="#595959" /></linearGradient><linearGradient id="gradient-inflator" x1="0%" x2="0%" y1="0%" y2="100%"><stop offset="0%" stop-color="#a6a6a6" /><stop offset="100%" stop-color="#595959" /></linearGradient><linearGradient id="gradient-container_grower" x1="0%" x2="0%" y1="0%" y2="100%"><stop offset="0%" stop-color="#a6a6a6" /><stop offset="100%" stop-color="#595959" /></linearGradient><linearGradient id="gradient-position_optimizer" x1="0%" x2="0%" y1="0%" y2="100%"><stop offset="0%" stop-color="#a6a6a6" /><stop offset="100%" stop-color="#595959" /></linearGradient><linearGradient id="gradient-xscale" x1="0%" x2="0%" y1="0%" y2="100%"><stop offset="0%" stop-color="#a6a6a6" /><stop offset="100%" stop-color="#595959" /></linearGradient><linearGradient id="gradient-router_mgr" x1="0%" x2="0%" y1="0%" y2="100%"><stop offset="0%" stop-color="#a6a6a6" /><stop offset="100%" stop-color="#595959" /></linearGradient><linearGradient id="gradient-routers" x1="0%" x2="0%" y1="0%" y2="100%"><stop offset="0%" stop-color="#a6a6a6" /><stop offset="100%" stop-color="#595959" /></linearGradient><linearGradient id="gradient-geometry" x1="0%" x2="0%" y1="0%" y2="100%"><stop offset="0%" stop-color="#a6a6a6" /><stop offset="100%" stop-color="#595959" /></linearGradient><linearGradient id="gradient-graph" x1="0%" x2="0%" y1="0%" y2="100%"><stop offset="0%" stop-color="#a6a6a6" /><stop offset="100%" stop-color="#595959" /></linearGradient><linearGradient id="gradient-collision" x1="0%" x2="0%" y1="0%" y2="100%"><stop offset="0%" stop-color="#a6a6a6" /><stop offset="100%" stop-color="#595959" /></linearGradient><linearGradient id="gradient-render" x1="0%" x2="0%" y1="0%" y2="100%"><stop offset="0%" stop-color="#a6a6a6" /><stop offset="100%" stop-color="#595959" /></linearGradient><linearGradient id="gradient-icons" x1="0%" x2="0%" y1="0%" y2="100%"><stop offset="0%" stop-color="#a6a6a6" /><stop offset="100%" stop-color="#595959" /></linearGradient><linearGradient id="gradient-connections" x1="0%" x2="0%" y1="0%" y2="100%"><stop offset="0%" stop-color="#a6a6a6" /><stop offset="100%" stop-color="#595959" /></linearGradient><linearGradient id="gradient-labels" x1="0%" x2="0%" y1="0%" y2="100%"><stop offset="0%" stop-color="#a6a6a6" /><stop offset="100%" stop-color="#595959" /></linearGradient><linearGradient id="gradient-containers" x1="0%" x2="0%" y1="0%" y2="100%"><stop offset="0%" stop-color="#a6a6a6" /><stop offset="100%" stop-color="#595959" /></linearGradient><linearGradient id="gradient-output" x1="0%" x2="0%" y1="0%" y2="100%"><stop offset="0%" stop-color="#a6a6a6" /><stop offset="100%" stop-color="#595959" /></linearGradient></defs><rect fill="url(#gradient-layout_module-stage)" height="334.0" opacity="0.3" rx="12.3" ry="12.3" stroke="black" stroke-width="2" width="246" x="1188.0" y="890.0" /><rect fill="url(#gradient-laf_module-stage)" height="1240.0" opacity="0.3" rx="15.100000000000001" ry="15.100000000000001" stroke="black" stroke-width="2" width="302" x="100.0" y="1464.0" /><rect fill="url(#gradient-routing_module-stage)" height="350.0" opacity="0.3" rx="11.100000000000001" ry="11.100000000000001" stroke="black" stroke-width="2" width="222" x="1730.0" y="3524.0" /><rect fill="url(#gradient-analysis_module-stage)" height="386.0" opacity="0.3" rx="11.5" ry="11.5" stroke="black" stroke-width="2" width="230.0" x="1196.0" y="1464.0" /><rect fill="url(#gradient-draw_module-stage)" height="199.0" opacity="0.3" rx="9.950000000000001" ry="9.950000000000001" stroke="black" stroke-width="2" width="490.0" x="1066.0" y="3524.0" /><g id="input"><g transform="translate(1281.0,30.0) scale(1.2048192771084338,0.6928406466512702) translate(-0.9,-1.4)"><path d="M 22.754087,32.116749 0.94545599,43.000013 V 4.7289739 L 22.754087,1.5702876 Z" fill="#e9e9ff" stroke="none" /><path d="M 50.712576,33.120864 V 1.4628125 L 22.754087,1.5702876 V 32.116749 Z" fill="#353564" stroke="none" /><path d="M 50.712576,33.120864 35.295871,44.770537 0.94545599,43.000013 22.754087,32.116749 Z" fill="#4d4d9f" stroke="none" /><path d="M 50.712576,1.4628125 35.295871,4.7384198 0.94545599,4.7289739 22.754087,1.5702876 Z" fill="#1c1ce6" opacity="1" stroke="none" /><path d="M 35.295871,44.770537 V 4.7384198 L 0.94545599,4.7289739 V 43.000013 Z" fill="#1a52ff" opacity="0.96" stroke="none" /><path d="M 50.712576,33.120864 35.295871,44.770537 V 4.7384198 L 50.712576,1.4628125 Z" fill="#1c9bd0" stroke="none" /><rect fill="none" height="43.3" opacity="0.67" stroke="#cbcbcb" stroke-width="0.48" width="49.8" x="0.9" y="1.4" /></g></g><rect fill="url(#gradient-main)" height="50" stroke="black" width="80" x="1271.0" y="310.0" /><rect fill="url(#gradient-generator)" height="50" stroke="black" width="80" x="1271.0" y="600.0" /><ellipse cx="1841.0" cy="625.0" fill="url(#gradient-svgwrite)" rx="40.0" ry="25.0" stroke="black" /><rect fill="url(#gradient-layout)" height="50" stroke="black" width="80" x="1271.0" y="962.0" /><g id="sizing"><g transform="translate(1216.0,1123.0) scale(1.2048192771084338,0.6928406466512702) translate(-0.9,-1.4)"><path d="M 22.754087,32.116749 0.94545599,43.000013 V 4.7289739 L 22.754087,1.5702876 Z" fill="#e9e9ff" stroke="none" /><path d="M 50.712576,33.120864 V 1.4628125 L 22.754087,1.5702876 V 32.116749 Z" fill="#353564" stroke="none" /><path d="M 50.712576,33.120864 35.295871,44.770537 0.94545599,43.000013 22.754087,32.116749 Z" fill="#4d4d9f" stroke="none" /><path d="M 50.712576,1.4628125 35.295871,4.7384198 0.94545599,4.7289739 22.754087,1.5702876 Z" fill="#1c1ce6" opacity="1" stroke="none" /><path d="M 35.295871,44.770537 V 4.7384198 L 0.94545599,4.7289739 V 43.000013 Z" fill="#1a52ff" opacity="0.96" stroke="none" /><path d="M 50.712576,33.120864 35.295871,44.770537 V 4.7384198 L 50.712576,1.4628125 Z" fill="#1c9bd0" stroke="none" /><rect fill="none" height="43.3" opacity="0.67" stroke="#cbcbcb" stroke-width="0.48" width="49.8" x="0.9" y="1.4" /></g></g><g id="positioner"><g transform="translate(1346.0,1123.0) scale(1.2048192771084338,0.6928406466512702) translate(-0.9,-1.4)"><path d="M 22.754087,32.116749 0.94545599,43.000013 V 4.7289739 L 22.754087,1.5702876 Z" fill="#e9e9ff" stroke="none" /><path d="M 50.712576,33.120864 V 1.4628125 L 22.754087,1.5702876 V 32.116749 Z" fill="#353564" stroke="none" /><path d="M 50.712576,33.120864 35.295871,44.770537 0.94545599,43.000013 22.754087,32.116749 Z" fill="#4d4d9f" stroke="none" /><path d="M 50.712576,1.4628125 35.295871,4.7384198 0.94545599,4.7289739 22.754087,1.5702876 Z" fill="#1c1ce6" opacity="1" stroke="none" /><path d="M 35.295871,44.770537 V 4.7384198 L 0.94545599,4.7289739 V 43.000013 Z" fill="#1a52ff" opacity="0.96" stroke="none" /><path d="M 50.712576,33.120864 35.295871,44.770537 V 4.7384198 L 50.712576,1.4628125 Z" fill="#1c9bd0" stroke="none" /><rect fill="none" height="43.3" opacity="0.67" stroke="#cbcbcb" stroke-width="0.48" width="49.8" x="0.9" y="1.4" /></g></g><rect fill="url(#gradient-optimizer)" height="50" stroke="black" width="80" x="1801.0" y="1464.0" /><rect fill="url(#gradient-laf_optimizer)" height="50" stroke="black" width="80" x="741.0" y="1464.0" /><g id="label_position_optimizer"><g transform="translate(1281.0,2954.0) scale(1.2048192771084338,0.6928406466512702) translate(-0.9,-1.4)"><path d="M 22.754087,32.116749 0.94545599,43.000013 V 4.7289739 L 22.754087,1.5702876 Z" fill="#e9e9ff" stroke="none" /><path d="M 50.712576,33.120864 V 1.4628125 L 22.754087,1.5702876 V 32.116749 Z" fill="#353564" stroke="none" /><path d="M 50.712576,33.120864 35.295871,44.770537 0.94545599,43.000013 22.754087,32.116749 Z" fill="#4d4d9f" stroke="none" /><path d="M 50.712576,1.4628125 35.295871,4.7384198 0.94545599,4.7289739 22.754087,1.5702876 Z" fill="#1c1ce6" opacity="1" stroke="none" /><path d="M 35.295871,44.770537 V 4.7384198 L 0.94545599,4.7289739 V 43.000013 Z" fill="#1a52ff" opacity="0.96" stroke="none" /><path d="M 50.712576,33.120864 35.295871,44.770537 V 4.7384198 L 50.712576,1.4628125 Z" fill="#1c9bd0" stroke="none" /><rect fill="none" height="43.3" opacity="0.67" stroke="#cbcbcb" stroke-width="0.48" width="49.8" x="0.9" y="1.4" /></g></g><g id="structure_analyzer"><g transform="translate(221.0,1546.0) scale(1.2048192771084338,0.6928406466512702) translate(-0.9,-1.4)"><path d="M 22.754087,32.116749 0.94545599,43.000013 V 4.7289739 L 22.754087,1.5702876 Z" fill="#e9e9ff" stroke="none" /><path d="M 50.712576,33.120864 V 1.4628125 L 22.754087,1.5702876 V 32.116749 Z" fill="#353564" stroke="none" /><path d="M 50.712576,33.120864 35.295871,44.770537 0.94545599,43.000013 22.754087,32.116749 Z" fill="#4d4d9f" stroke="none" /><path d="M 50.712576,1.4628125 35.295871,4.7384198 0.94545599,4.7289739 22.754087,1.5702876 Z" fill="#1c1ce6" opacity="1" stroke="none" /><path d="M 35.295871,44.770537 V 4.7384198 L 0.94545599,4.7289739 V 43.000013 Z" fill="#1a52ff" opacity="0.96" stroke="none" /><path d="M 50.712576,33.120864 35.295871,44.770537 V 4.7384198 L 50.712576,1.4628125 Z" fill="#1c9bd0" stroke="none" /><rect fill="none" height="43.3" opacity="0.67" stroke="#cbcbcb" stroke-width="0.48" width="49.8" x="0.9" y="1.4" /></g></g><g id="topology_viz"><g transform="translate(221.0,1697.0) scale(1.2048192771084338,0.6928406466512702) translate(-0.9,-1.4)"><path d="M 22.754087,32.116749 0.94545599,43.000013 V 4.7289739 L 22.754087,1.5702876 Z" fill="#e9e9ff" stroke="none" /><path d="M 50.712576,33.120864 V 1.4628125 L 22.754087,1.5702876 V 32.116749 Z" fill="#353564" stroke="none" /><path d="M 50.712576,33.120864 35.295871,44.770537 0.94545599,43.000013 22.754087,32.116749 Z" fill="#4d4d9f" stroke="none" /><path d="M 50.712576,1.4628125 35.295871,4.7384198 0.94545599,4.7289739 22.754087,1.5702876 Z" fill="#1c1ce6" opacity="1" stroke="none" /><path d="M 35.295871,44.770537 V 4.7384198 L 0.94545599,4.7289739 V 43.000013 Z" fill="#1a52ff" opacity="0.96" stroke="none" /><path d="M 50.712576,33.120864 35.295871,44.770537 V 4.7384198 L 50.712576,1.4628125 Z" fill="#1c9bd0" stroke="none" /><rect fill="none" height="43.3" opacity="0.67" stroke="#cbcbcb" stroke-width="0.48" width="49.8" x="0.9" y="1.4" /></g></g><g id="centrality_order"><g transform="translate(221.0,1848.0) scale(1.2048192771084338,0.6928406466512702) translate(-0.9,-1.4)"><path d="M 22.754087,32.116749 0.94545599,43.000013 V 4.7289739 L 22.754087,1.5702876 Z" fill="#e9e9ff" stroke="none" /><path d="M 50.712576,33.120864 V 1.4628125 L 22.754087,1.5702876 V 32.116749 Z" fill="#353564" stroke="none" /><path d="M 50.712576,33.120864 35.295871,44.770537 0.94545599,43.000013 22.754087,32.116749 Z" fill="#4d4d9f" stroke="none" /><path d="M 50.712576,1.4628125 35.295871,4.7384198 0.94545599,4.7289739 22.754087,1.5702876 Z" fill="#1c1ce6" opacity="1" stroke="none" /><path d="M 35.295871,44.770537 V 4.7384198 L 0.94545599,4.7289739 V 43.000013 Z" fill="#1a52ff" opacity="0.96" stroke="none" /><path d="M 50.712576,33.120864 35.295871,44.770537 V 4.7384198 L 50.712576,1.4628125 Z" fill="#1c9bd0" stroke="none" /><rect fill="none" height="43.3" opacity="0.67" stroke="#cbcbcb" stroke-width="0.48" width="49.8" x="0.9" y="1.4" /></g></g><g id="abstract_placer"><g transform="translate(221.0,1999.0) scale(1.2048192771084338,0.6928406466512702) translate(-0.9,-1.4)"><path d="M 22.754087,32.116749 0.94545599,43.000013 V 4.7289739 L 22.754087,1.5702876 Z" fill="#e9e9ff" stroke="none" /><path d="M 50.712576,33.120864 V 1.4628125 L 22.754087,1.5702876 V 32.116749 Z" fill="#353564" stroke="none" /><path d="M 50.712576,33.120864 35.295871,44.770537 0.94545599,43.000013 22.754087,32.116749 Z" fill="#4d4d9f" stroke="none" /><path d="M 50.712576,1.4628125 35.295871,4.7384198 0.94545599,4.7289739 22.754087,1.5702876 Z" fill="#1c1ce6" opacity="1" stroke="none" /><path d="M 35.295871,44.770537 V 4.7384198 L 0.94545599,4.7289739 V 43.000013 Z" fill="#1a52ff" opacity="0.96" stroke="none" /><path d="M 50.712576,33.120864 35.295871,44.770537 V 4.7384198 L 50.712576,1.4628125 Z" fill="#1c9bd0" stroke="none" /><rect fill="none" height="43.3" opacity="0.67" stroke="#cbcbcb" stroke-width="0.48" width="49.8" x="0.9" y="1.4" /></g></g><g id="inflator"><g transform="translate(221.0,2301.0) scale(1.2048192771084338,0.6928406466512702) translate(-0.9,-1.4)"><path d="M 22.754087,32.116749 0.94545599,43.000013 V 4.7289739 L 22.754087,1.5702876 Z" fill="#e9e9ff" stroke="none" /><path d="M 50.712576,33.120864 V 1.4628125 L 22.754087,1.5702876 V 32.116749 Z" fill="#353564" stroke="none" /><path d="M 50.712576,33.120864 35.295871,44.770537 0.94545599,43.000013 22.754087,32.116749 Z" fill="#4d4d9f" stroke="none" /><path d="M 50.712576,1.4628125 35.295871,4.7384198 0.94545599,4.7289739 22.754087,1.5702876 Z" fill="#1c1ce6" opacity="1" stroke="none" /><path d="M 35.295871,44.770537 V 4.7384198 L 0.94545599,4.7289739 V 43.000013 Z" fill="#1a52ff" opacity="0.96" stroke="none" /><path d="M 50.712576,33.120864 35.295871,44.770537 V 4.7384198 L 50.712576,1.4628125 Z" fill="#1c9bd0" stroke="none" /><rect fill="none" height="43.3" opacity="0.67" stroke="#cbcbcb" stroke-width="0.48" width="49.8" x="0.9" y="1.4" /></g></g><g id="container_grower"><g transform="translate(221.0,2452.0) scale(1.2048192771084338,0.6928406466512702) translate(-0.9,-1.4)"><path d="M 22.754087,32.116749 0.94545599,43.000013 V 4.7289739 L 22.754087,1.5702876 Z" fill="#e9e9ff" stroke="none" /><path d="M 50.712576,33.120864 V 1.4628125 L 22.754087,1.5702876 V 32.116749 Z" fill="#353564" stroke="none" /><path d="M 50.712576,33.120864 35.295871,44.770537 0.94545599,43.000013 22.754087,32.116749 Z" fill="#4d4d9f" stroke="none" /><path d="M 50.712576,1.4628125 35.295871,4.7384198 0.94545599,4.7289739 22.754087,1.5702876 Z" fill="#1c1ce6" opacity="1" stroke="none" /><path d="M 35.295871,44.770537 V 4.7384198 L 0.94545599,4.7289739 V 43.000013 Z" fill="#1a52ff" opacity="0.96" stroke="none" /><path d="M 50.712576,33.120864 35.295871,44.770537 V 4.7384198 L 50.712576,1.4628125 Z" fill="#1c9bd0" stroke="none" /><rect fill="none" height="43.3" opacity="0.67" stroke="#cbcbcb" stroke-width="0.48" width="49.8" x="0.9" y="1.4" /></g></g><g id="position_optimizer"><g transform="translate(221.0,2150.0) scale(1.2048192771084338,0.6928406466512702) translate(-0.9,-1.4)"><path d="M 22.754087,32.116749 0.94545599,43.000013 V 4.7289739 L 22.754087,1.5702876 Z" fill="#e9e9ff" stroke="none" /><path d="M 50.712576,33.120864 V 1.4628125 L 22.754087,1.5702876 V 32.116749 Z" fill="#353564" stroke="none" /><path d="M 50.712576,33.120864 35.295871,44.770537 0.94545599,43.000013 22.754087,32.116749 Z" fill="#4d4d9f" stroke="none" /><path d="M 50.712576,1.4628125 35.295871,4.7384198 0.94545599,4.7289739 22.754087,1.5702876 Z" fill="#1c1ce6" opacity="1" stroke="none" /><path d="M 35.295871,44.770537 V 4.7384198 L 0.94545599,4.7289739 V 43.000013 Z" fill="#1a52ff" opacity="0.96" stroke="none" /><path d="M 50.712576,33.120864 35.295871,44.770537 V 4.7384198 L 50.712576,1.4628125 Z" fill="#1c9bd0" stroke="none" /><rect fill="none" height="43.3" opacity="0.67" stroke="#cbcbcb" stroke-width="0.48" width="49.8" x="0.9" y="1.4" /></g></g><g id="xscale"><g transform="translate(221.0,2603.0) scale(1.2048192771084338,0.6928406466512702) translate(-0.9,-1.4)"><path d="M 22.754087,32.116749 0.94545599,43.000013 V 4.7289739 L 22.754087,1.5702876 Z" fill="#e9e9ff" stroke="none" /><path d="M 50.712576,33.120864 V 1.4628125 L 22.754087,1.5702876 V 32.116749 Z" fill="#353564" stroke="none" /><path d="M 50.712576,33.120864 35.295871,44.770537 0.94545599,43.000013 22.754087,32.116749 Z" fill="#4d4d9f" stroke="none" /><path d="M 50.712576,1.4628125 35.295871,4.7384198 0.94545599,4.7289739 22.754087,1.5702876 Z" fill="#1c1ce6" opacity="1" stroke="none" /><path d="M 35.295871,44.770537 V 4.7384198 L 0.94545599,4.7289739 V 43.000013 Z" fill="#1a52ff" opacity="0.96" stroke="none" /><path d="M 50.712576,33.120864 35.295871,44.770537 V 4.7384198 L 50.712576,1.4628125 Z" fill="#1c9bd0" stroke="none" /><rect fill="none" height="43.3" opacity="0.67" stroke="#cbcbcb" stroke-width="0.48" width="49.8" x="0.9" y="1.4" /></g></g><rect fill="url(#gradient-router_mgr)" height="50" stroke="black" width="80" x="1801.0" y="3594.0" /><ellipse cx="1841.0" cy="3770.0" fill="url(#gradient-routers)" rx="40.0" ry="25.0" stroke="black" /><g id="geometry"><g transform="translate(1281.0,1731.0) scale(1.2048192771084338,0.6928406466512702) translate(-0.9,-1.4)"><path d="M 22.754087,32.116749 0.94545599,43.000013 V 4.7289739 L 22.754087,1.5702876 Z" fill="#e9e9ff" stroke="none" /><path d="M 50.712576,33.120864 V 1.4628125 L 22.754087,1.5702876 V 32.116749 Z" fill="#353564" stroke="none" /><path d="M 50.712576,33.120864 35.295871,44.770537 0.94545599,43.000013 22.754087,32.116749 Z" fill="#4d4d9f" stroke="none" /><path d="M 50.712576,1.4628125 35.295871,4.7384198 0.94545599,4.7289739 22.754087,1.5702876 Z" fill="#1c1ce6" opacity="1" stroke="none" /><path d="M 35.295871,44.770537 V 4.7384198 L 0.94545599,4.7289739 V 43.000013 Z" fill="#1a52ff" opacity="0.96" stroke="none" /><path d="M 50.712576,33.120864 35.295871,44.770537 V 4.7384198 L 50.712576,1.4628125 Z" fill="#1c9bd0" stroke="none" /><rect fill="none" height="43.3" opacity="0.67" stroke="#cbcbcb" stroke-width="0.48" width="49.8" x="0.9" y="1.4" /></g></g><g id="graph"><g transform="translate(1216.0,1544.0) scale(1.2048192771084338,0.6928406466512702) translate(-0.9,-1.4)"><path d="M 22.754087,32.116749 0.94545599,43.000013 V 4.7289739 L 22.754087,1.5702876 Z" fill="#e9e9ff" stroke="none" /><path d="M 50.712576,33.120864 V 1.4628125 L 22.754087,1.5702876 V 32.116749 Z" fill="#353564" stroke="none" /><path d="M 50.712576,33.120864 35.295871,44.770537 0.94545599,43.000013 22.754087,32.116749 Z" fill="#4d4d9f" stroke="none" /><path d="M 50.712576,1.4628125 35.295871,4.7384198 0.94545599,4.7289739 22.754087,1.5702876 Z" fill="#1c1ce6" opacity="1" stroke="none" /><path d="M 35.295871,44.770537 V 4.7384198 L 0.94545599,4.7289739 V 43.000013 Z" fill="#1a52ff" opacity="0.96" stroke="none" /><path d="M 50.712576,33.120864 35.295871,44.770537 V 4.7384198 L 50.712576,1.4628125 Z" fill="#1c9bd0" stroke="none" /><rect fill="none" height="43.3" opacity="0.67" stroke="#cbcbcb" stroke-width="0.48" width="49.8" x="0.9" y="1.4" /></g></g><g id="collision"><g transform="translate(1346.0,1544.0) scale(1.2048192771084338,0.6928406466512702) translate(-0.9,-1.4)"><path d="M 22.754087,32.116749 0.94545599,43.000013 V 4.7289739 L 22.754087,1.5702876 Z" fill="#e9e9ff" stroke="none" /><path d="M 50.712576,33.120864 V 1.4628125 L 22.754087,1.5702876 V 32.116749 Z" fill="#353564" stroke="none" /><path d="M 50.712576,33.120864 35.295871,44.770537 0.94545599,43.000013 22.754087,32.116749 Z" fill="#4d4d9f" stroke="none" /><path d="M 50.712576,1.4628125 35.295871,4.7384198 0.94545599,4.7289739 22.754087,1.5702876 Z" fill="#1c1ce6" opacity="1" stroke="none" /><path d="M 35.295871,44.770537 V 4.7384198 L 0.94545599,4.7289739 V 43.000013 Z" fill="#1a52ff" opacity="0.96" stroke="none" /><path d="M 50.712576,33.120864 35.295871,44.770537 V 4.7384198 L 50.712576,1.4628125 Z" fill="#1c9bd0" stroke="none" /><rect fill="none" height="43.3" opacity="0.67" stroke="#cbcbcb" stroke-width="0.48" width="49.8" x="0.9" y="1.4" /></g></g><rect fill="url(#gradient-render)" height="50" stroke="black" width="80" x="1271.0" y="3234.0" /><g id="icons"><g transform="translate(1086.0,3604.0) scale(1.2048192771084338,0.6928406466512702) translate(-0.9,-1.4)"><path d="M 22.754087,32.116749 0.94545599,43.000013 V 4.7289739 L 22.754087,1.5702876 Z" fill="#e9e9ff" stroke="none" /><path d="M 50.712576,33.120864 V 1.4628125 L 22.754087,1.5702876 V 32.116749 Z" fill="#353564" stroke="none" /><path d="M 50.712576,33.120864 35.295871,44.770537 0.94545599,43.000013 22.754087,32.116749 Z" fill="#4d4d9f" stroke="none" /><path d="M 50.712576,1.4628125 35.295871,4.7384198 0.94545599,4.7289739 22.754087,1.5702876 Z" fill="#1c1ce6" opacity="1" stroke="none" /><path d="M 35.295871,44.770537 V 4.7384198 L 0.94545599,4.7289739 V 43.000013 Z" fill="#1a52ff" opacity="0.96" stroke="none" /><path d="M 50.712576,33.120864 35.295871,44.770537 V 4.7384198 L 50.712576,1.4628125 Z" fill="#1c9bd0" stroke="none" /><rect fill="none" height="43.3" opacity="0.67" stroke="#cbcbcb" stroke-width="0.48" width="49.8" x="0.9" y="1.4" /></g></g><g id="connections"><g transform="translate(1216.0,3604.0) scale(1.2048192771084338,0.6928406466512702) translate(-0.9,-1.4)"><path d="M 22.754087,32.116749 0.94545599,43.000013 V 4.7289739 L 22.754087,1.5702876 Z" fill="#e9e9ff" stroke="none" /><path d="M 50.712576,33.120864 V 1.4628125 L 22.754087,1.5702876 V 32.116749 Z" fill="#353564" stroke="none" /><path d="M 50.712576,33.120864 35.295871,44.770537 0.94545599,43.000013 22.754087,32.116749 Z" fill="#4d4d9f" stroke="none" /><path d="M 50.712576,1.4628125 35.295871,4.7384198 0.94545599,4.7289739 22.754087,1.5702876 Z" fill="#1c1ce6" opacity="1" stroke="none" /><path d="M 35.295871,44.770537 V 4.7384198 L 0.94545599,4.7289739 V 43.000013 Z" fill="#1a52ff" opacity="0.96" stroke="none" /><path d="M 50.712576,33.120864 35.295871,44.770537 V 4.7384198 L 50.712576,1.4628125 Z" fill="#1c9bd0" stroke="none" /><rect fill="none" height="43.3" opacity="0.67" stroke="#cbcbcb" stroke-width="0.48" width="49.8" x="0.9" y="1.4" /></g></g><g id="labels"><g transform="translate(1346.0,3604.0) scale(1.2048192771084338,0.6928406466512702) translate(-0.9,-1.4)"><path d="M 22.754087,32.116749 0.94545599,43.000013 V 4.7289739 L 22.754087,1.5702876 Z" fill="#e9e9ff" stroke="none" /><path d="M 50.712576,33.120864 V 1.4628125 L 22.754087,1.5702876 V 32.116749 Z" fill="#353564" stroke="none" /><path d="M 50.712576,33.120864 35.295871,44.770537 0.94545599,43.000013 22.754087,32.116749 Z" fill="#4d4d9f" stroke="none" /><path d="M 50.712576,1.4628125 35.295871,4.7384198 0.94545599,4.7289739 22.754087,1.5702876 Z" fill="#1c1ce6" opacity="1" stroke="none" /><path d="M 35.295871,44.770537 V 4.7384198 L 0.94545599,4.7289739 V 43.000013 Z" fill="#1a52ff" opacity="0.96" stroke="none" /><path d="M 50.712576,33.120864 35.295871,44.770537 V 4.7384198 L 50.712576,1.4628125 Z" fill="#1c9bd0" stroke="none" /><rect fill="none" height="43.3" opacity="0.67" stroke="#cbcbcb" stroke-width="0.48" width="49.8" x="0.9" y="1.4" /></g></g><g id="containers"><g transform="translate(1476.0,3604.0) scale(1.2048192771084338,0.6928406466512702) translate(-0.9,-1.4)"><path d="M 22.754087,32.116749 0.94545599,43.000013 V 4.7289739 L 22.754087,1.5702876 Z" fill="#e9e9ff" stroke="none" /><path d="M 50.712576,33.120864 V 1.4628125 L 22.754087,1.5702876 V 32.116749 Z" fill="#353564" stroke="none" /><path d="M 50.712576,33.120864 35.295871,44.770537 0.94545599,43.000013 22.754087,32.116749 Z" fill="#4d4d9f" stroke="none" /><path d="M 50.712576,1.4628125 35.295871,4.7384198 0.94545599,4.7289739 22.754087,1.5702876 Z" fill="#1c1ce6" opacity="1" stroke="none" /><path d="M 35.295871,44.770537 V 4.7384198 L 0.94545599,4.7289739 V 43.000013 Z" fill="#1a52ff" opacity="0.96" stroke="none" /><path d="M 50.712576,33.120864 35.295871,44.770537 V 4.7384198 L 50.712576,1.4628125 Z" fill="#1c9bd0" stroke="none" /><rect fill="none" height="43.3" opacity="0.67" stroke="#cbcbcb" stroke-width="0.48" width="49.8" x="0.9" y="1.4" /></g></g><g id="output"><g transform="translate(1281.0,4124.0) scale(1.2048192771084338,0.6928406466512702) translate(-0.9,-1.4)"><path d="M 22.754087,32.116749 0.94545599,43.000013 V 4.7289739 L 22.754087,1.5702876 Z" fill="#e9e9ff" stroke="none" /><path d="M 50.712576,33.120864 V 1.4628125 L 22.754087,1.5702876 V 32.116749 Z" fill="#353564" stroke="none" /><path d="M 50.712576,33.120864 35.295871,44.770537 0.94545599,43.000013 22.754087,32.116749 Z" fill="#4d4d9f" stroke="none" /><path d="M 50.712576,1.4628125 35.295871,4.7384198 0.94545599,4.7289739 22.754087,1.5702876 Z" fill="#1c1ce6" opacity="1" stroke="none" /><path d="M 35.295871,44.770537 V 4.7384198 L 0.94545599,4.7289739 V 43.000013 Z" fill="#1a52ff" opacity="0.96" stroke="none" /><path d="M 50.712576,33.120864 35.295871,44.770537 V 4.7384198 L 50.712576,1.4628125 Z" fill="#1c9bd0" stroke="none" /><rect fill="none" height="43.3" opacity="0.67" stroke="#cbcbcb" stroke-width="0.48" width="49.8" x="0.9" y="1.4" /></g></g><g id="layout_module-stage_icon"><g transform="translate(1188.0,890.0) scale(1.6,1.6666666666666667) translate(10,0)"><path d="m 211.5145,221.09759 -99.80744,57.62385 -99.807437,-57.62385 0,-115.2477 99.807437,-57.623854 99.80744,57.623854 z" fill="#a90000" opacity="0.72" stroke="#cbcbcb" stroke-width="0.48" transform="matrix(0.0751447,0.02631765,-0.04338481,0.0455835,8.97,11.04)" /><path d="m 211.5145,221.09759 -99.80744,57.62385 -99.807437,-57.62385 0,-115.2477 99.807437,-57.623854 99.80744,57.623854 z" fill="#ff7000" opacity="0.82" stroke="#cbcbcb" stroke-width="0.48" transform="matrix(0.0751447,0.02631765,-0.04338481,0.0455835,13.97,16.29)" /><path d="m 211.5145,221.09759 -99.80744,57.62385 -99.807437,-57.62385 0,-115.2477 99.807437,-57.623854 99.80744,57.623854 z" fill="#ffa900" opacity="0.72" stroke="#cbcbcb" stroke-width="0.48" transform="matrix(0.0751447,0.02631765,-0.04338481,0.0455835,18.97,11.04)" /><path d="m 211.5145,221.09759 -99.80744,57.62385 -99.807437,-57.62385 0,-115.2477 99.807437,-57.623854 99.80744,57.623854 z" fill="#d40000" opacity="0.85" stroke="#cbcbcb" stroke-width="0.48" transform="matrix(0.0751447,0.02631765,-0.04338481,0.0455835,18.97,21.54)" /><path d="m 211.5145,221.09759 -99.80744,57.62385 -99.807437,-57.62385 0,-115.2477 99.807437,-57.623854 99.80744,57.623854 z" fill="#a90000" opacity="1.0" stroke="#cbcbcb" stroke-width="0.48" transform="matrix(0.0751447,0.02631765,-0.04338481,0.0455835,23.97,26.80)" /><path d="m 211.5145,221.09759 -99.80744,57.62385 -99.807437,-57.62385 0,-115.2477 99.807437,-57.623854 99.80744,57.623854 z" fill="#ff7000" opacity="0.82" stroke="#cbcbcb" stroke-width="0.48" transform="matrix(0.0751447,0.02631765,-0.04338481,0.0455835,23.97,16.29)" /><path d="m 211.5145,221.09759 -99.80744,57.62385 -99.807437,-57.62385 0,-115.2477 99.807437,-57.623854 99.80744,57.623854 z" fill="#ffa900" opacity="0.72" stroke="#cbcbcb" stroke-width="0.48" transform="matrix(0.0751447,0.02631765,-0.04338481,0.0455835,28.97,11.04)" /><path d="m 211.5145,221.09759 -99.80744,57.62385 -99.807437,-57.62385 0,-115.2477 99.807437,-57.623854 99.80744,57.623854 z" fill="#d40000" opacity="0.85" stroke="#cbcbcb" stroke-width="0.48" transform="matrix(0.0751447,0.02631765,-0.04338481,0.0455835,28.97,21.54)" /><path d="m 211.5145,221.09759 -99.80744,57.62385 -99.807437,-57.62385 0,-115.2477 99.807437,-57.623854 99.80744,57.623854 z" fill="#ff7000" opacity="0.82" stroke="#cbcbcb" stroke-width="0.48" transform="matrix(0.0751447,0.02631765,-0.04338481,0.0455835,33.97,16.29)" /><path d="m 211.5145,221.09759 -99.80744,57.62385 -99.807437,-57.62385 0,-115.2477 99.807437,-57.623854 99.80744,57.623854 z" fill="#ffa900" opacity="0.72" stroke="#cbcbcb" stroke-width="0.48" transform="matrix(0.0751447,0.02631765,-0.04338481,0.0455835,38.97,11.04)" /><path d="m 211.5145,221.09759 -99.80744,57.62385 -99.807437,-57.62385 0,-115.2477 99.807437,-57.623854 99.80744,57.623854 z" fill="#ffd400" opacity="0.45" stroke="#cbcbcb" stroke-width="0.48" transform="matrix(0.0751447,0.02631765,-0.04338481,0.0455835,13.97,5.78)" /><path d="m 211.5145,221.09759 -99.80744,57.62385 -99.807437,-57.62385 0,-115.2477 99.807437,-57.623854 99.80744,57.623854 z" fill="#ffe200" opacity="0.5" stroke="#cbcbcb" stroke-width="0.48" transform="matrix(0.0751447,0.02631765,-0.04338481,0.0455835,18.97,0.53)" /><path d="m 211.5145,221.09759 -99.80744,57.62385 -99.807437,-57.62385 0,-115.2477 99.807437,-57.623854 99.80744,57.623854 z" fill="#ffd400" opacity="0.45" stroke="#cbcbcb" stroke-width="0.48" transform="matrix(0.0751447,0.02631765,-0.04338481,0.0455835,23.97,5.78)" /><path d="m 211.5145,221.09759 -99.80744,57.62385 -99.807437,-57.62385 0,-115.2477 99.807437,-57.623854 99.80744,57.623854 z" fill="#ffe200" opacity="0.6" stroke="#cbcbcb" stroke-width="0.48" transform="matrix(0.0751447,0.02631765,-0.04338481,0.0455835,23.97,-4.73)" /><path d="m 211.5145,221.09759 -99.80744,57.62385 -99.807437,-57.62385 0,-115.2477 99.807437,-57.623854 99.80744,57.623854 z" fill="#ffe200" opacity="0.5" stroke="#cbcbcb" stroke-width="0.48" transform="matrix(0.0751447,0.02631765,-0.04338481,0.0455835,28.97,0.53)" /><path d="m 211.5145,221.09759 -99.80744,57.62385 -99.807437,-57.62385 0,-115.2477 99.807437,-57.623854 99.80744,57.623854 z" fill="#ffd400" opacity="0.45" stroke="#cbcbcb" stroke-width="0.48" transform="matrix(0.0751447,0.02631765,-0.04338481,0.0455835,33.97,5.78)" /></g></g><g id="laf_module-stage_icon"><g transform="translate(100.0,1464.0) scale(1.6,1.6666666666666667) translate(10,0)"><path d="m 211.5145,221.09759 -99.80744,57.62385 -99.807437,-57.62385 0,-115.2477 99.807437,-57.623854 99.80744,57.623854 z" fill="#a90000" opacity="0.72" stroke="#cbcbcb" stroke-width="0.48" transform="matrix(0.0751447,0.02631765,-0.04338481,0.0455835,8.97,11.04)" /><path d="m 211.5145,221.09759 -99.80744,57.62385 -99.807437,-57.62385 0,-115.2477 99.807437,-57.623854 99.80744,57.623854 z" fill="#ff7000" opacity="0.82" stroke="#cbcbcb" stroke-width="0.48" transform="matrix(0.0751447,0.02631765,-0.04338481,0.0455835,13.97,16.29)" /><path d="m 211.5145,221.09759 -99.80744,57.62385 -99.807437,-57.62385 0,-115.2477 99.807437,-57.623854 99.80744,57.623854 z" fill="#ffa900" opacity="0.72" stroke="#cbcbcb" stroke-width="0.48" transform="matrix(0.0751447,0.02631765,-0.04338481,0.0455835,18.97,11.04)" /><path d="m 211.5145,221.09759 -99.80744,57.62385 -99.807437,-57.62385 0,-115.2477 99.807437,-57.623854 99.80744,57.623854 z" fill="#d40000" opacity="0.85" stroke="#cbcbcb" stroke-width="0.48" transform="matrix(0.0751447,0.02631765,-0.04338481,0.0455835,18.97,21.54)" /><path d="m 211.5145,221.09759 -99.80744,57.62385 -99.807437,-57.62385 0,-115.2477 99.807437,-57.623854 99.80744,57.623854 z" fill="#a90000" opacity="1.0" stroke="#cbcbcb" stroke-width="0.48" transform="matrix(0.0751447,0.02631765,-0.04338481,0.0455835,23.97,26.80)" /><path d="m 211.5145,221.09759 -99.80744,57.62385 -99.807437,-57.62385 0,-115.2477 99.807437,-57.623854 99.80744,57.623854 z" fill="#ff7000" opacity="0.82" stroke="#cbcbcb" stroke-width="0.48" transform="matrix(0.0751447,0.02631765,-0.04338481,0.0455835,23.97,16.29)" /><path d="m 211.5145,221.09759 -99.80744,57.62385 -99.807437,-57.62385 0,-115.2477 99.807437,-57.623854 99.80744,57.623854 z" fill="#ffa900" opacity="0.72" stroke="#cbcbcb" stroke-width="0.48" transform="matrix(0.0751447,0.02631765,-0.04338481,0.0455835,28.97,11.04)" /><path d="m 211.5145,221.09759 -99.80744,57.62385 -99.807437,-57.62385 0,-115.2477 99.807437,-57.623854 99.80744,57.623854 z" fill="#d40000" opacity="0.85" stroke="#cbcbcb" stroke-width="0.48" transform="matrix(0.0751447,0.02631765,-0.04338481,0.0455835,28.97,21.54)" /><path d="m 211.5145,221.09759 -99.80744,57.62385 -99.807437,-57.62385 0,-115.2477 99.807437,-57.623854 99.80744,57.623854 z" fill="#ff7000" opacity="0.82" stroke="#cbcbcb" stroke-width="0.48" transform="matrix(0.0751447,0.02631765,-0.04338481,0.0455835,33.97,16.29)" /><path d="m 211.5145,221.09759 -99.80744,57.62385 -99.807437,-57.62385 0,-115.2477 99.807437,-57.623854 99.80744,57.623854 z" fill="#ffa900" opacity="0.72" stroke="#cbcbcb" stroke-width="0.48" transform="matrix(0.0751447,0.02631765,-0.04338481,0.0455835,38.97,11.04)" /><path d="m 211.5145,221.09759 -99.80744,57.62385 -99.807437,-57.62385 0,-115.2477 99.807437,-57.623854 99.80744,57.623854 z" fill="#ffd400" opacity="0.45" stroke="#cbcbcb" stroke-width="0.48" transform="matrix(0.0751447,0.02631765,-0.04338481,0.0455835,13.97,5.78)" /><path d="m 211.5145,221.09759 -99.80744,57.62385 -99.807437,-57.62385 0,-115.2477 99.807437,-57.623854 99.80744,57.623854 z" fill="#ffe200" opacity="0.5" stroke="#cbcbcb" stroke-width="0.48" transform="matrix(0.0751447,0.02631765,-0.04338481,0.0455835,18.97,0.53)" /><path d="m 211.5145,221.09759 -99.80744,57.62385 -99.807437,-57.62385 0,-115.2477 99.807437,-57.623854 99.80744,57.623854 z" fill="#ffd400" opacity="0.45" stroke="#cbcbcb" stroke-width="0.48" transform="matrix(0.0751447,0.02631765,-0.04338481,0.0455835,23.97,5.78)" /><path d="m 211.5145,221.09759 -99.80744,57.62385 -99.807437,-57.62385 0,-115.2477 99.807437,-57.623854 99.80744,57.623854 z" fill="#ffe200" opacity="0.6" stroke="#cbcbcb" stroke-width="0.48" transform="matrix(0.0751447,0.02631765,-0.04338481,0.0455835,23.97,-4.73)" /><path d="m 211.5145,221.09759 -99.80744,57.62385 -99.807437,-57.62385 0,-115.2477 99.807437,-57.623854 99.80744,57.623854 z" fill="#ffe200" opacity="0.5" stroke="#cbcbcb" stroke-width="0.48" transform="matrix(0.0751447,0.02631765,-0.04338481,0.0455835,28.97,0.53)" /><path d="m 211.5145,221.09759 -99.80744,57.62385 -99.807437,-57.62385 0,-115.2477 99.807437,-57.623854 99.80744,57.623854 z" fill="#ffd400" opacity="0.45" stroke="#cbcbcb" stroke-width="0.48" transform="matrix(0.0751447,0.02631765,-0.04338481,0.0455835,33.97,5.78)" /></g></g><g id="routing_module-stage_icon"><g transform="translate(1730.0,3524.0) scale(1.6,1.6666666666666667) translate(10,0)"><path d="m 211.5145,221.09759 -99.80744,57.62385 -99.807437,-57.62385 0,-115.2477 99.807437,-57.623854 99.80744,57.623854 z" fill="#a90000" opacity="0.72" stroke="#cbcbcb" stroke-width="0.48" transform="matrix(0.0751447,0.02631765,-0.04338481,0.0455835,8.97,11.04)" /><path d="m 211.5145,221.09759 -99.80744,57.62385 -99.807437,-57.62385 0,-115.2477 99.807437,-57.623854 99.80744,57.623854 z" fill="#ff7000" opacity="0.82" stroke="#cbcbcb" stroke-width="0.48" transform="matrix(0.0751447,0.02631765,-0.04338481,0.0455835,13.97,16.29)" /><path d="m 211.5145,221.09759 -99.80744,57.62385 -99.807437,-57.62385 0,-115.2477 99.807437,-57.623854 99.80744,57.623854 z" fill="#ffa900" opacity="0.72" stroke="#cbcbcb" stroke-width="0.48" transform="matrix(0.0751447,0.02631765,-0.04338481,0.0455835,18.97,11.04)" /><path d="m 211.5145,221.09759 -99.80744,57.62385 -99.807437,-57.62385 0,-115.2477 99.807437,-57.623854 99.80744,57.623854 z" fill="#d40000" opacity="0.85" stroke="#cbcbcb" stroke-width="0.48" transform="matrix(0.0751447,0.02631765,-0.04338481,0.0455835,18.97,21.54)" /><path d="m 211.5145,221.09759 -99.80744,57.62385 -99.807437,-57.62385 0,-115.2477 99.807437,-57.623854 99.80744,57.623854 z" fill="#a90000" opacity="1.0" stroke="#cbcbcb" stroke-width="0.48" transform="matrix(0.0751447,0.02631765,-0.04338481,0.0455835,23.97,26.80)" /><path d="m 211.5145,221.09759 -99.80744,57.62385 -99.807437,-57.62385 0,-115.2477 99.807437,-57.623854 99.80744,57.623854 z" fill="#ff7000" opacity="0.82" stroke="#cbcbcb" stroke-width="0.48" transform="matrix(0.0751447,0.02631765,-0.04338481,0.0455835,23.97,16.29)" /><path d="m 211.5145,221.09759 -99.80744,57.62385 -99.807437,-57.62385 0,-115.2477 99.807437,-57.623854 99.80744,57.623854 z" fill="#ffa900" opacity="0.72" stroke="#cbcbcb" stroke-width="0.48" transform="matrix(0.0751447,0.02631765,-0.04338481,0.0455835,28.97,11.04)" /><path d="m 211.5145,221.09759 -99.80744,57.62385 -99.807437,-57.62385 0,-115.2477 99.807437,-57.623854 99.80744,57.623854 z" fill="#d40000" opacity="0.85" stroke="#cbcbcb" stroke-width="0.48" transform="matrix(0.0751447,0.02631765,-0.04338481,0.0455835,28.97,21.54)" /><path d="m 211.5145,221.09759 -99.80744,57.62385 -99.807437,-57.62385 0,-115.2477 99.807437,-57.623854 99.80744,57.623854 z" fill="#ff7000" opacity="0.82" stroke="#cbcbcb" stroke-width="0.48" transform="matrix(0.0751447,0.02631765,-0.04338481,0.0455835,33.97,16.29)" /><path d="m 211.5145,221.09759 -99.80744,57.62385 -99.807437,-57.62385 0,-115.2477 99.807437,-57.623854 99.80744,57.623854 z" fill="#ffa900" opacity="0.72" stroke="#cbcbcb" stroke-width="0.48" transform="matrix(0.0751447,0.02631765,-0.04338481,0.0455835,38.97,11.04)" /><path d="m 211.5145,221.09759 -99.80744,57.62385 -99.807437,-57.62385 0,-115.2477 99.807437,-57.623854 99.80744,57.623854 z" fill="#ffd400" opacity="0.45" stroke="#cbcbcb" stroke-width="0.48" transform="matrix(0.0751447,0.02631765,-0.04338481,0.0455835,13.97,5.78)" /><path d="m 211.5145,221.09759 -99.80744,57.62385 -99.807437,-57.62385 0,-115.2477 99.807437,-57.623854 99.80744,57.623854 z" fill="#ffe200" opacity="0.5" stroke="#cbcbcb" stroke-width="0.48" transform="matrix(0.0751447,0.02631765,-0.04338481,0.0455835,18.97,0.53)" /><path d="m 211.5145,221.09759 -99.80744,57.62385 -99.807437,-57.62385 0,-115.2477 99.807437,-57.623854 99.80744,57.623854 z" fill="#ffd400" opacity="0.45" stroke="#cbcbcb" stroke-width="0.48" transform="matrix(0.0751447,0.02631765,-0.04338481,0.0455835,23.97,5.78)" /><path d="m 211.5145,221.09759 -99.80744,57.62385 -99.807437,-57.62385 0,-115.2477 99.807437,-57.623854 99.80744,57.623854 z" fill="#ffe200" opacity="0.6" stroke="#cbcbcb" stroke-width="0.48" transform="matrix(0.0751447,0.02631765,-0.04338481,0.0455835,23.97,-4.73)" /><path d="m 211.5145,221.09759 -99.80744,57.62385 -99.807437,-57.62385 0,-115.2477 99.807437,-57.623854 99.80744,57.623854 z" fill="#ffe200" opacity="0.5" stroke="#cbcbcb" stroke-width="0.48" transform="matrix(0.0751447,0.02631765,-0.04338481,0.0455835,28.97,0.53)" /><path d="m 211.5145,221.09759 -99.80744,57.62385 -99.807437,-57.62385 0,-115.2477 99.807437,-57.623854 99.80744,57.623854 z" fill="#ffd400" opacity="0.45" stroke="#cbcbcb" stroke-width="0.48" transform="matrix(0.0751447,0.02631765,-0.04338481,0.0455835,33.97,5.78)" /></g></g><g id="analysis_module-stage_icon"><g transform="translate(1196.0,1464.0) scale(1.6,1.6666666666666667) translate(10,0)"><path d="m 211.5145,221.09759 -99.80744,57.62385 -99.807437,-57.62385 0,-115.2477 99.807437,-57.623854 99.80744,57.623854 z" fill="#a90000" opacity="0.72" stroke="#cbcbcb" stroke-width="0.48" transform="matrix(0.0751447,0.02631765,-0.04338481,0.0455835,8.97,11.04)" /><path d="m 211.5145,221.09759 -99.80744,57.62385 -99.807437,-57.62385 0,-115.2477 99.807437,-57.623854 99.80744,57.623854 z" fill="#ff7000" opacity="0.82" stroke="#cbcbcb" stroke-width="0.48" transform="matrix(0.0751447,0.02631765,-0.04338481,0.0455835,13.97,16.29)" /><path d="m 211.5145,221.09759 -99.80744,57.62385 -99.807437,-57.62385 0,-115.2477 99.807437,-57.623854 99.80744,57.623854 z" fill="#ffa900" opacity="0.72" stroke="#cbcbcb" stroke-width="0.48" transform="matrix(0.0751447,0.02631765,-0.04338481,0.0455835,18.97,11.04)" /><path d="m 211.5145,221.09759 -99.80744,57.62385 -99.807437,-57.62385 0,-115.2477 99.807437,-57.623854 99.80744,57.623854 z" fill="#d40000" opacity="0.85" stroke="#cbcbcb" stroke-width="0.48" transform="matrix(0.0751447,0.02631765,-0.04338481,0.0455835,18.97,21.54)" /><path d="m 211.5145,221.09759 -99.80744,57.62385 -99.807437,-57.62385 0,-115.2477 99.807437,-57.623854 99.80744,57.623854 z" fill="#a90000" opacity="1.0" stroke="#cbcbcb" stroke-width="0.48" transform="matrix(0.0751447,0.02631765,-0.04338481,0.0455835,23.97,26.80)" /><path d="m 211.5145,221.09759 -99.80744,57.62385 -99.807437,-57.62385 0,-115.2477 99.807437,-57.623854 99.80744,57.623854 z" fill="#ff7000" opacity="0.82" stroke="#cbcbcb" stroke-width="0.48" transform="matrix(0.0751447,0.02631765,-0.04338481,0.0455835,23.97,16.29)" /><path d="m 211.5145,221.09759 -99.80744,57.62385 -99.807437,-57.62385 0,-115.2477 99.807437,-57.623854 99.80744,57.623854 z" fill="#ffa900" opacity="0.72" stroke="#cbcbcb" stroke-width="0.48" transform="matrix(0.0751447,0.02631765,-0.04338481,0.0455835,28.97,11.04)" /><path d="m 211.5145,221.09759 -99.80744,57.62385 -99.807437,-57.62385 0,-115.2477 99.807437,-57.623854 99.80744,57.623854 z" fill="#d40000" opacity="0.85" stroke="#cbcbcb" stroke-width="0.48" transform="matrix(0.0751447,0.02631765,-0.04338481,0.0455835,28.97,21.54)" /><path d="m 211.5145,221.09759 -99.80744,57.62385 -99.807437,-57.62385 0,-115.2477 99.807437,-57.623854 99.80744,57.623854 z" fill="#ff7000" opacity="0.82" stroke="#cbcbcb" stroke-width="0.48" transform="matrix(0.0751447,0.02631765,-0.04338481,0.0455835,33.97,16.29)" /><path d="m 211.5145,221.09759 -99.80744,57.62385 -99.807437,-57.62385 0,-115.2477 99.807437,-57.623854 99.80744,57.623854 z" fill="#ffa900" opacity="0.72" stroke="#cbcbcb" stroke-width="0.48" transform="matrix(0.0751447,0.02631765,-0.04338481,0.0455835,38.97,11.04)" /><path d="m 211.5145,221.09759 -99.80744,57.62385 -99.807437,-57.62385 0,-115.2477 99.807437,-57.623854 99.80744,57.623854 z" fill="#ffd400" opacity="0.45" stroke="#cbcbcb" stroke-width="0.48" transform="matrix(0.0751447,0.02631765,-0.04338481,0.0455835,13.97,5.78)" /><path d="m 211.5145,221.09759 -99.80744,57.62385 -99.807437,-57.62385 0,-115.2477 99.807437,-57.623854 99.80744,57.623854 z" fill="#ffe200" opacity="0.5" stroke="#cbcbcb" stroke-width="0.48" transform="matrix(0.0751447,0.02631765,-0.04338481,0.0455835,18.97,0.53)" /><path d="m 211.5145,221.09759 -99.80744,57.62385 -99.807437,-57.62385 0,-115.2477 99.807437,-57.623854 99.80744,57.623854 z" fill="#ffd400" opacity="0.45" stroke="#cbcbcb" stroke-width="0.48" transform="matrix(0.0751447,0.02631765,-0.04338481,0.0455835,23.97,5.78)" /><path d="m 211.5145,221.09759 -99.80744,57.62385 -99.807437,-57.62385 0,-115.2477 99.807437,-57.623854 99.80744,57.623854 z" fill="#ffe200" opacity="0.6" stroke="#cbcbcb" stroke-width="0.48" transform="matrix(0.0751447,0.02631765,-0.04338481,0.0455835,23.97,-4.73)" /><path d="m 211.5145,221.09759 -99.80744,57.62385 -99.807437,-57.62385 0,-115.2477 99.807437,-57.623854 99.80744,57.623854 z" fill="#ffe200" opacity="0.5" stroke="#cbcbcb" stroke-width="0.48" transform="matrix(0.0751447,0.02631765,-0.04338481,0.0455835,28.97,0.53)" /><path d="m 211.5145,221.09759 -99.80744,57.62385 -99.807437,-57.62385 0,-115.2477 99.807437,-57.623854 99.80744,57.623854 z" fill="#ffd400" opacity="0.45" stroke="#cbcbcb" stroke-width="0.48" transform="matrix(0.0751447,0.02631765,-0.04338481,0.0455835,33.97,5.78)" /></g></g><g id="draw_module-stage_icon"><g transform="translate(1066.0,3524.0) scale(1.6,1.6666666666666667) translate(10,0)"><path d="m 211.5145,221.09759 -99.80744,57.62385 -99.807437,-57.62385 0,-115.2477 99.807437,-57.623854 99.80744,57.623854 z" fill="#a90000" opacity="0.72" stroke="#cbcbcb" stroke-width="0.48" transform="matrix(0.0751447,0.02631765,-0.04338481,0.0455835,8.97,11.04)" /><path d="m 211.5145,221.09759 -99.80744,57.62385 -99.807437,-57.62385 0,-115.2477 99.807437,-57.623854 99.80744,57.623854 z" fill="#ff7000" opacity="0.82" stroke="#cbcbcb" stroke-width="0.48" transform="matrix(0.0751447,0.02631765,-0.04338481,0.0455835,13.97,16.29)" /><path d="m 211.5145,221.09759 -99.80744,57.62385 -99.807437,-57.62385 0,-115.2477 99.807437,-57.623854 99.80744,57.623854 z" fill="#ffa900" opacity="0.72" stroke="#cbcbcb" stroke-width="0.48" transform="matrix(0.0751447,0.02631765,-0.04338481,0.0455835,18.97,11.04)" /><path d="m 211.5145,221.09759 -99.80744,57.62385 -99.807437,-57.62385 0,-115.2477 99.807437,-57.623854 99.80744,57.623854 z" fill="#d40000" opacity="0.85" stroke="#cbcbcb" stroke-width="0.48" transform="matrix(0.0751447,0.02631765,-0.04338481,0.0455835,18.97,21.54)" /><path d="m 211.5145,221.09759 -99.80744,57.62385 -99.807437,-57.62385 0,-115.2477 99.807437,-57.623854 99.80744,57.623854 z" fill="#a90000" opacity="1.0" stroke="#cbcbcb" stroke-width="0.48" transform="matrix(0.0751447,0.02631765,-0.04338481,0.0455835,23.97,26.80)" /><path d="m 211.5145,221.09759 -99.80744,57.62385 -99.807437,-57.62385 0,-115.2477 99.807437,-57.623854 99.80744,57.623854 z" fill="#ff7000" opacity="0.82" stroke="#cbcbcb" stroke-width="0.48" transform="matrix(0.0751447,0.02631765,-0.04338481,0.0455835,23.97,16.29)" /><path d="m 211.5145,221.09759 -99.80744,57.62385 -99.807437,-57.62385 0,-115.2477 99.807437,-57.623854 99.80744,57.623854 z" fill="#ffa900" opacity="0.72" stroke="#cbcbcb" stroke-width="0.48" transform="matrix(0.0751447,0.02631765,-0.04338481,0.0455835,28.97,11.04)" /><path d="m 211.5145,221.09759 -99.80744,57.62385 -99.807437,-57.62385 0,-115.2477 99.807437,-57.623854 99.80744,57.623854 z" fill="#d40000" opacity="0.85" stroke="#cbcbcb" stroke-width="0.48" transform="matrix(0.0751447,0.02631765,-0.04338481,0.0455835,28.97,21.54)" /><path d="m 211.5145,221.09759 -99.80744,57.62385 -99.807437,-57.62385 0,-115.2477 99.807437,-57.623854 99.80744,57.623854 z" fill="#ff7000" opacity="0.82" stroke="#cbcbcb" stroke-width="0.48" transform="matrix(0.0751447,0.02631765,-0.04338481,0.0455835,33.97,16.29)" /><path d="m 211.5145,221.09759 -99.80744,57.62385 -99.807437,-57.62385 0,-115.2477 99.807437,-57.623854 99.80744,57.623854 z" fill="#ffa900" opacity="0.72" stroke="#cbcbcb" stroke-width="0.48" transform="matrix(0.0751447,0.02631765,-0.04338481,0.0455835,38.97,11.04)" /><path d="m 211.5145,221.09759 -99.80744,57.62385 -99.807437,-57.62385 0,-115.2477 99.807437,-57.623854 99.80744,57.623854 z" fill="#ffd400" opacity="0.45" stroke="#cbcbcb" stroke-width="0.48" transform="matrix(0.0751447,0.02631765,-0.04338481,0.0455835,13.97,5.78)" /><path d="m 211.5145,221.09759 -99.80744,57.62385 -99.807437,-57.62385 0,-115.2477 99.807437,-57.623854 99.80744,57.623854 z" fill="#ffe200" opacity="0.5" stroke="#cbcbcb" stroke-width="0.48" transform="matrix(0.0751447,0.02631765,-0.04338481,0.0455835,18.97,0.53)" /><path d="m 211.5145,221.09759 -99.80744,57.62385 -99.807437,-57.62385 0,-115.2477 99.807437,-57.623854 99.80744,57.623854 z" fill="#ffd400" opacity="0.45" stroke="#cbcbcb" stroke-width="0.48" transform="matrix(0.0751447,0.02631765,-0.04338481,0.0455835,23.97,5.78)" /><path d="m 211.5145,221.09759 -99.80744,57.62385 -99.807437,-57.62385 0,-115.2477 99.807437,-57.623854 99.80744,57.623854 z" fill="#ffe200" opacity="0.6" stroke="#cbcbcb" stroke-width="0.48" transform="matrix(0.0751447,0.02631765,-0.04338481,0.0455835,23.97,-4.73)" /><path d="m 211.5145,221.09759 -99.80744,57.62385 -99.807437,-57.62385 0,-115.2477 99.807437,-57.623854 99.80744,57.623854 z" fill="#ffe200" opacity="0.5" stroke="#cbcbcb" stroke-width="0.48" transform="matrix(0.0751447,0.02631765,-0.04338481,0.0455835,28.97,0.53)" /><path d="m 211.5145,221.09759 -99.80744,57.62385 -99.807437,-57.62385 0,-115.2477 99.807437,-57.623854 99.80744,57.623854 z" fill="#ffd400" opacity="0.45" stroke="#cbcbcb" stroke-width="0.48" transform="matrix(0.0751447,0.02631765,-0.04338481,0.0455835,33.97,5.78)" /></g></g><line marker-end="url(#arrow-end)" marker-start="url(#circle-start)" stroke="black" stroke-width="2" x1="1311.0" x2="1311.0" y1="77.0" y2="303.0" /><line marker-end="url(#arrow-end)" marker-start="url(#circle-start)" stroke="black" stroke-width="2" x1="1311.0" x2="1311.0" y1="367.0" y2="593.0" /><line marker-end="url(#arrow-end)" marker-start="url(#circle-start)" stroke="black" stroke-width="2" x1="1343.0" x2="1801.0" y1="625.0" y2="625.0" /><line marker-end="url(#arrow-end)" marker-start="url(#circle-start)" stroke="black" stroke-width="2" x1="1311.0" x2="1311.0" y1="657.0" y2="955.0" /><line marker-end="url(#arrow-end)" marker-start="url(#circle-start)" stroke="black" stroke-width="2" x1="1298.3476135393532" x2="1258.6523864606468" y1="1016.3924670085796" y2="1108.6075329914204" /><line marker-end="url(#arrow-end)" marker-start="url(#circle-start)" stroke="black" stroke-width="2" x1="1323.6523864606468" x2="1363.3476135393532" y1="1016.3924670085796" y2="1108.6075329914204" /><line marker-end="url(#arrow-end)" marker-start="url(#circle-start)" stroke="black" stroke-width="2" x1="1334.2327895186868" x2="1817.7672104813132" y1="1009.0053968648693" y2="1466.9946031351308" /><line marker-end="url(#arrow-end)" marker-start="url(#circle-start)" stroke="black" stroke-width="2" x1="1287.7672104813132" x2="804.2327895186867" y1="1009.0053968648693" y2="1466.9946031351308" /><line marker-end="url(#arrow-end)" marker-start="url(#circle-start)" stroke="black" stroke-width="2" x1="1841.0" x2="1841.0" y1="1521.0" y2="3587.0" /><line marker-end="url(#arrow-end)" marker-start="url(#circle-start)" stroke="black" stroke-width="2" x1="1841.0" x2="1841.0" y1="3651.0" y2="3730.0" /><line marker-end="url(#arrow-end)" marker-start="url(#circle-start)" stroke="black" stroke-width="2" x1="1812.206594871854" x2="1339.793405128146" y1="1502.9620851281766" y2="1732.0379148718234" /><line marker-end="url(#arrow-end)" marker-start="url(#circle-start)" stroke="black" stroke-width="2" x1="1809.219180661668" x2="1277.780819338332" y1="1492.7389199221568" y2="1555.2610800778432" /><line marker-end="url(#arrow-end)" marker-start="url(#circle-start)" stroke="black" stroke-width="2" x1="1809.356536820183" x2="1407.643463179817" y1="1493.7635320915854" y2="1554.2364679084146" /><line marker-end="url(#arrow-end)" marker-start="url(#circle-start)" stroke="black" stroke-width="2" x1="1365.4936094453853" x2="1321.5063905546147" y1="1589.2260774417373" y2="1715.7739225582627" /><line marker-end="url(#arrow-end)" marker-start="url(#circle-start)" stroke="black" stroke-width="2" x1="1249.401668519388" x2="1307.598331480612" y1="1169.818683996737" y2="1714.181316003263" /><line marker-end="url(#arrow-end)" marker-start="url(#circle-start)" stroke="black" stroke-width="2" x1="749.2912542861412" x2="282.7087457138588" y1="1493.3076031913167" y2="1556.6923968086833" /><line marker-end="url(#arrow-end)" marker-start="url(#circle-start)" stroke="black" stroke-width="2" x1="251.0" x2="251.0" y1="1593.0" y2="1680.0" /><line marker-end="url(#arrow-end)" marker-start="url(#circle-start)" stroke="black" stroke-width="2" x1="251.0" x2="251.0" y1="1744.0" y2="1831.0" /><line marker-end="url(#arrow-end)" marker-start="url(#circle-start)" stroke="black" stroke-width="2" x1="251.0" x2="251.0" y1="1895.0" y2="1982.0" /><line marker-end="url(#arrow-end)" marker-start="url(#circle-start)" stroke="black" stroke-width="2" x1="251.0" x2="251.0" y1="2046.0" y2="2133.0" /><line marker-end="url(#arrow-end)" marker-start="url(#circle-start)" stroke="black" stroke-width="2" x1="251.0" x2="251.0" y1="2197.0" y2="2284.0" /><line marker-end="url(#arrow-end)" marker-start="url(#circle-start)" stroke="black" stroke-width="2" x1="251.0" x2="251.0" y1="2348.0" y2="2435.0" /><line marker-end="url(#arrow-end)" marker-start="url(#circle-start)" stroke="black" stroke-width="2" x1="251.0" x2="251.0" y1="2499.0" y2="2586.0" /><line marker-end="url(#arrow-end)" marker-start="url(#circle-start)" stroke="black" stroke-width="2" x1="795.2570097373043" x2="1826.7429902626957" y1="1517.64851956647" y2="3590.35148043353" /><line marker-end="url(#arrow-end)" marker-start="url(#circle-start)" stroke="black" stroke-width="2" x1="812.643463179817" x2="1214.356536820183" y1="1493.7635320915854" y2="1554.2364679084146" /><line marker-end="url(#arrow-end)" marker-start="url(#circle-start)" stroke="black" stroke-width="2" x1="809.7934051281461" x2="1282.206594871854" y1="1502.9620851281766" y2="1732.0379148718234" /><line marker-end="url(#arrow-end)" marker-start="url(#circle-start)" stroke="black" stroke-width="2" x1="1831.8207581856725" x2="1320.1792418143275" y1="1519.6552037950182" y2="3228.344796204982" /><line marker-end="url(#arrow-end)" marker-start="url(#circle-start)" stroke="black" stroke-width="2" x1="790.1792418143275" x2="1301.8207581856725" y1="1519.6552037950182" y2="3228.344796204982" /><line marker-end="url(#arrow-end)" marker-start="url(#circle-start)" stroke="black" stroke-width="2" x1="1830.2114491387963" x2="1321.7885508612037" y1="1519.126519386003" y2="2938.873480613997" /><line marker-end="url(#arrow-end)" marker-start="url(#circle-start)" stroke="black" stroke-width="2" x1="791.7885508612038" x2="1300.2114491387963" y1="1519.126519386003" y2="2938.873480613997" /><line marker-end="url(#arrow-end)" marker-start="url(#circle-start)" stroke="black" stroke-width="2" x1="1311.0" x2="1311.0" y1="3001.0" y2="3227.0" /><line marker-end="url(#arrow-end)" marker-start="url(#circle-start)" stroke="black" stroke-width="2" x1="1326.241060753304" x2="1490.758939246696" y1="3287.1373429291766" y2="3590.8626570708234" /><line marker-end="url(#arrow-end)" marker-start="url(#circle-start)" stroke="black" stroke-width="2" x1="1295.758939246696" x2="1131.241060753304" y1="3287.1373429291766" y2="3590.8626570708234" /><line marker-end="url(#arrow-end)" marker-start="url(#circle-start)" stroke="black" stroke-width="2" x1="1305.314159024758" x2="1251.685840975242" y1="3290.490811555186" y2="3587.509188444814" /><line marker-end="url(#arrow-end)" marker-start="url(#circle-start)" stroke="black" stroke-width="2" x1="1316.685840975242" x2="1370.314159024758" y1="3290.490811555186" y2="3587.509188444814" /><line marker-end="url(#arrow-end)" marker-start="url(#circle-start)" stroke="black" stroke-width="2" x1="1278.0" x2="1809.0" y1="3619.0" y2="3619.0" /><line marker-end="url(#arrow-end)" marker-start="url(#circle-start)" stroke="black" stroke-width="2" x1="1127.2359501308285" x2="1299.7640498691715" y1="3648.9625336822096" y2="4109.037466317791" /><line marker-end="url(#arrow-end)" marker-start="url(#circle-start)" stroke="black" stroke-width="2" x1="1249.9691115068547" x2="1307.0308884931453" y1="3650.7528920548375" y2="4107.2471079451625" /><line marker-end="url(#arrow-end)" marker-start="url(#circle-start)" stroke="black" stroke-width="2" x1="1372.0308884931453" x2="1314.9691115068547" y1="3650.7528920548375" y2="4107.2471079451625" /><line marker-end="url(#arrow-end)" marker-start="url(#circle-start)" stroke="black" stroke-width="2" x1="1494.7640498691715" x2="1322.2359501308285" y1="3648.9625336822096" y2="4109.037466317791" /><path d="M 1323.0,4114.0 A 50,50 0 0,1 1299.0,4114.0" fill="none" marker-end="url(#arrow-end)" marker-start="url(#circle-start)" stroke="black" stroke-width="2" /><text fill="black" font-family="Arial, sans-serif" font-size="14px" text-anchor="start" x="1363.6" y="45.0">archivo.gag</text><text fill="black" font-family="Arial, sans-serif" font-size="14px" text-anchor="start" x="1363.6" y="63.0">(JSON SDJF v3.0)</text><text fill="black" font-family="Arial, sans-serif" font-size="14px" text-anchor="start" x="1363.6" y="335.0">main.py</text><text fill="black" font-family="Arial, sans-serif" font-size="14px" text-anchor="start" x="1363.6" y="353.0">(CLI)</text><text fill="black" font-family="Arial, sans-serif" font-size="14px" text-anchor="end" x="1258.4" y="625.0">generator.py</text><text fill="black" font-family="Arial, sans-serif" font-size="14px" text-anchor="end" x="1258.4" y="643.0">(orquestador)</text><text fill="black" font-family="Arial, sans-serif" font-size="14px" text-anchor="middle" x="1841.0" y="671.0">svgwrite</text><text fill="black" font-family="Arial, sans-serif" font-size="14px" text-anchor="middle" x="1841.0" y="689.0">(librera externa)</text><text fill="black" font-family="Arial, sans-serif" font-size="14px" text-anchor="end" x="1258.4" y="987.0">Layout</text><text fill="black" font-family="Arial, sans-serif" font-size="14px" text-anchor="end" x="1258.4" y="1005.0">Patrn Inmutable</text><text fill="black" font-family="Arial, sans-serif" font-size="14px" text-anchor="start" x="1298.6" y="1184.0">SizingCalculator</text><text fill="black" font-family="Arial, sans-serif" font-size="14px" text-anchor="start" x="1298.6" y="1202.0">hp/wp</text><text fill="black" font-family="Arial, sans-serif" font-size="14px" text-anchor="start" x="1428.6" y="1138.0">AutoLayoutPositioner</text><text fill="black" font-family="Arial, sans-serif" font-size="14px" text-anchor="start" x="1428.6" y="1156.0">Layout jerrquico</text><text fill="black" font-family="Arial, sans-serif" font-size="14px" text-anchor="start" x="1893.6" y="1489.0">AutoLayoutOptimizer</text><text fill="black" font-family="Arial, sans-serif" font-size="14px" text-anchor="start" x="1893.6" y="1507.0">v4.0 Jerrquico</text><text fill="black" font-family="Arial, sans-serif" font-size="14px" text-anchor="start" x="1893.6" y="1525.0">(algoritmo AUTO)</text><text fill="black" font-family="Arial, sans-serif" font-size="14px" text-anchor="end" x="728.4" y="1535.0">LAFOptimizer</text><text fill="black" font-family="Arial, sans-serif" font-size="14px" text-anchor="end" x="728.4" y="1553.0">v1.4 (10 fases)</text><text fill="black" font-family="Arial, sans-serif" font-size="14px" text-anchor="end" x="728.4" y="1571.0">(algoritmo LAF)</text><text fill="black" font-family="Arial, sans-serif" font-size="14px" text-anchor="end" x="1258.4" y="2969.0">LabelPositionOptimizer</text><text fill="black" font-family="Arial, sans-serif" font-size="14px" text-anchor="end" x="1258.4" y="2987.0">Scoring + Greedy</text><text fill="black" font-family="Arial, sans-serif" font-size="14px" text-anchor="start" x="303.6" y="1607.0">StructureAnalyzer</text><text fill="black" font-family="Arial, sans-serif" font-size="14px" text-anchor="start" x="303.6" y="1625.0">Fase 1: Estructura</text><text fill="black" font-family="Arial, sans-serif" font-size="14px" text-anchor="start" x="303.6" y="1758.0">Topology Analysis</text><text fill="black" font-family="Arial, sans-serif" font-size="14px" text-anchor="start" x="303.6" y="1776.0">Fase 2: Niveles topolgicos</text><text fill="black" font-family="Arial, sans-serif" font-size="14px" text-anchor="start" x="303.6" y="1909.0">Centrality Ordering</text><text fill="black" font-family="Arial, sans-serif" font-size="14px" text-anchor="start" x="303.6" y="1927.0">Fase 3: Orden por centralidad</text><text fill="black" font-family="Arial, sans-serif" font-size="14px" text-anchor="start" x="303.6" y="2060.0">AbstractPlacer</text><text fill="black" font-family="Arial, sans-serif" font-size="14px" text-anchor="start" x="303.6" y="2078.0">Fase 4: Sugiyama barycenter</text><text fill="black" font-family="Arial, sans-serif" font-size="14px" text-anchor="start" x="303.6" y="2362.0">Inflator</text><text fill="black" font-family="Arial, sans-serif" font-size="14px" text-anchor="start" x="303.6" y="2380.0">Fase 6: Dimensiones reales</text><text fill="black" font-family="Arial, sans-serif" font-size="14px" text-anchor="start" x="303.6" y="2513.0">ContainerGrower</text><text fill="black" font-family="Arial, sans-serif" font-size="14px" text-anchor="start" x="303.6" y="2531.0">Fase 7: Expansin bottom-up</text><text fill="black" font-family="Arial, sans-serif" font-size="14px" text-anchor="start" x="303.6" y="2211.0">PositionOptimizer</text><text fill="black" font-family="Arial, sans-serif" font-size="14px" text-anchor="start" x="303.6" y="2229.0">Fase 5: Layer-offset</text><text fill="black" font-family="Arial, sans-serif" font-size="14px" text-anchor="middle" x="251.0" y="2664.0">Global X Scale</text><text fill="black" font-family="Arial, sans-serif" font-size="14px" text-anchor="middle" x="251.0" y="2682.0">Fase 8: Preserva ngulos</text><text fill="black" font-family="Arial, sans-serif" font-size="14px" text-anchor="start" x="1893.6" y="3665.0">RouterManager</text><text fill="black" font-family="Arial, sans-serif" font-size="14px" text-anchor="start" x="1893.6" y="3683.0">Coordinador</text><text fill="black" font-family="Arial, sans-serif" font-size="14px" text-anchor="middle" x="1841.0" y="3816.0">5 Routers</text><text fill="black" font-family="Arial, sans-serif" font-size="14px" text-anchor="middle" x="1841.0" y="3834.0">straight/orthogonal</text><text fill="black" font-family="Arial, sans-serif" font-size="14px" text-anchor="middle" x="1841.0" y="3852.0">bezier/arc/manual</text><text fill="black" font-family="Arial, sans-serif" font-size="14px" text-anchor="middle" x="1311.0" y="1792.0">GeometryCalculator</text><text fill="black" font-family="Arial, sans-serif" font-size="14px" text-anchor="middle" x="1311.0" y="1810.0">bboxes</text><text fill="black" font-family="Arial, sans-serif" font-size="14px" text-anchor="middle" x="1311.0" y="1828.0">intersecciones</text><text fill="black" font-family="Arial, sans-serif" font-size="14px" text-anchor="end" x="1193.4" y="1605.0">GraphAnalyzer</text><text fill="black" font-family="Arial, sans-serif" font-size="14px" text-anchor="end" x="1193.4" y="1623.0">topologa + centralidad</text><text fill="black" font-family="Arial, sans-serif" font-size="14px" text-anchor="end" x="1193.4" y="1641.0">niveles</text><text fill="black" font-family="Arial, sans-serif" font-size="14px" text-anchor="end" x="1193.4" y="1659.0">resolucin conexiones</text><text fill="black" font-family="Arial, sans-serif" font-size="14px" text-anchor="start" x="1428.6" y="1605.0">CollisionDetector</text><text fill="black" font-family="Arial, sans-serif" font-size="14px" text-anchor="start" x="1428.6" y="1623.0">detect_all()</text><text fill="black" font-family="Arial, sans-serif" font-size="14px" text-anchor="start" x="1428.6" y="1641.0">count()</text><text fill="black" font-family="Arial, sans-serif" font-size="14px" text-anchor="start" x="1363.6" y="3259.0">Renderizado SVG</text><text fill="black" font-family="Arial, sans-serif" font-size="14px" text-anchor="start" x="1363.6" y="3277.0">(6 fases secuenciales)</text><text fill="black" font-family="Arial, sans-serif" font-size="14px" text-anchor="end" x="1063.4" y="3665.0">icons.py</text><text fill="black" font-family="Arial, sans-serif" font-size="14px" text-anchor="end" x="1063.4" y="3683.0">Fases 1-1.5: Shapes</text><text fill="black" font-family="Arial, sans-serif" font-size="14px" text-anchor="end" x="1063.4" y="3701.0">4 tipos + BWT</text><text fill="black" font-family="Arial, sans-serif" font-size="14px" text-anchor="middle" x="1246.0" y="3665.0">connections.py</text><text fill="black" font-family="Arial, sans-serif" font-size="14px" text-anchor="middle" x="1246.0" y="3683.0">Fase 2: Lines + Paths</text><text fill="black" font-family="Arial, sans-serif" font-size="14px" text-anchor="middle" x="1246.0" y="3701.0">Routing types</text><text fill="black" font-family="Arial, sans-serif" font-size="14px" text-anchor="middle" x="1376.0" y="3573.0">labels</text><text fill="black" font-family="Arial, sans-serif" font-size="14px" text-anchor="middle" x="1376.0" y="3591.0">Fase 2.5-3: Text</text><text fill="black" font-family="Arial, sans-serif" font-size="14px" text-anchor="middle" x="1376.0" y="3609.0">Optimizacin + Render</text><text fill="black" font-family="Arial, sans-serif" font-size="14px" text-anchor="start" x="1558.6" y="3665.0">container.py</text><text fill="black" font-family="Arial, sans-serif" font-size="14px" text-anchor="start" x="1558.6" y="3683.0">Fase 0: Fondo</text><text fill="black" font-family="Arial, sans-serif" font-size="14px" text-anchor="start" x="1558.6" y="3701.0">Agrupacin visual</text><text fill="black" font-family="Arial, sans-serif" font-size="14px" text-anchor="middle" x="1311.0" y="4185.0">archivo.svg</text><text fill="black" font-family="Arial, sans-serif" font-size="14px" text-anchor="middle" x="1311.0" y="4203.0">(Salida vectorial)</text><text fill="gray" font-family="Arial, sans-serif" font-size="12px" text-anchor="end" x="1260.2" y="190.0">lee JSON</text><text fill="gray" font-family="Arial, sans-serif" font-size="12px" text-anchor="end" x="1260.2" y="480.0">generate_diagram()</text><text fill="gray" font-family="Arial, sans-serif" font-size="12px" text-anchor="middle" x="1572.0" y="582.0">Drawing()</text><text fill="gray" font-family="Arial, sans-serif" font-size="12px" text-anchor="end" x="1260.2" y="806.0">Layout(...)</text><text fill="gray" font-family="Arial, sans-serif" font-size="12px" text-anchor="middle" x="1278.5" y="1105.5">usa</text><text fill="gray" font-family="Arial, sans-serif" font-size="12px" text-anchor="start" x="1394.3" y="1062.5">usa</text><text fill="gray" font-family="Arial, sans-serif" font-size="12px" text-anchor="end" x="1525.2" y="1238.0">if --layout-algorithm=auto
optimize()</text><text fill="gray" font-family="Arial, sans-serif" font-size="12px" text-anchor="end" x="995.2" y="1238.0">if --layout-algorithm=laf
optimize()</text><text fill="gray" font-family="Arial, sans-serif" font-size="12px" text-anchor="end" x="1790.2" y="2554.0">calculate_all_paths()</text><text fill="gray" font-family="Arial, sans-serif" font-size="12px" text-anchor="end" x="1790.2" y="3690.5">delega</text><text fill="gray" font-family="Arial, sans-serif" font-size="12px" text-anchor="middle" x="1576.0" y="1574.5">usa</text><text fill="gray" font-family="Arial, sans-serif" font-size="12px" text-anchor="middle" x="1543.5" y="1481.0">analyze()</text><text fill="gray" font-family="Arial, sans-serif" font-size="12px" text-anchor="start" x="1659.3" y="1481.0">evaluate()</text><text fill="gray" font-family="Arial, sans-serif" font-size="12px" text-anchor="end" x="1292.7" y="1652.5">usa bboxes</text><text fill="gray" font-family="Arial, sans-serif" font-size="12px" text-anchor="end" x="1227.7" y="1442.0">calcula tamaos</text><text fill="gray" font-family="Arial, sans-serif" font-size="12px" text-anchor="middle" x="516.0" y="1482.0">fase 1</text><text fill="gray" font-family="Arial, sans-serif" font-size="12px" text-anchor="end" x="200.2" y="1636.5">estructura</text><text fill="gray" font-family="Arial, sans-serif" font-size="12px" text-anchor="end" x="200.2" y="1787.5">niveles</text><text fill="gray" font-family="Arial, sans-serif" font-size="12px" text-anchor="end" x="200.2" y="1938.5">orden por centralidad</text><text fill="gray" font-family="Arial, sans-serif" font-size="12px" text-anchor="end" x="200.2" y="2089.5">posiciones abstractas</text><text fill="gray" font-family="Arial, sans-serif" font-size="12px" text-anchor="end" x="200.2" y="2240.5">posiciones optimizadas</text><text fill="gray" font-family="Arial, sans-serif" font-size="12px" text-anchor="end" x="200.2" y="2391.5">dimensiones reales</text><text fill="gray" font-family="Arial, sans-serif" font-size="12px" text-anchor="end" x="200.2" y="2542.5">escala global</text><text fill="gray" font-family="Arial, sans-serif" font-size="12px" text-anchor="end" x="1260.2" y="2554.0">routing DUAL
(2 pasadas)</text><text fill="gray" font-family="Arial, sans-serif" font-size="12px" text-anchor="middle" x="1013.5" y="1481.0">analyze()</text><text fill="gray" font-family="Arial, sans-serif" font-size="12px" text-anchor="middle" x="1046.0" y="1574.5">usa</text><text fill="gray" font-family="Arial, sans-serif" font-size="12px" text-anchor="start" x="1626.8" y="2374.0">layout optimizado
(AUTO)</text><text fill="gray" font-family="Arial, sans-serif" font-size="12px" text-anchor="end" x="995.2" y="2374.0">layout optimizado
(LAF)</text><text fill="gray" font-family="Arial, sans-serif" font-size="12px" text-anchor="end" x="1525.2" y="2229.0">optimiza etiquetas</text><text fill="gray" font-family="Arial, sans-serif" font-size="12px" text-anchor="end" x="995.2" y="2229.0">optimiza etiquetas</text><text fill="gray" font-family="Arial, sans-serif" font-size="12px" text-anchor="end" x="1260.2" y="3114.0">posiciones finales</text><text fill="gray" font-family="Arial, sans-serif" font-size="12px" text-anchor="start" x="1459.3" y="3439.0">fase 0: fondo</text><text fill="gray" font-family="Arial, sans-serif" font-size="12px" text-anchor="end" x="1162.7" y="3439.0">fase 1-1.5: shapes</text><text fill="gray" font-family="Arial, sans-serif" font-size="12px" text-anchor="end" x="1227.7" y="3396.0">fase 2: lneas</text><text fill="gray" font-family="Arial, sans-serif" font-size="12px" text-anchor="start" x="1394.3" y="3396.0">fase 2.5-3: texto</text><text fill="gray" font-family="Arial, sans-serif" font-size="12px" text-anchor="start" x="1594.3" y="3576.0">lee computed_path</text><text fill="gray" font-family="Arial, sans-serif" font-size="12px" text-anchor="end" x="1162.7" y="3879.0">dwg.add()</text><text fill="gray" font-family="Arial, sans-serif" font-size="12px" text-anchor="middle" x="1278.5" y="3836.0">dwg.add()</text><text fill="gray" font-family="Arial, sans-serif" font-size="12px" text-anchor="middle" x="1343.5" y="3922.0">dwg.add()</text><text fill="gray" font-family="Arial, sans-serif" font-size="12px" text-anchor="start" x="1459.3" y="3879.0">dwg.add()</text><text fill="gray" font-family="Arial, sans-serif" font-size="12px" text-anchor="end" x="1260.2" y="4064.0">dwg.save()</text><text fill="black" font-family="Arial, sans-serif" font-size="16px" font-weight="bold" text-anchor="start" x="1288.0" y="906.0">Layout Module</text><text fill="black" font-family="Arial, sans-serif" font-size="16px" font-weight="bold" text-anchor="start" x="1288.0" y="924.0">(jerrquico v4.0)</text><text fill="black" font-family="Arial, sans-serif" font-size="16px" font-weight="bold" text-anchor="start" x="200.0" y="1480.0">LAF Module</text><text fill="black" font-family="Arial, sans-serif" font-size="16px" font-weight="bold" text-anchor="start" x="200.0" y="1498.0">(--layout-algorithm=laf)</text><text fill="black" font-family="Arial, sans-serif" font-size="16px" font-weight="bold" text-anchor="start" x="1830.0" y="3540.0">Routing Module</text><text fill="black" font-family="Arial, sans-serif" font-size="16px" font-weight="bold" text-anchor="start" x="1296.0" y="1480.0">Analysis Module</text><text fill="black" font-family="Arial, sans-serif" font-size="16px" font-weight="bold" text-anchor="start" x="1166.0" y="3540.0">Draw Module</text></svg>