<?xml version="1.0" encoding="utf-8" ?>
<svg baseProfile="full" height="3149" version="1.1" viewBox="0,0,1400,3149" width="1400" xmlns="http://www.w3.org/2000/svg" xmlns:ev="http://www.w3.org/2001/xml-events" xmlns:xlink="http://www.w3.org/1999/xlink"><defs><marker id="arrow-end" markerHeight="10" markerWidth="10" orient="auto" refX="10" refY="5"><path d="M 0 0 L 10 5 L 0 10 z" fill="black" /></marker><marker id="arrow-start" markerHeight="10" markerWidth="10" orient="auto" refX="0" refY="5"><path d="M 10 0 L 0 5 L 10 10 z" fill="black" /></marker><linearGradient id="gradient-layout_module-stage" x1="0%" x2="0%" y1="0%" y2="100%"><stop offset="0%" stop-color="#a6a6a6" /><stop offset="100%" stop-color="#595959" /></linearGradient><linearGradient id="gradient-laf_module-stage" x1="0%" x2="0%" y1="0%" y2="100%"><stop offset="0%" stop-color="#a6a6a6" /><stop offset="100%" stop-color="#595959" /></linearGradient><linearGradient id="gradient-routing_module-stage" x1="0%" x2="0%" y1="0%" y2="100%"><stop offset="0%" stop-color="#a6a6a6" /><stop offset="100%" stop-color="#595959" /></linearGradient><linearGradient id="gradient-analysis_module-stage" x1="0%" x2="0%" y1="0%" y2="100%"><stop offset="0%" stop-color="#a6a6a6" /><stop offset="100%" stop-color="#595959" /></linearGradient><linearGradient id="gradient-draw_module-stage" x1="0%" x2="0%" y1="0%" y2="100%"><stop offset="0%" stop-color="#a6a6a6" /><stop offset="100%" stop-color="#595959" /></linearGradient><linearGradient id="gradient-input" x1="0%" x2="0%" y1="0%" y2="100%"><stop offset="0%" stop-color="#a6a6a6" /><stop offset="100%" stop-color="#595959" /></linearGradient><linearGradient id="gradient-main" x1="0%" x2="0%" y1="0%" y2="100%"><stop offset="0%" stop-color="#a6a6a6" /><stop offset="100%" stop-color="#595959" /></linearGradient><linearGradient id="gradient-generator" x1="0%" x2="0%" y1="0%" y2="100%"><stop offset="0%" stop-color="#a6a6a6" /><stop offset="100%" stop-color="#595959" /></linearGradient><linearGradient id="gradient-svgwrite" x1="0%" x2="0%" y1="0%" y2="100%"><stop offset="0%" stop-color="#a6a6a6" /><stop offset="100%" stop-color="#595959" /></linearGradient><linearGradient id="gradient-layout" x1="0%" x2="0%" y1="0%" y2="100%"><stop offset="0%" stop-color="#a6a6a6" /><stop offset="100%" stop-color="#595959" /></linearGradient><linearGradient id="gradient-sizing" x1="0%" x2="0%" y1="0%" y2="100%"><stop offset="0%" stop-color="#a6a6a6" /><stop offset="100%" stop-color="#595959" /></linearGradient><linearGradient id="gradient-positioner" x1="0%" x2="0%" y1="0%" y2="100%"><stop offset="0%" stop-color="#a6a6a6" /><stop offset="100%" stop-color="#595959" /></linearGradient><linearGradient id="gradient-optimizer" x1="0%" x2="0%" y1="0%" y2="100%"><stop offset="0%" stop-color="#a6a6a6" /><stop offset="100%" stop-color="#595959" /></linearGradient><linearGradient id="gradient-laf_optimizer" x1="0%" x2="0%" y1="0%" y2="100%"><stop offset="0%" stop-color="#a6a6a6" /><stop offset="100%" stop-color="#595959" /></linearGradient><linearGradient id="gradient-label_position_optimizer" x1="0%" x2="0%" y1="0%" y2="100%"><stop offset="0%" stop-color="#a6a6a6" /><stop offset="100%" stop-color="#595959" /></linearGradient><linearGradient id="gradient-structure_analyzer" x1="0%" x2="0%" y1="0%" y2="100%"><stop offset="0%" stop-color="#a6a6a6" /><stop offset="100%" stop-color="#595959" /></linearGradient><linearGradient id="gradient-abstract_placer" x1="0%" x2="0%" y1="0%" y2="100%"><stop offset="0%" stop-color="#a6a6a6" /><stop offset="100%" stop-color="#595959" /></linearGradient><linearGradient id="gradient-inflator" x1="0%" x2="0%" y1="0%" y2="100%"><stop offset="0%" stop-color="#a6a6a6" /><stop offset="100%" stop-color="#595959" /></linearGradient><linearGradient id="gradient-container_grower" x1="0%" x2="0%" y1="0%" y2="100%"><stop offset="0%" stop-color="#a6a6a6" /><stop offset="100%" stop-color="#595959" /></linearGradient><linearGradient id="gradient-position_optimizer" x1="0%" x2="0%" y1="0%" y2="100%"><stop offset="0%" stop-color="#a6a6a6" /><stop offset="100%" stop-color="#595959" /></linearGradient><linearGradient id="gradient-xscale" x1="0%" x2="0%" y1="0%" y2="100%"><stop offset="0%" stop-color="#a6a6a6" /><stop offset="100%" stop-color="#595959" /></linearGradient><linearGradient id="gradient-router_mgr" x1="0%" x2="0%" y1="0%" y2="100%"><stop offset="0%" stop-color="#a6a6a6" /><stop offset="100%" stop-color="#595959" /></linearGradient><linearGradient id="gradient-routers" x1="0%" x2="0%" y1="0%" y2="100%"><stop offset="0%" stop-color="#a6a6a6" /><stop offset="100%" stop-color="#595959" /></linearGradient><linearGradient id="gradient-geometry" x1="0%" x2="0%" y1="0%" y2="100%"><stop offset="0%" stop-color="#a6a6a6" /><stop offset="100%" stop-color="#595959" /></linearGradient><linearGradient id="gradient-graph" x1="0%" x2="0%" y1="0%" y2="100%"><stop offset="0%" stop-color="#a6a6a6" /><stop offset="100%" stop-color="#595959" /></linearGradient><linearGradient id="gradient-collision" x1="0%" x2="0%" y1="0%" y2="100%"><stop offset="0%" stop-color="#a6a6a6" /><stop offset="100%" stop-color="#595959" /></linearGradient><linearGradient id="gradient-render" x1="0%" x2="0%" y1="0%" y2="100%"><stop offset="0%" stop-color="#a6a6a6" /><stop offset="100%" stop-color="#595959" /></linearGradient><linearGradient id="gradient-icons" x1="0%" x2="0%" y1="0%" y2="100%"><stop offset="0%" stop-color="#a6a6a6" /><stop offset="100%" stop-color="#595959" /></linearGradient><linearGradient id="gradient-connections" x1="0%" x2="0%" y1="0%" y2="100%"><stop offset="0%" stop-color="#a6a6a6" /><stop offset="100%" stop-color="#595959" /></linearGradient><linearGradient id="gradient-labels" x1="0%" x2="0%" y1="0%" y2="100%"><stop offset="0%" stop-color="#a6a6a6" /><stop offset="100%" stop-color="#595959" /></linearGradient><linearGradient id="gradient-containers" x1="0%" x2="0%" y1="0%" y2="100%"><stop offset="0%" stop-color="#a6a6a6" /><stop offset="100%" stop-color="#595959" /></linearGradient><linearGradient id="gradient-output" x1="0%" x2="0%" y1="0%" y2="100%"><stop offset="0%" stop-color="#a6a6a6" /><stop offset="100%" stop-color="#595959" /></linearGradient></defs><rect fill="url(#gradient-layout_module-stage)" height="241.0" opacity="0.3" rx="12.05" ry="12.05" stroke="black" stroke-width="2" width="246.0" x="368.90995199121335" y="890.0" /><rect fill="url(#gradient-laf_module-stage)" height="241.0" opacity="0.3" rx="12.05" ry="12.05" stroke="black" stroke-width="2" width="302.0" x="912.9082645660601" y="1371.0" /><rect fill="url(#gradient-routing_module-stage)" height="189.0" opacity="0.3" rx="9.450000000000001" ry="9.450000000000001" stroke="black" stroke-width="2" width="222.0" x="370.0" y="2450.0" /><rect fill="url(#gradient-analysis_module-stage)" height="259.0" opacity="0.3" rx="11.5" ry="11.5" stroke="black" stroke-width="2" width="230.0" x="642.9082645660601" y="1371.0" /><rect fill="url(#gradient-draw_module-stage)" height="259.0" opacity="0.3" rx="10.0" ry="10.0" stroke="black" stroke-width="2" width="200.0" x="100.0" y="2450.0" /><g id="input"><g transform="translate(367.1474821811478,30.0) scale(1.2048192771084338,0.6928406466512702) translate(-0.9,-1.4)"><path d="M 22.754087,32.116749 0.94545599,43.000013 V 4.7289739 L 22.754087,1.5702876 Z" fill="#e9e9ff" stroke="none" /><path d="M 50.712576,33.120864 V 1.4628125 L 22.754087,1.5702876 V 32.116749 Z" fill="#353564" stroke="none" /><path d="M 50.712576,33.120864 35.295871,44.770537 0.94545599,43.000013 22.754087,32.116749 Z" fill="#4d4d9f" stroke="none" /><path d="M 50.712576,1.4628125 35.295871,4.7384198 0.94545599,4.7289739 22.754087,1.5702876 Z" fill="#1c1ce6" opacity="1" stroke="none" /><path d="M 35.295871,44.770537 V 4.7384198 L 0.94545599,4.7289739 V 43.000013 Z" fill="#1a52ff" opacity="0.96" stroke="none" /><path d="M 50.712576,33.120864 35.295871,44.770537 V 4.7384198 L 50.712576,1.4628125 Z" fill="#1c9bd0" stroke="none" /><rect fill="none" height="43.3" opacity="0.67" stroke="#cbcbcb" stroke-width="0.48" width="49.8" x="0.9" y="1.4" /></g></g><rect fill="url(#gradient-main)" height="50" stroke="black" width="80" x="357.147482181167" y="310.0" /><rect fill="url(#gradient-generator)" height="50" stroke="black" width="80" x="362.08242947928966" y="600.0" /><ellipse cx="672.0824294792897" cy="625.0" fill="url(#gradient-svgwrite)" rx="40.0" ry="25.0" stroke="black" /><rect fill="url(#gradient-layout)" height="50" stroke="black" width="80" x="378.90995199121335" y="950.0" /><g id="sizing"><g transform="translate(488.90995199121335,960.0) scale(1.2048192771084338,0.6928406466512702) translate(-0.9,-1.4)"><path d="M 22.754087,32.116749 0.94545599,43.000013 V 4.7289739 L 22.754087,1.5702876 Z" fill="#e9e9ff" stroke="none" /><path d="M 50.712576,33.120864 V 1.4628125 L 22.754087,1.5702876 V 32.116749 Z" fill="#353564" stroke="none" /><path d="M 50.712576,33.120864 35.295871,44.770537 0.94545599,43.000013 22.754087,32.116749 Z" fill="#4d4d9f" stroke="none" /><path d="M 50.712576,1.4628125 35.295871,4.7384198 0.94545599,4.7289739 22.754087,1.5702876 Z" fill="#1c1ce6" opacity="1" stroke="none" /><path d="M 35.295871,44.770537 V 4.7384198 L 0.94545599,4.7289739 V 43.000013 Z" fill="#1a52ff" opacity="0.96" stroke="none" /><path d="M 50.712576,33.120864 35.295871,44.770537 V 4.7384198 L 50.712576,1.4628125 Z" fill="#1c9bd0" stroke="none" /><rect fill="none" height="43.3" opacity="0.67" stroke="#cbcbcb" stroke-width="0.48" width="49.8" x="0.9" y="1.4" /></g></g><g id="positioner"><g transform="translate(388.90995199121335,1030.0) scale(1.2048192771084338,0.6928406466512702) translate(-0.9,-1.4)"><path d="M 22.754087,32.116749 0.94545599,43.000013 V 4.7289739 L 22.754087,1.5702876 Z" fill="#e9e9ff" stroke="none" /><path d="M 50.712576,33.120864 V 1.4628125 L 22.754087,1.5702876 V 32.116749 Z" fill="#353564" stroke="none" /><path d="M 50.712576,33.120864 35.295871,44.770537 0.94545599,43.000013 22.754087,32.116749 Z" fill="#4d4d9f" stroke="none" /><path d="M 50.712576,1.4628125 35.295871,4.7384198 0.94545599,4.7289739 22.754087,1.5702876 Z" fill="#1c1ce6" opacity="1" stroke="none" /><path d="M 35.295871,44.770537 V 4.7384198 L 0.94545599,4.7289739 V 43.000013 Z" fill="#1a52ff" opacity="0.96" stroke="none" /><path d="M 50.712576,33.120864 35.295871,44.770537 V 4.7384198 L 50.712576,1.4628125 Z" fill="#1c9bd0" stroke="none" /><rect fill="none" height="43.3" opacity="0.67" stroke="#cbcbcb" stroke-width="0.48" width="49.8" x="0.9" y="1.4" /></g></g><rect fill="url(#gradient-optimizer)" height="50" stroke="black" width="80" x="102.90826456606013" y="1371.0" /><rect fill="url(#gradient-laf_optimizer)" height="50" stroke="black" width="80" x="372.9082645660601" y="1371.0" /><g id="label_position_optimizer"><g transform="translate(226.9653533721828,1880.0) scale(1.2048192771084338,0.6928406466512702) translate(-0.9,-1.4)"><path d="M 22.754087,32.116749 0.94545599,43.000013 V 4.7289739 L 22.754087,1.5702876 Z" fill="#e9e9ff" stroke="none" /><path d="M 50.712576,33.120864 V 1.4628125 L 22.754087,1.5702876 V 32.116749 Z" fill="#353564" stroke="none" /><path d="M 50.712576,33.120864 35.295871,44.770537 0.94545599,43.000013 22.754087,32.116749 Z" fill="#4d4d9f" stroke="none" /><path d="M 50.712576,1.4628125 35.295871,4.7384198 0.94545599,4.7289739 22.754087,1.5702876 Z" fill="#1c1ce6" opacity="1" stroke="none" /><path d="M 35.295871,44.770537 V 4.7384198 L 0.94545599,4.7289739 V 43.000013 Z" fill="#1a52ff" opacity="0.96" stroke="none" /><path d="M 50.712576,33.120864 35.295871,44.770537 V 4.7384198 L 50.712576,1.4628125 Z" fill="#1c9bd0" stroke="none" /><rect fill="none" height="43.3" opacity="0.67" stroke="#cbcbcb" stroke-width="0.48" width="49.8" x="0.9" y="1.4" /></g></g><g id="structure_analyzer"><g transform="translate(932.9082645660601,1441.0) scale(1.2048192771084338,0.6928406466512702) translate(-0.9,-1.4)"><path d="M 22.754087,32.116749 0.94545599,43.000013 V 4.7289739 L 22.754087,1.5702876 Z" fill="#e9e9ff" stroke="none" /><path d="M 50.712576,33.120864 V 1.4628125 L 22.754087,1.5702876 V 32.116749 Z" fill="#353564" stroke="none" /><path d="M 50.712576,33.120864 35.295871,44.770537 0.94545599,43.000013 22.754087,32.116749 Z" fill="#4d4d9f" stroke="none" /><path d="M 50.712576,1.4628125 35.295871,4.7384198 0.94545599,4.7289739 22.754087,1.5702876 Z" fill="#1c1ce6" opacity="1" stroke="none" /><path d="M 35.295871,44.770537 V 4.7384198 L 0.94545599,4.7289739 V 43.000013 Z" fill="#1a52ff" opacity="0.96" stroke="none" /><path d="M 50.712576,33.120864 35.295871,44.770537 V 4.7384198 L 50.712576,1.4628125 Z" fill="#1c9bd0" stroke="none" /><rect fill="none" height="43.3" opacity="0.67" stroke="#cbcbcb" stroke-width="0.48" width="49.8" x="0.9" y="1.4" /></g></g><g id="abstract_placer"><g transform="translate(1032.90826456606,1441.0) scale(1.2048192771084338,0.6928406466512702) translate(-0.9,-1.4)"><path d="M 22.754087,32.116749 0.94545599,43.000013 V 4.7289739 L 22.754087,1.5702876 Z" fill="#e9e9ff" stroke="none" /><path d="M 50.712576,33.120864 V 1.4628125 L 22.754087,1.5702876 V 32.116749 Z" fill="#353564" stroke="none" /><path d="M 50.712576,33.120864 35.295871,44.770537 0.94545599,43.000013 22.754087,32.116749 Z" fill="#4d4d9f" stroke="none" /><path d="M 50.712576,1.4628125 35.295871,4.7384198 0.94545599,4.7289739 22.754087,1.5702876 Z" fill="#1c1ce6" opacity="1" stroke="none" /><path d="M 35.295871,44.770537 V 4.7384198 L 0.94545599,4.7289739 V 43.000013 Z" fill="#1a52ff" opacity="0.96" stroke="none" /><path d="M 50.712576,33.120864 35.295871,44.770537 V 4.7384198 L 50.712576,1.4628125 Z" fill="#1c9bd0" stroke="none" /><rect fill="none" height="43.3" opacity="0.67" stroke="#cbcbcb" stroke-width="0.48" width="49.8" x="0.9" y="1.4" /></g></g><g id="inflator"><g transform="translate(932.9082645660601,1511.0) scale(1.2048192771084338,0.6928406466512702) translate(-0.9,-1.4)"><path d="M 22.754087,32.116749 0.94545599,43.000013 V 4.7289739 L 22.754087,1.5702876 Z" fill="#e9e9ff" stroke="none" /><path d="M 50.712576,33.120864 V 1.4628125 L 22.754087,1.5702876 V 32.116749 Z" fill="#353564" stroke="none" /><path d="M 50.712576,33.120864 35.295871,44.770537 0.94545599,43.000013 22.754087,32.116749 Z" fill="#4d4d9f" stroke="none" /><path d="M 50.712576,1.4628125 35.295871,4.7384198 0.94545599,4.7289739 22.754087,1.5702876 Z" fill="#1c1ce6" opacity="1" stroke="none" /><path d="M 35.295871,44.770537 V 4.7384198 L 0.94545599,4.7289739 V 43.000013 Z" fill="#1a52ff" opacity="0.96" stroke="none" /><path d="M 50.712576,33.120864 35.295871,44.770537 V 4.7384198 L 50.712576,1.4628125 Z" fill="#1c9bd0" stroke="none" /><rect fill="none" height="43.3" opacity="0.67" stroke="#cbcbcb" stroke-width="0.48" width="49.8" x="0.9" y="1.4" /></g></g><g id="container_grower"><g transform="translate(1032.90826456606,1511.0) scale(1.2048192771084338,0.6928406466512702) translate(-0.9,-1.4)"><path d="M 22.754087,32.116749 0.94545599,43.000013 V 4.7289739 L 22.754087,1.5702876 Z" fill="#e9e9ff" stroke="none" /><path d="M 50.712576,33.120864 V 1.4628125 L 22.754087,1.5702876 V 32.116749 Z" fill="#353564" stroke="none" /><path d="M 50.712576,33.120864 35.295871,44.770537 0.94545599,43.000013 22.754087,32.116749 Z" fill="#4d4d9f" stroke="none" /><path d="M 50.712576,1.4628125 35.295871,4.7384198 0.94545599,4.7289739 22.754087,1.5702876 Z" fill="#1c1ce6" opacity="1" stroke="none" /><path d="M 35.295871,44.770537 V 4.7384198 L 0.94545599,4.7289739 V 43.000013 Z" fill="#1a52ff" opacity="0.96" stroke="none" /><path d="M 50.712576,33.120864 35.295871,44.770537 V 4.7384198 L 50.712576,1.4628125 Z" fill="#1c9bd0" stroke="none" /><rect fill="none" height="43.3" opacity="0.67" stroke="#cbcbcb" stroke-width="0.48" width="49.8" x="0.9" y="1.4" /></g></g><g id="position_optimizer"><g transform="translate(1132.90826456606,1441.0) scale(1.2048192771084338,0.6928406466512702) translate(-0.9,-1.4)"><path d="M 22.754087,32.116749 0.94545599,43.000013 V 4.7289739 L 22.754087,1.5702876 Z" fill="#e9e9ff" stroke="none" /><path d="M 50.712576,33.120864 V 1.4628125 L 22.754087,1.5702876 V 32.116749 Z" fill="#353564" stroke="none" /><path d="M 50.712576,33.120864 35.295871,44.770537 0.94545599,43.000013 22.754087,32.116749 Z" fill="#4d4d9f" stroke="none" /><path d="M 50.712576,1.4628125 35.295871,4.7384198 0.94545599,4.7289739 22.754087,1.5702876 Z" fill="#1c1ce6" opacity="1" stroke="none" /><path d="M 35.295871,44.770537 V 4.7384198 L 0.94545599,4.7289739 V 43.000013 Z" fill="#1a52ff" opacity="0.96" stroke="none" /><path d="M 50.712576,33.120864 35.295871,44.770537 V 4.7384198 L 50.712576,1.4628125 Z" fill="#1c9bd0" stroke="none" /><rect fill="none" height="43.3" opacity="0.67" stroke="#cbcbcb" stroke-width="0.48" width="49.8" x="0.9" y="1.4" /></g></g><g id="xscale"><g transform="translate(1132.90826456606,1511.0) scale(1.2048192771084338,0.6928406466512702) translate(-0.9,-1.4)"><path d="M 22.754087,32.116749 0.94545599,43.000013 V 4.7289739 L 22.754087,1.5702876 Z" fill="#e9e9ff" stroke="none" /><path d="M 50.712576,33.120864 V 1.4628125 L 22.754087,1.5702876 V 32.116749 Z" fill="#353564" stroke="none" /><path d="M 50.712576,33.120864 35.295871,44.770537 0.94545599,43.000013 22.754087,32.116749 Z" fill="#4d4d9f" stroke="none" /><path d="M 50.712576,1.4628125 35.295871,4.7384198 0.94545599,4.7289739 22.754087,1.5702876 Z" fill="#1c1ce6" opacity="1" stroke="none" /><path d="M 35.295871,44.770537 V 4.7384198 L 0.94545599,4.7289739 V 43.000013 Z" fill="#1a52ff" opacity="0.96" stroke="none" /><path d="M 50.712576,33.120864 35.295871,44.770537 V 4.7384198 L 50.712576,1.4628125 Z" fill="#1c9bd0" stroke="none" /><rect fill="none" height="43.3" opacity="0.67" stroke="#cbcbcb" stroke-width="0.48" width="49.8" x="0.9" y="1.4" /></g></g><rect fill="url(#gradient-router_mgr)" height="50" stroke="black" width="80" x="380.0" y="2510.0" /><ellipse cx="520.0" cy="2535.0" fill="url(#gradient-routers)" rx="40.0" ry="25.0" stroke="black" /><g id="geometry"><g transform="translate(662.9082645660601,1441.0) scale(1.2048192771084338,0.6928406466512702) translate(-0.9,-1.4)"><path d="M 22.754087,32.116749 0.94545599,43.000013 V 4.7289739 L 22.754087,1.5702876 Z" fill="#e9e9ff" stroke="none" /><path d="M 50.712576,33.120864 V 1.4628125 L 22.754087,1.5702876 V 32.116749 Z" fill="#353564" stroke="none" /><path d="M 50.712576,33.120864 35.295871,44.770537 0.94545599,43.000013 22.754087,32.116749 Z" fill="#4d4d9f" stroke="none" /><path d="M 50.712576,1.4628125 35.295871,4.7384198 0.94545599,4.7289739 22.754087,1.5702876 Z" fill="#1c1ce6" opacity="1" stroke="none" /><path d="M 35.295871,44.770537 V 4.7384198 L 0.94545599,4.7289739 V 43.000013 Z" fill="#1a52ff" opacity="0.96" stroke="none" /><path d="M 50.712576,33.120864 35.295871,44.770537 V 4.7384198 L 50.712576,1.4628125 Z" fill="#1c9bd0" stroke="none" /><rect fill="none" height="43.3" opacity="0.67" stroke="#cbcbcb" stroke-width="0.48" width="49.8" x="0.9" y="1.4" /></g></g><g id="graph"><g transform="translate(762.9082645660601,1441.0) scale(1.2048192771084338,0.6928406466512702) translate(-0.9,-1.4)"><path d="M 22.754087,32.116749 0.94545599,43.000013 V 4.7289739 L 22.754087,1.5702876 Z" fill="#e9e9ff" stroke="none" /><path d="M 50.712576,33.120864 V 1.4628125 L 22.754087,1.5702876 V 32.116749 Z" fill="#353564" stroke="none" /><path d="M 50.712576,33.120864 35.295871,44.770537 0.94545599,43.000013 22.754087,32.116749 Z" fill="#4d4d9f" stroke="none" /><path d="M 50.712576,1.4628125 35.295871,4.7384198 0.94545599,4.7289739 22.754087,1.5702876 Z" fill="#1c1ce6" opacity="1" stroke="none" /><path d="M 35.295871,44.770537 V 4.7384198 L 0.94545599,4.7289739 V 43.000013 Z" fill="#1a52ff" opacity="0.96" stroke="none" /><path d="M 50.712576,33.120864 35.295871,44.770537 V 4.7384198 L 50.712576,1.4628125 Z" fill="#1c9bd0" stroke="none" /><rect fill="none" height="43.3" opacity="0.67" stroke="#cbcbcb" stroke-width="0.48" width="49.8" x="0.9" y="1.4" /></g></g><g id="collision"><g transform="translate(662.9082645660601,1511.0) scale(1.2048192771084338,0.6928406466512702) translate(-0.9,-1.4)"><path d="M 22.754087,32.116749 0.94545599,43.000013 V 4.7289739 L 22.754087,1.5702876 Z" fill="#e9e9ff" stroke="none" /><path d="M 50.712576,33.120864 V 1.4628125 L 22.754087,1.5702876 V 32.116749 Z" fill="#353564" stroke="none" /><path d="M 50.712576,33.120864 35.295871,44.770537 0.94545599,43.000013 22.754087,32.116749 Z" fill="#4d4d9f" stroke="none" /><path d="M 50.712576,1.4628125 35.295871,4.7384198 0.94545599,4.7289739 22.754087,1.5702876 Z" fill="#1c1ce6" opacity="1" stroke="none" /><path d="M 35.295871,44.770537 V 4.7384198 L 0.94545599,4.7289739 V 43.000013 Z" fill="#1a52ff" opacity="0.96" stroke="none" /><path d="M 50.712576,33.120864 35.295871,44.770537 V 4.7384198 L 50.712576,1.4628125 Z" fill="#1c9bd0" stroke="none" /><rect fill="none" height="43.3" opacity="0.67" stroke="#cbcbcb" stroke-width="0.48" width="49.8" x="0.9" y="1.4" /></g></g><rect fill="url(#gradient-render)" height="50" stroke="black" width="80" x="185.2068639742484" y="2160.0" /><g id="icons"><g transform="translate(120.0,2520.0) scale(1.2048192771084338,0.6928406466512702) translate(-0.9,-1.4)"><path d="M 22.754087,32.116749 0.94545599,43.000013 V 4.7289739 L 22.754087,1.5702876 Z" fill="#e9e9ff" stroke="none" /><path d="M 50.712576,33.120864 V 1.4628125 L 22.754087,1.5702876 V 32.116749 Z" fill="#353564" stroke="none" /><path d="M 50.712576,33.120864 35.295871,44.770537 0.94545599,43.000013 22.754087,32.116749 Z" fill="#4d4d9f" stroke="none" /><path d="M 50.712576,1.4628125 35.295871,4.7384198 0.94545599,4.7289739 22.754087,1.5702876 Z" fill="#1c1ce6" opacity="1" stroke="none" /><path d="M 35.295871,44.770537 V 4.7384198 L 0.94545599,4.7289739 V 43.000013 Z" fill="#1a52ff" opacity="0.96" stroke="none" /><path d="M 50.712576,33.120864 35.295871,44.770537 V 4.7384198 L 50.712576,1.4628125 Z" fill="#1c9bd0" stroke="none" /><rect fill="none" height="43.3" opacity="0.67" stroke="#cbcbcb" stroke-width="0.48" width="49.8" x="0.9" y="1.4" /></g></g><g id="connections"><g transform="translate(220.0,2520.0) scale(1.2048192771084338,0.6928406466512702) translate(-0.9,-1.4)"><path d="M 22.754087,32.116749 0.94545599,43.000013 V 4.7289739 L 22.754087,1.5702876 Z" fill="#e9e9ff" stroke="none" /><path d="M 50.712576,33.120864 V 1.4628125 L 22.754087,1.5702876 V 32.116749 Z" fill="#353564" stroke="none" /><path d="M 50.712576,33.120864 35.295871,44.770537 0.94545599,43.000013 22.754087,32.116749 Z" fill="#4d4d9f" stroke="none" /><path d="M 50.712576,1.4628125 35.295871,4.7384198 0.94545599,4.7289739 22.754087,1.5702876 Z" fill="#1c1ce6" opacity="1" stroke="none" /><path d="M 35.295871,44.770537 V 4.7384198 L 0.94545599,4.7289739 V 43.000013 Z" fill="#1a52ff" opacity="0.96" stroke="none" /><path d="M 50.712576,33.120864 35.295871,44.770537 V 4.7384198 L 50.712576,1.4628125 Z" fill="#1c9bd0" stroke="none" /><rect fill="none" height="43.3" opacity="0.67" stroke="#cbcbcb" stroke-width="0.48" width="49.8" x="0.9" y="1.4" /></g></g><g id="labels"><g transform="translate(120.0,2590.0) scale(1.2048192771084338,0.6928406466512702) translate(-0.9,-1.4)"><path d="M 22.754087,32.116749 0.94545599,43.000013 V 4.7289739 L 22.754087,1.5702876 Z" fill="#e9e9ff" stroke="none" /><path d="M 50.712576,33.120864 V 1.4628125 L 22.754087,1.5702876 V 32.116749 Z" fill="#353564" stroke="none" /><path d="M 50.712576,33.120864 35.295871,44.770537 0.94545599,43.000013 22.754087,32.116749 Z" fill="#4d4d9f" stroke="none" /><path d="M 50.712576,1.4628125 35.295871,4.7384198 0.94545599,4.7289739 22.754087,1.5702876 Z" fill="#1c1ce6" opacity="1" stroke="none" /><path d="M 35.295871,44.770537 V 4.7384198 L 0.94545599,4.7289739 V 43.000013 Z" fill="#1a52ff" opacity="0.96" stroke="none" /><path d="M 50.712576,33.120864 35.295871,44.770537 V 4.7384198 L 50.712576,1.4628125 Z" fill="#1c9bd0" stroke="none" /><rect fill="none" height="43.3" opacity="0.67" stroke="#cbcbcb" stroke-width="0.48" width="49.8" x="0.9" y="1.4" /></g></g><g id="containers"><g transform="translate(220.0,2590.0) scale(1.2048192771084338,0.6928406466512702) translate(-0.9,-1.4)"><path d="M 22.754087,32.116749 0.94545599,43.000013 V 4.7289739 L 22.754087,1.5702876 Z" fill="#e9e9ff" stroke="none" /><path d="M 50.712576,33.120864 V 1.4628125 L 22.754087,1.5702876 V 32.116749 Z" fill="#353564" stroke="none" /><path d="M 50.712576,33.120864 35.295871,44.770537 0.94545599,43.000013 22.754087,32.116749 Z" fill="#4d4d9f" stroke="none" /><path d="M 50.712576,1.4628125 35.295871,4.7384198 0.94545599,4.7289739 22.754087,1.5702876 Z" fill="#1c1ce6" opacity="1" stroke="none" /><path d="M 35.295871,44.770537 V 4.7384198 L 0.94545599,4.7289739 V 43.000013 Z" fill="#1a52ff" opacity="0.96" stroke="none" /><path d="M 50.712576,33.120864 35.295871,44.770537 V 4.7384198 L 50.712576,1.4628125 Z" fill="#1c9bd0" stroke="none" /><rect fill="none" height="43.3" opacity="0.67" stroke="#cbcbcb" stroke-width="0.48" width="49.8" x="0.9" y="1.4" /></g></g><g id="output"><g transform="translate(111.0488987986136,2959.0) scale(1.2048192771084338,0.6928406466512702) translate(-0.9,-1.4)"><path d="M 22.754087,32.116749 0.94545599,43.000013 V 4.7289739 L 22.754087,1.5702876 Z" fill="#e9e9ff" stroke="none" /><path d="M 50.712576,33.120864 V 1.4628125 L 22.754087,1.5702876 V 32.116749 Z" fill="#353564" stroke="none" /><path d="M 50.712576,33.120864 35.295871,44.770537 0.94545599,43.000013 22.754087,32.116749 Z" fill="#4d4d9f" stroke="none" /><path d="M 50.712576,1.4628125 35.295871,4.7384198 0.94545599,4.7289739 22.754087,1.5702876 Z" fill="#1c1ce6" opacity="1" stroke="none" /><path d="M 35.295871,44.770537 V 4.7384198 L 0.94545599,4.7289739 V 43.000013 Z" fill="#1a52ff" opacity="0.96" stroke="none" /><path d="M 50.712576,33.120864 35.295871,44.770537 V 4.7384198 L 50.712576,1.4628125 Z" fill="#1c9bd0" stroke="none" /><rect fill="none" height="43.3" opacity="0.67" stroke="#cbcbcb" stroke-width="0.48" width="49.8" x="0.9" y="1.4" /></g></g><g id="layout_module-stage_icon"><g transform="translate(368.90995199121335,890.0) scale(1.6,1.6666666666666667) translate(10,0)"><path d="m 211.5145,221.09759 -99.80744,57.62385 -99.807437,-57.62385 0,-115.2477 99.807437,-57.623854 99.80744,57.623854 z" fill="#a90000" opacity="0.72" stroke="#cbcbcb" stroke-width="0.48" transform="matrix(0.0751447,0.02631765,-0.04338481,0.0455835,8.97,11.04)" /><path d="m 211.5145,221.09759 -99.80744,57.62385 -99.807437,-57.62385 0,-115.2477 99.807437,-57.623854 99.80744,57.623854 z" fill="#ff7000" opacity="0.82" stroke="#cbcbcb" stroke-width="0.48" transform="matrix(0.0751447,0.02631765,-0.04338481,0.0455835,13.97,16.29)" /><path d="m 211.5145,221.09759 -99.80744,57.62385 -99.807437,-57.62385 0,-115.2477 99.807437,-57.623854 99.80744,57.623854 z" fill="#ffa900" opacity="0.72" stroke="#cbcbcb" stroke-width="0.48" transform="matrix(0.0751447,0.02631765,-0.04338481,0.0455835,18.97,11.04)" /><path d="m 211.5145,221.09759 -99.80744,57.62385 -99.807437,-57.62385 0,-115.2477 99.807437,-57.623854 99.80744,57.623854 z" fill="#d40000" opacity="0.85" stroke="#cbcbcb" stroke-width="0.48" transform="matrix(0.0751447,0.02631765,-0.04338481,0.0455835,18.97,21.54)" /><path d="m 211.5145,221.09759 -99.80744,57.62385 -99.807437,-57.62385 0,-115.2477 99.807437,-57.623854 99.80744,57.623854 z" fill="#a90000" opacity="1.0" stroke="#cbcbcb" stroke-width="0.48" transform="matrix(0.0751447,0.02631765,-0.04338481,0.0455835,23.97,26.80)" /><path d="m 211.5145,221.09759 -99.80744,57.62385 -99.807437,-57.62385 0,-115.2477 99.807437,-57.623854 99.80744,57.623854 z" fill="#ff7000" opacity="0.82" stroke="#cbcbcb" stroke-width="0.48" transform="matrix(0.0751447,0.02631765,-0.04338481,0.0455835,23.97,16.29)" /><path d="m 211.5145,221.09759 -99.80744,57.62385 -99.807437,-57.62385 0,-115.2477 99.807437,-57.623854 99.80744,57.623854 z" fill="#ffa900" opacity="0.72" stroke="#cbcbcb" stroke-width="0.48" transform="matrix(0.0751447,0.02631765,-0.04338481,0.0455835,28.97,11.04)" /><path d="m 211.5145,221.09759 -99.80744,57.62385 -99.807437,-57.62385 0,-115.2477 99.807437,-57.623854 99.80744,57.623854 z" fill="#d40000" opacity="0.85" stroke="#cbcbcb" stroke-width="0.48" transform="matrix(0.0751447,0.02631765,-0.04338481,0.0455835,28.97,21.54)" /><path d="m 211.5145,221.09759 -99.80744,57.62385 -99.807437,-57.62385 0,-115.2477 99.807437,-57.623854 99.80744,57.623854 z" fill="#ff7000" opacity="0.82" stroke="#cbcbcb" stroke-width="0.48" transform="matrix(0.0751447,0.02631765,-0.04338481,0.0455835,33.97,16.29)" /><path d="m 211.5145,221.09759 -99.80744,57.62385 -99.807437,-57.62385 0,-115.2477 99.807437,-57.623854 99.80744,57.623854 z" fill="#ffa900" opacity="0.72" stroke="#cbcbcb" stroke-width="0.48" transform="matrix(0.0751447,0.02631765,-0.04338481,0.0455835,38.97,11.04)" /><path d="m 211.5145,221.09759 -99.80744,57.62385 -99.807437,-57.62385 0,-115.2477 99.807437,-57.623854 99.80744,57.623854 z" fill="#ffd400" opacity="0.45" stroke="#cbcbcb" stroke-width="0.48" transform="matrix(0.0751447,0.02631765,-0.04338481,0.0455835,13.97,5.78)" /><path d="m 211.5145,221.09759 -99.80744,57.62385 -99.807437,-57.62385 0,-115.2477 99.807437,-57.623854 99.80744,57.623854 z" fill="#ffe200" opacity="0.5" stroke="#cbcbcb" stroke-width="0.48" transform="matrix(0.0751447,0.02631765,-0.04338481,0.0455835,18.97,0.53)" /><path d="m 211.5145,221.09759 -99.80744,57.62385 -99.807437,-57.62385 0,-115.2477 99.807437,-57.623854 99.80744,57.623854 z" fill="#ffd400" opacity="0.45" stroke="#cbcbcb" stroke-width="0.48" transform="matrix(0.0751447,0.02631765,-0.04338481,0.0455835,23.97,5.78)" /><path d="m 211.5145,221.09759 -99.80744,57.62385 -99.807437,-57.62385 0,-115.2477 99.807437,-57.623854 99.80744,57.623854 z" fill="#ffe200" opacity="0.6" stroke="#cbcbcb" stroke-width="0.48" transform="matrix(0.0751447,0.02631765,-0.04338481,0.0455835,23.97,-4.73)" /><path d="m 211.5145,221.09759 -99.80744,57.62385 -99.807437,-57.62385 0,-115.2477 99.807437,-57.623854 99.80744,57.623854 z" fill="#ffe200" opacity="0.5" stroke="#cbcbcb" stroke-width="0.48" transform="matrix(0.0751447,0.02631765,-0.04338481,0.0455835,28.97,0.53)" /><path d="m 211.5145,221.09759 -99.80744,57.62385 -99.807437,-57.62385 0,-115.2477 99.807437,-57.623854 99.80744,57.623854 z" fill="#ffd400" opacity="0.45" stroke="#cbcbcb" stroke-width="0.48" transform="matrix(0.0751447,0.02631765,-0.04338481,0.0455835,33.97,5.78)" /></g></g><g id="laf_module-stage_icon"><g transform="translate(912.9082645660601,1371.0) scale(1.6,1.6666666666666667) translate(10,0)"><path d="m 211.5145,221.09759 -99.80744,57.62385 -99.807437,-57.62385 0,-115.2477 99.807437,-57.623854 99.80744,57.623854 z" fill="#a90000" opacity="0.72" stroke="#cbcbcb" stroke-width="0.48" transform="matrix(0.0751447,0.02631765,-0.04338481,0.0455835,8.97,11.04)" /><path d="m 211.5145,221.09759 -99.80744,57.62385 -99.807437,-57.62385 0,-115.2477 99.807437,-57.623854 99.80744,57.623854 z" fill="#ff7000" opacity="0.82" stroke="#cbcbcb" stroke-width="0.48" transform="matrix(0.0751447,0.02631765,-0.04338481,0.0455835,13.97,16.29)" /><path d="m 211.5145,221.09759 -99.80744,57.62385 -99.807437,-57.62385 0,-115.2477 99.807437,-57.623854 99.80744,57.623854 z" fill="#ffa900" opacity="0.72" stroke="#cbcbcb" stroke-width="0.48" transform="matrix(0.0751447,0.02631765,-0.04338481,0.0455835,18.97,11.04)" /><path d="m 211.5145,221.09759 -99.80744,57.62385 -99.807437,-57.62385 0,-115.2477 99.807437,-57.623854 99.80744,57.623854 z" fill="#d40000" opacity="0.85" stroke="#cbcbcb" stroke-width="0.48" transform="matrix(0.0751447,0.02631765,-0.04338481,0.0455835,18.97,21.54)" /><path d="m 211.5145,221.09759 -99.80744,57.62385 -99.807437,-57.62385 0,-115.2477 99.807437,-57.623854 99.80744,57.623854 z" fill="#a90000" opacity="1.0" stroke="#cbcbcb" stroke-width="0.48" transform="matrix(0.0751447,0.02631765,-0.04338481,0.0455835,23.97,26.80)" /><path d="m 211.5145,221.09759 -99.80744,57.62385 -99.807437,-57.62385 0,-115.2477 99.807437,-57.623854 99.80744,57.623854 z" fill="#ff7000" opacity="0.82" stroke="#cbcbcb" stroke-width="0.48" transform="matrix(0.0751447,0.02631765,-0.04338481,0.0455835,23.97,16.29)" /><path d="m 211.5145,221.09759 -99.80744,57.62385 -99.807437,-57.62385 0,-115.2477 99.807437,-57.623854 99.80744,57.623854 z" fill="#ffa900" opacity="0.72" stroke="#cbcbcb" stroke-width="0.48" transform="matrix(0.0751447,0.02631765,-0.04338481,0.0455835,28.97,11.04)" /><path d="m 211.5145,221.09759 -99.80744,57.62385 -99.807437,-57.62385 0,-115.2477 99.807437,-57.623854 99.80744,57.623854 z" fill="#d40000" opacity="0.85" stroke="#cbcbcb" stroke-width="0.48" transform="matrix(0.0751447,0.02631765,-0.04338481,0.0455835,28.97,21.54)" /><path d="m 211.5145,221.09759 -99.80744,57.62385 -99.807437,-57.62385 0,-115.2477 99.807437,-57.623854 99.80744,57.623854 z" fill="#ff7000" opacity="0.82" stroke="#cbcbcb" stroke-width="0.48" transform="matrix(0.0751447,0.02631765,-0.04338481,0.0455835,33.97,16.29)" /><path d="m 211.5145,221.09759 -99.80744,57.62385 -99.807437,-57.62385 0,-115.2477 99.807437,-57.623854 99.80744,57.623854 z" fill="#ffa900" opacity="0.72" stroke="#cbcbcb" stroke-width="0.48" transform="matrix(0.0751447,0.02631765,-0.04338481,0.0455835,38.97,11.04)" /><path d="m 211.5145,221.09759 -99.80744,57.62385 -99.807437,-57.62385 0,-115.2477 99.807437,-57.623854 99.80744,57.623854 z" fill="#ffd400" opacity="0.45" stroke="#cbcbcb" stroke-width="0.48" transform="matrix(0.0751447,0.02631765,-0.04338481,0.0455835,13.97,5.78)" /><path d="m 211.5145,221.09759 -99.80744,57.62385 -99.807437,-57.62385 0,-115.2477 99.807437,-57.623854 99.80744,57.623854 z" fill="#ffe200" opacity="0.5" stroke="#cbcbcb" stroke-width="0.48" transform="matrix(0.0751447,0.02631765,-0.04338481,0.0455835,18.97,0.53)" /><path d="m 211.5145,221.09759 -99.80744,57.62385 -99.807437,-57.62385 0,-115.2477 99.807437,-57.623854 99.80744,57.623854 z" fill="#ffd400" opacity="0.45" stroke="#cbcbcb" stroke-width="0.48" transform="matrix(0.0751447,0.02631765,-0.04338481,0.0455835,23.97,5.78)" /><path d="m 211.5145,221.09759 -99.80744,57.62385 -99.807437,-57.62385 0,-115.2477 99.807437,-57.623854 99.80744,57.623854 z" fill="#ffe200" opacity="0.6" stroke="#cbcbcb" stroke-width="0.48" transform="matrix(0.0751447,0.02631765,-0.04338481,0.0455835,23.97,-4.73)" /><path d="m 211.5145,221.09759 -99.80744,57.62385 -99.807437,-57.62385 0,-115.2477 99.807437,-57.623854 99.80744,57.623854 z" fill="#ffe200" opacity="0.5" stroke="#cbcbcb" stroke-width="0.48" transform="matrix(0.0751447,0.02631765,-0.04338481,0.0455835,28.97,0.53)" /><path d="m 211.5145,221.09759 -99.80744,57.62385 -99.807437,-57.62385 0,-115.2477 99.807437,-57.623854 99.80744,57.623854 z" fill="#ffd400" opacity="0.45" stroke="#cbcbcb" stroke-width="0.48" transform="matrix(0.0751447,0.02631765,-0.04338481,0.0455835,33.97,5.78)" /></g></g><g id="routing_module-stage_icon"><g transform="translate(370.0,2450.0) scale(1.6,1.6666666666666667) translate(10,0)"><path d="m 211.5145,221.09759 -99.80744,57.62385 -99.807437,-57.62385 0,-115.2477 99.807437,-57.623854 99.80744,57.623854 z" fill="#a90000" opacity="0.72" stroke="#cbcbcb" stroke-width="0.48" transform="matrix(0.0751447,0.02631765,-0.04338481,0.0455835,8.97,11.04)" /><path d="m 211.5145,221.09759 -99.80744,57.62385 -99.807437,-57.62385 0,-115.2477 99.807437,-57.623854 99.80744,57.623854 z" fill="#ff7000" opacity="0.82" stroke="#cbcbcb" stroke-width="0.48" transform="matrix(0.0751447,0.02631765,-0.04338481,0.0455835,13.97,16.29)" /><path d="m 211.5145,221.09759 -99.80744,57.62385 -99.807437,-57.62385 0,-115.2477 99.807437,-57.623854 99.80744,57.623854 z" fill="#ffa900" opacity="0.72" stroke="#cbcbcb" stroke-width="0.48" transform="matrix(0.0751447,0.02631765,-0.04338481,0.0455835,18.97,11.04)" /><path d="m 211.5145,221.09759 -99.80744,57.62385 -99.807437,-57.62385 0,-115.2477 99.807437,-57.623854 99.80744,57.623854 z" fill="#d40000" opacity="0.85" stroke="#cbcbcb" stroke-width="0.48" transform="matrix(0.0751447,0.02631765,-0.04338481,0.0455835,18.97,21.54)" /><path d="m 211.5145,221.09759 -99.80744,57.62385 -99.807437,-57.62385 0,-115.2477 99.807437,-57.623854 99.80744,57.623854 z" fill="#a90000" opacity="1.0" stroke="#cbcbcb" stroke-width="0.48" transform="matrix(0.0751447,0.02631765,-0.04338481,0.0455835,23.97,26.80)" /><path d="m 211.5145,221.09759 -99.80744,57.62385 -99.807437,-57.62385 0,-115.2477 99.807437,-57.623854 99.80744,57.623854 z" fill="#ff7000" opacity="0.82" stroke="#cbcbcb" stroke-width="0.48" transform="matrix(0.0751447,0.02631765,-0.04338481,0.0455835,23.97,16.29)" /><path d="m 211.5145,221.09759 -99.80744,57.62385 -99.807437,-57.62385 0,-115.2477 99.807437,-57.623854 99.80744,57.623854 z" fill="#ffa900" opacity="0.72" stroke="#cbcbcb" stroke-width="0.48" transform="matrix(0.0751447,0.02631765,-0.04338481,0.0455835,28.97,11.04)" /><path d="m 211.5145,221.09759 -99.80744,57.62385 -99.807437,-57.62385 0,-115.2477 99.807437,-57.623854 99.80744,57.623854 z" fill="#d40000" opacity="0.85" stroke="#cbcbcb" stroke-width="0.48" transform="matrix(0.0751447,0.02631765,-0.04338481,0.0455835,28.97,21.54)" /><path d="m 211.5145,221.09759 -99.80744,57.62385 -99.807437,-57.62385 0,-115.2477 99.807437,-57.623854 99.80744,57.623854 z" fill="#ff7000" opacity="0.82" stroke="#cbcbcb" stroke-width="0.48" transform="matrix(0.0751447,0.02631765,-0.04338481,0.0455835,33.97,16.29)" /><path d="m 211.5145,221.09759 -99.80744,57.62385 -99.807437,-57.62385 0,-115.2477 99.807437,-57.623854 99.80744,57.623854 z" fill="#ffa900" opacity="0.72" stroke="#cbcbcb" stroke-width="0.48" transform="matrix(0.0751447,0.02631765,-0.04338481,0.0455835,38.97,11.04)" /><path d="m 211.5145,221.09759 -99.80744,57.62385 -99.807437,-57.62385 0,-115.2477 99.807437,-57.623854 99.80744,57.623854 z" fill="#ffd400" opacity="0.45" stroke="#cbcbcb" stroke-width="0.48" transform="matrix(0.0751447,0.02631765,-0.04338481,0.0455835,13.97,5.78)" /><path d="m 211.5145,221.09759 -99.80744,57.62385 -99.807437,-57.62385 0,-115.2477 99.807437,-57.623854 99.80744,57.623854 z" fill="#ffe200" opacity="0.5" stroke="#cbcbcb" stroke-width="0.48" transform="matrix(0.0751447,0.02631765,-0.04338481,0.0455835,18.97,0.53)" /><path d="m 211.5145,221.09759 -99.80744,57.62385 -99.807437,-57.62385 0,-115.2477 99.807437,-57.623854 99.80744,57.623854 z" fill="#ffd400" opacity="0.45" stroke="#cbcbcb" stroke-width="0.48" transform="matrix(0.0751447,0.02631765,-0.04338481,0.0455835,23.97,5.78)" /><path d="m 211.5145,221.09759 -99.80744,57.62385 -99.807437,-57.62385 0,-115.2477 99.807437,-57.623854 99.80744,57.623854 z" fill="#ffe200" opacity="0.6" stroke="#cbcbcb" stroke-width="0.48" transform="matrix(0.0751447,0.02631765,-0.04338481,0.0455835,23.97,-4.73)" /><path d="m 211.5145,221.09759 -99.80744,57.62385 -99.807437,-57.62385 0,-115.2477 99.807437,-57.623854 99.80744,57.623854 z" fill="#ffe200" opacity="0.5" stroke="#cbcbcb" stroke-width="0.48" transform="matrix(0.0751447,0.02631765,-0.04338481,0.0455835,28.97,0.53)" /><path d="m 211.5145,221.09759 -99.80744,57.62385 -99.807437,-57.62385 0,-115.2477 99.807437,-57.623854 99.80744,57.623854 z" fill="#ffd400" opacity="0.45" stroke="#cbcbcb" stroke-width="0.48" transform="matrix(0.0751447,0.02631765,-0.04338481,0.0455835,33.97,5.78)" /></g></g><g id="analysis_module-stage_icon"><g transform="translate(642.9082645660601,1371.0) scale(1.6,1.6666666666666667) translate(10,0)"><path d="m 211.5145,221.09759 -99.80744,57.62385 -99.807437,-57.62385 0,-115.2477 99.807437,-57.623854 99.80744,57.623854 z" fill="#a90000" opacity="0.72" stroke="#cbcbcb" stroke-width="0.48" transform="matrix(0.0751447,0.02631765,-0.04338481,0.0455835,8.97,11.04)" /><path d="m 211.5145,221.09759 -99.80744,57.62385 -99.807437,-57.62385 0,-115.2477 99.807437,-57.623854 99.80744,57.623854 z" fill="#ff7000" opacity="0.82" stroke="#cbcbcb" stroke-width="0.48" transform="matrix(0.0751447,0.02631765,-0.04338481,0.0455835,13.97,16.29)" /><path d="m 211.5145,221.09759 -99.80744,57.62385 -99.807437,-57.62385 0,-115.2477 99.807437,-57.623854 99.80744,57.623854 z" fill="#ffa900" opacity="0.72" stroke="#cbcbcb" stroke-width="0.48" transform="matrix(0.0751447,0.02631765,-0.04338481,0.0455835,18.97,11.04)" /><path d="m 211.5145,221.09759 -99.80744,57.62385 -99.807437,-57.62385 0,-115.2477 99.807437,-57.623854 99.80744,57.623854 z" fill="#d40000" opacity="0.85" stroke="#cbcbcb" stroke-width="0.48" transform="matrix(0.0751447,0.02631765,-0.04338481,0.0455835,18.97,21.54)" /><path d="m 211.5145,221.09759 -99.80744,57.62385 -99.807437,-57.62385 0,-115.2477 99.807437,-57.623854 99.80744,57.623854 z" fill="#a90000" opacity="1.0" stroke="#cbcbcb" stroke-width="0.48" transform="matrix(0.0751447,0.02631765,-0.04338481,0.0455835,23.97,26.80)" /><path d="m 211.5145,221.09759 -99.80744,57.62385 -99.807437,-57.62385 0,-115.2477 99.807437,-57.623854 99.80744,57.623854 z" fill="#ff7000" opacity="0.82" stroke="#cbcbcb" stroke-width="0.48" transform="matrix(0.0751447,0.02631765,-0.04338481,0.0455835,23.97,16.29)" /><path d="m 211.5145,221.09759 -99.80744,57.62385 -99.807437,-57.62385 0,-115.2477 99.807437,-57.623854 99.80744,57.623854 z" fill="#ffa900" opacity="0.72" stroke="#cbcbcb" stroke-width="0.48" transform="matrix(0.0751447,0.02631765,-0.04338481,0.0455835,28.97,11.04)" /><path d="m 211.5145,221.09759 -99.80744,57.62385 -99.807437,-57.62385 0,-115.2477 99.807437,-57.623854 99.80744,57.623854 z" fill="#d40000" opacity="0.85" stroke="#cbcbcb" stroke-width="0.48" transform="matrix(0.0751447,0.02631765,-0.04338481,0.0455835,28.97,21.54)" /><path d="m 211.5145,221.09759 -99.80744,57.62385 -99.807437,-57.62385 0,-115.2477 99.807437,-57.623854 99.80744,57.623854 z" fill="#ff7000" opacity="0.82" stroke="#cbcbcb" stroke-width="0.48" transform="matrix(0.0751447,0.02631765,-0.04338481,0.0455835,33.97,16.29)" /><path d="m 211.5145,221.09759 -99.80744,57.62385 -99.807437,-57.62385 0,-115.2477 99.807437,-57.623854 99.80744,57.623854 z" fill="#ffa900" opacity="0.72" stroke="#cbcbcb" stroke-width="0.48" transform="matrix(0.0751447,0.02631765,-0.04338481,0.0455835,38.97,11.04)" /><path d="m 211.5145,221.09759 -99.80744,57.62385 -99.807437,-57.62385 0,-115.2477 99.807437,-57.623854 99.80744,57.623854 z" fill="#ffd400" opacity="0.45" stroke="#cbcbcb" stroke-width="0.48" transform="matrix(0.0751447,0.02631765,-0.04338481,0.0455835,13.97,5.78)" /><path d="m 211.5145,221.09759 -99.80744,57.62385 -99.807437,-57.62385 0,-115.2477 99.807437,-57.623854 99.80744,57.623854 z" fill="#ffe200" opacity="0.5" stroke="#cbcbcb" stroke-width="0.48" transform="matrix(0.0751447,0.02631765,-0.04338481,0.0455835,18.97,0.53)" /><path d="m 211.5145,221.09759 -99.80744,57.62385 -99.807437,-57.62385 0,-115.2477 99.807437,-57.623854 99.80744,57.623854 z" fill="#ffd400" opacity="0.45" stroke="#cbcbcb" stroke-width="0.48" transform="matrix(0.0751447,0.02631765,-0.04338481,0.0455835,23.97,5.78)" /><path d="m 211.5145,221.09759 -99.80744,57.62385 -99.807437,-57.62385 0,-115.2477 99.807437,-57.623854 99.80744,57.623854 z" fill="#ffe200" opacity="0.6" stroke="#cbcbcb" stroke-width="0.48" transform="matrix(0.0751447,0.02631765,-0.04338481,0.0455835,23.97,-4.73)" /><path d="m 211.5145,221.09759 -99.80744,57.62385 -99.807437,-57.62385 0,-115.2477 99.807437,-57.623854 99.80744,57.623854 z" fill="#ffe200" opacity="0.5" stroke="#cbcbcb" stroke-width="0.48" transform="matrix(0.0751447,0.02631765,-0.04338481,0.0455835,28.97,0.53)" /><path d="m 211.5145,221.09759 -99.80744,57.62385 -99.807437,-57.62385 0,-115.2477 99.807437,-57.623854 99.80744,57.623854 z" fill="#ffd400" opacity="0.45" stroke="#cbcbcb" stroke-width="0.48" transform="matrix(0.0751447,0.02631765,-0.04338481,0.0455835,33.97,5.78)" /></g></g><g id="draw_module-stage_icon"><g transform="translate(100.0,2450.0) scale(1.6,1.6666666666666667) translate(10,0)"><path d="m 211.5145,221.09759 -99.80744,57.62385 -99.807437,-57.62385 0,-115.2477 99.807437,-57.623854 99.80744,57.623854 z" fill="#a90000" opacity="0.72" stroke="#cbcbcb" stroke-width="0.48" transform="matrix(0.0751447,0.02631765,-0.04338481,0.0455835,8.97,11.04)" /><path d="m 211.5145,221.09759 -99.80744,57.62385 -99.807437,-57.62385 0,-115.2477 99.807437,-57.623854 99.80744,57.623854 z" fill="#ff7000" opacity="0.82" stroke="#cbcbcb" stroke-width="0.48" transform="matrix(0.0751447,0.02631765,-0.04338481,0.0455835,13.97,16.29)" /><path d="m 211.5145,221.09759 -99.80744,57.62385 -99.807437,-57.62385 0,-115.2477 99.807437,-57.623854 99.80744,57.623854 z" fill="#ffa900" opacity="0.72" stroke="#cbcbcb" stroke-width="0.48" transform="matrix(0.0751447,0.02631765,-0.04338481,0.0455835,18.97,11.04)" /><path d="m 211.5145,221.09759 -99.80744,57.62385 -99.807437,-57.62385 0,-115.2477 99.807437,-57.623854 99.80744,57.623854 z" fill="#d40000" opacity="0.85" stroke="#cbcbcb" stroke-width="0.48" transform="matrix(0.0751447,0.02631765,-0.04338481,0.0455835,18.97,21.54)" /><path d="m 211.5145,221.09759 -99.80744,57.62385 -99.807437,-57.62385 0,-115.2477 99.807437,-57.623854 99.80744,57.623854 z" fill="#a90000" opacity="1.0" stroke="#cbcbcb" stroke-width="0.48" transform="matrix(0.0751447,0.02631765,-0.04338481,0.0455835,23.97,26.80)" /><path d="m 211.5145,221.09759 -99.80744,57.62385 -99.807437,-57.62385 0,-115.2477 99.807437,-57.623854 99.80744,57.623854 z" fill="#ff7000" opacity="0.82" stroke="#cbcbcb" stroke-width="0.48" transform="matrix(0.0751447,0.02631765,-0.04338481,0.0455835,23.97,16.29)" /><path d="m 211.5145,221.09759 -99.80744,57.62385 -99.807437,-57.62385 0,-115.2477 99.807437,-57.623854 99.80744,57.623854 z" fill="#ffa900" opacity="0.72" stroke="#cbcbcb" stroke-width="0.48" transform="matrix(0.0751447,0.02631765,-0.04338481,0.0455835,28.97,11.04)" /><path d="m 211.5145,221.09759 -99.80744,57.62385 -99.807437,-57.62385 0,-115.2477 99.807437,-57.623854 99.80744,57.623854 z" fill="#d40000" opacity="0.85" stroke="#cbcbcb" stroke-width="0.48" transform="matrix(0.0751447,0.02631765,-0.04338481,0.0455835,28.97,21.54)" /><path d="m 211.5145,221.09759 -99.80744,57.62385 -99.807437,-57.62385 0,-115.2477 99.807437,-57.623854 99.80744,57.623854 z" fill="#ff7000" opacity="0.82" stroke="#cbcbcb" stroke-width="0.48" transform="matrix(0.0751447,0.02631765,-0.04338481,0.0455835,33.97,16.29)" /><path d="m 211.5145,221.09759 -99.80744,57.62385 -99.807437,-57.62385 0,-115.2477 99.807437,-57.623854 99.80744,57.623854 z" fill="#ffa900" opacity="0.72" stroke="#cbcbcb" stroke-width="0.48" transform="matrix(0.0751447,0.02631765,-0.04338481,0.0455835,38.97,11.04)" /><path d="m 211.5145,221.09759 -99.80744,57.62385 -99.807437,-57.62385 0,-115.2477 99.807437,-57.623854 99.80744,57.623854 z" fill="#ffd400" opacity="0.45" stroke="#cbcbcb" stroke-width="0.48" transform="matrix(0.0751447,0.02631765,-0.04338481,0.0455835,13.97,5.78)" /><path d="m 211.5145,221.09759 -99.80744,57.62385 -99.807437,-57.62385 0,-115.2477 99.807437,-57.623854 99.80744,57.623854 z" fill="#ffe200" opacity="0.5" stroke="#cbcbcb" stroke-width="0.48" transform="matrix(0.0751447,0.02631765,-0.04338481,0.0455835,18.97,0.53)" /><path d="m 211.5145,221.09759 -99.80744,57.62385 -99.807437,-57.62385 0,-115.2477 99.807437,-57.623854 99.80744,57.623854 z" fill="#ffd400" opacity="0.45" stroke="#cbcbcb" stroke-width="0.48" transform="matrix(0.0751447,0.02631765,-0.04338481,0.0455835,23.97,5.78)" /><path d="m 211.5145,221.09759 -99.80744,57.62385 -99.807437,-57.62385 0,-115.2477 99.807437,-57.623854 99.80744,57.623854 z" fill="#ffe200" opacity="0.6" stroke="#cbcbcb" stroke-width="0.48" transform="matrix(0.0751447,0.02631765,-0.04338481,0.0455835,23.97,-4.73)" /><path d="m 211.5145,221.09759 -99.80744,57.62385 -99.807437,-57.62385 0,-115.2477 99.807437,-57.623854 99.80744,57.623854 z" fill="#ffe200" opacity="0.5" stroke="#cbcbcb" stroke-width="0.48" transform="matrix(0.0751447,0.02631765,-0.04338481,0.0455835,28.97,0.53)" /><path d="m 211.5145,221.09759 -99.80744,57.62385 -99.807437,-57.62385 0,-115.2477 99.807437,-57.623854 99.80744,57.623854 z" fill="#ffd400" opacity="0.45" stroke="#cbcbcb" stroke-width="0.48" transform="matrix(0.0751447,0.02631765,-0.04338481,0.0455835,33.97,5.78)" /></g></g><line marker-end="url(#arrow-end)" stroke="black" stroke-width="2" x1="397.1474821811499" x2="397.1474821811649" y1="77.0" y2="303.0" /><line marker-end="url(#arrow-end)" stroke="black" stroke-width="2" x1="397.6919492621562" x2="401.53796239830046" y1="366.99536772093296" y2="593.004632279067" /><line marker-end="url(#arrow-end)" stroke="black" stroke-width="2" x1="434.08242947928966" x2="632.0824294792897" y1="625.0" y2="625.0" /><line marker-end="url(#arrow-end)" stroke="black" stroke-width="2" x1="403.6191707173469" x2="417.3732107531561" y1="656.9630791127397" y2="943.0369208872603" /><line marker-end="url(#arrow-end)" stroke="black" stroke-width="2" x1="450.90995199121335" x2="486.90995199121335" y1="975.0" y2="975.0" /><line marker-end="url(#arrow-end)" stroke="black" stroke-width="2" x1="418.90995199121335" x2="418.90995199121335" y1="1007.0" y2="1013.0" /><line marker-end="url(#arrow-end)" stroke="black" stroke-width="2" x1="401.3653692167397" x2="160.45284734053382" y1="1001.7616818468056" y2="1369.2383181531945" /><line marker-end="url(#arrow-end)" stroke="black" stroke-width="2" x1="418.4538130713833" x2="413.36440348589014" y1="1006.9967488549355" y2="1364.0032511450645" /><line marker-end="url(#arrow-end)" stroke="black" stroke-width="2" x1="150.4724862822273" x2="412.43577828383286" y1="1427.093127051306" y2="2503.906872948694" /><line marker-end="url(#arrow-end)" stroke="black" stroke-width="2" x1="452.0" x2="480.0" y1="2535.0" y2="2535.0" /><line marker-end="url(#arrow-end)" stroke="black" stroke-width="2" x1="174.71953421751596" x2="661.0969949146042" y1="1399.4703203256133" y2="1452.5296796743867" /><line marker-end="url(#arrow-end)" stroke="black" stroke-width="2" x1="174.77279829463518" x2="761.043730837485" y1="1398.9413415749455" y2="1453.0586584250545" /><line marker-end="url(#arrow-end)" stroke="black" stroke-width="2" x1="174.05017217490524" x2="661.766356957215" y1="1403.360814525727" y2="1518.639185474273" /><line marker-end="url(#arrow-end)" stroke="black" stroke-width="2" x1="692.9082645660601" x2="692.9082645660601" y1="1494.0" y2="1488.0" /><line marker-end="url(#arrow-end)" stroke="black" stroke-width="2" x1="529.7953903249002" x2="682.0228262323733" y1="1005.0916472178494" y2="1425.9083527821506" /><line marker-end="url(#arrow-end)" stroke="black" stroke-width="2" x1="444.71953421751596" x2="931.0969949146042" y1="1399.4703203256133" y2="1452.5296796743867" /><line marker-end="url(#arrow-end)" stroke="black" stroke-width="2" x1="994.9082645660601" x2="1030.90826456606" y1="1456.0" y2="1456.0" /><line marker-end="url(#arrow-end)" stroke="black" stroke-width="2" x1="1094.90826456606" x2="1130.90826456606" y1="1456.0" y2="1456.0" /><line marker-end="url(#arrow-end)" stroke="black" stroke-width="2" x1="1132.7047971623476" x2="993.1117319697727" y1="1466.5712135912993" y2="1515.4287864087007" /><line marker-end="url(#arrow-end)" stroke="black" stroke-width="2" x1="994.9082645660601" x2="1030.90826456606" y1="1526.0" y2="1526.0" /><line marker-end="url(#arrow-end)" stroke="black" stroke-width="2" x1="1094.90826456606" x2="1130.90826456606" y1="1526.0" y2="1526.0" /><line marker-end="url(#arrow-end)" stroke="black" stroke-width="2" x1="413.1075017348534" x2="419.8007628312067" y1="1427.9993797525917" y2="2503.0006202474083" /><line marker-end="url(#arrow-end)" stroke="black" stroke-width="2" x1="444.5166794565903" x2="761.2998496755299" y1="1400.9908023511364" y2="1451.0091976488636" /><line marker-end="url(#arrow-end)" stroke="black" stroke-width="2" x1="444.1979418165372" x2="661.618587315583" y1="1402.704930839388" y2="1449.295069160612" /><line marker-end="url(#arrow-end)" stroke="black" stroke-width="2" x1="146.2280927422561" x2="221.8870357980524" y1="1427.8273269515448" y2="2153.172673048455" /><line marker-end="url(#arrow-end)" stroke="black" stroke-width="2" x1="405.5022231973389" x2="232.61290534296964" y1="1427.1311829400167" y2="2153.868817059983" /><line marker-end="url(#arrow-end)" stroke="black" stroke-width="2" x1="150.0386550028492" x2="249.83496293539372" y1="1427.1954729443064" y2="1863.8045270556936" /><line marker-end="url(#arrow-end)" stroke="black" stroke-width="2" x1="403.3631630400833" x2="266.5104548981596" y1="1426.5432649999766" y2="1864.4567350000234" /><line marker-end="url(#arrow-end)" stroke="black" stroke-width="2" x1="253.48179503589537" x2="228.6904223105358" y1="1926.8098227174828" y2="2153.190177282517" /><line marker-end="url(#arrow-end)" stroke="black" stroke-width="2" x1="218.48425480773682" x2="156.72260916651157" y1="2216.2858838135403" y2="2503.7141161864597" /><line marker-end="url(#arrow-end)" stroke="black" stroke-width="2" x1="227.46799894365998" x2="247.7388650305884" y1="2216.9200136066715" y2="2503.0799863933285" /><line marker-end="url(#arrow-end)" stroke="black" stroke-width="2" x1="219.5665293092533" x2="155.6403346649951" y1="2216.4989940294427" y2="2573.5010059705573" /><line marker-end="url(#arrow-end)" stroke="black" stroke-width="2" x1="227.0925820986003" x2="248.1142818756481" y1="2216.944390229827" y2="2573.055609770173" /><line marker-end="url(#arrow-end)" stroke="black" stroke-width="2" x1="282.0" x2="388.0" y1="2535.0" y2="2535.0" /><line marker-end="url(#arrow-end)" stroke="black" stroke-width="2" x1="149.34766351839437" x2="141.70123528021924" y1="2566.9933502014837" y2="2942.0066497985163" /><line marker-end="url(#arrow-end)" stroke="black" stroke-width="2" x1="242.29206619265025" x2="148.75683260596335" y1="2566.0578131300567" y2="2942.9421868699433" /><line marker-end="url(#arrow-end)" stroke="black" stroke-width="2" x1="149.22398102702408" x2="141.82491777158953" y1="2636.9905891560875" y2="2942.0094108439125" /><line marker-end="url(#arrow-end)" stroke="black" stroke-width="2" x1="240.93840258429455" x2="150.11049621431906" y1="2635.6901849501705" y2="2943.3098150498295" /><line marker-end="url(#arrow-end)" stroke="black" stroke-width="2" x1="141.0488987986136" x2="141.0488987986136" y1="2974.0" y2="2974.0" /><text fill="black" font-family="Arial, sans-serif" font-size="14px" text-anchor="middle" x="452.1474821811478" y="35.0">archivo.gag</text><text fill="black" font-family="Arial, sans-serif" font-size="14px" text-anchor="middle" x="452.1474821811478" y="53.0">(JSON SDJF v3.0)</text><text fill="black" font-family="Arial, sans-serif" font-size="14px" text-anchor="middle" x="452.147482181167" y="325.0">main.py</text><text fill="black" font-family="Arial, sans-serif" font-size="14px" text-anchor="middle" x="452.147482181167" y="343.0">(CLI)</text><text fill="black" font-family="Arial, sans-serif" font-size="14px" text-anchor="middle" x="347.08242947928966" y="615.0">generator.py</text><text fill="black" font-family="Arial, sans-serif" font-size="14px" text-anchor="middle" x="347.08242947928966" y="633.0">(orquestador)</text><text fill="black" font-family="Arial, sans-serif" font-size="14px" text-anchor="middle" x="672.0824294792897" y="660.0">svgwrite</text><text fill="black" font-family="Arial, sans-serif" font-size="14px" text-anchor="middle" x="672.0824294792897" y="678.0">(librera externa)</text><text fill="black" font-family="Arial, sans-serif" font-size="14px" text-anchor="middle" x="363.90995199121335" y="965.0">Layout</text><text fill="black" font-family="Arial, sans-serif" font-size="14px" text-anchor="middle" x="363.90995199121335" y="983.0">Patrn Inmutable</text><text fill="black" font-family="Arial, sans-serif" font-size="14px" text-anchor="middle" x="573.9099519912133" y="965.0">SizingCalculator</text><text fill="black" font-family="Arial, sans-serif" font-size="14px" text-anchor="middle" x="573.9099519912133" y="983.0">hp/wp</text><text fill="black" font-family="Arial, sans-serif" font-size="14px" text-anchor="middle" x="363.90995199121335" y="1035.0">AutoLayoutPositioner</text><text fill="black" font-family="Arial, sans-serif" font-size="14px" text-anchor="middle" x="363.90995199121335" y="1053.0">Layout jerrquico</text><text fill="black" font-family="Arial, sans-serif" font-size="14px" text-anchor="middle" x="87.90826456606013" y="1386.0">AutoLayoutOptimizer</text><text fill="black" font-family="Arial, sans-serif" font-size="14px" text-anchor="middle" x="87.90826456606013" y="1404.0">v4.0 Jerrquico</text><text fill="black" font-family="Arial, sans-serif" font-size="14px" text-anchor="middle" x="87.90826456606013" y="1422.0">(algoritmo AUTO)</text><text fill="black" font-family="Arial, sans-serif" font-size="14px" text-anchor="middle" x="467.9082645660601" y="1386.0">LAFOptimizer</text><text fill="black" font-family="Arial, sans-serif" font-size="14px" text-anchor="middle" x="467.9082645660601" y="1404.0">v1.4 (10 fases)</text><text fill="black" font-family="Arial, sans-serif" font-size="14px" text-anchor="middle" x="467.9082645660601" y="1422.0">(algoritmo LAF)</text><text fill="black" font-family="Arial, sans-serif" font-size="14px" text-anchor="middle" x="311.9653533721828" y="1885.0">LabelPositionOptimizer</text><text fill="black" font-family="Arial, sans-serif" font-size="14px" text-anchor="middle" x="311.9653533721828" y="1903.0">Scoring + Greedy</text><text fill="black" font-family="Arial, sans-serif" font-size="14px" text-anchor="middle" x="962.9082645660601" y="1393.0">StructureAnalyzer</text><text fill="black" font-family="Arial, sans-serif" font-size="14px" text-anchor="middle" x="962.9082645660601" y="1411.0">Fase 1: Topologa</text><text fill="black" font-family="Arial, sans-serif" font-size="14px" text-anchor="middle" x="1062.90826456606" y="1393.0">AbstractPlacer</text><text fill="black" font-family="Arial, sans-serif" font-size="14px" text-anchor="middle" x="1062.90826456606" y="1411.0">Fase 3: Minimiza cruces</text><text fill="black" font-family="Arial, sans-serif" font-size="14px" text-anchor="middle" x="962.9082645660601" y="1561.0">Inflator</text><text fill="black" font-family="Arial, sans-serif" font-size="14px" text-anchor="middle" x="962.9082645660601" y="1579.0">Fase 4: Dimensiones reales</text><text fill="black" font-family="Arial, sans-serif" font-size="14px" text-anchor="middle" x="1062.90826456606" y="1561.0">ContainerGrower</text><text fill="black" font-family="Arial, sans-serif" font-size="14px" text-anchor="middle" x="1062.90826456606" y="1579.0">Fase 6: Expansin bottom-up</text><text fill="black" font-family="Arial, sans-serif" font-size="14px" text-anchor="middle" x="1217.90826456606" y="1446.0">PositionOptimizer</text><text fill="black" font-family="Arial, sans-serif" font-size="14px" text-anchor="middle" x="1217.90826456606" y="1464.0">Fase 5: Layer-offset</text><text fill="black" font-family="Arial, sans-serif" font-size="14px" text-anchor="middle" x="1217.90826456606" y="1516.0">Global X Scale</text><text fill="black" font-family="Arial, sans-serif" font-size="14px" text-anchor="middle" x="1217.90826456606" y="1534.0">Fase 8: Preserva ngulos</text><text fill="black" font-family="Arial, sans-serif" font-size="14px" text-anchor="middle" x="420.0" y="2570.0">RouterManager</text><text fill="black" font-family="Arial, sans-serif" font-size="14px" text-anchor="middle" x="420.0" y="2588.0">Coordinador</text><text fill="black" font-family="Arial, sans-serif" font-size="14px" text-anchor="middle" x="520.0" y="2570.0">5 Routers</text><text fill="black" font-family="Arial, sans-serif" font-size="14px" text-anchor="middle" x="520.0" y="2588.0">straight/orthogonal</text><text fill="black" font-family="Arial, sans-serif" font-size="14px" text-anchor="middle" x="520.0" y="2606.0">bezier/arc/manual</text><text fill="black" font-family="Arial, sans-serif" font-size="14px" text-anchor="middle" x="692.9082645660601" y="1375.0">GeometryCalculator</text><text fill="black" font-family="Arial, sans-serif" font-size="14px" text-anchor="middle" x="692.9082645660601" y="1393.0">bboxes</text><text fill="black" font-family="Arial, sans-serif" font-size="14px" text-anchor="middle" x="692.9082645660601" y="1411.0">intersecciones</text><text fill="black" font-family="Arial, sans-serif" font-size="14px" text-anchor="middle" x="792.9082645660601" y="1357.0">GraphAnalyzer</text><text fill="black" font-family="Arial, sans-serif" font-size="14px" text-anchor="middle" x="792.9082645660601" y="1375.0">topologa + centralidad</text><text fill="black" font-family="Arial, sans-serif" font-size="14px" text-anchor="middle" x="792.9082645660601" y="1393.0">niveles</text><text fill="black" font-family="Arial, sans-serif" font-size="14px" text-anchor="middle" x="792.9082645660601" y="1411.0">resolucin conexiones</text><text fill="black" font-family="Arial, sans-serif" font-size="14px" text-anchor="middle" x="637.9082645660601" y="1516.0">CollisionDetector</text><text fill="black" font-family="Arial, sans-serif" font-size="14px" text-anchor="middle" x="637.9082645660601" y="1534.0">detect_all()</text><text fill="black" font-family="Arial, sans-serif" font-size="14px" text-anchor="middle" x="637.9082645660601" y="1552.0">count()</text><text fill="black" font-family="Arial, sans-serif" font-size="14px" text-anchor="middle" x="170.2068639742484" y="2175.0">Renderizado SVG</text><text fill="black" font-family="Arial, sans-serif" font-size="14px" text-anchor="middle" x="170.2068639742484" y="2193.0">(3 fases secuenciales)</text><text fill="black" font-family="Arial, sans-serif" font-size="14px" text-anchor="middle" x="95.0" y="2525.0">icons.py</text><text fill="black" font-family="Arial, sans-serif" font-size="14px" text-anchor="middle" x="95.0" y="2543.0">Fase 1: Shapes</text><text fill="black" font-family="Arial, sans-serif" font-size="14px" text-anchor="middle" x="95.0" y="2561.0">4 tipos + BWT</text><text fill="black" font-family="Arial, sans-serif" font-size="14px" text-anchor="middle" x="250.0" y="2454.0">connections.py</text><text fill="black" font-family="Arial, sans-serif" font-size="14px" text-anchor="middle" x="250.0" y="2472.0">Fase 2: Lines</text><text fill="black" font-family="Arial, sans-serif" font-size="14px" text-anchor="middle" x="250.0" y="2490.0">Routing types</text><text fill="black" font-family="Arial, sans-serif" font-size="14px" text-anchor="middle" x="95.0" y="2595.0">labels</text><text fill="black" font-family="Arial, sans-serif" font-size="14px" text-anchor="middle" x="95.0" y="2613.0">Fase 3: Text</text><text fill="black" font-family="Arial, sans-serif" font-size="14px" text-anchor="middle" x="95.0" y="2631.0">draw_*_label()</text><text fill="black" font-family="Arial, sans-serif" font-size="14px" text-anchor="middle" x="305.0" y="2595.0">container.py</text><text fill="black" font-family="Arial, sans-serif" font-size="14px" text-anchor="middle" x="305.0" y="2613.0">Agrupacin visual</text><text fill="black" font-family="Arial, sans-serif" font-size="14px" text-anchor="middle" x="305.0" y="2631.0">(v1.5)</text><text fill="black" font-family="Arial, sans-serif" font-size="14px" text-anchor="middle" x="141.0488987986136" y="3009.0">archivo.svg</text><text fill="black" font-family="Arial, sans-serif" font-size="14px" text-anchor="middle" x="141.0488987986136" y="3027.0">(Salida vectorial)</text><text fill="gray" font-family="Arial, sans-serif" font-size="12px" text-anchor="end" x="346.3474821811574" y="190.0">lee JSON</text><text fill="gray" font-family="Arial, sans-serif" font-size="12px" text-anchor="end" x="348.8149558302283" y="480.0">generate_diagram()</text><text fill="gray" font-family="Arial, sans-serif" font-size="12px" text-anchor="middle" x="533.0824294792897" y="582.0">Drawing()</text><text fill="gray" font-family="Arial, sans-serif" font-size="12px" text-anchor="end" x="359.6961907352515" y="800.0">Layout(...)</text><text fill="gray" font-family="Arial, sans-serif" font-size="12px" text-anchor="middle" x="468.90995199121335" y="932.0">usa</text><text fill="gray" font-family="Arial, sans-serif" font-size="12px" text-anchor="start" x="469.70995199121336" y="1010.0">usa</text><text fill="gray" font-family="Arial, sans-serif" font-size="12px" text-anchor="end" x="230.1091082786367" y="1185.5">if --layout-algorithm=auto
optimize()</text><text fill="gray" font-family="Arial, sans-serif" font-size="12px" text-anchor="middle" x="415.9091082786367" y="1228.5">if --layout-algorithm=laf
optimize()</text><text fill="gray" font-family="Arial, sans-serif" font-size="12px" text-anchor="end" x="230.65413228303004" y="1965.5">calculate_all_paths()</text><text fill="gray" font-family="Arial, sans-serif" font-size="12px" text-anchor="middle" x="466.0" y="2492.0">delega</text><text fill="gray" font-family="Arial, sans-serif" font-size="12px" text-anchor="end" x="367.1082645660601" y="1383.0">usa</text><text fill="gray" font-family="Arial, sans-serif" font-size="12px" text-anchor="start" x="518.70826456606" y="1469.0">analyze()</text><text fill="gray" font-family="Arial, sans-serif" font-size="12px" text-anchor="end" x="367.1082645660601" y="1461.0">evaluate()</text><text fill="gray" font-family="Arial, sans-serif" font-size="12px" text-anchor="start" x="743.70826456606" y="1491.0">usa bboxes</text><text fill="gray" font-family="Arial, sans-serif" font-size="12px" text-anchor="start" x="656.7091082786367" y="1215.5">calcula tamaos</text><text fill="gray" font-family="Arial, sans-serif" font-size="12px" text-anchor="end" x="637.1082645660601" y="1383.0">fase 1</text><text fill="gray" font-family="Arial, sans-serif" font-size="12px" text-anchor="end" x="962.1082645660601" y="1499.0">topologa</text><text fill="gray" font-family="Arial, sans-serif" font-size="12px" text-anchor="start" x="1163.70826456606" y="1413.0">posiciones abstractas</text><text fill="gray" font-family="Arial, sans-serif" font-size="12px" text-anchor="middle" x="1062.90826456606" y="1448.0">posiciones optimizadas</text><text fill="gray" font-family="Arial, sans-serif" font-size="12px" text-anchor="middle" x="1012.9082645660601" y="1483.0">dimensiones reales</text><text fill="gray" font-family="Arial, sans-serif" font-size="12px" text-anchor="middle" x="1112.90826456606" y="1569.0">escala global</text><text fill="gray" font-family="Arial, sans-serif" font-size="12px" text-anchor="start" x="467.25413228303006" y="1965.5">routing DUAL
(2 pasadas)</text><text fill="gray" font-family="Arial, sans-serif" font-size="12px" text-anchor="middle" x="602.9082645660601" y="1383.0">analyze()</text><text fill="gray" font-family="Arial, sans-serif" font-size="12px" text-anchor="middle" x="552.9082645660601" y="1383.0">usa</text><text fill="gray" font-family="Arial, sans-serif" font-size="12px" text-anchor="end" x="133.25756427015426" y="1790.5">layout optimizado
(AUTO)</text><text fill="gray" font-family="Arial, sans-serif" font-size="12px" text-anchor="start" x="369.8575642701543" y="1790.5">layout optimizado
(LAF)</text><text fill="gray" font-family="Arial, sans-serif" font-size="12px" text-anchor="end" x="149.13680896912143" y="1645.5">optimiza etiquetas</text><text fill="gray" font-family="Arial, sans-serif" font-size="12px" text-anchor="start" x="385.73680896912145" y="1645.5">optimiza etiquetas</text><text fill="gray" font-family="Arial, sans-serif" font-size="12px" text-anchor="end" x="190.2861086732156" y="2040.0">posiciones finales</text><text fill="gray" font-family="Arial, sans-serif" font-size="12px" text-anchor="end" x="136.8034319871242" y="2360.0">fase 1</text><text fill="gray" font-family="Arial, sans-serif" font-size="12px" text-anchor="start" x="288.4034319871242" y="2360.0">fase 2</text><text fill="gray" font-family="Arial, sans-serif" font-size="12px" text-anchor="end" x="136.8034319871242" y="2438.0">fase 3</text><text fill="gray" font-family="Arial, sans-serif" font-size="12px" text-anchor="end" x="186.8034319871242" y="2352.0">si usa contains</text><text fill="gray" font-family="Arial, sans-serif" font-size="12px" text-anchor="middle" x="335.0" y="2492.0">lee computed_path</text><text fill="gray" font-family="Arial, sans-serif" font-size="12px" text-anchor="end" x="94.7244493993068" y="2754.5">dwg.add()</text><text fill="gray" font-family="Arial, sans-serif" font-size="12px" text-anchor="start" x="246.3244493993068" y="2754.5">dwg.add()</text><text fill="gray" font-family="Arial, sans-serif" font-size="12px" text-anchor="start" x="196.3244493993068" y="2832.5">dwg.add()</text><text fill="gray" font-family="Arial, sans-serif" font-size="12px" text-anchor="end" x="144.72444939930682" y="2789.5">dwg.add()</text><text fill="gray" font-family="Arial, sans-serif" font-size="12px" text-anchor="end" x="90.24889879861361" y="2974.0">dwg.save()</text><text fill="black" font-family="Arial, sans-serif" font-size="16px" font-weight="bold" text-anchor="start" x="468.90995199121335" y="906.0">Layout Module</text><text fill="black" font-family="Arial, sans-serif" font-size="16px" font-weight="bold" text-anchor="start" x="468.90995199121335" y="924.0">(jerrquico v4.0)</text><text fill="black" font-family="Arial, sans-serif" font-size="16px" font-weight="bold" text-anchor="start" x="1012.9082645660601" y="1387.0">LAF Module</text><text fill="black" font-family="Arial, sans-serif" font-size="16px" font-weight="bold" text-anchor="start" x="1012.9082645660601" y="1405.0">(--layout-algorithm=laf)</text><text fill="black" font-family="Arial, sans-serif" font-size="16px" font-weight="bold" text-anchor="start" x="470.0" y="2466.0">Routing Module</text><text fill="black" font-family="Arial, sans-serif" font-size="16px" font-weight="bold" text-anchor="start" x="742.9082645660601" y="1387.0">Analysis Module</text><text fill="black" font-family="Arial, sans-serif" font-size="16px" font-weight="bold" text-anchor="start" x="200.0" y="2466.0">Draw Module</text></svg>