<?xml version="1.0" encoding="utf-8" ?>
<svg baseProfile="full" height="2859" version="1.1" viewBox="0,0,1400,2859" width="1400" xmlns="http://www.w3.org/2000/svg" xmlns:ev="http://www.w3.org/2001/xml-events" xmlns:xlink="http://www.w3.org/1999/xlink"><defs><marker id="arrow-end" markerHeight="10" markerWidth="10" orient="auto" refX="10" refY="5"><path d="M 0 0 L 10 5 L 0 10 z" fill="black" /></marker><marker id="arrow-start" markerHeight="10" markerWidth="10" orient="auto" refX="0" refY="5"><path d="M 10 0 L 0 5 L 10 10 z" fill="black" /></marker><linearGradient id="gradient-layout_container" x1="0%" x2="0%" y1="0%" y2="100%"><stop offset="0%" stop-color="#eeeeff" /><stop offset="100%" stop-color="#a2a2b2" /></linearGradient><linearGradient id="gradient-routing_container" x1="0%" x2="0%" y1="0%" y2="100%"><stop offset="0%" stop-color="#ffeeee" /><stop offset="100%" stop-color="#b2a2a2" /></linearGradient><linearGradient id="gradient-analysis_container" x1="0%" x2="0%" y1="0%" y2="100%"><stop offset="0%" stop-color="#fffaee" /><stop offset="100%" stop-color="#b2ada2" /></linearGradient><linearGradient id="gradient-draw_container" x1="0%" x2="0%" y1="0%" y2="100%"><stop offset="0%" stop-color="#f4eeff" /><stop offset="100%" stop-color="#a8a2b2" /></linearGradient><linearGradient id="gradient-input" x1="0%" x2="0%" y1="0%" y2="100%"><stop offset="0%" stop-color="#c5e3ed" /><stop offset="100%" stop-color="#7997a1" /></linearGradient><linearGradient id="gradient-main" x1="0%" x2="0%" y1="0%" y2="100%"><stop offset="0%" stop-color="#b1f3b1" /><stop offset="100%" stop-color="#64a664" /></linearGradient><linearGradient id="gradient-generator" x1="0%" x2="0%" y1="0%" y2="100%"><stop offset="0%" stop-color="#ffe34c" /><stop offset="100%" stop-color="#b29600" /></linearGradient><linearGradient id="gradient-svgwrite" x1="0%" x2="0%" y1="0%" y2="100%"><stop offset="0%" stop-color="#4cffff" /><stop offset="100%" stop-color="#00b2b2" /></linearGradient><linearGradient id="gradient-layout" x1="0%" x2="0%" y1="0%" y2="100%"><stop offset="0%" stop-color="#a6a6a6" /><stop offset="100%" stop-color="#595959" /></linearGradient><linearGradient id="gradient-sizing" x1="0%" x2="0%" y1="0%" y2="100%"><stop offset="0%" stop-color="#a6a6a6" /><stop offset="100%" stop-color="#595959" /></linearGradient><linearGradient id="gradient-positioner" x1="0%" x2="0%" y1="0%" y2="100%"><stop offset="0%" stop-color="#a6a6a6" /><stop offset="100%" stop-color="#595959" /></linearGradient><linearGradient id="gradient-optimizer" x1="0%" x2="0%" y1="0%" y2="100%"><stop offset="0%" stop-color="#ff917e" /><stop offset="100%" stop-color="#b24531" /></linearGradient><linearGradient id="gradient-router_mgr" x1="0%" x2="0%" y1="0%" y2="100%"><stop offset="0%" stop-color="#ff9797" /><stop offset="100%" stop-color="#b24a4a" /></linearGradient><linearGradient id="gradient-routers" x1="0%" x2="0%" y1="0%" y2="100%"><stop offset="0%" stop-color="#ffbca1" /><stop offset="100%" stop-color="#b27055" /></linearGradient><linearGradient id="gradient-geometry" x1="0%" x2="0%" y1="0%" y2="100%"><stop offset="0%" stop-color="#ffc04c" /><stop offset="100%" stop-color="#b27300" /></linearGradient><linearGradient id="gradient-graph" x1="0%" x2="0%" y1="0%" y2="100%"><stop offset="0%" stop-color="#a6a6a6" /><stop offset="100%" stop-color="#595959" /></linearGradient><linearGradient id="gradient-collision" x1="0%" x2="0%" y1="0%" y2="100%"><stop offset="0%" stop-color="#a6a6a6" /><stop offset="100%" stop-color="#595959" /></linearGradient><linearGradient id="gradient-render" x1="0%" x2="0%" y1="0%" y2="100%"><stop offset="0%" stop-color="#a64ca6" /><stop offset="100%" stop-color="#590059" /></linearGradient><linearGradient id="gradient-icons" x1="0%" x2="0%" y1="0%" y2="100%"><stop offset="0%" stop-color="#a64ca6" /><stop offset="100%" stop-color="#590059" /></linearGradient><linearGradient id="gradient-connections" x1="0%" x2="0%" y1="0%" y2="100%"><stop offset="0%" stop-color="#ffc04c" /><stop offset="100%" stop-color="#b27300" /></linearGradient><linearGradient id="gradient-labels" x1="0%" x2="0%" y1="0%" y2="100%"><stop offset="0%" stop-color="#ffd2da" /><stop offset="100%" stop-color="#b2868e" /></linearGradient><linearGradient id="gradient-containers" x1="0%" x2="0%" y1="0%" y2="100%"><stop offset="0%" stop-color="#a6a6a6" /><stop offset="100%" stop-color="#595959" /></linearGradient><linearGradient id="gradient-output" x1="0%" x2="0%" y1="0%" y2="100%"><stop offset="0%" stop-color="#b1f3b1" /><stop offset="100%" stop-color="#64a664" /></linearGradient></defs><rect fill="url(#gradient-layout_container)" height="241.0" opacity="0.3" rx="12.05" ry="12.05" stroke="black" stroke-width="2" width="246.0" x="332.71006135157677" y="890.0" /><rect fill="url(#gradient-routing_container)" height="189.0" opacity="0.3" rx="9.450000000000001" ry="9.450000000000001" stroke="black" stroke-width="2" width="222.0" x="340.0" y="2160.0" /><rect fill="url(#gradient-analysis_container)" height="259.0" opacity="0.3" rx="11.5" ry="11.5" stroke="black" stroke-width="2" width="230.0" x="456.1370567780409" y="1371.0" /><rect fill="url(#gradient-draw_container)" height="259.0" opacity="0.3" rx="10.0" ry="10.0" stroke="black" stroke-width="2" width="200.0" x="100.0" y="2160.0" /><g id="input"><g transform="translate(334.2415292448868,30.0) scale(1.2048192771084338,0.6928406466512702) translate(-0.9,-1.4)"><path d="M 22.754087,32.116749 0.94545599,43.000013 V 4.7289739 L 22.754087,1.5702876 Z" fill="#e9e9ff" stroke="none" /><path d="M 50.712576,33.120864 V 1.4628125 L 22.754087,1.5702876 V 32.116749 Z" fill="#353564" stroke="none" /><path d="M 50.712576,33.120864 35.295871,44.770537 0.94545599,43.000013 22.754087,32.116749 Z" fill="#4d4d9f" stroke="none" /><path d="M 50.712576,1.4628125 35.295871,4.7384198 0.94545599,4.7289739 22.754087,1.5702876 Z" fill="#1c1ce6" opacity="1" stroke="none" /><path d="M 35.295871,44.770537 V 4.7384198 L 0.94545599,4.7289739 V 43.000013 Z" fill="#1a52ff" opacity="0.96" stroke="none" /><path d="M 50.712576,33.120864 35.295871,44.770537 V 4.7384198 L 50.712576,1.4628125 Z" fill="#1c9bd0" stroke="none" /><rect fill="none" height="43.3" opacity="0.67" stroke="#cbcbcb" stroke-width="0.48" width="49.8" x="0.9" y="1.4" /></g></g><rect fill="url(#gradient-main)" height="50" stroke="black" width="80" x="324.24152924490386" y="310.0" /><rect fill="url(#gradient-generator)" height="50" stroke="black" width="80" x="327.8047204890868" y="600.0" /><ellipse cx="607.8047204890868" cy="625.0" fill="url(#gradient-svgwrite)" rx="40.0" ry="25.0" stroke="black" /><rect fill="url(#gradient-layout)" height="50" stroke="black" width="80" x="342.71006135157677" y="950.0" /><g id="sizing"><g transform="translate(452.71006135157677,960.0) scale(1.2048192771084338,0.6928406466512702) translate(-0.9,-1.4)"><path d="M 22.754087,32.116749 0.94545599,43.000013 V 4.7289739 L 22.754087,1.5702876 Z" fill="#e9e9ff" stroke="none" /><path d="M 50.712576,33.120864 V 1.4628125 L 22.754087,1.5702876 V 32.116749 Z" fill="#353564" stroke="none" /><path d="M 50.712576,33.120864 35.295871,44.770537 0.94545599,43.000013 22.754087,32.116749 Z" fill="#4d4d9f" stroke="none" /><path d="M 50.712576,1.4628125 35.295871,4.7384198 0.94545599,4.7289739 22.754087,1.5702876 Z" fill="#1c1ce6" opacity="1" stroke="none" /><path d="M 35.295871,44.770537 V 4.7384198 L 0.94545599,4.7289739 V 43.000013 Z" fill="#1a52ff" opacity="0.96" stroke="none" /><path d="M 50.712576,33.120864 35.295871,44.770537 V 4.7384198 L 50.712576,1.4628125 Z" fill="#1c9bd0" stroke="none" /><rect fill="none" height="43.3" opacity="0.67" stroke="#cbcbcb" stroke-width="0.48" width="49.8" x="0.9" y="1.4" /></g></g><g id="positioner"><g transform="translate(352.71006135157677,1030.0) scale(1.2048192771084338,0.6928406466512702) translate(-0.9,-1.4)"><path d="M 22.754087,32.116749 0.94545599,43.000013 V 4.7289739 L 22.754087,1.5702876 Z" fill="#e9e9ff" stroke="none" /><path d="M 50.712576,33.120864 V 1.4628125 L 22.754087,1.5702876 V 32.116749 Z" fill="#353564" stroke="none" /><path d="M 50.712576,33.120864 35.295871,44.770537 0.94545599,43.000013 22.754087,32.116749 Z" fill="#4d4d9f" stroke="none" /><path d="M 50.712576,1.4628125 35.295871,4.7384198 0.94545599,4.7289739 22.754087,1.5702876 Z" fill="#1c1ce6" opacity="1" stroke="none" /><path d="M 35.295871,44.770537 V 4.7384198 L 0.94545599,4.7289739 V 43.000013 Z" fill="#1a52ff" opacity="0.96" stroke="none" /><path d="M 50.712576,33.120864 35.295871,44.770537 V 4.7384198 L 50.712576,1.4628125 Z" fill="#1c9bd0" stroke="none" /><rect fill="none" height="43.3" opacity="0.67" stroke="#cbcbcb" stroke-width="0.48" width="49.8" x="0.9" y="1.4" /></g></g><rect fill="url(#gradient-optimizer)" height="50" stroke="black" width="80" x="216.13705677804091" y="1371.0" /><rect fill="url(#gradient-router_mgr)" height="50" stroke="black" width="80" x="350.0" y="2220.0" /><ellipse cx="490.0" cy="2245.0" fill="url(#gradient-routers)" rx="40.0" ry="25.0" stroke="black" /><g id="geometry"><g transform="translate(476.1370567780409,1441.0) scale(1.2048192771084338,0.6928406466512702) translate(-0.9,-1.4)"><path d="M 22.754087,32.116749 0.94545599,43.000013 V 4.7289739 L 22.754087,1.5702876 Z" fill="#e9e9ff" stroke="none" /><path d="M 50.712576,33.120864 V 1.4628125 L 22.754087,1.5702876 V 32.116749 Z" fill="#353564" stroke="none" /><path d="M 50.712576,33.120864 35.295871,44.770537 0.94545599,43.000013 22.754087,32.116749 Z" fill="#4d4d9f" stroke="none" /><path d="M 50.712576,1.4628125 35.295871,4.7384198 0.94545599,4.7289739 22.754087,1.5702876 Z" fill="#1c1ce6" opacity="1" stroke="none" /><path d="M 35.295871,44.770537 V 4.7384198 L 0.94545599,4.7289739 V 43.000013 Z" fill="#1a52ff" opacity="0.96" stroke="none" /><path d="M 50.712576,33.120864 35.295871,44.770537 V 4.7384198 L 50.712576,1.4628125 Z" fill="#1c9bd0" stroke="none" /><rect fill="none" height="43.3" opacity="0.67" stroke="#cbcbcb" stroke-width="0.48" width="49.8" x="0.9" y="1.4" /></g></g><g id="graph"><g transform="translate(576.1370567780409,1441.0) scale(1.2048192771084338,0.6928406466512702) translate(-0.9,-1.4)"><path d="M 22.754087,32.116749 0.94545599,43.000013 V 4.7289739 L 22.754087,1.5702876 Z" fill="#e9e9ff" stroke="none" /><path d="M 50.712576,33.120864 V 1.4628125 L 22.754087,1.5702876 V 32.116749 Z" fill="#353564" stroke="none" /><path d="M 50.712576,33.120864 35.295871,44.770537 0.94545599,43.000013 22.754087,32.116749 Z" fill="#4d4d9f" stroke="none" /><path d="M 50.712576,1.4628125 35.295871,4.7384198 0.94545599,4.7289739 22.754087,1.5702876 Z" fill="#1c1ce6" opacity="1" stroke="none" /><path d="M 35.295871,44.770537 V 4.7384198 L 0.94545599,4.7289739 V 43.000013 Z" fill="#1a52ff" opacity="0.96" stroke="none" /><path d="M 50.712576,33.120864 35.295871,44.770537 V 4.7384198 L 50.712576,1.4628125 Z" fill="#1c9bd0" stroke="none" /><rect fill="none" height="43.3" opacity="0.67" stroke="#cbcbcb" stroke-width="0.48" width="49.8" x="0.9" y="1.4" /></g></g><g id="collision"><g transform="translate(476.1370567780409,1511.0) scale(1.2048192771084338,0.6928406466512702) translate(-0.9,-1.4)"><path d="M 22.754087,32.116749 0.94545599,43.000013 V 4.7289739 L 22.754087,1.5702876 Z" fill="#e9e9ff" stroke="none" /><path d="M 50.712576,33.120864 V 1.4628125 L 22.754087,1.5702876 V 32.116749 Z" fill="#353564" stroke="none" /><path d="M 50.712576,33.120864 35.295871,44.770537 0.94545599,43.000013 22.754087,32.116749 Z" fill="#4d4d9f" stroke="none" /><path d="M 50.712576,1.4628125 35.295871,4.7384198 0.94545599,4.7289739 22.754087,1.5702876 Z" fill="#1c1ce6" opacity="1" stroke="none" /><path d="M 35.295871,44.770537 V 4.7384198 L 0.94545599,4.7289739 V 43.000013 Z" fill="#1a52ff" opacity="0.96" stroke="none" /><path d="M 50.712576,33.120864 35.295871,44.770537 V 4.7384198 L 50.712576,1.4628125 Z" fill="#1c9bd0" stroke="none" /><rect fill="none" height="43.3" opacity="0.67" stroke="#cbcbcb" stroke-width="0.48" width="49.8" x="0.9" y="1.4" /></g></g><rect fill="url(#gradient-render)" height="50" stroke="black" width="80" x="158.5973731881495" y="1870.0" /><g id="icons"><g transform="translate(120.0,2230.0) scale(1.2048192771084338,0.6928406466512702) translate(-0.9,-1.4)"><path d="M 22.754087,32.116749 0.94545599,43.000013 V 4.7289739 L 22.754087,1.5702876 Z" fill="#e9e9ff" stroke="none" /><path d="M 50.712576,33.120864 V 1.4628125 L 22.754087,1.5702876 V 32.116749 Z" fill="#353564" stroke="none" /><path d="M 50.712576,33.120864 35.295871,44.770537 0.94545599,43.000013 22.754087,32.116749 Z" fill="#4d4d9f" stroke="none" /><path d="M 50.712576,1.4628125 35.295871,4.7384198 0.94545599,4.7289739 22.754087,1.5702876 Z" fill="#1c1ce6" opacity="1" stroke="none" /><path d="M 35.295871,44.770537 V 4.7384198 L 0.94545599,4.7289739 V 43.000013 Z" fill="#1a52ff" opacity="0.96" stroke="none" /><path d="M 50.712576,33.120864 35.295871,44.770537 V 4.7384198 L 50.712576,1.4628125 Z" fill="#1c9bd0" stroke="none" /><rect fill="none" height="43.3" opacity="0.67" stroke="#cbcbcb" stroke-width="0.48" width="49.8" x="0.9" y="1.4" /></g></g><g id="connections"><g transform="translate(220.0,2230.0) scale(1.2048192771084338,0.6928406466512702) translate(-0.9,-1.4)"><path d="M 22.754087,32.116749 0.94545599,43.000013 V 4.7289739 L 22.754087,1.5702876 Z" fill="#e9e9ff" stroke="none" /><path d="M 50.712576,33.120864 V 1.4628125 L 22.754087,1.5702876 V 32.116749 Z" fill="#353564" stroke="none" /><path d="M 50.712576,33.120864 35.295871,44.770537 0.94545599,43.000013 22.754087,32.116749 Z" fill="#4d4d9f" stroke="none" /><path d="M 50.712576,1.4628125 35.295871,4.7384198 0.94545599,4.7289739 22.754087,1.5702876 Z" fill="#1c1ce6" opacity="1" stroke="none" /><path d="M 35.295871,44.770537 V 4.7384198 L 0.94545599,4.7289739 V 43.000013 Z" fill="#1a52ff" opacity="0.96" stroke="none" /><path d="M 50.712576,33.120864 35.295871,44.770537 V 4.7384198 L 50.712576,1.4628125 Z" fill="#1c9bd0" stroke="none" /><rect fill="none" height="43.3" opacity="0.67" stroke="#cbcbcb" stroke-width="0.48" width="49.8" x="0.9" y="1.4" /></g></g><g id="labels"><g transform="translate(120.0,2300.0) scale(1.2048192771084338,0.6928406466512702) translate(-0.9,-1.4)"><path d="M 22.754087,32.116749 0.94545599,43.000013 V 4.7289739 L 22.754087,1.5702876 Z" fill="#e9e9ff" stroke="none" /><path d="M 50.712576,33.120864 V 1.4628125 L 22.754087,1.5702876 V 32.116749 Z" fill="#353564" stroke="none" /><path d="M 50.712576,33.120864 35.295871,44.770537 0.94545599,43.000013 22.754087,32.116749 Z" fill="#4d4d9f" stroke="none" /><path d="M 50.712576,1.4628125 35.295871,4.7384198 0.94545599,4.7289739 22.754087,1.5702876 Z" fill="#1c1ce6" opacity="1" stroke="none" /><path d="M 35.295871,44.770537 V 4.7384198 L 0.94545599,4.7289739 V 43.000013 Z" fill="#1a52ff" opacity="0.96" stroke="none" /><path d="M 50.712576,33.120864 35.295871,44.770537 V 4.7384198 L 50.712576,1.4628125 Z" fill="#1c9bd0" stroke="none" /><rect fill="none" height="43.3" opacity="0.67" stroke="#cbcbcb" stroke-width="0.48" width="49.8" x="0.9" y="1.4" /></g></g><g id="containers"><g transform="translate(220.0,2300.0) scale(1.2048192771084338,0.6928406466512702) translate(-0.9,-1.4)"><path d="M 22.754087,32.116749 0.94545599,43.000013 V 4.7289739 L 22.754087,1.5702876 Z" fill="#e9e9ff" stroke="none" /><path d="M 50.712576,33.120864 V 1.4628125 L 22.754087,1.5702876 V 32.116749 Z" fill="#353564" stroke="none" /><path d="M 50.712576,33.120864 35.295871,44.770537 0.94545599,43.000013 22.754087,32.116749 Z" fill="#4d4d9f" stroke="none" /><path d="M 50.712576,1.4628125 35.295871,4.7384198 0.94545599,4.7289739 22.754087,1.5702876 Z" fill="#1c1ce6" opacity="1" stroke="none" /><path d="M 35.295871,44.770537 V 4.7384198 L 0.94545599,4.7289739 V 43.000013 Z" fill="#1a52ff" opacity="0.96" stroke="none" /><path d="M 50.712576,33.120864 35.295871,44.770537 V 4.7384198 L 50.712576,1.4628125 Z" fill="#1c9bd0" stroke="none" /><rect fill="none" height="43.3" opacity="0.67" stroke="#cbcbcb" stroke-width="0.48" width="49.8" x="0.9" y="1.4" /></g></g><g id="output"><g transform="translate(111.35335413356188,2669.0) scale(1.2048192771084338,0.6928406466512702) translate(-0.9,-1.4)"><path d="M 22.754087,32.116749 0.94545599,43.000013 V 4.7289739 L 22.754087,1.5702876 Z" fill="#e9e9ff" stroke="none" /><path d="M 50.712576,33.120864 V 1.4628125 L 22.754087,1.5702876 V 32.116749 Z" fill="#353564" stroke="none" /><path d="M 50.712576,33.120864 35.295871,44.770537 0.94545599,43.000013 22.754087,32.116749 Z" fill="#4d4d9f" stroke="none" /><path d="M 50.712576,1.4628125 35.295871,4.7384198 0.94545599,4.7289739 22.754087,1.5702876 Z" fill="#1c1ce6" opacity="1" stroke="none" /><path d="M 35.295871,44.770537 V 4.7384198 L 0.94545599,4.7289739 V 43.000013 Z" fill="#1a52ff" opacity="0.96" stroke="none" /><path d="M 50.712576,33.120864 35.295871,44.770537 V 4.7384198 L 50.712576,1.4628125 Z" fill="#1c9bd0" stroke="none" /><rect fill="none" height="43.3" opacity="0.67" stroke="#cbcbcb" stroke-width="0.48" width="49.8" x="0.9" y="1.4" /></g></g><g id="layout_container_icon"><g transform="translate(332.71006135157677,890.0) scale(1.6,1.6666666666666667) translate(10,0)"><path d="m 211.5145,221.09759 -99.80744,57.62385 -99.807437,-57.62385 0,-115.2477 99.807437,-57.623854 99.80744,57.623854 z" fill="#a90000" opacity="0.72" stroke="#cbcbcb" stroke-width="0.48" transform="matrix(0.0751447,0.02631765,-0.04338481,0.0455835,8.97,11.04)" /><path d="m 211.5145,221.09759 -99.80744,57.62385 -99.807437,-57.62385 0,-115.2477 99.807437,-57.623854 99.80744,57.623854 z" fill="#ff7000" opacity="0.82" stroke="#cbcbcb" stroke-width="0.48" transform="matrix(0.0751447,0.02631765,-0.04338481,0.0455835,13.97,16.29)" /><path d="m 211.5145,221.09759 -99.80744,57.62385 -99.807437,-57.62385 0,-115.2477 99.807437,-57.623854 99.80744,57.623854 z" fill="#ffa900" opacity="0.72" stroke="#cbcbcb" stroke-width="0.48" transform="matrix(0.0751447,0.02631765,-0.04338481,0.0455835,18.97,11.04)" /><path d="m 211.5145,221.09759 -99.80744,57.62385 -99.807437,-57.62385 0,-115.2477 99.807437,-57.623854 99.80744,57.623854 z" fill="#d40000" opacity="0.85" stroke="#cbcbcb" stroke-width="0.48" transform="matrix(0.0751447,0.02631765,-0.04338481,0.0455835,18.97,21.54)" /><path d="m 211.5145,221.09759 -99.80744,57.62385 -99.807437,-57.62385 0,-115.2477 99.807437,-57.623854 99.80744,57.623854 z" fill="#a90000" opacity="1.0" stroke="#cbcbcb" stroke-width="0.48" transform="matrix(0.0751447,0.02631765,-0.04338481,0.0455835,23.97,26.80)" /><path d="m 211.5145,221.09759 -99.80744,57.62385 -99.807437,-57.62385 0,-115.2477 99.807437,-57.623854 99.80744,57.623854 z" fill="#ff7000" opacity="0.82" stroke="#cbcbcb" stroke-width="0.48" transform="matrix(0.0751447,0.02631765,-0.04338481,0.0455835,23.97,16.29)" /><path d="m 211.5145,221.09759 -99.80744,57.62385 -99.807437,-57.62385 0,-115.2477 99.807437,-57.623854 99.80744,57.623854 z" fill="#ffa900" opacity="0.72" stroke="#cbcbcb" stroke-width="0.48" transform="matrix(0.0751447,0.02631765,-0.04338481,0.0455835,28.97,11.04)" /><path d="m 211.5145,221.09759 -99.80744,57.62385 -99.807437,-57.62385 0,-115.2477 99.807437,-57.623854 99.80744,57.623854 z" fill="#d40000" opacity="0.85" stroke="#cbcbcb" stroke-width="0.48" transform="matrix(0.0751447,0.02631765,-0.04338481,0.0455835,28.97,21.54)" /><path d="m 211.5145,221.09759 -99.80744,57.62385 -99.807437,-57.62385 0,-115.2477 99.807437,-57.623854 99.80744,57.623854 z" fill="#ff7000" opacity="0.82" stroke="#cbcbcb" stroke-width="0.48" transform="matrix(0.0751447,0.02631765,-0.04338481,0.0455835,33.97,16.29)" /><path d="m 211.5145,221.09759 -99.80744,57.62385 -99.807437,-57.62385 0,-115.2477 99.807437,-57.623854 99.80744,57.623854 z" fill="#ffa900" opacity="0.72" stroke="#cbcbcb" stroke-width="0.48" transform="matrix(0.0751447,0.02631765,-0.04338481,0.0455835,38.97,11.04)" /><path d="m 211.5145,221.09759 -99.80744,57.62385 -99.807437,-57.62385 0,-115.2477 99.807437,-57.623854 99.80744,57.623854 z" fill="#ffd400" opacity="0.45" stroke="#cbcbcb" stroke-width="0.48" transform="matrix(0.0751447,0.02631765,-0.04338481,0.0455835,13.97,5.78)" /><path d="m 211.5145,221.09759 -99.80744,57.62385 -99.807437,-57.62385 0,-115.2477 99.807437,-57.623854 99.80744,57.623854 z" fill="#ffe200" opacity="0.5" stroke="#cbcbcb" stroke-width="0.48" transform="matrix(0.0751447,0.02631765,-0.04338481,0.0455835,18.97,0.53)" /><path d="m 211.5145,221.09759 -99.80744,57.62385 -99.807437,-57.62385 0,-115.2477 99.807437,-57.623854 99.80744,57.623854 z" fill="#ffd400" opacity="0.45" stroke="#cbcbcb" stroke-width="0.48" transform="matrix(0.0751447,0.02631765,-0.04338481,0.0455835,23.97,5.78)" /><path d="m 211.5145,221.09759 -99.80744,57.62385 -99.807437,-57.62385 0,-115.2477 99.807437,-57.623854 99.80744,57.623854 z" fill="#ffe200" opacity="0.6" stroke="#cbcbcb" stroke-width="0.48" transform="matrix(0.0751447,0.02631765,-0.04338481,0.0455835,23.97,-4.73)" /><path d="m 211.5145,221.09759 -99.80744,57.62385 -99.807437,-57.62385 0,-115.2477 99.807437,-57.623854 99.80744,57.623854 z" fill="#ffe200" opacity="0.5" stroke="#cbcbcb" stroke-width="0.48" transform="matrix(0.0751447,0.02631765,-0.04338481,0.0455835,28.97,0.53)" /><path d="m 211.5145,221.09759 -99.80744,57.62385 -99.807437,-57.62385 0,-115.2477 99.807437,-57.623854 99.80744,57.623854 z" fill="#ffd400" opacity="0.45" stroke="#cbcbcb" stroke-width="0.48" transform="matrix(0.0751447,0.02631765,-0.04338481,0.0455835,33.97,5.78)" /></g></g><g id="routing_container_icon"><g transform="translate(340.0,2160.0) scale(1.6,1.6666666666666667) translate(10,0)"><path d="m 211.5145,221.09759 -99.80744,57.62385 -99.807437,-57.62385 0,-115.2477 99.807437,-57.623854 99.80744,57.623854 z" fill="#a90000" opacity="0.72" stroke="#cbcbcb" stroke-width="0.48" transform="matrix(0.0751447,0.02631765,-0.04338481,0.0455835,8.97,11.04)" /><path d="m 211.5145,221.09759 -99.80744,57.62385 -99.807437,-57.62385 0,-115.2477 99.807437,-57.623854 99.80744,57.623854 z" fill="#ff7000" opacity="0.82" stroke="#cbcbcb" stroke-width="0.48" transform="matrix(0.0751447,0.02631765,-0.04338481,0.0455835,13.97,16.29)" /><path d="m 211.5145,221.09759 -99.80744,57.62385 -99.807437,-57.62385 0,-115.2477 99.807437,-57.623854 99.80744,57.623854 z" fill="#ffa900" opacity="0.72" stroke="#cbcbcb" stroke-width="0.48" transform="matrix(0.0751447,0.02631765,-0.04338481,0.0455835,18.97,11.04)" /><path d="m 211.5145,221.09759 -99.80744,57.62385 -99.807437,-57.62385 0,-115.2477 99.807437,-57.623854 99.80744,57.623854 z" fill="#d40000" opacity="0.85" stroke="#cbcbcb" stroke-width="0.48" transform="matrix(0.0751447,0.02631765,-0.04338481,0.0455835,18.97,21.54)" /><path d="m 211.5145,221.09759 -99.80744,57.62385 -99.807437,-57.62385 0,-115.2477 99.807437,-57.623854 99.80744,57.623854 z" fill="#a90000" opacity="1.0" stroke="#cbcbcb" stroke-width="0.48" transform="matrix(0.0751447,0.02631765,-0.04338481,0.0455835,23.97,26.80)" /><path d="m 211.5145,221.09759 -99.80744,57.62385 -99.807437,-57.62385 0,-115.2477 99.807437,-57.623854 99.80744,57.623854 z" fill="#ff7000" opacity="0.82" stroke="#cbcbcb" stroke-width="0.48" transform="matrix(0.0751447,0.02631765,-0.04338481,0.0455835,23.97,16.29)" /><path d="m 211.5145,221.09759 -99.80744,57.62385 -99.807437,-57.62385 0,-115.2477 99.807437,-57.623854 99.80744,57.623854 z" fill="#ffa900" opacity="0.72" stroke="#cbcbcb" stroke-width="0.48" transform="matrix(0.0751447,0.02631765,-0.04338481,0.0455835,28.97,11.04)" /><path d="m 211.5145,221.09759 -99.80744,57.62385 -99.807437,-57.62385 0,-115.2477 99.807437,-57.623854 99.80744,57.623854 z" fill="#d40000" opacity="0.85" stroke="#cbcbcb" stroke-width="0.48" transform="matrix(0.0751447,0.02631765,-0.04338481,0.0455835,28.97,21.54)" /><path d="m 211.5145,221.09759 -99.80744,57.62385 -99.807437,-57.62385 0,-115.2477 99.807437,-57.623854 99.80744,57.623854 z" fill="#ff7000" opacity="0.82" stroke="#cbcbcb" stroke-width="0.48" transform="matrix(0.0751447,0.02631765,-0.04338481,0.0455835,33.97,16.29)" /><path d="m 211.5145,221.09759 -99.80744,57.62385 -99.807437,-57.62385 0,-115.2477 99.807437,-57.623854 99.80744,57.623854 z" fill="#ffa900" opacity="0.72" stroke="#cbcbcb" stroke-width="0.48" transform="matrix(0.0751447,0.02631765,-0.04338481,0.0455835,38.97,11.04)" /><path d="m 211.5145,221.09759 -99.80744,57.62385 -99.807437,-57.62385 0,-115.2477 99.807437,-57.623854 99.80744,57.623854 z" fill="#ffd400" opacity="0.45" stroke="#cbcbcb" stroke-width="0.48" transform="matrix(0.0751447,0.02631765,-0.04338481,0.0455835,13.97,5.78)" /><path d="m 211.5145,221.09759 -99.80744,57.62385 -99.807437,-57.62385 0,-115.2477 99.807437,-57.623854 99.80744,57.623854 z" fill="#ffe200" opacity="0.5" stroke="#cbcbcb" stroke-width="0.48" transform="matrix(0.0751447,0.02631765,-0.04338481,0.0455835,18.97,0.53)" /><path d="m 211.5145,221.09759 -99.80744,57.62385 -99.807437,-57.62385 0,-115.2477 99.807437,-57.623854 99.80744,57.623854 z" fill="#ffd400" opacity="0.45" stroke="#cbcbcb" stroke-width="0.48" transform="matrix(0.0751447,0.02631765,-0.04338481,0.0455835,23.97,5.78)" /><path d="m 211.5145,221.09759 -99.80744,57.62385 -99.807437,-57.62385 0,-115.2477 99.807437,-57.623854 99.80744,57.623854 z" fill="#ffe200" opacity="0.6" stroke="#cbcbcb" stroke-width="0.48" transform="matrix(0.0751447,0.02631765,-0.04338481,0.0455835,23.97,-4.73)" /><path d="m 211.5145,221.09759 -99.80744,57.62385 -99.807437,-57.62385 0,-115.2477 99.807437,-57.623854 99.80744,57.623854 z" fill="#ffe200" opacity="0.5" stroke="#cbcbcb" stroke-width="0.48" transform="matrix(0.0751447,0.02631765,-0.04338481,0.0455835,28.97,0.53)" /><path d="m 211.5145,221.09759 -99.80744,57.62385 -99.807437,-57.62385 0,-115.2477 99.807437,-57.623854 99.80744,57.623854 z" fill="#ffd400" opacity="0.45" stroke="#cbcbcb" stroke-width="0.48" transform="matrix(0.0751447,0.02631765,-0.04338481,0.0455835,33.97,5.78)" /></g></g><g id="analysis_container_icon"><g transform="translate(456.1370567780409,1371.0) scale(1.6,1.6666666666666667) translate(10,0)"><path d="m 211.5145,221.09759 -99.80744,57.62385 -99.807437,-57.62385 0,-115.2477 99.807437,-57.623854 99.80744,57.623854 z" fill="#a90000" opacity="0.72" stroke="#cbcbcb" stroke-width="0.48" transform="matrix(0.0751447,0.02631765,-0.04338481,0.0455835,8.97,11.04)" /><path d="m 211.5145,221.09759 -99.80744,57.62385 -99.807437,-57.62385 0,-115.2477 99.807437,-57.623854 99.80744,57.623854 z" fill="#ff7000" opacity="0.82" stroke="#cbcbcb" stroke-width="0.48" transform="matrix(0.0751447,0.02631765,-0.04338481,0.0455835,13.97,16.29)" /><path d="m 211.5145,221.09759 -99.80744,57.62385 -99.807437,-57.62385 0,-115.2477 99.807437,-57.623854 99.80744,57.623854 z" fill="#ffa900" opacity="0.72" stroke="#cbcbcb" stroke-width="0.48" transform="matrix(0.0751447,0.02631765,-0.04338481,0.0455835,18.97,11.04)" /><path d="m 211.5145,221.09759 -99.80744,57.62385 -99.807437,-57.62385 0,-115.2477 99.807437,-57.623854 99.80744,57.623854 z" fill="#d40000" opacity="0.85" stroke="#cbcbcb" stroke-width="0.48" transform="matrix(0.0751447,0.02631765,-0.04338481,0.0455835,18.97,21.54)" /><path d="m 211.5145,221.09759 -99.80744,57.62385 -99.807437,-57.62385 0,-115.2477 99.807437,-57.623854 99.80744,57.623854 z" fill="#a90000" opacity="1.0" stroke="#cbcbcb" stroke-width="0.48" transform="matrix(0.0751447,0.02631765,-0.04338481,0.0455835,23.97,26.80)" /><path d="m 211.5145,221.09759 -99.80744,57.62385 -99.807437,-57.62385 0,-115.2477 99.807437,-57.623854 99.80744,57.623854 z" fill="#ff7000" opacity="0.82" stroke="#cbcbcb" stroke-width="0.48" transform="matrix(0.0751447,0.02631765,-0.04338481,0.0455835,23.97,16.29)" /><path d="m 211.5145,221.09759 -99.80744,57.62385 -99.807437,-57.62385 0,-115.2477 99.807437,-57.623854 99.80744,57.623854 z" fill="#ffa900" opacity="0.72" stroke="#cbcbcb" stroke-width="0.48" transform="matrix(0.0751447,0.02631765,-0.04338481,0.0455835,28.97,11.04)" /><path d="m 211.5145,221.09759 -99.80744,57.62385 -99.807437,-57.62385 0,-115.2477 99.807437,-57.623854 99.80744,57.623854 z" fill="#d40000" opacity="0.85" stroke="#cbcbcb" stroke-width="0.48" transform="matrix(0.0751447,0.02631765,-0.04338481,0.0455835,28.97,21.54)" /><path d="m 211.5145,221.09759 -99.80744,57.62385 -99.807437,-57.62385 0,-115.2477 99.807437,-57.623854 99.80744,57.623854 z" fill="#ff7000" opacity="0.82" stroke="#cbcbcb" stroke-width="0.48" transform="matrix(0.0751447,0.02631765,-0.04338481,0.0455835,33.97,16.29)" /><path d="m 211.5145,221.09759 -99.80744,57.62385 -99.807437,-57.62385 0,-115.2477 99.807437,-57.623854 99.80744,57.623854 z" fill="#ffa900" opacity="0.72" stroke="#cbcbcb" stroke-width="0.48" transform="matrix(0.0751447,0.02631765,-0.04338481,0.0455835,38.97,11.04)" /><path d="m 211.5145,221.09759 -99.80744,57.62385 -99.807437,-57.62385 0,-115.2477 99.807437,-57.623854 99.80744,57.623854 z" fill="#ffd400" opacity="0.45" stroke="#cbcbcb" stroke-width="0.48" transform="matrix(0.0751447,0.02631765,-0.04338481,0.0455835,13.97,5.78)" /><path d="m 211.5145,221.09759 -99.80744,57.62385 -99.807437,-57.62385 0,-115.2477 99.807437,-57.623854 99.80744,57.623854 z" fill="#ffe200" opacity="0.5" stroke="#cbcbcb" stroke-width="0.48" transform="matrix(0.0751447,0.02631765,-0.04338481,0.0455835,18.97,0.53)" /><path d="m 211.5145,221.09759 -99.80744,57.62385 -99.807437,-57.62385 0,-115.2477 99.807437,-57.623854 99.80744,57.623854 z" fill="#ffd400" opacity="0.45" stroke="#cbcbcb" stroke-width="0.48" transform="matrix(0.0751447,0.02631765,-0.04338481,0.0455835,23.97,5.78)" /><path d="m 211.5145,221.09759 -99.80744,57.62385 -99.807437,-57.62385 0,-115.2477 99.807437,-57.623854 99.80744,57.623854 z" fill="#ffe200" opacity="0.6" stroke="#cbcbcb" stroke-width="0.48" transform="matrix(0.0751447,0.02631765,-0.04338481,0.0455835,23.97,-4.73)" /><path d="m 211.5145,221.09759 -99.80744,57.62385 -99.807437,-57.62385 0,-115.2477 99.807437,-57.623854 99.80744,57.623854 z" fill="#ffe200" opacity="0.5" stroke="#cbcbcb" stroke-width="0.48" transform="matrix(0.0751447,0.02631765,-0.04338481,0.0455835,28.97,0.53)" /><path d="m 211.5145,221.09759 -99.80744,57.62385 -99.807437,-57.62385 0,-115.2477 99.807437,-57.623854 99.80744,57.623854 z" fill="#ffd400" opacity="0.45" stroke="#cbcbcb" stroke-width="0.48" transform="matrix(0.0751447,0.02631765,-0.04338481,0.0455835,33.97,5.78)" /></g></g><g id="draw_container_icon"><g transform="translate(100.0,2160.0) scale(1.6,1.6666666666666667) translate(10,0)"><path d="m 211.5145,221.09759 -99.80744,57.62385 -99.807437,-57.62385 0,-115.2477 99.807437,-57.623854 99.80744,57.623854 z" fill="#a90000" opacity="0.72" stroke="#cbcbcb" stroke-width="0.48" transform="matrix(0.0751447,0.02631765,-0.04338481,0.0455835,8.97,11.04)" /><path d="m 211.5145,221.09759 -99.80744,57.62385 -99.807437,-57.62385 0,-115.2477 99.807437,-57.623854 99.80744,57.623854 z" fill="#ff7000" opacity="0.82" stroke="#cbcbcb" stroke-width="0.48" transform="matrix(0.0751447,0.02631765,-0.04338481,0.0455835,13.97,16.29)" /><path d="m 211.5145,221.09759 -99.80744,57.62385 -99.807437,-57.62385 0,-115.2477 99.807437,-57.623854 99.80744,57.623854 z" fill="#ffa900" opacity="0.72" stroke="#cbcbcb" stroke-width="0.48" transform="matrix(0.0751447,0.02631765,-0.04338481,0.0455835,18.97,11.04)" /><path d="m 211.5145,221.09759 -99.80744,57.62385 -99.807437,-57.62385 0,-115.2477 99.807437,-57.623854 99.80744,57.623854 z" fill="#d40000" opacity="0.85" stroke="#cbcbcb" stroke-width="0.48" transform="matrix(0.0751447,0.02631765,-0.04338481,0.0455835,18.97,21.54)" /><path d="m 211.5145,221.09759 -99.80744,57.62385 -99.807437,-57.62385 0,-115.2477 99.807437,-57.623854 99.80744,57.623854 z" fill="#a90000" opacity="1.0" stroke="#cbcbcb" stroke-width="0.48" transform="matrix(0.0751447,0.02631765,-0.04338481,0.0455835,23.97,26.80)" /><path d="m 211.5145,221.09759 -99.80744,57.62385 -99.807437,-57.62385 0,-115.2477 99.807437,-57.623854 99.80744,57.623854 z" fill="#ff7000" opacity="0.82" stroke="#cbcbcb" stroke-width="0.48" transform="matrix(0.0751447,0.02631765,-0.04338481,0.0455835,23.97,16.29)" /><path d="m 211.5145,221.09759 -99.80744,57.62385 -99.807437,-57.62385 0,-115.2477 99.807437,-57.623854 99.80744,57.623854 z" fill="#ffa900" opacity="0.72" stroke="#cbcbcb" stroke-width="0.48" transform="matrix(0.0751447,0.02631765,-0.04338481,0.0455835,28.97,11.04)" /><path d="m 211.5145,221.09759 -99.80744,57.62385 -99.807437,-57.62385 0,-115.2477 99.807437,-57.623854 99.80744,57.623854 z" fill="#d40000" opacity="0.85" stroke="#cbcbcb" stroke-width="0.48" transform="matrix(0.0751447,0.02631765,-0.04338481,0.0455835,28.97,21.54)" /><path d="m 211.5145,221.09759 -99.80744,57.62385 -99.807437,-57.62385 0,-115.2477 99.807437,-57.623854 99.80744,57.623854 z" fill="#ff7000" opacity="0.82" stroke="#cbcbcb" stroke-width="0.48" transform="matrix(0.0751447,0.02631765,-0.04338481,0.0455835,33.97,16.29)" /><path d="m 211.5145,221.09759 -99.80744,57.62385 -99.807437,-57.62385 0,-115.2477 99.807437,-57.623854 99.80744,57.623854 z" fill="#ffa900" opacity="0.72" stroke="#cbcbcb" stroke-width="0.48" transform="matrix(0.0751447,0.02631765,-0.04338481,0.0455835,38.97,11.04)" /><path d="m 211.5145,221.09759 -99.80744,57.62385 -99.807437,-57.62385 0,-115.2477 99.807437,-57.623854 99.80744,57.623854 z" fill="#ffd400" opacity="0.45" stroke="#cbcbcb" stroke-width="0.48" transform="matrix(0.0751447,0.02631765,-0.04338481,0.0455835,13.97,5.78)" /><path d="m 211.5145,221.09759 -99.80744,57.62385 -99.807437,-57.62385 0,-115.2477 99.807437,-57.623854 99.80744,57.623854 z" fill="#ffe200" opacity="0.5" stroke="#cbcbcb" stroke-width="0.48" transform="matrix(0.0751447,0.02631765,-0.04338481,0.0455835,18.97,0.53)" /><path d="m 211.5145,221.09759 -99.80744,57.62385 -99.807437,-57.62385 0,-115.2477 99.807437,-57.623854 99.80744,57.623854 z" fill="#ffd400" opacity="0.45" stroke="#cbcbcb" stroke-width="0.48" transform="matrix(0.0751447,0.02631765,-0.04338481,0.0455835,23.97,5.78)" /><path d="m 211.5145,221.09759 -99.80744,57.62385 -99.807437,-57.62385 0,-115.2477 99.807437,-57.623854 99.80744,57.623854 z" fill="#ffe200" opacity="0.6" stroke="#cbcbcb" stroke-width="0.48" transform="matrix(0.0751447,0.02631765,-0.04338481,0.0455835,23.97,-4.73)" /><path d="m 211.5145,221.09759 -99.80744,57.62385 -99.807437,-57.62385 0,-115.2477 99.807437,-57.623854 99.80744,57.623854 z" fill="#ffe200" opacity="0.5" stroke="#cbcbcb" stroke-width="0.48" transform="matrix(0.0751447,0.02631765,-0.04338481,0.0455835,28.97,0.53)" /><path d="m 211.5145,221.09759 -99.80744,57.62385 -99.807437,-57.62385 0,-115.2477 99.807437,-57.623854 99.80744,57.623854 z" fill="#ffd400" opacity="0.45" stroke="#cbcbcb" stroke-width="0.48" transform="matrix(0.0751447,0.02631765,-0.04338481,0.0455835,33.97,5.78)" /></g></g><line marker-end="url(#arrow-end)" stroke="black" stroke-width="2" x1="364.24152924488874" x2="364.2415292449019" y1="84.5" y2="303.0" /><line marker-end="url(#arrow-end)" stroke="black" stroke-width="2" x1="365.8857087634942" x2="378.1605409704964" y1="366.9577326121652" y2="605.5422673878348" /><path d="M 411.75673691085564,635.7482447137188 C 458.3047204890868,678.9333333333334 534.3047204890868,674.7666666666667 567.8646999618758,627.1896941078514" fill="none" marker-end="url(#arrow-end)" stroke="black" stroke-width="2" /><polyline fill="none" marker-end="url(#arrow-end)" points="379.8047204890868,669.5 379.8047204890868,808.75 332.71006135157677,808.75 332.71006135157677,980.0 350.71006135157677,980.0" stroke="black" stroke-width="2" /><polyline fill="none" marker-end="url(#arrow-end)" points="414.71006135157677,980.0 432.71006135157677,980.0 432.71006135157677,975.0 450.71006135157677,975.0" stroke="black" stroke-width="2" /><polyline fill="none" marker-end="url(#arrow-end)" points="382.71006135157677,1012.0 382.71006135157677,1013.0" stroke="black" stroke-width="2" /><line marker-end="url(#arrow-end)" stroke="black" stroke-width="2" x1="375.1118835768763" x2="283.73523455274136" y1="1011.0848467022768" y2="1384.9151532977232" /><polyline fill="none" marker-end="url(#arrow-end)" points="276.1370567780409,1448.0 276.1370567780409,1833.0 340.0,1833.0 340.0,2250.0 358.0,2250.0" stroke="black" stroke-width="2" /><polyline fill="none" marker-end="url(#arrow-end)" points="422.0,2250.0 440.0,2250.0 440.0,2252.5 450.0,2252.5" stroke="black" stroke-width="2" /><polyline fill="none" marker-end="url(#arrow-end)" points="308.1370567780409,1416.0 391.1370567780409,1416.0 391.1370567780409,1371.0 506.1370567780409,1371.0 506.1370567780409,1424.0" stroke="black" stroke-width="2" /><path d="M 307.9045378031196,1419.8506037606155 C 376.1370567780409,1511.8333333333333 486.1370567780409,1525.1666666666667 574.3695757529623,1452.1493962393845" fill="none" marker-end="url(#arrow-end)" stroke="black" stroke-width="2" /><path d="M 305.0053518703816,1429.8065759137282 C 325.3037234447076,1510.1666666666667 401.9703901113743,1546.8333333333333 477.2687616857002,1512.1934240862718" fill="none" marker-end="url(#arrow-end)" stroke="black" stroke-width="2" /><polyline fill="none" marker-end="url(#arrow-end)" points="506.1370567780409,1494.0 506.1370567780409,1488.0" stroke="black" stroke-width="2" /><path d="M 484.26676878001035,1006.96211291486 C 346.2190598270648,1142.3614319612725 354.02805830255284,1302.694765294606 504.58034934960733,1424.03788708514" fill="none" marker-end="url(#arrow-end)" stroke="black" stroke-width="2" /><line marker-end="url(#arrow-end)" stroke="black" stroke-width="2" x1="271.1503693963164" x2="203.58406056987403" y1="1447.609064348015" y2="1875.890935651985" /><polyline fill="none" marker-end="url(#arrow-end)" points="198.5973731881495,1939.5 198.5973731881495,2076.25 100.0,2076.25 100.0,2245.0 118.0,2245.0" stroke="black" stroke-width="2" /><polyline fill="none" marker-end="url(#arrow-end)" points="198.5973731881495,1939.5 198.5973731881495,2080.0 100.0,2080.0 100.0,2252.5 218.0,2252.5" stroke="black" stroke-width="2" /><polyline fill="none" marker-end="url(#arrow-end)" points="198.5973731881495,1939.5 198.5973731881495,2111.25 100.0,2111.25 100.0,2315.0 118.0,2315.0" stroke="black" stroke-width="2" /><polyline fill="none" marker-end="url(#arrow-end)" points="198.5973731881495,1939.5 198.5973731881495,2111.25 100.0,2111.25 100.0,2315.0 218.0,2315.0" stroke="black" stroke-width="2" /><path d="M 281.99489917905424,2251.9286625146597 C 297.5416666666667,2300.6666666666665 344.2083333333333,2299.8333333333335 358.00510082094576,2250.5713374853403" fill="none" marker-end="url(#arrow-end)" stroke="black" stroke-width="2" /><polyline fill="none" marker-end="url(#arrow-end)" points="118.0,2245.0 100.0,2245.0 100.0,2468.25 141.35335413356188,2468.25 141.35335413356188,2659.5" stroke="black" stroke-width="2" /><polyline fill="none" marker-end="url(#arrow-end)" points="218.0,2252.5 100.0,2252.5 100.0,2472.0 141.35335413356188,2472.0 141.35335413356188,2659.5" stroke="black" stroke-width="2" /><polyline fill="none" marker-end="url(#arrow-end)" points="118.0,2315.0 100.0,2315.0 100.0,2503.25 141.35335413356188,2503.25 141.35335413356188,2659.5" stroke="black" stroke-width="2" /><polyline fill="none" marker-end="url(#arrow-end)" points="218.0,2315.0 100.0,2315.0 100.0,2503.25 141.35335413356188,2503.25 141.35335413356188,2659.5" stroke="black" stroke-width="2" /><path d="M 181.35335413356188,2703.5 A 70,70 0 0,1 181.35335413356188,2679.5" fill="none" marker-end="url(#arrow-end)" stroke="black" stroke-width="2" /><text fill="black" font-family="Arial, sans-serif" font-size="14px" text-anchor="middle" x="419.2415292448868" y="42.0">archivo.gag</text><text fill="black" font-family="Arial, sans-serif" font-size="14px" text-anchor="middle" x="419.2415292448868" y="60.0">(JSON SDJF v3.0)</text><text fill="black" font-family="Arial, sans-serif" font-size="14px" text-anchor="middle" x="419.24152924490386" y="325.0">main.py</text><text fill="black" font-family="Arial, sans-serif" font-size="14px" text-anchor="middle" x="419.24152924490386" y="343.0">(CLI)</text><text fill="black" font-family="Arial, sans-serif" font-size="14px" text-anchor="middle" x="312.8047204890868" y="627.0">generator.py</text><text fill="black" font-family="Arial, sans-serif" font-size="14px" text-anchor="middle" x="312.8047204890868" y="645.0">(orquestador)</text><text fill="black" font-family="Arial, sans-serif" font-size="14px" text-anchor="middle" x="607.8047204890868" y="660.0">svgwrite</text><text fill="black" font-family="Arial, sans-serif" font-size="14px" text-anchor="middle" x="607.8047204890868" y="678.0">(librería externa)</text><text fill="black" font-family="Arial, sans-serif" font-size="14px" text-anchor="middle" x="327.71006135157677" y="970.0">Layout</text><text fill="black" font-family="Arial, sans-serif" font-size="14px" text-anchor="middle" x="327.71006135157677" y="988.0">Patrón Inmutable</text><text fill="black" font-family="Arial, sans-serif" font-size="14px" text-anchor="middle" x="537.7100613515768" y="965.0">SizingCalculator</text><text fill="black" font-family="Arial, sans-serif" font-size="14px" text-anchor="middle" x="537.7100613515768" y="983.0">hp/wp</text><text fill="black" font-family="Arial, sans-serif" font-size="14px" text-anchor="middle" x="327.71006135157677" y="1035.0">AutoLayoutPositioner</text><text fill="black" font-family="Arial, sans-serif" font-size="14px" text-anchor="middle" x="327.71006135157677" y="1053.0">Layout jerárquico</text><text fill="black" font-family="Arial, sans-serif" font-size="14px" text-anchor="middle" x="201.13705677804091" y="1406.0">AutoLayoutOptimizer</text><text fill="black" font-family="Arial, sans-serif" font-size="14px" text-anchor="middle" x="201.13705677804091" y="1424.0">v4.0 Jerárquico</text><text fill="black" font-family="Arial, sans-serif" font-size="14px" text-anchor="middle" x="390.0" y="2290.0">RouterManager</text><text fill="black" font-family="Arial, sans-serif" font-size="14px" text-anchor="middle" x="390.0" y="2308.0">Coordinador</text><text fill="black" font-family="Arial, sans-serif" font-size="14px" text-anchor="middle" x="490.0" y="2295.0">5 Routers</text><text fill="black" font-family="Arial, sans-serif" font-size="14px" text-anchor="middle" x="490.0" y="2313.0">straight/orthogonal</text><text fill="black" font-family="Arial, sans-serif" font-size="14px" text-anchor="middle" x="490.0" y="2331.0">bezier/arc/manual</text><text fill="black" font-family="Arial, sans-serif" font-size="14px" text-anchor="middle" x="506.1370567780409" y="1375.0">GeometryCalculator</text><text fill="black" font-family="Arial, sans-serif" font-size="14px" text-anchor="middle" x="506.1370567780409" y="1393.0">bboxes</text><text fill="black" font-family="Arial, sans-serif" font-size="14px" text-anchor="middle" x="506.1370567780409" y="1411.0">intersecciones</text><text fill="black" font-family="Arial, sans-serif" font-size="14px" text-anchor="middle" x="661.1370567780409" y="1446.0">GraphAnalyzer</text><text fill="black" font-family="Arial, sans-serif" font-size="14px" text-anchor="middle" x="661.1370567780409" y="1464.0">topología + centralidad</text><text fill="black" font-family="Arial, sans-serif" font-size="14px" text-anchor="middle" x="661.1370567780409" y="1482.0">niveles</text><text fill="black" font-family="Arial, sans-serif" font-size="14px" text-anchor="middle" x="661.1370567780409" y="1500.0">resolución conexiones</text><text fill="black" font-family="Arial, sans-serif" font-size="14px" text-anchor="middle" x="451.1370567780409" y="1516.0">CollisionDetector</text><text fill="black" font-family="Arial, sans-serif" font-size="14px" text-anchor="middle" x="451.1370567780409" y="1534.0">detect_all()</text><text fill="black" font-family="Arial, sans-serif" font-size="14px" text-anchor="middle" x="451.1370567780409" y="1552.0">count()</text><text fill="black" font-family="Arial, sans-serif" font-size="14px" text-anchor="middle" x="143.5973731881495" y="1897.0">Renderizado SVG</text><text fill="black" font-family="Arial, sans-serif" font-size="14px" text-anchor="middle" x="143.5973731881495" y="1915.0">(3 fases secuenciales)</text><text fill="black" font-family="Arial, sans-serif" font-size="14px" text-anchor="middle" x="95.0" y="2235.0">icons.py</text><text fill="black" font-family="Arial, sans-serif" font-size="14px" text-anchor="middle" x="95.0" y="2253.0">Fase 1: Shapes</text><text fill="black" font-family="Arial, sans-serif" font-size="14px" text-anchor="middle" x="95.0" y="2271.0">4 tipos + BWT</text><text fill="black" font-family="Arial, sans-serif" font-size="14px" text-anchor="middle" x="250.0" y="2164.0">connections.py</text><text fill="black" font-family="Arial, sans-serif" font-size="14px" text-anchor="middle" x="250.0" y="2182.0">Fase 2: Lines</text><text fill="black" font-family="Arial, sans-serif" font-size="14px" text-anchor="middle" x="250.0" y="2200.0">Routing types</text><text fill="black" font-family="Arial, sans-serif" font-size="14px" text-anchor="middle" x="95.0" y="2305.0">labels</text><text fill="black" font-family="Arial, sans-serif" font-size="14px" text-anchor="middle" x="95.0" y="2323.0">Fase 3: Text</text><text fill="black" font-family="Arial, sans-serif" font-size="14px" text-anchor="middle" x="95.0" y="2341.0">draw_*_label()</text><text fill="black" font-family="Arial, sans-serif" font-size="14px" text-anchor="middle" x="305.0" y="2305.0">container.py</text><text fill="black" font-family="Arial, sans-serif" font-size="14px" text-anchor="middle" x="305.0" y="2323.0">Agrupación visual</text><text fill="black" font-family="Arial, sans-serif" font-size="14px" text-anchor="middle" x="305.0" y="2341.0">(v1.5)</text><text fill="black" font-family="Arial, sans-serif" font-size="14px" text-anchor="middle" x="141.35335413356188" y="2734.0">archivo.svg</text><text fill="black" font-family="Arial, sans-serif" font-size="14px" text-anchor="middle" x="141.35335413356188" y="2752.0">(Salida vectorial)</text><text fill="gray" font-family="Arial, sans-serif" font-size="12px" text-anchor="end" x="313.4415292448953" y="193.75">lee JSON</text><text fill="gray" font-family="Arial, sans-serif" font-size="12px" text-anchor="end" x="321.2231248669953" y="486.25">generate_diagram()</text><text fill="gray" font-family="Arial, sans-serif" font-size="12px" text-anchor="middle" x="489.81071843636573" y="588.4689694107851">Drawing()</text><text fill="gray" font-family="Arial, sans-serif" font-size="12px" text-anchor="end" x="304.34792500658074" y="849.4">Layout(...)</text><text fill="gray" font-family="Arial, sans-serif" font-size="12px" text-anchor="middle" x="432.71006135157677" y="934.5">usa</text><text fill="gray" font-family="Arial, sans-serif" font-size="12px" text-anchor="start" x="433.5100613515768" y="1012.5">usa</text><text fill="gray" font-family="Arial, sans-serif" font-size="12px" text-anchor="end" x="278.62355906480883" y="1198.0">optimize()</text><text fill="gray" font-family="Arial, sans-serif" font-size="12px" text-anchor="start" x="368.8548227112164" y="1922.8">calculate_all_paths()</text><text fill="gray" font-family="Arial, sans-serif" font-size="12px" text-anchor="middle" x="438.0" y="2208.25">delega</text><text fill="gray" font-family="Arial, sans-serif" font-size="12px" text-anchor="middle" x="420.5370567780409" y="1356.6">usa</text><text fill="gray" font-family="Arial, sans-serif" font-size="12px" text-anchor="end" x="390.3370567780409" y="1479.0">analyze()</text><text fill="gray" font-family="Arial, sans-serif" font-size="12px" text-anchor="end" x="340.3370567780409" y="1514.0">evaluate()</text><text fill="gray" font-family="Arial, sans-serif" font-size="12px" text-anchor="start" x="556.9370567780409" y="1534.0">usa bboxes</text><text fill="gray" font-family="Arial, sans-serif" font-size="12px" text-anchor="start" x="545.2235590648088" y="1215.5">calcula tamaños</text><text fill="gray" font-family="Arial, sans-serif" font-size="12px" text-anchor="end" x="186.5672149830952" y="1661.75">layout optimizado</text><text fill="gray" font-family="Arial, sans-serif" font-size="12px" text-anchor="middle" x="143.0389492752598" y="2073.4">fase 1</text><text fill="gray" font-family="Arial, sans-serif" font-size="12px" text-anchor="end" x="112.2389492752598" y="2120.9">fase 2</text><text fill="gray" font-family="Arial, sans-serif" font-size="12px" text-anchor="end" x="92.2389492752598" y="2158.4">fase 3</text><text fill="gray" font-family="Arial, sans-serif" font-size="12px" text-anchor="end" x="112.2389492752598" y="2115.4">si usa contains</text><text fill="gray" font-family="Arial, sans-serif" font-size="12px" text-anchor="middle" x="320.0" y="2208.25">lee computed_path</text><text fill="gray" font-family="Arial, sans-serif" font-size="12px" text-anchor="end" x="69.34134165342475" y="2417.2">dwg.add()</text><text fill="gray" font-family="Arial, sans-serif" font-size="12px" text-anchor="end" x="89.34134165342475" y="2464.7">dwg.add()</text><text fill="gray" font-family="Arial, sans-serif" font-size="12px" text-anchor="end" x="69.34134165342475" y="2502.2">dwg.add()</text><text fill="gray" font-family="Arial, sans-serif" font-size="12px" text-anchor="start" x="190.94134165342473" y="2502.2">dwg.add()</text><text fill="gray" font-family="Arial, sans-serif" font-size="12px" text-anchor="middle" x="251.35335413356188" y="2648.5">dwg.save()</text><text fill="black" font-family="Arial, sans-serif" font-size="16px" font-weight="bold" text-anchor="start" x="432.71006135157677" y="906.0">Layout Module</text><text fill="black" font-family="Arial, sans-serif" font-size="16px" font-weight="bold" text-anchor="start" x="432.71006135157677" y="924.0">(jerárquico v4.0)</text><text fill="black" font-family="Arial, sans-serif" font-size="16px" font-weight="bold" text-anchor="start" x="440.0" y="2176.0">Routing Module</text><text fill="black" font-family="Arial, sans-serif" font-size="16px" font-weight="bold" text-anchor="start" x="556.1370567780409" y="1387.0">Analysis Module</text><text fill="black" font-family="Arial, sans-serif" font-size="16px" font-weight="bold" text-anchor="start" x="200.0" y="2176.0">Draw Module</text></svg>