<?xml version="1.0" encoding="utf-8" ?>
<svg baseProfile="full" height="600" version="1.1" viewBox="0,0,800,600" width="800" xmlns="http://www.w3.org/2000/svg" xmlns:ev="http://www.w3.org/2001/xml-events" xmlns:xlink="http://www.w3.org/1999/xlink"><defs><filter height="140%" id="text-glow" width="140%" x="-20%" y="-20%"><feGaussianBlur in="SourceGraphic" result="blur" stdDeviation="2" /><feFlood flood-color="white" flood-opacity="1" result="color" /><feComposite in="color" in2="blur" operator="in" result="shadow" /><feMerge><feMergeNode in="shadow" /><feMergeNode in="shadow" /><feMergeNode in="SourceGraphic" /></feMerge></filter><marker id="arrow-end" markerHeight="10" markerWidth="10" orient="auto" refX="10" refY="5"><path d="M 0 0 L 10 5 L 0 10 z" fill="black" /></marker><marker id="arrow-start" markerHeight="10" markerWidth="10" orient="auto" refX="0" refY="5"><path d="M 10 0 L 0 5 L 10 10 z" fill="black" /></marker><marker id="circle-start" markerHeight="10" markerWidth="10" orient="auto" refX="5" refY="5"><circle cx="5" cy="5" fill="black" r="4" /></marker><marker id="circle-end" markerHeight="10" markerWidth="10" orient="auto" refX="5" refY="5"><circle cx="5" cy="5" fill="black" r="4" /></marker><linearGradient id="gradient-a" x1="0%" x2="0%" y1="0%" y2="100%"><stop offset="0%" stop-color="#c5e3ed" /><stop offset="100%" stop-color="#7997a1" /></linearGradient><linearGradient id="gradient-b" x1="0%" x2="0%" y1="0%" y2="100%"><stop offset="0%" stop-color="#b1f3b1" /><stop offset="100%" stop-color="#64a664" /></linearGradient><linearGradient id="gradient-c" x1="0%" x2="0%" y1="0%" y2="100%"><stop offset="0%" stop-color="#ffc04c" /><stop offset="100%" stop-color="#b27300" /></linearGradient><linearGradient id="gradient-d" x1="0%" x2="0%" y1="0%" y2="100%"><stop offset="0%" stop-color="#ffd2da" /><stop offset="100%" stop-color="#b2868e" /></linearGradient><linearGradient id="gradient-center" x1="0%" x2="0%" y1="0%" y2="100%"><stop offset="0%" stop-color="#ff917e" /><stop offset="100%" stop-color="#b24531" /></linearGradient></defs><g id="a"><rect fill="url(#gradient-a)" height="50" rx="4" ry="4" stroke="black" stroke-width="1.2" width="80" x="100" y="100" /><line stroke="#67818a" stroke-width="0.8" x1="102" x2="178" y1="116.66666666666667" y2="116.66666666666667" /><line stroke="#67818a" stroke-width="0.8" x1="102" x2="178" y1="133.33333333333334" y2="133.33333333333334" /><circle cx="168" cy="108.33333333333333" fill="#00cc44" r="2.5" stroke="#67818a" stroke-width="0.5" /><circle cx="160" cy="108.33333333333333" fill="#ffaa00" r="2.5" stroke="#67818a" stroke-width="0.5" /><circle cx="168" cy="125.0" fill="#00cc44" r="2.5" stroke="#67818a" stroke-width="0.5" /><circle cx="160" cy="125.0" fill="#ffaa00" r="2.5" stroke="#67818a" stroke-width="0.5" /><circle cx="168" cy="141.66666666666669" fill="#00cc44" r="2.5" stroke="#67818a" stroke-width="0.5" /><circle cx="160" cy="141.66666666666669" fill="#ffaa00" r="2.5" stroke="#67818a" stroke-width="0.5" /><line stroke="#67818a" stroke-width="0.6" x1="106" x2="118" y1="105.0" y2="105.0" /><line stroke="#67818a" stroke-width="0.6" x1="106" x2="118" y1="108.33333333333333" y2="108.33333333333333" /><line stroke="#67818a" stroke-width="0.6" x1="106" x2="118" y1="111.66666666666667" y2="111.66666666666667" /><line stroke="#67818a" stroke-width="0.6" x1="106" x2="118" y1="121.66666666666667" y2="121.66666666666667" /><line stroke="#67818a" stroke-width="0.6" x1="106" x2="118" y1="125.0" y2="125.0" /><line stroke="#67818a" stroke-width="0.6" x1="106" x2="118" y1="128.33333333333334" y2="128.33333333333334" /><line stroke="#67818a" stroke-width="0.6" x1="106" x2="118" y1="138.33333333333334" y2="138.33333333333334" /><line stroke="#67818a" stroke-width="0.6" x1="106" x2="118" y1="141.66666666666669" y2="141.66666666666669" /><line stroke="#67818a" stroke-width="0.6" x1="106" x2="118" y1="145.0" y2="145.0" /></g><g id="b"><rect fill="url(#gradient-b)" height="50" rx="4" ry="4" stroke="black" stroke-width="1.2" width="80" x="600" y="100" /><line stroke="#568e56" stroke-width="0.8" x1="602" x2="678" y1="116.66666666666667" y2="116.66666666666667" /><line stroke="#568e56" stroke-width="0.8" x1="602" x2="678" y1="133.33333333333334" y2="133.33333333333334" /><circle cx="668" cy="108.33333333333333" fill="#00cc44" r="2.5" stroke="#568e56" stroke-width="0.5" /><circle cx="660" cy="108.33333333333333" fill="#ffaa00" r="2.5" stroke="#568e56" stroke-width="0.5" /><circle cx="668" cy="125.0" fill="#00cc44" r="2.5" stroke="#568e56" stroke-width="0.5" /><circle cx="660" cy="125.0" fill="#ffaa00" r="2.5" stroke="#568e56" stroke-width="0.5" /><circle cx="668" cy="141.66666666666669" fill="#00cc44" r="2.5" stroke="#568e56" stroke-width="0.5" /><circle cx="660" cy="141.66666666666669" fill="#ffaa00" r="2.5" stroke="#568e56" stroke-width="0.5" /><line stroke="#568e56" stroke-width="0.6" x1="606" x2="618" y1="105.0" y2="105.0" /><line stroke="#568e56" stroke-width="0.6" x1="606" x2="618" y1="108.33333333333333" y2="108.33333333333333" /><line stroke="#568e56" stroke-width="0.6" x1="606" x2="618" y1="111.66666666666667" y2="111.66666666666667" /><line stroke="#568e56" stroke-width="0.6" x1="606" x2="618" y1="121.66666666666667" y2="121.66666666666667" /><line stroke="#568e56" stroke-width="0.6" x1="606" x2="618" y1="125.0" y2="125.0" /><line stroke="#568e56" stroke-width="0.6" x1="606" x2="618" y1="128.33333333333334" y2="128.33333333333334" /><line stroke="#568e56" stroke-width="0.6" x1="606" x2="618" y1="138.33333333333334" y2="138.33333333333334" /><line stroke="#568e56" stroke-width="0.6" x1="606" x2="618" y1="141.66666666666669" y2="141.66666666666669" /><line stroke="#568e56" stroke-width="0.6" x1="606" x2="618" y1="145.0" y2="145.0" /></g><g id="c"><rect fill="url(#gradient-c)" height="50" rx="4" ry="4" stroke="black" stroke-width="1.2" width="80" x="100" y="400" /><line stroke="#996300" stroke-width="0.8" x1="102" x2="178" y1="416.6666666666667" y2="416.6666666666667" /><line stroke="#996300" stroke-width="0.8" x1="102" x2="178" y1="433.3333333333333" y2="433.3333333333333" /><circle cx="168" cy="408.3333333333333" fill="#00cc44" r="2.5" stroke="#996300" stroke-width="0.5" /><circle cx="160" cy="408.3333333333333" fill="#ffaa00" r="2.5" stroke="#996300" stroke-width="0.5" /><circle cx="168" cy="425.0" fill="#00cc44" r="2.5" stroke="#996300" stroke-width="0.5" /><circle cx="160" cy="425.0" fill="#ffaa00" r="2.5" stroke="#996300" stroke-width="0.5" /><circle cx="168" cy="441.66666666666663" fill="#00cc44" r="2.5" stroke="#996300" stroke-width="0.5" /><circle cx="160" cy="441.66666666666663" fill="#ffaa00" r="2.5" stroke="#996300" stroke-width="0.5" /><line stroke="#996300" stroke-width="0.6" x1="106" x2="118" y1="405.0" y2="405.0" /><line stroke="#996300" stroke-width="0.6" x1="106" x2="118" y1="408.3333333333333" y2="408.3333333333333" /><line stroke="#996300" stroke-width="0.6" x1="106" x2="118" y1="411.6666666666667" y2="411.6666666666667" /><line stroke="#996300" stroke-width="0.6" x1="106" x2="118" y1="421.6666666666667" y2="421.6666666666667" /><line stroke="#996300" stroke-width="0.6" x1="106" x2="118" y1="425.0" y2="425.0" /><line stroke="#996300" stroke-width="0.6" x1="106" x2="118" y1="428.33333333333337" y2="428.33333333333337" /><line stroke="#996300" stroke-width="0.6" x1="106" x2="118" y1="438.3333333333333" y2="438.3333333333333" /><line stroke="#996300" stroke-width="0.6" x1="106" x2="118" y1="441.66666666666663" y2="441.66666666666663" /><line stroke="#996300" stroke-width="0.6" x1="106" x2="118" y1="445.0" y2="445.0" /></g><g id="d"><rect fill="url(#gradient-d)" height="50" rx="4" ry="4" stroke="black" stroke-width="1.2" width="80" x="600" y="400" /><line stroke="#997379" stroke-width="0.8" x1="602" x2="678" y1="416.6666666666667" y2="416.6666666666667" /><line stroke="#997379" stroke-width="0.8" x1="602" x2="678" y1="433.3333333333333" y2="433.3333333333333" /><circle cx="668" cy="408.3333333333333" fill="#00cc44" r="2.5" stroke="#997379" stroke-width="0.5" /><circle cx="660" cy="408.3333333333333" fill="#ffaa00" r="2.5" stroke="#997379" stroke-width="0.5" /><circle cx="668" cy="425.0" fill="#00cc44" r="2.5" stroke="#997379" stroke-width="0.5" /><circle cx="660" cy="425.0" fill="#ffaa00" r="2.5" stroke="#997379" stroke-width="0.5" /><circle cx="668" cy="441.66666666666663" fill="#00cc44" r="2.5" stroke="#997379" stroke-width="0.5" /><circle cx="660" cy="441.66666666666663" fill="#ffaa00" r="2.5" stroke="#997379" stroke-width="0.5" /><line stroke="#997379" stroke-width="0.6" x1="606" x2="618" y1="405.0" y2="405.0" /><line stroke="#997379" stroke-width="0.6" x1="606" x2="618" y1="408.3333333333333" y2="408.3333333333333" /><line stroke="#997379" stroke-width="0.6" x1="606" x2="618" y1="411.6666666666667" y2="411.6666666666667" /><line stroke="#997379" stroke-width="0.6" x1="606" x2="618" y1="421.6666666666667" y2="421.6666666666667" /><line stroke="#997379" stroke-width="0.6" x1="606" x2="618" y1="425.0" y2="425.0" /><line stroke="#997379" stroke-width="0.6" x1="606" x2="618" y1="428.33333333333337" y2="428.33333333333337" /><line stroke="#997379" stroke-width="0.6" x1="606" x2="618" y1="438.3333333333333" y2="438.3333333333333" /><line stroke="#997379" stroke-width="0.6" x1="606" x2="618" y1="441.66666666666663" y2="441.66666666666663" /><line stroke="#997379" stroke-width="0.6" x1="606" x2="618" y1="445.0" y2="445.0" /></g><g id="center"><rect fill="url(#gradient-center)" height="46" rx="2" ry="2" stroke="black" stroke-width="1.2" width="64" x="358" y="254" /><polygon fill="#7f3123" points="354,254 390.0,244 426,254" stroke="black" stroke-width="1.0" /><rect fill="#ffb1a3" height="7" stroke="#7f3123" stroke-width="0.7" width="10" x="365" y="260" /><line stroke="#7f3123" stroke-width="0.5" x1="370.0" x2="370.0" y1="260" y2="267" /><line stroke="#7f3123" stroke-width="0.5" x1="365" x2="375" y1="263.5" y2="263.5" /><rect fill="#ffb1a3" height="7" stroke="#7f3123" stroke-width="0.7" width="10" x="385" y="260" /><line stroke="#7f3123" stroke-width="0.5" x1="390.0" x2="390.0" y1="260" y2="267" /><line stroke="#7f3123" stroke-width="0.5" x1="385" x2="395" y1="263.5" y2="263.5" /><rect fill="#ffb1a3" height="7" stroke="#7f3123" stroke-width="0.7" width="10" x="405" y="260" /><line stroke="#7f3123" stroke-width="0.5" x1="410.0" x2="410.0" y1="260" y2="267" /><line stroke="#7f3123" stroke-width="0.5" x1="405" x2="415" y1="263.5" y2="263.5" /><rect fill="#ffb1a3" height="7" stroke="#7f3123" stroke-width="0.7" width="10" x="365" y="274" /><line stroke="#7f3123" stroke-width="0.5" x1="370.0" x2="370.0" y1="274" y2="281" /><line stroke="#7f3123" stroke-width="0.5" x1="365" x2="375" y1="277.5" y2="277.5" /><rect fill="#ffb1a3" height="7" stroke="#7f3123" stroke-width="0.7" width="10" x="385" y="274" /><line stroke="#7f3123" stroke-width="0.5" x1="390.0" x2="390.0" y1="274" y2="281" /><line stroke="#7f3123" stroke-width="0.5" x1="385" x2="395" y1="277.5" y2="277.5" /><rect fill="#ffb1a3" height="7" stroke="#7f3123" stroke-width="0.7" width="10" x="405" y="274" /><line stroke="#7f3123" stroke-width="0.5" x1="410.0" x2="410.0" y1="274" y2="281" /><line stroke="#7f3123" stroke-width="0.5" x1="405" x2="415" y1="277.5" y2="277.5" /><rect fill="#7f3123" height="12" stroke="black" stroke-width="0.8" width="10" x="385.0" y="288" /><circle cx="392.5" cy="294.0" fill="#ffb1a3" r="1.2" /></g><line marker-end="url(#arrow-end)" marker-start="url(#circle-start)" stroke="black" stroke-width="2" x1="167.43977362280143" x2="612.5602263771985" y1="141.46386417368086" y2="408.53613582631914" /><polyline fill="none" marker-end="url(#arrow-end)" marker-start="url(#circle-start)" points="167.43977362280143,408.53613582631914 612.5602263771985,141.46386417368086" stroke="black" stroke-width="2" /><polyline fill="none" marker-end="url(#arrow-end)" marker-start="url(#arrow-start)" points="172.0,125.0 608.0,125.0" stroke="black" stroke-width="2" /><polyline fill="none" marker-end="url(#arrow-end)" marker-start="url(#circle-start)" points="172.0,425.0 608.0,425.0" stroke="black" stroke-width="2" /><text fill="black" filter="url(#text-glow)" font-family="Arial, sans-serif" font-size="14px" text-anchor="middle" x="140.0" y="171.0">Elemento A</text><text fill="black" filter="url(#text-glow)" font-family="Arial, sans-serif" font-size="14px" text-anchor="middle" x="640.0" y="171.0">Elemento B</text><text fill="black" filter="url(#text-glow)" font-family="Arial, sans-serif" font-size="14px" text-anchor="middle" x="140.0" y="471.0">Elemento C</text><text fill="black" filter="url(#text-glow)" font-family="Arial, sans-serif" font-size="14px" text-anchor="middle" x="640.0" y="471.0">Elemento D</text><text fill="black" filter="url(#text-glow)" font-family="Arial, sans-serif" font-size="14px" text-anchor="start" x="442.6" y="275.0">Centro</text><text fill="black" filter="url(#text-glow)" font-family="Arial, sans-serif" font-size="14px" text-anchor="start" x="442.6" y="293.0">(evitado)</text><text fill="gray" filter="url(#text-glow)" font-family="Arial, sans-serif" font-size="12px" text-anchor="middle" x="390.0" y="318.0">Línea directa
(cruza centro)</text><text fill="gray" filter="url(#text-glow)" font-family="Arial, sans-serif" font-size="12px" text-anchor="end" x="339.2" y="275.0">Con waypoints
(routing en U)</text><text fill="gray" filter="url(#text-glow)" font-family="Arial, sans-serif" font-size="12px" text-anchor="middle" x="390.0" y="82.0">Waypoint intermedio</text><text fill="gray" filter="url(#text-glow)" font-family="Arial, sans-serif" font-size="12px" text-anchor="middle" x="390.0" y="468.0">Routing inferior</text></svg>