<?xml version="1.0" encoding="utf-8" ?>
<svg baseProfile="full" height="610.0" version="1.1" viewBox="0,0,1390.0,610.0" width="1390.0" xmlns="http://www.w3.org/2000/svg" xmlns:ev="http://www.w3.org/2001/xml-events" xmlns:xlink="http://www.w3.org/1999/xlink"><defs><marker id="arrow-end" markerHeight="10" markerWidth="10" orient="auto" refX="10" refY="5"><path d="M 0 0 L 10 5 L 0 10 z" fill="black" /></marker><marker id="arrow-start" markerHeight="10" markerWidth="10" orient="auto" refX="0" refY="5"><path d="M 10 0 L 0 5 L 10 10 z" fill="black" /></marker><marker id="circle-start" markerHeight="10" markerWidth="10" orient="auto" refX="5" refY="5"><circle cx="5" cy="5" fill="black" r="4" /></marker><marker id="circle-end" markerHeight="10" markerWidth="10" orient="auto" refX="5" refY="5"><circle cx="5" cy="5" fill="black" r="4" /></marker><linearGradient id="gradient-a" x1="0%" x2="0%" y1="0%" y2="100%"><stop offset="0%" stop-color="#c5e3ed" /><stop offset="100%" stop-color="#7997a1" /></linearGradient><linearGradient id="gradient-b" x1="0%" x2="0%" y1="0%" y2="100%"><stop offset="0%" stop-color="#b1f3b1" /><stop offset="100%" stop-color="#64a664" /></linearGradient><linearGradient id="gradient-c" x1="0%" x2="0%" y1="0%" y2="100%"><stop offset="0%" stop-color="#ffc04c" /><stop offset="100%" stop-color="#b27300" /></linearGradient><linearGradient id="gradient-d" x1="0%" x2="0%" y1="0%" y2="100%"><stop offset="0%" stop-color="#ffd2da" /><stop offset="100%" stop-color="#b2868e" /></linearGradient><linearGradient id="gradient-center" x1="0%" x2="0%" y1="0%" y2="100%"><stop offset="0%" stop-color="#ff917e" /><stop offset="100%" stop-color="#b24531" /></linearGradient></defs><rect fill="url(#gradient-a)" height="50" stroke="black" width="80" x="580.0" y="20.0" /><rect fill="url(#gradient-b)" height="50" stroke="black" width="80" x="580.0" y="310.0" /><rect fill="url(#gradient-c)" height="50" stroke="black" width="80" x="1060.0" y="20.0" /><rect fill="url(#gradient-d)" height="50" stroke="black" width="80" x="1060.0" y="310.0" /><g id="center"><g transform="translate(110.0,30.0) scale(1.2048192771084338,0.6928406466512702) translate(-0.9,-1.4)"><path d="M 22.754087,32.116749 0.94545599,43.000013 V 4.7289739 L 22.754087,1.5702876 Z" fill="#e9e9ff" stroke="none" /><path d="M 50.712576,33.120864 V 1.4628125 L 22.754087,1.5702876 V 32.116749 Z" fill="#353564" stroke="none" /><path d="M 50.712576,33.120864 35.295871,44.770537 0.94545599,43.000013 22.754087,32.116749 Z" fill="#4d4d9f" stroke="none" /><path d="M 50.712576,1.4628125 35.295871,4.7384198 0.94545599,4.7289739 22.754087,1.5702876 Z" fill="#1c1ce6" opacity="1" stroke="none" /><path d="M 35.295871,44.770537 V 4.7384198 L 0.94545599,4.7289739 V 43.000013 Z" fill="#1a52ff" opacity="0.96" stroke="none" /><path d="M 50.712576,33.120864 35.295871,44.770537 V 4.7384198 L 50.712576,1.4628125 Z" fill="#1c9bd0" stroke="none" /><rect fill="none" height="43.3" opacity="0.67" stroke="#cbcbcb" stroke-width="0.48" width="49.8" x="0.9" y="1.4" /></g></g><line marker-end="url(#arrow-end)" marker-start="url(#circle-start)" stroke="black" stroke-width="2" x1="647.3892973422653" x2="1072.6107026577347" y1="61.54770047761862" y2="318.4522995223814" /><polyline fill="none" marker-end="url(#arrow-end)" marker-start="url(#circle-start)" points="1072.6107026577347,61.54770047761862 647.3892973422653,318.4522995223814" stroke="black" stroke-width="2" /><polyline fill="none" marker-end="url(#arrow-end)" marker-start="url(#arrow-start)" points="620.0,77.0 620.0,303.0" stroke="black" stroke-width="2" /><polyline fill="none" marker-end="url(#arrow-end)" marker-start="url(#circle-start)" points="1100.0,77.0 1100.0,303.0" stroke="black" stroke-width="2" /><text fill="black" font-family="Arial, sans-serif" font-size="14px" text-anchor="start" x="672.6" y="45.0">Elemento A</text><text fill="black" font-family="Arial, sans-serif" font-size="14px" text-anchor="middle" x="620.0" y="381.0">Elemento B</text><text fill="black" font-family="Arial, sans-serif" font-size="14px" text-anchor="start" x="1152.6" y="45.0">Elemento C</text><text fill="black" font-family="Arial, sans-serif" font-size="14px" text-anchor="middle" x="1100.0" y="381.0">Elemento D</text><text fill="black" font-family="Arial, sans-serif" font-size="14px" text-anchor="middle" x="140.0" y="91.0">Centro</text><text fill="black" font-family="Arial, sans-serif" font-size="14px" text-anchor="middle" x="140.0" y="109.0">(evitado)</text><text fill="gray" font-family="Arial, sans-serif" font-size="12px" text-anchor="middle" x="860.0" y="233.0">Línea directa
(cruza centro)</text><text fill="gray" font-family="Arial, sans-serif" font-size="12px" text-anchor="end" x="809.2" y="190.0">Con waypoints
(routing en U)</text><text fill="gray" font-family="Arial, sans-serif" font-size="12px" text-anchor="end" x="569.2" y="190.0">Waypoint intermedio</text><text fill="gray" font-family="Arial, sans-serif" font-size="12px" text-anchor="end" x="1049.2" y="190.0">Routing inferior</text></svg>