<?xml version="1.0" encoding="utf-8" ?>
<svg baseProfile="full" height="700" version="1.1" viewBox="0,0,1000,700" width="1000" xmlns="http://www.w3.org/2000/svg" xmlns:ev="http://www.w3.org/2001/xml-events" xmlns:xlink="http://www.w3.org/1999/xlink"><defs><filter height="140%" id="text-glow" width="140%" x="-20%" y="-20%"><feGaussianBlur in="SourceGraphic" result="blur" stdDeviation="2" /><feFlood flood-color="white" flood-opacity="1" result="color" /><feComposite in="color" in2="blur" operator="in" result="shadow" /><feMerge><feMergeNode in="shadow" /><feMergeNode in="shadow" /><feMergeNode in="SourceGraphic" /></feMerge></filter><marker id="arrow-end" markerHeight="10" markerWidth="10" orient="auto" refX="10" refY="5"><path d="M 0 0 L 10 5 L 0 10 z" fill="black" /></marker><marker id="arrow-start" markerHeight="10" markerWidth="10" orient="auto" refX="0" refY="5"><path d="M 10 0 L 0 5 L 10 10 z" fill="black" /></marker><marker id="circle-start" markerHeight="10" markerWidth="10" orient="auto" refX="5" refY="5"><circle cx="5" cy="5" fill="black" r="4" /></marker><marker id="circle-end" markerHeight="10" markerWidth="10" orient="auto" refX="5" refY="5"><circle cx="5" cy="5" fill="black" r="4" /></marker><linearGradient id="gradient-backend-module" x1="0%" x2="0%" y1="0%" y2="100%"><stop offset="0%" stop-color="#c5e3ed" /><stop offset="100%" stop-color="#7997a1" /></linearGradient><linearGradient id="gradient-frontend-module" x1="0%" x2="0%" y1="0%" y2="100%"><stop offset="0%" stop-color="#b1f3b1" /><stop offset="100%" stop-color="#64a664" /></linearGradient><linearGradient id="gradient-api" x1="0%" x2="0%" y1="0%" y2="100%"><stop offset="0%" stop-color="#4ca64c" /><stop offset="100%" stop-color="#005900" /></linearGradient><linearGradient id="gradient-db" x1="0%" x2="0%" y1="0%" y2="100%"><stop offset="0%" stop-color="#ffc04c" /><stop offset="100%" stop-color="#b27300" /></linearGradient><linearGradient id="gradient-cache" x1="0%" x2="0%" y1="0%" y2="100%"><stop offset="0%" stop-color="#4cffff" /><stop offset="100%" stop-color="#00b2b2" /></linearGradient><linearGradient id="gradient-webapp" x1="0%" x2="0%" y1="0%" y2="100%"><stop offset="0%" stop-color="#a64ca6" /><stop offset="100%" stop-color="#590059" /></linearGradient><linearGradient id="gradient-mobile" x1="0%" x2="0%" y1="0%" y2="100%"><stop offset="0%" stop-color="#ffd2da" /><stop offset="100%" stop-color="#b2868e" /></linearGradient><linearGradient id="gradient-external-service" x1="0%" x2="0%" y1="0%" y2="100%"><stop offset="0%" stop-color="#ffff4c" /><stop offset="100%" stop-color="#b2b200" /></linearGradient></defs><rect fill="url(#gradient-backend-module)" fill-opacity="0.15" height="333.0" rx="16.5" ry="16.5" stroke="black" stroke-opacity="0.8" stroke-width="2" width="330.0" x="50.0" y="180.0" /><rect fill="url(#gradient-frontend-module)" fill-opacity="0.15" height="233.0" rx="11.65" ry="11.65" stroke="black" stroke-opacity="0.8" stroke-width="2" width="280.0" x="243.45" y="12.307692307692307" /><g id="api"><rect fill="url(#gradient-api)" height="50" rx="4" ry="4" stroke="black" stroke-width="1.2" width="80" x="100.0" y="280.0" /><line stroke="#004c00" stroke-width="0.8" x1="102.0" x2="178.0" y1="296.6666666666667" y2="296.6666666666667" /><line stroke="#004c00" stroke-width="0.8" x1="102.0" x2="178.0" y1="313.3333333333333" y2="313.3333333333333" /><circle cx="168.0" cy="288.3333333333333" fill="#00cc44" r="2.5" stroke="#004c00" stroke-width="0.5" /><circle cx="160.0" cy="288.3333333333333" fill="#ffaa00" r="2.5" stroke="#004c00" stroke-width="0.5" /><circle cx="168.0" cy="305.0" fill="#00cc44" r="2.5" stroke="#004c00" stroke-width="0.5" /><circle cx="160.0" cy="305.0" fill="#ffaa00" r="2.5" stroke="#004c00" stroke-width="0.5" /><circle cx="168.0" cy="321.66666666666663" fill="#00cc44" r="2.5" stroke="#004c00" stroke-width="0.5" /><circle cx="160.0" cy="321.66666666666663" fill="#ffaa00" r="2.5" stroke="#004c00" stroke-width="0.5" /><line stroke="#004c00" stroke-width="0.6" x1="106.0" x2="118.0" y1="285.0" y2="285.0" /><line stroke="#004c00" stroke-width="0.6" x1="106.0" x2="118.0" y1="288.3333333333333" y2="288.3333333333333" /><line stroke="#004c00" stroke-width="0.6" x1="106.0" x2="118.0" y1="291.6666666666667" y2="291.6666666666667" /><line stroke="#004c00" stroke-width="0.6" x1="106.0" x2="118.0" y1="301.6666666666667" y2="301.6666666666667" /><line stroke="#004c00" stroke-width="0.6" x1="106.0" x2="118.0" y1="305.0" y2="305.0" /><line stroke="#004c00" stroke-width="0.6" x1="106.0" x2="118.0" y1="308.33333333333337" y2="308.33333333333337" /><line stroke="#004c00" stroke-width="0.6" x1="106.0" x2="118.0" y1="318.3333333333333" y2="318.3333333333333" /><line stroke="#004c00" stroke-width="0.6" x1="106.0" x2="118.0" y1="321.66666666666663" y2="321.66666666666663" /><line stroke="#004c00" stroke-width="0.6" x1="106.0" x2="118.0" y1="325.0" y2="325.0" /></g><g id="db"><rect fill="url(#gradient-db)" height="46" rx="2" ry="2" stroke="black" stroke-width="1.2" width="64" x="208.0" y="284.0" /><polygon fill="#7f5200" points="204.0,284.0 240.0,274.0 276.0,284.0" stroke="black" stroke-width="1.0" /><rect fill="#ffd27f" height="7" stroke="#7f5200" stroke-width="0.7" width="10" x="215.0" y="290.0" /><line stroke="#7f5200" stroke-width="0.5" x1="220.0" x2="220.0" y1="290.0" y2="297.0" /><line stroke="#7f5200" stroke-width="0.5" x1="215.0" x2="225.0" y1="293.5" y2="293.5" /><rect fill="#ffd27f" height="7" stroke="#7f5200" stroke-width="0.7" width="10" x="235.0" y="290.0" /><line stroke="#7f5200" stroke-width="0.5" x1="240.0" x2="240.0" y1="290.0" y2="297.0" /><line stroke="#7f5200" stroke-width="0.5" x1="235.0" x2="245.0" y1="293.5" y2="293.5" /><rect fill="#ffd27f" height="7" stroke="#7f5200" stroke-width="0.7" width="10" x="255.0" y="290.0" /><line stroke="#7f5200" stroke-width="0.5" x1="260.0" x2="260.0" y1="290.0" y2="297.0" /><line stroke="#7f5200" stroke-width="0.5" x1="255.0" x2="265.0" y1="293.5" y2="293.5" /><rect fill="#ffd27f" height="7" stroke="#7f5200" stroke-width="0.7" width="10" x="215.0" y="304.0" /><line stroke="#7f5200" stroke-width="0.5" x1="220.0" x2="220.0" y1="304.0" y2="311.0" /><line stroke="#7f5200" stroke-width="0.5" x1="215.0" x2="225.0" y1="307.5" y2="307.5" /><rect fill="#ffd27f" height="7" stroke="#7f5200" stroke-width="0.7" width="10" x="235.0" y="304.0" /><line stroke="#7f5200" stroke-width="0.5" x1="240.0" x2="240.0" y1="304.0" y2="311.0" /><line stroke="#7f5200" stroke-width="0.5" x1="235.0" x2="245.0" y1="307.5" y2="307.5" /><rect fill="#ffd27f" height="7" stroke="#7f5200" stroke-width="0.7" width="10" x="255.0" y="304.0" /><line stroke="#7f5200" stroke-width="0.5" x1="260.0" x2="260.0" y1="304.0" y2="311.0" /><line stroke="#7f5200" stroke-width="0.5" x1="255.0" x2="265.0" y1="307.5" y2="307.5" /><rect fill="#7f5200" height="12" stroke="black" stroke-width="0.8" width="10" x="235.0" y="318.0" /><circle cx="242.5" cy="324.0" fill="#ffd27f" r="1.2" /></g><g id="cache"><ellipse cx="433.45" cy="313.0" fill="url(#gradient-cache)" rx="36.0" ry="11.0" stroke="#00b2b2" stroke-width="0.8" /><circle cx="433.45" cy="301.0" fill="url(#gradient-cache)" r="17.0" stroke="#00b2b2" stroke-width="0.8" /><circle cx="419.45" cy="307.0" fill="url(#gradient-cache)" r="13.0" stroke="#00b2b2" stroke-width="0.8" /><circle cx="447.45" cy="307.0" fill="url(#gradient-cache)" r="13.0" stroke="#00b2b2" stroke-width="0.8" /><ellipse cx="433.45" cy="309.0" fill="url(#gradient-cache)" rx="30.4" ry="14.000000000000002" stroke="none" /></g><g id="webapp"><rect fill="url(#gradient-webapp)" height="50" rx="4" ry="4" stroke="black" stroke-width="1.2" width="80" x="293.45" y="112.3076923076923" /><line stroke="#4c004c" stroke-width="0.8" x1="295.45" x2="371.45" y1="128.97435897435898" y2="128.97435897435898" /><line stroke="#4c004c" stroke-width="0.8" x1="295.45" x2="371.45" y1="145.64102564102564" y2="145.64102564102564" /><circle cx="361.45" cy="120.64102564102564" fill="#00cc44" r="2.5" stroke="#4c004c" stroke-width="0.5" /><circle cx="353.45" cy="120.64102564102564" fill="#ffaa00" r="2.5" stroke="#4c004c" stroke-width="0.5" /><circle cx="361.45" cy="137.30769230769232" fill="#00cc44" r="2.5" stroke="#4c004c" stroke-width="0.5" /><circle cx="353.45" cy="137.30769230769232" fill="#ffaa00" r="2.5" stroke="#4c004c" stroke-width="0.5" /><circle cx="361.45" cy="153.97435897435898" fill="#00cc44" r="2.5" stroke="#4c004c" stroke-width="0.5" /><circle cx="353.45" cy="153.97435897435898" fill="#ffaa00" r="2.5" stroke="#4c004c" stroke-width="0.5" /><line stroke="#4c004c" stroke-width="0.6" x1="299.45" x2="311.45" y1="117.3076923076923" y2="117.3076923076923" /><line stroke="#4c004c" stroke-width="0.6" x1="299.45" x2="311.45" y1="120.64102564102564" y2="120.64102564102564" /><line stroke="#4c004c" stroke-width="0.6" x1="299.45" x2="311.45" y1="123.97435897435898" y2="123.97435897435898" /><line stroke="#4c004c" stroke-width="0.6" x1="299.45" x2="311.45" y1="133.97435897435898" y2="133.97435897435898" /><line stroke="#4c004c" stroke-width="0.6" x1="299.45" x2="311.45" y1="137.30769230769232" y2="137.30769230769232" /><line stroke="#4c004c" stroke-width="0.6" x1="299.45" x2="311.45" y1="140.64102564102564" y2="140.64102564102564" /><line stroke="#4c004c" stroke-width="0.6" x1="299.45" x2="311.45" y1="150.64102564102564" y2="150.64102564102564" /><line stroke="#4c004c" stroke-width="0.6" x1="299.45" x2="311.45" y1="153.97435897435898" y2="153.97435897435898" /><line stroke="#4c004c" stroke-width="0.6" x1="299.45" x2="311.45" y1="157.3076923076923" y2="157.3076923076923" /></g><g id="mobile"><rect fill="url(#gradient-mobile)" height="50" rx="4" ry="4" stroke="black" stroke-width="1.2" width="80" x="393.45" y="112.3076923076923" /><line stroke="#997379" stroke-width="0.8" x1="395.45" x2="471.45" y1="128.97435897435898" y2="128.97435897435898" /><line stroke="#997379" stroke-width="0.8" x1="395.45" x2="471.45" y1="145.64102564102564" y2="145.64102564102564" /><circle cx="461.45" cy="120.64102564102564" fill="#00cc44" r="2.5" stroke="#997379" stroke-width="0.5" /><circle cx="453.45" cy="120.64102564102564" fill="#ffaa00" r="2.5" stroke="#997379" stroke-width="0.5" /><circle cx="461.45" cy="137.30769230769232" fill="#00cc44" r="2.5" stroke="#997379" stroke-width="0.5" /><circle cx="453.45" cy="137.30769230769232" fill="#ffaa00" r="2.5" stroke="#997379" stroke-width="0.5" /><circle cx="461.45" cy="153.97435897435898" fill="#00cc44" r="2.5" stroke="#997379" stroke-width="0.5" /><circle cx="453.45" cy="153.97435897435898" fill="#ffaa00" r="2.5" stroke="#997379" stroke-width="0.5" /><line stroke="#997379" stroke-width="0.6" x1="399.45" x2="411.45" y1="117.3076923076923" y2="117.3076923076923" /><line stroke="#997379" stroke-width="0.6" x1="399.45" x2="411.45" y1="120.64102564102564" y2="120.64102564102564" /><line stroke="#997379" stroke-width="0.6" x1="399.45" x2="411.45" y1="123.97435897435898" y2="123.97435897435898" /><line stroke="#997379" stroke-width="0.6" x1="399.45" x2="411.45" y1="133.97435897435898" y2="133.97435897435898" /><line stroke="#997379" stroke-width="0.6" x1="399.45" x2="411.45" y1="137.30769230769232" y2="137.30769230769232" /><line stroke="#997379" stroke-width="0.6" x1="399.45" x2="411.45" y1="140.64102564102564" y2="140.64102564102564" /><line stroke="#997379" stroke-width="0.6" x1="399.45" x2="411.45" y1="150.64102564102564" y2="150.64102564102564" /><line stroke="#997379" stroke-width="0.6" x1="399.45" x2="411.45" y1="153.97435897435898" y2="153.97435897435898" /><line stroke="#997379" stroke-width="0.6" x1="399.45" x2="411.45" y1="157.3076923076923" y2="157.3076923076923" /></g><g id="external-service"><ellipse cx="633.45" cy="533.0" fill="url(#gradient-external-service)" rx="36.0" ry="11.0" stroke="#b2b200" stroke-width="0.8" /><circle cx="633.45" cy="521.0" fill="url(#gradient-external-service)" r="17.0" stroke="#b2b200" stroke-width="0.8" /><circle cx="619.45" cy="527.0" fill="url(#gradient-external-service)" r="13.0" stroke="#b2b200" stroke-width="0.8" /><circle cx="647.45" cy="527.0" fill="url(#gradient-external-service)" r="13.0" stroke="#b2b200" stroke-width="0.8" /><ellipse cx="633.45" cy="529.0" fill="url(#gradient-external-service)" rx="30.4" ry="14.000000000000002" stroke="none" /></g><line marker-end="url(#arrow-end)" marker-start="url(#arrow-start)" stroke="black" stroke-width="2" x1="180.0" x2="200.0" y1="308.5" y2="305.0" /><line marker-end="url(#arrow-end)" marker-start="url(#arrow-start)" stroke="black" stroke-width="2" x1="180.0" x2="393.4" y1="301.5" y2="305.0" /><polyline fill="none" marker-end="url(#arrow-end)" marker-start="url(#circle-start)" points="333.45,137.30769230769232 140.0,305.0" stroke="black" stroke-width="2" /><polyline fill="none" marker-end="url(#arrow-end)" marker-start="url(#circle-start)" points="433.45,137.30769230769232 140.0,305.0" stroke="black" stroke-width="2" /><polyline fill="none" marker-end="url(#arrow-end)" marker-start="url(#circle-start)" points="140.0,305.0 633.45,525.0" stroke="black" stroke-width="2" /><text fill="black" filter="url(#text-glow)" font-family="Arial, sans-serif" font-size="14px" text-anchor="middle" x="140.0" y="350.0">REST API</text><text fill="black" filter="url(#text-glow)" font-family="Arial, sans-serif" font-size="14px" text-anchor="middle" x="240.0" y="350.0">Database</text><text fill="black" filter="url(#text-glow)" font-family="Arial, sans-serif" font-size="14px" text-anchor="middle" x="433.45" y="350.0">Redis Cache</text><text fill="black" filter="url(#text-glow)" font-family="Arial, sans-serif" font-size="14px" text-anchor="middle" x="333.45" y="102.3076923076923">Web App</text><text fill="black" filter="url(#text-glow)" font-family="Arial, sans-serif" font-size="14px" text-anchor="middle" x="433.45" y="182.30769230769232">Mobile App</text><text fill="black" filter="url(#text-glow)" font-family="Arial, sans-serif" font-size="14px" text-anchor="middle" x="633.45" y="571.0">External API</text><text fill="gray" filter="url(#text-glow)" font-family="Arial, sans-serif" font-size="12px" text-anchor="end" x="139.2" y="306.75">queries</text><text fill="gray" filter="url(#text-glow)" font-family="Arial, sans-serif" font-size="12px" text-anchor="middle" x="286.7" y="260.25">get/set</text><text fill="gray" filter="url(#text-glow)" font-family="Arial, sans-serif" font-size="12px" text-anchor="middle" x="236.725" y="178.15384615384616">HTTP requests</text><text fill="gray" filter="url(#text-glow)" font-family="Arial, sans-serif" font-size="12px" text-anchor="start" x="337.52500000000003" y="221.15384615384616">HTTP requests</text><text fill="gray" filter="url(#text-glow)" font-family="Arial, sans-serif" font-size="12px" text-anchor="start" x="437.52500000000003" y="415.0">integrations</text><text fill="black" filter="url(#text-glow)" font-family="Arial, sans-serif" font-size="16px" font-weight="bold" text-anchor="start" x="150.0" y="196.0">Backend Module</text><text fill="black" filter="url(#text-glow)" font-family="Arial, sans-serif" font-size="16px" font-weight="bold" text-anchor="start" x="343.45" y="28.307692307692307">Frontend Module</text></svg>