<?xml version="1.0" encoding="utf-8" ?>
<svg baseProfile="full" height="700" version="1.1" viewBox="0,0,1000,700" width="1000" xmlns="http://www.w3.org/2000/svg" xmlns:ev="http://www.w3.org/2001/xml-events" xmlns:xlink="http://www.w3.org/1999/xlink"><defs><filter height="140%" id="text-glow" width="140%" x="-20%" y="-20%"><feGaussianBlur in="SourceGraphic" result="blur" stdDeviation="2" /><feFlood flood-color="white" flood-opacity="1" result="color" /><feComposite in="color" in2="blur" operator="in" result="shadow" /><feMerge><feMergeNode in="shadow" /><feMergeNode in="shadow" /><feMergeNode in="SourceGraphic" /></feMerge></filter><marker id="arrow-end" markerHeight="10" markerWidth="10" orient="auto" refX="10" refY="5"><path d="M 0 0 L 10 5 L 0 10 z" fill="black" /></marker><marker id="arrow-start" markerHeight="10" markerWidth="10" orient="auto" refX="0" refY="5"><path d="M 10 0 L 0 5 L 10 10 z" fill="black" /></marker><marker id="circle-start" markerHeight="10" markerWidth="10" orient="auto" refX="5" refY="5"><circle cx="5" cy="5" fill="black" r="4" /></marker><marker id="circle-end" markerHeight="10" markerWidth="10" orient="auto" refX="5" refY="5"><circle cx="5" cy="5" fill="black" r="4" /></marker><linearGradient id="gradient-backend-module" x1="0%" x2="0%" y1="0%" y2="100%"><stop offset="0%" stop-color="#c5e3ed" /><stop offset="100%" stop-color="#7997a1" /></linearGradient><linearGradient id="gradient-frontend-module" x1="0%" x2="0%" y1="0%" y2="100%"><stop offset="0%" stop-color="#b1f3b1" /><stop offset="100%" stop-color="#64a664" /></linearGradient><linearGradient id="gradient-api" x1="0%" x2="0%" y1="0%" y2="100%"><stop offset="0%" stop-color="#4ca64c" /><stop offset="100%" stop-color="#005900" /></linearGradient><linearGradient id="gradient-db" x1="0%" x2="0%" y1="0%" y2="100%"><stop offset="0%" stop-color="#ffc04c" /><stop offset="100%" stop-color="#b27300" /></linearGradient><linearGradient id="gradient-cache" x1="0%" x2="0%" y1="0%" y2="100%"><stop offset="0%" stop-color="#4cffff" /><stop offset="100%" stop-color="#00b2b2" /></linearGradient><linearGradient id="gradient-webapp" x1="0%" x2="0%" y1="0%" y2="100%"><stop offset="0%" stop-color="#a64ca6" /><stop offset="100%" stop-color="#590059" /></linearGradient><linearGradient id="gradient-mobile" x1="0%" x2="0%" y1="0%" y2="100%"><stop offset="0%" stop-color="#ffd2da" /><stop offset="100%" stop-color="#b2868e" /></linearGradient><linearGradient id="gradient-external-service" x1="0%" x2="0%" y1="0%" y2="100%"><stop offset="0%" stop-color="#ffff4c" /><stop offset="100%" stop-color="#b2b200" /></linearGradient><linearGradient id="gradient-backend-module_icon" x1="0%" x2="0%" y1="0%" y2="100%"><stop offset="0%" stop-color="#c5e3ed" /><stop offset="100%" stop-color="#7997a1" /></linearGradient><linearGradient id="gradient-frontend-module_icon" x1="0%" x2="0%" y1="0%" y2="100%"><stop offset="0%" stop-color="#b1f3b1" /><stop offset="100%" stop-color="#64a664" /></linearGradient></defs><rect fill="url(#gradient-backend-module)" height="333.0" opacity="0.3" rx="16.5" ry="16.5" stroke="black" stroke-width="2" width="330.0" x="-93.44999999999999" y="180" /><rect fill="url(#gradient-frontend-module)" height="233.0" opacity="0.3" rx="11.65" ry="11.65" stroke="black" stroke-width="2" width="280.0" x="100.0" y="12.307692307692307" /><g id="api"><rect fill="url(#gradient-api)" height="50" rx="4" ry="4" stroke="black" stroke-width="1.2" width="80" x="-43.44999999999999" y="280.0" /><line stroke="#004c00" stroke-width="0.8" x1="-41.44999999999999" x2="34.55000000000001" y1="296.6666666666667" y2="296.6666666666667" /><line stroke="#004c00" stroke-width="0.8" x1="-41.44999999999999" x2="34.55000000000001" y1="313.3333333333333" y2="313.3333333333333" /><circle cx="24.55000000000001" cy="288.3333333333333" fill="#00cc44" r="2.5" stroke="#004c00" stroke-width="0.5" /><circle cx="16.55000000000001" cy="288.3333333333333" fill="#ffaa00" r="2.5" stroke="#004c00" stroke-width="0.5" /><circle cx="24.55000000000001" cy="305.0" fill="#00cc44" r="2.5" stroke="#004c00" stroke-width="0.5" /><circle cx="16.55000000000001" cy="305.0" fill="#ffaa00" r="2.5" stroke="#004c00" stroke-width="0.5" /><circle cx="24.55000000000001" cy="321.66666666666663" fill="#00cc44" r="2.5" stroke="#004c00" stroke-width="0.5" /><circle cx="16.55000000000001" cy="321.66666666666663" fill="#ffaa00" r="2.5" stroke="#004c00" stroke-width="0.5" /><line stroke="#004c00" stroke-width="0.6" x1="-37.44999999999999" x2="-25.44999999999999" y1="285.0" y2="285.0" /><line stroke="#004c00" stroke-width="0.6" x1="-37.44999999999999" x2="-25.44999999999999" y1="288.3333333333333" y2="288.3333333333333" /><line stroke="#004c00" stroke-width="0.6" x1="-37.44999999999999" x2="-25.44999999999999" y1="291.6666666666667" y2="291.6666666666667" /><line stroke="#004c00" stroke-width="0.6" x1="-37.44999999999999" x2="-25.44999999999999" y1="301.6666666666667" y2="301.6666666666667" /><line stroke="#004c00" stroke-width="0.6" x1="-37.44999999999999" x2="-25.44999999999999" y1="305.0" y2="305.0" /><line stroke="#004c00" stroke-width="0.6" x1="-37.44999999999999" x2="-25.44999999999999" y1="308.33333333333337" y2="308.33333333333337" /><line stroke="#004c00" stroke-width="0.6" x1="-37.44999999999999" x2="-25.44999999999999" y1="318.3333333333333" y2="318.3333333333333" /><line stroke="#004c00" stroke-width="0.6" x1="-37.44999999999999" x2="-25.44999999999999" y1="321.66666666666663" y2="321.66666666666663" /><line stroke="#004c00" stroke-width="0.6" x1="-37.44999999999999" x2="-25.44999999999999" y1="325.0" y2="325.0" /></g><g id="db"><rect fill="url(#gradient-db)" height="46" rx="2" ry="2" stroke="black" stroke-width="1.2" width="64" x="64.55000000000001" y="284.0" /><polygon fill="#7f5200" points="60.55000000000001,284.0 96.55000000000001,274.0 132.55,284.0" stroke="black" stroke-width="1.0" /><rect fill="#ffd27f" height="7" stroke="#7f5200" stroke-width="0.7" width="10" x="71.55000000000001" y="290.0" /><line stroke="#7f5200" stroke-width="0.5" x1="76.55000000000001" x2="76.55000000000001" y1="290.0" y2="297.0" /><line stroke="#7f5200" stroke-width="0.5" x1="71.55000000000001" x2="81.55000000000001" y1="293.5" y2="293.5" /><rect fill="#ffd27f" height="7" stroke="#7f5200" stroke-width="0.7" width="10" x="91.55000000000001" y="290.0" /><line stroke="#7f5200" stroke-width="0.5" x1="96.55000000000001" x2="96.55000000000001" y1="290.0" y2="297.0" /><line stroke="#7f5200" stroke-width="0.5" x1="91.55000000000001" x2="101.55000000000001" y1="293.5" y2="293.5" /><rect fill="#ffd27f" height="7" stroke="#7f5200" stroke-width="0.7" width="10" x="111.55000000000001" y="290.0" /><line stroke="#7f5200" stroke-width="0.5" x1="116.55000000000001" x2="116.55000000000001" y1="290.0" y2="297.0" /><line stroke="#7f5200" stroke-width="0.5" x1="111.55000000000001" x2="121.55000000000001" y1="293.5" y2="293.5" /><rect fill="#ffd27f" height="7" stroke="#7f5200" stroke-width="0.7" width="10" x="71.55000000000001" y="304.0" /><line stroke="#7f5200" stroke-width="0.5" x1="76.55000000000001" x2="76.55000000000001" y1="304.0" y2="311.0" /><line stroke="#7f5200" stroke-width="0.5" x1="71.55000000000001" x2="81.55000000000001" y1="307.5" y2="307.5" /><rect fill="#ffd27f" height="7" stroke="#7f5200" stroke-width="0.7" width="10" x="91.55000000000001" y="304.0" /><line stroke="#7f5200" stroke-width="0.5" x1="96.55000000000001" x2="96.55000000000001" y1="304.0" y2="311.0" /><line stroke="#7f5200" stroke-width="0.5" x1="91.55000000000001" x2="101.55000000000001" y1="307.5" y2="307.5" /><rect fill="#ffd27f" height="7" stroke="#7f5200" stroke-width="0.7" width="10" x="111.55000000000001" y="304.0" /><line stroke="#7f5200" stroke-width="0.5" x1="116.55000000000001" x2="116.55000000000001" y1="304.0" y2="311.0" /><line stroke="#7f5200" stroke-width="0.5" x1="111.55000000000001" x2="121.55000000000001" y1="307.5" y2="307.5" /><rect fill="#7f5200" height="12" stroke="black" stroke-width="0.8" width="10" x="91.55000000000001" y="318.0" /><circle cx="99.05000000000001" cy="324.0" fill="#ffd27f" r="1.2" /></g><g id="cache"><ellipse cx="290.0" cy="313.0" fill="url(#gradient-cache)" rx="36.0" ry="11.0" stroke="#00b2b2" stroke-width="0.8" /><circle cx="290.0" cy="301.0" fill="url(#gradient-cache)" r="17.0" stroke="#00b2b2" stroke-width="0.8" /><circle cx="276.0" cy="307.0" fill="url(#gradient-cache)" r="13.0" stroke="#00b2b2" stroke-width="0.8" /><circle cx="304.0" cy="307.0" fill="url(#gradient-cache)" r="13.0" stroke="#00b2b2" stroke-width="0.8" /><ellipse cx="290.0" cy="309.0" fill="url(#gradient-cache)" rx="30.4" ry="14.000000000000002" stroke="none" /></g><g id="webapp"><rect fill="url(#gradient-webapp)" height="50" rx="4" ry="4" stroke="black" stroke-width="1.2" width="80" x="150.0" y="112.3076923076923" /><line stroke="#4c004c" stroke-width="0.8" x1="152.0" x2="228.0" y1="128.97435897435898" y2="128.97435897435898" /><line stroke="#4c004c" stroke-width="0.8" x1="152.0" x2="228.0" y1="145.64102564102564" y2="145.64102564102564" /><circle cx="218.0" cy="120.64102564102564" fill="#00cc44" r="2.5" stroke="#4c004c" stroke-width="0.5" /><circle cx="210.0" cy="120.64102564102564" fill="#ffaa00" r="2.5" stroke="#4c004c" stroke-width="0.5" /><circle cx="218.0" cy="137.30769230769232" fill="#00cc44" r="2.5" stroke="#4c004c" stroke-width="0.5" /><circle cx="210.0" cy="137.30769230769232" fill="#ffaa00" r="2.5" stroke="#4c004c" stroke-width="0.5" /><circle cx="218.0" cy="153.97435897435898" fill="#00cc44" r="2.5" stroke="#4c004c" stroke-width="0.5" /><circle cx="210.0" cy="153.97435897435898" fill="#ffaa00" r="2.5" stroke="#4c004c" stroke-width="0.5" /><line stroke="#4c004c" stroke-width="0.6" x1="156.0" x2="168.0" y1="117.3076923076923" y2="117.3076923076923" /><line stroke="#4c004c" stroke-width="0.6" x1="156.0" x2="168.0" y1="120.64102564102564" y2="120.64102564102564" /><line stroke="#4c004c" stroke-width="0.6" x1="156.0" x2="168.0" y1="123.97435897435898" y2="123.97435897435898" /><line stroke="#4c004c" stroke-width="0.6" x1="156.0" x2="168.0" y1="133.97435897435898" y2="133.97435897435898" /><line stroke="#4c004c" stroke-width="0.6" x1="156.0" x2="168.0" y1="137.30769230769232" y2="137.30769230769232" /><line stroke="#4c004c" stroke-width="0.6" x1="156.0" x2="168.0" y1="140.64102564102564" y2="140.64102564102564" /><line stroke="#4c004c" stroke-width="0.6" x1="156.0" x2="168.0" y1="150.64102564102564" y2="150.64102564102564" /><line stroke="#4c004c" stroke-width="0.6" x1="156.0" x2="168.0" y1="153.97435897435898" y2="153.97435897435898" /><line stroke="#4c004c" stroke-width="0.6" x1="156.0" x2="168.0" y1="157.3076923076923" y2="157.3076923076923" /></g><g id="mobile"><rect fill="url(#gradient-mobile)" height="50" rx="4" ry="4" stroke="black" stroke-width="1.2" width="80" x="250.0" y="112.3076923076923" /><line stroke="#997379" stroke-width="0.8" x1="252.0" x2="328.0" y1="128.97435897435898" y2="128.97435897435898" /><line stroke="#997379" stroke-width="0.8" x1="252.0" x2="328.0" y1="145.64102564102564" y2="145.64102564102564" /><circle cx="318.0" cy="120.64102564102564" fill="#00cc44" r="2.5" stroke="#997379" stroke-width="0.5" /><circle cx="310.0" cy="120.64102564102564" fill="#ffaa00" r="2.5" stroke="#997379" stroke-width="0.5" /><circle cx="318.0" cy="137.30769230769232" fill="#00cc44" r="2.5" stroke="#997379" stroke-width="0.5" /><circle cx="310.0" cy="137.30769230769232" fill="#ffaa00" r="2.5" stroke="#997379" stroke-width="0.5" /><circle cx="318.0" cy="153.97435897435898" fill="#00cc44" r="2.5" stroke="#997379" stroke-width="0.5" /><circle cx="310.0" cy="153.97435897435898" fill="#ffaa00" r="2.5" stroke="#997379" stroke-width="0.5" /><line stroke="#997379" stroke-width="0.6" x1="256.0" x2="268.0" y1="117.3076923076923" y2="117.3076923076923" /><line stroke="#997379" stroke-width="0.6" x1="256.0" x2="268.0" y1="120.64102564102564" y2="120.64102564102564" /><line stroke="#997379" stroke-width="0.6" x1="256.0" x2="268.0" y1="123.97435897435898" y2="123.97435897435898" /><line stroke="#997379" stroke-width="0.6" x1="256.0" x2="268.0" y1="133.97435897435898" y2="133.97435897435898" /><line stroke="#997379" stroke-width="0.6" x1="256.0" x2="268.0" y1="137.30769230769232" y2="137.30769230769232" /><line stroke="#997379" stroke-width="0.6" x1="256.0" x2="268.0" y1="140.64102564102564" y2="140.64102564102564" /><line stroke="#997379" stroke-width="0.6" x1="256.0" x2="268.0" y1="150.64102564102564" y2="150.64102564102564" /><line stroke="#997379" stroke-width="0.6" x1="256.0" x2="268.0" y1="153.97435897435898" y2="153.97435897435898" /><line stroke="#997379" stroke-width="0.6" x1="256.0" x2="268.0" y1="157.3076923076923" y2="157.3076923076923" /></g><g id="external-service"><ellipse cx="490.0" cy="533.0" fill="url(#gradient-external-service)" rx="36.0" ry="11.0" stroke="#b2b200" stroke-width="0.8" /><circle cx="490.0" cy="521.0" fill="url(#gradient-external-service)" r="17.0" stroke="#b2b200" stroke-width="0.8" /><circle cx="476.0" cy="527.0" fill="url(#gradient-external-service)" r="13.0" stroke="#b2b200" stroke-width="0.8" /><circle cx="504.0" cy="527.0" fill="url(#gradient-external-service)" r="13.0" stroke="#b2b200" stroke-width="0.8" /><ellipse cx="490.0" cy="529.0" fill="url(#gradient-external-service)" rx="30.4" ry="14.000000000000002" stroke="none" /></g><g id="backend-module_icon"><rect fill="url(#gradient-backend-module_icon)" height="46" rx="2" ry="2" stroke="black" stroke-width="1.2" width="64" x="-85.44999999999999" y="184" /><polygon fill="#566c73" points="-89.44999999999999,184 -53.44999999999999,174 -17.44999999999999,184" stroke="black" stroke-width="1.0" /><rect fill="#d6ebf2" height="7" stroke="#566c73" stroke-width="0.7" width="10" x="-78.44999999999999" y="190" /><line stroke="#566c73" stroke-width="0.5" x1="-73.44999999999999" x2="-73.44999999999999" y1="190" y2="197" /><line stroke="#566c73" stroke-width="0.5" x1="-78.44999999999999" x2="-68.44999999999999" y1="193.5" y2="193.5" /><rect fill="#d6ebf2" height="7" stroke="#566c73" stroke-width="0.7" width="10" x="-58.44999999999999" y="190" /><line stroke="#566c73" stroke-width="0.5" x1="-53.44999999999999" x2="-53.44999999999999" y1="190" y2="197" /><line stroke="#566c73" stroke-width="0.5" x1="-58.44999999999999" x2="-48.44999999999999" y1="193.5" y2="193.5" /><rect fill="#d6ebf2" height="7" stroke="#566c73" stroke-width="0.7" width="10" x="-38.44999999999999" y="190" /><line stroke="#566c73" stroke-width="0.5" x1="-33.44999999999999" x2="-33.44999999999999" y1="190" y2="197" /><line stroke="#566c73" stroke-width="0.5" x1="-38.44999999999999" x2="-28.44999999999999" y1="193.5" y2="193.5" /><rect fill="#d6ebf2" height="7" stroke="#566c73" stroke-width="0.7" width="10" x="-78.44999999999999" y="204" /><line stroke="#566c73" stroke-width="0.5" x1="-73.44999999999999" x2="-73.44999999999999" y1="204" y2="211" /><line stroke="#566c73" stroke-width="0.5" x1="-78.44999999999999" x2="-68.44999999999999" y1="207.5" y2="207.5" /><rect fill="#d6ebf2" height="7" stroke="#566c73" stroke-width="0.7" width="10" x="-58.44999999999999" y="204" /><line stroke="#566c73" stroke-width="0.5" x1="-53.44999999999999" x2="-53.44999999999999" y1="204" y2="211" /><line stroke="#566c73" stroke-width="0.5" x1="-58.44999999999999" x2="-48.44999999999999" y1="207.5" y2="207.5" /><rect fill="#d6ebf2" height="7" stroke="#566c73" stroke-width="0.7" width="10" x="-38.44999999999999" y="204" /><line stroke="#566c73" stroke-width="0.5" x1="-33.44999999999999" x2="-33.44999999999999" y1="204" y2="211" /><line stroke="#566c73" stroke-width="0.5" x1="-38.44999999999999" x2="-28.44999999999999" y1="207.5" y2="207.5" /><rect fill="#566c73" height="12" stroke="black" stroke-width="0.8" width="10" x="-58.44999999999999" y="218" /><circle cx="-50.94999999999999" cy="224.0" fill="#d6ebf2" r="1.2" /></g><g id="frontend-module_icon"><rect fill="url(#gradient-frontend-module_icon)" height="46" rx="2" ry="2" stroke="black" stroke-width="1.2" width="64" x="108.0" y="16.307692307692307" /><polygon fill="#487748" points="104.0,16.307692307692307 140.0,6.307692307692307 176.0,16.307692307692307" stroke="black" stroke-width="1.0" /><rect fill="#c7f6c7" height="7" stroke="#487748" stroke-width="0.7" width="10" x="115.0" y="22.307692307692307" /><line stroke="#487748" stroke-width="0.5" x1="120.0" x2="120.0" y1="22.307692307692307" y2="29.307692307692307" /><line stroke="#487748" stroke-width="0.5" x1="115.0" x2="125.0" y1="25.807692307692307" y2="25.807692307692307" /><rect fill="#c7f6c7" height="7" stroke="#487748" stroke-width="0.7" width="10" x="135.0" y="22.307692307692307" /><line stroke="#487748" stroke-width="0.5" x1="140.0" x2="140.0" y1="22.307692307692307" y2="29.307692307692307" /><line stroke="#487748" stroke-width="0.5" x1="135.0" x2="145.0" y1="25.807692307692307" y2="25.807692307692307" /><rect fill="#c7f6c7" height="7" stroke="#487748" stroke-width="0.7" width="10" x="155.0" y="22.307692307692307" /><line stroke="#487748" stroke-width="0.5" x1="160.0" x2="160.0" y1="22.307692307692307" y2="29.307692307692307" /><line stroke="#487748" stroke-width="0.5" x1="155.0" x2="165.0" y1="25.807692307692307" y2="25.807692307692307" /><rect fill="#c7f6c7" height="7" stroke="#487748" stroke-width="0.7" width="10" x="115.0" y="36.30769230769231" /><line stroke="#487748" stroke-width="0.5" x1="120.0" x2="120.0" y1="36.30769230769231" y2="43.30769230769231" /><line stroke="#487748" stroke-width="0.5" x1="115.0" x2="125.0" y1="39.80769230769231" y2="39.80769230769231" /><rect fill="#c7f6c7" height="7" stroke="#487748" stroke-width="0.7" width="10" x="135.0" y="36.30769230769231" /><line stroke="#487748" stroke-width="0.5" x1="140.0" x2="140.0" y1="36.30769230769231" y2="43.30769230769231" /><line stroke="#487748" stroke-width="0.5" x1="135.0" x2="145.0" y1="39.80769230769231" y2="39.80769230769231" /><rect fill="#c7f6c7" height="7" stroke="#487748" stroke-width="0.7" width="10" x="155.0" y="36.30769230769231" /><line stroke="#487748" stroke-width="0.5" x1="160.0" x2="160.0" y1="36.30769230769231" y2="43.30769230769231" /><line stroke="#487748" stroke-width="0.5" x1="155.0" x2="165.0" y1="39.80769230769231" y2="39.80769230769231" /><rect fill="#487748" height="12" stroke="black" stroke-width="0.8" width="10" x="135.0" y="50.30769230769231" /><circle cx="142.5" cy="56.30769230769231" fill="#c7f6c7" r="1.2" /></g><line marker-end="url(#arrow-end)" marker-start="url(#arrow-start)" stroke="black" stroke-width="2" x1="28.55000000000001" x2="64.55000000000001" y1="305.0" y2="305.0" /><line marker-end="url(#arrow-end)" marker-start="url(#arrow-start)" stroke="black" stroke-width="2" x1="28.55000000000001" x2="250.0" y1="305.0" y2="305.0" /><polyline fill="none" marker-end="url(#arrow-end)" marker-start="url(#circle-start)" points="165.82015430573335,158.26801344553405 20.729845694266654,284.03967886215827" stroke="black" stroke-width="2" /><polyline fill="none" marker-end="url(#arrow-end)" marker-start="url(#circle-start)" points="262.21648836637587,153.18460892598677 24.333511633624116,289.12308338170556" stroke="black" stroke-width="2" /><polyline fill="none" marker-end="url(#arrow-end)" marker-start="url(#circle-start)" points="25.776806488244624,318.03049433055793 453.4664918896942,508.7118820868026" stroke="black" stroke-width="2" /><text fill="black" filter="url(#text-glow)" font-family="Arial, sans-serif" font-size="14px" text-anchor="middle" x="190.0" y="663.0">REST API</text><text fill="black" filter="url(#text-glow)" font-family="Arial, sans-serif" font-size="14px" text-anchor="middle" x="290.0" y="663.0">Database</text><text fill="black" filter="url(#text-glow)" font-family="Arial, sans-serif" font-size="14px" text-anchor="middle" x="290.0" y="350.0">Redis Cache</text><text fill="black" filter="url(#text-glow)" font-family="Arial, sans-serif" font-size="14px" text-anchor="middle" x="190.0" y="102.3076923076923">Web App</text><text fill="black" filter="url(#text-glow)" font-family="Arial, sans-serif" font-size="14px" text-anchor="middle" x="290.0" y="190.0">Mobile App</text><text fill="black" filter="url(#text-glow)" font-family="Arial, sans-serif" font-size="14px" text-anchor="middle" x="490.0" y="571.0">External API</text><text fill="gray" filter="url(#text-glow)" font-family="Arial, sans-serif" font-size="12px" text-anchor="start" x="97.35000000000001" y="262.0">queries</text><text fill="gray" filter="url(#text-glow)" font-family="Arial, sans-serif" font-size="12px" text-anchor="middle" x="139.275" y="348.0">get/set</text><text fill="gray" filter="url(#text-glow)" font-family="Arial, sans-serif" font-size="12px" text-anchor="middle" x="93.275" y="178.15384615384616">HTTP requests</text><text fill="gray" filter="url(#text-glow)" font-family="Arial, sans-serif" font-size="12px" text-anchor="start" x="194.075" y="221.15384615384616">HTTP requests</text><text fill="gray" filter="url(#text-glow)" font-family="Arial, sans-serif" font-size="12px" text-anchor="start" x="290.4216491889694" y="413.3711882086802">integrations</text><text fill="black" filter="url(#text-glow)" font-family="Arial, sans-serif" font-size="16px" font-weight="bold" text-anchor="start" x="6.550000000000011" y="196">Backend Module</text><text fill="black" filter="url(#text-glow)" font-family="Arial, sans-serif" font-size="16px" font-weight="bold" text-anchor="start" x="200.0" y="28.307692307692307">Frontend Module</text></svg>