<?xml version="1.0" encoding="utf-8" ?>
<svg baseProfile="full" height="700" version="1.1" viewBox="0,0,1000,700" width="1000" xmlns="http://www.w3.org/2000/svg" xmlns:ev="http://www.w3.org/2001/xml-events" xmlns:xlink="http://www.w3.org/1999/xlink"><defs><marker id="arrow-end" markerHeight="10" markerWidth="10" orient="auto" refX="10" refY="5"><path d="M 0 0 L 10 5 L 0 10 z" fill="black" /></marker><marker id="arrow-start" markerHeight="10" markerWidth="10" orient="auto" refX="0" refY="5"><path d="M 10 0 L 0 5 L 10 10 z" fill="black" /></marker><linearGradient id="gradient-backend-module" x1="0%" x2="0%" y1="0%" y2="100%"><stop offset="0%" stop-color="#c5e3ed" /><stop offset="100%" stop-color="#7997a1" /></linearGradient><linearGradient id="gradient-frontend-module" x1="0%" x2="0%" y1="0%" y2="100%"><stop offset="0%" stop-color="#b1f3b1" /><stop offset="100%" stop-color="#64a664" /></linearGradient><linearGradient id="gradient-api" x1="0%" x2="0%" y1="0%" y2="100%"><stop offset="0%" stop-color="#4ca64c" /><stop offset="100%" stop-color="#005900" /></linearGradient><linearGradient id="gradient-db" x1="0%" x2="0%" y1="0%" y2="100%"><stop offset="0%" stop-color="#ffc04c" /><stop offset="100%" stop-color="#b27300" /></linearGradient><linearGradient id="gradient-cache" x1="0%" x2="0%" y1="0%" y2="100%"><stop offset="0%" stop-color="#4cffff" /><stop offset="100%" stop-color="#00b2b2" /></linearGradient><linearGradient id="gradient-webapp" x1="0%" x2="0%" y1="0%" y2="100%"><stop offset="0%" stop-color="#a64ca6" /><stop offset="100%" stop-color="#590059" /></linearGradient><linearGradient id="gradient-mobile" x1="0%" x2="0%" y1="0%" y2="100%"><stop offset="0%" stop-color="#ffd2da" /><stop offset="100%" stop-color="#b2868e" /></linearGradient><linearGradient id="gradient-external-service" x1="0%" x2="0%" y1="0%" y2="100%"><stop offset="0%" stop-color="#ffff4c" /><stop offset="100%" stop-color="#b2b200" /></linearGradient><linearGradient id="gradient-backend-module_icon" x1="0%" x2="0%" y1="0%" y2="100%"><stop offset="0%" stop-color="#c5e3ed" /><stop offset="100%" stop-color="#7997a1" /></linearGradient><linearGradient id="gradient-frontend-module_icon" x1="0%" x2="0%" y1="0%" y2="100%"><stop offset="0%" stop-color="#b1f3b1" /><stop offset="100%" stop-color="#64a664" /></linearGradient></defs><rect fill="url(#gradient-backend-module)" height="333.0" opacity="0.3" rx="16.5" ry="16.5" stroke="black" stroke-width="2" width="330.0" x="-93.44999999999999" y="180" /><rect fill="url(#gradient-frontend-module)" height="233.0" opacity="0.3" rx="11.65" ry="11.65" stroke="black" stroke-width="2" width="280.0" x="100.0" y="12.307692307692307" /><rect fill="url(#gradient-api)" height="50" stroke="black" width="80" x="-43.44999999999999" y="280.0" /><g id="db"><g transform="translate(66.55000000000001,290.0) scale(1.2048192771084338,0.6928406466512702) translate(-0.9,-1.4)"><path d="M 22.754087,32.116749 0.94545599,43.000013 V 4.7289739 L 22.754087,1.5702876 Z" fill="#e9e9ff" stroke="none" /><path d="M 50.712576,33.120864 V 1.4628125 L 22.754087,1.5702876 V 32.116749 Z" fill="#353564" stroke="none" /><path d="M 50.712576,33.120864 35.295871,44.770537 0.94545599,43.000013 22.754087,32.116749 Z" fill="#4d4d9f" stroke="none" /><path d="M 50.712576,1.4628125 35.295871,4.7384198 0.94545599,4.7289739 22.754087,1.5702876 Z" fill="#1c1ce6" opacity="1" stroke="none" /><path d="M 35.295871,44.770537 V 4.7384198 L 0.94545599,4.7289739 V 43.000013 Z" fill="#1a52ff" opacity="0.96" stroke="none" /><path d="M 50.712576,33.120864 35.295871,44.770537 V 4.7384198 L 50.712576,1.4628125 Z" fill="#1c9bd0" stroke="none" /><rect fill="none" height="43.3" opacity="0.67" stroke="#cbcbcb" stroke-width="0.48" width="49.8" x="0.9" y="1.4" /></g></g><ellipse cx="290.0" cy="305.0" fill="url(#gradient-cache)" rx="40.0" ry="25.0" stroke="black" /><rect fill="url(#gradient-webapp)" height="50" stroke="black" width="80" x="150.0" y="112.3076923076923" /><rect fill="url(#gradient-mobile)" height="50" stroke="black" width="80" x="250.0" y="112.3076923076923" /><ellipse cx="490.0" cy="525.0" fill="url(#gradient-external-service)" rx="40.0" ry="25.0" stroke="black" /><g id="backend-module_icon"><g transform="translate(-83.44999999999999,190.0) scale(1.2048192771084338,0.6928406466512702) translate(-0.9,-1.4)"><path d="M 22.754087,32.116749 0.94545599,43.000013 V 4.7289739 L 22.754087,1.5702876 Z" fill="#e9e9ff" stroke="none" /><path d="M 50.712576,33.120864 V 1.4628125 L 22.754087,1.5702876 V 32.116749 Z" fill="#353564" stroke="none" /><path d="M 50.712576,33.120864 35.295871,44.770537 0.94545599,43.000013 22.754087,32.116749 Z" fill="#4d4d9f" stroke="none" /><path d="M 50.712576,1.4628125 35.295871,4.7384198 0.94545599,4.7289739 22.754087,1.5702876 Z" fill="#1c1ce6" opacity="1" stroke="none" /><path d="M 35.295871,44.770537 V 4.7384198 L 0.94545599,4.7289739 V 43.000013 Z" fill="#1a52ff" opacity="0.96" stroke="none" /><path d="M 50.712576,33.120864 35.295871,44.770537 V 4.7384198 L 50.712576,1.4628125 Z" fill="#1c9bd0" stroke="none" /><rect fill="none" height="43.3" opacity="0.67" stroke="#cbcbcb" stroke-width="0.48" width="49.8" x="0.9" y="1.4" /></g></g><g id="frontend-module_icon"><g transform="translate(110.0,22.307692307692307) scale(1.2048192771084338,0.6928406466512702) translate(-0.9,-1.4)"><path d="M 22.754087,32.116749 0.94545599,43.000013 V 4.7289739 L 22.754087,1.5702876 Z" fill="#e9e9ff" stroke="none" /><path d="M 50.712576,33.120864 V 1.4628125 L 22.754087,1.5702876 V 32.116749 Z" fill="#353564" stroke="none" /><path d="M 50.712576,33.120864 35.295871,44.770537 0.94545599,43.000013 22.754087,32.116749 Z" fill="#4d4d9f" stroke="none" /><path d="M 50.712576,1.4628125 35.295871,4.7384198 0.94545599,4.7289739 22.754087,1.5702876 Z" fill="#1c1ce6" opacity="1" stroke="none" /><path d="M 35.295871,44.770537 V 4.7384198 L 0.94545599,4.7289739 V 43.000013 Z" fill="#1a52ff" opacity="0.96" stroke="none" /><path d="M 50.712576,33.120864 35.295871,44.770537 V 4.7384198 L 50.712576,1.4628125 Z" fill="#1c9bd0" stroke="none" /><rect fill="none" height="43.3" opacity="0.67" stroke="#cbcbcb" stroke-width="0.48" width="49.8" x="0.9" y="1.4" /></g></g><line marker-end="url(#arrow-end)" marker-start="url(#arrow-start)" stroke="black" stroke-width="2" x1="28.55000000000001" x2="64.55000000000001" y1="305.0" y2="305.0" /><line marker-end="url(#arrow-end)" marker-start="url(#arrow-start)" stroke="black" stroke-width="2" x1="28.55000000000001" x2="250.0" y1="305.0" y2="305.0" /><polyline fill="none" marker-end="url(#arrow-end)" points="165.82015430573335,158.26801344553405 20.729845694266654,284.03967886215827" stroke="black" stroke-width="2" /><polyline fill="none" marker-end="url(#arrow-end)" points="262.21648836637587,153.18460892598677 24.333511633624116,289.12308338170556" stroke="black" stroke-width="2" /><polyline fill="none" marker-end="url(#arrow-end)" points="25.776806488244624,318.03049433055793 453.4664918896942,508.7118820868026" stroke="black" stroke-width="2" /><text fill="black" font-family="Arial, sans-serif" font-size="14px" text-anchor="middle" x="190.0" y="653.0">REST API</text><text fill="black" font-family="Arial, sans-serif" font-size="14px" text-anchor="middle" x="290.0" y="653.0">Database</text><text fill="black" font-family="Arial, sans-serif" font-size="14px" text-anchor="middle" x="290.0" y="340.0">Redis Cache</text><text fill="black" font-family="Arial, sans-serif" font-size="14px" text-anchor="middle" x="190.0" y="92.3076923076923">Web App</text><text fill="black" font-family="Arial, sans-serif" font-size="14px" text-anchor="middle" x="290.0" y="180.0">Mobile App</text><text fill="black" font-family="Arial, sans-serif" font-size="14px" text-anchor="middle" x="490.0" y="560.0">External API</text><text fill="gray" font-family="Arial, sans-serif" font-size="12px" text-anchor="start" x="97.35000000000001" y="262.0">queries</text><text fill="gray" font-family="Arial, sans-serif" font-size="12px" text-anchor="middle" x="139.275" y="348.0">get/set</text><text fill="gray" font-family="Arial, sans-serif" font-size="12px" text-anchor="middle" x="93.275" y="178.15384615384616">HTTP requests</text><text fill="gray" font-family="Arial, sans-serif" font-size="12px" text-anchor="start" x="194.075" y="264.1538461538462">HTTP requests</text><text fill="gray" font-family="Arial, sans-serif" font-size="12px" text-anchor="start" x="290.4216491889694" y="413.3711882086802">integrations</text><text fill="black" font-family="Arial, sans-serif" font-size="16px" font-weight="bold" text-anchor="start" x="6.550000000000011" y="196">Backend Module</text><text fill="black" font-family="Arial, sans-serif" font-size="16px" font-weight="bold" text-anchor="start" x="200.0" y="28.307692307692307">Frontend Module</text></svg>