<?xml version="1.0" encoding="utf-8" ?>
<svg baseProfile="full" height="700.0" version="1.1" viewBox="0,0,1414.0,700.0" width="1414.0" xmlns="http://www.w3.org/2000/svg" xmlns:ev="http://www.w3.org/2001/xml-events" xmlns:xlink="http://www.w3.org/1999/xlink"><defs><marker id="arrow-end" markerHeight="10" markerWidth="10" orient="auto" refX="10" refY="5"><path d="M 0 0 L 10 5 L 0 10 z" fill="black" /></marker><marker id="arrow-start" markerHeight="10" markerWidth="10" orient="auto" refX="0" refY="5"><path d="M 10 0 L 0 5 L 10 10 z" fill="black" /></marker><linearGradient id="gradient-api-gateway" x1="0%" x2="0%" y1="0%" y2="100%"><stop offset="0%" stop-color="#c5e3ed" /><stop offset="100%" stop-color="#7997a1" /></linearGradient><linearGradient id="gradient-auth-service" x1="0%" x2="0%" y1="0%" y2="100%"><stop offset="0%" stop-color="#b1f3b1" /><stop offset="100%" stop-color="#64a664" /></linearGradient><linearGradient id="gradient-user-service" x1="0%" x2="0%" y1="0%" y2="100%"><stop offset="0%" stop-color="#b1f3b1" /><stop offset="100%" stop-color="#64a664" /></linearGradient><linearGradient id="gradient-database" x1="0%" x2="0%" y1="0%" y2="100%"><stop offset="0%" stop-color="#ffc04c" /><stop offset="100%" stop-color="#b27300" /></linearGradient><linearGradient id="gradient-redis" x1="0%" x2="0%" y1="0%" y2="100%"><stop offset="0%" stop-color="#4cffff" /><stop offset="100%" stop-color="#00b2b2" /></linearGradient><linearGradient id="gradient-queue" x1="0%" x2="0%" y1="0%" y2="100%"><stop offset="0%" stop-color="#ffd2da" /><stop offset="100%" stop-color="#b2868e" /></linearGradient></defs><rect fill="url(#gradient-api-gateway)" height="50" stroke="black" width="80" x="337.0" y="20.0" /><rect fill="url(#gradient-auth-service)" height="50" stroke="black" width="80" x="100.0" y="310.0" /><rect fill="url(#gradient-user-service)" height="50" stroke="black" width="80" x="660.0" y="310.0" /><g id="database"><g transform="translate(110.0,610.0) scale(1.2048192771084338,0.6928406466512702) translate(-0.9,-1.4)"><path d="M 22.754087,32.116749 0.94545599,43.000013 V 4.7289739 L 22.754087,1.5702876 Z" fill="#e9e9ff" stroke="none" /><path d="M 50.712576,33.120864 V 1.4628125 L 22.754087,1.5702876 V 32.116749 Z" fill="#353564" stroke="none" /><path d="M 50.712576,33.120864 35.295871,44.770537 0.94545599,43.000013 22.754087,32.116749 Z" fill="#4d4d9f" stroke="none" /><path d="M 50.712576,1.4628125 35.295871,4.7384198 0.94545599,4.7289739 22.754087,1.5702876 Z" fill="#1c1ce6" opacity="1" stroke="none" /><path d="M 35.295871,44.770537 V 4.7384198 L 0.94545599,4.7289739 V 43.000013 Z" fill="#1a52ff" opacity="0.96" stroke="none" /><path d="M 50.712576,33.120864 35.295871,44.770537 V 4.7384198 L 50.712576,1.4628125 Z" fill="#1c9bd0" stroke="none" /><rect fill="none" height="43.3" opacity="0.67" stroke="#cbcbcb" stroke-width="0.48" width="49.8" x="0.9" y="1.4" /></g></g><ellipse cx="700.0" cy="625.0" fill="url(#gradient-redis)" rx="40.0" ry="25.0" stroke="black" /><ellipse cx="1260.0" cy="625.0" fill="url(#gradient-queue)" rx="40.0" ry="25.0" stroke="black" /><line stroke="black" stroke-width="2" x1="356.7503522033194" x2="160.24964779668062" y1="69.77805004657122" y2="310.2219499534288" /><line stroke="black" stroke-width="2" x1="400.81105449628825" x2="676.1889455037117" y1="66.37834614217832" y2="313.6216538578217" /><line stroke="black" stroke-width="2" x1="140.0" x2="140.0" y1="367.0" y2="593.0" /><line stroke="black" stroke-width="2" x1="671.5841789031268" x2="168.4158210968732" y1="349.71533592516647" y2="610.2846640748335" /><line stroke="black" stroke-width="2" x1="168.4158210968732" x2="664.4802236289084" y1="349.71533592516647" y2="606.6058300935418" /><line stroke="black" stroke-width="2" x1="728.4158210968732" x2="1224.4802236289086" y1="349.71533592516647" y2="606.6058300935418" /><text fill="black" font-family="Arial, sans-serif" font-size="14px" text-anchor="middle" x="40.0" y="5.0">API Gateway</text><text fill="black" font-family="Arial, sans-serif" font-size="14px" text-anchor="middle" x="140.0" y="295.0">Auth Service</text><text fill="black" font-family="Arial, sans-serif" font-size="14px" text-anchor="middle" x="700.0" y="295.0">User Service</text><text fill="black" font-family="Arial, sans-serif" font-size="14px" text-anchor="middle" x="140.0" y="585.0">PostgreSQL</text><text fill="black" font-family="Arial, sans-serif" font-size="14px" text-anchor="middle" x="700.0" y="585.0">Redis Cache</text><text fill="black" font-family="Arial, sans-serif" font-size="14px" text-anchor="middle" x="1260.0" y="585.0">Message Queue</text><text fill="gray" font-family="Arial, sans-serif" font-size="12px" text-anchor="end" x="207.7" y="190.0">authenticate</text><text fill="gray" font-family="Arial, sans-serif" font-size="12px" text-anchor="middle" x="538.5" y="147.0">proxy</text><text fill="gray" font-family="Arial, sans-serif" font-size="12px" text-anchor="end" x="89.2" y="480.0">query</text><text fill="gray" font-family="Arial, sans-serif" font-size="12px" text-anchor="middle" x="420.0" y="437.0">query</text><text fill="gray" font-family="Arial, sans-serif" font-size="12px" text-anchor="middle" x="416.4480223628908" y="521.1605830093541">cache</text><text fill="gray" font-family="Arial, sans-serif" font-size="12px" text-anchor="middle" x="976.4480223628909" y="435.1605830093541">publish</text></svg>