<?xml version="1.0" encoding="utf-8" ?>
<svg baseProfile="full" height="800" version="1.1" viewBox="0,0,800,800" width="800" xmlns="http://www.w3.org/2000/svg" xmlns:ev="http://www.w3.org/2001/xml-events" xmlns:xlink="http://www.w3.org/1999/xlink"><defs><marker id="arrow-end" markerHeight="10" markerWidth="10" orient="auto" refX="10" refY="5"><path d="M 0 0 L 10 5 L 0 10 z" fill="black" /></marker><marker id="arrow-start" markerHeight="10" markerWidth="10" orient="auto" refX="0" refY="5"><path d="M 10 0 L 0 5 L 10 10 z" fill="black" /></marker><linearGradient id="gradient-api-gateway" x1="0%" x2="0%" y1="0%" y2="100%"><stop offset="0%" stop-color="#c5e3ed" /><stop offset="100%" stop-color="#7997a1" /></linearGradient><linearGradient id="gradient-auth-service" x1="0%" x2="0%" y1="0%" y2="100%"><stop offset="0%" stop-color="#b1f3b1" /><stop offset="100%" stop-color="#64a664" /></linearGradient><linearGradient id="gradient-user-service" x1="0%" x2="0%" y1="0%" y2="100%"><stop offset="0%" stop-color="#b1f3b1" /><stop offset="100%" stop-color="#64a664" /></linearGradient><linearGradient id="gradient-database" x1="0%" x2="0%" y1="0%" y2="100%"><stop offset="0%" stop-color="#ffc04c" /><stop offset="100%" stop-color="#b27300" /></linearGradient><linearGradient id="gradient-redis" x1="0%" x2="0%" y1="0%" y2="100%"><stop offset="0%" stop-color="#4cffff" /><stop offset="100%" stop-color="#00b2b2" /></linearGradient><linearGradient id="gradient-queue" x1="0%" x2="0%" y1="0%" y2="100%"><stop offset="0%" stop-color="#ffd2da" /><stop offset="100%" stop-color="#b2868e" /></linearGradient></defs><rect fill="url(#gradient-api-gateway)" height="50" stroke="black" width="80" x="219.34124998537925" y="20.0" /><rect fill="url(#gradient-auth-service)" height="50" stroke="black" width="80" x="159.34124998538266" y="310.0" /><rect fill="url(#gradient-user-service)" height="50" stroke="black" width="80" x="279.34124998538266" y="310.0" /><g id="database"><g transform="translate(230.0,610.0) scale(1.2048192771084338,0.6928406466512702) translate(-0.9,-1.4)"><path d="M 22.754087,32.116749 0.94545599,43.000013 V 4.7289739 L 22.754087,1.5702876 Z" fill="#e9e9ff" stroke="none" /><path d="M 50.712576,33.120864 V 1.4628125 L 22.754087,1.5702876 V 32.116749 Z" fill="#353564" stroke="none" /><path d="M 50.712576,33.120864 35.295871,44.770537 0.94545599,43.000013 22.754087,32.116749 Z" fill="#4d4d9f" stroke="none" /><path d="M 50.712576,1.4628125 35.295871,4.7384198 0.94545599,4.7289739 22.754087,1.5702876 Z" fill="#1c1ce6" opacity="1" stroke="none" /><path d="M 35.295871,44.770537 V 4.7384198 L 0.94545599,4.7289739 V 43.000013 Z" fill="#1a52ff" opacity="0.96" stroke="none" /><path d="M 50.712576,33.120864 35.295871,44.770537 V 4.7384198 L 50.712576,1.4628125 Z" fill="#1c9bd0" stroke="none" /><rect fill="none" height="43.3" opacity="0.67" stroke="#cbcbcb" stroke-width="0.48" width="49.8" x="0.9" y="1.4" /></g></g><ellipse cx="140.0" cy="625.0" fill="url(#gradient-redis)" rx="40.0" ry="25.0" stroke="black" /><ellipse cx="380.0" cy="625.0" fill="url(#gradient-queue)" rx="40.0" ry="25.0" stroke="black" /><line stroke="black" stroke-width="2" x1="252.85787065622912" x2="205.82462931453279" y1="76.33633342422736" y2="303.66366657577265" /><line stroke="black" stroke-width="2" x1="265.82462931453006" x2="312.85787065623185" y1="76.3363334242272" y2="303.66366657577277" /><line stroke="black" stroke-width="2" x1="205.89284318234945" x2="253.4484068030332" y1="366.3221427520765" y2="593.6778572479235" /><line stroke="black" stroke-width="2" x1="312.92617681483404" x2="266.4150731705486" y1="366.35038813502166" y2="593.6496118649783" /><line stroke="black" stroke-width="2" x1="192.92617681483406" x2="148.01884146318577" y1="366.35038813502166" y2="585.8120148312229" /><line stroke="black" stroke-width="2" x1="325.89284318234945" x2="371.81050850379154" y1="366.3221427520765" y2="585.8473215599043" /><text fill="black" font-family="Arial, sans-serif" font-size="14px" text-anchor="middle" x="314.34124998537925" y="35.0">API Gateway</text><text fill="black" font-family="Arial, sans-serif" font-size="14px" text-anchor="middle" x="144.34124998538266" y="325.0">Auth Service</text><text fill="black" font-family="Arial, sans-serif" font-size="14px" text-anchor="middle" x="374.34124998538266" y="325.0">User Service</text><text fill="black" font-family="Arial, sans-serif" font-size="14px" text-anchor="middle" x="260.0" y="660.0">PostgreSQL</text><text fill="black" font-family="Arial, sans-serif" font-size="14px" text-anchor="middle" x="140.0" y="660.0">Redis Cache</text><text fill="black" font-family="Arial, sans-serif" font-size="14px" text-anchor="middle" x="380.0" y="660.0">Message Queue</text><text fill="gray" font-family="Arial, sans-serif" font-size="12px" text-anchor="end" x="178.54124998538094" y="190.0">authenticate</text><text fill="gray" font-family="Arial, sans-serif" font-size="12px" text-anchor="start" x="340.14124998538097" y="190.0">proxy</text><text fill="gray" font-family="Arial, sans-serif" font-size="12px" text-anchor="middle" x="229.67062499269133" y="437.0">query</text><text fill="gray" font-family="Arial, sans-serif" font-size="12px" text-anchor="middle" x="289.67062499269133" y="523.0">query</text><text fill="gray" font-family="Arial, sans-serif" font-size="12px" text-anchor="end" x="119.6725091390099" y="476.0812014831223">cache</text><text fill="gray" font-family="Arial, sans-serif" font-size="12px" text-anchor="start" x="399.6516758430705" y="476.0847321559904">publish</text></svg>