<?xml version="1.0" encoding="utf-8" ?>
<svg baseProfile="full" height="800" version="1.1" viewBox="0,0,800,800" width="800" xmlns="http://www.w3.org/2000/svg" xmlns:ev="http://www.w3.org/2001/xml-events" xmlns:xlink="http://www.w3.org/1999/xlink"><defs><filter height="140%" id="text-glow" width="140%" x="-20%" y="-20%"><feGaussianBlur in="SourceGraphic" result="blur" stdDeviation="2" /><feFlood flood-color="white" flood-opacity="1" result="color" /><feComposite in="color" in2="blur" operator="in" result="shadow" /><feMerge><feMergeNode in="shadow" /><feMergeNode in="shadow" /><feMergeNode in="SourceGraphic" /></feMerge></filter><marker id="arrow-end" markerHeight="10" markerWidth="10" orient="auto" refX="10" refY="5"><path d="M 0 0 L 10 5 L 0 10 z" fill="black" /></marker><marker id="arrow-start" markerHeight="10" markerWidth="10" orient="auto" refX="0" refY="5"><path d="M 10 0 L 0 5 L 10 10 z" fill="black" /></marker><marker id="circle-start" markerHeight="10" markerWidth="10" orient="auto" refX="5" refY="5"><circle cx="5" cy="5" fill="black" r="4" /></marker><marker id="circle-end" markerHeight="10" markerWidth="10" orient="auto" refX="5" refY="5"><circle cx="5" cy="5" fill="black" r="4" /></marker><linearGradient id="gradient-api-gateway" x1="0%" x2="0%" y1="0%" y2="100%"><stop offset="0%" stop-color="#c5e3ed" /><stop offset="100%" stop-color="#7997a1" /></linearGradient><linearGradient id="gradient-auth-service" x1="0%" x2="0%" y1="0%" y2="100%"><stop offset="0%" stop-color="#b1f3b1" /><stop offset="100%" stop-color="#64a664" /></linearGradient><linearGradient id="gradient-user-service" x1="0%" x2="0%" y1="0%" y2="100%"><stop offset="0%" stop-color="#b1f3b1" /><stop offset="100%" stop-color="#64a664" /></linearGradient><linearGradient id="gradient-database" x1="0%" x2="0%" y1="0%" y2="100%"><stop offset="0%" stop-color="#ffc04c" /><stop offset="100%" stop-color="#b27300" /></linearGradient><linearGradient id="gradient-redis" x1="0%" x2="0%" y1="0%" y2="100%"><stop offset="0%" stop-color="#4cffff" /><stop offset="100%" stop-color="#00b2b2" /></linearGradient><linearGradient id="gradient-queue" x1="0%" x2="0%" y1="0%" y2="100%"><stop offset="0%" stop-color="#ffd2da" /><stop offset="100%" stop-color="#b2868e" /></linearGradient></defs><g id="api-gateway"><rect fill="url(#gradient-api-gateway)" height="50" rx="4" ry="4" stroke="black" stroke-width="1.2" width="80" x="219.34124998537925" y="20.0" /><line stroke="#67818a" stroke-width="0.8" x1="221.34124998537925" x2="297.34124998537925" y1="36.66666666666667" y2="36.66666666666667" /><line stroke="#67818a" stroke-width="0.8" x1="221.34124998537925" x2="297.34124998537925" y1="53.333333333333336" y2="53.333333333333336" /><circle cx="287.34124998537925" cy="28.333333333333336" fill="#00cc44" r="2.5" stroke="#67818a" stroke-width="0.5" /><circle cx="279.34124998537925" cy="28.333333333333336" fill="#ffaa00" r="2.5" stroke="#67818a" stroke-width="0.5" /><circle cx="287.34124998537925" cy="45.00000000000001" fill="#00cc44" r="2.5" stroke="#67818a" stroke-width="0.5" /><circle cx="279.34124998537925" cy="45.00000000000001" fill="#ffaa00" r="2.5" stroke="#67818a" stroke-width="0.5" /><circle cx="287.34124998537925" cy="61.66666666666667" fill="#00cc44" r="2.5" stroke="#67818a" stroke-width="0.5" /><circle cx="279.34124998537925" cy="61.66666666666667" fill="#ffaa00" r="2.5" stroke="#67818a" stroke-width="0.5" /><line stroke="#67818a" stroke-width="0.6" x1="225.34124998537925" x2="237.34124998537925" y1="25.0" y2="25.0" /><line stroke="#67818a" stroke-width="0.6" x1="225.34124998537925" x2="237.34124998537925" y1="28.333333333333336" y2="28.333333333333336" /><line stroke="#67818a" stroke-width="0.6" x1="225.34124998537925" x2="237.34124998537925" y1="31.666666666666668" y2="31.666666666666668" /><line stroke="#67818a" stroke-width="0.6" x1="225.34124998537925" x2="237.34124998537925" y1="41.66666666666667" y2="41.66666666666667" /><line stroke="#67818a" stroke-width="0.6" x1="225.34124998537925" x2="237.34124998537925" y1="45.00000000000001" y2="45.00000000000001" /><line stroke="#67818a" stroke-width="0.6" x1="225.34124998537925" x2="237.34124998537925" y1="48.33333333333334" y2="48.33333333333334" /><line stroke="#67818a" stroke-width="0.6" x1="225.34124998537925" x2="237.34124998537925" y1="58.333333333333336" y2="58.333333333333336" /><line stroke="#67818a" stroke-width="0.6" x1="225.34124998537925" x2="237.34124998537925" y1="61.66666666666667" y2="61.66666666666667" /><line stroke="#67818a" stroke-width="0.6" x1="225.34124998537925" x2="237.34124998537925" y1="65.0" y2="65.0" /></g><g id="auth-service"><rect fill="url(#gradient-auth-service)" height="50" rx="4" ry="4" stroke="black" stroke-width="1.2" width="80" x="159.34124998538266" y="310.0" /><line stroke="#568e56" stroke-width="0.8" x1="161.34124998538266" x2="237.34124998538266" y1="326.6666666666667" y2="326.6666666666667" /><line stroke="#568e56" stroke-width="0.8" x1="161.34124998538266" x2="237.34124998538266" y1="343.3333333333333" y2="343.3333333333333" /><circle cx="227.34124998538266" cy="318.3333333333333" fill="#00cc44" r="2.5" stroke="#568e56" stroke-width="0.5" /><circle cx="219.34124998538266" cy="318.3333333333333" fill="#ffaa00" r="2.5" stroke="#568e56" stroke-width="0.5" /><circle cx="227.34124998538266" cy="335.0" fill="#00cc44" r="2.5" stroke="#568e56" stroke-width="0.5" /><circle cx="219.34124998538266" cy="335.0" fill="#ffaa00" r="2.5" stroke="#568e56" stroke-width="0.5" /><circle cx="227.34124998538266" cy="351.66666666666663" fill="#00cc44" r="2.5" stroke="#568e56" stroke-width="0.5" /><circle cx="219.34124998538266" cy="351.66666666666663" fill="#ffaa00" r="2.5" stroke="#568e56" stroke-width="0.5" /><line stroke="#568e56" stroke-width="0.6" x1="165.34124998538266" x2="177.34124998538266" y1="315.0" y2="315.0" /><line stroke="#568e56" stroke-width="0.6" x1="165.34124998538266" x2="177.34124998538266" y1="318.3333333333333" y2="318.3333333333333" /><line stroke="#568e56" stroke-width="0.6" x1="165.34124998538266" x2="177.34124998538266" y1="321.6666666666667" y2="321.6666666666667" /><line stroke="#568e56" stroke-width="0.6" x1="165.34124998538266" x2="177.34124998538266" y1="331.6666666666667" y2="331.6666666666667" /><line stroke="#568e56" stroke-width="0.6" x1="165.34124998538266" x2="177.34124998538266" y1="335.0" y2="335.0" /><line stroke="#568e56" stroke-width="0.6" x1="165.34124998538266" x2="177.34124998538266" y1="338.33333333333337" y2="338.33333333333337" /><line stroke="#568e56" stroke-width="0.6" x1="165.34124998538266" x2="177.34124998538266" y1="348.3333333333333" y2="348.3333333333333" /><line stroke="#568e56" stroke-width="0.6" x1="165.34124998538266" x2="177.34124998538266" y1="351.66666666666663" y2="351.66666666666663" /><line stroke="#568e56" stroke-width="0.6" x1="165.34124998538266" x2="177.34124998538266" y1="355.0" y2="355.0" /></g><g id="user-service"><rect fill="url(#gradient-user-service)" height="50" rx="4" ry="4" stroke="black" stroke-width="1.2" width="80" x="279.34124998538266" y="310.0" /><line stroke="#568e56" stroke-width="0.8" x1="281.34124998538266" x2="357.34124998538266" y1="326.6666666666667" y2="326.6666666666667" /><line stroke="#568e56" stroke-width="0.8" x1="281.34124998538266" x2="357.34124998538266" y1="343.3333333333333" y2="343.3333333333333" /><circle cx="347.34124998538266" cy="318.3333333333333" fill="#00cc44" r="2.5" stroke="#568e56" stroke-width="0.5" /><circle cx="339.34124998538266" cy="318.3333333333333" fill="#ffaa00" r="2.5" stroke="#568e56" stroke-width="0.5" /><circle cx="347.34124998538266" cy="335.0" fill="#00cc44" r="2.5" stroke="#568e56" stroke-width="0.5" /><circle cx="339.34124998538266" cy="335.0" fill="#ffaa00" r="2.5" stroke="#568e56" stroke-width="0.5" /><circle cx="347.34124998538266" cy="351.66666666666663" fill="#00cc44" r="2.5" stroke="#568e56" stroke-width="0.5" /><circle cx="339.34124998538266" cy="351.66666666666663" fill="#ffaa00" r="2.5" stroke="#568e56" stroke-width="0.5" /><line stroke="#568e56" stroke-width="0.6" x1="285.34124998538266" x2="297.34124998538266" y1="315.0" y2="315.0" /><line stroke="#568e56" stroke-width="0.6" x1="285.34124998538266" x2="297.34124998538266" y1="318.3333333333333" y2="318.3333333333333" /><line stroke="#568e56" stroke-width="0.6" x1="285.34124998538266" x2="297.34124998538266" y1="321.6666666666667" y2="321.6666666666667" /><line stroke="#568e56" stroke-width="0.6" x1="285.34124998538266" x2="297.34124998538266" y1="331.6666666666667" y2="331.6666666666667" /><line stroke="#568e56" stroke-width="0.6" x1="285.34124998538266" x2="297.34124998538266" y1="335.0" y2="335.0" /><line stroke="#568e56" stroke-width="0.6" x1="285.34124998538266" x2="297.34124998538266" y1="338.33333333333337" y2="338.33333333333337" /><line stroke="#568e56" stroke-width="0.6" x1="285.34124998538266" x2="297.34124998538266" y1="348.3333333333333" y2="348.3333333333333" /><line stroke="#568e56" stroke-width="0.6" x1="285.34124998538266" x2="297.34124998538266" y1="351.66666666666663" y2="351.66666666666663" /><line stroke="#568e56" stroke-width="0.6" x1="285.34124998538266" x2="297.34124998538266" y1="355.0" y2="355.0" /></g><g id="database"><rect fill="url(#gradient-database)" height="46" rx="2" ry="2" stroke="black" stroke-width="1.2" width="64" x="228.0" y="604.0" /><polygon fill="#7f5200" points="224.0,604.0 260.0,594.0 296.0,604.0" stroke="black" stroke-width="1.0" /><rect fill="#ffd27f" height="7" stroke="#7f5200" stroke-width="0.7" width="10" x="235.0" y="610.0" /><line stroke="#7f5200" stroke-width="0.5" x1="240.0" x2="240.0" y1="610.0" y2="617.0" /><line stroke="#7f5200" stroke-width="0.5" x1="235.0" x2="245.0" y1="613.5" y2="613.5" /><rect fill="#ffd27f" height="7" stroke="#7f5200" stroke-width="0.7" width="10" x="255.0" y="610.0" /><line stroke="#7f5200" stroke-width="0.5" x1="260.0" x2="260.0" y1="610.0" y2="617.0" /><line stroke="#7f5200" stroke-width="0.5" x1="255.0" x2="265.0" y1="613.5" y2="613.5" /><rect fill="#ffd27f" height="7" stroke="#7f5200" stroke-width="0.7" width="10" x="275.0" y="610.0" /><line stroke="#7f5200" stroke-width="0.5" x1="280.0" x2="280.0" y1="610.0" y2="617.0" /><line stroke="#7f5200" stroke-width="0.5" x1="275.0" x2="285.0" y1="613.5" y2="613.5" /><rect fill="#ffd27f" height="7" stroke="#7f5200" stroke-width="0.7" width="10" x="235.0" y="624.0" /><line stroke="#7f5200" stroke-width="0.5" x1="240.0" x2="240.0" y1="624.0" y2="631.0" /><line stroke="#7f5200" stroke-width="0.5" x1="235.0" x2="245.0" y1="627.5" y2="627.5" /><rect fill="#ffd27f" height="7" stroke="#7f5200" stroke-width="0.7" width="10" x="255.0" y="624.0" /><line stroke="#7f5200" stroke-width="0.5" x1="260.0" x2="260.0" y1="624.0" y2="631.0" /><line stroke="#7f5200" stroke-width="0.5" x1="255.0" x2="265.0" y1="627.5" y2="627.5" /><rect fill="#ffd27f" height="7" stroke="#7f5200" stroke-width="0.7" width="10" x="275.0" y="624.0" /><line stroke="#7f5200" stroke-width="0.5" x1="280.0" x2="280.0" y1="624.0" y2="631.0" /><line stroke="#7f5200" stroke-width="0.5" x1="275.0" x2="285.0" y1="627.5" y2="627.5" /><rect fill="#7f5200" height="12" stroke="black" stroke-width="0.8" width="10" x="255.0" y="638.0" /><circle cx="262.5" cy="644.0" fill="#ffd27f" r="1.2" /></g><g id="redis"><ellipse cx="140.0" cy="633.0" fill="url(#gradient-redis)" rx="36.0" ry="11.0" stroke="#00b2b2" stroke-width="0.8" /><circle cx="140.0" cy="621.0" fill="url(#gradient-redis)" r="17.0" stroke="#00b2b2" stroke-width="0.8" /><circle cx="126.0" cy="627.0" fill="url(#gradient-redis)" r="13.0" stroke="#00b2b2" stroke-width="0.8" /><circle cx="154.0" cy="627.0" fill="url(#gradient-redis)" r="13.0" stroke="#00b2b2" stroke-width="0.8" /><ellipse cx="140.0" cy="629.0" fill="url(#gradient-redis)" rx="30.4" ry="14.000000000000002" stroke="none" /></g><g id="queue"><ellipse cx="380.0" cy="633.0" fill="url(#gradient-queue)" rx="36.0" ry="11.0" stroke="#b2868e" stroke-width="0.8" /><circle cx="380.0" cy="621.0" fill="url(#gradient-queue)" r="17.0" stroke="#b2868e" stroke-width="0.8" /><circle cx="366.0" cy="627.0" fill="url(#gradient-queue)" r="13.0" stroke="#b2868e" stroke-width="0.8" /><circle cx="394.0" cy="627.0" fill="url(#gradient-queue)" r="13.0" stroke="#b2868e" stroke-width="0.8" /><ellipse cx="380.0" cy="629.0" fill="url(#gradient-queue)" rx="30.4" ry="14.000000000000002" stroke="none" /></g><line stroke="black" stroke-width="2" x1="252.85787065622912" x2="205.82462931453279" y1="76.33633342422736" y2="303.66366657577265" /><line stroke="black" stroke-width="2" x1="265.82462931453006" x2="312.85787065623185" y1="76.3363334242272" y2="303.66366657577277" /><line stroke="black" stroke-width="2" x1="205.89284318234945" x2="253.4484068030332" y1="366.3221427520765" y2="593.6778572479235" /><line stroke="black" stroke-width="2" x1="312.92617681483404" x2="266.4150731705486" y1="366.35038813502166" y2="593.6496118649783" /><line stroke="black" stroke-width="2" x1="192.92617681483406" x2="148.01884146318577" y1="366.35038813502166" y2="585.8120148312229" /><line stroke="black" stroke-width="2" x1="325.89284318234945" x2="371.81050850379154" y1="366.3221427520765" y2="585.8473215599043" /><text fill="black" filter="url(#text-glow)" font-family="Arial, sans-serif" font-size="14px" text-anchor="start" x="311.9412499853793" y="45.0">API Gateway</text><text fill="black" filter="url(#text-glow)" font-family="Arial, sans-serif" font-size="14px" text-anchor="end" x="146.74124998538267" y="335.0">Auth Service</text><text fill="black" filter="url(#text-glow)" font-family="Arial, sans-serif" font-size="14px" text-anchor="start" x="371.9412499853827" y="335.0">User Service</text><text fill="black" filter="url(#text-glow)" font-family="Arial, sans-serif" font-size="14px" text-anchor="middle" x="260.0" y="671.0">PostgreSQL</text><text fill="black" filter="url(#text-glow)" font-family="Arial, sans-serif" font-size="14px" text-anchor="middle" x="140.0" y="671.0">Redis Cache</text><text fill="black" filter="url(#text-glow)" font-family="Arial, sans-serif" font-size="14px" text-anchor="middle" x="380.0" y="671.0">Message Queue</text><text fill="gray" filter="url(#text-glow)" font-family="Arial, sans-serif" font-size="12px" text-anchor="end" x="178.54124998538094" y="190.0">authenticate</text><text fill="gray" filter="url(#text-glow)" font-family="Arial, sans-serif" font-size="12px" text-anchor="start" x="340.14124998538097" y="190.0">proxy</text><text fill="gray" filter="url(#text-glow)" font-family="Arial, sans-serif" font-size="12px" text-anchor="middle" x="229.67062499269133" y="437.0">query</text><text fill="gray" filter="url(#text-glow)" font-family="Arial, sans-serif" font-size="12px" text-anchor="middle" x="289.67062499269133" y="523.0">query</text><text fill="gray" filter="url(#text-glow)" font-family="Arial, sans-serif" font-size="12px" text-anchor="end" x="119.6725091390099" y="476.0812014831223">cache</text><text fill="gray" filter="url(#text-glow)" font-family="Arial, sans-serif" font-size="12px" text-anchor="start" x="399.6516758430705" y="476.0847321559904">publish</text></svg>