<?xml version="1.0" encoding="utf-8" ?>
<svg baseProfile="full" height="700" version="1.1" viewBox="0,0,1000,700" width="1000" xmlns="http://www.w3.org/2000/svg" xmlns:ev="http://www.w3.org/2001/xml-events" xmlns:xlink="http://www.w3.org/1999/xlink"><defs><marker id="arrow-end" markerHeight="10" markerWidth="10" orient="auto" refX="10" refY="5"><path d="M 0 0 L 10 5 L 0 10 z" fill="black" /></marker><marker id="arrow-start" markerHeight="10" markerWidth="10" orient="auto" refX="0" refY="5"><path d="M 10 0 L 0 5 L 10 10 z" fill="black" /></marker><linearGradient id="gradient-main-server" x1="0%" x2="0%" y1="0%" y2="100%"><stop offset="0%" stop-color="#c5e3ed" /><stop offset="100%" stop-color="#7997a1" /></linearGradient><linearGradient id="gradient-db-primary" x1="0%" x2="0%" y1="0%" y2="100%"><stop offset="0%" stop-color="#ffc04c" /><stop offset="100%" stop-color="#b27300" /></linearGradient><linearGradient id="gradient-cache" x1="0%" x2="0%" y1="0%" y2="100%"><stop offset="0%" stop-color="#4cffff" /><stop offset="100%" stop-color="#00b2b2" /></linearGradient><linearGradient id="gradient-worker-1" x1="0%" x2="0%" y1="0%" y2="100%"><stop offset="0%" stop-color="#b1f3b1" /><stop offset="100%" stop-color="#64a664" /></linearGradient><linearGradient id="gradient-worker-2" x1="0%" x2="0%" y1="0%" y2="100%"><stop offset="0%" stop-color="#b1f3b1" /><stop offset="100%" stop-color="#64a664" /></linearGradient></defs><rect fill="url(#gradient-main-server)" height="50" stroke="black" width="80" x="400" y="250" /><g id="db-primary"><g transform="translate(210.0,310.0) scale(1.2048192771084338,0.6928406466512702) translate(-0.9,-1.4)"><path d="M 22.754087,32.116749 0.94545599,43.000013 V 4.7289739 L 22.754087,1.5702876 Z" fill="#e9e9ff" stroke="none" /><path d="M 50.712576,33.120864 V 1.4628125 L 22.754087,1.5702876 V 32.116749 Z" fill="#353564" stroke="none" /><path d="M 50.712576,33.120864 35.295871,44.770537 0.94545599,43.000013 22.754087,32.116749 Z" fill="#4d4d9f" stroke="none" /><path d="M 50.712576,1.4628125 35.295871,4.7384198 0.94545599,4.7289739 22.754087,1.5702876 Z" fill="#1c1ce6" opacity="1" stroke="none" /><path d="M 35.295871,44.770537 V 4.7384198 L 0.94545599,4.7289739 V 43.000013 Z" fill="#1a52ff" opacity="0.96" stroke="none" /><path d="M 50.712576,33.120864 35.295871,44.770537 V 4.7384198 L 50.712576,1.4628125 Z" fill="#1c9bd0" stroke="none" /><rect fill="none" height="43.3" opacity="0.67" stroke="#cbcbcb" stroke-width="0.48" width="49.8" x="0.9" y="1.4" /></g></g><ellipse cx="640.0" cy="325.0" fill="url(#gradient-cache)" rx="40.0" ry="25.0" stroke="black" /><rect fill="url(#gradient-worker-1)" height="50" stroke="black" width="80" x="250" y="500" /><rect fill="url(#gradient-worker-2)" height="50" stroke="black" width="80" x="550" y="500" /><line marker-end="url(#arrow-end)" marker-start="url(#arrow-start)" stroke="black" stroke-width="2" x1="448.3435604410357" x2="291.6564395589643" y1="317.1765194803015" y2="340.3234805196985" /><line marker-end="url(#arrow-end)" marker-start="url(#arrow-start)" stroke="black" stroke-width="2" x1="511.81029413614004" x2="600.2371323298249" y1="315.9792509211403" y2="325.6509363485746" /><line stroke="black" stroke-width="2" x1="278.0085597388591" x2="263.9914402611409" y1="488.24990701365203" y2="376.75009298634797" /><line stroke="black" stroke-width="2" x1="553.8840156936785" x2="288.1159843063215" y1="504.7195737465644" y2="360.2804262534356" /><text fill="black" font-family="Arial, sans-serif" font-size="14px" text-anchor="middle" x="480.0" y="212">Main Server</text><text fill="black" font-family="Arial, sans-serif" font-size="14px" text-anchor="middle" x="480.0" y="230">(Large)</text><text fill="black" font-family="Arial, sans-serif" font-size="14px" text-anchor="middle" x="260.0" y="262">Primary DB</text><text fill="black" font-family="Arial, sans-serif" font-size="14px" text-anchor="middle" x="260.0" y="280">(Medium-Large)</text><text fill="black" font-family="Arial, sans-serif" font-size="14px" text-anchor="middle" x="640.0" y="370.0">Cache</text><text fill="black" font-family="Arial, sans-serif" font-size="14px" text-anchor="middle" x="640.0" y="388.0">(Medium)</text><text fill="black" font-family="Arial, sans-serif" font-size="14px" text-anchor="middle" x="282.0" y="550.0">Worker 1</text><text fill="black" font-family="Arial, sans-serif" font-size="14px" text-anchor="middle" x="282.0" y="568.0">(Small)</text><text fill="black" font-family="Arial, sans-serif" font-size="14px" text-anchor="middle" x="582.0" y="550.0">Worker 2</text><text fill="black" font-family="Arial, sans-serif" font-size="14px" text-anchor="middle" x="582.0" y="568.0">(Small)</text><text fill="gray" font-family="Arial, sans-serif" font-size="12px" text-anchor="middle" x="370.0" y="371.75">read/write</text><text fill="gray" font-family="Arial, sans-serif" font-size="12px" text-anchor="start" x="606.8237132329824" y="277.8150936348575">get/set</text><text fill="gray" font-family="Arial, sans-serif" font-size="12px" text-anchor="end" x="220.2" y="432.5">query</text><text fill="gray" font-family="Arial, sans-serif" font-size="12px" text-anchor="middle" x="421.0" y="475.5">query</text></svg>