<?xml version="1.0" encoding="utf-8" ?>
<svg baseProfile="full" height="700" version="1.1" viewBox="0,0,1000,700" width="1000" xmlns="http://www.w3.org/2000/svg" xmlns:ev="http://www.w3.org/2001/xml-events" xmlns:xlink="http://www.w3.org/1999/xlink"><defs><filter height="140%" id="text-glow" width="140%" x="-20%" y="-20%"><feGaussianBlur in="SourceGraphic" result="blur" stdDeviation="2" /><feFlood flood-color="white" flood-opacity="1" result="color" /><feComposite in="color" in2="blur" operator="in" result="shadow" /><feMerge><feMergeNode in="shadow" /><feMergeNode in="shadow" /><feMergeNode in="SourceGraphic" /></feMerge></filter><marker id="arrow-end" markerHeight="10" markerWidth="10" orient="auto" refX="10" refY="5"><path d="M 0 0 L 10 5 L 0 10 z" fill="black" /></marker><marker id="arrow-start" markerHeight="10" markerWidth="10" orient="auto" refX="0" refY="5"><path d="M 10 0 L 0 5 L 10 10 z" fill="black" /></marker><marker id="circle-start" markerHeight="10" markerWidth="10" orient="auto" refX="5" refY="5"><circle cx="5" cy="5" fill="black" r="4" /></marker><marker id="circle-end" markerHeight="10" markerWidth="10" orient="auto" refX="5" refY="5"><circle cx="5" cy="5" fill="black" r="4" /></marker><linearGradient id="gradient-main-server" x1="0%" x2="0%" y1="0%" y2="100%"><stop offset="0%" stop-color="#c5e3ed" /><stop offset="100%" stop-color="#7997a1" /></linearGradient><linearGradient id="gradient-db-primary" x1="0%" x2="0%" y1="0%" y2="100%"><stop offset="0%" stop-color="#ffc04c" /><stop offset="100%" stop-color="#b27300" /></linearGradient><linearGradient id="gradient-cache" x1="0%" x2="0%" y1="0%" y2="100%"><stop offset="0%" stop-color="#4cffff" /><stop offset="100%" stop-color="#00b2b2" /></linearGradient><linearGradient id="gradient-worker-1" x1="0%" x2="0%" y1="0%" y2="100%"><stop offset="0%" stop-color="#b1f3b1" /><stop offset="100%" stop-color="#64a664" /></linearGradient><linearGradient id="gradient-worker-2" x1="0%" x2="0%" y1="0%" y2="100%"><stop offset="0%" stop-color="#b1f3b1" /><stop offset="100%" stop-color="#64a664" /></linearGradient></defs><g id="main-server"><rect fill="url(#gradient-main-server)" height="50" rx="4" ry="4" stroke="black" stroke-width="1.2" width="80" x="400" y="250" /><line stroke="#67818a" stroke-width="0.8" x1="402" x2="478" y1="266.6666666666667" y2="266.6666666666667" /><line stroke="#67818a" stroke-width="0.8" x1="402" x2="478" y1="283.3333333333333" y2="283.3333333333333" /><circle cx="468" cy="258.3333333333333" fill="#00cc44" r="2.5" stroke="#67818a" stroke-width="0.5" /><circle cx="460" cy="258.3333333333333" fill="#ffaa00" r="2.5" stroke="#67818a" stroke-width="0.5" /><circle cx="468" cy="275.0" fill="#00cc44" r="2.5" stroke="#67818a" stroke-width="0.5" /><circle cx="460" cy="275.0" fill="#ffaa00" r="2.5" stroke="#67818a" stroke-width="0.5" /><circle cx="468" cy="291.66666666666663" fill="#00cc44" r="2.5" stroke="#67818a" stroke-width="0.5" /><circle cx="460" cy="291.66666666666663" fill="#ffaa00" r="2.5" stroke="#67818a" stroke-width="0.5" /><line stroke="#67818a" stroke-width="0.6" x1="406" x2="418" y1="255.0" y2="255.0" /><line stroke="#67818a" stroke-width="0.6" x1="406" x2="418" y1="258.3333333333333" y2="258.3333333333333" /><line stroke="#67818a" stroke-width="0.6" x1="406" x2="418" y1="261.6666666666667" y2="261.6666666666667" /><line stroke="#67818a" stroke-width="0.6" x1="406" x2="418" y1="271.6666666666667" y2="271.6666666666667" /><line stroke="#67818a" stroke-width="0.6" x1="406" x2="418" y1="275.0" y2="275.0" /><line stroke="#67818a" stroke-width="0.6" x1="406" x2="418" y1="278.33333333333337" y2="278.33333333333337" /><line stroke="#67818a" stroke-width="0.6" x1="406" x2="418" y1="288.3333333333333" y2="288.3333333333333" /><line stroke="#67818a" stroke-width="0.6" x1="406" x2="418" y1="291.66666666666663" y2="291.66666666666663" /><line stroke="#67818a" stroke-width="0.6" x1="406" x2="418" y1="295.0" y2="295.0" /></g><g id="db-primary"><rect fill="url(#gradient-db-primary)" height="46" rx="2" ry="2" stroke="black" stroke-width="1.2" width="64" x="208" y="304" /><polygon fill="#7f5200" points="204,304 240.0,294 276,304" stroke="black" stroke-width="1.0" /><rect fill="#ffd27f" height="7" stroke="#7f5200" stroke-width="0.7" width="10" x="215" y="310" /><line stroke="#7f5200" stroke-width="0.5" x1="220.0" x2="220.0" y1="310" y2="317" /><line stroke="#7f5200" stroke-width="0.5" x1="215" x2="225" y1="313.5" y2="313.5" /><rect fill="#ffd27f" height="7" stroke="#7f5200" stroke-width="0.7" width="10" x="235" y="310" /><line stroke="#7f5200" stroke-width="0.5" x1="240.0" x2="240.0" y1="310" y2="317" /><line stroke="#7f5200" stroke-width="0.5" x1="235" x2="245" y1="313.5" y2="313.5" /><rect fill="#ffd27f" height="7" stroke="#7f5200" stroke-width="0.7" width="10" x="255" y="310" /><line stroke="#7f5200" stroke-width="0.5" x1="260.0" x2="260.0" y1="310" y2="317" /><line stroke="#7f5200" stroke-width="0.5" x1="255" x2="265" y1="313.5" y2="313.5" /><rect fill="#ffd27f" height="7" stroke="#7f5200" stroke-width="0.7" width="10" x="215" y="324" /><line stroke="#7f5200" stroke-width="0.5" x1="220.0" x2="220.0" y1="324" y2="331" /><line stroke="#7f5200" stroke-width="0.5" x1="215" x2="225" y1="327.5" y2="327.5" /><rect fill="#ffd27f" height="7" stroke="#7f5200" stroke-width="0.7" width="10" x="235" y="324" /><line stroke="#7f5200" stroke-width="0.5" x1="240.0" x2="240.0" y1="324" y2="331" /><line stroke="#7f5200" stroke-width="0.5" x1="235" x2="245" y1="327.5" y2="327.5" /><rect fill="#ffd27f" height="7" stroke="#7f5200" stroke-width="0.7" width="10" x="255" y="324" /><line stroke="#7f5200" stroke-width="0.5" x1="260.0" x2="260.0" y1="324" y2="331" /><line stroke="#7f5200" stroke-width="0.5" x1="255" x2="265" y1="327.5" y2="327.5" /><rect fill="#7f5200" height="12" stroke="black" stroke-width="0.8" width="10" x="235.0" y="338" /><circle cx="242.5" cy="344.0" fill="#ffd27f" r="1.2" /></g><g id="cache"><ellipse cx="640.0" cy="333.0" fill="url(#gradient-cache)" rx="36.0" ry="11.0" stroke="#00b2b2" stroke-width="0.8" /><circle cx="640.0" cy="321.0" fill="url(#gradient-cache)" r="17.0" stroke="#00b2b2" stroke-width="0.8" /><circle cx="626.0" cy="327.0" fill="url(#gradient-cache)" r="13.0" stroke="#00b2b2" stroke-width="0.8" /><circle cx="654.0" cy="327.0" fill="url(#gradient-cache)" r="13.0" stroke="#00b2b2" stroke-width="0.8" /><ellipse cx="640.0" cy="329.0" fill="url(#gradient-cache)" rx="30.4" ry="14.000000000000002" stroke="none" /></g><g id="worker-1"><rect fill="url(#gradient-worker-1)" height="50" rx="4" ry="4" stroke="black" stroke-width="1.2" width="80" x="250" y="500" /><line stroke="#568e56" stroke-width="0.8" x1="252" x2="328" y1="516.6666666666666" y2="516.6666666666666" /><line stroke="#568e56" stroke-width="0.8" x1="252" x2="328" y1="533.3333333333334" y2="533.3333333333334" /><circle cx="318" cy="508.3333333333333" fill="#00cc44" r="2.5" stroke="#568e56" stroke-width="0.5" /><circle cx="310" cy="508.3333333333333" fill="#ffaa00" r="2.5" stroke="#568e56" stroke-width="0.5" /><circle cx="318" cy="525.0" fill="#00cc44" r="2.5" stroke="#568e56" stroke-width="0.5" /><circle cx="310" cy="525.0" fill="#ffaa00" r="2.5" stroke="#568e56" stroke-width="0.5" /><circle cx="318" cy="541.6666666666667" fill="#00cc44" r="2.5" stroke="#568e56" stroke-width="0.5" /><circle cx="310" cy="541.6666666666667" fill="#ffaa00" r="2.5" stroke="#568e56" stroke-width="0.5" /><line stroke="#568e56" stroke-width="0.6" x1="256" x2="268" y1="505.0" y2="505.0" /><line stroke="#568e56" stroke-width="0.6" x1="256" x2="268" y1="508.3333333333333" y2="508.3333333333333" /><line stroke="#568e56" stroke-width="0.6" x1="256" x2="268" y1="511.6666666666667" y2="511.6666666666667" /><line stroke="#568e56" stroke-width="0.6" x1="256" x2="268" y1="521.6666666666666" y2="521.6666666666666" /><line stroke="#568e56" stroke-width="0.6" x1="256" x2="268" y1="525.0" y2="525.0" /><line stroke="#568e56" stroke-width="0.6" x1="256" x2="268" y1="528.3333333333333" y2="528.3333333333333" /><line stroke="#568e56" stroke-width="0.6" x1="256" x2="268" y1="538.3333333333334" y2="538.3333333333334" /><line stroke="#568e56" stroke-width="0.6" x1="256" x2="268" y1="541.6666666666667" y2="541.6666666666667" /><line stroke="#568e56" stroke-width="0.6" x1="256" x2="268" y1="545.0" y2="545.0" /></g><g id="worker-2"><rect fill="url(#gradient-worker-2)" height="50" rx="4" ry="4" stroke="black" stroke-width="1.2" width="80" x="550" y="500" /><line stroke="#568e56" stroke-width="0.8" x1="552" x2="628" y1="516.6666666666666" y2="516.6666666666666" /><line stroke="#568e56" stroke-width="0.8" x1="552" x2="628" y1="533.3333333333334" y2="533.3333333333334" /><circle cx="618" cy="508.3333333333333" fill="#00cc44" r="2.5" stroke="#568e56" stroke-width="0.5" /><circle cx="610" cy="508.3333333333333" fill="#ffaa00" r="2.5" stroke="#568e56" stroke-width="0.5" /><circle cx="618" cy="525.0" fill="#00cc44" r="2.5" stroke="#568e56" stroke-width="0.5" /><circle cx="610" cy="525.0" fill="#ffaa00" r="2.5" stroke="#568e56" stroke-width="0.5" /><circle cx="618" cy="541.6666666666667" fill="#00cc44" r="2.5" stroke="#568e56" stroke-width="0.5" /><circle cx="610" cy="541.6666666666667" fill="#ffaa00" r="2.5" stroke="#568e56" stroke-width="0.5" /><line stroke="#568e56" stroke-width="0.6" x1="556" x2="568" y1="505.0" y2="505.0" /><line stroke="#568e56" stroke-width="0.6" x1="556" x2="568" y1="508.3333333333333" y2="508.3333333333333" /><line stroke="#568e56" stroke-width="0.6" x1="556" x2="568" y1="511.6666666666667" y2="511.6666666666667" /><line stroke="#568e56" stroke-width="0.6" x1="556" x2="568" y1="521.6666666666666" y2="521.6666666666666" /><line stroke="#568e56" stroke-width="0.6" x1="556" x2="568" y1="525.0" y2="525.0" /><line stroke="#568e56" stroke-width="0.6" x1="556" x2="568" y1="528.3333333333333" y2="528.3333333333333" /><line stroke="#568e56" stroke-width="0.6" x1="556" x2="568" y1="538.3333333333334" y2="538.3333333333334" /><line stroke="#568e56" stroke-width="0.6" x1="556" x2="568" y1="541.6666666666667" y2="541.6666666666667" /><line stroke="#568e56" stroke-width="0.6" x1="556" x2="568" y1="545.0" y2="545.0" /></g><line marker-end="url(#arrow-end)" marker-start="url(#arrow-start)" stroke="black" stroke-width="2" x1="448.3435604410357" x2="291.6564395589643" y1="317.1765194803015" y2="340.3234805196985" /><line marker-end="url(#arrow-end)" marker-start="url(#arrow-start)" stroke="black" stroke-width="2" x1="511.81029413614004" x2="600.2371323298249" y1="315.9792509211403" y2="325.6509363485746" /><line stroke="black" stroke-width="2" x1="278.0085597388591" x2="263.9914402611409" y1="488.24990701365203" y2="376.75009298634797" /><line stroke="black" stroke-width="2" x1="553.8840156936785" x2="288.1159843063215" y1="504.7195737465644" y2="360.2804262534356" /><text fill="black" filter="url(#text-glow)" font-family="Arial, sans-serif" font-size="14px" text-anchor="start" x="492.6" y="229.0">Main Server</text><text fill="black" filter="url(#text-glow)" font-family="Arial, sans-serif" font-size="14px" text-anchor="start" x="492.6" y="247.0">(Large)</text><text fill="black" filter="url(#text-glow)" font-family="Arial, sans-serif" font-size="14px" text-anchor="end" x="187.4" y="279.0">Primary DB</text><text fill="black" filter="url(#text-glow)" font-family="Arial, sans-serif" font-size="14px" text-anchor="end" x="187.4" y="297.0">(Medium-Large)</text><text fill="black" filter="url(#text-glow)" font-family="Arial, sans-serif" font-size="14px" text-anchor="start" x="692.6" y="371.0">Cache</text><text fill="black" filter="url(#text-glow)" font-family="Arial, sans-serif" font-size="14px" text-anchor="start" x="692.6" y="389.0">(Medium)</text><text fill="black" filter="url(#text-glow)" font-family="Arial, sans-serif" font-size="14px" text-anchor="middle" x="290.0" y="571.0">Worker 1</text><text fill="black" filter="url(#text-glow)" font-family="Arial, sans-serif" font-size="14px" text-anchor="middle" x="290.0" y="589.0">(Small)</text><text fill="black" filter="url(#text-glow)" font-family="Arial, sans-serif" font-size="14px" text-anchor="middle" x="590.0" y="571.0">Worker 2</text><text fill="black" filter="url(#text-glow)" font-family="Arial, sans-serif" font-size="14px" text-anchor="middle" x="590.0" y="589.0">(Small)</text><text fill="gray" filter="url(#text-glow)" font-family="Arial, sans-serif" font-size="12px" text-anchor="end" x="319.2" y="285.75">read/write</text><text fill="gray" filter="url(#text-glow)" font-family="Arial, sans-serif" font-size="12px" text-anchor="start" x="606.8237132329824" y="277.8150936348575">get/set</text><text fill="gray" filter="url(#text-glow)" font-family="Arial, sans-serif" font-size="12px" text-anchor="end" x="220.2" y="432.5">query</text><text fill="gray" filter="url(#text-glow)" font-family="Arial, sans-serif" font-size="12px" text-anchor="middle" x="421.0" y="389.5">query</text></svg>