<?xml version="1.0" encoding="utf-8" ?>
<svg baseProfile="full" height="900.0" version="1.1" viewBox="0,0,1870.0,900.0" width="1870.0" xmlns="http://www.w3.org/2000/svg" xmlns:ev="http://www.w3.org/2001/xml-events" xmlns:xlink="http://www.w3.org/1999/xlink"><defs><marker id="arrow-end" markerHeight="10" markerWidth="10" orient="auto" refX="10" refY="5"><path d="M 0 0 L 10 5 L 0 10 z" fill="black" /></marker><marker id="arrow-start" markerHeight="10" markerWidth="10" orient="auto" refX="0" refY="5"><path d="M 10 0 L 0 5 L 10 10 z" fill="black" /></marker><marker id="circle-start" markerHeight="10" markerWidth="10" orient="auto" refX="5" refY="5"><circle cx="5" cy="5" fill="black" r="4" /></marker><marker id="circle-end" markerHeight="10" markerWidth="10" orient="auto" refX="5" refY="5"><circle cx="5" cy="5" fill="black" r="4" /></marker><linearGradient id="gradient-load-balancer" x1="0%" x2="0%" y1="0%" y2="100%"><stop offset="0%" stop-color="#ffe34c" /><stop offset="100%" stop-color="#b29600" /></linearGradient><linearGradient id="gradient-app-server-1" x1="0%" x2="0%" y1="0%" y2="100%"><stop offset="0%" stop-color="#c5e3ed" /><stop offset="100%" stop-color="#7997a1" /></linearGradient><linearGradient id="gradient-app-server-2" x1="0%" x2="0%" y1="0%" y2="100%"><stop offset="0%" stop-color="#c5e3ed" /><stop offset="100%" stop-color="#7997a1" /></linearGradient><linearGradient id="gradient-database" x1="0%" x2="0%" y1="0%" y2="100%"><stop offset="0%" stop-color="#ffc04c" /><stop offset="100%" stop-color="#b27300" /></linearGradient><linearGradient id="gradient-cache" x1="0%" x2="0%" y1="0%" y2="100%"><stop offset="0%" stop-color="#4cffff" /><stop offset="100%" stop-color="#00b2b2" /></linearGradient><linearGradient id="gradient-logger" x1="0%" x2="0%" y1="0%" y2="100%"><stop offset="0%" stop-color="#a6a6a6" /><stop offset="100%" stop-color="#595959" /></linearGradient><linearGradient id="gradient-metrics" x1="0%" x2="0%" y1="0%" y2="100%"><stop offset="0%" stop-color="#d2d2d2" /><stop offset="100%" stop-color="#868686" /></linearGradient></defs><rect fill="url(#gradient-load-balancer)" height="50" stroke="black" width="80" x="1060.0" y="20.0" /><rect fill="url(#gradient-app-server-1)" height="50" stroke="black" width="80" x="580.0" y="310.0" /><rect fill="url(#gradient-app-server-2)" height="50" stroke="black" width="80" x="1060.0" y="310.0" /><g id="database"><g transform="translate(1070.0,610.0) scale(1.2048192771084338,0.6928406466512702) translate(-0.9,-1.4)"><path d="M 22.754087,32.116749 0.94545599,43.000013 V 4.7289739 L 22.754087,1.5702876 Z" fill="#e9e9ff" stroke="none" /><path d="M 50.712576,33.120864 V 1.4628125 L 22.754087,1.5702876 V 32.116749 Z" fill="#353564" stroke="none" /><path d="M 50.712576,33.120864 35.295871,44.770537 0.94545599,43.000013 22.754087,32.116749 Z" fill="#4d4d9f" stroke="none" /><path d="M 50.712576,1.4628125 35.295871,4.7384198 0.94545599,4.7289739 22.754087,1.5702876 Z" fill="#1c1ce6" opacity="1" stroke="none" /><path d="M 35.295871,44.770537 V 4.7384198 L 0.94545599,4.7289739 V 43.000013 Z" fill="#1a52ff" opacity="0.96" stroke="none" /><path d="M 50.712576,33.120864 35.295871,44.770537 V 4.7384198 L 50.712576,1.4628125 Z" fill="#1c9bd0" stroke="none" /><rect fill="none" height="43.3" opacity="0.67" stroke="#cbcbcb" stroke-width="0.48" width="49.8" x="0.9" y="1.4" /></g></g><ellipse cx="1580.0" cy="625.0" fill="url(#gradient-cache)" rx="40.0" ry="25.0" stroke="black" /><ellipse cx="140.0" cy="625.0" fill="url(#gradient-logger)" rx="40.0" ry="25.0" stroke="black" /><ellipse cx="620.0" cy="625.0" fill="url(#gradient-metrics)" rx="40.0" ry="25.0" stroke="black" /><line stroke="black" stroke-width="2" x1="1072.6107026577347" x2="647.3892973422653" y1="61.54770047761862" y2="318.4522995223814" /><line stroke="black" stroke-width="2" x1="1100.0" x2="1100.0" y1="77.0" y2="303.0" /><line stroke="black" stroke-width="2" x1="647.3892973422653" x2="1072.6107026577347" y1="351.5477004776186" y2="608.4522995223814" /><line stroke="black" stroke-width="2" x1="1100.0" x2="1100.0" y1="367.0" y2="593.0" /><line stroke="black" stroke-width="2" x1="650.632820515769" x2="1541.7089743552888" y1="344.2536645308052" y2="613.4329193364935" /><line stroke="black" stroke-width="2" x1="1127.3892973422653" x2="1545.7633783221684" y1="351.5477004776186" y2="604.3153744029768" /><line stroke="black" stroke-width="2" x1="592.6107026577347" x2="174.2366216778316" y1="351.5477004776186" y2="604.3153744029768" /><line stroke="black" stroke-width="2" x1="1072.6107026577347" x2="654.2366216778316" y1="351.5477004776186" y2="604.3153744029768" /><text fill="black" font-family="Arial, sans-serif" font-size="14px" text-anchor="start" x="1152.6" y="45.0">Load Balancer</text><text fill="black" font-family="Arial, sans-serif" font-size="14px" text-anchor="start" x="1152.6" y="63.0">(High Priority)</text><text fill="black" font-family="Arial, sans-serif" font-size="14px" text-anchor="middle" x="620.0" y="381.0">App Server 1</text><text fill="black" font-family="Arial, sans-serif" font-size="14px" text-anchor="start" x="1152.6" y="335.0">App Server 2</text><text fill="black" font-family="Arial, sans-serif" font-size="14px" text-anchor="middle" x="1100.0" y="671.0">Database</text><text fill="black" font-family="Arial, sans-serif" font-size="14px" text-anchor="middle" x="1100.0" y="689.0">(Important)</text><text fill="black" font-family="Arial, sans-serif" font-size="14px" text-anchor="middle" x="1580.0" y="671.0">Cache</text><text fill="black" font-family="Arial, sans-serif" font-size="14px" text-anchor="middle" x="140.0" y="671.0">Logger</text><text fill="black" font-family="Arial, sans-serif" font-size="14px" text-anchor="middle" x="140.0" y="689.0">(Low Priority)</text><text fill="black" font-family="Arial, sans-serif" font-size="14px" text-anchor="middle" x="620.0" y="671.0">Metrics</text><text fill="black" font-family="Arial, sans-serif" font-size="14px" text-anchor="middle" x="620.0" y="689.0">(Low Priority)</text><text fill="gray" font-family="Arial, sans-serif" font-size="12px" text-anchor="middle" x="860.0" y="147.0">route</text><text fill="gray" font-family="Arial, sans-serif" font-size="12px" text-anchor="end" x="1049.2" y="190.0">route</text><text fill="gray" font-family="Arial, sans-serif" font-size="12px" text-anchor="middle" x="860.0" y="437.0">query</text><text fill="gray" font-family="Arial, sans-serif" font-size="12px" text-anchor="end" x="1049.2" y="480.0">query</text><text fill="gray" font-family="Arial, sans-serif" font-size="12px" text-anchor="start" x="1146.9708974355287" y="478.8432919336493">get/set</text><text fill="gray" font-family="Arial, sans-serif" font-size="12px" text-anchor="middle" x="1336.5763378322167" y="434.9315374402977">get/set</text><text fill="gray" font-family="Arial, sans-serif" font-size="12px" text-anchor="middle" x="383.42366216778316" y="434.9315374402977">log</text><text fill="gray" font-family="Arial, sans-serif" font-size="12px" text-anchor="middle" x="863.4236621677832" y="520.9315374402977">report</text></svg>