<?xml version="1.0" encoding="utf-8" ?>
<svg baseProfile="full" height="800" version="1.1" viewBox="0,0,1000,800" width="1000" xmlns="http://www.w3.org/2000/svg" xmlns:ev="http://www.w3.org/2001/xml-events" xmlns:xlink="http://www.w3.org/1999/xlink"><defs><marker id="arrow-end" markerHeight="10" markerWidth="10" orient="auto" refX="10" refY="5"><path d="M 0 0 L 10 5 L 0 10 z" fill="black" /></marker><marker id="arrow-start" markerHeight="10" markerWidth="10" orient="auto" refX="0" refY="5"><path d="M 10 0 L 0 5 L 10 10 z" fill="black" /></marker><linearGradient id="gradient-load-balancer" x1="0%" x2="0%" y1="0%" y2="100%"><stop offset="0%" stop-color="#ffe34c" /><stop offset="100%" stop-color="#b29600" /></linearGradient><linearGradient id="gradient-app-server-1" x1="0%" x2="0%" y1="0%" y2="100%"><stop offset="0%" stop-color="#c5e3ed" /><stop offset="100%" stop-color="#7997a1" /></linearGradient><linearGradient id="gradient-app-server-2" x1="0%" x2="0%" y1="0%" y2="100%"><stop offset="0%" stop-color="#c5e3ed" /><stop offset="100%" stop-color="#7997a1" /></linearGradient><linearGradient id="gradient-database" x1="0%" x2="0%" y1="0%" y2="100%"><stop offset="0%" stop-color="#ffc04c" /><stop offset="100%" stop-color="#b27300" /></linearGradient><linearGradient id="gradient-cache" x1="0%" x2="0%" y1="0%" y2="100%"><stop offset="0%" stop-color="#4cffff" /><stop offset="100%" stop-color="#00b2b2" /></linearGradient><linearGradient id="gradient-logger" x1="0%" x2="0%" y1="0%" y2="100%"><stop offset="0%" stop-color="#a6a6a6" /><stop offset="100%" stop-color="#595959" /></linearGradient><linearGradient id="gradient-metrics" x1="0%" x2="0%" y1="0%" y2="100%"><stop offset="0%" stop-color="#d2d2d2" /><stop offset="100%" stop-color="#868686" /></linearGradient></defs><rect fill="url(#gradient-load-balancer)" height="50" stroke="black" width="80" x="366.27922700559225" y="20.0" /><rect fill="url(#gradient-app-server-1)" height="50" stroke="black" width="80" x="294.2792270055861" y="310.0" /><rect fill="url(#gradient-app-server-2)" height="50" stroke="black" width="80" x="438.2792270055861" y="310.0" /><g id="database"><g transform="translate(398.0,610.0) scale(1.2048192771084338,0.6928406466512702) translate(-0.9,-1.4)"><path d="M 22.754087,32.116749 0.94545599,43.000013 V 4.7289739 L 22.754087,1.5702876 Z" fill="#e9e9ff" stroke="none" /><path d="M 50.712576,33.120864 V 1.4628125 L 22.754087,1.5702876 V 32.116749 Z" fill="#353564" stroke="none" /><path d="M 50.712576,33.120864 35.295871,44.770537 0.94545599,43.000013 22.754087,32.116749 Z" fill="#4d4d9f" stroke="none" /><path d="M 50.712576,1.4628125 35.295871,4.7384198 0.94545599,4.7289739 22.754087,1.5702876 Z" fill="#1c1ce6" opacity="1" stroke="none" /><path d="M 35.295871,44.770537 V 4.7384198 L 0.94545599,4.7289739 V 43.000013 Z" fill="#1a52ff" opacity="0.96" stroke="none" /><path d="M 50.712576,33.120864 35.295871,44.770537 V 4.7384198 L 50.712576,1.4628125 Z" fill="#1c9bd0" stroke="none" /><rect fill="none" height="43.3" opacity="0.67" stroke="#cbcbcb" stroke-width="0.48" width="49.8" x="0.9" y="1.4" /></g></g><ellipse cx="572.0" cy="625.0" fill="url(#gradient-cache)" rx="40.0" ry="25.0" stroke="black" /><ellipse cx="140.0" cy="625.0" fill="url(#gradient-logger)" rx="40.0" ry="25.0" stroke="black" /><ellipse cx="284.0" cy="625.0" fill="url(#gradient-metrics)" rx="40.0" ry="25.0" stroke="black" /><line stroke="black" stroke-width="2" x1="416.20920734350534" x2="344.349246667673" y1="100.37424408944497" y2="317.12575591055503" /><line stroke="black" stroke-width="2" x1="432.17303843109477" x2="472.3854155800836" y1="101.45255135725266" y2="316.0474486427473" /><line stroke="black" stroke-width="2" x1="344.9944070089268" x2="429.2848199966593" y1="377.6526933705101" y2="614.8473066294898" /><line stroke="black" stroke-width="2" x1="474.19546392816835" x2="444.08376307741776" y1="379.2383502899492" y2="613.2616497100507" /><line stroke="black" stroke-width="2" x1="354.88274776969047" x2="546.2455990448696" y1="371.98458560243813" y2="599.3942679969524" /><line stroke="black" stroke-width="2" x1="488.35536016110456" x2="559.404833555602" y1="377.87221659069786" y2="592.0347292616277" /><line stroke="black" stroke-width="2" x1="315.2059345418303" x2="155.8416155796948" y1="373.1945425059882" y2="587.8818218675148" /><line stroke="black" stroke-width="2" x1="459.2059345418303" x2="299.8416155796948" y1="373.1945425059882" y2="587.8818218675148" /><text fill="black" font-family="Arial, sans-serif" font-size="14px" text-anchor="middle" x="501.27922700559225" y="60.0">Load Balancer</text><text fill="black" font-family="Arial, sans-serif" font-size="14px" text-anchor="middle" x="501.27922700559225" y="78.0">(High Priority)</text><text fill="black" font-family="Arial, sans-serif" font-size="14px" text-anchor="middle" x="279.2792270055861" y="337.0">App Server 1</text><text fill="black" font-family="Arial, sans-serif" font-size="14px" text-anchor="middle" x="533.2792270055861" y="337.0">App Server 2</text><text fill="black" font-family="Arial, sans-serif" font-size="14px" text-anchor="middle" x="440.0" y="700.0">Database</text><text fill="black" font-family="Arial, sans-serif" font-size="14px" text-anchor="middle" x="440.0" y="718.0">(Important)</text><text fill="black" font-family="Arial, sans-serif" font-size="14px" text-anchor="middle" x="572.0" y="670.0">Cache</text><text fill="black" font-family="Arial, sans-serif" font-size="14px" text-anchor="middle" x="132.0" y="650.0">Logger</text><text fill="black" font-family="Arial, sans-serif" font-size="14px" text-anchor="middle" x="132.0" y="668.0">(Low Priority)</text><text fill="black" font-family="Arial, sans-serif" font-size="14px" text-anchor="middle" x="276.0" y="650.0">Metrics</text><text fill="black" font-family="Arial, sans-serif" font-size="14px" text-anchor="middle" x="276.0" y="668.0">(Low Priority)</text><text fill="gray" font-family="Arial, sans-serif" font-size="12px" text-anchor="middle" x="380.2792270055892" y="251.75">route</text><text fill="gray" font-family="Arial, sans-serif" font-size="12px" text-anchor="start" x="503.0792270055892" y="208.75">route</text><text fill="gray" font-family="Arial, sans-serif" font-size="12px" text-anchor="end" x="336.33961350279304" y="496.25">query</text><text fill="gray" font-family="Arial, sans-serif" font-size="12px" text-anchor="middle" x="459.13961350279305" y="453.25">query</text><text fill="gray" font-family="Arial, sans-serif" font-size="12px" text-anchor="middle" x="450.56417340728" y="528.6894267996953">get/set</text><text fill="gray" font-family="Arial, sans-serif" font-size="12px" text-anchor="start" x="574.6800968583532" y="484.9534729261628">get/set</text><text fill="gray" font-family="Arial, sans-serif" font-size="12px" text-anchor="middle" x="235.52377506076255" y="437.53818218675144">log</text><text fill="gray" font-family="Arial, sans-serif" font-size="12px" text-anchor="end" x="328.72377506076253" y="480.53818218675144">report</text></svg>