<?xml version="1.0" encoding="utf-8" ?>
<svg baseProfile="full" height="700.0" version="1.1" viewBox="0,0,2046.0,700.0" width="2046.0" xmlns="http://www.w3.org/2000/svg" xmlns:ev="http://www.w3.org/2001/xml-events" xmlns:xlink="http://www.w3.org/1999/xlink"><defs><marker id="arrow-end" markerHeight="10" markerWidth="10" orient="auto" refX="10" refY="5"><path d="M 0 0 L 10 5 L 0 10 z" fill="black" /></marker><marker id="arrow-start" markerHeight="10" markerWidth="10" orient="auto" refX="0" refY="5"><path d="M 10 0 L 0 5 L 10 10 z" fill="black" /></marker><linearGradient id="gradient-load-balancer" x1="0%" x2="0%" y1="0%" y2="100%"><stop offset="0%" stop-color="#ffe34c" /><stop offset="100%" stop-color="#b29600" /></linearGradient><linearGradient id="gradient-app-server-1" x1="0%" x2="0%" y1="0%" y2="100%"><stop offset="0%" stop-color="#c5e3ed" /><stop offset="100%" stop-color="#7997a1" /></linearGradient><linearGradient id="gradient-app-server-2" x1="0%" x2="0%" y1="0%" y2="100%"><stop offset="0%" stop-color="#c5e3ed" /><stop offset="100%" stop-color="#7997a1" /></linearGradient><linearGradient id="gradient-database" x1="0%" x2="0%" y1="0%" y2="100%"><stop offset="0%" stop-color="#ffc04c" /><stop offset="100%" stop-color="#b27300" /></linearGradient><linearGradient id="gradient-cache" x1="0%" x2="0%" y1="0%" y2="100%"><stop offset="0%" stop-color="#4cffff" /><stop offset="100%" stop-color="#00b2b2" /></linearGradient><linearGradient id="gradient-logger" x1="0%" x2="0%" y1="0%" y2="100%"><stop offset="0%" stop-color="#a6a6a6" /><stop offset="100%" stop-color="#595959" /></linearGradient><linearGradient id="gradient-metrics" x1="0%" x2="0%" y1="0%" y2="100%"><stop offset="0%" stop-color="#d2d2d2" /><stop offset="100%" stop-color="#868686" /></linearGradient></defs><rect fill="url(#gradient-load-balancer)" height="50" stroke="black" width="80" x="493.0" y="20.0" /><rect fill="url(#gradient-app-server-1)" height="50" stroke="black" width="80" x="173.0" y="310.0" /><rect fill="url(#gradient-app-server-2)" height="50" stroke="black" width="80" x="733.0" y="310.0" /><g id="database"><g transform="translate(110.0,610.0) scale(1.2048192771084338,0.6928406466512702) translate(-0.9,-1.4)"><path d="M 22.754087,32.116749 0.94545599,43.000013 V 4.7289739 L 22.754087,1.5702876 Z" fill="#e9e9ff" stroke="none" /><path d="M 50.712576,33.120864 V 1.4628125 L 22.754087,1.5702876 V 32.116749 Z" fill="#353564" stroke="none" /><path d="M 50.712576,33.120864 35.295871,44.770537 0.94545599,43.000013 22.754087,32.116749 Z" fill="#4d4d9f" stroke="none" /><path d="M 50.712576,1.4628125 35.295871,4.7384198 0.94545599,4.7289739 22.754087,1.5702876 Z" fill="#1c1ce6" opacity="1" stroke="none" /><path d="M 35.295871,44.770537 V 4.7384198 L 0.94545599,4.7289739 V 43.000013 Z" fill="#1a52ff" opacity="0.96" stroke="none" /><path d="M 50.712576,33.120864 35.295871,44.770537 V 4.7384198 L 50.712576,1.4628125 Z" fill="#1c9bd0" stroke="none" /><rect fill="none" height="43.3" opacity="0.67" stroke="#cbcbcb" stroke-width="0.48" width="49.8" x="0.9" y="1.4" /></g></g><ellipse cx="700.0" cy="625.0" fill="url(#gradient-cache)" rx="40.0" ry="25.0" stroke="black" /><ellipse cx="1260.0" cy="625.0" fill="url(#gradient-logger)" rx="40.0" ry="25.0" stroke="black" /><ellipse cx="1820.0" cy="625.0" fill="url(#gradient-metrics)" rx="40.0" ry="25.0" stroke="black" /><line stroke="black" stroke-width="2" x1="509.2884175540486" x2="236.71158244595145" y1="66.4886215916435" y2="313.5113784083565" /><line stroke="black" stroke-width="2" x1="553.4021668490952" x2="752.5978331509048" y1="69.65261827599008" y2="310.34738172400995" /><line stroke="black" stroke-width="2" x1="205.1885141356429" x2="147.8114858643571" y1="366.03193014607615" y2="593.9680698539239" /><line stroke="black" stroke-width="2" x1="743.9077500754839" x2="169.09224992451612" y1="348.3282029669979" y2="611.6717970330021" /><line stroke="black" stroke-width="2" x1="240.49441786048834" x2="665.6319776743895" y1="351.3724459538842" y2="604.5344425576448" /><line stroke="black" stroke-width="2" x1="765.1885141356429" x2="709.7643573304464" y1="366.03193014607615" y2="586.2100873174048" /><line stroke="black" stroke-width="2" x1="243.83889445796865" x2="1221.4513819275392" y1="343.5418141287592" y2="614.322732339051" /><line stroke="black" stroke-width="2" x1="803.8388944579686" x2="1781.4513819275392" y1="343.5418141287592" y2="614.322732339051" /><text fill="black" font-family="Arial, sans-serif" font-size="14px" text-anchor="middle" x="40.0" y="5.0">Load Balancer</text><text fill="black" font-family="Arial, sans-serif" font-size="14px" text-anchor="middle" x="40.0" y="23.0">(High Priority)</text><text fill="black" font-family="Arial, sans-serif" font-size="14px" text-anchor="middle" x="213.0" y="295.0">App Server 1</text><text fill="black" font-family="Arial, sans-serif" font-size="14px" text-anchor="middle" x="773.0" y="295.0">App Server 2</text><text fill="black" font-family="Arial, sans-serif" font-size="14px" text-anchor="middle" x="140.0" y="585.0">Database</text><text fill="black" font-family="Arial, sans-serif" font-size="14px" text-anchor="middle" x="140.0" y="603.0">(Important)</text><text fill="black" font-family="Arial, sans-serif" font-size="14px" text-anchor="middle" x="700.0" y="585.0">Cache</text><text fill="black" font-family="Arial, sans-serif" font-size="14px" text-anchor="middle" x="1260.0" y="585.0">Logger</text><text fill="black" font-family="Arial, sans-serif" font-size="14px" text-anchor="middle" x="1260.0" y="603.0">(Low Priority)</text><text fill="black" font-family="Arial, sans-serif" font-size="14px" text-anchor="middle" x="1820.0" y="585.0">Metrics</text><text fill="black" font-family="Arial, sans-serif" font-size="14px" text-anchor="middle" x="1820.0" y="603.0">(Low Priority)</text><text fill="gray" font-family="Arial, sans-serif" font-size="12px" text-anchor="middle" x="373.0" y="147.0">route</text><text fill="gray" font-family="Arial, sans-serif" font-size="12px" text-anchor="middle" x="653.0" y="147.0">route</text><text fill="gray" font-family="Arial, sans-serif" font-size="12px" text-anchor="end" x="125.7" y="480.0">query</text><text fill="gray" font-family="Arial, sans-serif" font-size="12px" text-anchor="middle" x="456.5" y="437.0">query</text><text fill="gray" font-family="Arial, sans-serif" font-size="12px" text-anchor="middle" x="453.06319776743896" y="520.9534442557645">get/set</text><text fill="gray" font-family="Arial, sans-serif" font-size="12px" text-anchor="start" x="788.2764357330445" y="476.1210087317405">get/set</text><text fill="gray" font-family="Arial, sans-serif" font-size="12px" text-anchor="middle" x="732.6451381927538" y="435.9322732339051">log</text><text fill="gray" font-family="Arial, sans-serif" font-size="12px" text-anchor="middle" x="1292.6451381927538" y="435.9322732339051">report</text></svg>