<?xml version="1.0" encoding="utf-8" ?>
<svg baseProfile="full" height="800" version="1.1" viewBox="0,0,1000,800" width="1000" xmlns="http://www.w3.org/2000/svg" xmlns:ev="http://www.w3.org/2001/xml-events" xmlns:xlink="http://www.w3.org/1999/xlink"><defs><filter height="140%" id="text-glow" width="140%" x="-20%" y="-20%"><feGaussianBlur in="SourceGraphic" result="blur" stdDeviation="2" /><feFlood flood-color="white" flood-opacity="1" result="color" /><feComposite in="color" in2="blur" operator="in" result="shadow" /><feMerge><feMergeNode in="shadow" /><feMergeNode in="shadow" /><feMergeNode in="SourceGraphic" /></feMerge></filter><marker id="arrow-end" markerHeight="10" markerWidth="10" orient="auto" refX="10" refY="5"><path d="M 0 0 L 10 5 L 0 10 z" fill="black" /></marker><marker id="arrow-start" markerHeight="10" markerWidth="10" orient="auto" refX="0" refY="5"><path d="M 10 0 L 0 5 L 10 10 z" fill="black" /></marker><marker id="circle-start" markerHeight="10" markerWidth="10" orient="auto" refX="5" refY="5"><circle cx="5" cy="5" fill="black" r="4" /></marker><marker id="circle-end" markerHeight="10" markerWidth="10" orient="auto" refX="5" refY="5"><circle cx="5" cy="5" fill="black" r="4" /></marker><linearGradient id="gradient-load-balancer" x1="0%" x2="0%" y1="0%" y2="100%"><stop offset="0%" stop-color="#ffe34c" /><stop offset="100%" stop-color="#b29600" /></linearGradient><linearGradient id="gradient-app-server-1" x1="0%" x2="0%" y1="0%" y2="100%"><stop offset="0%" stop-color="#c5e3ed" /><stop offset="100%" stop-color="#7997a1" /></linearGradient><linearGradient id="gradient-app-server-2" x1="0%" x2="0%" y1="0%" y2="100%"><stop offset="0%" stop-color="#c5e3ed" /><stop offset="100%" stop-color="#7997a1" /></linearGradient><linearGradient id="gradient-database" x1="0%" x2="0%" y1="0%" y2="100%"><stop offset="0%" stop-color="#ffc04c" /><stop offset="100%" stop-color="#b27300" /></linearGradient><linearGradient id="gradient-cache" x1="0%" x2="0%" y1="0%" y2="100%"><stop offset="0%" stop-color="#4cffff" /><stop offset="100%" stop-color="#00b2b2" /></linearGradient><linearGradient id="gradient-logger" x1="0%" x2="0%" y1="0%" y2="100%"><stop offset="0%" stop-color="#a6a6a6" /><stop offset="100%" stop-color="#595959" /></linearGradient><linearGradient id="gradient-metrics" x1="0%" x2="0%" y1="0%" y2="100%"><stop offset="0%" stop-color="#d2d2d2" /><stop offset="100%" stop-color="#868686" /></linearGradient></defs><g id="load-balancer"><rect fill="url(#gradient-load-balancer)" height="50" rx="4" ry="4" stroke="black" stroke-width="1.2" width="80" x="366.27922700559225" y="20.0" /><line stroke="#998100" stroke-width="0.8" x1="368.27922700559225" x2="444.27922700559225" y1="36.66666666666667" y2="36.66666666666667" /><line stroke="#998100" stroke-width="0.8" x1="368.27922700559225" x2="444.27922700559225" y1="53.333333333333336" y2="53.333333333333336" /><circle cx="434.27922700559225" cy="28.333333333333336" fill="#00cc44" r="2.5" stroke="#998100" stroke-width="0.5" /><circle cx="426.27922700559225" cy="28.333333333333336" fill="#ffaa00" r="2.5" stroke="#998100" stroke-width="0.5" /><circle cx="434.27922700559225" cy="45.00000000000001" fill="#00cc44" r="2.5" stroke="#998100" stroke-width="0.5" /><circle cx="426.27922700559225" cy="45.00000000000001" fill="#ffaa00" r="2.5" stroke="#998100" stroke-width="0.5" /><circle cx="434.27922700559225" cy="61.66666666666667" fill="#00cc44" r="2.5" stroke="#998100" stroke-width="0.5" /><circle cx="426.27922700559225" cy="61.66666666666667" fill="#ffaa00" r="2.5" stroke="#998100" stroke-width="0.5" /><line stroke="#998100" stroke-width="0.6" x1="372.27922700559225" x2="384.27922700559225" y1="25.0" y2="25.0" /><line stroke="#998100" stroke-width="0.6" x1="372.27922700559225" x2="384.27922700559225" y1="28.333333333333336" y2="28.333333333333336" /><line stroke="#998100" stroke-width="0.6" x1="372.27922700559225" x2="384.27922700559225" y1="31.666666666666668" y2="31.666666666666668" /><line stroke="#998100" stroke-width="0.6" x1="372.27922700559225" x2="384.27922700559225" y1="41.66666666666667" y2="41.66666666666667" /><line stroke="#998100" stroke-width="0.6" x1="372.27922700559225" x2="384.27922700559225" y1="45.00000000000001" y2="45.00000000000001" /><line stroke="#998100" stroke-width="0.6" x1="372.27922700559225" x2="384.27922700559225" y1="48.33333333333334" y2="48.33333333333334" /><line stroke="#998100" stroke-width="0.6" x1="372.27922700559225" x2="384.27922700559225" y1="58.333333333333336" y2="58.333333333333336" /><line stroke="#998100" stroke-width="0.6" x1="372.27922700559225" x2="384.27922700559225" y1="61.66666666666667" y2="61.66666666666667" /><line stroke="#998100" stroke-width="0.6" x1="372.27922700559225" x2="384.27922700559225" y1="65.0" y2="65.0" /></g><g id="app-server-1"><rect fill="url(#gradient-app-server-1)" height="50" rx="4" ry="4" stroke="black" stroke-width="1.2" width="80" x="294.2792270055861" y="310.0" /><line stroke="#67818a" stroke-width="0.8" x1="296.2792270055861" x2="372.2792270055861" y1="326.6666666666667" y2="326.6666666666667" /><line stroke="#67818a" stroke-width="0.8" x1="296.2792270055861" x2="372.2792270055861" y1="343.3333333333333" y2="343.3333333333333" /><circle cx="362.2792270055861" cy="318.3333333333333" fill="#00cc44" r="2.5" stroke="#67818a" stroke-width="0.5" /><circle cx="354.2792270055861" cy="318.3333333333333" fill="#ffaa00" r="2.5" stroke="#67818a" stroke-width="0.5" /><circle cx="362.2792270055861" cy="335.0" fill="#00cc44" r="2.5" stroke="#67818a" stroke-width="0.5" /><circle cx="354.2792270055861" cy="335.0" fill="#ffaa00" r="2.5" stroke="#67818a" stroke-width="0.5" /><circle cx="362.2792270055861" cy="351.66666666666663" fill="#00cc44" r="2.5" stroke="#67818a" stroke-width="0.5" /><circle cx="354.2792270055861" cy="351.66666666666663" fill="#ffaa00" r="2.5" stroke="#67818a" stroke-width="0.5" /><line stroke="#67818a" stroke-width="0.6" x1="300.2792270055861" x2="312.2792270055861" y1="315.0" y2="315.0" /><line stroke="#67818a" stroke-width="0.6" x1="300.2792270055861" x2="312.2792270055861" y1="318.3333333333333" y2="318.3333333333333" /><line stroke="#67818a" stroke-width="0.6" x1="300.2792270055861" x2="312.2792270055861" y1="321.6666666666667" y2="321.6666666666667" /><line stroke="#67818a" stroke-width="0.6" x1="300.2792270055861" x2="312.2792270055861" y1="331.6666666666667" y2="331.6666666666667" /><line stroke="#67818a" stroke-width="0.6" x1="300.2792270055861" x2="312.2792270055861" y1="335.0" y2="335.0" /><line stroke="#67818a" stroke-width="0.6" x1="300.2792270055861" x2="312.2792270055861" y1="338.33333333333337" y2="338.33333333333337" /><line stroke="#67818a" stroke-width="0.6" x1="300.2792270055861" x2="312.2792270055861" y1="348.3333333333333" y2="348.3333333333333" /><line stroke="#67818a" stroke-width="0.6" x1="300.2792270055861" x2="312.2792270055861" y1="351.66666666666663" y2="351.66666666666663" /><line stroke="#67818a" stroke-width="0.6" x1="300.2792270055861" x2="312.2792270055861" y1="355.0" y2="355.0" /></g><g id="app-server-2"><rect fill="url(#gradient-app-server-2)" height="50" rx="4" ry="4" stroke="black" stroke-width="1.2" width="80" x="438.2792270055861" y="310.0" /><line stroke="#67818a" stroke-width="0.8" x1="440.2792270055861" x2="516.2792270055861" y1="326.6666666666667" y2="326.6666666666667" /><line stroke="#67818a" stroke-width="0.8" x1="440.2792270055861" x2="516.2792270055861" y1="343.3333333333333" y2="343.3333333333333" /><circle cx="506.2792270055861" cy="318.3333333333333" fill="#00cc44" r="2.5" stroke="#67818a" stroke-width="0.5" /><circle cx="498.2792270055861" cy="318.3333333333333" fill="#ffaa00" r="2.5" stroke="#67818a" stroke-width="0.5" /><circle cx="506.2792270055861" cy="335.0" fill="#00cc44" r="2.5" stroke="#67818a" stroke-width="0.5" /><circle cx="498.2792270055861" cy="335.0" fill="#ffaa00" r="2.5" stroke="#67818a" stroke-width="0.5" /><circle cx="506.2792270055861" cy="351.66666666666663" fill="#00cc44" r="2.5" stroke="#67818a" stroke-width="0.5" /><circle cx="498.2792270055861" cy="351.66666666666663" fill="#ffaa00" r="2.5" stroke="#67818a" stroke-width="0.5" /><line stroke="#67818a" stroke-width="0.6" x1="444.2792270055861" x2="456.2792270055861" y1="315.0" y2="315.0" /><line stroke="#67818a" stroke-width="0.6" x1="444.2792270055861" x2="456.2792270055861" y1="318.3333333333333" y2="318.3333333333333" /><line stroke="#67818a" stroke-width="0.6" x1="444.2792270055861" x2="456.2792270055861" y1="321.6666666666667" y2="321.6666666666667" /><line stroke="#67818a" stroke-width="0.6" x1="444.2792270055861" x2="456.2792270055861" y1="331.6666666666667" y2="331.6666666666667" /><line stroke="#67818a" stroke-width="0.6" x1="444.2792270055861" x2="456.2792270055861" y1="335.0" y2="335.0" /><line stroke="#67818a" stroke-width="0.6" x1="444.2792270055861" x2="456.2792270055861" y1="338.33333333333337" y2="338.33333333333337" /><line stroke="#67818a" stroke-width="0.6" x1="444.2792270055861" x2="456.2792270055861" y1="348.3333333333333" y2="348.3333333333333" /><line stroke="#67818a" stroke-width="0.6" x1="444.2792270055861" x2="456.2792270055861" y1="351.66666666666663" y2="351.66666666666663" /><line stroke="#67818a" stroke-width="0.6" x1="444.2792270055861" x2="456.2792270055861" y1="355.0" y2="355.0" /></g><g id="database"><rect fill="url(#gradient-database)" height="46" rx="2" ry="2" stroke="black" stroke-width="1.2" width="64" x="396.0" y="604.0" /><polygon fill="#7f5200" points="392.0,604.0 428.0,594.0 464.0,604.0" stroke="black" stroke-width="1.0" /><rect fill="#ffd27f" height="7" stroke="#7f5200" stroke-width="0.7" width="10" x="403.0" y="610.0" /><line stroke="#7f5200" stroke-width="0.5" x1="408.0" x2="408.0" y1="610.0" y2="617.0" /><line stroke="#7f5200" stroke-width="0.5" x1="403.0" x2="413.0" y1="613.5" y2="613.5" /><rect fill="#ffd27f" height="7" stroke="#7f5200" stroke-width="0.7" width="10" x="423.0" y="610.0" /><line stroke="#7f5200" stroke-width="0.5" x1="428.0" x2="428.0" y1="610.0" y2="617.0" /><line stroke="#7f5200" stroke-width="0.5" x1="423.0" x2="433.0" y1="613.5" y2="613.5" /><rect fill="#ffd27f" height="7" stroke="#7f5200" stroke-width="0.7" width="10" x="443.0" y="610.0" /><line stroke="#7f5200" stroke-width="0.5" x1="448.0" x2="448.0" y1="610.0" y2="617.0" /><line stroke="#7f5200" stroke-width="0.5" x1="443.0" x2="453.0" y1="613.5" y2="613.5" /><rect fill="#ffd27f" height="7" stroke="#7f5200" stroke-width="0.7" width="10" x="403.0" y="624.0" /><line stroke="#7f5200" stroke-width="0.5" x1="408.0" x2="408.0" y1="624.0" y2="631.0" /><line stroke="#7f5200" stroke-width="0.5" x1="403.0" x2="413.0" y1="627.5" y2="627.5" /><rect fill="#ffd27f" height="7" stroke="#7f5200" stroke-width="0.7" width="10" x="423.0" y="624.0" /><line stroke="#7f5200" stroke-width="0.5" x1="428.0" x2="428.0" y1="624.0" y2="631.0" /><line stroke="#7f5200" stroke-width="0.5" x1="423.0" x2="433.0" y1="627.5" y2="627.5" /><rect fill="#ffd27f" height="7" stroke="#7f5200" stroke-width="0.7" width="10" x="443.0" y="624.0" /><line stroke="#7f5200" stroke-width="0.5" x1="448.0" x2="448.0" y1="624.0" y2="631.0" /><line stroke="#7f5200" stroke-width="0.5" x1="443.0" x2="453.0" y1="627.5" y2="627.5" /><rect fill="#7f5200" height="12" stroke="black" stroke-width="0.8" width="10" x="423.0" y="638.0" /><circle cx="430.5" cy="644.0" fill="#ffd27f" r="1.2" /></g><g id="cache"><ellipse cx="572.0" cy="633.0" fill="url(#gradient-cache)" rx="36.0" ry="11.0" stroke="#00b2b2" stroke-width="0.8" /><circle cx="572.0" cy="621.0" fill="url(#gradient-cache)" r="17.0" stroke="#00b2b2" stroke-width="0.8" /><circle cx="558.0" cy="627.0" fill="url(#gradient-cache)" r="13.0" stroke="#00b2b2" stroke-width="0.8" /><circle cx="586.0" cy="627.0" fill="url(#gradient-cache)" r="13.0" stroke="#00b2b2" stroke-width="0.8" /><ellipse cx="572.0" cy="629.0" fill="url(#gradient-cache)" rx="30.4" ry="14.000000000000002" stroke="none" /></g><g id="logger"><ellipse cx="140.0" cy="633.0" fill="url(#gradient-logger)" rx="36.0" ry="11.0" stroke="#595959" stroke-width="0.8" /><circle cx="140.0" cy="621.0" fill="url(#gradient-logger)" r="17.0" stroke="#595959" stroke-width="0.8" /><circle cx="126.0" cy="627.0" fill="url(#gradient-logger)" r="13.0" stroke="#595959" stroke-width="0.8" /><circle cx="154.0" cy="627.0" fill="url(#gradient-logger)" r="13.0" stroke="#595959" stroke-width="0.8" /><ellipse cx="140.0" cy="629.0" fill="url(#gradient-logger)" rx="30.4" ry="14.000000000000002" stroke="none" /></g><g id="metrics"><ellipse cx="284.0" cy="633.0" fill="url(#gradient-metrics)" rx="36.0" ry="11.0" stroke="#868686" stroke-width="0.8" /><circle cx="284.0" cy="621.0" fill="url(#gradient-metrics)" r="17.0" stroke="#868686" stroke-width="0.8" /><circle cx="270.0" cy="627.0" fill="url(#gradient-metrics)" r="13.0" stroke="#868686" stroke-width="0.8" /><circle cx="298.0" cy="627.0" fill="url(#gradient-metrics)" r="13.0" stroke="#868686" stroke-width="0.8" /><ellipse cx="284.0" cy="629.0" fill="url(#gradient-metrics)" rx="30.4" ry="14.000000000000002" stroke="none" /></g><line stroke="black" stroke-width="2" x1="416.20920734350534" x2="344.349246667673" y1="100.37424408944497" y2="317.12575591055503" /><line stroke="black" stroke-width="2" x1="432.17303843109477" x2="472.3854155800836" y1="101.45255135725266" y2="316.0474486427473" /><line stroke="black" stroke-width="2" x1="344.9944070089268" x2="429.2848199966593" y1="377.6526933705101" y2="614.8473066294898" /><line stroke="black" stroke-width="2" x1="474.19546392816835" x2="444.08376307741776" y1="379.2383502899492" y2="613.2616497100507" /><line stroke="black" stroke-width="2" x1="354.88274776969047" x2="546.2455990448696" y1="371.98458560243813" y2="599.3942679969524" /><line stroke="black" stroke-width="2" x1="488.35536016110456" x2="559.404833555602" y1="377.87221659069786" y2="592.0347292616277" /><line stroke="black" stroke-width="2" x1="315.2059345418303" x2="155.8416155796948" y1="373.1945425059882" y2="587.8818218675148" /><line stroke="black" stroke-width="2" x1="459.2059345418303" x2="299.8416155796948" y1="373.1945425059882" y2="587.8818218675148" /><text fill="black" filter="url(#text-glow)" font-family="Arial, sans-serif" font-size="14px" text-anchor="end" x="353.6792270055922" y="91.0">Load Balancer</text><text fill="black" filter="url(#text-glow)" font-family="Arial, sans-serif" font-size="14px" text-anchor="end" x="353.6792270055922" y="109.0">(High Priority)</text><text fill="black" filter="url(#text-glow)" font-family="Arial, sans-serif" font-size="14px" text-anchor="end" x="281.6792270055861" y="335.0">App Server 1</text><text fill="black" filter="url(#text-glow)" font-family="Arial, sans-serif" font-size="14px" text-anchor="start" x="530.8792270055861" y="335.0">App Server 2</text><text fill="black" filter="url(#text-glow)" font-family="Arial, sans-serif" font-size="14px" text-anchor="end" x="375.4" y="671.0">Database</text><text fill="black" filter="url(#text-glow)" font-family="Arial, sans-serif" font-size="14px" text-anchor="end" x="375.4" y="689.0">(Important)</text><text fill="black" filter="url(#text-glow)" font-family="Arial, sans-serif" font-size="14px" text-anchor="start" x="624.6" y="671.0">Cache</text><text fill="black" filter="url(#text-glow)" font-family="Arial, sans-serif" font-size="14px" text-anchor="middle" x="140.0" y="671.0">Logger</text><text fill="black" filter="url(#text-glow)" font-family="Arial, sans-serif" font-size="14px" text-anchor="middle" x="140.0" y="689.0">(Low Priority)</text><text fill="black" filter="url(#text-glow)" font-family="Arial, sans-serif" font-size="14px" text-anchor="middle" x="284.0" y="579.0">Metrics</text><text fill="black" filter="url(#text-glow)" font-family="Arial, sans-serif" font-size="14px" text-anchor="middle" x="284.0" y="597.0">(Low Priority)</text><text fill="gray" filter="url(#text-glow)" font-family="Arial, sans-serif" font-size="12px" text-anchor="middle" x="380.2792270055892" y="251.75">route</text><text fill="gray" filter="url(#text-glow)" font-family="Arial, sans-serif" font-size="12px" text-anchor="start" x="503.0792270055892" y="208.75">route</text><text fill="gray" filter="url(#text-glow)" font-family="Arial, sans-serif" font-size="12px" text-anchor="end" x="336.33961350279304" y="496.25">query</text><text fill="gray" filter="url(#text-glow)" font-family="Arial, sans-serif" font-size="12px" text-anchor="middle" x="459.13961350279305" y="453.25">query</text><text fill="gray" filter="url(#text-glow)" font-family="Arial, sans-serif" font-size="12px" text-anchor="middle" x="450.56417340728" y="528.6894267996953">get/set</text><text fill="gray" filter="url(#text-glow)" font-family="Arial, sans-serif" font-size="12px" text-anchor="start" x="574.6800968583532" y="484.9534729261628">get/set</text><text fill="gray" filter="url(#text-glow)" font-family="Arial, sans-serif" font-size="12px" text-anchor="middle" x="235.52377506076255" y="437.53818218675144">log</text><text fill="gray" filter="url(#text-glow)" font-family="Arial, sans-serif" font-size="12px" text-anchor="end" x="328.72377506076253" y="480.53818218675144">report</text></svg>