<?xml version="1.0" encoding="utf-8" ?>
<svg baseProfile="full" height="2060.0" version="1.1" viewBox="0,0,910.0,2060.0" width="910.0" xmlns="http://www.w3.org/2000/svg" xmlns:ev="http://www.w3.org/2001/xml-events" xmlns:xlink="http://www.w3.org/1999/xlink"><defs><filter height="140%" id="text-glow" width="140%" x="-20%" y="-20%"><feGaussianBlur in="SourceGraphic" result="blur" stdDeviation="2" /><feFlood flood-color="white" flood-opacity="1" result="color" /><feComposite in="color" in2="blur" operator="in" result="shadow" /><feMerge><feMergeNode in="shadow" /><feMergeNode in="shadow" /><feMergeNode in="SourceGraphic" /></feMerge></filter><marker id="arrow-end" markerHeight="10" markerWidth="10" orient="auto" refX="10" refY="5"><path d="M 0 0 L 10 5 L 0 10 z" fill="black" /></marker><marker id="arrow-start" markerHeight="10" markerWidth="10" orient="auto" refX="0" refY="5"><path d="M 10 0 L 0 5 L 10 10 z" fill="black" /></marker><marker id="circle-start" markerHeight="10" markerWidth="10" orient="auto" refX="5" refY="5"><circle cx="5" cy="5" fill="black" r="4" /></marker><marker id="circle-end" markerHeight="10" markerWidth="10" orient="auto" refX="5" refY="5"><circle cx="5" cy="5" fill="black" r="4" /></marker><marker id="arrow-end-c0" markerHeight="10" markerWidth="10" orient="auto" refX="10" refY="5"><path d="M 0 0 L 10 5 L 0 10 z" fill="#c32222" /></marker><marker id="arrow-start-c0" markerHeight="10" markerWidth="10" orient="auto" refX="0" refY="5"><path d="M 10 0 L 0 5 L 10 10 z" fill="#c32222" /></marker><marker id="circle-start-c0" markerHeight="10" markerWidth="10" orient="auto" refX="5" refY="5"><circle cx="5" cy="5" fill="#c32222" r="4" /></marker><marker id="circle-end-c0" markerHeight="10" markerWidth="10" orient="auto" refX="5" refY="5"><circle cx="5" cy="5" fill="#c32222" r="4" /></marker><marker id="arrow-end-c1" markerHeight="10" markerWidth="10" orient="auto" refX="10" refY="5"><path d="M 0 0 L 10 5 L 0 10 z" fill="#c38d22" /></marker><marker id="arrow-start-c1" markerHeight="10" markerWidth="10" orient="auto" refX="0" refY="5"><path d="M 10 0 L 0 5 L 10 10 z" fill="#c38d22" /></marker><marker id="circle-start-c1" markerHeight="10" markerWidth="10" orient="auto" refX="5" refY="5"><circle cx="5" cy="5" fill="#c38d22" r="4" /></marker><marker id="circle-end-c1" markerHeight="10" markerWidth="10" orient="auto" refX="5" refY="5"><circle cx="5" cy="5" fill="#c38d22" r="4" /></marker><marker id="arrow-end-c2" markerHeight="10" markerWidth="10" orient="auto" refX="10" refY="5"><path d="M 0 0 L 10 5 L 0 10 z" fill="#8dc322" /></marker><marker id="arrow-start-c2" markerHeight="10" markerWidth="10" orient="auto" refX="0" refY="5"><path d="M 10 0 L 0 5 L 10 10 z" fill="#8dc322" /></marker><marker id="circle-start-c2" markerHeight="10" markerWidth="10" orient="auto" refX="5" refY="5"><circle cx="5" cy="5" fill="#8dc322" r="4" /></marker><marker id="circle-end-c2" markerHeight="10" markerWidth="10" orient="auto" refX="5" refY="5"><circle cx="5" cy="5" fill="#8dc322" r="4" /></marker><marker id="arrow-end-c3" markerHeight="10" markerWidth="10" orient="auto" refX="10" refY="5"><path d="M 0 0 L 10 5 L 0 10 z" fill="#22c322" /></marker><marker id="arrow-start-c3" markerHeight="10" markerWidth="10" orient="auto" refX="0" refY="5"><path d="M 10 0 L 0 5 L 10 10 z" fill="#22c322" /></marker><marker id="circle-start-c3" markerHeight="10" markerWidth="10" orient="auto" refX="5" refY="5"><circle cx="5" cy="5" fill="#22c322" r="4" /></marker><marker id="circle-end-c3" markerHeight="10" markerWidth="10" orient="auto" refX="5" refY="5"><circle cx="5" cy="5" fill="#22c322" r="4" /></marker><marker id="arrow-end-c4" markerHeight="10" markerWidth="10" orient="auto" refX="10" refY="5"><path d="M 0 0 L 10 5 L 0 10 z" fill="#22c38d" /></marker><marker id="arrow-start-c4" markerHeight="10" markerWidth="10" orient="auto" refX="0" refY="5"><path d="M 10 0 L 0 5 L 10 10 z" fill="#22c38d" /></marker><marker id="circle-start-c4" markerHeight="10" markerWidth="10" orient="auto" refX="5" refY="5"><circle cx="5" cy="5" fill="#22c38d" r="4" /></marker><marker id="circle-end-c4" markerHeight="10" markerWidth="10" orient="auto" refX="5" refY="5"><circle cx="5" cy="5" fill="#22c38d" r="4" /></marker><marker id="arrow-end-c5" markerHeight="10" markerWidth="10" orient="auto" refX="10" refY="5"><path d="M 0 0 L 10 5 L 0 10 z" fill="#228dc3" /></marker><marker id="arrow-start-c5" markerHeight="10" markerWidth="10" orient="auto" refX="0" refY="5"><path d="M 10 0 L 0 5 L 10 10 z" fill="#228dc3" /></marker><marker id="circle-start-c5" markerHeight="10" markerWidth="10" orient="auto" refX="5" refY="5"><circle cx="5" cy="5" fill="#228dc3" r="4" /></marker><marker id="circle-end-c5" markerHeight="10" markerWidth="10" orient="auto" refX="5" refY="5"><circle cx="5" cy="5" fill="#228dc3" r="4" /></marker><marker id="arrow-end-c6" markerHeight="10" markerWidth="10" orient="auto" refX="10" refY="5"><path d="M 0 0 L 10 5 L 0 10 z" fill="#2222c3" /></marker><marker id="arrow-start-c6" markerHeight="10" markerWidth="10" orient="auto" refX="0" refY="5"><path d="M 10 0 L 0 5 L 10 10 z" fill="#2222c3" /></marker><marker id="circle-start-c6" markerHeight="10" markerWidth="10" orient="auto" refX="5" refY="5"><circle cx="5" cy="5" fill="#2222c3" r="4" /></marker><marker id="circle-end-c6" markerHeight="10" markerWidth="10" orient="auto" refX="5" refY="5"><circle cx="5" cy="5" fill="#2222c3" r="4" /></marker><marker id="arrow-end-c7" markerHeight="10" markerWidth="10" orient="auto" refX="10" refY="5"><path d="M 0 0 L 10 5 L 0 10 z" fill="#8d22c3" /></marker><marker id="arrow-start-c7" markerHeight="10" markerWidth="10" orient="auto" refX="0" refY="5"><path d="M 10 0 L 0 5 L 10 10 z" fill="#8d22c3" /></marker><marker id="circle-start-c7" markerHeight="10" markerWidth="10" orient="auto" refX="5" refY="5"><circle cx="5" cy="5" fill="#8d22c3" r="4" /></marker><marker id="circle-end-c7" markerHeight="10" markerWidth="10" orient="auto" refX="5" refY="5"><circle cx="5" cy="5" fill="#8d22c3" r="4" /></marker><marker id="arrow-end-c8" markerHeight="10" markerWidth="10" orient="auto" refX="10" refY="5"><path d="M 0 0 L 10 5 L 0 10 z" fill="#c3228d" /></marker><marker id="arrow-start-c8" markerHeight="10" markerWidth="10" orient="auto" refX="0" refY="5"><path d="M 10 0 L 0 5 L 10 10 z" fill="#c3228d" /></marker><marker id="circle-start-c8" markerHeight="10" markerWidth="10" orient="auto" refX="5" refY="5"><circle cx="5" cy="5" fill="#c3228d" r="4" /></marker><marker id="circle-end-c8" markerHeight="10" markerWidth="10" orient="auto" refX="5" refY="5"><circle cx="5" cy="5" fill="#c3228d" r="4" /></marker><linearGradient id="gradient-start" x1="0%" x2="0%" y1="0%" y2="100%"><stop offset="0%" stop-color="#b1f3b1" /><stop offset="100%" stop-color="#64a664" /></linearGradient><linearGradient id="gradient-init" x1="0%" x2="0%" y1="0%" y2="100%"><stop offset="0%" stop-color="#c5e3ed" /><stop offset="100%" stop-color="#7997a1" /></linearGradient><linearGradient id="gradient-iter" x1="0%" x2="0%" y1="0%" y2="100%"><stop offset="0%" stop-color="#c5e3ed" /><stop offset="100%" stop-color="#7997a1" /></linearGradient><linearGradient id="gradient-check_prime" x1="0%" x2="0%" y1="0%" y2="100%"><stop offset="0%" stop-color="#c5e3ed" /><stop offset="100%" stop-color="#7997a1" /></linearGradient><linearGradient id="gradient-append" x1="0%" x2="0%" y1="0%" y2="100%"><stop offset="0%" stop-color="#c5e3ed" /><stop offset="100%" stop-color="#7997a1" /></linearGradient><linearGradient id="gradient-next_n" x1="0%" x2="0%" y1="0%" y2="100%"><stop offset="0%" stop-color="#c5e3ed" /><stop offset="100%" stop-color="#7997a1" /></linearGradient><linearGradient id="gradient-end" x1="0%" x2="0%" y1="0%" y2="100%"><stop offset="0%" stop-color="#a6a6a6" /><stop offset="100%" stop-color="#595959" /></linearGradient></defs><ellipse cx="140.0" cy="45.0" fill="url(#gradient-start)" rx="40.0" ry="25.0" stroke="black" /><g id="init"><g transform="translate(110.0,320.0) scale(1.2048192771084338,0.6928406466512702) translate(-0.9,-1.4)"><path d="M 22.754087,32.116749 0.94545599,43.000013 V 4.7289739 L 22.754087,1.5702876 Z" fill="#e9e9ff" stroke="none" /><path d="M 50.712576,33.120864 V 1.4628125 L 22.754087,1.5702876 V 32.116749 Z" fill="#353564" stroke="none" /><path d="M 50.712576,33.120864 35.295871,44.770537 0.94545599,43.000013 22.754087,32.116749 Z" fill="#4d4d9f" stroke="none" /><path d="M 50.712576,1.4628125 35.295871,4.7384198 0.94545599,4.7289739 22.754087,1.5702876 Z" fill="#1c1ce6" opacity="1" stroke="none" /><path d="M 35.295871,44.770537 V 4.7384198 L 0.94545599,4.7289739 V 43.000013 Z" fill="#1a52ff" opacity="0.96" stroke="none" /><path d="M 50.712576,33.120864 35.295871,44.770537 V 4.7384198 L 50.712576,1.4628125 Z" fill="#1c9bd0" stroke="none" /><rect fill="none" height="43.3" opacity="0.67" stroke="#cbcbcb" stroke-width="0.48" width="49.8" x="0.9" y="1.4" /></g></g><g id="for_frame"><g transform="translate(580.0,20.0) scale(1.6,1.6666666666666667) translate(10,0)"><path d="m 211.5145,221.09759 -99.80744,57.62385 -99.807437,-57.62385 0,-115.2477 99.807437,-57.623854 99.80744,57.623854 z" fill="#a90000" opacity="0.72" stroke="#cbcbcb" stroke-width="0.48" transform="matrix(0.0751447,0.02631765,-0.04338481,0.0455835,8.97,11.04)" /><path d="m 211.5145,221.09759 -99.80744,57.62385 -99.807437,-57.62385 0,-115.2477 99.807437,-57.623854 99.80744,57.623854 z" fill="#ff7000" opacity="0.82" stroke="#cbcbcb" stroke-width="0.48" transform="matrix(0.0751447,0.02631765,-0.04338481,0.0455835,13.97,16.29)" /><path d="m 211.5145,221.09759 -99.80744,57.62385 -99.807437,-57.62385 0,-115.2477 99.807437,-57.623854 99.80744,57.623854 z" fill="#ffa900" opacity="0.72" stroke="#cbcbcb" stroke-width="0.48" transform="matrix(0.0751447,0.02631765,-0.04338481,0.0455835,18.97,11.04)" /><path d="m 211.5145,221.09759 -99.80744,57.62385 -99.807437,-57.62385 0,-115.2477 99.807437,-57.623854 99.80744,57.623854 z" fill="#d40000" opacity="0.85" stroke="#cbcbcb" stroke-width="0.48" transform="matrix(0.0751447,0.02631765,-0.04338481,0.0455835,18.97,21.54)" /><path d="m 211.5145,221.09759 -99.80744,57.62385 -99.807437,-57.62385 0,-115.2477 99.807437,-57.623854 99.80744,57.623854 z" fill="#a90000" opacity="1.0" stroke="#cbcbcb" stroke-width="0.48" transform="matrix(0.0751447,0.02631765,-0.04338481,0.0455835,23.97,26.80)" /><path d="m 211.5145,221.09759 -99.80744,57.62385 -99.807437,-57.62385 0,-115.2477 99.807437,-57.623854 99.80744,57.623854 z" fill="#ff7000" opacity="0.82" stroke="#cbcbcb" stroke-width="0.48" transform="matrix(0.0751447,0.02631765,-0.04338481,0.0455835,23.97,16.29)" /><path d="m 211.5145,221.09759 -99.80744,57.62385 -99.807437,-57.62385 0,-115.2477 99.807437,-57.623854 99.80744,57.623854 z" fill="#ffa900" opacity="0.72" stroke="#cbcbcb" stroke-width="0.48" transform="matrix(0.0751447,0.02631765,-0.04338481,0.0455835,28.97,11.04)" /><path d="m 211.5145,221.09759 -99.80744,57.62385 -99.807437,-57.62385 0,-115.2477 99.807437,-57.623854 99.80744,57.623854 z" fill="#d40000" opacity="0.85" stroke="#cbcbcb" stroke-width="0.48" transform="matrix(0.0751447,0.02631765,-0.04338481,0.0455835,28.97,21.54)" /><path d="m 211.5145,221.09759 -99.80744,57.62385 -99.807437,-57.62385 0,-115.2477 99.807437,-57.623854 99.80744,57.623854 z" fill="#ff7000" opacity="0.82" stroke="#cbcbcb" stroke-width="0.48" transform="matrix(0.0751447,0.02631765,-0.04338481,0.0455835,33.97,16.29)" /><path d="m 211.5145,221.09759 -99.80744,57.62385 -99.807437,-57.62385 0,-115.2477 99.807437,-57.623854 99.80744,57.623854 z" fill="#ffa900" opacity="0.72" stroke="#cbcbcb" stroke-width="0.48" transform="matrix(0.0751447,0.02631765,-0.04338481,0.0455835,38.97,11.04)" /><path d="m 211.5145,221.09759 -99.80744,57.62385 -99.807437,-57.62385 0,-115.2477 99.807437,-57.623854 99.80744,57.623854 z" fill="#ffd400" opacity="0.45" stroke="#cbcbcb" stroke-width="0.48" transform="matrix(0.0751447,0.02631765,-0.04338481,0.0455835,13.97,5.78)" /><path d="m 211.5145,221.09759 -99.80744,57.62385 -99.807437,-57.62385 0,-115.2477 99.807437,-57.623854 99.80744,57.623854 z" fill="#ffe200" opacity="0.5" stroke="#cbcbcb" stroke-width="0.48" transform="matrix(0.0751447,0.02631765,-0.04338481,0.0455835,18.97,0.53)" /><path d="m 211.5145,221.09759 -99.80744,57.62385 -99.807437,-57.62385 0,-115.2477 99.807437,-57.623854 99.80744,57.623854 z" fill="#ffd400" opacity="0.45" stroke="#cbcbcb" stroke-width="0.48" transform="matrix(0.0751447,0.02631765,-0.04338481,0.0455835,23.97,5.78)" /><path d="m 211.5145,221.09759 -99.80744,57.62385 -99.807437,-57.62385 0,-115.2477 99.807437,-57.623854 99.80744,57.623854 z" fill="#ffe200" opacity="0.6" stroke="#cbcbcb" stroke-width="0.48" transform="matrix(0.0751447,0.02631765,-0.04338481,0.0455835,23.97,-4.73)" /><path d="m 211.5145,221.09759 -99.80744,57.62385 -99.807437,-57.62385 0,-115.2477 99.807437,-57.623854 99.80744,57.623854 z" fill="#ffe200" opacity="0.5" stroke="#cbcbcb" stroke-width="0.48" transform="matrix(0.0751447,0.02631765,-0.04338481,0.0455835,28.97,0.53)" /><path d="m 211.5145,221.09759 -99.80744,57.62385 -99.807437,-57.62385 0,-115.2477 99.807437,-57.623854 99.80744,57.623854 z" fill="#ffd400" opacity="0.45" stroke="#cbcbcb" stroke-width="0.48" transform="matrix(0.0751447,0.02631765,-0.04338481,0.0455835,33.97,5.78)" /></g></g><g id="iter"><g transform="translate(110.0,610.0) scale(1.2048192771084338,0.6928406466512702) translate(-0.9,-1.4)"><path d="M 22.754087,32.116749 0.94545599,43.000013 V 4.7289739 L 22.754087,1.5702876 Z" fill="#e9e9ff" stroke="none" /><path d="M 50.712576,33.120864 V 1.4628125 L 22.754087,1.5702876 V 32.116749 Z" fill="#353564" stroke="none" /><path d="M 50.712576,33.120864 35.295871,44.770537 0.94545599,43.000013 22.754087,32.116749 Z" fill="#4d4d9f" stroke="none" /><path d="M 50.712576,1.4628125 35.295871,4.7384198 0.94545599,4.7289739 22.754087,1.5702876 Z" fill="#1c1ce6" opacity="1" stroke="none" /><path d="M 35.295871,44.770537 V 4.7384198 L 0.94545599,4.7289739 V 43.000013 Z" fill="#1a52ff" opacity="0.96" stroke="none" /><path d="M 50.712576,33.120864 35.295871,44.770537 V 4.7384198 L 50.712576,1.4628125 Z" fill="#1c9bd0" stroke="none" /><rect fill="none" height="43.3" opacity="0.67" stroke="#cbcbcb" stroke-width="0.48" width="49.8" x="0.9" y="1.4" /></g></g><g id="check_prime"><g transform="translate(110.0,900.0) scale(1.2048192771084338,0.6928406466512702) translate(-0.9,-1.4)"><path d="M 22.754087,32.116749 0.94545599,43.000013 V 4.7289739 L 22.754087,1.5702876 Z" fill="#e9e9ff" stroke="none" /><path d="M 50.712576,33.120864 V 1.4628125 L 22.754087,1.5702876 V 32.116749 Z" fill="#353564" stroke="none" /><path d="M 50.712576,33.120864 35.295871,44.770537 0.94545599,43.000013 22.754087,32.116749 Z" fill="#4d4d9f" stroke="none" /><path d="M 50.712576,1.4628125 35.295871,4.7384198 0.94545599,4.7289739 22.754087,1.5702876 Z" fill="#1c1ce6" opacity="1" stroke="none" /><path d="M 35.295871,44.770537 V 4.7384198 L 0.94545599,4.7289739 V 43.000013 Z" fill="#1a52ff" opacity="0.96" stroke="none" /><path d="M 50.712576,33.120864 35.295871,44.770537 V 4.7384198 L 50.712576,1.4628125 Z" fill="#1c9bd0" stroke="none" /><rect fill="none" height="43.3" opacity="0.67" stroke="#cbcbcb" stroke-width="0.48" width="49.8" x="0.9" y="1.4" /></g></g><g id="if_prime"><g transform="translate(100.0,1180.0) scale(1.6,1.6666666666666667) translate(10,0)"><path d="m 211.5145,221.09759 -99.80744,57.62385 -99.807437,-57.62385 0,-115.2477 99.807437,-57.623854 99.80744,57.623854 z" fill="#a90000" opacity="0.72" stroke="#cbcbcb" stroke-width="0.48" transform="matrix(0.0751447,0.02631765,-0.04338481,0.0455835,8.97,11.04)" /><path d="m 211.5145,221.09759 -99.80744,57.62385 -99.807437,-57.62385 0,-115.2477 99.807437,-57.623854 99.80744,57.623854 z" fill="#ff7000" opacity="0.82" stroke="#cbcbcb" stroke-width="0.48" transform="matrix(0.0751447,0.02631765,-0.04338481,0.0455835,13.97,16.29)" /><path d="m 211.5145,221.09759 -99.80744,57.62385 -99.807437,-57.62385 0,-115.2477 99.807437,-57.623854 99.80744,57.623854 z" fill="#ffa900" opacity="0.72" stroke="#cbcbcb" stroke-width="0.48" transform="matrix(0.0751447,0.02631765,-0.04338481,0.0455835,18.97,11.04)" /><path d="m 211.5145,221.09759 -99.80744,57.62385 -99.807437,-57.62385 0,-115.2477 99.807437,-57.623854 99.80744,57.623854 z" fill="#d40000" opacity="0.85" stroke="#cbcbcb" stroke-width="0.48" transform="matrix(0.0751447,0.02631765,-0.04338481,0.0455835,18.97,21.54)" /><path d="m 211.5145,221.09759 -99.80744,57.62385 -99.807437,-57.62385 0,-115.2477 99.807437,-57.623854 99.80744,57.623854 z" fill="#a90000" opacity="1.0" stroke="#cbcbcb" stroke-width="0.48" transform="matrix(0.0751447,0.02631765,-0.04338481,0.0455835,23.97,26.80)" /><path d="m 211.5145,221.09759 -99.80744,57.62385 -99.807437,-57.62385 0,-115.2477 99.807437,-57.623854 99.80744,57.623854 z" fill="#ff7000" opacity="0.82" stroke="#cbcbcb" stroke-width="0.48" transform="matrix(0.0751447,0.02631765,-0.04338481,0.0455835,23.97,16.29)" /><path d="m 211.5145,221.09759 -99.80744,57.62385 -99.807437,-57.62385 0,-115.2477 99.807437,-57.623854 99.80744,57.623854 z" fill="#ffa900" opacity="0.72" stroke="#cbcbcb" stroke-width="0.48" transform="matrix(0.0751447,0.02631765,-0.04338481,0.0455835,28.97,11.04)" /><path d="m 211.5145,221.09759 -99.80744,57.62385 -99.807437,-57.62385 0,-115.2477 99.807437,-57.623854 99.80744,57.623854 z" fill="#d40000" opacity="0.85" stroke="#cbcbcb" stroke-width="0.48" transform="matrix(0.0751447,0.02631765,-0.04338481,0.0455835,28.97,21.54)" /><path d="m 211.5145,221.09759 -99.80744,57.62385 -99.807437,-57.62385 0,-115.2477 99.807437,-57.623854 99.80744,57.623854 z" fill="#ff7000" opacity="0.82" stroke="#cbcbcb" stroke-width="0.48" transform="matrix(0.0751447,0.02631765,-0.04338481,0.0455835,33.97,16.29)" /><path d="m 211.5145,221.09759 -99.80744,57.62385 -99.807437,-57.62385 0,-115.2477 99.807437,-57.623854 99.80744,57.623854 z" fill="#ffa900" opacity="0.72" stroke="#cbcbcb" stroke-width="0.48" transform="matrix(0.0751447,0.02631765,-0.04338481,0.0455835,38.97,11.04)" /><path d="m 211.5145,221.09759 -99.80744,57.62385 -99.807437,-57.62385 0,-115.2477 99.807437,-57.623854 99.80744,57.623854 z" fill="#ffd400" opacity="0.45" stroke="#cbcbcb" stroke-width="0.48" transform="matrix(0.0751447,0.02631765,-0.04338481,0.0455835,13.97,5.78)" /><path d="m 211.5145,221.09759 -99.80744,57.62385 -99.807437,-57.62385 0,-115.2477 99.807437,-57.623854 99.80744,57.623854 z" fill="#ffe200" opacity="0.5" stroke="#cbcbcb" stroke-width="0.48" transform="matrix(0.0751447,0.02631765,-0.04338481,0.0455835,18.97,0.53)" /><path d="m 211.5145,221.09759 -99.80744,57.62385 -99.807437,-57.62385 0,-115.2477 99.807437,-57.623854 99.80744,57.623854 z" fill="#ffd400" opacity="0.45" stroke="#cbcbcb" stroke-width="0.48" transform="matrix(0.0751447,0.02631765,-0.04338481,0.0455835,23.97,5.78)" /><path d="m 211.5145,221.09759 -99.80744,57.62385 -99.807437,-57.62385 0,-115.2477 99.807437,-57.623854 99.80744,57.623854 z" fill="#ffe200" opacity="0.6" stroke="#cbcbcb" stroke-width="0.48" transform="matrix(0.0751447,0.02631765,-0.04338481,0.0455835,23.97,-4.73)" /><path d="m 211.5145,221.09759 -99.80744,57.62385 -99.807437,-57.62385 0,-115.2477 99.807437,-57.623854 99.80744,57.623854 z" fill="#ffe200" opacity="0.5" stroke="#cbcbcb" stroke-width="0.48" transform="matrix(0.0751447,0.02631765,-0.04338481,0.0455835,28.97,0.53)" /><path d="m 211.5145,221.09759 -99.80744,57.62385 -99.807437,-57.62385 0,-115.2477 99.807437,-57.623854 99.80744,57.623854 z" fill="#ffd400" opacity="0.45" stroke="#cbcbcb" stroke-width="0.48" transform="matrix(0.0751447,0.02631765,-0.04338481,0.0455835,33.97,5.78)" /></g></g><g id="append"><g transform="translate(110.0,1480.0) scale(1.2048192771084338,0.6928406466512702) translate(-0.9,-1.4)"><path d="M 22.754087,32.116749 0.94545599,43.000013 V 4.7289739 L 22.754087,1.5702876 Z" fill="#e9e9ff" stroke="none" /><path d="M 50.712576,33.120864 V 1.4628125 L 22.754087,1.5702876 V 32.116749 Z" fill="#353564" stroke="none" /><path d="M 50.712576,33.120864 35.295871,44.770537 0.94545599,43.000013 22.754087,32.116749 Z" fill="#4d4d9f" stroke="none" /><path d="M 50.712576,1.4628125 35.295871,4.7384198 0.94545599,4.7289739 22.754087,1.5702876 Z" fill="#1c1ce6" opacity="1" stroke="none" /><path d="M 35.295871,44.770537 V 4.7384198 L 0.94545599,4.7289739 V 43.000013 Z" fill="#1a52ff" opacity="0.96" stroke="none" /><path d="M 50.712576,33.120864 35.295871,44.770537 V 4.7384198 L 50.712576,1.4628125 Z" fill="#1c9bd0" stroke="none" /><rect fill="none" height="43.3" opacity="0.67" stroke="#cbcbcb" stroke-width="0.48" width="49.8" x="0.9" y="1.4" /></g></g><g id="next_n"><g transform="translate(110.0,1770.0) scale(1.2048192771084338,0.6928406466512702) translate(-0.9,-1.4)"><path d="M 22.754087,32.116749 0.94545599,43.000013 V 4.7289739 L 22.754087,1.5702876 Z" fill="#e9e9ff" stroke="none" /><path d="M 50.712576,33.120864 V 1.4628125 L 22.754087,1.5702876 V 32.116749 Z" fill="#353564" stroke="none" /><path d="M 50.712576,33.120864 35.295871,44.770537 0.94545599,43.000013 22.754087,32.116749 Z" fill="#4d4d9f" stroke="none" /><path d="M 50.712576,1.4628125 35.295871,4.7384198 0.94545599,4.7289739 22.754087,1.5702876 Z" fill="#1c1ce6" opacity="1" stroke="none" /><path d="M 35.295871,44.770537 V 4.7384198 L 0.94545599,4.7289739 V 43.000013 Z" fill="#1a52ff" opacity="0.96" stroke="none" /><path d="M 50.712576,33.120864 35.295871,44.770537 V 4.7384198 L 50.712576,1.4628125 Z" fill="#1c9bd0" stroke="none" /><rect fill="none" height="43.3" opacity="0.67" stroke="#cbcbcb" stroke-width="0.48" width="49.8" x="0.9" y="1.4" /></g></g><ellipse cx="620.0" cy="1785.0" fill="url(#gradient-end)" rx="40.0" ry="25.0" stroke="black" /><line stroke="#c32222" stroke-width="2" x1="140.0" x2="140.0" y1="85.0" y2="303.0" /><line stroke="#c38d22" stroke-width="2" x1="140.0" x2="140.0" y1="367.0" y2="593.0" /><line stroke="#8dc322" stroke-width="2" x1="140.0" x2="140.0" y1="657.0" y2="883.0" /><line stroke="#22c322" stroke-width="2" x1="140.0" x2="140.0" y1="947.0" y2="1173.0" /><line stroke="#22c38d" stroke-width="2" x1="140.0" x2="140.0" y1="1237.0" y2="1463.0" /><line stroke="#228dc3" stroke-width="2" x1="140.0" x2="140.0" y1="1237.0" y2="1753.0" /><line stroke="#2222c3" stroke-width="2" x1="140.0" x2="140.0" y1="1527.0" y2="1753.0" /><line stroke="#8d22c3" stroke-width="2" x1="140.0" x2="140.0" y1="1753.0" y2="657.0" /><line stroke="#c3228d" stroke-width="2" x1="172.0" x2="580.0" y1="1785.0" y2="1785.0" /><text fill="black" filter="url(#text-glow)" font-family="Arial, sans-serif" font-size="14px" text-anchor="start" x="192.6" y="45.0">Inicio</text><text fill="black" filter="url(#text-glow)" font-family="Arial, sans-serif" font-size="14px" text-anchor="start" x="192.6" y="335.0">Definir N</text><text fill="black" filter="url(#text-glow)" font-family="Arial, sans-serif" font-size="14px" text-anchor="start" x="192.6" y="353.0">listaPrimos=[]</text><text fill="black" filter="url(#text-glow)" font-family="Arial, sans-serif" font-size="14px" text-anchor="start" x="192.6" y="371.0">n=2</text><text fill="black" filter="url(#text-glow)" font-family="Arial, sans-serif" font-size="14px" text-anchor="middle" x="620.0" y="91.0">FOR: n = 2..N</text><text fill="black" filter="url(#text-glow)" font-family="Arial, sans-serif" font-size="14px" text-anchor="start" x="192.6" y="625.0">Iteración (n)</text><text fill="black" filter="url(#text-glow)" font-family="Arial, sans-serif" font-size="14px" text-anchor="start" x="192.6" y="915.0">p = isPrime(n)</text><text fill="black" filter="url(#text-glow)" font-family="Arial, sans-serif" font-size="14px" text-anchor="start" x="192.6" y="1205.0">¿p == True?</text><text fill="black" filter="url(#text-glow)" font-family="Arial, sans-serif" font-size="14px" text-anchor="start" x="192.6" y="1495.0">listaPrimos.append(n)</text><text fill="black" filter="url(#text-glow)" font-family="Arial, sans-serif" font-size="14px" text-anchor="middle" x="140.0" y="1831.0">n = n + 1</text><text fill="black" filter="url(#text-glow)" font-family="Arial, sans-serif" font-size="14px" text-anchor="middle" x="620.0" y="1831.0">Fin</text><text fill="black" filter="url(#text-glow)" font-family="Arial, sans-serif" font-size="14px" text-anchor="middle" x="620.0" y="1849.0">Mostrar listaPrimos</text><text fill="gray" filter="url(#text-glow)" font-family="Arial, sans-serif" font-size="12px" text-anchor="end" x="89.2" y="194.0">flujo</text><text fill="gray" filter="url(#text-glow)" font-family="Arial, sans-serif" font-size="12px" text-anchor="end" x="89.2" y="480.0">entra al for</text><text fill="gray" filter="url(#text-glow)" font-family="Arial, sans-serif" font-size="12px" text-anchor="end" x="89.2" y="770.0">flujo</text><text fill="gray" filter="url(#text-glow)" font-family="Arial, sans-serif" font-size="12px" text-anchor="end" x="89.2" y="1060.0">flujo</text><text fill="gray" filter="url(#text-glow)" font-family="Arial, sans-serif" font-size="12px" text-anchor="end" x="89.2" y="1350.0">sí</text><text fill="gray" filter="url(#text-glow)" font-family="Arial, sans-serif" font-size="12px" text-anchor="end" x="89.2" y="1495.0">no</text><text fill="gray" filter="url(#text-glow)" font-family="Arial, sans-serif" font-size="12px" text-anchor="end" x="89.2" y="1640.0">flujo</text><text fill="gray" filter="url(#text-glow)" font-family="Arial, sans-serif" font-size="12px" text-anchor="end" x="89.2" y="1205.0">loop</text><text fill="gray" filter="url(#text-glow)" font-family="Arial, sans-serif" font-size="12px" text-anchor="middle" x="376.0" y="1742.0">si n &gt; N</text></svg>