<?xml version="1.0" encoding="utf-8" ?>
<svg baseProfile="full" height="1200" version="1.1" viewBox="0,0,2000,1200" width="2000" xmlns="http://www.w3.org/2000/svg" xmlns:ev="http://www.w3.org/2001/xml-events" xmlns:xlink="http://www.w3.org/1999/xlink"><defs><filter height="140%" id="text-glow" width="140%" x="-20%" y="-20%"><feGaussianBlur in="SourceGraphic" result="blur" stdDeviation="2" /><feFlood flood-color="white" flood-opacity="1" result="color" /><feComposite in="color" in2="blur" operator="in" result="shadow" /><feMerge><feMergeNode in="shadow" /><feMergeNode in="shadow" /><feMergeNode in="SourceGraphic" /></feMerge></filter><marker id="arrow-end" markerHeight="10" markerWidth="10" orient="auto" refX="10" refY="5"><path d="M 0 0 L 10 5 L 0 10 z" fill="black" /></marker><marker id="arrow-start" markerHeight="10" markerWidth="10" orient="auto" refX="0" refY="5"><path d="M 10 0 L 0 5 L 10 10 z" fill="black" /></marker><marker id="circle-start" markerHeight="10" markerWidth="10" orient="auto" refX="5" refY="5"><circle cx="5" cy="5" fill="black" r="4" /></marker><marker id="circle-end" markerHeight="10" markerWidth="10" orient="auto" refX="5" refY="5"><circle cx="5" cy="5" fill="black" r="4" /></marker><linearGradient id="gradient-jose_heraclides" x1="0%" x2="0%" y1="0%" y2="100%"><stop offset="0%" stop-color="#ffe34c" /><stop offset="100%" stop-color="#b29600" /></linearGradient><linearGradient id="gradient-daria" x1="0%" x2="0%" y1="0%" y2="100%"><stop offset="0%" stop-color="#ffe34c" /><stop offset="100%" stop-color="#b29600" /></linearGradient><linearGradient id="gradient-lica" x1="0%" x2="0%" y1="0%" y2="100%"><stop offset="0%" stop-color="#c5e3ed" /><stop offset="100%" stop-color="#7997a1" /></linearGradient><linearGradient id="gradient-patricia" x1="0%" x2="0%" y1="0%" y2="100%"><stop offset="0%" stop-color="#c5e3ed" /><stop offset="100%" stop-color="#7997a1" /></linearGradient><linearGradient id="gradient-santiago" x1="0%" x2="0%" y1="0%" y2="100%"><stop offset="0%" stop-color="#c5e3ed" /><stop offset="100%" stop-color="#7997a1" /></linearGradient><linearGradient id="gradient-jose" x1="0%" x2="0%" y1="0%" y2="100%"><stop offset="0%" stop-color="#c5e3ed" /><stop offset="100%" stop-color="#7997a1" /></linearGradient><linearGradient id="gradient-sebastian" x1="0%" x2="0%" y1="0%" y2="100%"><stop offset="0%" stop-color="#b1f3b1" /><stop offset="100%" stop-color="#64a664" /></linearGradient><linearGradient id="gradient-mateo" x1="0%" x2="0%" y1="0%" y2="100%"><stop offset="0%" stop-color="#b1f3b1" /><stop offset="100%" stop-color="#64a664" /></linearGradient><linearGradient id="gradient-pascual" x1="0%" x2="0%" y1="0%" y2="100%"><stop offset="0%" stop-color="#b1f3b1" /><stop offset="100%" stop-color="#64a664" /></linearGradient><linearGradient id="gradient-diego" x1="0%" x2="0%" y1="0%" y2="100%"><stop offset="0%" stop-color="#b1f3b1" /><stop offset="100%" stop-color="#64a664" /></linearGradient><linearGradient id="gradient-jose_antonio" x1="0%" x2="0%" y1="0%" y2="100%"><stop offset="0%" stop-color="#b1f3b1" /><stop offset="100%" stop-color="#64a664" /></linearGradient><linearGradient id="gradient-patricia_hija_santiago" x1="0%" x2="0%" y1="0%" y2="100%"><stop offset="0%" stop-color="#b1f3b1" /><stop offset="100%" stop-color="#64a664" /></linearGradient><linearGradient id="gradient-santiagoito" x1="0%" x2="0%" y1="0%" y2="100%"><stop offset="0%" stop-color="#b1f3b1" /><stop offset="100%" stop-color="#64a664" /></linearGradient><linearGradient id="gradient-gerardo" x1="0%" x2="0%" y1="0%" y2="100%"><stop offset="0%" stop-color="#b1f3b1" /><stop offset="100%" stop-color="#64a664" /></linearGradient><linearGradient id="gradient-dante" x1="0%" x2="0%" y1="0%" y2="100%"><stop offset="0%" stop-color="#b1f3b1" /><stop offset="100%" stop-color="#64a664" /></linearGradient></defs><g id="jose_heraclides"><rect fill="url(#gradient-jose_heraclides)" height="50" rx="4" ry="4" stroke="black" stroke-width="1.2" width="80" x="445.81860861815414" y="20.0" /><line stroke="#998100" stroke-width="0.8" x1="447.81860861815414" x2="523.8186086181541" y1="36.66666666666667" y2="36.66666666666667" /><line stroke="#998100" stroke-width="0.8" x1="447.81860861815414" x2="523.8186086181541" y1="53.333333333333336" y2="53.333333333333336" /><circle cx="513.8186086181541" cy="28.333333333333336" fill="#00cc44" r="2.5" stroke="#998100" stroke-width="0.5" /><circle cx="505.81860861815414" cy="28.333333333333336" fill="#ffaa00" r="2.5" stroke="#998100" stroke-width="0.5" /><circle cx="513.8186086181541" cy="45.00000000000001" fill="#00cc44" r="2.5" stroke="#998100" stroke-width="0.5" /><circle cx="505.81860861815414" cy="45.00000000000001" fill="#ffaa00" r="2.5" stroke="#998100" stroke-width="0.5" /><circle cx="513.8186086181541" cy="61.66666666666667" fill="#00cc44" r="2.5" stroke="#998100" stroke-width="0.5" /><circle cx="505.81860861815414" cy="61.66666666666667" fill="#ffaa00" r="2.5" stroke="#998100" stroke-width="0.5" /><line stroke="#998100" stroke-width="0.6" x1="451.81860861815414" x2="463.81860861815414" y1="25.0" y2="25.0" /><line stroke="#998100" stroke-width="0.6" x1="451.81860861815414" x2="463.81860861815414" y1="28.333333333333336" y2="28.333333333333336" /><line stroke="#998100" stroke-width="0.6" x1="451.81860861815414" x2="463.81860861815414" y1="31.666666666666668" y2="31.666666666666668" /><line stroke="#998100" stroke-width="0.6" x1="451.81860861815414" x2="463.81860861815414" y1="41.66666666666667" y2="41.66666666666667" /><line stroke="#998100" stroke-width="0.6" x1="451.81860861815414" x2="463.81860861815414" y1="45.00000000000001" y2="45.00000000000001" /><line stroke="#998100" stroke-width="0.6" x1="451.81860861815414" x2="463.81860861815414" y1="48.33333333333334" y2="48.33333333333334" /><line stroke="#998100" stroke-width="0.6" x1="451.81860861815414" x2="463.81860861815414" y1="58.333333333333336" y2="58.333333333333336" /><line stroke="#998100" stroke-width="0.6" x1="451.81860861815414" x2="463.81860861815414" y1="61.66666666666667" y2="61.66666666666667" /><line stroke="#998100" stroke-width="0.6" x1="451.81860861815414" x2="463.81860861815414" y1="65.0" y2="65.0" /></g><g id="daria"><rect fill="url(#gradient-daria)" height="50" rx="4" ry="4" stroke="black" stroke-width="1.2" width="80" x="565.8186086181541" y="20.0" /><line stroke="#998100" stroke-width="0.8" x1="567.8186086181541" x2="643.8186086181541" y1="36.66666666666667" y2="36.66666666666667" /><line stroke="#998100" stroke-width="0.8" x1="567.8186086181541" x2="643.8186086181541" y1="53.333333333333336" y2="53.333333333333336" /><circle cx="633.8186086181541" cy="28.333333333333336" fill="#00cc44" r="2.5" stroke="#998100" stroke-width="0.5" /><circle cx="625.8186086181541" cy="28.333333333333336" fill="#ffaa00" r="2.5" stroke="#998100" stroke-width="0.5" /><circle cx="633.8186086181541" cy="45.00000000000001" fill="#00cc44" r="2.5" stroke="#998100" stroke-width="0.5" /><circle cx="625.8186086181541" cy="45.00000000000001" fill="#ffaa00" r="2.5" stroke="#998100" stroke-width="0.5" /><circle cx="633.8186086181541" cy="61.66666666666667" fill="#00cc44" r="2.5" stroke="#998100" stroke-width="0.5" /><circle cx="625.8186086181541" cy="61.66666666666667" fill="#ffaa00" r="2.5" stroke="#998100" stroke-width="0.5" /><line stroke="#998100" stroke-width="0.6" x1="571.8186086181541" x2="583.8186086181541" y1="25.0" y2="25.0" /><line stroke="#998100" stroke-width="0.6" x1="571.8186086181541" x2="583.8186086181541" y1="28.333333333333336" y2="28.333333333333336" /><line stroke="#998100" stroke-width="0.6" x1="571.8186086181541" x2="583.8186086181541" y1="31.666666666666668" y2="31.666666666666668" /><line stroke="#998100" stroke-width="0.6" x1="571.8186086181541" x2="583.8186086181541" y1="41.66666666666667" y2="41.66666666666667" /><line stroke="#998100" stroke-width="0.6" x1="571.8186086181541" x2="583.8186086181541" y1="45.00000000000001" y2="45.00000000000001" /><line stroke="#998100" stroke-width="0.6" x1="571.8186086181541" x2="583.8186086181541" y1="48.33333333333334" y2="48.33333333333334" /><line stroke="#998100" stroke-width="0.6" x1="571.8186086181541" x2="583.8186086181541" y1="58.333333333333336" y2="58.333333333333336" /><line stroke="#998100" stroke-width="0.6" x1="571.8186086181541" x2="583.8186086181541" y1="61.66666666666667" y2="61.66666666666667" /><line stroke="#998100" stroke-width="0.6" x1="571.8186086181541" x2="583.8186086181541" y1="65.0" y2="65.0" /></g><path d="m 33.382966,8e-4 c -3.861042,1.2762 -4.631646,6.37476 -8.713738,7.58064 -4.763632,3.80168 -7.027208,10.1432 -6.16644,16.12572 0.33152,3.88876 1.751504,7.57356 3.294256,11.12272 C 14.743804,40.50868 7.020292,45.29236 0,51.01416 c 0.0088,1.60388 2.571968,3.52192 3.1231,4.06796 3.251976,-1.413 1.180916,4.0242 4.391336,2.93684 0.547784,2.65168 4.059744,2.41792 4.424732,5.1808 3.474884,1.40976 5.871092,-3.60896 9.041844,-4.63968 4.692352,-3.27 9.331832,-6.6164 14.073835,-9.8148 4.49228,1.24988 8.3626,4.127 12.98444,5.03568 7.80432,2.36256 16.43632,1.5656 23.73004,-2.02148 4.6368,-2.28272 0.2696,-7.48384 -3.512,-7.30124 -7.07976,-1.44424 -14.26972,-3.36556 -20.32528,-7.46088 8.56576,-5.7508 17.58792,-10.81572 25.892,-16.95564 1.39956,-2.93964 -3.96644,-4.45148 -4.29872,-6.52308 -2.5844,0.91256 -2.66588,-1.5376 -2.34908,-2.97408 -1.63932,-1.19972 -3.72724,-3.25572 -4.68312,-4.18028 -8.53084,4.92348 -16.4076,10.8902 -24.95356,15.789 -2.407,-3.7232 -1.01408,-8.56452 -2.01052,-12.73416 -0.858401,-2.87864 1.40132,-7.4902 -0.910321,-9.33832 L 33.968326,0.0488 33.382806,0 Z m -0.1872,0.8914 c 0.3068,3.05576 -2.295922,6.0048 -0.538122,9.15572 0.675682,5.46024 0.604682,10.97176 0.699762,16.46244 -3.362242,1.81824 -6.593462,6.28168 -10.531522,5.58328 C 20.298644,29.42576 20.202072,25.23552 19.71614,21.7482 19.5367,15.91892 22.46468,9.9152 27.693068,7.11652 29.982004,5.45768 31.379684,2.92084 33.195766,0.8922 Z m 29.594001,6.4392 c 1.46792,2.53452 4.402,4.60776 3.57992,7.65776 1.61956,-0.52456 3.84108,-1.75012 3.77228,0.86636 2.411,1.43844 4.43252,4.9366 0.3672,5.68956 -7.52336,4.96068 -15.18952,9.69916 -22.79632,14.52964 -0.9216,-1.074 -5.60524,-6.12564 -3.166,-2.69128 3.265,2.94944 2.28268,7.38576 -1.67776,9.05112 -3.09804,2.1632 -7.06632,6.08608 -10.816643,3.16052 2.840322,1.60192 1.262722,4.59268 -1.56468,5.2684 -5.79348,4.02824 -11.478884,8.34496 -17.461448,12.1556 C 11.925032,61.34676 11.677424,58.83888 9.39482,59.16524 9.42802,57.0466 7.921908,56.51992 6.429668,56.32936 6.050108,54.97788 5.144404,52.72108 3.569348,54.4524 1.890272,53.17044 -0.134324,50.23212 3.121808,49.49748 9.527956,44.95864 15.784572,40.20916 22.281804,35.79912 c 1.534164,0.80484 3.739236,5.00052 4.030108,4.09568 -2.475856,-2.3784 -3.285572,-6.73764 0.843508,-7.77088 3.400024,-1.60856 6.755106,-5.66968 9.963827,-6.033 1.6652,1.04096 2.7588,5.7114 3.72452,5.18316 -0.2484,-2.83948 -5.46992,-6.43472 -1.878,-8.59836 7.42756,-5.4882 15.29672,-10.35556 23.22328,-15.07924 l 0.60088,-0.2652 z m -16.048,32.9764 c 7.33188,4.47516 15.82704,7.10848 24.43088,7.2878 2.95896,3.62772 -4.24068,5.12244 -6.89324,5.56544 -9.07796,1.72076 -18.81696,-0.2268 -26.63288,-5.07956 0.0952,-2.88528 5.25168,-3.33004 6.8208,-5.91508 0.75888,-0.61864 1.51188,-1.24448 2.27444,-1.8586 z" fill="black" stroke="black" stroke-width="0.5" transform="translate(265.81860861815585,310.0) scale(0.8333333333333334)" /><path d="m 12.420856,61.7005 c -0.901752,-1.95184 -1.520106,-2.59004 -2.509542,-2.59004 -0.365876,0 -0.39353,-0.037 -0.533738,-0.71228 -0.19222,-0.92592 -0.840804,-1.60888 -1.797812,-1.89308 -0.36702,-0.109 -0.757776,-0.1982 -0.86834,-0.1982 -0.1321,0 -0.303468,-0.28568 -0.499872,-0.83334 -0.358934,-1.0008 -0.976662,-1.71534 -1.482938,-1.71534 -0.19372,0 -0.550036,0.1222 -0.791824,0.27168 l -0.4396,0.2717 -0.61976,-0.61044 c -0.727678,-0.71674 -1.398376,-1.9033 -1.398376,-2.47392 0,-0.80186 0.371614,-1.2 1.531726,-1.64108 0.1745,-0.0664 2.639484,-1.80054 5.477732,-3.85378 12.105662,-8.75746 13.688092,-9.85432 13.983802,-9.69278 0.355472,0.1942 1.06138,0.98676 2.240946,2.51616 0.938626,1.217 1.295252,1.57706 1.562068,1.57706 0.16176,0 -0.0126,-0.32846 -0.554546,-1.0446 -2.204708,-2.9133 -1.7517,-5.69618 1.104954,-6.78776 1.095332,-0.41854 2.42461,-1.28368 5.173694,-3.3672 2.315476,-1.7549 3.870317,-2.61038 4.762757,-2.6205 0.53806,-0.006 0.6015,0.031 1.04036,0.60804 0.25704,0.338 0.85698,1.37022 1.33322,2.2938 0.96186,1.86546 1.14344,2.12528 1.48518,2.12528 0.54976,0 0.1164,-1.19058 -1.15096,-3.16142 -1.63672,-2.54542 -1.955,-3.5232 -1.44932,-4.45228 0.32188,-0.59136 4.23894,-3.42046 9.84424,-7.11004 5.27242,-3.47044 14.4363,-9.10636 14.80676,-9.10636 0.1042,0 0.25006,0.129 0.32408,0.28672 0.074,0.1578 0.57552,0.85238 1.1145,1.54372 1.89948,2.43646 2.44942,3.61534 2.31176,4.9554 -0.0832,0.81006 -0.0558,0.83294 0.64476,0.54018 1.94884,-0.81428 2.97162,-0.57646 2.97162,0.69098 0,0.27488 0.1192,0.4416 0.50902,0.71172 1.23736,0.8575 2.16708,2.28378 2.16708,3.32452 0,0.51574 -0.0626,0.65518 -0.48138,1.07408 -0.30412,0.30412 -0.7181,0.55168 -1.12416,0.67226 -0.37332,0.1108 -1.62728,0.82974 -2.99118,1.7148 -4.2357,2.7486 -19.17252,12.22338 -20.21678,12.824 -0.0972,0.0558 -0.87376,-0.63746 -2.08196,-1.8591 -1.18482,-1.198 -1.952,-1.8845 -1.99216,-1.78266 -0.08,0.20298 0.3841,0.91584 1.0952,1.68216 0.29266,0.3154 0.7448,1.00056 1.00474,1.5226 0.43504,0.87366 0.47262,1.03632 0.47262,2.04554 0,1.01058 -0.0374,1.17228 -0.47904,2.06568 -0.5417,1.0961 -1.39922,1.97108 -2.524,2.57548 -0.3809,0.20466 -1.2373,0.77474 -1.90316,1.26686 -3.18876,2.3567 -4.84414,3.16532 -6.507001,3.17856 -0.84492,0.006 -1.07256,-0.0456 -1.84778,-0.424 -1.208232,-0.58988 -1.212306,-0.59022 -0.580702,-0.0464 1.227322,1.05656 1.193242,2.48996 -0.08668,3.6439 -0.548778,0.49478 -1.415764,0.99314 -1.72773,0.99314 -0.10064,0 -2.325074,1.52716 -4.943136,3.3937 -8.074734,5.75688 -12.392204,8.7125 -12.726914,8.7125 -0.0779,0 -0.371548,-0.4975 -0.652472,-1.10556 z" fill="#ffff00" fill-rule="evenodd" stroke="#cbcbcb" stroke-width="0.0611682" transform="translate(265.81860861815585,310.0) scale(0.8333333333333334)" /><path d="m 22.489342,31.52582 c -0.64424,-0.73374 -1.395572,-2.34156 -1.757046,-3.75998 -0.432412,-1.69676 -0.8834,-5.1668 -0.882142,-6.78748 0.0042,-5.56444 2.985634,-10.93886 7.526286,-13.56762 1.005766,-0.58228 2.355818,-1.97466 4.135702,-4.2654 0.827626,-1.06518 1.543744,-1.93668 1.591384,-1.93668 0.1706,0 -0.1064,1.60026 -0.622596,3.59622 -0.598096,2.31274 -0.619242,3.40994 -0.09546,4.95432 0.18338,0.54074 0.362066,1.66158 0.466026,2.92328 0.1655,2.00848 0.43005,9.39754 0.43967,12.27946 l 0.006,1.4634 -1.13276,0.76812 c -0.62302,0.42246 -1.92204,1.3953 -2.886722,2.16188 -2.277544,1.80984 -3.762946,2.56562 -5.227054,2.65958 l -1.07041,0.0686 z" fill="#bfbfbf" fill-rule="evenodd" stroke="#cbcbcb" stroke-width="0.0701582" transform="translate(265.81860861815585,310.0) scale(0.8333333333333334)" /><path d="m 54.635847,53.58508 c -5.4849,-0.52902 -10.7308,-2.11586 -15.27404,-4.62028 -0.7235,-0.39882 -1.38848,-0.78378 -1.47772,-0.85548 -0.59134,-0.47502 0.83618,-2.0722 2.72012,-3.04342 1.85938,-0.95856 3.01272,-1.72266 3.55318,-2.35406 0.26648,-0.31134 0.96346,-0.95642 1.54882,-1.4335 l 1.0643,-0.86746 1.09542,0.64762 c 4.8739,2.88154 11.32624,5.16618 17.03906,6.03318 1.66192,0.25222 5.11384,0.59682 5.97832,0.59682 0.39332,0 0.85242,0.8396 0.85306,1.56004 0.002,1.97942 -3.89552,3.5343 -10.74242,4.28586 -1.21644,0.1336 -5.17222,0.165 -6.3581,0.0508 z" fill="#bfbfbf" fill-rule="evenodd" stroke="#cbcbcb" stroke-width="0.0701582" transform="translate(265.81860861815585,310.0) scale(0.8333333333333334)" /><g id="lica"><rect fill="url(#gradient-lica)" height="50" rx="4" ry="4" stroke="black" stroke-width="1.2" width="80" x="505.81860861815585" y="310.0" /><line stroke="#67818a" stroke-width="0.8" x1="507.81860861815585" x2="583.8186086181558" y1="326.6666666666667" y2="326.6666666666667" /><line stroke="#67818a" stroke-width="0.8" x1="507.81860861815585" x2="583.8186086181558" y1="343.3333333333333" y2="343.3333333333333" /><circle cx="573.8186086181558" cy="318.3333333333333" fill="#00cc44" r="2.5" stroke="#67818a" stroke-width="0.5" /><circle cx="565.8186086181558" cy="318.3333333333333" fill="#ffaa00" r="2.5" stroke="#67818a" stroke-width="0.5" /><circle cx="573.8186086181558" cy="335.0" fill="#00cc44" r="2.5" stroke="#67818a" stroke-width="0.5" /><circle cx="565.8186086181558" cy="335.0" fill="#ffaa00" r="2.5" stroke="#67818a" stroke-width="0.5" /><circle cx="573.8186086181558" cy="351.66666666666663" fill="#00cc44" r="2.5" stroke="#67818a" stroke-width="0.5" /><circle cx="565.8186086181558" cy="351.66666666666663" fill="#ffaa00" r="2.5" stroke="#67818a" stroke-width="0.5" /><line stroke="#67818a" stroke-width="0.6" x1="511.81860861815585" x2="523.8186086181558" y1="315.0" y2="315.0" /><line stroke="#67818a" stroke-width="0.6" x1="511.81860861815585" x2="523.8186086181558" y1="318.3333333333333" y2="318.3333333333333" /><line stroke="#67818a" stroke-width="0.6" x1="511.81860861815585" x2="523.8186086181558" y1="321.6666666666667" y2="321.6666666666667" /><line stroke="#67818a" stroke-width="0.6" x1="511.81860861815585" x2="523.8186086181558" y1="331.6666666666667" y2="331.6666666666667" /><line stroke="#67818a" stroke-width="0.6" x1="511.81860861815585" x2="523.8186086181558" y1="335.0" y2="335.0" /><line stroke="#67818a" stroke-width="0.6" x1="511.81860861815585" x2="523.8186086181558" y1="338.33333333333337" y2="338.33333333333337" /><line stroke="#67818a" stroke-width="0.6" x1="511.81860861815585" x2="523.8186086181558" y1="348.3333333333333" y2="348.3333333333333" /><line stroke="#67818a" stroke-width="0.6" x1="511.81860861815585" x2="523.8186086181558" y1="351.66666666666663" y2="351.66666666666663" /><line stroke="#67818a" stroke-width="0.6" x1="511.81860861815585" x2="523.8186086181558" y1="355.0" y2="355.0" /></g><g id="patricia"><rect fill="url(#gradient-patricia)" height="50" rx="4" ry="4" stroke="black" stroke-width="1.2" width="80" x="385.81860861815585" y="310.0" /><line stroke="#67818a" stroke-width="0.8" x1="387.81860861815585" x2="463.81860861815585" y1="326.6666666666667" y2="326.6666666666667" /><line stroke="#67818a" stroke-width="0.8" x1="387.81860861815585" x2="463.81860861815585" y1="343.3333333333333" y2="343.3333333333333" /><circle cx="453.81860861815585" cy="318.3333333333333" fill="#00cc44" r="2.5" stroke="#67818a" stroke-width="0.5" /><circle cx="445.81860861815585" cy="318.3333333333333" fill="#ffaa00" r="2.5" stroke="#67818a" stroke-width="0.5" /><circle cx="453.81860861815585" cy="335.0" fill="#00cc44" r="2.5" stroke="#67818a" stroke-width="0.5" /><circle cx="445.81860861815585" cy="335.0" fill="#ffaa00" r="2.5" stroke="#67818a" stroke-width="0.5" /><circle cx="453.81860861815585" cy="351.66666666666663" fill="#00cc44" r="2.5" stroke="#67818a" stroke-width="0.5" /><circle cx="445.81860861815585" cy="351.66666666666663" fill="#ffaa00" r="2.5" stroke="#67818a" stroke-width="0.5" /><line stroke="#67818a" stroke-width="0.6" x1="391.81860861815585" x2="403.81860861815585" y1="315.0" y2="315.0" /><line stroke="#67818a" stroke-width="0.6" x1="391.81860861815585" x2="403.81860861815585" y1="318.3333333333333" y2="318.3333333333333" /><line stroke="#67818a" stroke-width="0.6" x1="391.81860861815585" x2="403.81860861815585" y1="321.6666666666667" y2="321.6666666666667" /><line stroke="#67818a" stroke-width="0.6" x1="391.81860861815585" x2="403.81860861815585" y1="331.6666666666667" y2="331.6666666666667" /><line stroke="#67818a" stroke-width="0.6" x1="391.81860861815585" x2="403.81860861815585" y1="335.0" y2="335.0" /><line stroke="#67818a" stroke-width="0.6" x1="391.81860861815585" x2="403.81860861815585" y1="338.33333333333337" y2="338.33333333333337" /><line stroke="#67818a" stroke-width="0.6" x1="391.81860861815585" x2="403.81860861815585" y1="348.3333333333333" y2="348.3333333333333" /><line stroke="#67818a" stroke-width="0.6" x1="391.81860861815585" x2="403.81860861815585" y1="351.66666666666663" y2="351.66666666666663" /><line stroke="#67818a" stroke-width="0.6" x1="391.81860861815585" x2="403.81860861815585" y1="355.0" y2="355.0" /></g><g id="santiago"><rect fill="url(#gradient-santiago)" height="50" rx="4" ry="4" stroke="black" stroke-width="1.2" width="80" x="625.8186086181558" y="310.0" /><line stroke="#67818a" stroke-width="0.8" x1="627.8186086181558" x2="703.8186086181558" y1="326.6666666666667" y2="326.6666666666667" /><line stroke="#67818a" stroke-width="0.8" x1="627.8186086181558" x2="703.8186086181558" y1="343.3333333333333" y2="343.3333333333333" /><circle cx="693.8186086181558" cy="318.3333333333333" fill="#00cc44" r="2.5" stroke="#67818a" stroke-width="0.5" /><circle cx="685.8186086181558" cy="318.3333333333333" fill="#ffaa00" r="2.5" stroke="#67818a" stroke-width="0.5" /><circle cx="693.8186086181558" cy="335.0" fill="#00cc44" r="2.5" stroke="#67818a" stroke-width="0.5" /><circle cx="685.8186086181558" cy="335.0" fill="#ffaa00" r="2.5" stroke="#67818a" stroke-width="0.5" /><circle cx="693.8186086181558" cy="351.66666666666663" fill="#00cc44" r="2.5" stroke="#67818a" stroke-width="0.5" /><circle cx="685.8186086181558" cy="351.66666666666663" fill="#ffaa00" r="2.5" stroke="#67818a" stroke-width="0.5" /><line stroke="#67818a" stroke-width="0.6" x1="631.8186086181558" x2="643.8186086181558" y1="315.0" y2="315.0" /><line stroke="#67818a" stroke-width="0.6" x1="631.8186086181558" x2="643.8186086181558" y1="318.3333333333333" y2="318.3333333333333" /><line stroke="#67818a" stroke-width="0.6" x1="631.8186086181558" x2="643.8186086181558" y1="321.6666666666667" y2="321.6666666666667" /><line stroke="#67818a" stroke-width="0.6" x1="631.8186086181558" x2="643.8186086181558" y1="331.6666666666667" y2="331.6666666666667" /><line stroke="#67818a" stroke-width="0.6" x1="631.8186086181558" x2="643.8186086181558" y1="335.0" y2="335.0" /><line stroke="#67818a" stroke-width="0.6" x1="631.8186086181558" x2="643.8186086181558" y1="338.33333333333337" y2="338.33333333333337" /><line stroke="#67818a" stroke-width="0.6" x1="631.8186086181558" x2="643.8186086181558" y1="348.3333333333333" y2="348.3333333333333" /><line stroke="#67818a" stroke-width="0.6" x1="631.8186086181558" x2="643.8186086181558" y1="351.66666666666663" y2="351.66666666666663" /><line stroke="#67818a" stroke-width="0.6" x1="631.8186086181558" x2="643.8186086181558" y1="355.0" y2="355.0" /></g><g id="jose"><rect fill="url(#gradient-jose)" height="50" rx="4" ry="4" stroke="black" stroke-width="1.2" width="80" x="745.8186086181558" y="310.0" /><line stroke="#67818a" stroke-width="0.8" x1="747.8186086181558" x2="823.8186086181558" y1="326.6666666666667" y2="326.6666666666667" /><line stroke="#67818a" stroke-width="0.8" x1="747.8186086181558" x2="823.8186086181558" y1="343.3333333333333" y2="343.3333333333333" /><circle cx="813.8186086181558" cy="318.3333333333333" fill="#00cc44" r="2.5" stroke="#67818a" stroke-width="0.5" /><circle cx="805.8186086181558" cy="318.3333333333333" fill="#ffaa00" r="2.5" stroke="#67818a" stroke-width="0.5" /><circle cx="813.8186086181558" cy="335.0" fill="#00cc44" r="2.5" stroke="#67818a" stroke-width="0.5" /><circle cx="805.8186086181558" cy="335.0" fill="#ffaa00" r="2.5" stroke="#67818a" stroke-width="0.5" /><circle cx="813.8186086181558" cy="351.66666666666663" fill="#00cc44" r="2.5" stroke="#67818a" stroke-width="0.5" /><circle cx="805.8186086181558" cy="351.66666666666663" fill="#ffaa00" r="2.5" stroke="#67818a" stroke-width="0.5" /><line stroke="#67818a" stroke-width="0.6" x1="751.8186086181558" x2="763.8186086181558" y1="315.0" y2="315.0" /><line stroke="#67818a" stroke-width="0.6" x1="751.8186086181558" x2="763.8186086181558" y1="318.3333333333333" y2="318.3333333333333" /><line stroke="#67818a" stroke-width="0.6" x1="751.8186086181558" x2="763.8186086181558" y1="321.6666666666667" y2="321.6666666666667" /><line stroke="#67818a" stroke-width="0.6" x1="751.8186086181558" x2="763.8186086181558" y1="331.6666666666667" y2="331.6666666666667" /><line stroke="#67818a" stroke-width="0.6" x1="751.8186086181558" x2="763.8186086181558" y1="335.0" y2="335.0" /><line stroke="#67818a" stroke-width="0.6" x1="751.8186086181558" x2="763.8186086181558" y1="338.33333333333337" y2="338.33333333333337" /><line stroke="#67818a" stroke-width="0.6" x1="751.8186086181558" x2="763.8186086181558" y1="348.3333333333333" y2="348.3333333333333" /><line stroke="#67818a" stroke-width="0.6" x1="751.8186086181558" x2="763.8186086181558" y1="351.66666666666663" y2="351.66666666666663" /><line stroke="#67818a" stroke-width="0.6" x1="751.8186086181558" x2="763.8186086181558" y1="355.0" y2="355.0" /></g><g id="sebastian"><rect fill="url(#gradient-sebastian)" height="50" rx="4" ry="4" stroke="black" stroke-width="1.2" width="80" x="100.0" y="600.0" /><line stroke="#568e56" stroke-width="0.8" x1="102.0" x2="178.0" y1="616.6666666666666" y2="616.6666666666666" /><line stroke="#568e56" stroke-width="0.8" x1="102.0" x2="178.0" y1="633.3333333333334" y2="633.3333333333334" /><circle cx="168.0" cy="608.3333333333334" fill="#00cc44" r="2.5" stroke="#568e56" stroke-width="0.5" /><circle cx="160.0" cy="608.3333333333334" fill="#ffaa00" r="2.5" stroke="#568e56" stroke-width="0.5" /><circle cx="168.0" cy="625.0" fill="#00cc44" r="2.5" stroke="#568e56" stroke-width="0.5" /><circle cx="160.0" cy="625.0" fill="#ffaa00" r="2.5" stroke="#568e56" stroke-width="0.5" /><circle cx="168.0" cy="641.6666666666667" fill="#00cc44" r="2.5" stroke="#568e56" stroke-width="0.5" /><circle cx="160.0" cy="641.6666666666667" fill="#ffaa00" r="2.5" stroke="#568e56" stroke-width="0.5" /><line stroke="#568e56" stroke-width="0.6" x1="106.0" x2="118.0" y1="605.0" y2="605.0" /><line stroke="#568e56" stroke-width="0.6" x1="106.0" x2="118.0" y1="608.3333333333334" y2="608.3333333333334" /><line stroke="#568e56" stroke-width="0.6" x1="106.0" x2="118.0" y1="611.6666666666666" y2="611.6666666666666" /><line stroke="#568e56" stroke-width="0.6" x1="106.0" x2="118.0" y1="621.6666666666666" y2="621.6666666666666" /><line stroke="#568e56" stroke-width="0.6" x1="106.0" x2="118.0" y1="625.0" y2="625.0" /><line stroke="#568e56" stroke-width="0.6" x1="106.0" x2="118.0" y1="628.3333333333333" y2="628.3333333333333" /><line stroke="#568e56" stroke-width="0.6" x1="106.0" x2="118.0" y1="638.3333333333334" y2="638.3333333333334" /><line stroke="#568e56" stroke-width="0.6" x1="106.0" x2="118.0" y1="641.6666666666667" y2="641.6666666666667" /><line stroke="#568e56" stroke-width="0.6" x1="106.0" x2="118.0" y1="645.0" y2="645.0" /></g><g id="mateo"><rect fill="url(#gradient-mateo)" height="50" rx="4" ry="4" stroke="black" stroke-width="1.2" width="80" x="340.0" y="600.0" /><line stroke="#568e56" stroke-width="0.8" x1="342.0" x2="418.0" y1="616.6666666666666" y2="616.6666666666666" /><line stroke="#568e56" stroke-width="0.8" x1="342.0" x2="418.0" y1="633.3333333333334" y2="633.3333333333334" /><circle cx="408.0" cy="608.3333333333334" fill="#00cc44" r="2.5" stroke="#568e56" stroke-width="0.5" /><circle cx="400.0" cy="608.3333333333334" fill="#ffaa00" r="2.5" stroke="#568e56" stroke-width="0.5" /><circle cx="408.0" cy="625.0" fill="#00cc44" r="2.5" stroke="#568e56" stroke-width="0.5" /><circle cx="400.0" cy="625.0" fill="#ffaa00" r="2.5" stroke="#568e56" stroke-width="0.5" /><circle cx="408.0" cy="641.6666666666667" fill="#00cc44" r="2.5" stroke="#568e56" stroke-width="0.5" /><circle cx="400.0" cy="641.6666666666667" fill="#ffaa00" r="2.5" stroke="#568e56" stroke-width="0.5" /><line stroke="#568e56" stroke-width="0.6" x1="346.0" x2="358.0" y1="605.0" y2="605.0" /><line stroke="#568e56" stroke-width="0.6" x1="346.0" x2="358.0" y1="608.3333333333334" y2="608.3333333333334" /><line stroke="#568e56" stroke-width="0.6" x1="346.0" x2="358.0" y1="611.6666666666666" y2="611.6666666666666" /><line stroke="#568e56" stroke-width="0.6" x1="346.0" x2="358.0" y1="621.6666666666666" y2="621.6666666666666" /><line stroke="#568e56" stroke-width="0.6" x1="346.0" x2="358.0" y1="625.0" y2="625.0" /><line stroke="#568e56" stroke-width="0.6" x1="346.0" x2="358.0" y1="628.3333333333333" y2="628.3333333333333" /><line stroke="#568e56" stroke-width="0.6" x1="346.0" x2="358.0" y1="638.3333333333334" y2="638.3333333333334" /><line stroke="#568e56" stroke-width="0.6" x1="346.0" x2="358.0" y1="641.6666666666667" y2="641.6666666666667" /><line stroke="#568e56" stroke-width="0.6" x1="346.0" x2="358.0" y1="645.0" y2="645.0" /></g><g id="pascual"><rect fill="url(#gradient-pascual)" height="50" rx="4" ry="4" stroke="black" stroke-width="1.2" width="80" x="460.0" y="600.0" /><line stroke="#568e56" stroke-width="0.8" x1="462.0" x2="538.0" y1="616.6666666666666" y2="616.6666666666666" /><line stroke="#568e56" stroke-width="0.8" x1="462.0" x2="538.0" y1="633.3333333333334" y2="633.3333333333334" /><circle cx="528.0" cy="608.3333333333334" fill="#00cc44" r="2.5" stroke="#568e56" stroke-width="0.5" /><circle cx="520.0" cy="608.3333333333334" fill="#ffaa00" r="2.5" stroke="#568e56" stroke-width="0.5" /><circle cx="528.0" cy="625.0" fill="#00cc44" r="2.5" stroke="#568e56" stroke-width="0.5" /><circle cx="520.0" cy="625.0" fill="#ffaa00" r="2.5" stroke="#568e56" stroke-width="0.5" /><circle cx="528.0" cy="641.6666666666667" fill="#00cc44" r="2.5" stroke="#568e56" stroke-width="0.5" /><circle cx="520.0" cy="641.6666666666667" fill="#ffaa00" r="2.5" stroke="#568e56" stroke-width="0.5" /><line stroke="#568e56" stroke-width="0.6" x1="466.0" x2="478.0" y1="605.0" y2="605.0" /><line stroke="#568e56" stroke-width="0.6" x1="466.0" x2="478.0" y1="608.3333333333334" y2="608.3333333333334" /><line stroke="#568e56" stroke-width="0.6" x1="466.0" x2="478.0" y1="611.6666666666666" y2="611.6666666666666" /><line stroke="#568e56" stroke-width="0.6" x1="466.0" x2="478.0" y1="621.6666666666666" y2="621.6666666666666" /><line stroke="#568e56" stroke-width="0.6" x1="466.0" x2="478.0" y1="625.0" y2="625.0" /><line stroke="#568e56" stroke-width="0.6" x1="466.0" x2="478.0" y1="628.3333333333333" y2="628.3333333333333" /><line stroke="#568e56" stroke-width="0.6" x1="466.0" x2="478.0" y1="638.3333333333334" y2="638.3333333333334" /><line stroke="#568e56" stroke-width="0.6" x1="466.0" x2="478.0" y1="641.6666666666667" y2="641.6666666666667" /><line stroke="#568e56" stroke-width="0.6" x1="466.0" x2="478.0" y1="645.0" y2="645.0" /></g><g id="diego"><rect fill="url(#gradient-diego)" height="50" rx="4" ry="4" stroke="black" stroke-width="1.2" width="80" x="220.0" y="600.0" /><line stroke="#568e56" stroke-width="0.8" x1="222.0" x2="298.0" y1="616.6666666666666" y2="616.6666666666666" /><line stroke="#568e56" stroke-width="0.8" x1="222.0" x2="298.0" y1="633.3333333333334" y2="633.3333333333334" /><circle cx="288.0" cy="608.3333333333334" fill="#00cc44" r="2.5" stroke="#568e56" stroke-width="0.5" /><circle cx="280.0" cy="608.3333333333334" fill="#ffaa00" r="2.5" stroke="#568e56" stroke-width="0.5" /><circle cx="288.0" cy="625.0" fill="#00cc44" r="2.5" stroke="#568e56" stroke-width="0.5" /><circle cx="280.0" cy="625.0" fill="#ffaa00" r="2.5" stroke="#568e56" stroke-width="0.5" /><circle cx="288.0" cy="641.6666666666667" fill="#00cc44" r="2.5" stroke="#568e56" stroke-width="0.5" /><circle cx="280.0" cy="641.6666666666667" fill="#ffaa00" r="2.5" stroke="#568e56" stroke-width="0.5" /><line stroke="#568e56" stroke-width="0.6" x1="226.0" x2="238.0" y1="605.0" y2="605.0" /><line stroke="#568e56" stroke-width="0.6" x1="226.0" x2="238.0" y1="608.3333333333334" y2="608.3333333333334" /><line stroke="#568e56" stroke-width="0.6" x1="226.0" x2="238.0" y1="611.6666666666666" y2="611.6666666666666" /><line stroke="#568e56" stroke-width="0.6" x1="226.0" x2="238.0" y1="621.6666666666666" y2="621.6666666666666" /><line stroke="#568e56" stroke-width="0.6" x1="226.0" x2="238.0" y1="625.0" y2="625.0" /><line stroke="#568e56" stroke-width="0.6" x1="226.0" x2="238.0" y1="628.3333333333333" y2="628.3333333333333" /><line stroke="#568e56" stroke-width="0.6" x1="226.0" x2="238.0" y1="638.3333333333334" y2="638.3333333333334" /><line stroke="#568e56" stroke-width="0.6" x1="226.0" x2="238.0" y1="641.6666666666667" y2="641.6666666666667" /><line stroke="#568e56" stroke-width="0.6" x1="226.0" x2="238.0" y1="645.0" y2="645.0" /></g><g id="jose_antonio"><rect fill="url(#gradient-jose_antonio)" height="50" rx="4" ry="4" stroke="black" stroke-width="1.2" width="80" x="580.0" y="600.0" /><line stroke="#568e56" stroke-width="0.8" x1="582.0" x2="658.0" y1="616.6666666666666" y2="616.6666666666666" /><line stroke="#568e56" stroke-width="0.8" x1="582.0" x2="658.0" y1="633.3333333333334" y2="633.3333333333334" /><circle cx="648.0" cy="608.3333333333334" fill="#00cc44" r="2.5" stroke="#568e56" stroke-width="0.5" /><circle cx="640.0" cy="608.3333333333334" fill="#ffaa00" r="2.5" stroke="#568e56" stroke-width="0.5" /><circle cx="648.0" cy="625.0" fill="#00cc44" r="2.5" stroke="#568e56" stroke-width="0.5" /><circle cx="640.0" cy="625.0" fill="#ffaa00" r="2.5" stroke="#568e56" stroke-width="0.5" /><circle cx="648.0" cy="641.6666666666667" fill="#00cc44" r="2.5" stroke="#568e56" stroke-width="0.5" /><circle cx="640.0" cy="641.6666666666667" fill="#ffaa00" r="2.5" stroke="#568e56" stroke-width="0.5" /><line stroke="#568e56" stroke-width="0.6" x1="586.0" x2="598.0" y1="605.0" y2="605.0" /><line stroke="#568e56" stroke-width="0.6" x1="586.0" x2="598.0" y1="608.3333333333334" y2="608.3333333333334" /><line stroke="#568e56" stroke-width="0.6" x1="586.0" x2="598.0" y1="611.6666666666666" y2="611.6666666666666" /><line stroke="#568e56" stroke-width="0.6" x1="586.0" x2="598.0" y1="621.6666666666666" y2="621.6666666666666" /><line stroke="#568e56" stroke-width="0.6" x1="586.0" x2="598.0" y1="625.0" y2="625.0" /><line stroke="#568e56" stroke-width="0.6" x1="586.0" x2="598.0" y1="628.3333333333333" y2="628.3333333333333" /><line stroke="#568e56" stroke-width="0.6" x1="586.0" x2="598.0" y1="638.3333333333334" y2="638.3333333333334" /><line stroke="#568e56" stroke-width="0.6" x1="586.0" x2="598.0" y1="641.6666666666667" y2="641.6666666666667" /><line stroke="#568e56" stroke-width="0.6" x1="586.0" x2="598.0" y1="645.0" y2="645.0" /></g><g id="patricia_hija_santiago"><rect fill="url(#gradient-patricia_hija_santiago)" height="50" rx="4" ry="4" stroke="black" stroke-width="1.2" width="80" x="700.0" y="600.0" /><line stroke="#568e56" stroke-width="0.8" x1="702.0" x2="778.0" y1="616.6666666666666" y2="616.6666666666666" /><line stroke="#568e56" stroke-width="0.8" x1="702.0" x2="778.0" y1="633.3333333333334" y2="633.3333333333334" /><circle cx="768.0" cy="608.3333333333334" fill="#00cc44" r="2.5" stroke="#568e56" stroke-width="0.5" /><circle cx="760.0" cy="608.3333333333334" fill="#ffaa00" r="2.5" stroke="#568e56" stroke-width="0.5" /><circle cx="768.0" cy="625.0" fill="#00cc44" r="2.5" stroke="#568e56" stroke-width="0.5" /><circle cx="760.0" cy="625.0" fill="#ffaa00" r="2.5" stroke="#568e56" stroke-width="0.5" /><circle cx="768.0" cy="641.6666666666667" fill="#00cc44" r="2.5" stroke="#568e56" stroke-width="0.5" /><circle cx="760.0" cy="641.6666666666667" fill="#ffaa00" r="2.5" stroke="#568e56" stroke-width="0.5" /><line stroke="#568e56" stroke-width="0.6" x1="706.0" x2="718.0" y1="605.0" y2="605.0" /><line stroke="#568e56" stroke-width="0.6" x1="706.0" x2="718.0" y1="608.3333333333334" y2="608.3333333333334" /><line stroke="#568e56" stroke-width="0.6" x1="706.0" x2="718.0" y1="611.6666666666666" y2="611.6666666666666" /><line stroke="#568e56" stroke-width="0.6" x1="706.0" x2="718.0" y1="621.6666666666666" y2="621.6666666666666" /><line stroke="#568e56" stroke-width="0.6" x1="706.0" x2="718.0" y1="625.0" y2="625.0" /><line stroke="#568e56" stroke-width="0.6" x1="706.0" x2="718.0" y1="628.3333333333333" y2="628.3333333333333" /><line stroke="#568e56" stroke-width="0.6" x1="706.0" x2="718.0" y1="638.3333333333334" y2="638.3333333333334" /><line stroke="#568e56" stroke-width="0.6" x1="706.0" x2="718.0" y1="641.6666666666667" y2="641.6666666666667" /><line stroke="#568e56" stroke-width="0.6" x1="706.0" x2="718.0" y1="645.0" y2="645.0" /></g><g id="santiagoito"><rect fill="url(#gradient-santiagoito)" height="50" rx="4" ry="4" stroke="black" stroke-width="1.2" width="80" x="820.0" y="600.0" /><line stroke="#568e56" stroke-width="0.8" x1="822.0" x2="898.0" y1="616.6666666666666" y2="616.6666666666666" /><line stroke="#568e56" stroke-width="0.8" x1="822.0" x2="898.0" y1="633.3333333333334" y2="633.3333333333334" /><circle cx="888.0" cy="608.3333333333334" fill="#00cc44" r="2.5" stroke="#568e56" stroke-width="0.5" /><circle cx="880.0" cy="608.3333333333334" fill="#ffaa00" r="2.5" stroke="#568e56" stroke-width="0.5" /><circle cx="888.0" cy="625.0" fill="#00cc44" r="2.5" stroke="#568e56" stroke-width="0.5" /><circle cx="880.0" cy="625.0" fill="#ffaa00" r="2.5" stroke="#568e56" stroke-width="0.5" /><circle cx="888.0" cy="641.6666666666667" fill="#00cc44" r="2.5" stroke="#568e56" stroke-width="0.5" /><circle cx="880.0" cy="641.6666666666667" fill="#ffaa00" r="2.5" stroke="#568e56" stroke-width="0.5" /><line stroke="#568e56" stroke-width="0.6" x1="826.0" x2="838.0" y1="605.0" y2="605.0" /><line stroke="#568e56" stroke-width="0.6" x1="826.0" x2="838.0" y1="608.3333333333334" y2="608.3333333333334" /><line stroke="#568e56" stroke-width="0.6" x1="826.0" x2="838.0" y1="611.6666666666666" y2="611.6666666666666" /><line stroke="#568e56" stroke-width="0.6" x1="826.0" x2="838.0" y1="621.6666666666666" y2="621.6666666666666" /><line stroke="#568e56" stroke-width="0.6" x1="826.0" x2="838.0" y1="625.0" y2="625.0" /><line stroke="#568e56" stroke-width="0.6" x1="826.0" x2="838.0" y1="628.3333333333333" y2="628.3333333333333" /><line stroke="#568e56" stroke-width="0.6" x1="826.0" x2="838.0" y1="638.3333333333334" y2="638.3333333333334" /><line stroke="#568e56" stroke-width="0.6" x1="826.0" x2="838.0" y1="641.6666666666667" y2="641.6666666666667" /><line stroke="#568e56" stroke-width="0.6" x1="826.0" x2="838.0" y1="645.0" y2="645.0" /></g><g id="gerardo"><rect fill="url(#gradient-gerardo)" height="50" rx="4" ry="4" stroke="black" stroke-width="1.2" width="80" x="940.0" y="600.0" /><line stroke="#568e56" stroke-width="0.8" x1="942.0" x2="1018.0" y1="616.6666666666666" y2="616.6666666666666" /><line stroke="#568e56" stroke-width="0.8" x1="942.0" x2="1018.0" y1="633.3333333333334" y2="633.3333333333334" /><circle cx="1008.0" cy="608.3333333333334" fill="#00cc44" r="2.5" stroke="#568e56" stroke-width="0.5" /><circle cx="1000.0" cy="608.3333333333334" fill="#ffaa00" r="2.5" stroke="#568e56" stroke-width="0.5" /><circle cx="1008.0" cy="625.0" fill="#00cc44" r="2.5" stroke="#568e56" stroke-width="0.5" /><circle cx="1000.0" cy="625.0" fill="#ffaa00" r="2.5" stroke="#568e56" stroke-width="0.5" /><circle cx="1008.0" cy="641.6666666666667" fill="#00cc44" r="2.5" stroke="#568e56" stroke-width="0.5" /><circle cx="1000.0" cy="641.6666666666667" fill="#ffaa00" r="2.5" stroke="#568e56" stroke-width="0.5" /><line stroke="#568e56" stroke-width="0.6" x1="946.0" x2="958.0" y1="605.0" y2="605.0" /><line stroke="#568e56" stroke-width="0.6" x1="946.0" x2="958.0" y1="608.3333333333334" y2="608.3333333333334" /><line stroke="#568e56" stroke-width="0.6" x1="946.0" x2="958.0" y1="611.6666666666666" y2="611.6666666666666" /><line stroke="#568e56" stroke-width="0.6" x1="946.0" x2="958.0" y1="621.6666666666666" y2="621.6666666666666" /><line stroke="#568e56" stroke-width="0.6" x1="946.0" x2="958.0" y1="625.0" y2="625.0" /><line stroke="#568e56" stroke-width="0.6" x1="946.0" x2="958.0" y1="628.3333333333333" y2="628.3333333333333" /><line stroke="#568e56" stroke-width="0.6" x1="946.0" x2="958.0" y1="638.3333333333334" y2="638.3333333333334" /><line stroke="#568e56" stroke-width="0.6" x1="946.0" x2="958.0" y1="641.6666666666667" y2="641.6666666666667" /><line stroke="#568e56" stroke-width="0.6" x1="946.0" x2="958.0" y1="645.0" y2="645.0" /></g><g id="dante"><rect fill="url(#gradient-dante)" height="50" rx="4" ry="4" stroke="black" stroke-width="1.2" width="80" x="1060.0" y="600.0" /><line stroke="#568e56" stroke-width="0.8" x1="1062.0" x2="1138.0" y1="616.6666666666666" y2="616.6666666666666" /><line stroke="#568e56" stroke-width="0.8" x1="1062.0" x2="1138.0" y1="633.3333333333334" y2="633.3333333333334" /><circle cx="1128.0" cy="608.3333333333334" fill="#00cc44" r="2.5" stroke="#568e56" stroke-width="0.5" /><circle cx="1120.0" cy="608.3333333333334" fill="#ffaa00" r="2.5" stroke="#568e56" stroke-width="0.5" /><circle cx="1128.0" cy="625.0" fill="#00cc44" r="2.5" stroke="#568e56" stroke-width="0.5" /><circle cx="1120.0" cy="625.0" fill="#ffaa00" r="2.5" stroke="#568e56" stroke-width="0.5" /><circle cx="1128.0" cy="641.6666666666667" fill="#00cc44" r="2.5" stroke="#568e56" stroke-width="0.5" /><circle cx="1120.0" cy="641.6666666666667" fill="#ffaa00" r="2.5" stroke="#568e56" stroke-width="0.5" /><line stroke="#568e56" stroke-width="0.6" x1="1066.0" x2="1078.0" y1="605.0" y2="605.0" /><line stroke="#568e56" stroke-width="0.6" x1="1066.0" x2="1078.0" y1="608.3333333333334" y2="608.3333333333334" /><line stroke="#568e56" stroke-width="0.6" x1="1066.0" x2="1078.0" y1="611.6666666666666" y2="611.6666666666666" /><line stroke="#568e56" stroke-width="0.6" x1="1066.0" x2="1078.0" y1="621.6666666666666" y2="621.6666666666666" /><line stroke="#568e56" stroke-width="0.6" x1="1066.0" x2="1078.0" y1="625.0" y2="625.0" /><line stroke="#568e56" stroke-width="0.6" x1="1066.0" x2="1078.0" y1="628.3333333333333" y2="628.3333333333333" /><line stroke="#568e56" stroke-width="0.6" x1="1066.0" x2="1078.0" y1="638.3333333333334" y2="638.3333333333334" /><line stroke="#568e56" stroke-width="0.6" x1="1066.0" x2="1078.0" y1="641.6666666666667" y2="641.6666666666667" /><line stroke="#568e56" stroke-width="0.6" x1="1066.0" x2="1078.0" y1="645.0" y2="645.0" /></g><line marker-end="url(#arrow-end)" marker-start="url(#circle-start)" stroke="black" stroke-width="2" x1="468.9429970412537" x2="322.6942201950563" y1="72.18848531833989" y2="307.8115146816601" /><line marker-end="url(#arrow-end)" marker-start="url(#circle-start)" stroke="black" stroke-width="2" x1="582.8109805845826" x2="328.82623665172736" y1="67.24070709911926" y2="312.7592929008807" /><line marker-end="url(#arrow-end)" marker-start="url(#circle-start)" stroke="black" stroke-width="2" x1="492.3019879473048" x2="539.3352292890052" y1="76.33633342422725" y2="303.66366657577277" /><line marker-end="url(#arrow-end)" marker-start="url(#circle-start)" stroke="black" stroke-width="2" x1="599.3352292890038" x2="552.3019879473062" y1="76.33633342422732" y2="303.66366657577265" /><line marker-end="url(#arrow-end)" marker-start="url(#circle-start)" stroke="black" stroke-width="2" x1="479.33522928900385" x2="432.30198794730615" y1="76.33633342422732" y2="303.66366657577265" /><line marker-end="url(#arrow-end)" marker-start="url(#circle-start)" stroke="black" stroke-width="2" x1="588.9429970412536" x2="442.6942201950563" y1="72.18848531833989" y2="307.8115146816601" /><line marker-end="url(#arrow-end)" marker-start="url(#circle-start)" stroke="black" stroke-width="2" x1="502.6942201950548" x2="648.9429970412551" y1="72.18848531833973" y2="307.81151468166024" /><line marker-end="url(#arrow-end)" marker-start="url(#circle-start)" stroke="black" stroke-width="2" x1="612.3019879473048" x2="659.3352292890052" y1="76.33633342422725" y2="303.66366657577277" /><line marker-end="url(#arrow-end)" marker-start="url(#circle-start)" stroke="black" stroke-width="2" x1="508.82623665172576" x2="762.8109805845842" y1="67.24070709911913" y2="312.7592929008809" /><line marker-end="url(#arrow-end)" marker-start="url(#circle-start)" stroke="black" stroke-width="2" x1="622.6942201950549" x2="768.9429970412551" y1="72.18848531833973" y2="307.81151468166024" /><line marker-end="url(#arrow-end)" marker-start="url(#circle-start)" stroke="black" stroke-width="2" x1="289.9346298195266" x2="155.88397879862924" y1="362.7794747524984" y2="597.2205252475015" /><line marker-end="url(#arrow-end)" marker-start="url(#circle-start)" stroke="black" stroke-width="2" x1="529.9346298195267" x2="395.88397879862924" y1="362.7794747524984" y2="597.2205252475015" /><line marker-end="url(#arrow-end)" marker-start="url(#circle-start)" stroke="black" stroke-width="2" x1="540.8247080334834" x2="504.99390058467253" y1="366.60792554013005" y2="593.39207445987" /><line marker-end="url(#arrow-end)" marker-start="url(#circle-start)" stroke="black" stroke-width="2" x1="409.9346298195266" x2="275.88397879862924" y1="362.7794747524984" y2="597.2205252475015" /><line marker-end="url(#arrow-end)" marker-start="url(#circle-start)" stroke="black" stroke-width="2" x1="660.8247080334834" x2="624.9939005846725" y1="366.60792554013005" y2="593.39207445987" /><line marker-end="url(#arrow-end)" marker-start="url(#circle-start)" stroke="black" stroke-width="2" x1="673.748805536481" x2="732.0698030816749" y1="366.0018060254009" y2="593.9981939745991" /><line marker-end="url(#arrow-end)" marker-start="url(#circle-start)" stroke="black" stroke-width="2" x1="683.6228105094444" x2="842.1957981087114" y1="361.5896670722715" y2="598.4103329277285" /><line marker-end="url(#arrow-end)" marker-start="url(#circle-start)" stroke="black" stroke-width="2" x1="803.6228105094444" x2="962.1957981087114" y1="361.5896670722715" y2="598.4103329277285" /><line marker-end="url(#arrow-end)" marker-start="url(#circle-start)" stroke="black" stroke-width="2" x1="809.3328258481854" x2="1076.4857827699705" y1="356.7044140224743" y2="603.2955859775257" /><text fill="black" filter="url(#text-glow)" font-family="Arial, sans-serif" font-size="14px" text-anchor="end" x="433.2186086181541" y="45.0">José Heráclides</text><text fill="black" filter="url(#text-glow)" font-family="Arial, sans-serif" font-size="14px" text-anchor="start" x="658.4186086181542" y="45.0">Daría</text><text fill="black" filter="url(#text-glow)" font-family="Arial, sans-serif" font-size="14px" text-anchor="end" x="253.21860861815586" y="335.0">Silvia</text><text fill="black" filter="url(#text-glow)" font-family="Arial, sans-serif" font-size="14px" text-anchor="start" x="598.4186086181559" y="381.0">Lica</text><text fill="black" filter="url(#text-glow)" font-family="Arial, sans-serif" font-size="14px" text-anchor="end" x="373.2186086181558" y="381.0">Patricia</text><text fill="black" filter="url(#text-glow)" font-family="Arial, sans-serif" font-size="14px" text-anchor="start" x="718.4186086181559" y="381.0">Santiago</text><text fill="black" filter="url(#text-glow)" font-family="Arial, sans-serif" font-size="14px" text-anchor="start" x="838.4186086181559" y="335.0">José</text><text fill="black" filter="url(#text-glow)" font-family="Arial, sans-serif" font-size="14px" text-anchor="middle" x="140.0" y="671.0">Sebastián</text><text fill="black" filter="url(#text-glow)" font-family="Arial, sans-serif" font-size="14px" text-anchor="middle" x="380.0" y="671.0">Mateo</text><text fill="black" filter="url(#text-glow)" font-family="Arial, sans-serif" font-size="14px" text-anchor="middle" x="500.0" y="671.0">Pascual</text><text fill="black" filter="url(#text-glow)" font-family="Arial, sans-serif" font-size="14px" text-anchor="middle" x="260.0" y="671.0">Diego</text><text fill="black" filter="url(#text-glow)" font-family="Arial, sans-serif" font-size="14px" text-anchor="middle" x="620.0" y="671.0">José Antonio</text><text fill="black" filter="url(#text-glow)" font-family="Arial, sans-serif" font-size="14px" text-anchor="start" x="792.6" y="671.0">Patricia</text><text fill="black" filter="url(#text-glow)" font-family="Arial, sans-serif" font-size="14px" text-anchor="start" x="792.6" y="689.0">(hija de Santiago)</text><text fill="black" filter="url(#text-glow)" font-family="Arial, sans-serif" font-size="14px" text-anchor="start" x="912.6" y="671.0">Santiagoito</text><text fill="black" filter="url(#text-glow)" font-family="Arial, sans-serif" font-size="14px" text-anchor="start" x="1032.6" y="671.0">Gerardo</text><text fill="black" filter="url(#text-glow)" font-family="Arial, sans-serif" font-size="14px" text-anchor="start" x="1152.6" y="671.0">Dante</text></svg>