<?xml version="1.0" encoding="utf-8" ?>
<svg xmlns="http://www.w3.org/2000/svg" baseProfile="full" height="1022.5" version="1.1" viewBox="60,0,1223.7,1022.5" width="1223.7"><defs><filter height="140%" id="text-glow" width="140%" x="-20%" y="-20%"><feMerge><feMergeNode in="SourceGraphic" /></feMerge></filter><marker id="arrow-end" markerHeight="10" markerWidth="10" orient="auto" refX="10" refY="5"><path d="M 0 0 L 10 5 L 0 10 z" fill="black" /></marker><marker id="arrow-start" markerHeight="10" markerWidth="10" orient="auto" refX="0" refY="5"><path d="M 10 0 L 0 5 L 10 10 z" fill="black" /></marker><marker id="circle-start" markerHeight="2.4" markerUnits="userSpaceOnUse" markerWidth="2.4" orient="auto" refX="1.2" refY="1.2"><circle cx="1.2" cy="1.2" fill="black" r="1.2" /></marker><marker id="circle-end" markerHeight="2.4" markerUnits="userSpaceOnUse" markerWidth="2.4" orient="auto" refX="1.2" refY="1.2"><circle cx="1.2" cy="1.2" fill="black" r="1.2" /></marker><linearGradient id="gradient-jose_heraclides" x1="0%" x2="0%" y1="0%" y2="100%"><stop offset="0%" stop-color="#ffe34c" /><stop offset="100%" stop-color="#b29600" /></linearGradient><linearGradient id="gradient-daria" x1="0%" x2="0%" y1="0%" y2="100%"><stop offset="0%" stop-color="#ffe34c" /><stop offset="100%" stop-color="#b29600" /></linearGradient><linearGradient id="gradient-silvia" x1="0%" x2="0%" y1="0%" y2="100%"><stop offset="0%" stop-color="#c5e3ed" /><stop offset="100%" stop-color="#7997a1" /></linearGradient><linearGradient id="gradient-lica" x1="0%" x2="0%" y1="0%" y2="100%"><stop offset="0%" stop-color="#c5e3ed" /><stop offset="100%" stop-color="#7997a1" /></linearGradient><linearGradient id="gradient-patricia" x1="0%" x2="0%" y1="0%" y2="100%"><stop offset="0%" stop-color="#c5e3ed" /><stop offset="100%" stop-color="#7997a1" /></linearGradient><linearGradient id="gradient-santiago" x1="0%" x2="0%" y1="0%" y2="100%"><stop offset="0%" stop-color="#c5e3ed" /><stop offset="100%" stop-color="#7997a1" /></linearGradient><linearGradient id="gradient-jose" x1="0%" x2="0%" y1="0%" y2="100%"><stop offset="0%" stop-color="#c5e3ed" /><stop offset="100%" stop-color="#7997a1" /></linearGradient><linearGradient id="gradient-sebastian" x1="0%" x2="0%" y1="0%" y2="100%"><stop offset="0%" stop-color="#b1f3b1" /><stop offset="100%" stop-color="#64a664" /></linearGradient><linearGradient id="gradient-mateo" x1="0%" x2="0%" y1="0%" y2="100%"><stop offset="0%" stop-color="#b1f3b1" /><stop offset="100%" stop-color="#64a664" /></linearGradient><linearGradient id="gradient-pascual" x1="0%" x2="0%" y1="0%" y2="100%"><stop offset="0%" stop-color="#b1f3b1" /><stop offset="100%" stop-color="#64a664" /></linearGradient><linearGradient id="gradient-diego" x1="0%" x2="0%" y1="0%" y2="100%"><stop offset="0%" stop-color="#b1f3b1" /><stop offset="100%" stop-color="#64a664" /></linearGradient><linearGradient id="gradient-jose_antonio" x1="0%" x2="0%" y1="0%" y2="100%"><stop offset="0%" stop-color="#b1f3b1" /><stop offset="100%" stop-color="#64a664" /></linearGradient><linearGradient id="gradient-patricia_hija_santiago" x1="0%" x2="0%" y1="0%" y2="100%"><stop offset="0%" stop-color="#b1f3b1" /><stop offset="100%" stop-color="#64a664" /></linearGradient><linearGradient id="gradient-santiagoito" x1="0%" x2="0%" y1="0%" y2="100%"><stop offset="0%" stop-color="#b1f3b1" /><stop offset="100%" stop-color="#64a664" /></linearGradient><linearGradient id="gradient-gerardo" x1="0%" x2="0%" y1="0%" y2="100%"><stop offset="0%" stop-color="#b1f3b1" /><stop offset="100%" stop-color="#64a664" /></linearGradient><linearGradient id="gradient-dante" x1="0%" x2="0%" y1="0%" y2="100%"><stop offset="0%" stop-color="#b1f3b1" /><stop offset="100%" stop-color="#64a664" /></linearGradient></defs><g id="jose_heraclides"><rect fill="url(#gradient-jose_heraclides)" height="50" rx="4" ry="4" stroke="black" stroke-width="1.2" width="80" x="467.23938051194096" y="20.0" /><line stroke="#998100" stroke-width="0.8" x1="469.23938051194096" x2="545.2393805119409" y1="36.66666666666667" y2="36.66666666666667" /><line stroke="#998100" stroke-width="0.8" x1="469.23938051194096" x2="545.2393805119409" y1="53.333333333333336" y2="53.333333333333336" /><circle cx="535.2393805119409" cy="28.333333333333336" fill="#00cc44" r="2.5" stroke="#998100" stroke-width="0.5" /><circle cx="527.2393805119409" cy="28.333333333333336" fill="#ffaa00" r="2.5" stroke="#998100" stroke-width="0.5" /><circle cx="535.2393805119409" cy="45.00000000000001" fill="#00cc44" r="2.5" stroke="#998100" stroke-width="0.5" /><circle cx="527.2393805119409" cy="45.00000000000001" fill="#ffaa00" r="2.5" stroke="#998100" stroke-width="0.5" /><circle cx="535.2393805119409" cy="61.66666666666667" fill="#00cc44" r="2.5" stroke="#998100" stroke-width="0.5" /><circle cx="527.2393805119409" cy="61.66666666666667" fill="#ffaa00" r="2.5" stroke="#998100" stroke-width="0.5" /><line stroke="#998100" stroke-width="0.6" x1="473.23938051194096" x2="485.23938051194096" y1="25.0" y2="25.0" /><line stroke="#998100" stroke-width="0.6" x1="473.23938051194096" x2="485.23938051194096" y1="28.333333333333336" y2="28.333333333333336" /><line stroke="#998100" stroke-width="0.6" x1="473.23938051194096" x2="485.23938051194096" y1="31.666666666666668" y2="31.666666666666668" /><line stroke="#998100" stroke-width="0.6" x1="473.23938051194096" x2="485.23938051194096" y1="41.66666666666667" y2="41.66666666666667" /><line stroke="#998100" stroke-width="0.6" x1="473.23938051194096" x2="485.23938051194096" y1="45.00000000000001" y2="45.00000000000001" /><line stroke="#998100" stroke-width="0.6" x1="473.23938051194096" x2="485.23938051194096" y1="48.33333333333334" y2="48.33333333333334" /><line stroke="#998100" stroke-width="0.6" x1="473.23938051194096" x2="485.23938051194096" y1="58.333333333333336" y2="58.333333333333336" /><line stroke="#998100" stroke-width="0.6" x1="473.23938051194096" x2="485.23938051194096" y1="61.66666666666667" y2="61.66666666666667" /><line stroke="#998100" stroke-width="0.6" x1="473.23938051194096" x2="485.23938051194096" y1="65.0" y2="65.0" /></g><g id="daria"><rect fill="url(#gradient-daria)" height="50" rx="4" ry="4" stroke="black" stroke-width="1.2" width="80" x="599.2393805119409" y="20.0" /><line stroke="#998100" stroke-width="0.8" x1="601.2393805119409" x2="677.2393805119409" y1="36.66666666666667" y2="36.66666666666667" /><line stroke="#998100" stroke-width="0.8" x1="601.2393805119409" x2="677.2393805119409" y1="53.333333333333336" y2="53.333333333333336" /><circle cx="667.2393805119409" cy="28.333333333333336" fill="#00cc44" r="2.5" stroke="#998100" stroke-width="0.5" /><circle cx="659.2393805119409" cy="28.333333333333336" fill="#ffaa00" r="2.5" stroke="#998100" stroke-width="0.5" /><circle cx="667.2393805119409" cy="45.00000000000001" fill="#00cc44" r="2.5" stroke="#998100" stroke-width="0.5" /><circle cx="659.2393805119409" cy="45.00000000000001" fill="#ffaa00" r="2.5" stroke="#998100" stroke-width="0.5" /><circle cx="667.2393805119409" cy="61.66666666666667" fill="#00cc44" r="2.5" stroke="#998100" stroke-width="0.5" /><circle cx="659.2393805119409" cy="61.66666666666667" fill="#ffaa00" r="2.5" stroke="#998100" stroke-width="0.5" /><line stroke="#998100" stroke-width="0.6" x1="605.2393805119409" x2="617.2393805119409" y1="25.0" y2="25.0" /><line stroke="#998100" stroke-width="0.6" x1="605.2393805119409" x2="617.2393805119409" y1="28.333333333333336" y2="28.333333333333336" /><line stroke="#998100" stroke-width="0.6" x1="605.2393805119409" x2="617.2393805119409" y1="31.666666666666668" y2="31.666666666666668" /><line stroke="#998100" stroke-width="0.6" x1="605.2393805119409" x2="617.2393805119409" y1="41.66666666666667" y2="41.66666666666667" /><line stroke="#998100" stroke-width="0.6" x1="605.2393805119409" x2="617.2393805119409" y1="45.00000000000001" y2="45.00000000000001" /><line stroke="#998100" stroke-width="0.6" x1="605.2393805119409" x2="617.2393805119409" y1="48.33333333333334" y2="48.33333333333334" /><line stroke="#998100" stroke-width="0.6" x1="605.2393805119409" x2="617.2393805119409" y1="58.333333333333336" y2="58.333333333333336" /><line stroke="#998100" stroke-width="0.6" x1="605.2393805119409" x2="617.2393805119409" y1="61.66666666666667" y2="61.66666666666667" /><line stroke="#998100" stroke-width="0.6" x1="605.2393805119409" x2="617.2393805119409" y1="65.0" y2="65.0" /></g><g id="silvia"><rect fill="url(#gradient-silvia)" height="50" rx="4" ry="4" stroke="black" stroke-width="1.2" width="80" x="270.6641172212471" y="600.0" /><line stroke="#67818a" stroke-width="0.8" x1="272.6641172212471" x2="348.6641172212471" y1="616.6666666666666" y2="616.6666666666666" /><line stroke="#67818a" stroke-width="0.8" x1="272.6641172212471" x2="348.6641172212471" y1="633.3333333333334" y2="633.3333333333334" /><circle cx="338.6641172212471" cy="608.3333333333334" fill="#00cc44" r="2.5" stroke="#67818a" stroke-width="0.5" /><circle cx="330.6641172212471" cy="608.3333333333334" fill="#ffaa00" r="2.5" stroke="#67818a" stroke-width="0.5" /><circle cx="338.6641172212471" cy="625.0" fill="#00cc44" r="2.5" stroke="#67818a" stroke-width="0.5" /><circle cx="330.6641172212471" cy="625.0" fill="#ffaa00" r="2.5" stroke="#67818a" stroke-width="0.5" /><circle cx="338.6641172212471" cy="641.6666666666667" fill="#00cc44" r="2.5" stroke="#67818a" stroke-width="0.5" /><circle cx="330.6641172212471" cy="641.6666666666667" fill="#ffaa00" r="2.5" stroke="#67818a" stroke-width="0.5" /><line stroke="#67818a" stroke-width="0.6" x1="276.6641172212471" x2="288.6641172212471" y1="605.0" y2="605.0" /><line stroke="#67818a" stroke-width="0.6" x1="276.6641172212471" x2="288.6641172212471" y1="608.3333333333334" y2="608.3333333333334" /><line stroke="#67818a" stroke-width="0.6" x1="276.6641172212471" x2="288.6641172212471" y1="611.6666666666666" y2="611.6666666666666" /><line stroke="#67818a" stroke-width="0.6" x1="276.6641172212471" x2="288.6641172212471" y1="621.6666666666666" y2="621.6666666666666" /><line stroke="#67818a" stroke-width="0.6" x1="276.6641172212471" x2="288.6641172212471" y1="625.0" y2="625.0" /><line stroke="#67818a" stroke-width="0.6" x1="276.6641172212471" x2="288.6641172212471" y1="628.3333333333333" y2="628.3333333333333" /><line stroke="#67818a" stroke-width="0.6" x1="276.6641172212471" x2="288.6641172212471" y1="638.3333333333334" y2="638.3333333333334" /><line stroke="#67818a" stroke-width="0.6" x1="276.6641172212471" x2="288.6641172212471" y1="641.6666666666667" y2="641.6666666666667" /><line stroke="#67818a" stroke-width="0.6" x1="276.6641172212471" x2="288.6641172212471" y1="645.0" y2="645.0" /></g><g id="lica"><rect fill="url(#gradient-lica)" height="50" rx="4" ry="4" stroke="black" stroke-width="1.2" width="80" x="534.6641172212471" y="600.0" /><line stroke="#67818a" stroke-width="0.8" x1="536.6641172212471" x2="612.6641172212471" y1="616.6666666666666" y2="616.6666666666666" /><line stroke="#67818a" stroke-width="0.8" x1="536.6641172212471" x2="612.6641172212471" y1="633.3333333333334" y2="633.3333333333334" /><circle cx="602.6641172212471" cy="608.3333333333334" fill="#00cc44" r="2.5" stroke="#67818a" stroke-width="0.5" /><circle cx="594.6641172212471" cy="608.3333333333334" fill="#ffaa00" r="2.5" stroke="#67818a" stroke-width="0.5" /><circle cx="602.6641172212471" cy="625.0" fill="#00cc44" r="2.5" stroke="#67818a" stroke-width="0.5" /><circle cx="594.6641172212471" cy="625.0" fill="#ffaa00" r="2.5" stroke="#67818a" stroke-width="0.5" /><circle cx="602.6641172212471" cy="641.6666666666667" fill="#00cc44" r="2.5" stroke="#67818a" stroke-width="0.5" /><circle cx="594.6641172212471" cy="641.6666666666667" fill="#ffaa00" r="2.5" stroke="#67818a" stroke-width="0.5" /><line stroke="#67818a" stroke-width="0.6" x1="540.6641172212471" x2="552.6641172212471" y1="605.0" y2="605.0" /><line stroke="#67818a" stroke-width="0.6" x1="540.6641172212471" x2="552.6641172212471" y1="608.3333333333334" y2="608.3333333333334" /><line stroke="#67818a" stroke-width="0.6" x1="540.6641172212471" x2="552.6641172212471" y1="611.6666666666666" y2="611.6666666666666" /><line stroke="#67818a" stroke-width="0.6" x1="540.6641172212471" x2="552.6641172212471" y1="621.6666666666666" y2="621.6666666666666" /><line stroke="#67818a" stroke-width="0.6" x1="540.6641172212471" x2="552.6641172212471" y1="625.0" y2="625.0" /><line stroke="#67818a" stroke-width="0.6" x1="540.6641172212471" x2="552.6641172212471" y1="628.3333333333333" y2="628.3333333333333" /><line stroke="#67818a" stroke-width="0.6" x1="540.6641172212471" x2="552.6641172212471" y1="638.3333333333334" y2="638.3333333333334" /><line stroke="#67818a" stroke-width="0.6" x1="540.6641172212471" x2="552.6641172212471" y1="641.6666666666667" y2="641.6666666666667" /><line stroke="#67818a" stroke-width="0.6" x1="540.6641172212471" x2="552.6641172212471" y1="645.0" y2="645.0" /></g><g id="patricia"><rect fill="url(#gradient-patricia)" height="50" rx="4" ry="4" stroke="black" stroke-width="1.2" width="80" x="402.6641172212471" y="600.0" /><line stroke="#67818a" stroke-width="0.8" x1="404.6641172212471" x2="480.6641172212471" y1="616.6666666666666" y2="616.6666666666666" /><line stroke="#67818a" stroke-width="0.8" x1="404.6641172212471" x2="480.6641172212471" y1="633.3333333333334" y2="633.3333333333334" /><circle cx="470.6641172212471" cy="608.3333333333334" fill="#00cc44" r="2.5" stroke="#67818a" stroke-width="0.5" /><circle cx="462.6641172212471" cy="608.3333333333334" fill="#ffaa00" r="2.5" stroke="#67818a" stroke-width="0.5" /><circle cx="470.6641172212471" cy="625.0" fill="#00cc44" r="2.5" stroke="#67818a" stroke-width="0.5" /><circle cx="462.6641172212471" cy="625.0" fill="#ffaa00" r="2.5" stroke="#67818a" stroke-width="0.5" /><circle cx="470.6641172212471" cy="641.6666666666667" fill="#00cc44" r="2.5" stroke="#67818a" stroke-width="0.5" /><circle cx="462.6641172212471" cy="641.6666666666667" fill="#ffaa00" r="2.5" stroke="#67818a" stroke-width="0.5" /><line stroke="#67818a" stroke-width="0.6" x1="408.6641172212471" x2="420.6641172212471" y1="605.0" y2="605.0" /><line stroke="#67818a" stroke-width="0.6" x1="408.6641172212471" x2="420.6641172212471" y1="608.3333333333334" y2="608.3333333333334" /><line stroke="#67818a" stroke-width="0.6" x1="408.6641172212471" x2="420.6641172212471" y1="611.6666666666666" y2="611.6666666666666" /><line stroke="#67818a" stroke-width="0.6" x1="408.6641172212471" x2="420.6641172212471" y1="621.6666666666666" y2="621.6666666666666" /><line stroke="#67818a" stroke-width="0.6" x1="408.6641172212471" x2="420.6641172212471" y1="625.0" y2="625.0" /><line stroke="#67818a" stroke-width="0.6" x1="408.6641172212471" x2="420.6641172212471" y1="628.3333333333333" y2="628.3333333333333" /><line stroke="#67818a" stroke-width="0.6" x1="408.6641172212471" x2="420.6641172212471" y1="638.3333333333334" y2="638.3333333333334" /><line stroke="#67818a" stroke-width="0.6" x1="408.6641172212471" x2="420.6641172212471" y1="641.6666666666667" y2="641.6666666666667" /><line stroke="#67818a" stroke-width="0.6" x1="408.6641172212471" x2="420.6641172212471" y1="645.0" y2="645.0" /></g><g id="santiago"><rect fill="url(#gradient-santiago)" height="50" rx="4" ry="4" stroke="black" stroke-width="1.2" width="80" x="798.6641172212471" y="600.0" /><line stroke="#67818a" stroke-width="0.8" x1="800.6641172212471" x2="876.6641172212471" y1="616.6666666666666" y2="616.6666666666666" /><line stroke="#67818a" stroke-width="0.8" x1="800.6641172212471" x2="876.6641172212471" y1="633.3333333333334" y2="633.3333333333334" /><circle cx="866.6641172212471" cy="608.3333333333334" fill="#00cc44" r="2.5" stroke="#67818a" stroke-width="0.5" /><circle cx="858.6641172212471" cy="608.3333333333334" fill="#ffaa00" r="2.5" stroke="#67818a" stroke-width="0.5" /><circle cx="866.6641172212471" cy="625.0" fill="#00cc44" r="2.5" stroke="#67818a" stroke-width="0.5" /><circle cx="858.6641172212471" cy="625.0" fill="#ffaa00" r="2.5" stroke="#67818a" stroke-width="0.5" /><circle cx="866.6641172212471" cy="641.6666666666667" fill="#00cc44" r="2.5" stroke="#67818a" stroke-width="0.5" /><circle cx="858.6641172212471" cy="641.6666666666667" fill="#ffaa00" r="2.5" stroke="#67818a" stroke-width="0.5" /><line stroke="#67818a" stroke-width="0.6" x1="804.6641172212471" x2="816.6641172212471" y1="605.0" y2="605.0" /><line stroke="#67818a" stroke-width="0.6" x1="804.6641172212471" x2="816.6641172212471" y1="608.3333333333334" y2="608.3333333333334" /><line stroke="#67818a" stroke-width="0.6" x1="804.6641172212471" x2="816.6641172212471" y1="611.6666666666666" y2="611.6666666666666" /><line stroke="#67818a" stroke-width="0.6" x1="804.6641172212471" x2="816.6641172212471" y1="621.6666666666666" y2="621.6666666666666" /><line stroke="#67818a" stroke-width="0.6" x1="804.6641172212471" x2="816.6641172212471" y1="625.0" y2="625.0" /><line stroke="#67818a" stroke-width="0.6" x1="804.6641172212471" x2="816.6641172212471" y1="628.3333333333333" y2="628.3333333333333" /><line stroke="#67818a" stroke-width="0.6" x1="804.6641172212471" x2="816.6641172212471" y1="638.3333333333334" y2="638.3333333333334" /><line stroke="#67818a" stroke-width="0.6" x1="804.6641172212471" x2="816.6641172212471" y1="641.6666666666667" y2="641.6666666666667" /><line stroke="#67818a" stroke-width="0.6" x1="804.6641172212471" x2="816.6641172212471" y1="645.0" y2="645.0" /></g><g id="jose"><rect fill="url(#gradient-jose)" height="50" rx="4" ry="4" stroke="black" stroke-width="1.2" width="80" x="666.6641172212471" y="600.0" /><line stroke="#67818a" stroke-width="0.8" x1="668.6641172212471" x2="744.6641172212471" y1="616.6666666666666" y2="616.6666666666666" /><line stroke="#67818a" stroke-width="0.8" x1="668.6641172212471" x2="744.6641172212471" y1="633.3333333333334" y2="633.3333333333334" /><circle cx="734.6641172212471" cy="608.3333333333334" fill="#00cc44" r="2.5" stroke="#67818a" stroke-width="0.5" /><circle cx="726.6641172212471" cy="608.3333333333334" fill="#ffaa00" r="2.5" stroke="#67818a" stroke-width="0.5" /><circle cx="734.6641172212471" cy="625.0" fill="#00cc44" r="2.5" stroke="#67818a" stroke-width="0.5" /><circle cx="726.6641172212471" cy="625.0" fill="#ffaa00" r="2.5" stroke="#67818a" stroke-width="0.5" /><circle cx="734.6641172212471" cy="641.6666666666667" fill="#00cc44" r="2.5" stroke="#67818a" stroke-width="0.5" /><circle cx="726.6641172212471" cy="641.6666666666667" fill="#ffaa00" r="2.5" stroke="#67818a" stroke-width="0.5" /><line stroke="#67818a" stroke-width="0.6" x1="672.6641172212471" x2="684.6641172212471" y1="605.0" y2="605.0" /><line stroke="#67818a" stroke-width="0.6" x1="672.6641172212471" x2="684.6641172212471" y1="608.3333333333334" y2="608.3333333333334" /><line stroke="#67818a" stroke-width="0.6" x1="672.6641172212471" x2="684.6641172212471" y1="611.6666666666666" y2="611.6666666666666" /><line stroke="#67818a" stroke-width="0.6" x1="672.6641172212471" x2="684.6641172212471" y1="621.6666666666666" y2="621.6666666666666" /><line stroke="#67818a" stroke-width="0.6" x1="672.6641172212471" x2="684.6641172212471" y1="625.0" y2="625.0" /><line stroke="#67818a" stroke-width="0.6" x1="672.6641172212471" x2="684.6641172212471" y1="628.3333333333333" y2="628.3333333333333" /><line stroke="#67818a" stroke-width="0.6" x1="672.6641172212471" x2="684.6641172212471" y1="638.3333333333334" y2="638.3333333333334" /><line stroke="#67818a" stroke-width="0.6" x1="672.6641172212471" x2="684.6641172212471" y1="641.6666666666667" y2="641.6666666666667" /><line stroke="#67818a" stroke-width="0.6" x1="672.6641172212471" x2="684.6641172212471" y1="645.0" y2="645.0" /></g><g id="sebastian"><rect fill="url(#gradient-sebastian)" height="50" rx="4" ry="4" stroke="black" stroke-width="1.2" width="80" x="100.0" y="890.0" /><line stroke="#568e56" stroke-width="0.8" x1="102.0" x2="178.0" y1="906.6666666666666" y2="906.6666666666666" /><line stroke="#568e56" stroke-width="0.8" x1="102.0" x2="178.0" y1="923.3333333333334" y2="923.3333333333334" /><circle cx="168.0" cy="898.3333333333334" fill="#00cc44" r="2.5" stroke="#568e56" stroke-width="0.5" /><circle cx="160.0" cy="898.3333333333334" fill="#ffaa00" r="2.5" stroke="#568e56" stroke-width="0.5" /><circle cx="168.0" cy="915.0" fill="#00cc44" r="2.5" stroke="#568e56" stroke-width="0.5" /><circle cx="160.0" cy="915.0" fill="#ffaa00" r="2.5" stroke="#568e56" stroke-width="0.5" /><circle cx="168.0" cy="931.6666666666667" fill="#00cc44" r="2.5" stroke="#568e56" stroke-width="0.5" /><circle cx="160.0" cy="931.6666666666667" fill="#ffaa00" r="2.5" stroke="#568e56" stroke-width="0.5" /><line stroke="#568e56" stroke-width="0.6" x1="106.0" x2="118.0" y1="895.0" y2="895.0" /><line stroke="#568e56" stroke-width="0.6" x1="106.0" x2="118.0" y1="898.3333333333334" y2="898.3333333333334" /><line stroke="#568e56" stroke-width="0.6" x1="106.0" x2="118.0" y1="901.6666666666666" y2="901.6666666666666" /><line stroke="#568e56" stroke-width="0.6" x1="106.0" x2="118.0" y1="911.6666666666666" y2="911.6666666666666" /><line stroke="#568e56" stroke-width="0.6" x1="106.0" x2="118.0" y1="915.0" y2="915.0" /><line stroke="#568e56" stroke-width="0.6" x1="106.0" x2="118.0" y1="918.3333333333333" y2="918.3333333333333" /><line stroke="#568e56" stroke-width="0.6" x1="106.0" x2="118.0" y1="928.3333333333334" y2="928.3333333333334" /><line stroke="#568e56" stroke-width="0.6" x1="106.0" x2="118.0" y1="931.6666666666667" y2="931.6666666666667" /><line stroke="#568e56" stroke-width="0.6" x1="106.0" x2="118.0" y1="935.0" y2="935.0" /></g><g id="mateo"><rect fill="url(#gradient-mateo)" height="50" rx="4" ry="4" stroke="black" stroke-width="1.2" width="80" x="364.0" y="890.0" /><line stroke="#568e56" stroke-width="0.8" x1="366.0" x2="442.0" y1="906.6666666666666" y2="906.6666666666666" /><line stroke="#568e56" stroke-width="0.8" x1="366.0" x2="442.0" y1="923.3333333333334" y2="923.3333333333334" /><circle cx="432.0" cy="898.3333333333334" fill="#00cc44" r="2.5" stroke="#568e56" stroke-width="0.5" /><circle cx="424.0" cy="898.3333333333334" fill="#ffaa00" r="2.5" stroke="#568e56" stroke-width="0.5" /><circle cx="432.0" cy="915.0" fill="#00cc44" r="2.5" stroke="#568e56" stroke-width="0.5" /><circle cx="424.0" cy="915.0" fill="#ffaa00" r="2.5" stroke="#568e56" stroke-width="0.5" /><circle cx="432.0" cy="931.6666666666667" fill="#00cc44" r="2.5" stroke="#568e56" stroke-width="0.5" /><circle cx="424.0" cy="931.6666666666667" fill="#ffaa00" r="2.5" stroke="#568e56" stroke-width="0.5" /><line stroke="#568e56" stroke-width="0.6" x1="370.0" x2="382.0" y1="895.0" y2="895.0" /><line stroke="#568e56" stroke-width="0.6" x1="370.0" x2="382.0" y1="898.3333333333334" y2="898.3333333333334" /><line stroke="#568e56" stroke-width="0.6" x1="370.0" x2="382.0" y1="901.6666666666666" y2="901.6666666666666" /><line stroke="#568e56" stroke-width="0.6" x1="370.0" x2="382.0" y1="911.6666666666666" y2="911.6666666666666" /><line stroke="#568e56" stroke-width="0.6" x1="370.0" x2="382.0" y1="915.0" y2="915.0" /><line stroke="#568e56" stroke-width="0.6" x1="370.0" x2="382.0" y1="918.3333333333333" y2="918.3333333333333" /><line stroke="#568e56" stroke-width="0.6" x1="370.0" x2="382.0" y1="928.3333333333334" y2="928.3333333333334" /><line stroke="#568e56" stroke-width="0.6" x1="370.0" x2="382.0" y1="931.6666666666667" y2="931.6666666666667" /><line stroke="#568e56" stroke-width="0.6" x1="370.0" x2="382.0" y1="935.0" y2="935.0" /></g><g id="pascual"><rect fill="url(#gradient-pascual)" height="50" rx="4" ry="4" stroke="black" stroke-width="1.2" width="80" x="496.0" y="890.0" /><line stroke="#568e56" stroke-width="0.8" x1="498.0" x2="574.0" y1="906.6666666666666" y2="906.6666666666666" /><line stroke="#568e56" stroke-width="0.8" x1="498.0" x2="574.0" y1="923.3333333333334" y2="923.3333333333334" /><circle cx="564.0" cy="898.3333333333334" fill="#00cc44" r="2.5" stroke="#568e56" stroke-width="0.5" /><circle cx="556.0" cy="898.3333333333334" fill="#ffaa00" r="2.5" stroke="#568e56" stroke-width="0.5" /><circle cx="564.0" cy="915.0" fill="#00cc44" r="2.5" stroke="#568e56" stroke-width="0.5" /><circle cx="556.0" cy="915.0" fill="#ffaa00" r="2.5" stroke="#568e56" stroke-width="0.5" /><circle cx="564.0" cy="931.6666666666667" fill="#00cc44" r="2.5" stroke="#568e56" stroke-width="0.5" /><circle cx="556.0" cy="931.6666666666667" fill="#ffaa00" r="2.5" stroke="#568e56" stroke-width="0.5" /><line stroke="#568e56" stroke-width="0.6" x1="502.0" x2="514.0" y1="895.0" y2="895.0" /><line stroke="#568e56" stroke-width="0.6" x1="502.0" x2="514.0" y1="898.3333333333334" y2="898.3333333333334" /><line stroke="#568e56" stroke-width="0.6" x1="502.0" x2="514.0" y1="901.6666666666666" y2="901.6666666666666" /><line stroke="#568e56" stroke-width="0.6" x1="502.0" x2="514.0" y1="911.6666666666666" y2="911.6666666666666" /><line stroke="#568e56" stroke-width="0.6" x1="502.0" x2="514.0" y1="915.0" y2="915.0" /><line stroke="#568e56" stroke-width="0.6" x1="502.0" x2="514.0" y1="918.3333333333333" y2="918.3333333333333" /><line stroke="#568e56" stroke-width="0.6" x1="502.0" x2="514.0" y1="928.3333333333334" y2="928.3333333333334" /><line stroke="#568e56" stroke-width="0.6" x1="502.0" x2="514.0" y1="931.6666666666667" y2="931.6666666666667" /><line stroke="#568e56" stroke-width="0.6" x1="502.0" x2="514.0" y1="935.0" y2="935.0" /></g><g id="diego"><rect fill="url(#gradient-diego)" height="50" rx="4" ry="4" stroke="black" stroke-width="1.2" width="80" x="232.0" y="890.0" /><line stroke="#568e56" stroke-width="0.8" x1="234.0" x2="310.0" y1="906.6666666666666" y2="906.6666666666666" /><line stroke="#568e56" stroke-width="0.8" x1="234.0" x2="310.0" y1="923.3333333333334" y2="923.3333333333334" /><circle cx="300.0" cy="898.3333333333334" fill="#00cc44" r="2.5" stroke="#568e56" stroke-width="0.5" /><circle cx="292.0" cy="898.3333333333334" fill="#ffaa00" r="2.5" stroke="#568e56" stroke-width="0.5" /><circle cx="300.0" cy="915.0" fill="#00cc44" r="2.5" stroke="#568e56" stroke-width="0.5" /><circle cx="292.0" cy="915.0" fill="#ffaa00" r="2.5" stroke="#568e56" stroke-width="0.5" /><circle cx="300.0" cy="931.6666666666667" fill="#00cc44" r="2.5" stroke="#568e56" stroke-width="0.5" /><circle cx="292.0" cy="931.6666666666667" fill="#ffaa00" r="2.5" stroke="#568e56" stroke-width="0.5" /><line stroke="#568e56" stroke-width="0.6" x1="238.0" x2="250.0" y1="895.0" y2="895.0" /><line stroke="#568e56" stroke-width="0.6" x1="238.0" x2="250.0" y1="898.3333333333334" y2="898.3333333333334" /><line stroke="#568e56" stroke-width="0.6" x1="238.0" x2="250.0" y1="901.6666666666666" y2="901.6666666666666" /><line stroke="#568e56" stroke-width="0.6" x1="238.0" x2="250.0" y1="911.6666666666666" y2="911.6666666666666" /><line stroke="#568e56" stroke-width="0.6" x1="238.0" x2="250.0" y1="915.0" y2="915.0" /><line stroke="#568e56" stroke-width="0.6" x1="238.0" x2="250.0" y1="918.3333333333333" y2="918.3333333333333" /><line stroke="#568e56" stroke-width="0.6" x1="238.0" x2="250.0" y1="928.3333333333334" y2="928.3333333333334" /><line stroke="#568e56" stroke-width="0.6" x1="238.0" x2="250.0" y1="931.6666666666667" y2="931.6666666666667" /><line stroke="#568e56" stroke-width="0.6" x1="238.0" x2="250.0" y1="935.0" y2="935.0" /></g><g id="jose_antonio"><rect fill="url(#gradient-jose_antonio)" height="50" rx="4" ry="4" stroke="black" stroke-width="1.2" width="80" x="892.0" y="890.0" /><line stroke="#568e56" stroke-width="0.8" x1="894.0" x2="970.0" y1="906.6666666666666" y2="906.6666666666666" /><line stroke="#568e56" stroke-width="0.8" x1="894.0" x2="970.0" y1="923.3333333333334" y2="923.3333333333334" /><circle cx="960.0" cy="898.3333333333334" fill="#00cc44" r="2.5" stroke="#568e56" stroke-width="0.5" /><circle cx="952.0" cy="898.3333333333334" fill="#ffaa00" r="2.5" stroke="#568e56" stroke-width="0.5" /><circle cx="960.0" cy="915.0" fill="#00cc44" r="2.5" stroke="#568e56" stroke-width="0.5" /><circle cx="952.0" cy="915.0" fill="#ffaa00" r="2.5" stroke="#568e56" stroke-width="0.5" /><circle cx="960.0" cy="931.6666666666667" fill="#00cc44" r="2.5" stroke="#568e56" stroke-width="0.5" /><circle cx="952.0" cy="931.6666666666667" fill="#ffaa00" r="2.5" stroke="#568e56" stroke-width="0.5" /><line stroke="#568e56" stroke-width="0.6" x1="898.0" x2="910.0" y1="895.0" y2="895.0" /><line stroke="#568e56" stroke-width="0.6" x1="898.0" x2="910.0" y1="898.3333333333334" y2="898.3333333333334" /><line stroke="#568e56" stroke-width="0.6" x1="898.0" x2="910.0" y1="901.6666666666666" y2="901.6666666666666" /><line stroke="#568e56" stroke-width="0.6" x1="898.0" x2="910.0" y1="911.6666666666666" y2="911.6666666666666" /><line stroke="#568e56" stroke-width="0.6" x1="898.0" x2="910.0" y1="915.0" y2="915.0" /><line stroke="#568e56" stroke-width="0.6" x1="898.0" x2="910.0" y1="918.3333333333333" y2="918.3333333333333" /><line stroke="#568e56" stroke-width="0.6" x1="898.0" x2="910.0" y1="928.3333333333334" y2="928.3333333333334" /><line stroke="#568e56" stroke-width="0.6" x1="898.0" x2="910.0" y1="931.6666666666667" y2="931.6666666666667" /><line stroke="#568e56" stroke-width="0.6" x1="898.0" x2="910.0" y1="935.0" y2="935.0" /></g><g id="patricia_hija_santiago"><rect fill="url(#gradient-patricia_hija_santiago)" height="50" rx="4" ry="4" stroke="black" stroke-width="1.2" width="80" x="1024.0" y="890.0" /><line stroke="#568e56" stroke-width="0.8" x1="1026.0" x2="1102.0" y1="906.6666666666666" y2="906.6666666666666" /><line stroke="#568e56" stroke-width="0.8" x1="1026.0" x2="1102.0" y1="923.3333333333334" y2="923.3333333333334" /><circle cx="1092.0" cy="898.3333333333334" fill="#00cc44" r="2.5" stroke="#568e56" stroke-width="0.5" /><circle cx="1084.0" cy="898.3333333333334" fill="#ffaa00" r="2.5" stroke="#568e56" stroke-width="0.5" /><circle cx="1092.0" cy="915.0" fill="#00cc44" r="2.5" stroke="#568e56" stroke-width="0.5" /><circle cx="1084.0" cy="915.0" fill="#ffaa00" r="2.5" stroke="#568e56" stroke-width="0.5" /><circle cx="1092.0" cy="931.6666666666667" fill="#00cc44" r="2.5" stroke="#568e56" stroke-width="0.5" /><circle cx="1084.0" cy="931.6666666666667" fill="#ffaa00" r="2.5" stroke="#568e56" stroke-width="0.5" /><line stroke="#568e56" stroke-width="0.6" x1="1030.0" x2="1042.0" y1="895.0" y2="895.0" /><line stroke="#568e56" stroke-width="0.6" x1="1030.0" x2="1042.0" y1="898.3333333333334" y2="898.3333333333334" /><line stroke="#568e56" stroke-width="0.6" x1="1030.0" x2="1042.0" y1="901.6666666666666" y2="901.6666666666666" /><line stroke="#568e56" stroke-width="0.6" x1="1030.0" x2="1042.0" y1="911.6666666666666" y2="911.6666666666666" /><line stroke="#568e56" stroke-width="0.6" x1="1030.0" x2="1042.0" y1="915.0" y2="915.0" /><line stroke="#568e56" stroke-width="0.6" x1="1030.0" x2="1042.0" y1="918.3333333333333" y2="918.3333333333333" /><line stroke="#568e56" stroke-width="0.6" x1="1030.0" x2="1042.0" y1="928.3333333333334" y2="928.3333333333334" /><line stroke="#568e56" stroke-width="0.6" x1="1030.0" x2="1042.0" y1="931.6666666666667" y2="931.6666666666667" /><line stroke="#568e56" stroke-width="0.6" x1="1030.0" x2="1042.0" y1="935.0" y2="935.0" /></g><g id="santiagoito"><rect fill="url(#gradient-santiagoito)" height="50" rx="4" ry="4" stroke="black" stroke-width="1.2" width="80" x="1156.0" y="890.0" /><line stroke="#568e56" stroke-width="0.8" x1="1158.0" x2="1234.0" y1="906.6666666666666" y2="906.6666666666666" /><line stroke="#568e56" stroke-width="0.8" x1="1158.0" x2="1234.0" y1="923.3333333333334" y2="923.3333333333334" /><circle cx="1224.0" cy="898.3333333333334" fill="#00cc44" r="2.5" stroke="#568e56" stroke-width="0.5" /><circle cx="1216.0" cy="898.3333333333334" fill="#ffaa00" r="2.5" stroke="#568e56" stroke-width="0.5" /><circle cx="1224.0" cy="915.0" fill="#00cc44" r="2.5" stroke="#568e56" stroke-width="0.5" /><circle cx="1216.0" cy="915.0" fill="#ffaa00" r="2.5" stroke="#568e56" stroke-width="0.5" /><circle cx="1224.0" cy="931.6666666666667" fill="#00cc44" r="2.5" stroke="#568e56" stroke-width="0.5" /><circle cx="1216.0" cy="931.6666666666667" fill="#ffaa00" r="2.5" stroke="#568e56" stroke-width="0.5" /><line stroke="#568e56" stroke-width="0.6" x1="1162.0" x2="1174.0" y1="895.0" y2="895.0" /><line stroke="#568e56" stroke-width="0.6" x1="1162.0" x2="1174.0" y1="898.3333333333334" y2="898.3333333333334" /><line stroke="#568e56" stroke-width="0.6" x1="1162.0" x2="1174.0" y1="901.6666666666666" y2="901.6666666666666" /><line stroke="#568e56" stroke-width="0.6" x1="1162.0" x2="1174.0" y1="911.6666666666666" y2="911.6666666666666" /><line stroke="#568e56" stroke-width="0.6" x1="1162.0" x2="1174.0" y1="915.0" y2="915.0" /><line stroke="#568e56" stroke-width="0.6" x1="1162.0" x2="1174.0" y1="918.3333333333333" y2="918.3333333333333" /><line stroke="#568e56" stroke-width="0.6" x1="1162.0" x2="1174.0" y1="928.3333333333334" y2="928.3333333333334" /><line stroke="#568e56" stroke-width="0.6" x1="1162.0" x2="1174.0" y1="931.6666666666667" y2="931.6666666666667" /><line stroke="#568e56" stroke-width="0.6" x1="1162.0" x2="1174.0" y1="935.0" y2="935.0" /></g><g id="gerardo"><rect fill="url(#gradient-gerardo)" height="50" rx="4" ry="4" stroke="black" stroke-width="1.2" width="80" x="628.0" y="890.0" /><line stroke="#568e56" stroke-width="0.8" x1="630.0" x2="706.0" y1="906.6666666666666" y2="906.6666666666666" /><line stroke="#568e56" stroke-width="0.8" x1="630.0" x2="706.0" y1="923.3333333333334" y2="923.3333333333334" /><circle cx="696.0" cy="898.3333333333334" fill="#00cc44" r="2.5" stroke="#568e56" stroke-width="0.5" /><circle cx="688.0" cy="898.3333333333334" fill="#ffaa00" r="2.5" stroke="#568e56" stroke-width="0.5" /><circle cx="696.0" cy="915.0" fill="#00cc44" r="2.5" stroke="#568e56" stroke-width="0.5" /><circle cx="688.0" cy="915.0" fill="#ffaa00" r="2.5" stroke="#568e56" stroke-width="0.5" /><circle cx="696.0" cy="931.6666666666667" fill="#00cc44" r="2.5" stroke="#568e56" stroke-width="0.5" /><circle cx="688.0" cy="931.6666666666667" fill="#ffaa00" r="2.5" stroke="#568e56" stroke-width="0.5" /><line stroke="#568e56" stroke-width="0.6" x1="634.0" x2="646.0" y1="895.0" y2="895.0" /><line stroke="#568e56" stroke-width="0.6" x1="634.0" x2="646.0" y1="898.3333333333334" y2="898.3333333333334" /><line stroke="#568e56" stroke-width="0.6" x1="634.0" x2="646.0" y1="901.6666666666666" y2="901.6666666666666" /><line stroke="#568e56" stroke-width="0.6" x1="634.0" x2="646.0" y1="911.6666666666666" y2="911.6666666666666" /><line stroke="#568e56" stroke-width="0.6" x1="634.0" x2="646.0" y1="915.0" y2="915.0" /><line stroke="#568e56" stroke-width="0.6" x1="634.0" x2="646.0" y1="918.3333333333333" y2="918.3333333333333" /><line stroke="#568e56" stroke-width="0.6" x1="634.0" x2="646.0" y1="928.3333333333334" y2="928.3333333333334" /><line stroke="#568e56" stroke-width="0.6" x1="634.0" x2="646.0" y1="931.6666666666667" y2="931.6666666666667" /><line stroke="#568e56" stroke-width="0.6" x1="634.0" x2="646.0" y1="935.0" y2="935.0" /></g><g id="dante"><rect fill="url(#gradient-dante)" height="50" rx="4" ry="4" stroke="black" stroke-width="1.2" width="80" x="760.0" y="890.0" /><line stroke="#568e56" stroke-width="0.8" x1="762.0" x2="838.0" y1="906.6666666666666" y2="906.6666666666666" /><line stroke="#568e56" stroke-width="0.8" x1="762.0" x2="838.0" y1="923.3333333333334" y2="923.3333333333334" /><circle cx="828.0" cy="898.3333333333334" fill="#00cc44" r="2.5" stroke="#568e56" stroke-width="0.5" /><circle cx="820.0" cy="898.3333333333334" fill="#ffaa00" r="2.5" stroke="#568e56" stroke-width="0.5" /><circle cx="828.0" cy="915.0" fill="#00cc44" r="2.5" stroke="#568e56" stroke-width="0.5" /><circle cx="820.0" cy="915.0" fill="#ffaa00" r="2.5" stroke="#568e56" stroke-width="0.5" /><circle cx="828.0" cy="931.6666666666667" fill="#00cc44" r="2.5" stroke="#568e56" stroke-width="0.5" /><circle cx="820.0" cy="931.6666666666667" fill="#ffaa00" r="2.5" stroke="#568e56" stroke-width="0.5" /><line stroke="#568e56" stroke-width="0.6" x1="766.0" x2="778.0" y1="895.0" y2="895.0" /><line stroke="#568e56" stroke-width="0.6" x1="766.0" x2="778.0" y1="898.3333333333334" y2="898.3333333333334" /><line stroke="#568e56" stroke-width="0.6" x1="766.0" x2="778.0" y1="901.6666666666666" y2="901.6666666666666" /><line stroke="#568e56" stroke-width="0.6" x1="766.0" x2="778.0" y1="911.6666666666666" y2="911.6666666666666" /><line stroke="#568e56" stroke-width="0.6" x1="766.0" x2="778.0" y1="915.0" y2="915.0" /><line stroke="#568e56" stroke-width="0.6" x1="766.0" x2="778.0" y1="918.3333333333333" y2="918.3333333333333" /><line stroke="#568e56" stroke-width="0.6" x1="766.0" x2="778.0" y1="928.3333333333334" y2="928.3333333333334" /><line stroke="#568e56" stroke-width="0.6" x1="766.0" x2="778.0" y1="931.6666666666667" y2="931.6666666666667" /><line stroke="#568e56" stroke-width="0.6" x1="766.0" x2="778.0" y1="935.0" y2="935.0" /></g><rect fill="#5a5a5a" height="8" rx="4" ry="4" stroke="#333" stroke-width="1" width="56.0" x="545.2393805119466" y="331.0" /><line marker-end="url(#arrow-end)" marker-start="url(#circle-start)" stroke="black" stroke-width="2" x1="555.7" x2="325.1" y1="360.0" y2="600.0" /><line marker-end="url(#arrow-end)" marker-start="url(#circle-start)" stroke="black" stroke-width="2" x1="573.2" x2="574.7" y1="360.0" y2="600.0" /><line marker-end="url(#arrow-end)" marker-start="url(#circle-start)" stroke="black" stroke-width="2" x1="561.6" x2="457.1" y1="360.0" y2="600.0" /><line marker-end="url(#arrow-end)" marker-start="url(#circle-start)" stroke="black" stroke-width="2" x1="590.7" x2="824.2" y1="360.0" y2="600.0" /><line marker-end="url(#arrow-end)" marker-start="url(#circle-start)" stroke="black" stroke-width="2" x1="584.9" x2="692.2" y1="360.0" y2="600.0" /><line marker-end="url(#arrow-end)" marker-start="url(#circle-start)" stroke="black" stroke-width="2" x1="296.2" x2="154.4" y1="650.0" y2="890.0" /><line marker-end="url(#arrow-end)" marker-start="url(#circle-start)" stroke="black" stroke-width="2" x1="560.2" x2="418.4" y1="650.0" y2="890.0" /><line marker-end="url(#arrow-end)" marker-start="url(#circle-start)" stroke="black" stroke-width="2" x1="574.7" x2="536.0" y1="650.0" y2="890.0" /><line marker-end="url(#arrow-end)" marker-start="url(#circle-start)" stroke="black" stroke-width="2" x1="428.2" x2="286.4" y1="650.0" y2="890.0" /><line marker-end="url(#arrow-end)" marker-start="url(#circle-start)" stroke="black" stroke-width="2" x1="850.3" x2="917.6" y1="650.0" y2="890.0" /><line marker-end="url(#arrow-end)" marker-start="url(#circle-start)" stroke="black" stroke-width="2" x1="856.2" x2="1049.6" y1="650.0" y2="890.0" /><line marker-end="url(#arrow-end)" marker-start="url(#circle-start)" stroke="black" stroke-width="2" x1="878.7" x2="1156.0" y1="648.1" y2="891.9" /><line marker-end="url(#arrow-end)" marker-start="url(#circle-start)" stroke="black" stroke-width="2" x1="706.7" x2="668.0" y1="650.0" y2="890.0" /><line marker-end="url(#arrow-end)" marker-start="url(#circle-start)" stroke="black" stroke-width="2" x1="721.1" x2="785.6" y1="650.0" y2="890.0" /><line stroke="black" stroke-width="2" x1="507.2" x2="571.1" y1="70.0" y2="310.0" /><line stroke="black" stroke-width="2" x1="639.2" x2="575.4" y1="70.0" y2="310.0" /><text fill="#ffffff" filter="url(#text-glow)" font-family="Arial, sans-serif" font-size="14px" text-anchor="end" x="454.63938051194094" y="45.0" class="ag-text-halo" stroke="#ffffff" stroke-width="3" stroke-linejoin="round" stroke-linecap="round">José Heráclides</text><text fill="black" filter="url(#text-glow)" font-family="Arial, sans-serif" font-size="14px" text-anchor="end" x="454.63938051194094" y="45.0">José Heráclides</text><text fill="#ffffff" filter="url(#text-glow)" font-family="Arial, sans-serif" font-size="14px" text-anchor="start" x="691.8393805119409" y="45.0" class="ag-text-halo" stroke="#ffffff" stroke-width="3" stroke-linejoin="round" stroke-linecap="round">Daría</text><text fill="black" filter="url(#text-glow)" font-family="Arial, sans-serif" font-size="14px" text-anchor="start" x="691.8393805119409" y="45.0">Daría</text><text fill="#ffffff" filter="url(#text-glow)" font-family="Arial, sans-serif" font-size="14px" text-anchor="middle" x="310.6641172212471" y="579.0" class="ag-text-halo" stroke="#ffffff" stroke-width="3" stroke-linejoin="round" stroke-linecap="round">Silvia</text><text fill="black" filter="url(#text-glow)" font-family="Arial, sans-serif" font-size="14px" text-anchor="middle" x="310.6641172212471" y="579.0">Silvia</text><text fill="#ffffff" filter="url(#text-glow)" font-family="Arial, sans-serif" font-size="14px" text-anchor="start" x="627.2641172212471" y="625.0" class="ag-text-halo" stroke="#ffffff" stroke-width="3" stroke-linejoin="round" stroke-linecap="round">Lica</text><text fill="black" filter="url(#text-glow)" font-family="Arial, sans-serif" font-size="14px" text-anchor="start" x="627.2641172212471" y="625.0">Lica</text><text fill="#ffffff" filter="url(#text-glow)" font-family="Arial, sans-serif" font-size="14px" text-anchor="start" x="495.26411722124715" y="579.0" class="ag-text-halo" stroke="#ffffff" stroke-width="3" stroke-linejoin="round" stroke-linecap="round">Patricia</text><text fill="black" filter="url(#text-glow)" font-family="Arial, sans-serif" font-size="14px" text-anchor="start" x="495.26411722124715" y="579.0">Patricia</text><text fill="#ffffff" filter="url(#text-glow)" font-family="Arial, sans-serif" font-size="14px" text-anchor="start" x="891.2641172212471" y="625.0" class="ag-text-halo" stroke="#ffffff" stroke-width="3" stroke-linejoin="round" stroke-linecap="round">Santiago</text><text fill="black" filter="url(#text-glow)" font-family="Arial, sans-serif" font-size="14px" text-anchor="start" x="891.2641172212471" y="625.0">Santiago</text><text fill="#ffffff" filter="url(#text-glow)" font-family="Arial, sans-serif" font-size="14px" text-anchor="start" x="759.2641172212471" y="625.0" class="ag-text-halo" stroke="#ffffff" stroke-width="3" stroke-linejoin="round" stroke-linecap="round">José</text><text fill="black" filter="url(#text-glow)" font-family="Arial, sans-serif" font-size="14px" text-anchor="start" x="759.2641172212471" y="625.0">José</text><text fill="#ffffff" filter="url(#text-glow)" font-family="Arial, sans-serif" font-size="14px" text-anchor="middle" x="140.0" y="961.0" class="ag-text-halo" stroke="#ffffff" stroke-width="3" stroke-linejoin="round" stroke-linecap="round">Sebastián</text><text fill="black" filter="url(#text-glow)" font-family="Arial, sans-serif" font-size="14px" text-anchor="middle" x="140.0" y="961.0">Sebastián</text><text fill="#ffffff" filter="url(#text-glow)" font-family="Arial, sans-serif" font-size="14px" text-anchor="middle" x="404.0" y="961.0" class="ag-text-halo" stroke="#ffffff" stroke-width="3" stroke-linejoin="round" stroke-linecap="round">Mateo</text><text fill="black" filter="url(#text-glow)" font-family="Arial, sans-serif" font-size="14px" text-anchor="middle" x="404.0" y="961.0">Mateo</text><text fill="#ffffff" filter="url(#text-glow)" font-family="Arial, sans-serif" font-size="14px" text-anchor="middle" x="536.0" y="961.0" class="ag-text-halo" stroke="#ffffff" stroke-width="3" stroke-linejoin="round" stroke-linecap="round">Pascual</text><text fill="black" filter="url(#text-glow)" font-family="Arial, sans-serif" font-size="14px" text-anchor="middle" x="536.0" y="961.0">Pascual</text><text fill="#ffffff" filter="url(#text-glow)" font-family="Arial, sans-serif" font-size="14px" text-anchor="middle" x="272.0" y="961.0" class="ag-text-halo" stroke="#ffffff" stroke-width="3" stroke-linejoin="round" stroke-linecap="round">Diego</text><text fill="black" filter="url(#text-glow)" font-family="Arial, sans-serif" font-size="14px" text-anchor="middle" x="272.0" y="961.0">Diego</text><text fill="#ffffff" filter="url(#text-glow)" font-family="Arial, sans-serif" font-size="14px" text-anchor="middle" x="932.0" y="961.0" class="ag-text-halo" stroke="#ffffff" stroke-width="3" stroke-linejoin="round" stroke-linecap="round">José Antonio</text><text fill="black" filter="url(#text-glow)" font-family="Arial, sans-serif" font-size="14px" text-anchor="middle" x="932.0" y="961.0">José Antonio</text><text fill="#ffffff" filter="url(#text-glow)" font-family="Arial, sans-serif" font-size="14px" text-anchor="middle" x="1064.0" y="961.0" class="ag-text-halo" stroke="#ffffff" stroke-width="3" stroke-linejoin="round" stroke-linecap="round">Patricia</text><text fill="black" filter="url(#text-glow)" font-family="Arial, sans-serif" font-size="14px" text-anchor="middle" x="1064.0" y="961.0">Patricia</text><text fill="#ffffff" filter="url(#text-glow)" font-family="Arial, sans-serif" font-size="14px" text-anchor="middle" x="1064.0" y="979.0" class="ag-text-halo" stroke="#ffffff" stroke-width="3" stroke-linejoin="round" stroke-linecap="round">(hija de Santiago)</text><text fill="black" filter="url(#text-glow)" font-family="Arial, sans-serif" font-size="14px" text-anchor="middle" x="1064.0" y="979.0">(hija de Santiago)</text><text fill="#ffffff" filter="url(#text-glow)" font-family="Arial, sans-serif" font-size="14px" text-anchor="middle" x="1196.0" y="961.0" class="ag-text-halo" stroke="#ffffff" stroke-width="3" stroke-linejoin="round" stroke-linecap="round">Santiagoito</text><text fill="black" filter="url(#text-glow)" font-family="Arial, sans-serif" font-size="14px" text-anchor="middle" x="1196.0" y="961.0">Santiagoito</text><text fill="#ffffff" filter="url(#text-glow)" font-family="Arial, sans-serif" font-size="14px" text-anchor="middle" x="668.0" y="961.0" class="ag-text-halo" stroke="#ffffff" stroke-width="3" stroke-linejoin="round" stroke-linecap="round">Gerardo</text><text fill="black" filter="url(#text-glow)" font-family="Arial, sans-serif" font-size="14px" text-anchor="middle" x="668.0" y="961.0">Gerardo</text><text fill="#ffffff" filter="url(#text-glow)" font-family="Arial, sans-serif" font-size="14px" text-anchor="middle" x="800.0" y="961.0" class="ag-text-halo" stroke="#ffffff" stroke-width="3" stroke-linejoin="round" stroke-linecap="round">Dante</text><text fill="black" filter="url(#text-glow)" font-family="Arial, sans-serif" font-size="14px" text-anchor="middle" x="800.0" y="961.0">Dante</text></svg>