<?xml version="1.0" encoding="utf-8" ?>
<svg baseProfile="full" height="1090" version="1.1" viewBox="0,0,1200,1090" width="1200" xmlns="http://www.w3.org/2000/svg" xmlns:ev="http://www.w3.org/2001/xml-events" xmlns:xlink="http://www.w3.org/1999/xlink"><defs><filter height="140%" id="text-glow" width="140%" x="-20%" y="-20%"><feGaussianBlur in="SourceGraphic" result="blur" stdDeviation="2" /><feFlood flood-color="white" flood-opacity="1" result="color" /><feComposite in="color" in2="blur" operator="in" result="shadow" /><feMerge><feMergeNode in="shadow" /><feMergeNode in="shadow" /><feMergeNode in="SourceGraphic" /></feMerge></filter><marker id="arrow-end" markerHeight="10" markerWidth="10" orient="auto" refX="10" refY="5"><path d="M 0 0 L 10 5 L 0 10 z" fill="black" /></marker><marker id="arrow-start" markerHeight="10" markerWidth="10" orient="auto" refX="0" refY="5"><path d="M 10 0 L 0 5 L 10 10 z" fill="black" /></marker><marker id="circle-start" markerHeight="10" markerWidth="10" orient="auto" refX="5" refY="5"><circle cx="5" cy="5" fill="black" r="4" /></marker><marker id="circle-end" markerHeight="10" markerWidth="10" orient="auto" refX="5" refY="5"><circle cx="5" cy="5" fill="black" r="4" /></marker><linearGradient id="gradient-srv" x1="0%" x2="0%" y1="0%" y2="100%"><stop offset="0%" stop-color="#d2d2d2" /><stop offset="100%" stop-color="#868686" /></linearGradient><linearGradient id="gradient-db1" x1="0%" x2="0%" y1="0%" y2="100%"><stop offset="0%" stop-color="#ffc04c" /><stop offset="100%" stop-color="#b27300" /></linearGradient></defs><g id="sensor1" transform="translate(100.0,20.0) scale(1.0)"><rect x="10" y="5" width="60" height="40" rx="8" fill="currentColor" stroke="black" stroke-width="2" /><circle cx="30" cy="25" r="6" fill="white" /><circle cx="50" cy="25" r="6" fill="white" /><line x1="25" y1="38" x2="55" y2="38" stroke="black" stroke-width="2" /></g><g id="sensor2" transform="translate(220.0,20.0) scale(1.0)"><rect x="10" y="5" width="60" height="40" rx="8" fill="currentColor" stroke="black" stroke-width="2" /><circle cx="30" cy="25" r="6" fill="white" /><circle cx="50" cy="25" r="6" fill="white" /><line x1="25" y1="38" x2="55" y2="38" stroke="black" stroke-width="2" /></g><g id="antena1" transform="translate(220.0000000000017,310.0) scale(1.0)"><line x1="40" y1="5" x2="40" y2="35" stroke="black" stroke-width="3" /><line x1="25" y1="15" x2="40" y2="5" stroke="black" stroke-width="2" /><line x1="55" y1="15" x2="40" y2="5" stroke="black" stroke-width="2" /><circle cx="40" cy="5" r="4" fill="red" /><rect x="20" y="35" width="40" height="12" rx="3" fill="currentColor" stroke="black" stroke-width="1.5" /></g><g id="cam1" transform="translate(340.0,20.0) scale(1.0)"><rect x="5" y="12" width="50" height="30" rx="4" fill="currentColor" stroke="black" stroke-width="2" /><polygon points="55,17 75,8 75,42 55,37" fill="currentColor" stroke="black" stroke-width="2" /><circle cx="25" cy="27" r="8" fill="white" stroke="black" stroke-width="1.5" /><circle cx="25" cy="27" r="3" fill="black" /></g><g id="srv"><rect fill="url(#gradient-srv)" height="50" rx="4" ry="4" stroke="black" stroke-width="1.2" width="80" x="220.0000000000017" y="600.0" /><line stroke="#737373" stroke-width="0.8" x1="222.0000000000017" x2="298.0000000000017" y1="616.6666666666666" y2="616.6666666666666" /><line stroke="#737373" stroke-width="0.8" x1="222.0000000000017" x2="298.0000000000017" y1="633.3333333333334" y2="633.3333333333334" /><circle cx="288.0000000000017" cy="608.3333333333334" fill="#00cc44" r="2.5" stroke="#737373" stroke-width="0.5" /><circle cx="280.0000000000017" cy="608.3333333333334" fill="#ffaa00" r="2.5" stroke="#737373" stroke-width="0.5" /><circle cx="288.0000000000017" cy="625.0" fill="#00cc44" r="2.5" stroke="#737373" stroke-width="0.5" /><circle cx="280.0000000000017" cy="625.0" fill="#ffaa00" r="2.5" stroke="#737373" stroke-width="0.5" /><circle cx="288.0000000000017" cy="641.6666666666667" fill="#00cc44" r="2.5" stroke="#737373" stroke-width="0.5" /><circle cx="280.0000000000017" cy="641.6666666666667" fill="#ffaa00" r="2.5" stroke="#737373" stroke-width="0.5" /><line stroke="#737373" stroke-width="0.6" x1="226.0000000000017" x2="238.0000000000017" y1="605.0" y2="605.0" /><line stroke="#737373" stroke-width="0.6" x1="226.0000000000017" x2="238.0000000000017" y1="608.3333333333334" y2="608.3333333333334" /><line stroke="#737373" stroke-width="0.6" x1="226.0000000000017" x2="238.0000000000017" y1="611.6666666666666" y2="611.6666666666666" /><line stroke="#737373" stroke-width="0.6" x1="226.0000000000017" x2="238.0000000000017" y1="621.6666666666666" y2="621.6666666666666" /><line stroke="#737373" stroke-width="0.6" x1="226.0000000000017" x2="238.0000000000017" y1="625.0" y2="625.0" /><line stroke="#737373" stroke-width="0.6" x1="226.0000000000017" x2="238.0000000000017" y1="628.3333333333333" y2="628.3333333333333" /><line stroke="#737373" stroke-width="0.6" x1="226.0000000000017" x2="238.0000000000017" y1="638.3333333333334" y2="638.3333333333334" /><line stroke="#737373" stroke-width="0.6" x1="226.0000000000017" x2="238.0000000000017" y1="641.6666666666667" y2="641.6666666666667" /><line stroke="#737373" stroke-width="0.6" x1="226.0000000000017" x2="238.0000000000017" y1="645.0" y2="645.0" /></g><g id="db1"><rect fill="url(#gradient-db1)" height="30.0" stroke="none" width="67.2" x="226.4000000000017" y="900.0" /><line stroke="black" stroke-width="1.2" x1="226.4000000000017" x2="226.4000000000017" y1="900.0" y2="930.0" /><line stroke="black" stroke-width="1.2" x1="293.6000000000017" x2="293.6000000000017" y1="900.0" y2="930.0" /><ellipse cx="260.0000000000017" cy="930.0" fill="url(#gradient-db1)" rx="33.6" ry="8" stroke="black" stroke-width="1.2" /><ellipse cx="260.0000000000017" cy="900.0" fill="#ffc04c" rx="33.6" ry="8" stroke="black" stroke-width="1.2" /><ellipse cx="260.0000000000017" cy="910.0" fill="none" rx="33.6" ry="4.8" stroke="#996300" stroke-width="0.6" /><ellipse cx="260.0000000000017" cy="920.0" fill="none" rx="33.6" ry="4.8" stroke="#996300" stroke-width="0.6" /></g><line marker-end="url(#arrow-end)" marker-start="url(#circle-start)" stroke="black" stroke-width="2" x1="152.23525736724173" x2="247.76474263275998" y1="74.56853863750044" y2="305.43146136249953" /><line marker-end="url(#arrow-end)" marker-start="url(#circle-start)" stroke="black" stroke-width="2" x1="260.00000000000017" x2="260.00000000000153" y1="77.0" y2="303.0" /><line marker-end="url(#arrow-end)" marker-start="url(#circle-start)" stroke="black" stroke-width="2" x1="367.76474263275855" x2="272.23525736724315" y1="74.56853863750057" y2="305.4314613624994" /><polyline fill="none" marker-end="url(#arrow-end)" marker-start="url(#circle-start)" points="260.0000000000017,367.0 260.0000000000017,605.5" stroke="black" stroke-width="2" /><polyline fill="none" marker-end="url(#arrow-end)" marker-start="url(#circle-start)" points="260.0000000000017,669.5 260.0000000000017,883.0" stroke="black" stroke-width="2" /><text fill="black" filter="url(#text-glow)" font-family="Arial, sans-serif" font-size="14px" text-anchor="middle" x="140.0" y="91.0">Sensor Temp</text><text fill="black" filter="url(#text-glow)" font-family="Arial, sans-serif" font-size="14px" text-anchor="middle" x="140.0" y="109.0">Zona Norte</text><text fill="black" filter="url(#text-glow)" font-family="Arial, sans-serif" font-size="14px" text-anchor="middle" x="260.0" y="91.0">Sensor Humedad</text><text fill="black" filter="url(#text-glow)" font-family="Arial, sans-serif" font-size="14px" text-anchor="middle" x="260.0" y="109.0">Zona Sur</text><text fill="black" filter="url(#text-glow)" font-family="Arial, sans-serif" font-size="14px" text-anchor="start" x="312.6000000000017" y="335.0">Antena WiFi</text><text fill="black" filter="url(#text-glow)" font-family="Arial, sans-serif" font-size="14px" text-anchor="start" x="312.6000000000017" y="353.0">Edificio A</text><text fill="black" filter="url(#text-glow)" font-family="Arial, sans-serif" font-size="14px" text-anchor="start" x="432.6" y="45.0">Camara IP</text><text fill="black" filter="url(#text-glow)" font-family="Arial, sans-serif" font-size="14px" text-anchor="start" x="432.6" y="63.0">Entrada</text><text fill="black" filter="url(#text-glow)" font-family="Arial, sans-serif" font-size="14px" text-anchor="start" x="312.6000000000017" y="625.0">Servidor Central</text><text fill="black" filter="url(#text-glow)" font-family="Arial, sans-serif" font-size="14px" text-anchor="middle" x="260.0000000000017" y="961.0">Base de Datos</text><text fill="black" filter="url(#text-glow)" font-family="Arial, sans-serif" font-size="14px" text-anchor="middle" x="260.0000000000017" y="979.0">Sensores</text><text fill="gray" filter="url(#text-glow)" font-family="Arial, sans-serif" font-size="12px" text-anchor="end" x="149.20000000000084" y="190.0">2.4GHz</text><text fill="gray" filter="url(#text-glow)" font-family="Arial, sans-serif" font-size="12px" text-anchor="start" x="310.80000000000086" y="233.0">2.4GHz</text><text fill="gray" filter="url(#text-glow)" font-family="Arial, sans-serif" font-size="12px" text-anchor="middle" x="320.00000000000085" y="147.0">5GHz</text><text fill="gray" filter="url(#text-glow)" font-family="Arial, sans-serif" font-size="12px" text-anchor="end" x="209.2000000000017" y="486.25">Ethernet</text><text fill="gray" filter="url(#text-glow)" font-family="Arial, sans-serif" font-size="12px" text-anchor="end" x="209.2000000000017" y="776.25">SQL</text></svg>