<?xml version="1.0" encoding="utf-8" ?>
<svg baseProfile="full" height="1480.0" version="1.1" viewBox="0,0,3790.0,1480.0" width="3790.0" xmlns="http://www.w3.org/2000/svg" xmlns:ev="http://www.w3.org/2001/xml-events" xmlns:xlink="http://www.w3.org/1999/xlink"><defs><filter height="140%" id="text-glow" width="140%" x="-20%" y="-20%"><feGaussianBlur in="SourceGraphic" result="blur" stdDeviation="2" /><feFlood flood-color="white" flood-opacity="1" result="color" /><feComposite in="color" in2="blur" operator="in" result="shadow" /><feMerge><feMergeNode in="shadow" /><feMergeNode in="shadow" /><feMergeNode in="SourceGraphic" /></feMerge></filter><marker id="arrow-end" markerHeight="10" markerWidth="10" orient="auto" refX="10" refY="5"><path d="M 0 0 L 10 5 L 0 10 z" fill="black" /></marker><marker id="arrow-start" markerHeight="10" markerWidth="10" orient="auto" refX="0" refY="5"><path d="M 10 0 L 0 5 L 10 10 z" fill="black" /></marker><marker id="circle-start" markerHeight="10" markerWidth="10" orient="auto" refX="5" refY="5"><circle cx="5" cy="5" fill="black" r="4" /></marker><marker id="circle-end" markerHeight="10" markerWidth="10" orient="auto" refX="5" refY="5"><circle cx="5" cy="5" fill="black" r="4" /></marker></defs><g id="jose_heraclides" transform="translate(1060.0,20.0) scale(1.0)"><circle cx="40" cy="15" r="8" fill="white" /><rect x="30" y="24" width="20" height="16" rx="4" fill="white" /><rect x="36" y="28" width="8" height="12" fill="currentColor" /></g><g id="daria" transform="translate(2500.0,20.0) scale(1.0)"><circle cx="40" cy="15" r="8" fill="white" /><path d="M30 26 Q40 20 50 26 L45 40 L35 40 Z" fill="white" /></g><g id="union_padres" transform="translate(1540.0,310.0) scale(1.0)"><circle cx="30" cy="25" r="10" fill="none" stroke="white" stroke-width="3" /><circle cx="50" cy="25" r="10" fill="none" stroke="white" stroke-width="3" /></g><g id="silvia" transform="translate(580.0,600.0) scale(1.0)"><circle cx="40" cy="15" r="8" fill="white" /><path d="M30 26 Q40 20 50 26 L45 40 L35 40 Z" fill="white" /></g><g id="lika" transform="translate(2500.0,600.0) scale(1.0)"><circle cx="40" cy="15" r="8" fill="white" /><path d="M30 26 Q40 20 50 26 L45 40 L35 40 Z" fill="white" /></g><g id="patricia" transform="translate(2020.0,600.0) scale(1.0)"><circle cx="40" cy="15" r="8" fill="white" /><path d="M30 26 Q40 20 50 26 L45 40 L35 40 Z" fill="white" /></g><g id="santiago" transform="translate(1540.0,600.0) scale(1.0)"><circle cx="40" cy="15" r="8" fill="white" /><rect x="30" y="24" width="20" height="16" rx="4" fill="white" /><rect x="36" y="28" width="8" height="12" fill="currentColor" /></g><g id="jose" transform="translate(1060.0,600.0) scale(1.0)"><circle cx="40" cy="15" r="8" fill="white" /><rect x="30" y="24" width="20" height="16" rx="4" fill="white" /><rect x="36" y="28" width="8" height="12" fill="currentColor" /></g><g id="martin" transform="translate(580.0,20.0) scale(1.0)"><circle cx="40" cy="15" r="8" fill="white" /><rect x="30" y="24" width="20" height="16" rx="4" fill="white" /><rect x="36" y="28" width="8" height="12" fill="currentColor" /></g><g id="ricardo" transform="translate(1540.0,20.0) scale(1.0)"><circle cx="40" cy="15" r="8" fill="white" /><rect x="30" y="24" width="20" height="16" rx="4" fill="white" /><rect x="36" y="28" width="8" height="12" fill="currentColor" /></g><g id="claudia" transform="translate(2020.0,20.0) scale(1.0)"><circle cx="40" cy="15" r="8" fill="white" /><path d="M30 26 Q40 20 50 26 L45 40 L35 40 Z" fill="white" /></g><g id="leila" transform="translate(2980.0,20.0) scale(1.0)"><circle cx="40" cy="15" r="8" fill="white" /><path d="M30 26 Q40 20 50 26 L45 40 L35 40 Z" fill="white" /></g><g id="union_lika" transform="translate(2500.0,890.0) scale(1.0)"><circle cx="30" cy="25" r="10" fill="none" stroke="white" stroke-width="3" /><circle cx="50" cy="25" r="10" fill="none" stroke="white" stroke-width="3" /></g><g id="union_patricia" transform="translate(2020.0,890.0) scale(1.0)"><circle cx="30" cy="25" r="10" fill="none" stroke="white" stroke-width="3" /><circle cx="50" cy="25" r="10" fill="none" stroke="white" stroke-width="3" /></g><g id="union_jose" transform="translate(1060.0,890.0) scale(1.0)"><circle cx="30" cy="25" r="10" fill="none" stroke="white" stroke-width="3" /><circle cx="50" cy="25" r="10" fill="none" stroke="white" stroke-width="3" /></g><g id="union_santiago" transform="translate(1540.0,890.0) scale(1.0)"><circle cx="30" cy="25" r="10" fill="none" stroke="white" stroke-width="3" /><circle cx="50" cy="25" r="10" fill="none" stroke="white" stroke-width="3" /></g><g id="sebastian" transform="translate(580.0,890.0) scale(1.0)"><circle cx="40" cy="17" r="6" fill="white" /><rect x="34" y="24" width="12" height="14" rx="3" fill="white" /></g><g id="mateo" transform="translate(2980.0,1180.0) scale(1.0)"><circle cx="40" cy="17" r="6" fill="white" /><rect x="34" y="24" width="12" height="14" rx="3" fill="white" /></g><g id="pascual" transform="translate(3460.0,1180.0) scale(1.0)"><circle cx="40" cy="17" r="6" fill="white" /><rect x="34" y="24" width="12" height="14" rx="3" fill="white" /></g><g id="diego" transform="translate(2500.0,1180.0) scale(1.0)"><circle cx="40" cy="17" r="6" fill="white" /><rect x="34" y="24" width="12" height="14" rx="3" fill="white" /></g><g id="jose_antonio" transform="translate(1540.0,1180.0) scale(1.0)"><circle cx="40" cy="17" r="6" fill="white" /><rect x="34" y="24" width="12" height="14" rx="3" fill="white" /></g><g id="patricia_hija" transform="translate(1060.0,1180.0) scale(1.0)"><circle cx="40" cy="17" r="6" fill="white" /><rect x="34" y="24" width="12" height="14" rx="3" fill="white" /></g><g id="santiaguito" transform="translate(2020.0,1180.0) scale(1.0)"><circle cx="40" cy="17" r="6" fill="white" /><rect x="34" y="24" width="12" height="14" rx="3" fill="white" /></g><g id="gerardo" transform="translate(100.0,1180.0) scale(1.0)"><circle cx="40" cy="17" r="6" fill="white" /><rect x="34" y="24" width="12" height="14" rx="3" fill="white" /></g><g id="dante" transform="translate(580.0,1180.0) scale(1.0)"><circle cx="40" cy="17" r="6" fill="white" /><rect x="34" y="24" width="12" height="14" rx="3" fill="white" /></g><path d="M 1140.0,100.1 L 1140.0,286.9 Q 1140.0,311.9 1165.0,311.9 L 1508.0,311.9" fill="none" stroke="black" stroke-width="2" /><path d="M 2500.0,100.1 L 2500.0,286.9 Q 2500.0,311.9 2475.0,311.9 L 1652.0,311.9" fill="none" stroke="black" stroke-width="2" /><path d="M 1508.0,353.7 L 689.0,353.7 Q 664.0,353.7 664.0,378.7 L 664.0,569.9" fill="none" stroke="black" stroke-width="2" /><path d="M 1652.0,353.7 L 2475.0,353.7 Q 2500.0,353.7 2500.0,378.7 L 2500.0,569.9" fill="none" stroke="black" stroke-width="2" /><path d="M 1647.7,360.0 L 1999.0,360.0 Q 2024.0,360.0 2024.0,385.0 L 2024.0,569.9" fill="none" stroke="black" stroke-width="2" /><polyline fill="none" points="1580.0,392.0 1580.0,568.0" stroke="black" stroke-width="2" /><path d="M 1512.3,360.0 L 1165.0,360.0 Q 1140.0,360.0 1140.0,385.0 L 1140.0,569.9" fill="none" stroke="black" stroke-width="2" /><polyline fill="none" points="620.0,682.0 620.0,858.0" stroke="black" stroke-width="2" /><polyline fill="none" points="2540.0,682.0 2540.0,858.0" stroke="black" stroke-width="2" /><path d="M 656.0,100.1 L 656.0,451.0 Q 656.0,476.0 681.0,476.0 L 2450.0,476.0 Q 2475.0,476.0 2475.0,501.0 L 2475.0,888.4 Q 2475.0,891.9 2471.5,891.9 L 2468.0,891.9" fill="none" stroke="black" stroke-width="2" /><path d="M 2575.7,972.0 L 2575.7,1031.0 Q 2575.7,1056.0 2600.7,1056.0 L 2955.0,1056.0 Q 2980.0,1056.0 2980.0,1081.0 L 2980.0,1149.9" fill="none" stroke="black" stroke-width="2" /><path d="M 2580.0,965.7 L 2580.0,1039.0 Q 2580.0,1064.0 2605.0,1064.0 L 3435.0,1064.0 Q 3460.0,1064.0 3460.0,1089.0 L 3460.0,1149.9" fill="none" stroke="black" stroke-width="2" /><polyline fill="none" points="2060.0,682.0 2060.0,858.0" stroke="black" stroke-width="2" /><path d="M 1594.4,102.0 L 1594.4,165.0 Q 1594.4,190.0 1619.4,190.0 L 1970.0,190.0 Q 1995.0,190.0 1995.0,215.0 L 1995.0,749.0 Q 1995.0,774.0 2020.0,774.0 L 2020.6,774.0 Q 2045.6,774.0 2045.6,799.0 L 2045.6,858.0" fill="none" stroke="black" stroke-width="2" /><path d="M 2100.0,970.1 L 2100.0,1035.0 Q 2100.0,1060.0 2125.0,1060.0 L 2475.0,1060.0 Q 2500.0,1060.0 2500.0,1085.0 L 2500.0,1149.9" fill="none" stroke="black" stroke-width="2" /><polyline fill="none" points="1100.0,682.0 1100.0,858.0" stroke="black" stroke-width="2" /><path d="M 2016.0,100.1 L 2016.0,459.0 Q 2016.0,484.0 1991.0,484.0 L 1190.0,484.0 Q 1165.0,484.0 1165.0,509.0 L 1165.0,888.4 Q 1165.0,891.9 1168.5,891.9 L 1172.0,891.9" fill="none" stroke="black" stroke-width="2" /><path d="M 1060.0,965.7 L 1060.0,1031.0 Q 1060.0,1056.0 1035.0,1056.0 L 205.0,1056.0 Q 180.0,1056.0 180.0,1081.0 L 180.0,1149.9" fill="none" stroke="black" stroke-width="2" /><path d="M 1064.3,972.0 L 1064.3,1039.0 Q 1064.3,1064.0 1039.3,1064.0 L 685.0,1064.0 Q 660.0,1064.0 660.0,1089.0 L 660.0,1149.9" fill="none" stroke="black" stroke-width="2" /><polyline fill="none" points="1580.0,682.0 1580.0,858.0" stroke="black" stroke-width="2" /><path d="M 2980.0,100.1 L 2980.0,741.0 Q 2980.0,766.0 2955.0,766.0 L 1645.0,766.0 Q 1620.0,766.0 1620.0,791.0 L 1620.0,859.9" fill="none" stroke="black" stroke-width="2" /><polyline fill="none" points="1580.0,972.0 1580.0,1148.0" stroke="black" stroke-width="2" /><path d="M 1540.0,970.1 L 1540.0,1035.0 Q 1540.0,1060.0 1515.0,1060.0 L 1165.0,1060.0 Q 1140.0,1060.0 1140.0,1085.0 L 1140.0,1149.9" fill="none" stroke="black" stroke-width="2" /><path d="M 1620.0,970.1 L 1620.0,1035.0 Q 1620.0,1060.0 1645.0,1060.0 L 1995.0,1060.0 Q 2020.0,1060.0 2020.0,1085.0 L 2020.0,1149.9" fill="none" stroke="black" stroke-width="2" /><text fill="black" filter="url(#text-glow)" font-family="Arial, sans-serif" font-size="14px" text-anchor="start" x="1152.6" y="45.0">José Heráclides</text><text fill="black" filter="url(#text-glow)" font-family="Arial, sans-serif" font-size="14px" text-anchor="middle" x="2540.0" y="91.0">Daría</text><text fill="black" filter="url(#text-glow)" font-family="Arial, sans-serif" font-size="14px" text-anchor="middle" x="620.0" y="579.0">Silvia</text><text fill="black" filter="url(#text-glow)" font-family="Arial, sans-serif" font-size="14px" text-anchor="middle" x="2540.0" y="579.0">Lika</text><text fill="black" filter="url(#text-glow)" font-family="Arial, sans-serif" font-size="14px" text-anchor="middle" x="2060.0" y="579.0">Patricia</text><text fill="black" filter="url(#text-glow)" font-family="Arial, sans-serif" font-size="14px" text-anchor="start" x="1632.6" y="625.0">Santiago</text><text fill="black" filter="url(#text-glow)" font-family="Arial, sans-serif" font-size="14px" text-anchor="middle" x="1100.0" y="579.0">José</text><text fill="black" filter="url(#text-glow)" font-family="Arial, sans-serif" font-size="14px" text-anchor="middle" x="620.0" y="91.0">Martín</text><text fill="black" filter="url(#text-glow)" font-family="Arial, sans-serif" font-size="14px" text-anchor="start" x="1632.6" y="45.0">Ricardo</text><text fill="black" filter="url(#text-glow)" font-family="Arial, sans-serif" font-size="14px" text-anchor="middle" x="2060.0" y="91.0">Claudia</text><text fill="black" filter="url(#text-glow)" font-family="Arial, sans-serif" font-size="14px" text-anchor="middle" x="3020.0" y="91.0">Leila</text><text fill="black" filter="url(#text-glow)" font-family="Arial, sans-serif" font-size="14px" text-anchor="middle" x="620.0" y="961.0">Sebastián</text><text fill="black" filter="url(#text-glow)" font-family="Arial, sans-serif" font-size="14px" text-anchor="middle" x="3020.0" y="1251.0">Mateo</text><text fill="black" filter="url(#text-glow)" font-family="Arial, sans-serif" font-size="14px" text-anchor="middle" x="3500.0" y="1251.0">Pascual</text><text fill="black" filter="url(#text-glow)" font-family="Arial, sans-serif" font-size="14px" text-anchor="middle" x="2540.0" y="1251.0">Diego</text><text fill="black" filter="url(#text-glow)" font-family="Arial, sans-serif" font-size="14px" text-anchor="middle" x="1580.0" y="1251.0">José Antonio</text><text fill="black" filter="url(#text-glow)" font-family="Arial, sans-serif" font-size="14px" text-anchor="middle" x="1100.0" y="1251.0">Patricia</text><text fill="black" filter="url(#text-glow)" font-family="Arial, sans-serif" font-size="14px" text-anchor="middle" x="2060.0" y="1251.0">Santiaguito</text><text fill="black" filter="url(#text-glow)" font-family="Arial, sans-serif" font-size="14px" text-anchor="middle" x="140.0" y="1251.0">Gerardo</text><text fill="black" filter="url(#text-glow)" font-family="Arial, sans-serif" font-size="14px" text-anchor="middle" x="620.0" y="1251.0">Dante</text></svg>