<?xml version="1.0" encoding="utf-8" ?>
<svg xmlns:ns0="http://www.w3.org/2000/svg" baseProfile="full" height="900" version="1.1" viewBox="0,0,1460,900" width="1460" xmlns="http://www.w3.org/2000/svg" xmlns:ev="http://www.w3.org/2001/xml-events" xmlns:xlink="http://www.w3.org/1999/xlink"><defs><filter height="140%" id="text-glow" width="140%" x="-20%" y="-20%"><feGaussianBlur in="SourceGraphic" result="blur" stdDeviation="2" /><feFlood flood-color="white" flood-opacity="1" result="color" /><feComposite in="color" in2="blur" operator="in" result="shadow" /><feMerge><feMergeNode in="shadow" /><feMergeNode in="shadow" /><feMergeNode in="SourceGraphic" /></feMerge></filter><marker id="arrow-end" markerHeight="10" markerWidth="10" orient="auto" refX="10" refY="5"><path d="M 0 0 L 10 5 L 0 10 z" fill="black" /></marker><marker id="arrow-start" markerHeight="10" markerWidth="10" orient="auto" refX="0" refY="5"><path d="M 10 0 L 0 5 L 10 10 z" fill="black" /></marker><marker id="circle-start" markerHeight="10" markerWidth="10" orient="auto" refX="5" refY="5"><circle cx="5" cy="5" fill="black" r="4" /></marker><marker id="circle-end" markerHeight="10" markerWidth="10" orient="auto" refX="5" refY="5"><circle cx="5" cy="5" fill="black" r="4" /></marker><marker id="arrow-end-c0" markerHeight="10" markerWidth="10" orient="auto" refX="10" refY="5"><path d="M 0 0 L 10 5 L 0 10 z" fill="#c32222" /></marker><marker id="arrow-start-c0" markerHeight="10" markerWidth="10" orient="auto" refX="0" refY="5"><path d="M 10 0 L 0 5 L 10 10 z" fill="#c32222" /></marker><marker id="circle-start-c0" markerHeight="10" markerWidth="10" orient="auto" refX="5" refY="5"><circle cx="5" cy="5" fill="#c32222" r="4" /></marker><marker id="circle-end-c0" markerHeight="10" markerWidth="10" orient="auto" refX="5" refY="5"><circle cx="5" cy="5" fill="#c32222" r="4" /></marker><marker id="arrow-end-c1" markerHeight="10" markerWidth="10" orient="auto" refX="10" refY="5"><path d="M 0 0 L 10 5 L 0 10 z" fill="#c35e22" /></marker><marker id="arrow-start-c1" markerHeight="10" markerWidth="10" orient="auto" refX="0" refY="5"><path d="M 10 0 L 0 5 L 10 10 z" fill="#c35e22" /></marker><marker id="circle-start-c1" markerHeight="10" markerWidth="10" orient="auto" refX="5" refY="5"><circle cx="5" cy="5" fill="#c35e22" r="4" /></marker><marker id="circle-end-c1" markerHeight="10" markerWidth="10" orient="auto" refX="5" refY="5"><circle cx="5" cy="5" fill="#c35e22" r="4" /></marker><marker id="arrow-end-c2" markerHeight="10" markerWidth="10" orient="auto" refX="10" refY="5"><path d="M 0 0 L 10 5 L 0 10 z" fill="#c39a22" /></marker><marker id="arrow-start-c2" markerHeight="10" markerWidth="10" orient="auto" refX="0" refY="5"><path d="M 10 0 L 0 5 L 10 10 z" fill="#c39a22" /></marker><marker id="circle-start-c2" markerHeight="10" markerWidth="10" orient="auto" refX="5" refY="5"><circle cx="5" cy="5" fill="#c39a22" r="4" /></marker><marker id="circle-end-c2" markerHeight="10" markerWidth="10" orient="auto" refX="5" refY="5"><circle cx="5" cy="5" fill="#c39a22" r="4" /></marker><marker id="arrow-end-c3" markerHeight="10" markerWidth="10" orient="auto" refX="10" refY="5"><path d="M 0 0 L 10 5 L 0 10 z" fill="#aec322" /></marker><marker id="arrow-start-c3" markerHeight="10" markerWidth="10" orient="auto" refX="0" refY="5"><path d="M 10 0 L 0 5 L 10 10 z" fill="#aec322" /></marker><marker id="circle-start-c3" markerHeight="10" markerWidth="10" orient="auto" refX="5" refY="5"><circle cx="5" cy="5" fill="#aec322" r="4" /></marker><marker id="circle-end-c3" markerHeight="10" markerWidth="10" orient="auto" refX="5" refY="5"><circle cx="5" cy="5" fill="#aec322" r="4" /></marker><marker id="arrow-end-c4" markerHeight="10" markerWidth="10" orient="auto" refX="10" refY="5"><path d="M 0 0 L 10 5 L 0 10 z" fill="#72c322" /></marker><marker id="arrow-start-c4" markerHeight="10" markerWidth="10" orient="auto" refX="0" refY="5"><path d="M 10 0 L 0 5 L 10 10 z" fill="#72c322" /></marker><marker id="circle-start-c4" markerHeight="10" markerWidth="10" orient="auto" refX="5" refY="5"><circle cx="5" cy="5" fill="#72c322" r="4" /></marker><marker id="circle-end-c4" markerHeight="10" markerWidth="10" orient="auto" refX="5" refY="5"><circle cx="5" cy="5" fill="#72c322" r="4" /></marker><marker id="arrow-end-c5" markerHeight="10" markerWidth="10" orient="auto" refX="10" refY="5"><path d="M 0 0 L 10 5 L 0 10 z" fill="#36c322" /></marker><marker id="arrow-start-c5" markerHeight="10" markerWidth="10" orient="auto" refX="0" refY="5"><path d="M 10 0 L 0 5 L 10 10 z" fill="#36c322" /></marker><marker id="circle-start-c5" markerHeight="10" markerWidth="10" orient="auto" refX="5" refY="5"><circle cx="5" cy="5" fill="#36c322" r="4" /></marker><marker id="circle-end-c5" markerHeight="10" markerWidth="10" orient="auto" refX="5" refY="5"><circle cx="5" cy="5" fill="#36c322" r="4" /></marker><marker id="arrow-end-c6" markerHeight="10" markerWidth="10" orient="auto" refX="10" refY="5"><path d="M 0 0 L 10 5 L 0 10 z" fill="#22c34a" /></marker><marker id="arrow-start-c6" markerHeight="10" markerWidth="10" orient="auto" refX="0" refY="5"><path d="M 10 0 L 0 5 L 10 10 z" fill="#22c34a" /></marker><marker id="circle-start-c6" markerHeight="10" markerWidth="10" orient="auto" refX="5" refY="5"><circle cx="5" cy="5" fill="#22c34a" r="4" /></marker><marker id="circle-end-c6" markerHeight="10" markerWidth="10" orient="auto" refX="5" refY="5"><circle cx="5" cy="5" fill="#22c34a" r="4" /></marker><marker id="arrow-end-c7" markerHeight="10" markerWidth="10" orient="auto" refX="10" refY="5"><path d="M 0 0 L 10 5 L 0 10 z" fill="#22c386" /></marker><marker id="arrow-start-c7" markerHeight="10" markerWidth="10" orient="auto" refX="0" refY="5"><path d="M 10 0 L 0 5 L 10 10 z" fill="#22c386" /></marker><marker id="circle-start-c7" markerHeight="10" markerWidth="10" orient="auto" refX="5" refY="5"><circle cx="5" cy="5" fill="#22c386" r="4" /></marker><marker id="circle-end-c7" markerHeight="10" markerWidth="10" orient="auto" refX="5" refY="5"><circle cx="5" cy="5" fill="#22c386" r="4" /></marker><marker id="arrow-end-c8" markerHeight="10" markerWidth="10" orient="auto" refX="10" refY="5"><path d="M 0 0 L 10 5 L 0 10 z" fill="#22c3c3" /></marker><marker id="arrow-start-c8" markerHeight="10" markerWidth="10" orient="auto" refX="0" refY="5"><path d="M 10 0 L 0 5 L 10 10 z" fill="#22c3c3" /></marker><marker id="circle-start-c8" markerHeight="10" markerWidth="10" orient="auto" refX="5" refY="5"><circle cx="5" cy="5" fill="#22c3c3" r="4" /></marker><marker id="circle-end-c8" markerHeight="10" markerWidth="10" orient="auto" refX="5" refY="5"><circle cx="5" cy="5" fill="#22c3c3" r="4" /></marker><marker id="arrow-end-c9" markerHeight="10" markerWidth="10" orient="auto" refX="10" refY="5"><path d="M 0 0 L 10 5 L 0 10 z" fill="#2286c3" /></marker><marker id="arrow-start-c9" markerHeight="10" markerWidth="10" orient="auto" refX="0" refY="5"><path d="M 10 0 L 0 5 L 10 10 z" fill="#2286c3" /></marker><marker id="circle-start-c9" markerHeight="10" markerWidth="10" orient="auto" refX="5" refY="5"><circle cx="5" cy="5" fill="#2286c3" r="4" /></marker><marker id="circle-end-c9" markerHeight="10" markerWidth="10" orient="auto" refX="5" refY="5"><circle cx="5" cy="5" fill="#2286c3" r="4" /></marker><marker id="arrow-end-c10" markerHeight="10" markerWidth="10" orient="auto" refX="10" refY="5"><path d="M 0 0 L 10 5 L 0 10 z" fill="#224ac3" /></marker><marker id="arrow-start-c10" markerHeight="10" markerWidth="10" orient="auto" refX="0" refY="5"><path d="M 10 0 L 0 5 L 10 10 z" fill="#224ac3" /></marker><marker id="circle-start-c10" markerHeight="10" markerWidth="10" orient="auto" refX="5" refY="5"><circle cx="5" cy="5" fill="#224ac3" r="4" /></marker><marker id="circle-end-c10" markerHeight="10" markerWidth="10" orient="auto" refX="5" refY="5"><circle cx="5" cy="5" fill="#224ac3" r="4" /></marker><marker id="arrow-end-c11" markerHeight="10" markerWidth="10" orient="auto" refX="10" refY="5"><path d="M 0 0 L 10 5 L 0 10 z" fill="#3622c3" /></marker><marker id="arrow-start-c11" markerHeight="10" markerWidth="10" orient="auto" refX="0" refY="5"><path d="M 10 0 L 0 5 L 10 10 z" fill="#3622c3" /></marker><marker id="circle-start-c11" markerHeight="10" markerWidth="10" orient="auto" refX="5" refY="5"><circle cx="5" cy="5" fill="#3622c3" r="4" /></marker><marker id="circle-end-c11" markerHeight="10" markerWidth="10" orient="auto" refX="5" refY="5"><circle cx="5" cy="5" fill="#3622c3" r="4" /></marker><marker id="arrow-end-c12" markerHeight="10" markerWidth="10" orient="auto" refX="10" refY="5"><path d="M 0 0 L 10 5 L 0 10 z" fill="#7222c3" /></marker><marker id="arrow-start-c12" markerHeight="10" markerWidth="10" orient="auto" refX="0" refY="5"><path d="M 10 0 L 0 5 L 10 10 z" fill="#7222c3" /></marker><marker id="circle-start-c12" markerHeight="10" markerWidth="10" orient="auto" refX="5" refY="5"><circle cx="5" cy="5" fill="#7222c3" r="4" /></marker><marker id="circle-end-c12" markerHeight="10" markerWidth="10" orient="auto" refX="5" refY="5"><circle cx="5" cy="5" fill="#7222c3" r="4" /></marker><marker id="arrow-end-c13" markerHeight="10" markerWidth="10" orient="auto" refX="10" refY="5"><path d="M 0 0 L 10 5 L 0 10 z" fill="#ae22c3" /></marker><marker id="arrow-start-c13" markerHeight="10" markerWidth="10" orient="auto" refX="0" refY="5"><path d="M 10 0 L 0 5 L 10 10 z" fill="#ae22c3" /></marker><marker id="circle-start-c13" markerHeight="10" markerWidth="10" orient="auto" refX="5" refY="5"><circle cx="5" cy="5" fill="#ae22c3" r="4" /></marker><marker id="circle-end-c13" markerHeight="10" markerWidth="10" orient="auto" refX="5" refY="5"><circle cx="5" cy="5" fill="#ae22c3" r="4" /></marker><marker id="arrow-end-c14" markerHeight="10" markerWidth="10" orient="auto" refX="10" refY="5"><path d="M 0 0 L 10 5 L 0 10 z" fill="#c3229a" /></marker><marker id="arrow-start-c14" markerHeight="10" markerWidth="10" orient="auto" refX="0" refY="5"><path d="M 10 0 L 0 5 L 10 10 z" fill="#c3229a" /></marker><marker id="circle-start-c14" markerHeight="10" markerWidth="10" orient="auto" refX="5" refY="5"><circle cx="5" cy="5" fill="#c3229a" r="4" /></marker><marker id="circle-end-c14" markerHeight="10" markerWidth="10" orient="auto" refX="5" refY="5"><circle cx="5" cy="5" fill="#c3229a" r="4" /></marker><marker id="arrow-end-c15" markerHeight="10" markerWidth="10" orient="auto" refX="10" refY="5"><path d="M 0 0 L 10 5 L 0 10 z" fill="#c3225e" /></marker><marker id="arrow-start-c15" markerHeight="10" markerWidth="10" orient="auto" refX="0" refY="5"><path d="M 10 0 L 0 5 L 10 10 z" fill="#c3225e" /></marker><marker id="circle-start-c15" markerHeight="10" markerWidth="10" orient="auto" refX="5" refY="5"><circle cx="5" cy="5" fill="#c3225e" r="4" /></marker><marker id="circle-end-c15" markerHeight="10" markerWidth="10" orient="auto" refX="5" refY="5"><circle cx="5" cy="5" fill="#c3225e" r="4" /></marker></defs><rect fill="#E6F2FF" height="80" opacity="0.3" width="1460" x="0" y="0" /><rect fill="#B0C4DE" fill-opacity="0.9" height="60" rx="5" ry="5" stroke="#4682B4" stroke-width="2" width="240" x="1210" y="10" /><text fill="#001F3F" font-family="Arial, monospace" font-size="11px" font-weight="bold" x="1220" y="32">Generado: 2026-02-19 16:44:19</text><text fill="#001F3F" font-family="Arial, monospace" font-size="11px" font-weight="bold" x="1220" y="52">GAG v3.0.0</text><g id="grid" opacity="0.4"><line stroke="#C0C0C0" stroke-width="1" x1="0" x2="0" y1="0" y2="900" /><line stroke="#C0C0C0" stroke-width="1" x1="20" x2="20" y1="0" y2="900" /><line stroke="#C0C0C0" stroke-width="1" x1="40" x2="40" y1="0" y2="900" /><line stroke="#C0C0C0" stroke-width="1" x1="60" x2="60" y1="0" y2="900" /><line stroke="#C0C0C0" stroke-width="1" x1="80" x2="80" y1="0" y2="900" /><line stroke="#C0C0C0" stroke-width="1" x1="100" x2="100" y1="0" y2="900" /><line stroke="#C0C0C0" stroke-width="1" x1="120" x2="120" y1="0" y2="900" /><line stroke="#C0C0C0" stroke-width="1" x1="140" x2="140" y1="0" y2="900" /><line stroke="#C0C0C0" stroke-width="1" x1="160" x2="160" y1="0" y2="900" /><line stroke="#C0C0C0" stroke-width="1" x1="180" x2="180" y1="0" y2="900" /><line stroke="#C0C0C0" stroke-width="1" x1="200" x2="200" y1="0" y2="900" /><line stroke="#C0C0C0" stroke-width="1" x1="220" x2="220" y1="0" y2="900" /><line stroke="#C0C0C0" stroke-width="1" x1="240" x2="240" y1="0" y2="900" /><line stroke="#C0C0C0" stroke-width="1" x1="260" x2="260" y1="0" y2="900" /><line stroke="#C0C0C0" stroke-width="1" x1="280" x2="280" y1="0" y2="900" /><line stroke="#C0C0C0" stroke-width="1" x1="300" x2="300" y1="0" y2="900" /><line stroke="#C0C0C0" stroke-width="1" x1="320" x2="320" y1="0" y2="900" /><line stroke="#C0C0C0" stroke-width="1" x1="340" x2="340" y1="0" y2="900" /><line stroke="#C0C0C0" stroke-width="1" x1="360" x2="360" y1="0" y2="900" /><line stroke="#C0C0C0" stroke-width="1" x1="380" x2="380" y1="0" y2="900" /><line stroke="#C0C0C0" stroke-width="1" x1="400" x2="400" y1="0" y2="900" /><line stroke="#C0C0C0" stroke-width="1" x1="420" x2="420" y1="0" y2="900" /><line stroke="#C0C0C0" stroke-width="1" x1="440" x2="440" y1="0" y2="900" /><line stroke="#C0C0C0" stroke-width="1" x1="460" x2="460" y1="0" y2="900" /><line stroke="#C0C0C0" stroke-width="1" x1="480" x2="480" y1="0" y2="900" /><line stroke="#C0C0C0" stroke-width="1" x1="500" x2="500" y1="0" y2="900" /><line stroke="#C0C0C0" stroke-width="1" x1="520" x2="520" y1="0" y2="900" /><line stroke="#C0C0C0" stroke-width="1" x1="540" x2="540" y1="0" y2="900" /><line stroke="#C0C0C0" stroke-width="1" x1="560" x2="560" y1="0" y2="900" /><line stroke="#C0C0C0" stroke-width="1" x1="580" x2="580" y1="0" y2="900" /><line stroke="#C0C0C0" stroke-width="1" x1="600" x2="600" y1="0" y2="900" /><line stroke="#C0C0C0" stroke-width="1" x1="620" x2="620" y1="0" y2="900" /><line stroke="#C0C0C0" stroke-width="1" x1="640" x2="640" y1="0" y2="900" /><line stroke="#C0C0C0" stroke-width="1" x1="660" x2="660" y1="0" y2="900" /><line stroke="#C0C0C0" stroke-width="1" x1="680" x2="680" y1="0" y2="900" /><line stroke="#C0C0C0" stroke-width="1" x1="700" x2="700" y1="0" y2="900" /><line stroke="#C0C0C0" stroke-width="1" x1="720" x2="720" y1="0" y2="900" /><line stroke="#C0C0C0" stroke-width="1" x1="740" x2="740" y1="0" y2="900" /><line stroke="#C0C0C0" stroke-width="1" x1="760" x2="760" y1="0" y2="900" /><line stroke="#C0C0C0" stroke-width="1" x1="780" x2="780" y1="0" y2="900" /><line stroke="#C0C0C0" stroke-width="1" x1="800" x2="800" y1="0" y2="900" /><line stroke="#C0C0C0" stroke-width="1" x1="820" x2="820" y1="0" y2="900" /><line stroke="#C0C0C0" stroke-width="1" x1="840" x2="840" y1="0" y2="900" /><line stroke="#C0C0C0" stroke-width="1" x1="860" x2="860" y1="0" y2="900" /><line stroke="#C0C0C0" stroke-width="1" x1="880" x2="880" y1="0" y2="900" /><line stroke="#C0C0C0" stroke-width="1" x1="900" x2="900" y1="0" y2="900" /><line stroke="#C0C0C0" stroke-width="1" x1="920" x2="920" y1="0" y2="900" /><line stroke="#C0C0C0" stroke-width="1" x1="940" x2="940" y1="0" y2="900" /><line stroke="#C0C0C0" stroke-width="1" x1="960" x2="960" y1="0" y2="900" /><line stroke="#C0C0C0" stroke-width="1" x1="980" x2="980" y1="0" y2="900" /><line stroke="#C0C0C0" stroke-width="1" x1="1000" x2="1000" y1="0" y2="900" /><line stroke="#C0C0C0" stroke-width="1" x1="1020" x2="1020" y1="0" y2="900" /><line stroke="#C0C0C0" stroke-width="1" x1="1040" x2="1040" y1="0" y2="900" /><line stroke="#C0C0C0" stroke-width="1" x1="1060" x2="1060" y1="0" y2="900" /><line stroke="#C0C0C0" stroke-width="1" x1="1080" x2="1080" y1="0" y2="900" /><line stroke="#C0C0C0" stroke-width="1" x1="1100" x2="1100" y1="0" y2="900" /><line stroke="#C0C0C0" stroke-width="1" x1="1120" x2="1120" y1="0" y2="900" /><line stroke="#C0C0C0" stroke-width="1" x1="1140" x2="1140" y1="0" y2="900" /><line stroke="#C0C0C0" stroke-width="1" x1="1160" x2="1160" y1="0" y2="900" /><line stroke="#C0C0C0" stroke-width="1" x1="1180" x2="1180" y1="0" y2="900" /><line stroke="#C0C0C0" stroke-width="1" x1="1200" x2="1200" y1="0" y2="900" /><line stroke="#C0C0C0" stroke-width="1" x1="1220" x2="1220" y1="0" y2="900" /><line stroke="#C0C0C0" stroke-width="1" x1="1240" x2="1240" y1="0" y2="900" /><line stroke="#C0C0C0" stroke-width="1" x1="1260" x2="1260" y1="0" y2="900" /><line stroke="#C0C0C0" stroke-width="1" x1="1280" x2="1280" y1="0" y2="900" /><line stroke="#C0C0C0" stroke-width="1" x1="1300" x2="1300" y1="0" y2="900" /><line stroke="#C0C0C0" stroke-width="1" x1="1320" x2="1320" y1="0" y2="900" /><line stroke="#C0C0C0" stroke-width="1" x1="1340" x2="1340" y1="0" y2="900" /><line stroke="#C0C0C0" stroke-width="1" x1="1360" x2="1360" y1="0" y2="900" /><line stroke="#C0C0C0" stroke-width="1" x1="1380" x2="1380" y1="0" y2="900" /><line stroke="#C0C0C0" stroke-width="1" x1="1400" x2="1400" y1="0" y2="900" /><line stroke="#C0C0C0" stroke-width="1" x1="1420" x2="1420" y1="0" y2="900" /><line stroke="#C0C0C0" stroke-width="1" x1="1440" x2="1440" y1="0" y2="900" /><line stroke="#C0C0C0" stroke-width="1" x1="1460" x2="1460" y1="0" y2="900" /><line stroke="#C0C0C0" stroke-width="1" x1="0" x2="1460" y1="0" y2="0" /><line stroke="#C0C0C0" stroke-width="1" x1="0" x2="1460" y1="20" y2="20" /><line stroke="#C0C0C0" stroke-width="1" x1="0" x2="1460" y1="40" y2="40" /><line stroke="#C0C0C0" stroke-width="1" x1="0" x2="1460" y1="60" y2="60" /><line stroke="#C0C0C0" stroke-width="1" x1="0" x2="1460" y1="80" y2="80" /><line stroke="#C0C0C0" stroke-width="1" x1="0" x2="1460" y1="100" y2="100" /><line stroke="#C0C0C0" stroke-width="1" x1="0" x2="1460" y1="120" y2="120" /><line stroke="#C0C0C0" stroke-width="1" x1="0" x2="1460" y1="140" y2="140" /><line stroke="#C0C0C0" stroke-width="1" x1="0" x2="1460" y1="160" y2="160" /><line stroke="#C0C0C0" stroke-width="1" x1="0" x2="1460" y1="180" y2="180" /><line stroke="#C0C0C0" stroke-width="1" x1="0" x2="1460" y1="200" y2="200" /><line stroke="#C0C0C0" stroke-width="1" x1="0" x2="1460" y1="220" y2="220" /><line stroke="#C0C0C0" stroke-width="1" x1="0" x2="1460" y1="240" y2="240" /><line stroke="#C0C0C0" stroke-width="1" x1="0" x2="1460" y1="260" y2="260" /><line stroke="#C0C0C0" stroke-width="1" x1="0" x2="1460" y1="280" y2="280" /><line stroke="#C0C0C0" stroke-width="1" x1="0" x2="1460" y1="300" y2="300" /><line stroke="#C0C0C0" stroke-width="1" x1="0" x2="1460" y1="320" y2="320" /><line stroke="#C0C0C0" stroke-width="1" x1="0" x2="1460" y1="340" y2="340" /><line stroke="#C0C0C0" stroke-width="1" x1="0" x2="1460" y1="360" y2="360" /><line stroke="#C0C0C0" stroke-width="1" x1="0" x2="1460" y1="380" y2="380" /><line stroke="#C0C0C0" stroke-width="1" x1="0" x2="1460" y1="400" y2="400" /><line stroke="#C0C0C0" stroke-width="1" x1="0" x2="1460" y1="420" y2="420" /><line stroke="#C0C0C0" stroke-width="1" x1="0" x2="1460" y1="440" y2="440" /><line stroke="#C0C0C0" stroke-width="1" x1="0" x2="1460" y1="460" y2="460" /><line stroke="#C0C0C0" stroke-width="1" x1="0" x2="1460" y1="480" y2="480" /><line stroke="#C0C0C0" stroke-width="1" x1="0" x2="1460" y1="500" y2="500" /><line stroke="#C0C0C0" stroke-width="1" x1="0" x2="1460" y1="520" y2="520" /><line stroke="#C0C0C0" stroke-width="1" x1="0" x2="1460" y1="540" y2="540" /><line stroke="#C0C0C0" stroke-width="1" x1="0" x2="1460" y1="560" y2="560" /><line stroke="#C0C0C0" stroke-width="1" x1="0" x2="1460" y1="580" y2="580" /><line stroke="#C0C0C0" stroke-width="1" x1="0" x2="1460" y1="600" y2="600" /><line stroke="#C0C0C0" stroke-width="1" x1="0" x2="1460" y1="620" y2="620" /><line stroke="#C0C0C0" stroke-width="1" x1="0" x2="1460" y1="640" y2="640" /><line stroke="#C0C0C0" stroke-width="1" x1="0" x2="1460" y1="660" y2="660" /><line stroke="#C0C0C0" stroke-width="1" x1="0" x2="1460" y1="680" y2="680" /><line stroke="#C0C0C0" stroke-width="1" x1="0" x2="1460" y1="700" y2="700" /><line stroke="#C0C0C0" stroke-width="1" x1="0" x2="1460" y1="720" y2="720" /><line stroke="#C0C0C0" stroke-width="1" x1="0" x2="1460" y1="740" y2="740" /><line stroke="#C0C0C0" stroke-width="1" x1="0" x2="1460" y1="760" y2="760" /><line stroke="#C0C0C0" stroke-width="1" x1="0" x2="1460" y1="780" y2="780" /><line stroke="#C0C0C0" stroke-width="1" x1="0" x2="1460" y1="800" y2="800" /><line stroke="#C0C0C0" stroke-width="1" x1="0" x2="1460" y1="820" y2="820" /><line stroke="#C0C0C0" stroke-width="1" x1="0" x2="1460" y1="840" y2="840" /><line stroke="#C0C0C0" stroke-width="1" x1="0" x2="1460" y1="860" y2="860" /><line stroke="#C0C0C0" stroke-width="1" x1="0" x2="1460" y1="880" y2="880" /><line stroke="#C0C0C0" stroke-width="1" x1="0" x2="1460" y1="900" y2="900" /></g><g id="jose_heraclides" transform="translate(470,70) scale(1.0)"><ns0:rect x="2" y="2" width="76" height="46" rx="10" fill="currentColor" opacity="0.12" /><ns0:circle cx="40" cy="18" r="9" fill="currentColor" /><ns0:path d="M22 44c2-10 12-16 18-16s16 6 18 16" fill="currentColor" /><ns0:path d="M14 44h52" stroke="currentColor" stroke-width="2" opacity="0.35" /></g><g id="daria" transform="translate(730,70) scale(1.0)"><ns0:rect x="2" y="2" width="76" height="46" rx="10" fill="currentColor" opacity="0.12" /><ns0:circle cx="40" cy="17" r="8.5" fill="currentColor" /><ns0:path d="M26 26c3-4 8-6 14-6s11 2 14 6" fill="currentColor" opacity="0.55" /><ns0:path d="M22 44c3-9 11-15 18-15s15 6 18 15" fill="currentColor" /><ns0:path d="M14 44h52" stroke="currentColor" stroke-width="2" opacity="0.35" /></g><g id="union_padres" transform="translate(600,150) scale(1.0)"><ns0:rect x="2" y="2" width="76" height="46" rx="12" fill="currentColor" opacity="0.10" /><ns0:path d="M30 18c0-4 3-7 7-7 2 0 4 1 5 2 1-1 3-2 5-2 4 0 7 3 7 7 0 7-12 14-12 14S30 25 30 18z" fill="currentColor" /><ns0:path d="M18 36h44" stroke="currentColor" stroke-width="3" opacity="0.35" /></g><g id="silvia" transform="translate(200,280) scale(1.0)"><ns0:rect x="2" y="2" width="76" height="46" rx="10" fill="currentColor" opacity="0.12" /><ns0:circle cx="40" cy="17" r="8.5" fill="currentColor" /><ns0:path d="M26 26c3-4 8-6 14-6s11 2 14 6" fill="currentColor" opacity="0.55" /><ns0:path d="M22 44c3-9 11-15 18-15s15 6 18 15" fill="currentColor" /><ns0:path d="M14 44h52" stroke="currentColor" stroke-width="2" opacity="0.35" /></g><g id="lica" transform="translate(450,280) scale(1.0)"><ns0:rect x="2" y="2" width="76" height="46" rx="10" fill="currentColor" opacity="0.12" /><ns0:circle cx="40" cy="17" r="8.5" fill="currentColor" /><ns0:path d="M26 26c3-4 8-6 14-6s11 2 14 6" fill="currentColor" opacity="0.55" /><ns0:path d="M22 44c3-9 11-15 18-15s15 6 18 15" fill="currentColor" /><ns0:path d="M14 44h52" stroke="currentColor" stroke-width="2" opacity="0.35" /></g><g id="patricia" transform="translate(700,280) scale(1.0)"><ns0:rect x="2" y="2" width="76" height="46" rx="10" fill="currentColor" opacity="0.12" /><ns0:circle cx="40" cy="17" r="8.5" fill="currentColor" /><ns0:path d="M26 26c3-4 8-6 14-6s11 2 14 6" fill="currentColor" opacity="0.55" /><ns0:path d="M22 44c3-9 11-15 18-15s15 6 18 15" fill="currentColor" /><ns0:path d="M14 44h52" stroke="currentColor" stroke-width="2" opacity="0.35" /></g><g id="santiago" transform="translate(950,280) scale(1.0)"><ns0:rect x="2" y="2" width="76" height="46" rx="10" fill="currentColor" opacity="0.12" /><ns0:circle cx="40" cy="18" r="9" fill="currentColor" /><ns0:path d="M22 44c2-10 12-16 18-16s16 6 18 16" fill="currentColor" /><ns0:path d="M14 44h52" stroke="currentColor" stroke-width="2" opacity="0.35" /></g><g id="jose" transform="translate(1200,280) scale(1.0)"><ns0:rect x="2" y="2" width="76" height="46" rx="10" fill="currentColor" opacity="0.12" /><ns0:circle cx="40" cy="18" r="9" fill="currentColor" /><ns0:path d="M22 44c2-10 12-16 18-16s16 6 18 16" fill="currentColor" /><ns0:path d="M14 44h52" stroke="currentColor" stroke-width="2" opacity="0.35" /></g><g id="sebastian" transform="translate(200,500) scale(1.0)"><ns0:rect x="2" y="2" width="76" height="46" rx="10" fill="currentColor" opacity="0.12" /><ns0:circle cx="40" cy="18" r="7.5" fill="currentColor" /><ns0:path d="M26 44c2-8 9-13 14-13s12 5 14 13" fill="currentColor" /><ns0:circle cx="32" cy="14" r="2" fill="currentColor" opacity="0.6" /><ns0:circle cx="48" cy="14" r="2" fill="currentColor" opacity="0.6" /></g><g id="mateo_lica" transform="translate(400,500) scale(1.0)"><ns0:rect x="2" y="2" width="76" height="46" rx="10" fill="currentColor" opacity="0.12" /><ns0:circle cx="40" cy="18" r="7.5" fill="currentColor" /><ns0:path d="M26 44c2-8 9-13 14-13s12 5 14 13" fill="currentColor" /><ns0:circle cx="32" cy="14" r="2" fill="currentColor" opacity="0.6" /><ns0:circle cx="48" cy="14" r="2" fill="currentColor" opacity="0.6" /></g><g id="pascual" transform="translate(500,500) scale(1.0)"><ns0:rect x="2" y="2" width="76" height="46" rx="10" fill="currentColor" opacity="0.12" /><ns0:circle cx="40" cy="18" r="7.5" fill="currentColor" /><ns0:path d="M26 44c2-8 9-13 14-13s12 5 14 13" fill="currentColor" /><ns0:circle cx="32" cy="14" r="2" fill="currentColor" opacity="0.6" /><ns0:circle cx="48" cy="14" r="2" fill="currentColor" opacity="0.6" /></g><g id="diego" transform="translate(700,500) scale(1.0)"><ns0:rect x="2" y="2" width="76" height="46" rx="10" fill="currentColor" opacity="0.12" /><ns0:circle cx="40" cy="18" r="7.5" fill="currentColor" /><ns0:path d="M26 44c2-8 9-13 14-13s12 5 14 13" fill="currentColor" /><ns0:circle cx="32" cy="14" r="2" fill="currentColor" opacity="0.6" /><ns0:circle cx="48" cy="14" r="2" fill="currentColor" opacity="0.6" /></g><g id="jose_antonio" transform="translate(880,500) scale(1.0)"><ns0:rect x="2" y="2" width="76" height="46" rx="10" fill="currentColor" opacity="0.12" /><ns0:circle cx="40" cy="18" r="7.5" fill="currentColor" /><ns0:path d="M26 44c2-8 9-13 14-13s12 5 14 13" fill="currentColor" /><ns0:circle cx="32" cy="14" r="2" fill="currentColor" opacity="0.6" /><ns0:circle cx="48" cy="14" r="2" fill="currentColor" opacity="0.6" /></g><g id="patricia_hija" transform="translate(990,500) scale(1.0)"><ns0:rect x="2" y="2" width="76" height="46" rx="10" fill="currentColor" opacity="0.12" /><ns0:circle cx="40" cy="18" r="7.5" fill="currentColor" /><ns0:path d="M26 44c2-8 9-13 14-13s12 5 14 13" fill="currentColor" /><ns0:circle cx="32" cy="14" r="2" fill="currentColor" opacity="0.6" /><ns0:circle cx="48" cy="14" r="2" fill="currentColor" opacity="0.6" /></g><g id="santiagoito" transform="translate(1100,500) scale(1.0)"><ns0:rect x="2" y="2" width="76" height="46" rx="10" fill="currentColor" opacity="0.12" /><ns0:circle cx="40" cy="18" r="7.5" fill="currentColor" /><ns0:path d="M26 44c2-8 9-13 14-13s12 5 14 13" fill="currentColor" /><ns0:circle cx="32" cy="14" r="2" fill="currentColor" opacity="0.6" /><ns0:circle cx="48" cy="14" r="2" fill="currentColor" opacity="0.6" /></g><g id="gerardo" transform="translate(1170,500) scale(1.0)"><ns0:rect x="2" y="2" width="76" height="46" rx="10" fill="currentColor" opacity="0.12" /><ns0:circle cx="40" cy="18" r="7.5" fill="currentColor" /><ns0:path d="M26 44c2-8 9-13 14-13s12 5 14 13" fill="currentColor" /><ns0:circle cx="32" cy="14" r="2" fill="currentColor" opacity="0.6" /><ns0:circle cx="48" cy="14" r="2" fill="currentColor" opacity="0.6" /></g><g id="dante" transform="translate(1280,500) scale(1.0)"><ns0:rect x="2" y="2" width="76" height="46" rx="10" fill="currentColor" opacity="0.12" /><ns0:circle cx="40" cy="18" r="7.5" fill="currentColor" /><ns0:path d="M26 44c2-8 9-13 14-13s12 5 14 13" fill="currentColor" /><ns0:circle cx="32" cy="14" r="2" fill="currentColor" opacity="0.6" /><ns0:circle cx="48" cy="14" r="2" fill="currentColor" opacity="0.6" /></g><path d="M 550.0,150.1 L 550.0,151.0 Q 550.0,151.9 550.9,151.9 L 568.0,151.9" fill="none" marker-end="url(#arrow-end-c0)" marker-start="url(#circle-start-c0)" stroke="#c32222" stroke-width="2" /><path d="M 730.0,150.1 L 730.0,151.0 Q 730.0,151.9 729.1,151.9 L 712.0,151.9" fill="none" marker-end="url(#arrow-end-c1)" marker-start="url(#circle-start-c1)" stroke="#c35e22" stroke-width="2" /><path d="M 568.0,193.7 L 305.0,193.7 Q 280.0,193.7 280.0,218.7 L 280.0,249.9" fill="none" marker-end="url(#arrow-end-c2)" marker-start="url(#circle-start-c2)" stroke="#c39a22" stroke-width="2" /><path d="M 572.3,200.0 L 551.1,200.0 Q 530.0,200.0 530.0,221.1 L 530.0,249.9" fill="none" marker-end="url(#arrow-end-c3)" marker-start="url(#circle-start-c3)" stroke="#aec322" stroke-width="2" /><path d="M 686.4,196.0 L 706.0,196.0 Q 725.6,196.0 725.6,215.6 L 725.6,248.0" fill="none" marker-end="url(#arrow-end-c4)" marker-start="url(#circle-start-c4)" stroke="#72c322" stroke-width="2" /><path d="M 712.0,202.1 L 926.1,202.1 Q 950.0,202.1 950.0,226.0 L 950.0,249.9" fill="none" marker-end="url(#arrow-end-c5)" marker-start="url(#circle-start-c5)" stroke="#36c322" stroke-width="2" /><path d="M 712.0,175.0 L 1175.0,175.0 Q 1200.0,175.0 1200.0,200.0 L 1200.0,273.0" fill="none" marker-end="url(#arrow-end-c6)" marker-start="url(#circle-start-c6)" stroke="#22c34a" stroke-width="2" /><polyline fill="none" marker-end="url(#arrow-end-c7)" marker-start="url(#circle-start-c7)" points="240.0,362.0 240.0,468.0" stroke="#22c386" stroke-width="2" /><path d="M 455.8,330.0 L 447.9,330.0 Q 440.0,330.0 440.0,337.9 L 440.0,468.0" fill="none" marker-end="url(#arrow-end-c8)" marker-start="url(#circle-start-c8)" stroke="#22c3c3" stroke-width="2" /><path d="M 524.2,330.0 L 532.1,330.0 Q 540.0,330.0 540.0,337.9 L 540.0,468.0" fill="none" marker-end="url(#arrow-end-c9)" marker-start="url(#circle-start-c9)" stroke="#2286c3" stroke-width="2" /><polyline fill="none" marker-end="url(#arrow-end-c10)" marker-start="url(#circle-start-c10)" points="740.0,362.0 740.0,468.0" stroke="#224ac3" stroke-width="2" /><path d="M 943.6,330.0 L 939.0,330.0 Q 934.4,330.0 934.4,334.6 L 934.4,468.0" fill="none" marker-end="url(#arrow-end-c11)" marker-start="url(#circle-start-c11)" stroke="#3622c3" stroke-width="2" /><path d="M 1022.0,330.0 L 1026.0,330.0 Q 1030.0,330.0 1030.0,334.0 L 1030.0,468.0" fill="none" marker-end="url(#arrow-end-c12)" marker-start="url(#circle-start-c12)" stroke="#7222c3" stroke-width="2" /><path d="M 1004.4,362.0 L 1004.4,390.0 Q 1004.4,415.0 1029.4,415.0 L 1100.6,415.0 Q 1125.6,415.0 1125.6,440.0 L 1125.6,468.0" fill="none" marker-end="url(#arrow-end-c13)" marker-start="url(#circle-start-c13)" stroke="#ae22c3" stroke-width="2" /><path d="M 1240.0,362.0 L 1240.0,499.0 Q 1240.0,500.0 1241.0,500.0 L 1242.0,500.0" fill="none" marker-end="url(#arrow-end-c14)" marker-start="url(#circle-start-c14)" stroke="#c3229a" stroke-width="2" /><path d="M 1286.4,330.0 L 1296.0,330.0 Q 1305.6,330.0 1305.6,339.6 L 1305.6,468.0" fill="none" marker-end="url(#arrow-end-c15)" marker-start="url(#circle-start-c15)" stroke="#c3225e" stroke-width="2" /><text fill="black" filter="url(#text-glow)" font-family="Arial, sans-serif" font-size="14px" text-anchor="start" x="562.6" y="95.0">José Heráclides</text><text fill="black" filter="url(#text-glow)" font-family="Arial, sans-serif" font-size="14px" text-anchor="middle" x="770.0" y="49.0">Daría</text><text fill="black" filter="url(#text-glow)" font-family="Arial, sans-serif" font-size="14px" text-anchor="end" x="587.4" y="175.0">Unión</text><text fill="black" filter="url(#text-glow)" font-family="Arial, sans-serif" font-size="14px" text-anchor="start" x="292.6" y="305.0">Silvia</text><text fill="black" filter="url(#text-glow)" font-family="Arial, sans-serif" font-size="14px" text-anchor="middle" x="490.0" y="259.0">Lica</text><text fill="black" filter="url(#text-glow)" font-family="Arial, sans-serif" font-size="14px" text-anchor="start" x="792.6" y="305.0">Patricia</text><text fill="black" filter="url(#text-glow)" font-family="Arial, sans-serif" font-size="14px" text-anchor="start" x="1042.6" y="305.0">Santiago</text><text fill="black" filter="url(#text-glow)" font-family="Arial, sans-serif" font-size="14px" text-anchor="start" x="1292.6" y="259.0">José</text><text fill="black" filter="url(#text-glow)" font-family="Arial, sans-serif" font-size="14px" text-anchor="middle" x="240.0" y="571.0">Sebastián</text><text fill="black" filter="url(#text-glow)" font-family="Arial, sans-serif" font-size="14px" text-anchor="middle" x="440.0" y="571.0">Mateo</text><text fill="black" filter="url(#text-glow)" font-family="Arial, sans-serif" font-size="14px" text-anchor="middle" x="540.0" y="571.0">Pascual</text><text fill="black" filter="url(#text-glow)" font-family="Arial, sans-serif" font-size="14px" text-anchor="middle" x="740.0" y="571.0">Diego</text><text fill="black" filter="url(#text-glow)" font-family="Arial, sans-serif" font-size="14px" text-anchor="middle" x="920.0" y="571.0">José Antonio</text><text fill="black" filter="url(#text-glow)" font-family="Arial, sans-serif" font-size="14px" text-anchor="middle" x="1030.0" y="571.0">Patricia</text><text fill="black" filter="url(#text-glow)" font-family="Arial, sans-serif" font-size="14px" text-anchor="middle" x="1140.0" y="571.0">Santiagoito</text><text fill="black" filter="url(#text-glow)" font-family="Arial, sans-serif" font-size="14px" text-anchor="start" x="1262.6" y="571.0">Gerardo</text><text fill="black" filter="url(#text-glow)" font-family="Arial, sans-serif" font-size="14px" text-anchor="start" x="1372.6" y="571.0">Dante</text><text fill="gray" filter="url(#text-glow)" font-family="Arial, sans-serif" font-size="12px" text-anchor="end" x="505.2" y="151.29999999999998">pareja</text><text fill="gray" filter="url(#text-glow)" font-family="Arial, sans-serif" font-size="12px" text-anchor="start" x="774.8" y="151.29999999999998">pareja</text><text fill="gray" filter="url(#text-glow)" font-family="Arial, sans-serif" font-size="12px" text-anchor="middle" x="376.0" y="169.4333333333333">hija</text><text fill="gray" filter="url(#text-glow)" font-family="Arial, sans-serif" font-size="12px" text-anchor="start" x="594.9" y="259.6333333333333">hija</text><text fill="gray" filter="url(#text-glow)" font-family="Arial, sans-serif" font-size="12px" text-anchor="middle" x="712.5333333333333" y="170.33333333333334">hija</text><text fill="gray" filter="url(#text-glow)" font-family="Arial, sans-serif" font-size="12px" text-anchor="middle" x="870.6666666666666" y="175.0333333333333">hijo</text><text fill="gray" filter="url(#text-glow)" font-family="Arial, sans-serif" font-size="12px" text-anchor="middle" x="1037.3333333333333" y="164.66666666666666">hijo</text><text fill="gray" filter="url(#text-glow)" font-family="Arial, sans-serif" font-size="12px" text-anchor="end" x="189.2" y="415.0">hijo</text><text fill="gray" filter="url(#text-glow)" font-family="Arial, sans-serif" font-size="12px" text-anchor="middle" x="445.26666666666665" y="419.0">hijo</text><text fill="gray" filter="url(#text-glow)" font-family="Arial, sans-serif" font-size="12px" text-anchor="middle" x="534.7333333333333" y="419.0">hijo</text><text fill="gray" filter="url(#text-glow)" font-family="Arial, sans-serif" font-size="12px" text-anchor="end" x="689.2" y="415.0">hijo</text><text fill="gray" filter="url(#text-glow)" font-family="Arial, sans-serif" font-size="12px" text-anchor="middle" x="937.4666666666667" y="419.0">hijo</text><text fill="gray" filter="url(#text-glow)" font-family="Arial, sans-serif" font-size="12px" text-anchor="middle" x="1027.3333333333333" y="419.0">hija</text><text fill="gray" filter="url(#text-glow)" font-family="Arial, sans-serif" font-size="12px" text-anchor="start" x="1115.8" y="415.0">hijo</text><text fill="gray" filter="url(#text-glow)" font-family="Arial, sans-serif" font-size="12px" text-anchor="middle" x="1240.6666666666667" y="497.0">hijo</text><text fill="gray" filter="url(#text-glow)" font-family="Arial, sans-serif" font-size="12px" text-anchor="middle" x="1299.2" y="333.0">hijo</text><rect fill="none" height="93" opacity="0.7" stroke="red" stroke-dasharray="5,5" stroke-width="2" width="90" x="465" y="65" /><text fill="red" font-family="Arial, sans-serif" font-size="14px" font-weight="bold" text-anchor="start" x="470" y="80">1</text><rect fill="none" height="93" opacity="0.7" stroke="red" stroke-dasharray="5,5" stroke-width="2" width="90" x="725" y="65" /><text fill="red" font-family="Arial, sans-serif" font-size="14px" font-weight="bold" text-anchor="start" x="730" y="80">1</text><rect fill="none" height="93" opacity="0.7" stroke="red" stroke-dasharray="5,5" stroke-width="2" width="90" x="595" y="145" /><text fill="red" font-family="Arial, sans-serif" font-size="14px" font-weight="bold" text-anchor="start" x="600" y="160">1</text><rect fill="none" height="93" opacity="0.7" stroke="red" stroke-dasharray="5,5" stroke-width="2" width="90" x="195" y="275" /><text fill="red" font-family="Arial, sans-serif" font-size="14px" font-weight="bold" text-anchor="start" x="200" y="290">2</text><rect fill="none" height="93" opacity="0.7" stroke="red" stroke-dasharray="5,5" stroke-width="2" width="90" x="445" y="275" /><text fill="red" font-family="Arial, sans-serif" font-size="14px" font-weight="bold" text-anchor="start" x="450" y="290">2</text><rect fill="none" height="93" opacity="0.7" stroke="red" stroke-dasharray="5,5" stroke-width="2" width="90" x="695" y="275" /><text fill="red" font-family="Arial, sans-serif" font-size="14px" font-weight="bold" text-anchor="start" x="700" y="290">2</text><rect fill="none" height="93" opacity="0.7" stroke="red" stroke-dasharray="5,5" stroke-width="2" width="90" x="945" y="275" /><text fill="red" font-family="Arial, sans-serif" font-size="14px" font-weight="bold" text-anchor="start" x="950" y="290">2</text><rect fill="none" height="93" opacity="0.7" stroke="red" stroke-dasharray="5,5" stroke-width="2" width="90" x="1195" y="275" /><text fill="red" font-family="Arial, sans-serif" font-size="14px" font-weight="bold" text-anchor="start" x="1200" y="290">2</text><rect fill="none" height="93" opacity="0.7" stroke="red" stroke-dasharray="5,5" stroke-width="2" width="90" x="195" y="495" /><text fill="red" font-family="Arial, sans-serif" font-size="14px" font-weight="bold" text-anchor="start" x="200" y="510">3</text><rect fill="none" height="93" opacity="0.7" stroke="red" stroke-dasharray="5,5" stroke-width="2" width="90" x="395" y="495" /><text fill="red" font-family="Arial, sans-serif" font-size="14px" font-weight="bold" text-anchor="start" x="400" y="510">3</text><rect fill="none" height="93" opacity="0.7" stroke="red" stroke-dasharray="5,5" stroke-width="2" width="90" x="495" y="495" /><text fill="red" font-family="Arial, sans-serif" font-size="14px" font-weight="bold" text-anchor="start" x="500" y="510">3</text><rect fill="none" height="93" opacity="0.7" stroke="red" stroke-dasharray="5,5" stroke-width="2" width="90" x="695" y="495" /><text fill="red" font-family="Arial, sans-serif" font-size="14px" font-weight="bold" text-anchor="start" x="700" y="510">3</text><rect fill="none" height="93" opacity="0.7" stroke="red" stroke-dasharray="5,5" stroke-width="2" width="90" x="875" y="495" /><text fill="red" font-family="Arial, sans-serif" font-size="14px" font-weight="bold" text-anchor="start" x="880" y="510">3</text><rect fill="none" height="93" opacity="0.7" stroke="red" stroke-dasharray="5,5" stroke-width="2" width="90" x="985" y="495" /><text fill="red" font-family="Arial, sans-serif" font-size="14px" font-weight="bold" text-anchor="start" x="990" y="510">3</text><rect fill="none" height="93" opacity="0.7" stroke="red" stroke-dasharray="5,5" stroke-width="2" width="90" x="1095" y="495" /><text fill="red" font-family="Arial, sans-serif" font-size="14px" font-weight="bold" text-anchor="start" x="1100" y="510">3</text><rect fill="none" height="93" opacity="0.7" stroke="red" stroke-dasharray="5,5" stroke-width="2" width="90" x="1165" y="495" /><text fill="red" font-family="Arial, sans-serif" font-size="14px" font-weight="bold" text-anchor="start" x="1170" y="510">3</text><rect fill="none" height="93" opacity="0.7" stroke="red" stroke-dasharray="5,5" stroke-width="2" width="90" x="1275" y="495" /><text fill="red" font-family="Arial, sans-serif" font-size="14px" font-weight="bold" text-anchor="start" x="1280" y="510">3</text></svg>