<?xml version="1.0" encoding="utf-8" ?>
<svg xmlns="http://www.w3.org/2000/svg" baseProfile="full" height="1294.5" version="1.1" viewBox="82.6,0,1225.5,1294.5" width="1225.5"><defs><filter height="140%" id="text-glow" width="140%" x="-20%" y="-20%"><feMerge><feMergeNode in="SourceGraphic" /></feMerge></filter><marker id="arrow-end" markerHeight="10" markerWidth="10" orient="auto" refX="10" refY="5"><path d="M 0 0 L 10 5 L 0 10 z" fill="black" /></marker><marker id="arrow-start" markerHeight="10" markerWidth="10" orient="auto" refX="0" refY="5"><path d="M 10 0 L 0 5 L 10 10 z" fill="black" /></marker><marker id="circle-start" markerHeight="2.4" markerUnits="userSpaceOnUse" markerWidth="2.4" orient="auto" refX="1.2" refY="1.2"><circle cx="1.2" cy="1.2" fill="black" r="1.2" /></marker><marker id="circle-end" markerHeight="2.4" markerUnits="userSpaceOnUse" markerWidth="2.4" orient="auto" refX="1.2" refY="1.2"><circle cx="1.2" cy="1.2" fill="black" r="1.2" /></marker></defs><g id="jose_heraclides" transform="translate(517.4796741050443,20.0) scale(1.0)"><circle cx="40" cy="15" r="8" fill="white" stroke="currentColor" stroke-width="2" /><rect x="30" y="24" width="20" height="16" rx="4" fill="currentColor" /><rect x="38" y="28" width="4" height="10" fill="white" /></g><g id="daria" transform="translate(637.4796741050443,20.0) scale(1.0)"><circle cx="40" cy="15" r="8" fill="white" stroke="currentColor" stroke-width="2" /><path d="M30 26 Q40 20 50 26 L45 40 L35 40 Z" fill="currentColor" /></g><g id="union_padres" transform="translate(577.4796741050409,310.0) scale(1.0)"><circle cx="30" cy="25" r="10" fill="none" stroke="currentColor" stroke-width="3" /><circle cx="50" cy="25" r="10" fill="none" stroke="currentColor" stroke-width="3" /></g><g id="silvia" transform="translate(340.0,600.0) scale(1.0)"><circle cx="40" cy="15" r="8" fill="white" stroke="currentColor" stroke-width="2" /><path d="M30 26 Q40 20 50 26 L45 40 L35 40 Z" fill="currentColor" /></g><g id="lika" transform="translate(100.0,600.0) scale(1.0)"><circle cx="40" cy="15" r="8" fill="white" stroke="currentColor" stroke-width="2" /><path d="M30 26 Q40 20 50 26 L45 40 L35 40 Z" fill="currentColor" /></g><g id="patricia" transform="translate(580.0,600.0) scale(1.0)"><circle cx="40" cy="15" r="8" fill="white" stroke="currentColor" stroke-width="2" /><path d="M30 26 Q40 20 50 26 L45 40 L35 40 Z" fill="currentColor" /></g><g id="santiago" transform="translate(1060.0,600.0) scale(1.0)"><circle cx="40" cy="15" r="8" fill="white" stroke="currentColor" stroke-width="2" /><rect x="30" y="24" width="20" height="16" rx="4" fill="currentColor" /><rect x="38" y="28" width="4" height="10" fill="white" /></g><g id="jose" transform="translate(820.0,600.0) scale(1.0)"><circle cx="40" cy="15" r="8" fill="white" stroke="currentColor" stroke-width="2" /><rect x="30" y="24" width="20" height="16" rx="4" fill="currentColor" /><rect x="38" y="28" width="4" height="10" fill="white" /></g><g id="martin" transform="translate(220.0,600.0) scale(1.0)"><circle cx="40" cy="15" r="8" fill="white" stroke="currentColor" stroke-width="2" /><rect x="30" y="24" width="20" height="16" rx="4" fill="currentColor" /><rect x="38" y="28" width="4" height="10" fill="white" /></g><g id="elmer" transform="translate(460.0,600.0) scale(1.0)"><circle cx="40" cy="15" r="8" fill="white" stroke="currentColor" stroke-width="2" /><rect x="30" y="24" width="20" height="16" rx="4" fill="currentColor" /><rect x="38" y="28" width="4" height="10" fill="white" /></g><g id="ricardo" transform="translate(700.0,600.0) scale(1.0)"><circle cx="40" cy="15" r="8" fill="white" stroke="currentColor" stroke-width="2" /><rect x="30" y="24" width="20" height="16" rx="4" fill="currentColor" /><rect x="38" y="28" width="4" height="10" fill="white" /></g><g id="claudia" transform="translate(940.0,600.0) scale(1.0)"><circle cx="40" cy="15" r="8" fill="white" stroke="currentColor" stroke-width="2" /><path d="M30 26 Q40 20 50 26 L45 40 L35 40 Z" fill="currentColor" /></g><g id="leila" transform="translate(1180.0,600.0) scale(1.0)"><circle cx="40" cy="15" r="8" fill="white" stroke="currentColor" stroke-width="2" /><path d="M30 26 Q40 20 50 26 L45 40 L35 40 Z" fill="currentColor" /></g><rect fill="gold" height="8" rx="4" ry="4" stroke="#333" stroke-width="1" width="56.0" x="532.8341958616398" y="911.0" /><g id="union_lika" transform="translate(400.83419586163984,890.0) scale(1.0)"><circle cx="30" cy="25" r="10" fill="none" stroke="currentColor" stroke-width="3" /><circle cx="50" cy="25" r="10" fill="none" stroke="currentColor" stroke-width="3" /></g><g id="union_patricia" transform="translate(640.8341958616398,890.0) scale(1.0)"><circle cx="30" cy="25" r="10" fill="none" stroke="currentColor" stroke-width="3" /><circle cx="50" cy="25" r="10" fill="none" stroke="currentColor" stroke-width="3" /></g><g id="union_jose" transform="translate(760.8341958616398,890.0) scale(1.0)"><circle cx="30" cy="25" r="10" fill="none" stroke="currentColor" stroke-width="3" /><circle cx="50" cy="25" r="10" fill="none" stroke="currentColor" stroke-width="3" /></g><g id="union_santiago" transform="translate(880.8341958616398,890.0) scale(1.0)"><circle cx="30" cy="25" r="10" fill="none" stroke="currentColor" stroke-width="3" /><circle cx="50" cy="25" r="10" fill="none" stroke="currentColor" stroke-width="3" /></g><g id="sebastian" transform="translate(460.37130044080584,1180.0) scale(1.0)"><circle cx="40" cy="17" r="6" fill="white" stroke="currentColor" stroke-width="2" /><rect x="34" y="24" width="12" height="14" rx="3" fill="currentColor" /></g><g id="mateo" transform="translate(220.37130044080584,1180.0) scale(1.0)"><circle cx="40" cy="17" r="6" fill="white" stroke="currentColor" stroke-width="2" /><rect x="34" y="24" width="12" height="14" rx="3" fill="currentColor" /></g><g id="pascual" transform="translate(340.37130044080584,1180.0) scale(1.0)"><circle cx="40" cy="17" r="6" fill="white" stroke="currentColor" stroke-width="2" /><rect x="34" y="24" width="12" height="14" rx="3" fill="currentColor" /></g><g id="diego" transform="translate(580.3713004408058,1180.0) scale(1.0)"><circle cx="40" cy="17" r="6" fill="white" stroke="currentColor" stroke-width="2" /><rect x="34" y="24" width="12" height="14" rx="3" fill="currentColor" /></g><g id="jose_antonio" transform="translate(940.3713004408058,1180.0) scale(1.0)"><circle cx="40" cy="17" r="6" fill="white" stroke="currentColor" stroke-width="2" /><rect x="34" y="24" width="12" height="14" rx="3" fill="currentColor" /></g><g id="patricia_hija" transform="translate(1060.371300440806,1180.0) scale(1.0)"><circle cx="40" cy="17" r="6" fill="white" stroke="currentColor" stroke-width="2" /><rect x="34" y="24" width="12" height="14" rx="3" fill="currentColor" /></g><g id="santiaguito" transform="translate(1180.371300440806,1180.0) scale(1.0)"><circle cx="40" cy="17" r="6" fill="white" stroke="currentColor" stroke-width="2" /><rect x="34" y="24" width="12" height="14" rx="3" fill="currentColor" /></g><g id="gerardo" transform="translate(700.3713004408058,1180.0) scale(1.0)"><circle cx="40" cy="17" r="6" fill="white" stroke="currentColor" stroke-width="2" /><rect x="34" y="24" width="12" height="14" rx="3" fill="currentColor" /></g><g id="dante" transform="translate(820.3713004408058,1180.0) scale(1.0)"><circle cx="40" cy="17" r="6" fill="white" stroke="currentColor" stroke-width="2" /><rect x="34" y="24" width="12" height="14" rx="3" fill="currentColor" /></g><path d="M 557.5,70.0 L 557.5,285.0 Q 557.5,310.0 582.5,310.0 L 615.3,310.0" fill="none" stroke="black" stroke-width="2" /><path d="M 677.5,70.0 L 677.5,285.0 Q 677.5,310.0 652.5,310.0 L 619.7,310.0" fill="none" stroke="black" stroke-width="2" /><path d="M 577.5,340.2 L 419.2,360.8 Q 394.4,364.0 394.4,389.0 L 394.4,600.0" fill="none" stroke="black" stroke-width="2" /><path d="M 577.5,354.1 L 205.0,354.1 Q 180.0,354.1 180.0,379.1 L 180.0,601.9" fill="none" stroke="black" stroke-width="2" /><path d="M 617.5,360.0 L 618.8,360.0 Q 620.0,360.0 620.0,361.2 L 620.0,600.0" fill="none" stroke="black" stroke-width="2" /><path d="M 657.5,337.4 L 1035.0,360.6 Q 1060.0,362.1 1060.0,387.1 L 1060.0,601.9" fill="none" stroke="black" stroke-width="2" /><path d="M 657.5,338.7 L 820.7,353.7 Q 845.6,356.0 845.6,381.0 L 845.6,600.0" fill="none" stroke="black" stroke-width="2" /><path d="M 394.4,650.0 L 394.4,741.0 Q 394.4,766.0 419.4,766.0 L 521.4,766.0 Q 546.4,766.0 546.4,791.0 L 546.4,890.0" fill="none" stroke="black" stroke-width="2" /><path d="M 500.0,650.0 L 500.0,749.0 Q 500.0,774.0 525.0,774.0 L 535.8,774.0 Q 560.8,774.0 560.8,799.0 L 560.8,890.0" fill="none" stroke="black" stroke-width="2" /><path d="M 180.0,648.1 L 180.0,862.9 Q 180.0,887.9 204.9,890.5 L 400.8,910.8" fill="none" stroke="black" stroke-width="2" /><path d="M 274.4,650.0 L 274.4,869.0 Q 274.4,894.0 299.2,897.1 L 400.8,910.0" fill="none" stroke="black" stroke-width="2" /><path d="M 560.8,940.0 L 560.8,1035.0 Q 560.8,1060.0 535.8,1060.0 L 525.4,1060.0 Q 500.4,1060.0 500.4,1085.0 L 500.4,1180.0" fill="none" stroke="black" stroke-width="2" /><path d="M 400.8,920.1 L 299.6,932.9 Q 274.8,936.0 274.8,961.0 L 274.8,1180.0" fill="none" stroke="black" stroke-width="2" /><path d="M 400.8,934.2 L 390.6,939.1 Q 380.4,944.0 380.4,955.3 L 380.4,1180.0" fill="none" stroke="black" stroke-width="2" /><path d="M 620.0,650.0 L 620.0,745.0 Q 620.0,770.0 645.0,770.0 L 653.6,770.0 Q 678.6,770.0 678.6,795.0 L 678.6,890.0" fill="none" stroke="black" stroke-width="2" /><path d="M 740.0,650.0 L 740.0,745.0 Q 740.0,770.0 715.0,770.0 L 708.0,770.0 Q 683.0,770.0 683.0,795.0 L 683.0,890.0" fill="none" stroke="black" stroke-width="2" /><path d="M 680.8,940.0 L 680.8,1035.0 Q 680.8,1060.0 655.8,1060.0 L 645.4,1060.0 Q 620.4,1060.0 620.4,1085.0 L 620.4,1180.0" fill="none" stroke="black" stroke-width="2" /><path d="M 860.0,650.0 L 860.0,741.0 Q 860.0,766.0 835.0,766.0 L 825.8,766.0 Q 800.8,766.0 800.8,791.0 L 800.8,890.0" fill="none" stroke="black" stroke-width="2" /><path d="M 965.6,650.0 L 965.6,749.0 Q 965.6,774.0 940.6,774.0 L 840.3,774.0 Q 815.3,774.0 815.3,799.0 L 815.3,890.0" fill="none" stroke="black" stroke-width="2" /><path d="M 798.6,940.0 L 798.6,1035.0 Q 798.6,1060.0 773.6,1060.0 L 765.4,1060.0 Q 740.4,1060.0 740.4,1085.0 L 740.4,1180.0" fill="none" stroke="black" stroke-width="2" /><path d="M 803.0,940.0 L 803.0,1035.0 Q 803.0,1060.0 828.0,1060.0 L 835.4,1060.0 Q 860.4,1060.0 860.4,1085.0 L 860.4,1180.0" fill="none" stroke="black" stroke-width="2" /><path d="M 1085.6,650.0 L 1085.6,861.0 Q 1085.6,886.0 1061.0,890.3 L 960.8,908.0" fill="none" stroke="black" stroke-width="2" /><path d="M 1180.0,648.1 L 1180.0,870.9 Q 1180.0,895.9 1155.0,895.9 L 960.8,895.9" fill="none" stroke="black" stroke-width="2" /><path d="M 960.8,926.4 L 970.6,929.2 Q 980.4,932.0 980.4,942.2 L 980.4,1180.0" fill="none" stroke="black" stroke-width="2" /><path d="M 935.3,940.0 L 1060.9,940.0 Q 1085.9,940.0 1085.9,965.0 L 1085.9,1180.0" fill="none" stroke="black" stroke-width="2" /><path d="M 960.8,919.8 L 1155.6,943.1 Q 1180.4,946.1 1180.4,971.1 L 1180.4,1181.9" fill="none" stroke="black" stroke-width="2" /><text fill="#ffffff" filter="url(#text-glow)" font-family="Arial, sans-serif" font-size="14px" text-anchor="end" x="504.8796741050443" y="45.0" class="ag-text-halo" stroke="#ffffff" stroke-width="3" stroke-linejoin="round" stroke-linecap="round">José Heráclides</text><text fill="black" filter="url(#text-glow)" font-family="Arial, sans-serif" font-size="14px" text-anchor="end" x="504.8796741050443" y="45.0">José Heráclides</text><text fill="#ffffff" filter="url(#text-glow)" font-family="Arial, sans-serif" font-size="14px" text-anchor="start" x="730.0796741050443" y="45.0" class="ag-text-halo" stroke="#ffffff" stroke-width="3" stroke-linejoin="round" stroke-linecap="round">Daría</text><text fill="black" filter="url(#text-glow)" font-family="Arial, sans-serif" font-size="14px" text-anchor="start" x="730.0796741050443" y="45.0">Daría</text><text fill="#ffffff" filter="url(#text-glow)" font-family="Arial, sans-serif" font-size="14px" text-anchor="start" x="432.6" y="579.0" class="ag-text-halo" stroke="#ffffff" stroke-width="3" stroke-linejoin="round" stroke-linecap="round">Silvia</text><text fill="black" filter="url(#text-glow)" font-family="Arial, sans-serif" font-size="14px" text-anchor="start" x="432.6" y="579.0">Silvia</text><text fill="#ffffff" filter="url(#text-glow)" font-family="Arial, sans-serif" font-size="14px" text-anchor="middle" x="140.0" y="671.0" class="ag-text-halo" stroke="#ffffff" stroke-width="3" stroke-linejoin="round" stroke-linecap="round">Lika</text><text fill="black" filter="url(#text-glow)" font-family="Arial, sans-serif" font-size="14px" text-anchor="middle" x="140.0" y="671.0">Lika</text><text fill="#ffffff" filter="url(#text-glow)" font-family="Arial, sans-serif" font-size="14px" text-anchor="start" x="672.6" y="579.0" class="ag-text-halo" stroke="#ffffff" stroke-width="3" stroke-linejoin="round" stroke-linecap="round">Patricia</text><text fill="black" filter="url(#text-glow)" font-family="Arial, sans-serif" font-size="14px" text-anchor="start" x="672.6" y="579.0">Patricia</text><text fill="#ffffff" filter="url(#text-glow)" font-family="Arial, sans-serif" font-size="14px" text-anchor="start" x="1152.6" y="579.0" class="ag-text-halo" stroke="#ffffff" stroke-width="3" stroke-linejoin="round" stroke-linecap="round">Santiago</text><text fill="black" filter="url(#text-glow)" font-family="Arial, sans-serif" font-size="14px" text-anchor="start" x="1152.6" y="579.0">Santiago</text><text fill="#ffffff" filter="url(#text-glow)" font-family="Arial, sans-serif" font-size="14px" text-anchor="start" x="912.6" y="579.0" class="ag-text-halo" stroke="#ffffff" stroke-width="3" stroke-linejoin="round" stroke-linecap="round">José</text><text fill="black" filter="url(#text-glow)" font-family="Arial, sans-serif" font-size="14px" text-anchor="start" x="912.6" y="579.0">José</text><text fill="#ffffff" filter="url(#text-glow)" font-family="Arial, sans-serif" font-size="14px" text-anchor="start" x="312.6" y="579.0" class="ag-text-halo" stroke="#ffffff" stroke-width="3" stroke-linejoin="round" stroke-linecap="round">Martín</text><text fill="black" filter="url(#text-glow)" font-family="Arial, sans-serif" font-size="14px" text-anchor="start" x="312.6" y="579.0">Martín</text><text fill="#ffffff" filter="url(#text-glow)" font-family="Arial, sans-serif" font-size="14px" text-anchor="start" x="552.6" y="579.0" class="ag-text-halo" stroke="#ffffff" stroke-width="3" stroke-linejoin="round" stroke-linecap="round">Elmer</text><text fill="black" filter="url(#text-glow)" font-family="Arial, sans-serif" font-size="14px" text-anchor="start" x="552.6" y="579.0">Elmer</text><text fill="#ffffff" filter="url(#text-glow)" font-family="Arial, sans-serif" font-size="14px" text-anchor="middle" x="740.0" y="671.0" class="ag-text-halo" stroke="#ffffff" stroke-width="3" stroke-linejoin="round" stroke-linecap="round">Ricardo</text><text fill="black" filter="url(#text-glow)" font-family="Arial, sans-serif" font-size="14px" text-anchor="middle" x="740.0" y="671.0">Ricardo</text><text fill="#ffffff" filter="url(#text-glow)" font-family="Arial, sans-serif" font-size="14px" text-anchor="start" x="1032.6" y="579.0" class="ag-text-halo" stroke="#ffffff" stroke-width="3" stroke-linejoin="round" stroke-linecap="round">Claudia</text><text fill="black" filter="url(#text-glow)" font-family="Arial, sans-serif" font-size="14px" text-anchor="start" x="1032.6" y="579.0">Claudia</text><text fill="#ffffff" filter="url(#text-glow)" font-family="Arial, sans-serif" font-size="14px" text-anchor="middle" x="1220.0" y="671.0" class="ag-text-halo" stroke="#ffffff" stroke-width="3" stroke-linejoin="round" stroke-linecap="round">Leila</text><text fill="black" filter="url(#text-glow)" font-family="Arial, sans-serif" font-size="14px" text-anchor="middle" x="1220.0" y="671.0">Leila</text><text fill="#ffffff" filter="url(#text-glow)" font-family="Arial, sans-serif" font-size="14px" text-anchor="middle" x="500.37130044080584" y="1251.0" class="ag-text-halo" stroke="#ffffff" stroke-width="3" stroke-linejoin="round" stroke-linecap="round">Sebastián</text><text fill="black" filter="url(#text-glow)" font-family="Arial, sans-serif" font-size="14px" text-anchor="middle" x="500.37130044080584" y="1251.0">Sebastián</text><text fill="#ffffff" filter="url(#text-glow)" font-family="Arial, sans-serif" font-size="14px" text-anchor="middle" x="260.37130044080584" y="1251.0" class="ag-text-halo" stroke="#ffffff" stroke-width="3" stroke-linejoin="round" stroke-linecap="round">Mateo</text><text fill="black" filter="url(#text-glow)" font-family="Arial, sans-serif" font-size="14px" text-anchor="middle" x="260.37130044080584" y="1251.0">Mateo</text><text fill="#ffffff" filter="url(#text-glow)" font-family="Arial, sans-serif" font-size="14px" text-anchor="middle" x="380.37130044080584" y="1251.0" class="ag-text-halo" stroke="#ffffff" stroke-width="3" stroke-linejoin="round" stroke-linecap="round">Pascual</text><text fill="black" filter="url(#text-glow)" font-family="Arial, sans-serif" font-size="14px" text-anchor="middle" x="380.37130044080584" y="1251.0">Pascual</text><text fill="#ffffff" filter="url(#text-glow)" font-family="Arial, sans-serif" font-size="14px" text-anchor="middle" x="620.3713004408058" y="1251.0" class="ag-text-halo" stroke="#ffffff" stroke-width="3" stroke-linejoin="round" stroke-linecap="round">Diego</text><text fill="black" filter="url(#text-glow)" font-family="Arial, sans-serif" font-size="14px" text-anchor="middle" x="620.3713004408058" y="1251.0">Diego</text><text fill="#ffffff" filter="url(#text-glow)" font-family="Arial, sans-serif" font-size="14px" text-anchor="middle" x="980.3713004408058" y="1251.0" class="ag-text-halo" stroke="#ffffff" stroke-width="3" stroke-linejoin="round" stroke-linecap="round">José Antonio</text><text fill="black" filter="url(#text-glow)" font-family="Arial, sans-serif" font-size="14px" text-anchor="middle" x="980.3713004408058" y="1251.0">José Antonio</text><text fill="#ffffff" filter="url(#text-glow)" font-family="Arial, sans-serif" font-size="14px" text-anchor="middle" x="1100.371300440806" y="1251.0" class="ag-text-halo" stroke="#ffffff" stroke-width="3" stroke-linejoin="round" stroke-linecap="round">Patricia</text><text fill="black" filter="url(#text-glow)" font-family="Arial, sans-serif" font-size="14px" text-anchor="middle" x="1100.371300440806" y="1251.0">Patricia</text><text fill="#ffffff" filter="url(#text-glow)" font-family="Arial, sans-serif" font-size="14px" text-anchor="middle" x="1220.371300440806" y="1251.0" class="ag-text-halo" stroke="#ffffff" stroke-width="3" stroke-linejoin="round" stroke-linecap="round">Santiaguito</text><text fill="black" filter="url(#text-glow)" font-family="Arial, sans-serif" font-size="14px" text-anchor="middle" x="1220.371300440806" y="1251.0">Santiaguito</text><text fill="#ffffff" filter="url(#text-glow)" font-family="Arial, sans-serif" font-size="14px" text-anchor="middle" x="740.3713004408058" y="1251.0" class="ag-text-halo" stroke="#ffffff" stroke-width="3" stroke-linejoin="round" stroke-linecap="round">Gerardo</text><text fill="black" filter="url(#text-glow)" font-family="Arial, sans-serif" font-size="14px" text-anchor="middle" x="740.3713004408058" y="1251.0">Gerardo</text><text fill="#ffffff" filter="url(#text-glow)" font-family="Arial, sans-serif" font-size="14px" text-anchor="middle" x="860.3713004408058" y="1251.0" class="ag-text-halo" stroke="#ffffff" stroke-width="3" stroke-linejoin="round" stroke-linecap="round">Dante</text><text fill="black" filter="url(#text-glow)" font-family="Arial, sans-serif" font-size="14px" text-anchor="middle" x="860.3713004408058" y="1251.0">Dante</text></svg>