<?xml version="1.0" encoding="utf-8" ?>
<svg baseProfile="full" height="1380" version="1.1" viewBox="0,0,1600,1380" width="1600" xmlns="http://www.w3.org/2000/svg" xmlns:ev="http://www.w3.org/2001/xml-events" xmlns:xlink="http://www.w3.org/1999/xlink"><defs><filter height="140%" id="text-glow" width="140%" x="-20%" y="-20%"><feGaussianBlur in="SourceGraphic" result="blur" stdDeviation="2" /><feFlood flood-color="white" flood-opacity="1" result="color" /><feComposite in="color" in2="blur" operator="in" result="shadow" /><feMerge><feMergeNode in="shadow" /><feMergeNode in="shadow" /><feMergeNode in="SourceGraphic" /></feMerge></filter><marker id="arrow-end" markerHeight="10" markerWidth="10" orient="auto" refX="10" refY="5"><path d="M 0 0 L 10 5 L 0 10 z" fill="black" /></marker><marker id="arrow-start" markerHeight="10" markerWidth="10" orient="auto" refX="0" refY="5"><path d="M 10 0 L 0 5 L 10 10 z" fill="black" /></marker><marker id="circle-start" markerHeight="10" markerWidth="10" orient="auto" refX="5" refY="5"><circle cx="5" cy="5" fill="black" r="4" /></marker><marker id="circle-end" markerHeight="10" markerWidth="10" orient="auto" refX="5" refY="5"><circle cx="5" cy="5" fill="black" r="4" /></marker></defs><g id="jose_heraclides" transform="translate(415.64512137262,20.0) scale(1.0)"><circle cx="40" cy="15" r="8" fill="white" stroke="currentColor" stroke-width="2" /><rect x="30" y="24" width="20" height="16" rx="4" fill="currentColor" /><rect x="38" y="28" width="4" height="10" fill="white" /></g><g id="daria" transform="translate(535.64512137262,20.0) scale(1.0)"><circle cx="40" cy="15" r="8" fill="white" stroke="currentColor" stroke-width="2" /><path d="M30 26 Q40 20 50 26 L45 40 L35 40 Z" fill="currentColor" /></g><g id="union_padres" transform="translate(475.6451213726166,310.0) scale(1.0)"><circle cx="30" cy="25" r="10" fill="none" stroke="currentColor" stroke-width="3" /><circle cx="50" cy="25" r="10" fill="none" stroke="currentColor" stroke-width="3" /></g><g id="silvia" transform="translate(340.0,600.0) scale(1.0)"><circle cx="40" cy="15" r="8" fill="white" stroke="currentColor" stroke-width="2" /><path d="M30 26 Q40 20 50 26 L45 40 L35 40 Z" fill="currentColor" /></g><g id="lika" transform="translate(100.0,600.0) scale(1.0)"><circle cx="40" cy="15" r="8" fill="white" stroke="currentColor" stroke-width="2" /><path d="M30 26 Q40 20 50 26 L45 40 L35 40 Z" fill="currentColor" /></g><g id="patricia" transform="translate(460.0,600.0) scale(1.0)"><circle cx="40" cy="15" r="8" fill="white" stroke="currentColor" stroke-width="2" /><path d="M30 26 Q40 20 50 26 L45 40 L35 40 Z" fill="currentColor" /></g><g id="santiago" transform="translate(940.0,600.0) scale(1.0)"><circle cx="40" cy="15" r="8" fill="white" stroke="currentColor" stroke-width="2" /><rect x="30" y="24" width="20" height="16" rx="4" fill="currentColor" /><rect x="38" y="28" width="4" height="10" fill="white" /></g><g id="jose" transform="translate(700.0,600.0) scale(1.0)"><circle cx="40" cy="15" r="8" fill="white" stroke="currentColor" stroke-width="2" /><rect x="30" y="24" width="20" height="16" rx="4" fill="currentColor" /><rect x="38" y="28" width="4" height="10" fill="white" /></g><g id="martin" transform="translate(220.0,600.0) scale(1.0)"><circle cx="40" cy="15" r="8" fill="white" stroke="currentColor" stroke-width="2" /><rect x="30" y="24" width="20" height="16" rx="4" fill="currentColor" /><rect x="38" y="28" width="4" height="10" fill="white" /></g><g id="ricardo" transform="translate(580.0,600.0) scale(1.0)"><circle cx="40" cy="15" r="8" fill="white" stroke="currentColor" stroke-width="2" /><rect x="30" y="24" width="20" height="16" rx="4" fill="currentColor" /><rect x="38" y="28" width="4" height="10" fill="white" /></g><g id="claudia" transform="translate(820.0,600.0) scale(1.0)"><circle cx="40" cy="15" r="8" fill="white" stroke="currentColor" stroke-width="2" /><path d="M30 26 Q40 20 50 26 L45 40 L35 40 Z" fill="currentColor" /></g><g id="leila" transform="translate(1060.0,600.0) scale(1.0)"><circle cx="40" cy="15" r="8" fill="white" stroke="currentColor" stroke-width="2" /><path d="M30 26 Q40 20 50 26 L45 40 L35 40 Z" fill="currentColor" /></g><g id="union_lika" transform="translate(319.2817808450286,890.0) scale(1.0)"><circle cx="30" cy="25" r="10" fill="none" stroke="currentColor" stroke-width="3" /><circle cx="50" cy="25" r="10" fill="none" stroke="currentColor" stroke-width="3" /></g><g id="union_patricia" transform="translate(559.2817808450286,890.0) scale(1.0)"><circle cx="30" cy="25" r="10" fill="none" stroke="currentColor" stroke-width="3" /><circle cx="50" cy="25" r="10" fill="none" stroke="currentColor" stroke-width="3" /></g><g id="union_jose" transform="translate(679.2817808450286,890.0) scale(1.0)"><circle cx="30" cy="25" r="10" fill="none" stroke="currentColor" stroke-width="3" /><circle cx="50" cy="25" r="10" fill="none" stroke="currentColor" stroke-width="3" /></g><g id="union_santiago" transform="translate(799.2817808450286,890.0) scale(1.0)"><circle cx="30" cy="25" r="10" fill="none" stroke="currentColor" stroke-width="3" /><circle cx="50" cy="25" r="10" fill="none" stroke="currentColor" stroke-width="3" /></g><g id="sebastian" transform="translate(439.2817808450286,890.0) scale(1.0)"><circle cx="40" cy="17" r="6" fill="white" stroke="currentColor" stroke-width="2" /><rect x="34" y="24" width="12" height="14" rx="3" fill="currentColor" /></g><g id="mateo" transform="translate(213.3067277100082,1180.0) scale(1.0)"><circle cx="40" cy="17" r="6" fill="white" stroke="currentColor" stroke-width="2" /><rect x="34" y="24" width="12" height="14" rx="3" fill="currentColor" /></g><g id="pascual" transform="translate(333.3067277100082,1180.0) scale(1.0)"><circle cx="40" cy="17" r="6" fill="white" stroke="currentColor" stroke-width="2" /><rect x="34" y="24" width="12" height="14" rx="3" fill="currentColor" /></g><g id="diego" transform="translate(453.3067277100082,1180.0) scale(1.0)"><circle cx="40" cy="17" r="6" fill="white" stroke="currentColor" stroke-width="2" /><rect x="34" y="24" width="12" height="14" rx="3" fill="currentColor" /></g><g id="jose_antonio" transform="translate(813.3067277100082,1180.0) scale(1.0)"><circle cx="40" cy="17" r="6" fill="white" stroke="currentColor" stroke-width="2" /><rect x="34" y="24" width="12" height="14" rx="3" fill="currentColor" /></g><g id="patricia_hija" transform="translate(933.3067277100082,1180.0) scale(1.0)"><circle cx="40" cy="17" r="6" fill="white" stroke="currentColor" stroke-width="2" /><rect x="34" y="24" width="12" height="14" rx="3" fill="currentColor" /></g><g id="santiaguito" transform="translate(1053.306727710008,1180.0) scale(1.0)"><circle cx="40" cy="17" r="6" fill="white" stroke="currentColor" stroke-width="2" /><rect x="34" y="24" width="12" height="14" rx="3" fill="currentColor" /></g><g id="gerardo" transform="translate(573.3067277100082,1180.0) scale(1.0)"><circle cx="40" cy="17" r="6" fill="white" stroke="currentColor" stroke-width="2" /><rect x="34" y="24" width="12" height="14" rx="3" fill="currentColor" /></g><g id="dante" transform="translate(693.3067277100082,1180.0) scale(1.0)"><circle cx="40" cy="17" r="6" fill="white" stroke="currentColor" stroke-width="2" /><rect x="34" y="24" width="12" height="14" rx="3" fill="currentColor" /></g><path d="M 455.6,102.0 L 455.6,297.1 Q 455.6,310.0 468.6,310.0 L 481.5,310.0" fill="none" stroke="black" stroke-width="2" /><path d="M 575.6,102.0 L 575.6,297.1 Q 575.6,310.0 562.7,310.0 L 549.8,310.0" fill="none" stroke="black" stroke-width="2" /><path d="M 469.2,360.0 L 419.4,360.0 Q 394.4,360.0 394.4,385.0 L 394.4,568.0" fill="none" stroke="black" stroke-width="2" /><path d="M 443.6,350.1 L 205.0,350.1 Q 180.0,350.1 180.0,375.1 L 180.0,569.9" fill="none" stroke="black" stroke-width="2" /><path d="M 483.6,368.0 L 491.8,368.0 Q 500.0,368.0 500.0,376.2 L 500.0,568.0" fill="none" stroke="black" stroke-width="2" /><path d="M 587.6,362.1 L 915.0,362.1 Q 940.0,362.1 940.0,387.1 L 940.0,569.9" fill="none" stroke="black" stroke-width="2" /><path d="M 562.1,356.0 L 700.6,356.0 Q 725.6,356.0 725.6,381.0 L 725.6,568.0" fill="none" stroke="black" stroke-width="2" /><path d="M 394.4,682.0 L 394.4,745.0 Q 394.4,770.0 419.4,770.0 L 439.8,770.0 Q 464.8,770.0 464.8,795.0 L 464.8,858.0" fill="none" stroke="black" stroke-width="2" /><path d="M 154.4,682.0 L 154.4,741.0 Q 154.4,766.0 179.4,766.0 L 316.8,766.0 Q 341.8,766.0 341.8,791.0 L 341.8,858.0" fill="none" stroke="black" stroke-width="2" /><path d="M 274.4,682.0 L 274.4,749.0 Q 274.4,774.0 299.4,774.0 L 322.6,774.0 Q 347.6,774.0 347.6,799.0 L 347.6,858.0" fill="none" stroke="black" stroke-width="2" /><path d="M 344.8,972.0 L 344.8,1035.0 Q 344.8,1060.0 319.8,1060.0 L 292.7,1060.0 Q 267.7,1060.0 267.7,1085.0 L 267.7,1148.0" fill="none" stroke="black" stroke-width="2" /><path d="M 359.3,972.0 L 359.3,1171.0 Q 359.3,1180.0 350.3,1180.0 L 341.3,1180.0" fill="none" stroke="black" stroke-width="2" /><path d="M 514.4,682.0 L 514.4,745.0 Q 514.4,770.0 539.4,770.0 L 559.8,770.0 Q 584.8,770.0 584.8,795.0 L 584.8,858.0" fill="none" stroke="black" stroke-width="2" /><path d="M 620.0,682.0 L 620.0,884.4 Q 620.0,890.0 625.6,890.0 L 631.3,890.0" fill="none" stroke="black" stroke-width="2" /><path d="M 584.8,972.0 L 584.8,1035.0 Q 584.8,1060.0 559.8,1060.0 L 532.7,1060.0 Q 507.7,1060.0 507.7,1085.0 L 507.7,1148.0" fill="none" stroke="black" stroke-width="2" /><path d="M 740.0,682.0 L 740.0,884.4 Q 740.0,890.0 745.6,890.0 L 751.3,890.0" fill="none" stroke="black" stroke-width="2" /><path d="M 845.6,682.0 L 845.6,745.0 Q 845.6,770.0 820.6,770.0 L 758.7,770.0 Q 733.7,770.0 733.7,795.0 L 733.7,858.0" fill="none" stroke="black" stroke-width="2" /><path d="M 704.8,972.0 L 704.8,1035.0 Q 704.8,1060.0 679.8,1060.0 L 652.7,1060.0 Q 627.7,1060.0 627.7,1085.0 L 627.7,1148.0" fill="none" stroke="black" stroke-width="2" /><path d="M 719.3,972.0 L 719.3,1171.0 Q 719.3,1180.0 710.3,1180.0 L 701.3,1180.0" fill="none" stroke="black" stroke-width="2" /><path d="M 965.6,682.0 L 965.6,741.0 Q 965.6,766.0 940.6,766.0 L 875.9,766.0 Q 850.9,766.0 850.9,791.0 L 850.9,858.0" fill="none" stroke="black" stroke-width="2" /><path d="M 1085.6,682.0 L 1085.6,749.0 Q 1085.6,774.0 1060.6,774.0 L 881.8,774.0 Q 856.8,774.0 856.8,799.0 L 856.8,858.0" fill="none" stroke="black" stroke-width="2" /><path d="M 839.3,972.0 L 839.3,1171.0 Q 839.3,1180.0 830.3,1180.0 L 821.3,1180.0" fill="none" stroke="black" stroke-width="2" /><path d="M 850.9,972.0 L 850.9,1031.0 Q 850.9,1056.0 875.9,1056.0 L 933.9,1056.0 Q 958.9,1056.0 958.9,1081.0 L 958.9,1148.0" fill="none" stroke="black" stroke-width="2" /><path d="M 856.8,972.0 L 856.8,1039.0 Q 856.8,1064.0 881.8,1064.0 L 1053.9,1064.0 Q 1078.9,1064.0 1078.9,1089.0 L 1078.9,1148.0" fill="none" stroke="black" stroke-width="2" /><text fill="black" filter="url(#text-glow)" font-family="Arial, sans-serif" font-size="14px" text-anchor="end" x="403.04512137262" y="45.0">José Heráclides</text><text fill="black" filter="url(#text-glow)" font-family="Arial, sans-serif" font-size="14px" text-anchor="start" x="628.24512137262" y="45.0">Daría</text><text fill="black" filter="url(#text-glow)" font-family="Arial, sans-serif" font-size="14px" text-anchor="start" x="432.6" y="671.0">Silvia</text><text fill="black" filter="url(#text-glow)" font-family="Arial, sans-serif" font-size="14px" text-anchor="middle" x="140.0" y="671.0">Lika</text><text fill="black" filter="url(#text-glow)" font-family="Arial, sans-serif" font-size="14px" text-anchor="start" x="552.6" y="579.0">Patricia</text><text fill="black" filter="url(#text-glow)" font-family="Arial, sans-serif" font-size="14px" text-anchor="middle" x="980.0" y="579.0">Santiago</text><text fill="black" filter="url(#text-glow)" font-family="Arial, sans-serif" font-size="14px" text-anchor="middle" x="740.0" y="579.0">José</text><text fill="black" filter="url(#text-glow)" font-family="Arial, sans-serif" font-size="14px" text-anchor="middle" x="260.0" y="579.0">Martín</text><text fill="black" filter="url(#text-glow)" font-family="Arial, sans-serif" font-size="14px" text-anchor="start" x="672.6" y="671.0">Ricardo</text><text fill="black" filter="url(#text-glow)" font-family="Arial, sans-serif" font-size="14px" text-anchor="end" x="807.4" y="671.0">Claudia</text><text fill="black" filter="url(#text-glow)" font-family="Arial, sans-serif" font-size="14px" text-anchor="middle" x="1100.0" y="671.0">Leila</text><text fill="black" filter="url(#text-glow)" font-family="Arial, sans-serif" font-size="14px" text-anchor="middle" x="479.2817808450286" y="961.0">Sebastián</text><text fill="black" filter="url(#text-glow)" font-family="Arial, sans-serif" font-size="14px" text-anchor="middle" x="253.3067277100082" y="1251.0">Mateo</text><text fill="black" filter="url(#text-glow)" font-family="Arial, sans-serif" font-size="14px" text-anchor="middle" x="373.3067277100082" y="1251.0">Pascual</text><text fill="black" filter="url(#text-glow)" font-family="Arial, sans-serif" font-size="14px" text-anchor="middle" x="493.3067277100082" y="1251.0">Diego</text><text fill="black" filter="url(#text-glow)" font-family="Arial, sans-serif" font-size="14px" text-anchor="middle" x="853.3067277100082" y="1251.0">José Antonio</text><text fill="black" filter="url(#text-glow)" font-family="Arial, sans-serif" font-size="14px" text-anchor="middle" x="973.3067277100082" y="1251.0">Patricia</text><text fill="black" filter="url(#text-glow)" font-family="Arial, sans-serif" font-size="14px" text-anchor="middle" x="1093.306727710008" y="1251.0">Santiaguito</text><text fill="black" filter="url(#text-glow)" font-family="Arial, sans-serif" font-size="14px" text-anchor="middle" x="613.3067277100082" y="1251.0">Gerardo</text><text fill="black" filter="url(#text-glow)" font-family="Arial, sans-serif" font-size="14px" text-anchor="middle" x="733.3067277100082" y="1251.0">Dante</text></svg>