<?xml version="1.0" encoding="utf-8" ?>
<svg baseProfile="full" height="1480.0" version="1.1" viewBox="0,0,2542.0,1480.0" width="2542.0" xmlns="http://www.w3.org/2000/svg" xmlns:ev="http://www.w3.org/2001/xml-events" xmlns:xlink="http://www.w3.org/1999/xlink"><defs><filter height="140%" id="text-glow" width="140%" x="-20%" y="-20%"><feGaussianBlur in="SourceGraphic" result="blur" stdDeviation="2" /><feFlood flood-color="white" flood-opacity="1" result="color" /><feComposite in="color" in2="blur" operator="in" result="shadow" /><feMerge><feMergeNode in="shadow" /><feMergeNode in="shadow" /><feMergeNode in="SourceGraphic" /></feMerge></filter><marker id="arrow-end" markerHeight="10" markerWidth="10" orient="auto" refX="10" refY="5"><path d="M 0 0 L 10 5 L 0 10 z" fill="black" /></marker><marker id="arrow-start" markerHeight="10" markerWidth="10" orient="auto" refX="0" refY="5"><path d="M 10 0 L 0 5 L 10 10 z" fill="black" /></marker><marker id="circle-start" markerHeight="10" markerWidth="10" orient="auto" refX="5" refY="5"><circle cx="5" cy="5" fill="black" r="4" /></marker><marker id="circle-end" markerHeight="10" markerWidth="10" orient="auto" refX="5" refY="5"><circle cx="5" cy="5" fill="black" r="4" /></marker><marker id="arrow-end-c0" markerHeight="10" markerWidth="10" orient="auto" refX="10" refY="5"><path d="M 0 0 L 10 5 L 0 10 z" fill="#c32222" /></marker><marker id="arrow-start-c0" markerHeight="10" markerWidth="10" orient="auto" refX="0" refY="5"><path d="M 10 0 L 0 5 L 10 10 z" fill="#c32222" /></marker><marker id="circle-start-c0" markerHeight="10" markerWidth="10" orient="auto" refX="5" refY="5"><circle cx="5" cy="5" fill="#c32222" r="4" /></marker><marker id="circle-end-c0" markerHeight="10" markerWidth="10" orient="auto" refX="5" refY="5"><circle cx="5" cy="5" fill="#c32222" r="4" /></marker><marker id="arrow-end-c1" markerHeight="10" markerWidth="10" orient="auto" refX="10" refY="5"><path d="M 0 0 L 10 5 L 0 10 z" fill="#c34722" /></marker><marker id="arrow-start-c1" markerHeight="10" markerWidth="10" orient="auto" refX="0" refY="5"><path d="M 10 0 L 0 5 L 10 10 z" fill="#c34722" /></marker><marker id="circle-start-c1" markerHeight="10" markerWidth="10" orient="auto" refX="5" refY="5"><circle cx="5" cy="5" fill="#c34722" r="4" /></marker><marker id="circle-end-c1" markerHeight="10" markerWidth="10" orient="auto" refX="5" refY="5"><circle cx="5" cy="5" fill="#c34722" r="4" /></marker><marker id="arrow-end-c2" markerHeight="10" markerWidth="10" orient="auto" refX="10" refY="5"><path d="M 0 0 L 10 5 L 0 10 z" fill="#c36c22" /></marker><marker id="arrow-start-c2" markerHeight="10" markerWidth="10" orient="auto" refX="0" refY="5"><path d="M 10 0 L 0 5 L 10 10 z" fill="#c36c22" /></marker><marker id="circle-start-c2" markerHeight="10" markerWidth="10" orient="auto" refX="5" refY="5"><circle cx="5" cy="5" fill="#c36c22" r="4" /></marker><marker id="circle-end-c2" markerHeight="10" markerWidth="10" orient="auto" refX="5" refY="5"><circle cx="5" cy="5" fill="#c36c22" r="4" /></marker><marker id="arrow-end-c3" markerHeight="10" markerWidth="10" orient="auto" refX="10" refY="5"><path d="M 0 0 L 10 5 L 0 10 z" fill="#c39122" /></marker><marker id="arrow-start-c3" markerHeight="10" markerWidth="10" orient="auto" refX="0" refY="5"><path d="M 10 0 L 0 5 L 10 10 z" fill="#c39122" /></marker><marker id="circle-start-c3" markerHeight="10" markerWidth="10" orient="auto" refX="5" refY="5"><circle cx="5" cy="5" fill="#c39122" r="4" /></marker><marker id="circle-end-c3" markerHeight="10" markerWidth="10" orient="auto" refX="5" refY="5"><circle cx="5" cy="5" fill="#c39122" r="4" /></marker><marker id="arrow-end-c4" markerHeight="10" markerWidth="10" orient="auto" refX="10" refY="5"><path d="M 0 0 L 10 5 L 0 10 z" fill="#c3b622" /></marker><marker id="arrow-start-c4" markerHeight="10" markerWidth="10" orient="auto" refX="0" refY="5"><path d="M 10 0 L 0 5 L 10 10 z" fill="#c3b622" /></marker><marker id="circle-start-c4" markerHeight="10" markerWidth="10" orient="auto" refX="5" refY="5"><circle cx="5" cy="5" fill="#c3b622" r="4" /></marker><marker id="circle-end-c4" markerHeight="10" markerWidth="10" orient="auto" refX="5" refY="5"><circle cx="5" cy="5" fill="#c3b622" r="4" /></marker><marker id="arrow-end-c5" markerHeight="10" markerWidth="10" orient="auto" refX="10" refY="5"><path d="M 0 0 L 10 5 L 0 10 z" fill="#aac322" /></marker><marker id="arrow-start-c5" markerHeight="10" markerWidth="10" orient="auto" refX="0" refY="5"><path d="M 10 0 L 0 5 L 10 10 z" fill="#aac322" /></marker><marker id="circle-start-c5" markerHeight="10" markerWidth="10" orient="auto" refX="5" refY="5"><circle cx="5" cy="5" fill="#aac322" r="4" /></marker><marker id="circle-end-c5" markerHeight="10" markerWidth="10" orient="auto" refX="5" refY="5"><circle cx="5" cy="5" fill="#aac322" r="4" /></marker><marker id="arrow-end-c6" markerHeight="10" markerWidth="10" orient="auto" refX="10" refY="5"><path d="M 0 0 L 10 5 L 0 10 z" fill="#85c322" /></marker><marker id="arrow-start-c6" markerHeight="10" markerWidth="10" orient="auto" refX="0" refY="5"><path d="M 10 0 L 0 5 L 10 10 z" fill="#85c322" /></marker><marker id="circle-start-c6" markerHeight="10" markerWidth="10" orient="auto" refX="5" refY="5"><circle cx="5" cy="5" fill="#85c322" r="4" /></marker><marker id="circle-end-c6" markerHeight="10" markerWidth="10" orient="auto" refX="5" refY="5"><circle cx="5" cy="5" fill="#85c322" r="4" /></marker><marker id="arrow-end-c7" markerHeight="10" markerWidth="10" orient="auto" refX="10" refY="5"><path d="M 0 0 L 10 5 L 0 10 z" fill="#60c322" /></marker><marker id="arrow-start-c7" markerHeight="10" markerWidth="10" orient="auto" refX="0" refY="5"><path d="M 10 0 L 0 5 L 10 10 z" fill="#60c322" /></marker><marker id="circle-start-c7" markerHeight="10" markerWidth="10" orient="auto" refX="5" refY="5"><circle cx="5" cy="5" fill="#60c322" r="4" /></marker><marker id="circle-end-c7" markerHeight="10" markerWidth="10" orient="auto" refX="5" refY="5"><circle cx="5" cy="5" fill="#60c322" r="4" /></marker><marker id="arrow-end-c8" markerHeight="10" markerWidth="10" orient="auto" refX="10" refY="5"><path d="M 0 0 L 10 5 L 0 10 z" fill="#3bc322" /></marker><marker id="arrow-start-c8" markerHeight="10" markerWidth="10" orient="auto" refX="0" refY="5"><path d="M 10 0 L 0 5 L 10 10 z" fill="#3bc322" /></marker><marker id="circle-start-c8" markerHeight="10" markerWidth="10" orient="auto" refX="5" refY="5"><circle cx="5" cy="5" fill="#3bc322" r="4" /></marker><marker id="circle-end-c8" markerHeight="10" markerWidth="10" orient="auto" refX="5" refY="5"><circle cx="5" cy="5" fill="#3bc322" r="4" /></marker><marker id="arrow-end-c9" markerHeight="10" markerWidth="10" orient="auto" refX="10" refY="5"><path d="M 0 0 L 10 5 L 0 10 z" fill="#22c32e" /></marker><marker id="arrow-start-c9" markerHeight="10" markerWidth="10" orient="auto" refX="0" refY="5"><path d="M 10 0 L 0 5 L 10 10 z" fill="#22c32e" /></marker><marker id="circle-start-c9" markerHeight="10" markerWidth="10" orient="auto" refX="5" refY="5"><circle cx="5" cy="5" fill="#22c32e" r="4" /></marker><marker id="circle-end-c9" markerHeight="10" markerWidth="10" orient="auto" refX="5" refY="5"><circle cx="5" cy="5" fill="#22c32e" r="4" /></marker><marker id="arrow-end-c10" markerHeight="10" markerWidth="10" orient="auto" refX="10" refY="5"><path d="M 0 0 L 10 5 L 0 10 z" fill="#22c353" /></marker><marker id="arrow-start-c10" markerHeight="10" markerWidth="10" orient="auto" refX="0" refY="5"><path d="M 10 0 L 0 5 L 10 10 z" fill="#22c353" /></marker><marker id="circle-start-c10" markerHeight="10" markerWidth="10" orient="auto" refX="5" refY="5"><circle cx="5" cy="5" fill="#22c353" r="4" /></marker><marker id="circle-end-c10" markerHeight="10" markerWidth="10" orient="auto" refX="5" refY="5"><circle cx="5" cy="5" fill="#22c353" r="4" /></marker><marker id="arrow-end-c11" markerHeight="10" markerWidth="10" orient="auto" refX="10" refY="5"><path d="M 0 0 L 10 5 L 0 10 z" fill="#22c378" /></marker><marker id="arrow-start-c11" markerHeight="10" markerWidth="10" orient="auto" refX="0" refY="5"><path d="M 10 0 L 0 5 L 10 10 z" fill="#22c378" /></marker><marker id="circle-start-c11" markerHeight="10" markerWidth="10" orient="auto" refX="5" refY="5"><circle cx="5" cy="5" fill="#22c378" r="4" /></marker><marker id="circle-end-c11" markerHeight="10" markerWidth="10" orient="auto" refX="5" refY="5"><circle cx="5" cy="5" fill="#22c378" r="4" /></marker><marker id="arrow-end-c12" markerHeight="10" markerWidth="10" orient="auto" refX="10" refY="5"><path d="M 0 0 L 10 5 L 0 10 z" fill="#22c39e" /></marker><marker id="arrow-start-c12" markerHeight="10" markerWidth="10" orient="auto" refX="0" refY="5"><path d="M 10 0 L 0 5 L 10 10 z" fill="#22c39e" /></marker><marker id="circle-start-c12" markerHeight="10" markerWidth="10" orient="auto" refX="5" refY="5"><circle cx="5" cy="5" fill="#22c39e" r="4" /></marker><marker id="circle-end-c12" markerHeight="10" markerWidth="10" orient="auto" refX="5" refY="5"><circle cx="5" cy="5" fill="#22c39e" r="4" /></marker><marker id="arrow-end-c13" markerHeight="10" markerWidth="10" orient="auto" refX="10" refY="5"><path d="M 0 0 L 10 5 L 0 10 z" fill="#22c3c3" /></marker><marker id="arrow-start-c13" markerHeight="10" markerWidth="10" orient="auto" refX="0" refY="5"><path d="M 10 0 L 0 5 L 10 10 z" fill="#22c3c3" /></marker><marker id="circle-start-c13" markerHeight="10" markerWidth="10" orient="auto" refX="5" refY="5"><circle cx="5" cy="5" fill="#22c3c3" r="4" /></marker><marker id="circle-end-c13" markerHeight="10" markerWidth="10" orient="auto" refX="5" refY="5"><circle cx="5" cy="5" fill="#22c3c3" r="4" /></marker><marker id="arrow-end-c14" markerHeight="10" markerWidth="10" orient="auto" refX="10" refY="5"><path d="M 0 0 L 10 5 L 0 10 z" fill="#229ec3" /></marker><marker id="arrow-start-c14" markerHeight="10" markerWidth="10" orient="auto" refX="0" refY="5"><path d="M 10 0 L 0 5 L 10 10 z" fill="#229ec3" /></marker><marker id="circle-start-c14" markerHeight="10" markerWidth="10" orient="auto" refX="5" refY="5"><circle cx="5" cy="5" fill="#229ec3" r="4" /></marker><marker id="circle-end-c14" markerHeight="10" markerWidth="10" orient="auto" refX="5" refY="5"><circle cx="5" cy="5" fill="#229ec3" r="4" /></marker><marker id="arrow-end-c15" markerHeight="10" markerWidth="10" orient="auto" refX="10" refY="5"><path d="M 0 0 L 10 5 L 0 10 z" fill="#2278c3" /></marker><marker id="arrow-start-c15" markerHeight="10" markerWidth="10" orient="auto" refX="0" refY="5"><path d="M 10 0 L 0 5 L 10 10 z" fill="#2278c3" /></marker><marker id="circle-start-c15" markerHeight="10" markerWidth="10" orient="auto" refX="5" refY="5"><circle cx="5" cy="5" fill="#2278c3" r="4" /></marker><marker id="circle-end-c15" markerHeight="10" markerWidth="10" orient="auto" refX="5" refY="5"><circle cx="5" cy="5" fill="#2278c3" r="4" /></marker><marker id="arrow-end-c16" markerHeight="10" markerWidth="10" orient="auto" refX="10" refY="5"><path d="M 0 0 L 10 5 L 0 10 z" fill="#2253c3" /></marker><marker id="arrow-start-c16" markerHeight="10" markerWidth="10" orient="auto" refX="0" refY="5"><path d="M 10 0 L 0 5 L 10 10 z" fill="#2253c3" /></marker><marker id="circle-start-c16" markerHeight="10" markerWidth="10" orient="auto" refX="5" refY="5"><circle cx="5" cy="5" fill="#2253c3" r="4" /></marker><marker id="circle-end-c16" markerHeight="10" markerWidth="10" orient="auto" refX="5" refY="5"><circle cx="5" cy="5" fill="#2253c3" r="4" /></marker><marker id="arrow-end-c17" markerHeight="10" markerWidth="10" orient="auto" refX="10" refY="5"><path d="M 0 0 L 10 5 L 0 10 z" fill="#222ec3" /></marker><marker id="arrow-start-c17" markerHeight="10" markerWidth="10" orient="auto" refX="0" refY="5"><path d="M 10 0 L 0 5 L 10 10 z" fill="#222ec3" /></marker><marker id="circle-start-c17" markerHeight="10" markerWidth="10" orient="auto" refX="5" refY="5"><circle cx="5" cy="5" fill="#222ec3" r="4" /></marker><marker id="circle-end-c17" markerHeight="10" markerWidth="10" orient="auto" refX="5" refY="5"><circle cx="5" cy="5" fill="#222ec3" r="4" /></marker><marker id="arrow-end-c18" markerHeight="10" markerWidth="10" orient="auto" refX="10" refY="5"><path d="M 0 0 L 10 5 L 0 10 z" fill="#3b22c3" /></marker><marker id="arrow-start-c18" markerHeight="10" markerWidth="10" orient="auto" refX="0" refY="5"><path d="M 10 0 L 0 5 L 10 10 z" fill="#3b22c3" /></marker><marker id="circle-start-c18" markerHeight="10" markerWidth="10" orient="auto" refX="5" refY="5"><circle cx="5" cy="5" fill="#3b22c3" r="4" /></marker><marker id="circle-end-c18" markerHeight="10" markerWidth="10" orient="auto" refX="5" refY="5"><circle cx="5" cy="5" fill="#3b22c3" r="4" /></marker><marker id="arrow-end-c19" markerHeight="10" markerWidth="10" orient="auto" refX="10" refY="5"><path d="M 0 0 L 10 5 L 0 10 z" fill="#6022c3" /></marker><marker id="arrow-start-c19" markerHeight="10" markerWidth="10" orient="auto" refX="0" refY="5"><path d="M 10 0 L 0 5 L 10 10 z" fill="#6022c3" /></marker><marker id="circle-start-c19" markerHeight="10" markerWidth="10" orient="auto" refX="5" refY="5"><circle cx="5" cy="5" fill="#6022c3" r="4" /></marker><marker id="circle-end-c19" markerHeight="10" markerWidth="10" orient="auto" refX="5" refY="5"><circle cx="5" cy="5" fill="#6022c3" r="4" /></marker><marker id="arrow-end-c20" markerHeight="10" markerWidth="10" orient="auto" refX="10" refY="5"><path d="M 0 0 L 10 5 L 0 10 z" fill="#8522c3" /></marker><marker id="arrow-start-c20" markerHeight="10" markerWidth="10" orient="auto" refX="0" refY="5"><path d="M 10 0 L 0 5 L 10 10 z" fill="#8522c3" /></marker><marker id="circle-start-c20" markerHeight="10" markerWidth="10" orient="auto" refX="5" refY="5"><circle cx="5" cy="5" fill="#8522c3" r="4" /></marker><marker id="circle-end-c20" markerHeight="10" markerWidth="10" orient="auto" refX="5" refY="5"><circle cx="5" cy="5" fill="#8522c3" r="4" /></marker><marker id="arrow-end-c21" markerHeight="10" markerWidth="10" orient="auto" refX="10" refY="5"><path d="M 0 0 L 10 5 L 0 10 z" fill="#aa22c3" /></marker><marker id="arrow-start-c21" markerHeight="10" markerWidth="10" orient="auto" refX="0" refY="5"><path d="M 10 0 L 0 5 L 10 10 z" fill="#aa22c3" /></marker><marker id="circle-start-c21" markerHeight="10" markerWidth="10" orient="auto" refX="5" refY="5"><circle cx="5" cy="5" fill="#aa22c3" r="4" /></marker><marker id="circle-end-c21" markerHeight="10" markerWidth="10" orient="auto" refX="5" refY="5"><circle cx="5" cy="5" fill="#aa22c3" r="4" /></marker><marker id="arrow-end-c22" markerHeight="10" markerWidth="10" orient="auto" refX="10" refY="5"><path d="M 0 0 L 10 5 L 0 10 z" fill="#c322b6" /></marker><marker id="arrow-start-c22" markerHeight="10" markerWidth="10" orient="auto" refX="0" refY="5"><path d="M 10 0 L 0 5 L 10 10 z" fill="#c322b6" /></marker><marker id="circle-start-c22" markerHeight="10" markerWidth="10" orient="auto" refX="5" refY="5"><circle cx="5" cy="5" fill="#c322b6" r="4" /></marker><marker id="circle-end-c22" markerHeight="10" markerWidth="10" orient="auto" refX="5" refY="5"><circle cx="5" cy="5" fill="#c322b6" r="4" /></marker><marker id="arrow-end-c23" markerHeight="10" markerWidth="10" orient="auto" refX="10" refY="5"><path d="M 0 0 L 10 5 L 0 10 z" fill="#c32291" /></marker><marker id="arrow-start-c23" markerHeight="10" markerWidth="10" orient="auto" refX="0" refY="5"><path d="M 10 0 L 0 5 L 10 10 z" fill="#c32291" /></marker><marker id="circle-start-c23" markerHeight="10" markerWidth="10" orient="auto" refX="5" refY="5"><circle cx="5" cy="5" fill="#c32291" r="4" /></marker><marker id="circle-end-c23" markerHeight="10" markerWidth="10" orient="auto" refX="5" refY="5"><circle cx="5" cy="5" fill="#c32291" r="4" /></marker><marker id="arrow-end-c24" markerHeight="10" markerWidth="10" orient="auto" refX="10" refY="5"><path d="M 0 0 L 10 5 L 0 10 z" fill="#c3226c" /></marker><marker id="arrow-start-c24" markerHeight="10" markerWidth="10" orient="auto" refX="0" refY="5"><path d="M 10 0 L 0 5 L 10 10 z" fill="#c3226c" /></marker><marker id="circle-start-c24" markerHeight="10" markerWidth="10" orient="auto" refX="5" refY="5"><circle cx="5" cy="5" fill="#c3226c" r="4" /></marker><marker id="circle-end-c24" markerHeight="10" markerWidth="10" orient="auto" refX="5" refY="5"><circle cx="5" cy="5" fill="#c3226c" r="4" /></marker><marker id="arrow-end-c25" markerHeight="10" markerWidth="10" orient="auto" refX="10" refY="5"><path d="M 0 0 L 10 5 L 0 10 z" fill="#c32247" /></marker><marker id="arrow-start-c25" markerHeight="10" markerWidth="10" orient="auto" refX="0" refY="5"><path d="M 10 0 L 0 5 L 10 10 z" fill="#c32247" /></marker><marker id="circle-start-c25" markerHeight="10" markerWidth="10" orient="auto" refX="5" refY="5"><circle cx="5" cy="5" fill="#c32247" r="4" /></marker><marker id="circle-end-c25" markerHeight="10" markerWidth="10" orient="auto" refX="5" refY="5"><circle cx="5" cy="5" fill="#c32247" r="4" /></marker></defs><g id="jose_heraclides" transform="translate(676.0,20.0) scale(1.0)"><circle cx="40" cy="15" r="8" fill="white" stroke="currentColor" stroke-width="2" /><rect x="30" y="24" width="20" height="16" rx="4" fill="currentColor" /><rect x="38" y="28" width="4" height="10" fill="white" /></g><g id="daria" transform="translate(1156.0,20.0) scale(1.0)"><circle cx="40" cy="15" r="8" fill="white" stroke="currentColor" stroke-width="2" /><path d="M30 26 Q40 20 50 26 L45 40 L35 40 Z" fill="currentColor" /></g><g id="union_padres" transform="translate(1156.0,310.0) scale(1.0)"><circle cx="30" cy="25" r="10" fill="none" stroke="currentColor" stroke-width="3" /><circle cx="50" cy="25" r="10" fill="none" stroke="currentColor" stroke-width="3" /></g><g id="silvia" transform="translate(2020.0,600.0) scale(1.0)"><circle cx="40" cy="15" r="8" fill="white" stroke="currentColor" stroke-width="2" /><path d="M30 26 Q40 20 50 26 L45 40 L35 40 Z" fill="currentColor" /></g><g id="lika" transform="translate(1732.0,600.0) scale(1.0)"><circle cx="40" cy="15" r="8" fill="white" stroke="currentColor" stroke-width="2" /><path d="M30 26 Q40 20 50 26 L45 40 L35 40 Z" fill="currentColor" /></g><g id="patricia" transform="translate(292.0,600.0) scale(1.0)"><circle cx="40" cy="15" r="8" fill="white" stroke="currentColor" stroke-width="2" /><path d="M30 26 Q40 20 50 26 L45 40 L35 40 Z" fill="currentColor" /></g><g id="santiago" transform="translate(1060.0,600.0) scale(1.0)"><circle cx="40" cy="15" r="8" fill="white" stroke="currentColor" stroke-width="2" /><rect x="30" y="24" width="20" height="16" rx="4" fill="currentColor" /><rect x="38" y="28" width="4" height="10" fill="white" /></g><g id="jose" transform="translate(580.0,600.0) scale(1.0)"><circle cx="40" cy="15" r="8" fill="white" stroke="currentColor" stroke-width="2" /><rect x="30" y="24" width="20" height="16" rx="4" fill="currentColor" /><rect x="38" y="28" width="4" height="10" fill="white" /></g><g id="martin" transform="translate(1540.0,600.0) scale(1.0)"><circle cx="40" cy="15" r="8" fill="white" stroke="currentColor" stroke-width="2" /><rect x="30" y="24" width="20" height="16" rx="4" fill="currentColor" /><rect x="38" y="28" width="4" height="10" fill="white" /></g><g id="elmer" transform="translate(2212.0,600.0) scale(1.0)"><circle cx="40" cy="15" r="8" fill="white" stroke="currentColor" stroke-width="2" /><rect x="30" y="24" width="20" height="16" rx="4" fill="currentColor" /><rect x="38" y="28" width="4" height="10" fill="white" /></g><g id="ricardo" transform="translate(100.0,600.0) scale(1.0)"><circle cx="40" cy="15" r="8" fill="white" stroke="currentColor" stroke-width="2" /><rect x="30" y="24" width="20" height="16" rx="4" fill="currentColor" /><rect x="38" y="28" width="4" height="10" fill="white" /></g><g id="claudia" transform="translate(772.0000000000001,600.0) scale(1.0)"><circle cx="40" cy="15" r="8" fill="white" stroke="currentColor" stroke-width="2" /><path d="M30 26 Q40 20 50 26 L45 40 L35 40 Z" fill="currentColor" /></g><g id="leila" transform="translate(1252.0000000000002,600.0) scale(1.0)"><circle cx="40" cy="15" r="8" fill="white" stroke="currentColor" stroke-width="2" /><path d="M30 26 Q40 20 50 26 L45 40 L35 40 Z" fill="currentColor" /></g><path d="m 33.382966,8e-4 c -3.861042,1.2762 -4.631646,6.37476 -8.713738,7.58064 -4.763632,3.80168 -7.027208,10.1432 -6.16644,16.12572 0.33152,3.88876 1.751504,7.57356 3.294256,11.12272 C 14.743804,40.50868 7.020292,45.29236 0,51.01416 c 0.0088,1.60388 2.571968,3.52192 3.1231,4.06796 3.251976,-1.413 1.180916,4.0242 4.391336,2.93684 0.547784,2.65168 4.059744,2.41792 4.424732,5.1808 3.474884,1.40976 5.871092,-3.60896 9.041844,-4.63968 4.692352,-3.27 9.331832,-6.6164 14.073835,-9.8148 4.49228,1.24988 8.3626,4.127 12.98444,5.03568 7.80432,2.36256 16.43632,1.5656 23.73004,-2.02148 4.6368,-2.28272 0.2696,-7.48384 -3.512,-7.30124 -7.07976,-1.44424 -14.26972,-3.36556 -20.32528,-7.46088 8.56576,-5.7508 17.58792,-10.81572 25.892,-16.95564 1.39956,-2.93964 -3.96644,-4.45148 -4.29872,-6.52308 -2.5844,0.91256 -2.66588,-1.5376 -2.34908,-2.97408 -1.63932,-1.19972 -3.72724,-3.25572 -4.68312,-4.18028 -8.53084,4.92348 -16.4076,10.8902 -24.95356,15.789 -2.407,-3.7232 -1.01408,-8.56452 -2.01052,-12.73416 -0.858401,-2.87864 1.40132,-7.4902 -0.910321,-9.33832 L 33.968326,0.0488 33.382806,0 Z m -0.1872,0.8914 c 0.3068,3.05576 -2.295922,6.0048 -0.538122,9.15572 0.675682,5.46024 0.604682,10.97176 0.699762,16.46244 -3.362242,1.81824 -6.593462,6.28168 -10.531522,5.58328 C 20.298644,29.42576 20.202072,25.23552 19.71614,21.7482 19.5367,15.91892 22.46468,9.9152 27.693068,7.11652 29.982004,5.45768 31.379684,2.92084 33.195766,0.8922 Z m 29.594001,6.4392 c 1.46792,2.53452 4.402,4.60776 3.57992,7.65776 1.61956,-0.52456 3.84108,-1.75012 3.77228,0.86636 2.411,1.43844 4.43252,4.9366 0.3672,5.68956 -7.52336,4.96068 -15.18952,9.69916 -22.79632,14.52964 -0.9216,-1.074 -5.60524,-6.12564 -3.166,-2.69128 3.265,2.94944 2.28268,7.38576 -1.67776,9.05112 -3.09804,2.1632 -7.06632,6.08608 -10.816643,3.16052 2.840322,1.60192 1.262722,4.59268 -1.56468,5.2684 -5.79348,4.02824 -11.478884,8.34496 -17.461448,12.1556 C 11.925032,61.34676 11.677424,58.83888 9.39482,59.16524 9.42802,57.0466 7.921908,56.51992 6.429668,56.32936 6.050108,54.97788 5.144404,52.72108 3.569348,54.4524 1.890272,53.17044 -0.134324,50.23212 3.121808,49.49748 9.527956,44.95864 15.784572,40.20916 22.281804,35.79912 c 1.534164,0.80484 3.739236,5.00052 4.030108,4.09568 -2.475856,-2.3784 -3.285572,-6.73764 0.843508,-7.77088 3.400024,-1.60856 6.755106,-5.66968 9.963827,-6.033 1.6652,1.04096 2.7588,5.7114 3.72452,5.18316 -0.2484,-2.83948 -5.46992,-6.43472 -1.878,-8.59836 7.42756,-5.4882 15.29672,-10.35556 23.22328,-15.07924 l 0.60088,-0.2652 z m -16.048,32.9764 c 7.33188,4.47516 15.82704,7.10848 24.43088,7.2878 2.95896,3.62772 -4.24068,5.12244 -6.89324,5.56544 -9.07796,1.72076 -18.81696,-0.2268 -26.63288,-5.07956 0.0952,-2.88528 5.25168,-3.33004 6.8208,-5.91508 0.75888,-0.61864 1.51188,-1.24448 2.27444,-1.8586 z" fill="black" stroke="black" stroke-width="0.5" transform="translate(2116.0,890.0) scale(0.8333333333333334)" /><path d="m 12.420856,61.7005 c -0.901752,-1.95184 -1.520106,-2.59004 -2.509542,-2.59004 -0.365876,0 -0.39353,-0.037 -0.533738,-0.71228 -0.19222,-0.92592 -0.840804,-1.60888 -1.797812,-1.89308 -0.36702,-0.109 -0.757776,-0.1982 -0.86834,-0.1982 -0.1321,0 -0.303468,-0.28568 -0.499872,-0.83334 -0.358934,-1.0008 -0.976662,-1.71534 -1.482938,-1.71534 -0.19372,0 -0.550036,0.1222 -0.791824,0.27168 l -0.4396,0.2717 -0.61976,-0.61044 c -0.727678,-0.71674 -1.398376,-1.9033 -1.398376,-2.47392 0,-0.80186 0.371614,-1.2 1.531726,-1.64108 0.1745,-0.0664 2.639484,-1.80054 5.477732,-3.85378 12.105662,-8.75746 13.688092,-9.85432 13.983802,-9.69278 0.355472,0.1942 1.06138,0.98676 2.240946,2.51616 0.938626,1.217 1.295252,1.57706 1.562068,1.57706 0.16176,0 -0.0126,-0.32846 -0.554546,-1.0446 -2.204708,-2.9133 -1.7517,-5.69618 1.104954,-6.78776 1.095332,-0.41854 2.42461,-1.28368 5.173694,-3.3672 2.315476,-1.7549 3.870317,-2.61038 4.762757,-2.6205 0.53806,-0.006 0.6015,0.031 1.04036,0.60804 0.25704,0.338 0.85698,1.37022 1.33322,2.2938 0.96186,1.86546 1.14344,2.12528 1.48518,2.12528 0.54976,0 0.1164,-1.19058 -1.15096,-3.16142 -1.63672,-2.54542 -1.955,-3.5232 -1.44932,-4.45228 0.32188,-0.59136 4.23894,-3.42046 9.84424,-7.11004 5.27242,-3.47044 14.4363,-9.10636 14.80676,-9.10636 0.1042,0 0.25006,0.129 0.32408,0.28672 0.074,0.1578 0.57552,0.85238 1.1145,1.54372 1.89948,2.43646 2.44942,3.61534 2.31176,4.9554 -0.0832,0.81006 -0.0558,0.83294 0.64476,0.54018 1.94884,-0.81428 2.97162,-0.57646 2.97162,0.69098 0,0.27488 0.1192,0.4416 0.50902,0.71172 1.23736,0.8575 2.16708,2.28378 2.16708,3.32452 0,0.51574 -0.0626,0.65518 -0.48138,1.07408 -0.30412,0.30412 -0.7181,0.55168 -1.12416,0.67226 -0.37332,0.1108 -1.62728,0.82974 -2.99118,1.7148 -4.2357,2.7486 -19.17252,12.22338 -20.21678,12.824 -0.0972,0.0558 -0.87376,-0.63746 -2.08196,-1.8591 -1.18482,-1.198 -1.952,-1.8845 -1.99216,-1.78266 -0.08,0.20298 0.3841,0.91584 1.0952,1.68216 0.29266,0.3154 0.7448,1.00056 1.00474,1.5226 0.43504,0.87366 0.47262,1.03632 0.47262,2.04554 0,1.01058 -0.0374,1.17228 -0.47904,2.06568 -0.5417,1.0961 -1.39922,1.97108 -2.524,2.57548 -0.3809,0.20466 -1.2373,0.77474 -1.90316,1.26686 -3.18876,2.3567 -4.84414,3.16532 -6.507001,3.17856 -0.84492,0.006 -1.07256,-0.0456 -1.84778,-0.424 -1.208232,-0.58988 -1.212306,-0.59022 -0.580702,-0.0464 1.227322,1.05656 1.193242,2.48996 -0.08668,3.6439 -0.548778,0.49478 -1.415764,0.99314 -1.72773,0.99314 -0.10064,0 -2.325074,1.52716 -4.943136,3.3937 -8.074734,5.75688 -12.392204,8.7125 -12.726914,8.7125 -0.0779,0 -0.371548,-0.4975 -0.652472,-1.10556 z" fill="#ffff00" fill-rule="evenodd" stroke="#cbcbcb" stroke-width="0.0611682" transform="translate(2116.0,890.0) scale(0.8333333333333334)" /><path d="m 22.489342,31.52582 c -0.64424,-0.73374 -1.395572,-2.34156 -1.757046,-3.75998 -0.432412,-1.69676 -0.8834,-5.1668 -0.882142,-6.78748 0.0042,-5.56444 2.985634,-10.93886 7.526286,-13.56762 1.005766,-0.58228 2.355818,-1.97466 4.135702,-4.2654 0.827626,-1.06518 1.543744,-1.93668 1.591384,-1.93668 0.1706,0 -0.1064,1.60026 -0.622596,3.59622 -0.598096,2.31274 -0.619242,3.40994 -0.09546,4.95432 0.18338,0.54074 0.362066,1.66158 0.466026,2.92328 0.1655,2.00848 0.43005,9.39754 0.43967,12.27946 l 0.006,1.4634 -1.13276,0.76812 c -0.62302,0.42246 -1.92204,1.3953 -2.886722,2.16188 -2.277544,1.80984 -3.762946,2.56562 -5.227054,2.65958 l -1.07041,0.0686 z" fill="#bfbfbf" fill-rule="evenodd" stroke="#cbcbcb" stroke-width="0.0701582" transform="translate(2116.0,890.0) scale(0.8333333333333334)" /><path d="m 54.635847,53.58508 c -5.4849,-0.52902 -10.7308,-2.11586 -15.27404,-4.62028 -0.7235,-0.39882 -1.38848,-0.78378 -1.47772,-0.85548 -0.59134,-0.47502 0.83618,-2.0722 2.72012,-3.04342 1.85938,-0.95856 3.01272,-1.72266 3.55318,-2.35406 0.26648,-0.31134 0.96346,-0.95642 1.54882,-1.4335 l 1.0643,-0.86746 1.09542,0.64762 c 4.8739,2.88154 11.32624,5.16618 17.03906,6.03318 1.66192,0.25222 5.11384,0.59682 5.97832,0.59682 0.39332,0 0.85242,0.8396 0.85306,1.56004 0.002,1.97942 -3.89552,3.5343 -10.74242,4.28586 -1.21644,0.1336 -5.17222,0.165 -6.3581,0.0508 z" fill="#bfbfbf" fill-rule="evenodd" stroke="#cbcbcb" stroke-width="0.0701582" transform="translate(2116.0,890.0) scale(0.8333333333333334)" /><g id="union_lika" transform="translate(1636.0,890.0) scale(1.0)"><circle cx="30" cy="25" r="10" fill="none" stroke="currentColor" stroke-width="3" /><circle cx="50" cy="25" r="10" fill="none" stroke="currentColor" stroke-width="3" /></g><g id="union_patricia" transform="translate(196.0,890.0) scale(1.0)"><circle cx="30" cy="25" r="10" fill="none" stroke="currentColor" stroke-width="3" /><circle cx="50" cy="25" r="10" fill="none" stroke="currentColor" stroke-width="3" /></g><g id="union_jose" transform="translate(676.0,890.0) scale(1.0)"><circle cx="30" cy="25" r="10" fill="none" stroke="currentColor" stroke-width="3" /><circle cx="50" cy="25" r="10" fill="none" stroke="currentColor" stroke-width="3" /></g><g id="union_santiago" transform="translate(1156.0,890.0) scale(1.0)"><circle cx="30" cy="25" r="10" fill="none" stroke="currentColor" stroke-width="3" /><circle cx="50" cy="25" r="10" fill="none" stroke="currentColor" stroke-width="3" /></g><g id="sebastian" transform="translate(2116.0,1180.0) scale(1.0)"><circle cx="40" cy="17" r="6" fill="white" stroke="currentColor" stroke-width="2" /><rect x="34" y="24" width="12" height="14" rx="3" fill="currentColor" /></g><g id="mateo" transform="translate(1732.0,1180.0) scale(1.0)"><circle cx="40" cy="17" r="6" fill="white" stroke="currentColor" stroke-width="2" /><rect x="34" y="24" width="12" height="14" rx="3" fill="currentColor" /></g><g id="pascual" transform="translate(1540.0,1180.0) scale(1.0)"><circle cx="40" cy="17" r="6" fill="white" stroke="currentColor" stroke-width="2" /><rect x="34" y="24" width="12" height="14" rx="3" fill="currentColor" /></g><g id="diego" transform="translate(196.0,1180.0) scale(1.0)"><circle cx="40" cy="17" r="6" fill="white" stroke="currentColor" stroke-width="2" /><rect x="34" y="24" width="12" height="14" rx="3" fill="currentColor" /></g><g id="jose_antonio" transform="translate(1348.0000000000002,1180.0) scale(1.0)"><circle cx="40" cy="17" r="6" fill="white" stroke="currentColor" stroke-width="2" /><rect x="34" y="24" width="12" height="14" rx="3" fill="currentColor" /></g><g id="patricia_hija" transform="translate(1156.0,1180.0) scale(1.0)"><circle cx="40" cy="17" r="6" fill="white" stroke="currentColor" stroke-width="2" /><rect x="34" y="24" width="12" height="14" rx="3" fill="currentColor" /></g><g id="santiaguito" transform="translate(964.0,1180.0) scale(1.0)"><circle cx="40" cy="17" r="6" fill="white" stroke="currentColor" stroke-width="2" /><rect x="34" y="24" width="12" height="14" rx="3" fill="currentColor" /></g><g id="gerardo" transform="translate(580.0,1180.0) scale(1.0)"><circle cx="40" cy="17" r="6" fill="white" stroke="currentColor" stroke-width="2" /><rect x="34" y="24" width="12" height="14" rx="3" fill="currentColor" /></g><g id="dante" transform="translate(772.0000000000001,1180.0) scale(1.0)"><circle cx="40" cy="17" r="6" fill="white" stroke="currentColor" stroke-width="2" /><rect x="34" y="24" width="12" height="14" rx="3" fill="currentColor" /></g><path d="M 756.0,100.1 L 756.0,286.9 Q 756.0,311.9 781.0,311.9 L 1124.0,311.9" fill="none" stroke="#c32222" stroke-width="2" /><polyline fill="none" points="1196.0,102.0 1196.0,278.0" stroke="#c34722" stroke-width="2" /><path d="M 1268.0,353.7 L 1995.0,353.7 Q 2020.0,353.7 2020.0,378.7 L 2020.0,569.9" fill="none" stroke="#c36c22" stroke-width="2" /><path d="M 1263.7,360.0 L 1707.0,360.0 Q 1732.0,360.0 1732.0,385.0 L 1732.0,569.9" fill="none" stroke="#c39122" stroke-width="2" /><path d="M 1124.0,353.7 L 397.0,353.7 Q 372.0,353.7 372.0,378.7 L 372.0,569.9" fill="none" stroke="#c3b622" stroke-width="2" /><path d="M 1149.6,364.0 L 1132.0,364.0 Q 1114.4,364.0 1114.4,381.6 L 1114.4,568.0" fill="none" stroke="#aac322" stroke-width="2" /><path d="M 1128.3,356.0 L 685.0,356.0 Q 660.0,356.0 660.0,381.0 L 660.0,569.9" fill="none" stroke="#85c322" stroke-width="2" /><path d="M 2074.4,682.0 L 2074.4,872.4 Q 2074.4,890.0 2092.0,890.0 L 2109.6,890.0" fill="none" stroke="#60c322" stroke-width="2" /><path d="M 2237.6,682.0 L 2237.6,872.4 Q 2237.6,890.0 2220.0,890.0 L 2202.4,890.0" fill="none" stroke="#3bc322" stroke-width="2" /><path d="M 1725.6,650.0 L 1708.0,650.0 Q 1690.4,650.0 1690.4,667.6 L 1690.4,858.0" fill="none" stroke="#22c32e" stroke-width="2" /><path d="M 1626.4,650.0 L 1644.0,650.0 Q 1661.6,650.0 1661.6,667.6 L 1661.6,858.0" fill="none" stroke="#22c353" stroke-width="2" /><polyline fill="none" points="2156.0,972.0 2156.0,1148.0" stroke="#22c378" stroke-width="2" /><path d="M 1690.4,972.0 L 1690.4,1162.4 Q 1690.4,1180.0 1708.0,1180.0 L 1725.6,1180.0" fill="none" stroke="#22c39e" stroke-width="2" /><path d="M 1661.6,972.0 L 1661.6,1162.4 Q 1661.6,1180.0 1644.0,1180.0 L 1626.4,1180.0" fill="none" stroke="#22c3c3" stroke-width="2" /><path d="M 317.6,682.0 L 317.6,872.4 Q 317.6,890.0 300.0,890.0 L 282.4,890.0" fill="none" stroke="#229ec3" stroke-width="2" /><path d="M 154.4,682.0 L 154.4,872.4 Q 154.4,890.0 172.0,890.0 L 189.6,890.0" fill="none" stroke="#2278c3" stroke-width="2" /><polyline fill="none" points="236.0,972.0 236.0,1148.0" stroke="#2253c3" stroke-width="2" /><path d="M 634.4,682.0 L 634.4,745.0 Q 634.4,770.0 659.4,770.0 L 676.6,770.0 Q 701.6,770.0 701.6,795.0 L 701.6,858.0" fill="none" stroke="#222ec3" stroke-width="2" /><path d="M 797.6,682.0 L 797.6,745.0 Q 797.6,770.0 772.6,770.0 L 755.4,770.0 Q 730.4,770.0 730.4,795.0 L 730.4,858.0" fill="none" stroke="#3b22c3" stroke-width="2" /><path d="M 701.6,972.0 L 701.6,1035.0 Q 701.6,1060.0 676.6,1060.0 L 659.4,1060.0 Q 634.4,1060.0 634.4,1085.0 L 634.4,1148.0" fill="none" stroke="#6022c3" stroke-width="2" /><path d="M 730.4,972.0 L 730.4,1035.0 Q 730.4,1060.0 755.4,1060.0 L 772.6,1060.0 Q 797.6,1060.0 797.6,1085.0 L 797.6,1148.0" fill="none" stroke="#8522c3" stroke-width="2" /><path d="M 1114.4,682.0 L 1114.4,872.4 Q 1114.4,890.0 1132.0,890.0 L 1149.6,890.0" fill="none" stroke="#aa22c3" stroke-width="2" /><path d="M 1277.6,682.0 L 1277.6,872.4 Q 1277.6,890.0 1260.0,890.0 L 1242.4,890.0" fill="none" stroke="#c322b6" stroke-width="2" /><path d="M 1210.4,972.0 L 1210.4,1035.0 Q 1210.4,1060.0 1235.4,1060.0 L 1348.6,1060.0 Q 1373.6,1060.0 1373.6,1085.0 L 1373.6,1148.0" fill="none" stroke="#c32291" stroke-width="2" /><polyline fill="none" points="1196.0,972.0 1196.0,1148.0" stroke="#c3226c" stroke-width="2" /><path d="M 1181.6,972.0 L 1181.6,1035.0 Q 1181.6,1060.0 1156.6,1060.0 L 1043.4,1060.0 Q 1018.4,1060.0 1018.4,1085.0 L 1018.4,1148.0" fill="none" stroke="#c32247" stroke-width="2" /><text fill="black" filter="url(#text-glow)" font-family="Arial, sans-serif" font-size="14px" text-anchor="start" x="768.6" y="45.0">José Heráclides</text><text fill="black" filter="url(#text-glow)" font-family="Arial, sans-serif" font-size="14px" text-anchor="start" x="1248.6" y="45.0">Daría</text><text fill="black" filter="url(#text-glow)" font-family="Arial, sans-serif" font-size="14px" text-anchor="middle" x="2060.0" y="579.0">Silvia</text><text fill="black" filter="url(#text-glow)" font-family="Arial, sans-serif" font-size="14px" text-anchor="middle" x="1772.0" y="579.0">Lika</text><text fill="black" filter="url(#text-glow)" font-family="Arial, sans-serif" font-size="14px" text-anchor="middle" x="332.0" y="579.0">Patricia</text><text fill="black" filter="url(#text-glow)" font-family="Arial, sans-serif" font-size="14px" text-anchor="start" x="1152.6" y="625.0">Santiago</text><text fill="black" filter="url(#text-glow)" font-family="Arial, sans-serif" font-size="14px" text-anchor="middle" x="620.0" y="579.0">José</text><text fill="black" filter="url(#text-glow)" font-family="Arial, sans-serif" font-size="14px" text-anchor="middle" x="1580.0" y="579.0">Martín</text><text fill="black" filter="url(#text-glow)" font-family="Arial, sans-serif" font-size="14px" text-anchor="middle" x="2252.0" y="579.0">Elmer</text><text fill="black" filter="url(#text-glow)" font-family="Arial, sans-serif" font-size="14px" text-anchor="middle" x="140.0" y="579.0">Ricardo</text><text fill="black" filter="url(#text-glow)" font-family="Arial, sans-serif" font-size="14px" text-anchor="middle" x="812.0000000000001" y="579.0">Claudia</text><text fill="black" filter="url(#text-glow)" font-family="Arial, sans-serif" font-size="14px" text-anchor="middle" x="1292.0000000000002" y="579.0">Leila</text><text fill="black" filter="url(#text-glow)" font-family="Arial, sans-serif" font-size="14px" text-anchor="middle" x="2156.0" y="1251.0">Sebastián</text><text fill="black" filter="url(#text-glow)" font-family="Arial, sans-serif" font-size="14px" text-anchor="middle" x="1772.0" y="1251.0">Mateo</text><text fill="black" filter="url(#text-glow)" font-family="Arial, sans-serif" font-size="14px" text-anchor="middle" x="1580.0" y="1251.0">Pascual</text><text fill="black" filter="url(#text-glow)" font-family="Arial, sans-serif" font-size="14px" text-anchor="middle" x="236.0" y="1251.0">Diego</text><text fill="black" filter="url(#text-glow)" font-family="Arial, sans-serif" font-size="14px" text-anchor="middle" x="1388.0000000000002" y="1251.0">José Antonio</text><text fill="black" filter="url(#text-glow)" font-family="Arial, sans-serif" font-size="14px" text-anchor="middle" x="1196.0" y="1251.0">Patricia</text><text fill="black" filter="url(#text-glow)" font-family="Arial, sans-serif" font-size="14px" text-anchor="middle" x="1004.0" y="1251.0">Santiaguito</text><text fill="black" filter="url(#text-glow)" font-family="Arial, sans-serif" font-size="14px" text-anchor="middle" x="620.0" y="1251.0">Gerardo</text><text fill="black" filter="url(#text-glow)" font-family="Arial, sans-serif" font-size="14px" text-anchor="middle" x="812.0000000000001" y="1251.0">Dante</text></svg>