<?xml version="1.0" encoding="utf-8" ?>
<svg xmlns:ns0="http://www.w3.org/2000/svg" baseProfile="full" height="900" version="1.1" viewBox="0,0,1460,900" width="1460" xmlns="http://www.w3.org/2000/svg" xmlns:ev="http://www.w3.org/2001/xml-events" xmlns:xlink="http://www.w3.org/1999/xlink"><defs><filter height="140%" id="text-glow" width="140%" x="-20%" y="-20%"><feGaussianBlur in="SourceGraphic" result="blur" stdDeviation="2" /><feFlood flood-color="white" flood-opacity="1" result="color" /><feComposite in="color" in2="blur" operator="in" result="shadow" /><feMerge><feMergeNode in="shadow" /><feMergeNode in="shadow" /><feMergeNode in="SourceGraphic" /></feMerge></filter><marker id="arrow-end" markerHeight="10" markerWidth="10" orient="auto" refX="10" refY="5"><path d="M 0 0 L 10 5 L 0 10 z" fill="black" /></marker><marker id="arrow-start" markerHeight="10" markerWidth="10" orient="auto" refX="0" refY="5"><path d="M 10 0 L 0 5 L 10 10 z" fill="black" /></marker><marker id="circle-start" markerHeight="10" markerWidth="10" orient="auto" refX="5" refY="5"><circle cx="5" cy="5" fill="black" r="4" /></marker><marker id="circle-end" markerHeight="10" markerWidth="10" orient="auto" refX="5" refY="5"><circle cx="5" cy="5" fill="black" r="4" /></marker></defs><g id="jose_heraclides" transform="translate(470,70) scale(1.0)"><ns0:rect x="2" y="2" width="76" height="46" rx="10" fill="currentColor" opacity="0.12" /><ns0:circle cx="40" cy="18" r="9" fill="currentColor" /><ns0:path d="M22 44c2-10 12-16 18-16s16 6 18 16" fill="currentColor" /><ns0:path d="M14 44h52" stroke="currentColor" stroke-width="2" opacity="0.35" /></g><g id="daria" transform="translate(730,70) scale(1.0)"><ns0:rect x="2" y="2" width="76" height="46" rx="10" fill="currentColor" opacity="0.12" /><ns0:circle cx="40" cy="17" r="8.5" fill="currentColor" /><ns0:path d="M26 26c3-4 8-6 14-6s11 2 14 6" fill="currentColor" opacity="0.55" /><ns0:path d="M22 44c3-9 11-15 18-15s15 6 18 15" fill="currentColor" /><ns0:path d="M14 44h52" stroke="currentColor" stroke-width="2" opacity="0.35" /></g><g id="union_padres" transform="translate(600,150) scale(1.0)"><ns0:rect x="2" y="2" width="76" height="46" rx="12" fill="currentColor" opacity="0.10" /><ns0:path d="M30 18c0-4 3-7 7-7 2 0 4 1 5 2 1-1 3-2 5-2 4 0 7 3 7 7 0 7-12 14-12 14S30 25 30 18z" fill="currentColor" /><ns0:path d="M18 36h44" stroke="currentColor" stroke-width="3" opacity="0.35" /></g><g id="silvia" transform="translate(200,280) scale(1.0)"><ns0:rect x="2" y="2" width="76" height="46" rx="10" fill="currentColor" opacity="0.12" /><ns0:circle cx="40" cy="17" r="8.5" fill="currentColor" /><ns0:path d="M26 26c3-4 8-6 14-6s11 2 14 6" fill="currentColor" opacity="0.55" /><ns0:path d="M22 44c3-9 11-15 18-15s15 6 18 15" fill="currentColor" /><ns0:path d="M14 44h52" stroke="currentColor" stroke-width="2" opacity="0.35" /></g><g id="lica" transform="translate(450,280) scale(1.0)"><ns0:rect x="2" y="2" width="76" height="46" rx="10" fill="currentColor" opacity="0.12" /><ns0:circle cx="40" cy="17" r="8.5" fill="currentColor" /><ns0:path d="M26 26c3-4 8-6 14-6s11 2 14 6" fill="currentColor" opacity="0.55" /><ns0:path d="M22 44c3-9 11-15 18-15s15 6 18 15" fill="currentColor" /><ns0:path d="M14 44h52" stroke="currentColor" stroke-width="2" opacity="0.35" /></g><g id="patricia" transform="translate(700,280) scale(1.0)"><ns0:rect x="2" y="2" width="76" height="46" rx="10" fill="currentColor" opacity="0.12" /><ns0:circle cx="40" cy="17" r="8.5" fill="currentColor" /><ns0:path d="M26 26c3-4 8-6 14-6s11 2 14 6" fill="currentColor" opacity="0.55" /><ns0:path d="M22 44c3-9 11-15 18-15s15 6 18 15" fill="currentColor" /><ns0:path d="M14 44h52" stroke="currentColor" stroke-width="2" opacity="0.35" /></g><g id="santiago" transform="translate(950,280) scale(1.0)"><ns0:rect x="2" y="2" width="76" height="46" rx="10" fill="currentColor" opacity="0.12" /><ns0:circle cx="40" cy="18" r="9" fill="currentColor" /><ns0:path d="M22 44c2-10 12-16 18-16s16 6 18 16" fill="currentColor" /><ns0:path d="M14 44h52" stroke="currentColor" stroke-width="2" opacity="0.35" /></g><g id="jose" transform="translate(1200,280) scale(1.0)"><ns0:rect x="2" y="2" width="76" height="46" rx="10" fill="currentColor" opacity="0.12" /><ns0:circle cx="40" cy="18" r="9" fill="currentColor" /><ns0:path d="M22 44c2-10 12-16 18-16s16 6 18 16" fill="currentColor" /><ns0:path d="M14 44h52" stroke="currentColor" stroke-width="2" opacity="0.35" /></g><g id="sebastian" transform="translate(200,500) scale(1.0)"><ns0:rect x="2" y="2" width="76" height="46" rx="10" fill="currentColor" opacity="0.12" /><ns0:circle cx="40" cy="18" r="7.5" fill="currentColor" /><ns0:path d="M26 44c2-8 9-13 14-13s12 5 14 13" fill="currentColor" /><ns0:circle cx="32" cy="14" r="2" fill="currentColor" opacity="0.6" /><ns0:circle cx="48" cy="14" r="2" fill="currentColor" opacity="0.6" /></g><g id="mateo_lica" transform="translate(400,500) scale(1.0)"><ns0:rect x="2" y="2" width="76" height="46" rx="10" fill="currentColor" opacity="0.12" /><ns0:circle cx="40" cy="18" r="7.5" fill="currentColor" /><ns0:path d="M26 44c2-8 9-13 14-13s12 5 14 13" fill="currentColor" /><ns0:circle cx="32" cy="14" r="2" fill="currentColor" opacity="0.6" /><ns0:circle cx="48" cy="14" r="2" fill="currentColor" opacity="0.6" /></g><g id="pascual" transform="translate(500,500) scale(1.0)"><ns0:rect x="2" y="2" width="76" height="46" rx="10" fill="currentColor" opacity="0.12" /><ns0:circle cx="40" cy="18" r="7.5" fill="currentColor" /><ns0:path d="M26 44c2-8 9-13 14-13s12 5 14 13" fill="currentColor" /><ns0:circle cx="32" cy="14" r="2" fill="currentColor" opacity="0.6" /><ns0:circle cx="48" cy="14" r="2" fill="currentColor" opacity="0.6" /></g><g id="diego" transform="translate(700,500) scale(1.0)"><ns0:rect x="2" y="2" width="76" height="46" rx="10" fill="currentColor" opacity="0.12" /><ns0:circle cx="40" cy="18" r="7.5" fill="currentColor" /><ns0:path d="M26 44c2-8 9-13 14-13s12 5 14 13" fill="currentColor" /><ns0:circle cx="32" cy="14" r="2" fill="currentColor" opacity="0.6" /><ns0:circle cx="48" cy="14" r="2" fill="currentColor" opacity="0.6" /></g><g id="jose_antonio" transform="translate(880,500) scale(1.0)"><ns0:rect x="2" y="2" width="76" height="46" rx="10" fill="currentColor" opacity="0.12" /><ns0:circle cx="40" cy="18" r="7.5" fill="currentColor" /><ns0:path d="M26 44c2-8 9-13 14-13s12 5 14 13" fill="currentColor" /><ns0:circle cx="32" cy="14" r="2" fill="currentColor" opacity="0.6" /><ns0:circle cx="48" cy="14" r="2" fill="currentColor" opacity="0.6" /></g><g id="patricia_hija" transform="translate(990,500) scale(1.0)"><ns0:rect x="2" y="2" width="76" height="46" rx="10" fill="currentColor" opacity="0.12" /><ns0:circle cx="40" cy="18" r="7.5" fill="currentColor" /><ns0:path d="M26 44c2-8 9-13 14-13s12 5 14 13" fill="currentColor" /><ns0:circle cx="32" cy="14" r="2" fill="currentColor" opacity="0.6" /><ns0:circle cx="48" cy="14" r="2" fill="currentColor" opacity="0.6" /></g><g id="santiagoito" transform="translate(1100,500) scale(1.0)"><ns0:rect x="2" y="2" width="76" height="46" rx="10" fill="currentColor" opacity="0.12" /><ns0:circle cx="40" cy="18" r="7.5" fill="currentColor" /><ns0:path d="M26 44c2-8 9-13 14-13s12 5 14 13" fill="currentColor" /><ns0:circle cx="32" cy="14" r="2" fill="currentColor" opacity="0.6" /><ns0:circle cx="48" cy="14" r="2" fill="currentColor" opacity="0.6" /></g><g id="gerardo" transform="translate(1170,500) scale(1.0)"><ns0:rect x="2" y="2" width="76" height="46" rx="10" fill="currentColor" opacity="0.12" /><ns0:circle cx="40" cy="18" r="7.5" fill="currentColor" /><ns0:path d="M26 44c2-8 9-13 14-13s12 5 14 13" fill="currentColor" /><ns0:circle cx="32" cy="14" r="2" fill="currentColor" opacity="0.6" /><ns0:circle cx="48" cy="14" r="2" fill="currentColor" opacity="0.6" /></g><g id="dante" transform="translate(1280,500) scale(1.0)"><ns0:rect x="2" y="2" width="76" height="46" rx="10" fill="currentColor" opacity="0.12" /><ns0:circle cx="40" cy="18" r="7.5" fill="currentColor" /><ns0:path d="M26 44c2-8 9-13 14-13s12 5 14 13" fill="currentColor" /><ns0:circle cx="32" cy="14" r="2" fill="currentColor" opacity="0.6" /><ns0:circle cx="48" cy="14" r="2" fill="currentColor" opacity="0.6" /></g><path d="M 550.0,150.1 L 550.0,151.0 Q 550.0,151.9 550.9,151.9 L 568.0,151.9" fill="none" marker-end="url(#arrow-end)" marker-start="url(#circle-start)" stroke="black" stroke-width="2" /><path d="M 730.0,150.1 L 730.0,151.0 Q 730.0,151.9 729.1,151.9 L 712.0,151.9" fill="none" marker-end="url(#arrow-end)" marker-start="url(#circle-start)" stroke="black" stroke-width="2" /><path d="M 568.0,193.7 L 305.0,193.7 Q 280.0,193.7 280.0,218.7 L 280.0,249.9" fill="none" marker-end="url(#arrow-end)" marker-start="url(#circle-start)" stroke="black" stroke-width="2" /><path d="M 572.3,200.0 L 551.1,200.0 Q 530.0,200.0 530.0,221.1 L 530.0,249.9" fill="none" marker-end="url(#arrow-end)" marker-start="url(#circle-start)" stroke="black" stroke-width="2" /><path d="M 686.4,196.0 L 706.0,196.0 Q 725.6,196.0 725.6,215.6 L 725.6,248.0" fill="none" marker-end="url(#arrow-end)" marker-start="url(#circle-start)" stroke="black" stroke-width="2" /><path d="M 712.0,202.1 L 926.1,202.1 Q 950.0,202.1 950.0,226.0 L 950.0,249.9" fill="none" marker-end="url(#arrow-end)" marker-start="url(#circle-start)" stroke="black" stroke-width="2" /><path d="M 712.0,175.0 L 1175.0,175.0 Q 1200.0,175.0 1200.0,200.0 L 1200.0,273.0" fill="none" marker-end="url(#arrow-end)" marker-start="url(#circle-start)" stroke="black" stroke-width="2" /><polyline fill="none" marker-end="url(#arrow-end)" marker-start="url(#circle-start)" points="240.0,362.0 240.0,468.0" stroke="black" stroke-width="2" /><path d="M 455.8,330.0 L 447.9,330.0 Q 440.0,330.0 440.0,337.9 L 440.0,468.0" fill="none" marker-end="url(#arrow-end)" marker-start="url(#circle-start)" stroke="black" stroke-width="2" /><path d="M 524.2,330.0 L 532.1,330.0 Q 540.0,330.0 540.0,337.9 L 540.0,468.0" fill="none" marker-end="url(#arrow-end)" marker-start="url(#circle-start)" stroke="black" stroke-width="2" /><polyline fill="none" marker-end="url(#arrow-end)" marker-start="url(#circle-start)" points="740.0,362.0 740.0,468.0" stroke="black" stroke-width="2" /><path d="M 943.6,330.0 L 939.0,330.0 Q 934.4,330.0 934.4,334.6 L 934.4,468.0" fill="none" marker-end="url(#arrow-end)" marker-start="url(#circle-start)" stroke="black" stroke-width="2" /><path d="M 1022.0,330.0 L 1026.0,330.0 Q 1030.0,330.0 1030.0,334.0 L 1030.0,468.0" fill="none" marker-end="url(#arrow-end)" marker-start="url(#circle-start)" stroke="black" stroke-width="2" /><path d="M 1004.4,362.0 L 1004.4,390.0 Q 1004.4,415.0 1029.4,415.0 L 1100.6,415.0 Q 1125.6,415.0 1125.6,440.0 L 1125.6,468.0" fill="none" marker-end="url(#arrow-end)" marker-start="url(#circle-start)" stroke="black" stroke-width="2" /><path d="M 1240.0,362.0 L 1240.0,499.0 Q 1240.0,500.0 1241.0,500.0 L 1242.0,500.0" fill="none" marker-end="url(#arrow-end)" marker-start="url(#circle-start)" stroke="black" stroke-width="2" /><path d="M 1286.4,330.0 L 1296.0,330.0 Q 1305.6,330.0 1305.6,339.6 L 1305.6,468.0" fill="none" marker-end="url(#arrow-end)" marker-start="url(#circle-start)" stroke="black" stroke-width="2" /><text fill="black" filter="url(#text-glow)" font-family="Arial, sans-serif" font-size="14px" text-anchor="start" x="562.6" y="95.0">José Heráclides</text><text fill="black" filter="url(#text-glow)" font-family="Arial, sans-serif" font-size="14px" text-anchor="middle" x="770.0" y="49.0">Daría</text><text fill="black" filter="url(#text-glow)" font-family="Arial, sans-serif" font-size="14px" text-anchor="end" x="587.4" y="175.0">Unión</text><text fill="black" filter="url(#text-glow)" font-family="Arial, sans-serif" font-size="14px" text-anchor="start" x="292.6" y="305.0">Silvia</text><text fill="black" filter="url(#text-glow)" font-family="Arial, sans-serif" font-size="14px" text-anchor="middle" x="490.0" y="259.0">Lica</text><text fill="black" filter="url(#text-glow)" font-family="Arial, sans-serif" font-size="14px" text-anchor="start" x="792.6" y="305.0">Patricia</text><text fill="black" filter="url(#text-glow)" font-family="Arial, sans-serif" font-size="14px" text-anchor="start" x="1042.6" y="305.0">Santiago</text><text fill="black" filter="url(#text-glow)" font-family="Arial, sans-serif" font-size="14px" text-anchor="start" x="1292.6" y="259.0">José</text><text fill="black" filter="url(#text-glow)" font-family="Arial, sans-serif" font-size="14px" text-anchor="middle" x="240.0" y="571.0">Sebastián</text><text fill="black" filter="url(#text-glow)" font-family="Arial, sans-serif" font-size="14px" text-anchor="middle" x="440.0" y="571.0">Mateo</text><text fill="black" filter="url(#text-glow)" font-family="Arial, sans-serif" font-size="14px" text-anchor="middle" x="540.0" y="571.0">Pascual</text><text fill="black" filter="url(#text-glow)" font-family="Arial, sans-serif" font-size="14px" text-anchor="middle" x="740.0" y="571.0">Diego</text><text fill="black" filter="url(#text-glow)" font-family="Arial, sans-serif" font-size="14px" text-anchor="middle" x="920.0" y="571.0">José Antonio</text><text fill="black" filter="url(#text-glow)" font-family="Arial, sans-serif" font-size="14px" text-anchor="middle" x="1030.0" y="571.0">Patricia</text><text fill="black" filter="url(#text-glow)" font-family="Arial, sans-serif" font-size="14px" text-anchor="middle" x="1140.0" y="571.0">Santiagoito</text><text fill="black" filter="url(#text-glow)" font-family="Arial, sans-serif" font-size="14px" text-anchor="start" x="1262.6" y="571.0">Gerardo</text><text fill="black" filter="url(#text-glow)" font-family="Arial, sans-serif" font-size="14px" text-anchor="start" x="1372.6" y="571.0">Dante</text><text fill="gray" filter="url(#text-glow)" font-family="Arial, sans-serif" font-size="12px" text-anchor="end" x="505.2" y="151.29999999999998">pareja</text><text fill="gray" filter="url(#text-glow)" font-family="Arial, sans-serif" font-size="12px" text-anchor="start" x="774.8" y="151.29999999999998">pareja</text><text fill="gray" filter="url(#text-glow)" font-family="Arial, sans-serif" font-size="12px" text-anchor="middle" x="376.0" y="169.4333333333333">hija</text><text fill="gray" filter="url(#text-glow)" font-family="Arial, sans-serif" font-size="12px" text-anchor="start" x="594.9" y="259.6333333333333">hija</text><text fill="gray" filter="url(#text-glow)" font-family="Arial, sans-serif" font-size="12px" text-anchor="middle" x="712.5333333333333" y="170.33333333333334">hija</text><text fill="gray" filter="url(#text-glow)" font-family="Arial, sans-serif" font-size="12px" text-anchor="middle" x="870.6666666666666" y="175.0333333333333">hijo</text><text fill="gray" filter="url(#text-glow)" font-family="Arial, sans-serif" font-size="12px" text-anchor="middle" x="1037.3333333333333" y="164.66666666666666">hijo</text><text fill="gray" filter="url(#text-glow)" font-family="Arial, sans-serif" font-size="12px" text-anchor="end" x="189.2" y="415.0">hijo</text><text fill="gray" filter="url(#text-glow)" font-family="Arial, sans-serif" font-size="12px" text-anchor="middle" x="445.26666666666665" y="419.0">hijo</text><text fill="gray" filter="url(#text-glow)" font-family="Arial, sans-serif" font-size="12px" text-anchor="middle" x="534.7333333333333" y="419.0">hijo</text><text fill="gray" filter="url(#text-glow)" font-family="Arial, sans-serif" font-size="12px" text-anchor="end" x="689.2" y="415.0">hijo</text><text fill="gray" filter="url(#text-glow)" font-family="Arial, sans-serif" font-size="12px" text-anchor="middle" x="937.4666666666667" y="419.0">hijo</text><text fill="gray" filter="url(#text-glow)" font-family="Arial, sans-serif" font-size="12px" text-anchor="middle" x="1027.3333333333333" y="419.0">hija</text><text fill="gray" filter="url(#text-glow)" font-family="Arial, sans-serif" font-size="12px" text-anchor="start" x="1115.8" y="415.0">hijo</text><text fill="gray" filter="url(#text-glow)" font-family="Arial, sans-serif" font-size="12px" text-anchor="middle" x="1240.6666666666667" y="497.0">hijo</text><text fill="gray" filter="url(#text-glow)" font-family="Arial, sans-serif" font-size="12px" text-anchor="middle" x="1299.2" y="333.0">hijo</text></svg>