<?xml version="1.0" encoding="utf-8" ?>
<svg xmlns="http://www.w3.org/2000/svg" baseProfile="full" height="500" version="1.1" viewBox="0,0,800,500" width="800"><defs><filter height="140%" id="text-glow" width="140%" x="-20%" y="-20%"><feMerge><feMergeNode in="SourceGraphic" /></feMerge></filter><marker id="arrow-end" markerHeight="10" markerWidth="10" orient="auto" refX="10" refY="5"><path d="M 0 0 L 10 5 L 0 10 z" fill="black" /></marker><marker id="arrow-start" markerHeight="10" markerWidth="10" orient="auto" refX="0" refY="5"><path d="M 10 0 L 0 5 L 10 10 z" fill="black" /></marker><marker id="circle-start" markerHeight="2.4" markerUnits="userSpaceOnUse" markerWidth="2.4" orient="auto" refX="1.2" refY="1.2"><circle cx="1.2" cy="1.2" fill="black" r="1.2" /></marker><marker id="circle-end" markerHeight="2.4" markerUnits="userSpaceOnUse" markerWidth="2.4" orient="auto" refX="1.2" refY="1.2"><circle cx="1.2" cy="1.2" fill="black" r="1.2" /></marker><marker id="arrow-end-c0" markerHeight="10" markerWidth="10" orient="auto" refX="10" refY="5"><path d="M 0 0 L 10 5 L 0 10 z" fill="#e8820c" /></marker><marker id="arrow-start-c0" markerHeight="10" markerWidth="10" orient="auto" refX="0" refY="5"><path d="M 10 0 L 0 5 L 10 10 z" fill="#e8820c" /></marker><marker id="circle-start-c0" markerHeight="2.4" markerUnits="userSpaceOnUse" markerWidth="2.4" orient="auto" refX="1.2" refY="1.2"><circle cx="1.2" cy="1.2" fill="#e8820c" r="1.2" /></marker><marker id="circle-end-c0" markerHeight="2.4" markerUnits="userSpaceOnUse" markerWidth="2.4" orient="auto" refX="1.2" refY="1.2"><circle cx="1.2" cy="1.2" fill="#e8820c" r="1.2" /></marker><marker id="arrow-end-c1" markerHeight="10" markerWidth="10" orient="auto" refX="10" refY="5"><path d="M 0 0 L 10 5 L 0 10 z" fill="#1aa64b" /></marker><marker id="arrow-start-c1" markerHeight="10" markerWidth="10" orient="auto" refX="0" refY="5"><path d="M 10 0 L 0 5 L 10 10 z" fill="#1aa64b" /></marker><marker id="circle-start-c1" markerHeight="2.4" markerUnits="userSpaceOnUse" markerWidth="2.4" orient="auto" refX="1.2" refY="1.2"><circle cx="1.2" cy="1.2" fill="#1aa64b" r="1.2" /></marker><marker id="circle-end-c1" markerHeight="2.4" markerUnits="userSpaceOnUse" markerWidth="2.4" orient="auto" refX="1.2" refY="1.2"><circle cx="1.2" cy="1.2" fill="#1aa64b" r="1.2" /></marker><marker id="arrow-end-c2" markerHeight="10" markerWidth="10" orient="auto" refX="10" refY="5"><path d="M 0 0 L 10 5 L 0 10 z" fill="#8e44ad" /></marker><marker id="arrow-start-c2" markerHeight="10" markerWidth="10" orient="auto" refX="0" refY="5"><path d="M 10 0 L 0 5 L 10 10 z" fill="#8e44ad" /></marker><marker id="circle-start-c2" markerHeight="2.4" markerUnits="userSpaceOnUse" markerWidth="2.4" orient="auto" refX="1.2" refY="1.2"><circle cx="1.2" cy="1.2" fill="#8e44ad" r="1.2" /></marker><marker id="circle-end-c2" markerHeight="2.4" markerUnits="userSpaceOnUse" markerWidth="2.4" orient="auto" refX="1.2" refY="1.2"><circle cx="1.2" cy="1.2" fill="#8e44ad" r="1.2" /></marker><marker id="arrow-end-c3" markerHeight="10" markerWidth="10" orient="auto" refX="10" refY="5"><path d="M 0 0 L 10 5 L 0 10 z" fill="#8e44ad" /></marker><marker id="arrow-start-c3" markerHeight="10" markerWidth="10" orient="auto" refX="0" refY="5"><path d="M 10 0 L 0 5 L 10 10 z" fill="#8e44ad" /></marker><marker id="circle-start-c3" markerHeight="2.4" markerUnits="userSpaceOnUse" markerWidth="2.4" orient="auto" refX="1.2" refY="1.2"><circle cx="1.2" cy="1.2" fill="#8e44ad" r="1.2" /></marker><marker id="circle-end-c3" markerHeight="2.4" markerUnits="userSpaceOnUse" markerWidth="2.4" orient="auto" refX="1.2" refY="1.2"><circle cx="1.2" cy="1.2" fill="#8e44ad" r="1.2" /></marker><marker id="arrow-end-c4" markerHeight="10" markerWidth="10" orient="auto" refX="10" refY="5"><path d="M 0 0 L 10 5 L 0 10 z" fill="#1aa64b" /></marker><marker id="arrow-start-c4" markerHeight="10" markerWidth="10" orient="auto" refX="0" refY="5"><path d="M 10 0 L 0 5 L 10 10 z" fill="#1aa64b" /></marker><marker id="circle-start-c4" markerHeight="2.4" markerUnits="userSpaceOnUse" markerWidth="2.4" orient="auto" refX="1.2" refY="1.2"><circle cx="1.2" cy="1.2" fill="#1aa64b" r="1.2" /></marker><marker id="circle-end-c4" markerHeight="2.4" markerUnits="userSpaceOnUse" markerWidth="2.4" orient="auto" refX="1.2" refY="1.2"><circle cx="1.2" cy="1.2" fill="#1aa64b" r="1.2" /></marker><marker id="arrow-end-c5" markerHeight="10" markerWidth="10" orient="auto" refX="10" refY="5"><path d="M 0 0 L 10 5 L 0 10 z" fill="#0e8a8a" /></marker><marker id="arrow-start-c5" markerHeight="10" markerWidth="10" orient="auto" refX="0" refY="5"><path d="M 10 0 L 0 5 L 10 10 z" fill="#0e8a8a" /></marker><marker id="circle-start-c5" markerHeight="2.4" markerUnits="userSpaceOnUse" markerWidth="2.4" orient="auto" refX="1.2" refY="1.2"><circle cx="1.2" cy="1.2" fill="#0e8a8a" r="1.2" /></marker><marker id="circle-end-c5" markerHeight="2.4" markerUnits="userSpaceOnUse" markerWidth="2.4" orient="auto" refX="1.2" refY="1.2"><circle cx="1.2" cy="1.2" fill="#0e8a8a" r="1.2" /></marker><linearGradient id="gradient-client" x1="0%" x2="0%" y1="0%" y2="100%"><stop offset="0%" stop-color="#c5e3ed" /><stop offset="100%" stop-color="#7997a1" /></linearGradient><linearGradient id="gradient-api" x1="0%" x2="0%" y1="0%" y2="100%"><stop offset="0%" stop-color="#b1f3b1" /><stop offset="100%" stop-color="#64a664" /></linearGradient><linearGradient id="gradient-worker" x1="0%" x2="0%" y1="0%" y2="100%"><stop offset="0%" stop-color="#b1f3b1" /><stop offset="100%" stop-color="#64a664" /></linearGradient><linearGradient id="gradient-db" x1="0%" x2="0%" y1="0%" y2="100%"><stop offset="0%" stop-color="#a6a6a6" /><stop offset="100%" stop-color="#595959" /></linearGradient><linearGradient id="gradient-queue" x1="0%" x2="0%" y1="0%" y2="100%"><stop offset="0%" stop-color="#ffe34c" /><stop offset="100%" stop-color="#b29600" /></linearGradient></defs><g id="client"><rect fill="#566c73" height="34.0" rx="3" ry="3" stroke="black" stroke-width="1.2" width="76" x="82" y="100" /><rect fill="#d6ebf2" height="24.0" stroke="#566c73" stroke-width="0.5" width="68" x="86" y="104" /><rect fill="url(#gradient-client)" height="6" stroke="black" stroke-width="0.8" width="10" x="115.0" y="134.0" /><rect fill="url(#gradient-client)" height="4" rx="2" ry="2" stroke="black" stroke-width="1.0" width="30" x="105.0" y="140.0" /><circle cx="120.0" cy="131.0" fill="#00cc44" r="1.5" stroke="#566c73" stroke-width="0.4" /></g><g id="api"><rect fill="url(#gradient-api)" height="50" rx="4" ry="4" stroke="black" stroke-width="1.2" width="80" x="360" y="100" /><line stroke="#568e56" stroke-width="0.8" x1="362" x2="438" y1="116.66666666666667" y2="116.66666666666667" /><line stroke="#568e56" stroke-width="0.8" x1="362" x2="438" y1="133.33333333333334" y2="133.33333333333334" /><circle cx="428" cy="108.33333333333333" fill="#00cc44" r="2.5" stroke="#568e56" stroke-width="0.5" /><circle cx="420" cy="108.33333333333333" fill="#ffaa00" r="2.5" stroke="#568e56" stroke-width="0.5" /><circle cx="428" cy="125.0" fill="#00cc44" r="2.5" stroke="#568e56" stroke-width="0.5" /><circle cx="420" cy="125.0" fill="#ffaa00" r="2.5" stroke="#568e56" stroke-width="0.5" /><circle cx="428" cy="141.66666666666669" fill="#00cc44" r="2.5" stroke="#568e56" stroke-width="0.5" /><circle cx="420" cy="141.66666666666669" fill="#ffaa00" r="2.5" stroke="#568e56" stroke-width="0.5" /><line stroke="#568e56" stroke-width="0.6" x1="366" x2="378" y1="105.0" y2="105.0" /><line stroke="#568e56" stroke-width="0.6" x1="366" x2="378" y1="108.33333333333333" y2="108.33333333333333" /><line stroke="#568e56" stroke-width="0.6" x1="366" x2="378" y1="111.66666666666667" y2="111.66666666666667" /><line stroke="#568e56" stroke-width="0.6" x1="366" x2="378" y1="121.66666666666667" y2="121.66666666666667" /><line stroke="#568e56" stroke-width="0.6" x1="366" x2="378" y1="125.0" y2="125.0" /><line stroke="#568e56" stroke-width="0.6" x1="366" x2="378" y1="128.33333333333334" y2="128.33333333333334" /><line stroke="#568e56" stroke-width="0.6" x1="366" x2="378" y1="138.33333333333334" y2="138.33333333333334" /><line stroke="#568e56" stroke-width="0.6" x1="366" x2="378" y1="141.66666666666669" y2="141.66666666666669" /><line stroke="#568e56" stroke-width="0.6" x1="366" x2="378" y1="145.0" y2="145.0" /></g><g id="worker"><rect fill="url(#gradient-worker)" height="50" rx="4" ry="4" stroke="black" stroke-width="1.2" width="80" x="360" y="300" /><line stroke="#568e56" stroke-width="0.8" x1="362" x2="438" y1="316.6666666666667" y2="316.6666666666667" /><line stroke="#568e56" stroke-width="0.8" x1="362" x2="438" y1="333.3333333333333" y2="333.3333333333333" /><circle cx="428" cy="308.3333333333333" fill="#00cc44" r="2.5" stroke="#568e56" stroke-width="0.5" /><circle cx="420" cy="308.3333333333333" fill="#ffaa00" r="2.5" stroke="#568e56" stroke-width="0.5" /><circle cx="428" cy="325.0" fill="#00cc44" r="2.5" stroke="#568e56" stroke-width="0.5" /><circle cx="420" cy="325.0" fill="#ffaa00" r="2.5" stroke="#568e56" stroke-width="0.5" /><circle cx="428" cy="341.66666666666663" fill="#00cc44" r="2.5" stroke="#568e56" stroke-width="0.5" /><circle cx="420" cy="341.66666666666663" fill="#ffaa00" r="2.5" stroke="#568e56" stroke-width="0.5" /><line stroke="#568e56" stroke-width="0.6" x1="366" x2="378" y1="305.0" y2="305.0" /><line stroke="#568e56" stroke-width="0.6" x1="366" x2="378" y1="308.3333333333333" y2="308.3333333333333" /><line stroke="#568e56" stroke-width="0.6" x1="366" x2="378" y1="311.6666666666667" y2="311.6666666666667" /><line stroke="#568e56" stroke-width="0.6" x1="366" x2="378" y1="321.6666666666667" y2="321.6666666666667" /><line stroke="#568e56" stroke-width="0.6" x1="366" x2="378" y1="325.0" y2="325.0" /><line stroke="#568e56" stroke-width="0.6" x1="366" x2="378" y1="328.33333333333337" y2="328.33333333333337" /><line stroke="#568e56" stroke-width="0.6" x1="366" x2="378" y1="338.3333333333333" y2="338.3333333333333" /><line stroke="#568e56" stroke-width="0.6" x1="366" x2="378" y1="341.66666666666663" y2="341.66666666666663" /><line stroke="#568e56" stroke-width="0.6" x1="366" x2="378" y1="345.0" y2="345.0" /></g><g id="db"><rect fill="url(#gradient-db)" height="30" stroke="none" width="67.2" x="626.4" y="110" /><line stroke="black" stroke-width="1.2" x1="626.4" x2="626.4" y1="110" y2="140" /><line stroke="black" stroke-width="1.2" x1="693.6" x2="693.6" y1="110" y2="140" /><ellipse cx="660.0" cy="140" fill="url(#gradient-db)" rx="33.6" ry="8" stroke="black" stroke-width="1.2" /><ellipse cx="660.0" cy="110" fill="#a6a6a6" rx="33.6" ry="8" stroke="black" stroke-width="1.2" /><ellipse cx="660.0" cy="120.0" fill="none" rx="33.6" ry="4.8" stroke="#4c4c4c" stroke-width="0.6" /><ellipse cx="660.0" cy="130.0" fill="none" rx="33.6" ry="4.8" stroke="#4c4c4c" stroke-width="0.6" /></g><g id="queue"><ellipse cx="660.0" cy="333.0" fill="url(#gradient-queue)" rx="36.0" ry="11.0" stroke="#b29600" stroke-width="0.8" /><circle cx="660.0" cy="321.0" fill="url(#gradient-queue)" r="17.0" stroke="#b29600" stroke-width="0.8" /><circle cx="646.0" cy="327.0" fill="url(#gradient-queue)" r="13.0" stroke="#b29600" stroke-width="0.8" /><circle cx="674.0" cy="327.0" fill="url(#gradient-queue)" r="13.0" stroke="#b29600" stroke-width="0.8" /><ellipse cx="660.0" cy="329.0" fill="url(#gradient-queue)" rx="30.4" ry="14.000000000000002" stroke="none" /></g><line marker-end="url(#arrow-end-c0)" marker-start="url(#circle-start-c0)" stroke="#e8820c" stroke-width="2" x1="160.0" x2="360.0" y1="125.0" y2="125.0" /><line marker-end="url(#arrow-end-c1)" marker-start="url(#arrow-start-c1)" stroke="#1aa64b" stroke-width="2" x1="440.0" x2="620.0" y1="125.0" y2="125.0" /><line marker-end="url(#arrow-end-c2)" marker-start="url(#circle-start-c2)" stroke="#8e44ad" stroke-width="2" x1="440.0" x2="620.0" y1="148.1" y2="301.9" /><line marker-end="url(#arrow-end-c3)" marker-start="url(#circle-start-c3)" stroke="#8e44ad" stroke-width="2" x1="620.0" x2="440.0" y1="325.0" y2="325.0" /><line marker-end="url(#arrow-end-c4)" marker-start="url(#arrow-start-c4)" stroke="#1aa64b" stroke-width="2" x1="440.0" x2="620.0" y1="301.9" y2="148.1" /><line marker-end="url(#arrow-end-c5)" marker-start="url(#circle-start-c5)" stroke="#0e8a8a" stroke-width="2" x1="400.0" x2="400.0" y1="300.0" y2="150.0" /><text fill="#ffffff" filter="url(#text-glow)" font-family="Arial, sans-serif" font-size="14px" text-anchor="middle" x="120.0" y="171.0" class="ag-text-halo" stroke="#ffffff" stroke-width="3" stroke-linejoin="round" stroke-linecap="round">Cliente</text><text fill="black" filter="url(#text-glow)" font-family="Arial, sans-serif" font-size="14px" text-anchor="middle" x="120.0" y="171.0">Cliente</text><text fill="#ffffff" filter="url(#text-glow)" font-family="Arial, sans-serif" font-size="14px" text-anchor="start" x="452.6" y="79.0" class="ag-text-halo" stroke="#ffffff" stroke-width="3" stroke-linejoin="round" stroke-linecap="round">API</text><text fill="black" filter="url(#text-glow)" font-family="Arial, sans-serif" font-size="14px" text-anchor="start" x="452.6" y="79.0">API</text><text fill="#ffffff" filter="url(#text-glow)" font-family="Arial, sans-serif" font-size="14px" text-anchor="middle" x="400.0" y="371.0" class="ag-text-halo" stroke="#ffffff" stroke-width="3" stroke-linejoin="round" stroke-linecap="round">Worker</text><text fill="black" filter="url(#text-glow)" font-family="Arial, sans-serif" font-size="14px" text-anchor="middle" x="400.0" y="371.0">Worker</text><text fill="#ffffff" filter="url(#text-glow)" font-family="Arial, sans-serif" font-size="14px" text-anchor="middle" x="660.0" y="171.0" class="ag-text-halo" stroke="#ffffff" stroke-width="3" stroke-linejoin="round" stroke-linecap="round">Database</text><text fill="black" filter="url(#text-glow)" font-family="Arial, sans-serif" font-size="14px" text-anchor="middle" x="660.0" y="171.0">Database</text><text fill="#ffffff" filter="url(#text-glow)" font-family="Arial, sans-serif" font-size="14px" text-anchor="middle" x="660.0" y="371.0" class="ag-text-halo" stroke="#ffffff" stroke-width="3" stroke-linejoin="round" stroke-linecap="round">Queue</text><text fill="black" filter="url(#text-glow)" font-family="Arial, sans-serif" font-size="14px" text-anchor="middle" x="660.0" y="371.0">Queue</text><text fill="#ffffff" font-family="Arial, sans-serif" font-size="12px" text-anchor="middle" x="260.0" y="82.0" class="ag-text-halo" stroke="#ffffff" stroke-width="3" stroke-linejoin="round" stroke-linecap="round">HTTP</text><text fill="#14181d" font-family="Arial, sans-serif" font-size="12px" text-anchor="middle" x="260.0" y="82.0">HTTP</text><text fill="#ffffff" font-family="Arial, sans-serif" font-size="12px" text-anchor="middle" x="530.0" y="182.0" class="ag-text-halo" stroke="#ffffff" stroke-width="3" stroke-linejoin="round" stroke-linecap="round">enqueue</text><text fill="#14181d" font-family="Arial, sans-serif" font-size="12px" text-anchor="middle" x="530.0" y="182.0">enqueue</text><text fill="#ffffff" font-family="Arial, sans-serif" font-size="12px" text-anchor="middle" x="530.0" y="282.0" class="ag-text-halo" stroke="#ffffff" stroke-width="3" stroke-linejoin="round" stroke-linecap="round">consume</text><text fill="#14181d" font-family="Arial, sans-serif" font-size="12px" text-anchor="middle" x="530.0" y="282.0">consume</text><text fill="#ffffff" font-family="Arial, sans-serif" font-size="12px" text-anchor="end" x="349.2" y="225.0" class="ag-text-halo" stroke="#ffffff" stroke-width="3" stroke-linejoin="round" stroke-linecap="round">callback</text><text fill="#14181d" font-family="Arial, sans-serif" font-size="12px" text-anchor="end" x="349.2" y="225.0">callback</text><text fill="#ffffff" font-family="Arial, sans-serif" font-size="11px" font-weight="700" x="24" y="474" class="ag-text-halo" stroke="#ffffff" stroke-width="3" stroke-linejoin="round" stroke-linecap="round">Enlaces:</text><text fill="#5a5648" font-family="Arial, sans-serif" font-size="11px" font-weight="700" x="24" y="474">Enlaces:</text><line stroke="#e8820c" stroke-width="2.5" x1="0" x2="0" y1="0" y2="0" /><text fill="#ffffff" font-family="Arial, sans-serif" font-size="10.5px" x="122" y="474" class="ag-text-halo" stroke="#ffffff" stroke-width="3" stroke-linejoin="round" stroke-linecap="round">datos</text><text fill="#3a362c" font-family="Arial, sans-serif" font-size="10.5px" x="122" y="474">datos</text><line stroke="#1aa64b" stroke-width="2.5" x1="0" x2="0" y1="0" y2="0" /><text fill="#ffffff" font-family="Arial, sans-serif" font-size="10.5px" x="212.0" y="474" class="ag-text-halo" stroke="#ffffff" stroke-width="3" stroke-linejoin="round" stroke-linecap="round">sincronización</text><text fill="#3a362c" font-family="Arial, sans-serif" font-size="10.5px" x="212.0" y="474">sincronización</text><line stroke="#8e44ad" stroke-width="2.5" x1="0" x2="0" y1="0" y2="0" /><text fill="#ffffff" font-family="Arial, sans-serif" font-size="10.5px" x="359.6" y="474" class="ag-text-halo" stroke="#ffffff" stroke-width="3" stroke-linejoin="round" stroke-linecap="round">eventos</text><text fill="#3a362c" font-family="Arial, sans-serif" font-size="10.5px" x="359.6" y="474">eventos</text><line stroke="#0e8a8a" stroke-width="2.5" x1="0" x2="0" y1="0" y2="0" /><text fill="#ffffff" font-family="Arial, sans-serif" font-size="10.5px" x="462.40000000000003" y="474" class="ag-text-halo" stroke="#ffffff" stroke-width="3" stroke-linejoin="round" stroke-linecap="round">callback</text><text fill="#3a362c" font-family="Arial, sans-serif" font-size="10.5px" x="462.40000000000003" y="474">callback</text></svg>