<?xml version="1.0" encoding="utf-8" ?>
<svg baseProfile="full" height="2640.0" version="1.1" viewBox="0,0,1870.0,2640.0" width="1870.0" xmlns="http://www.w3.org/2000/svg" xmlns:ev="http://www.w3.org/2001/xml-events" xmlns:xlink="http://www.w3.org/1999/xlink"><defs><marker id="arrow-end" markerHeight="10" markerWidth="10" orient="auto" refX="10" refY="5"><path d="M 0 0 L 10 5 L 0 10 z" fill="black" /></marker><marker id="arrow-start" markerHeight="10" markerWidth="10" orient="auto" refX="0" refY="5"><path d="M 10 0 L 0 5 L 10 10 z" fill="black" /></marker><linearGradient id="gradient-americas" x1="0%" x2="0%" y1="0%" y2="100%"><stop offset="0%" stop-color="#abdcf1" /><stop offset="100%" stop-color="#5e90a4" /></linearGradient><linearGradient id="gradient-norte" x1="0%" x2="0%" y1="0%" y2="100%"><stop offset="0%" stop-color="#ffe34c" /><stop offset="100%" stop-color="#b29600" /></linearGradient><linearGradient id="gradient-centro" x1="0%" x2="0%" y1="0%" y2="100%"><stop offset="0%" stop-color="#ffc04c" /><stop offset="100%" stop-color="#b27300" /></linearGradient><linearGradient id="gradient-sur" x1="0%" x2="0%" y1="0%" y2="100%"><stop offset="0%" stop-color="#b1f3b1" /><stop offset="100%" stop-color="#64a664" /></linearGradient><linearGradient id="gradient-canada" x1="0%" x2="0%" y1="0%" y2="100%"><stop offset="0%" stop-color="#ff9797" /><stop offset="100%" stop-color="#b24a4a" /></linearGradient><linearGradient id="gradient-usa" x1="0%" x2="0%" y1="0%" y2="100%"><stop offset="0%" stop-color="#83dcd5" /><stop offset="100%" stop-color="#368f89" /></linearGradient><linearGradient id="gradient-mexico" x1="0%" x2="0%" y1="0%" y2="100%"><stop offset="0%" stop-color="#b4eae0" /><stop offset="100%" stop-color="#689d93" /></linearGradient><linearGradient id="gradient-guatemala" x1="0%" x2="0%" y1="0%" y2="100%"><stop offset="0%" stop-color="#f6a6a6" /><stop offset="100%" stop-color="#aa5a5a" /></linearGradient><linearGradient id="gradient-costarica" x1="0%" x2="0%" y1="0%" y2="100%"><stop offset="0%" stop-color="#c3b5e5" /><stop offset="100%" stop-color="#766998" /></linearGradient><linearGradient id="gradient-panama" x1="0%" x2="0%" y1="0%" y2="100%"><stop offset="0%" stop-color="#fccee0" /><stop offset="100%" stop-color="#b08293" /></linearGradient><linearGradient id="gradient-colombia" x1="0%" x2="0%" y1="0%" y2="100%"><stop offset="0%" stop-color="#ffffdf" /><stop offset="100%" stop-color="#b2b293" /></linearGradient><linearGradient id="gradient-venezuela" x1="0%" x2="0%" y1="0%" y2="100%"><stop offset="0%" stop-color="#c2e3f0" /><stop offset="100%" stop-color="#7597a3" /></linearGradient><linearGradient id="gradient-brasil" x1="0%" x2="0%" y1="0%" y2="100%"><stop offset="0%" stop-color="#ffdbdb" /><stop offset="100%" stop-color="#b28e8e" /></linearGradient><linearGradient id="gradient-peru" x1="0%" x2="0%" y1="0%" y2="100%"><stop offset="0%" stop-color="#e0c0c0" /><stop offset="100%" stop-color="#947373" /></linearGradient><linearGradient id="gradient-ecuador" x1="0%" x2="0%" y1="0%" y2="100%"><stop offset="0%" stop-color="#bae4df" /><stop offset="100%" stop-color="#6d9793" /></linearGradient><linearGradient id="gradient-bolivia" x1="0%" x2="0%" y1="0%" y2="100%"><stop offset="0%" stop-color="#fffae6" /><stop offset="100%" stop-color="#b2ad9a" /></linearGradient><linearGradient id="gradient-chile" x1="0%" x2="0%" y1="0%" y2="100%"><stop offset="0%" stop-color="#e9cfec" /><stop offset="100%" stop-color="#9c829f" /></linearGradient><linearGradient id="gradient-argentina" x1="0%" x2="0%" y1="0%" y2="100%"><stop offset="0%" stop-color="#ffe8e0" /><stop offset="100%" stop-color="#b29c93" /></linearGradient><linearGradient id="gradient-uruguay" x1="0%" x2="0%" y1="0%" y2="100%"><stop offset="0%" stop-color="#d7dcf0" /><stop offset="100%" stop-color="#8b90a3" /></linearGradient><linearGradient id="gradient-paraguay" x1="0%" x2="0%" y1="0%" y2="100%"><stop offset="0%" stop-color="#cbf0e3" /><stop offset="100%" stop-color="#7ea396" /></linearGradient></defs><ellipse cx="1100.0" cy="45.0" fill="url(#gradient-americas)" rx="40.0" ry="25.0" stroke="black" /><g id="norte"><g transform="translate(1070.0,320.0) scale(1.2048192771084338,0.6928406466512702) translate(-0.9,-1.4)"><path d="M 22.754087,32.116749 0.94545599,43.000013 V 4.7289739 L 22.754087,1.5702876 Z" fill="#e9e9ff" stroke="none" /><path d="M 50.712576,33.120864 V 1.4628125 L 22.754087,1.5702876 V 32.116749 Z" fill="#353564" stroke="none" /><path d="M 50.712576,33.120864 35.295871,44.770537 0.94545599,43.000013 22.754087,32.116749 Z" fill="#4d4d9f" stroke="none" /><path d="M 50.712576,1.4628125 35.295871,4.7384198 0.94545599,4.7289739 22.754087,1.5702876 Z" fill="#1c1ce6" opacity="1" stroke="none" /><path d="M 35.295871,44.770537 V 4.7384198 L 0.94545599,4.7289739 V 43.000013 Z" fill="#1a52ff" opacity="0.96" stroke="none" /><path d="M 50.712576,33.120864 35.295871,44.770537 V 4.7384198 L 50.712576,1.4628125 Z" fill="#1c9bd0" stroke="none" /><rect fill="none" height="43.3" opacity="0.67" stroke="#cbcbcb" stroke-width="0.48" width="49.8" x="0.9" y="1.4" /></g></g><g id="centro"><g transform="translate(590.0,320.0) scale(1.2048192771084338,0.6928406466512702) translate(-0.9,-1.4)"><path d="M 22.754087,32.116749 0.94545599,43.000013 V 4.7289739 L 22.754087,1.5702876 Z" fill="#e9e9ff" stroke="none" /><path d="M 50.712576,33.120864 V 1.4628125 L 22.754087,1.5702876 V 32.116749 Z" fill="#353564" stroke="none" /><path d="M 50.712576,33.120864 35.295871,44.770537 0.94545599,43.000013 22.754087,32.116749 Z" fill="#4d4d9f" stroke="none" /><path d="M 50.712576,1.4628125 35.295871,4.7384198 0.94545599,4.7289739 22.754087,1.5702876 Z" fill="#1c1ce6" opacity="1" stroke="none" /><path d="M 35.295871,44.770537 V 4.7384198 L 0.94545599,4.7289739 V 43.000013 Z" fill="#1a52ff" opacity="0.96" stroke="none" /><path d="M 50.712576,33.120864 35.295871,44.770537 V 4.7384198 L 50.712576,1.4628125 Z" fill="#1c9bd0" stroke="none" /><rect fill="none" height="43.3" opacity="0.67" stroke="#cbcbcb" stroke-width="0.48" width="49.8" x="0.9" y="1.4" /></g></g><g id="sur"><g transform="translate(1550.0,320.0) scale(1.2048192771084338,0.6928406466512702) translate(-0.9,-1.4)"><path d="M 22.754087,32.116749 0.94545599,43.000013 V 4.7289739 L 22.754087,1.5702876 Z" fill="#e9e9ff" stroke="none" /><path d="M 50.712576,33.120864 V 1.4628125 L 22.754087,1.5702876 V 32.116749 Z" fill="#353564" stroke="none" /><path d="M 50.712576,33.120864 35.295871,44.770537 0.94545599,43.000013 22.754087,32.116749 Z" fill="#4d4d9f" stroke="none" /><path d="M 50.712576,1.4628125 35.295871,4.7384198 0.94545599,4.7289739 22.754087,1.5702876 Z" fill="#1c1ce6" opacity="1" stroke="none" /><path d="M 35.295871,44.770537 V 4.7384198 L 0.94545599,4.7289739 V 43.000013 Z" fill="#1a52ff" opacity="0.96" stroke="none" /><path d="M 50.712576,33.120864 35.295871,44.770537 V 4.7384198 L 50.712576,1.4628125 Z" fill="#1c9bd0" stroke="none" /><rect fill="none" height="43.3" opacity="0.67" stroke="#cbcbcb" stroke-width="0.48" width="49.8" x="0.9" y="1.4" /></g></g><rect fill="url(#gradient-canada)" height="50" stroke="black" width="80" x="1060.0" y="600.0" /><rect fill="url(#gradient-usa)" height="50" stroke="black" width="80" x="1060.0" y="890.0" /><rect fill="url(#gradient-mexico)" height="50" stroke="black" width="80" x="1060.0" y="1180.0" /><rect fill="url(#gradient-guatemala)" height="50" stroke="black" width="80" x="1540.0" y="1180.0" /><rect fill="url(#gradient-costarica)" height="50" stroke="black" width="80" x="100.0" y="310.0" /><rect fill="url(#gradient-panama)" height="50" stroke="black" width="80" x="580.0" y="600.0" /><rect fill="url(#gradient-colombia)" height="50" stroke="black" width="80" x="580.0" y="890.0" /><rect fill="url(#gradient-venezuela)" height="50" stroke="black" width="80" x="1540.0" y="890.0" /><rect fill="url(#gradient-brasil)" height="50" stroke="black" width="80" x="1060.0" y="2050.0" /><rect fill="url(#gradient-peru)" height="50" stroke="black" width="80" x="580.0" y="1470.0" /><rect fill="url(#gradient-ecuador)" height="50" stroke="black" width="80" x="580.0" y="1180.0" /><rect fill="url(#gradient-bolivia)" height="50" stroke="black" width="80" x="580.0" y="1760.0" /><rect fill="url(#gradient-chile)" height="50" stroke="black" width="80" x="580.0" y="2050.0" /><rect fill="url(#gradient-argentina)" height="50" stroke="black" width="80" x="580.0" y="2340.0" /><rect fill="url(#gradient-uruguay)" height="50" stroke="black" width="80" x="1540.0" y="2340.0" /><rect fill="url(#gradient-paraguay)" height="50" stroke="black" width="80" x="1060.0" y="2340.0" /><path d="M 1100.0,85.0 C 1042.0,141.66666666666669 1042.0,238.33333333333334 1100.0,303.0" fill="none" marker-end="url(#arrow-end)" stroke="black" stroke-width="2" /><line marker-end="url(#arrow-end)" stroke="black" stroke-width="2" x1="1065.7633783221684" x2="647.3892973422653" y1="65.68462559702327" y2="318.4522995223814" /><path d="M 1134.2366216778316,65.68462559702327 C 1202.0,237.66666666666669 1362.0,334.33333333333337 1552.6107026577347,318.4522995223814" fill="none" marker-end="url(#arrow-end)" stroke="black" stroke-width="2" /><polyline fill="none" marker-end="url(#arrow-end)" points="1100.0,367.0 1100.0,593.0" stroke="black" stroke-width="2" /><polyline fill="none" marker-end="url(#arrow-end)" points="1100.0,367.0 1100.0,883.0" stroke="black" stroke-width="2" /><polyline fill="none" marker-end="url(#arrow-end)" points="1100.0,367.0 1100.0,1173.0" stroke="black" stroke-width="2" /><polyline fill="none" marker-end="url(#arrow-end)" points="652.0,335.0 1100.0,335.0 1100.0,1205.0 1548.0,1205.0" stroke="black" stroke-width="2" /><polyline fill="none" marker-end="url(#arrow-end)" points="588.0,335.0 172.0,335.0" stroke="black" stroke-width="2" /><polyline fill="none" marker-end="url(#arrow-end)" points="620.0,367.0 620.0,593.0" stroke="black" stroke-width="2" /><polyline fill="none" marker-end="url(#arrow-end)" points="1580.0,367.0 1580.0,625.0 620.0,625.0 620.0,883.0" stroke="black" stroke-width="2" /><polyline fill="none" marker-end="url(#arrow-end)" points="1580.0,367.0 1580.0,883.0" stroke="black" stroke-width="2" /><path d="M 1571.490272059974,365.84776378259437 C 985.0,795.0 825.0,1375.0 1108.509727940026,2044.1522362174057" fill="none" marker-end="url(#arrow-end)" stroke="black" stroke-width="2" /><polyline fill="none" marker-end="url(#arrow-end)" marker-start="url(#arrow-start)" points="1100.0,657.0 1100.0,883.0" stroke="black" stroke-width="2" /><polyline fill="none" marker-end="url(#arrow-end)" marker-start="url(#arrow-start)" points="1100.0,947.0 1100.0,1173.0" stroke="black" stroke-width="2" /><polyline fill="none" marker-end="url(#arrow-end)" marker-start="url(#arrow-start)" points="1132.0,1205.0 1548.0,1205.0" stroke="black" stroke-width="2" /><polyline fill="none" marker-end="url(#arrow-end)" marker-start="url(#arrow-start)" points="620.0,657.0 620.0,883.0" stroke="black" stroke-width="2" /><line marker-end="url(#arrow-end)" marker-start="url(#arrow-start)" stroke="black" stroke-width="2" x1="652.0" x2="1548.0" y1="915.0" y2="915.0" /><polyline fill="none" marker-end="url(#arrow-end)" marker-start="url(#arrow-start)" points="620.0,947.0 620.0,1173.0" stroke="black" stroke-width="2" /><polyline fill="none" marker-end="url(#arrow-end)" marker-start="url(#arrow-start)" points="620.0,947.0 620.0,1463.0" stroke="black" stroke-width="2" /><path d="M 632.2352573672416,944.5685386375005 C 432.0,1445.6666666666667 592.0,1832.3333333333335 1087.7647426327585,2045.4314613624995" fill="none" marker-end="url(#arrow-end)" marker-start="url(#arrow-start)" stroke="black" stroke-width="2" /><line marker-end="url(#arrow-end)" marker-start="url(#arrow-start)" stroke="black" stroke-width="2" x1="620.0" x2="620.0" y1="1237.0" y2="1463.0" /><polyline fill="none" marker-end="url(#arrow-end)" marker-start="url(#arrow-start)" points="620.0,1527.0 620.0,1753.0" stroke="black" stroke-width="2" /><polyline fill="none" marker-end="url(#arrow-end)" marker-start="url(#arrow-start)" points="620.0,1527.0 620.0,2043.0" stroke="black" stroke-width="2" /><polyline fill="none" marker-end="url(#arrow-end)" marker-start="url(#arrow-start)" points="652.0,1785.0 860.0,1785.0 860.0,2075.0 1068.0,2075.0" stroke="black" stroke-width="2" /><line marker-end="url(#arrow-end)" marker-start="url(#arrow-start)" stroke="black" stroke-width="2" x1="640.4021668490952" x2="1079.5978331509048" y1="1809.65261827599" y2="2340.34738172401" /><polyline fill="none" marker-end="url(#arrow-end)" marker-start="url(#arrow-start)" points="620.0,1817.0 620.0,2333.0" stroke="black" stroke-width="2" /><polyline fill="none" marker-end="url(#arrow-end)" marker-start="url(#arrow-start)" points="620.0,1817.0 620.0,2043.0" stroke="black" stroke-width="2" /><polyline fill="none" marker-end="url(#arrow-end)" marker-start="url(#arrow-start)" points="620.0,2107.0 620.0,2333.0" stroke="black" stroke-width="2" /><line marker-end="url(#arrow-end)" marker-start="url(#arrow-start)" stroke="black" stroke-width="2" x1="652.0" x2="1548.0" y1="2365.0" y2="2365.0" /><polyline fill="none" marker-end="url(#arrow-end)" marker-start="url(#arrow-start)" points="652.0,2365.0 1068.0,2365.0" stroke="black" stroke-width="2" /><polyline fill="none" marker-end="url(#arrow-end)" marker-start="url(#arrow-start)" points="1100.0,2107.0 1100.0,2333.0" stroke="black" stroke-width="2" /><path d="M 1072.6107026577347,2091.5477004776185 C 867.5,2051.6666666666665 707.5,2148.3333333333335 647.3892973422653,2348.4522995223815" fill="none" marker-end="url(#arrow-end)" marker-start="url(#arrow-start)" stroke="black" stroke-width="2" /><polyline fill="none" marker-end="url(#arrow-end)" marker-start="url(#arrow-start)" points="1132.0,2075.0 1340.0,2075.0 1340.0,2365.0 1548.0,2365.0" stroke="black" stroke-width="2" /><text fill="black" font-family="Arial, sans-serif" font-size="14px" text-anchor="start" x="1152.6" y="45.0">América</text><text fill="black" font-family="Arial, sans-serif" font-size="14px" text-anchor="start" x="1152.6" y="63.0">Continente</text><text fill="black" font-family="Arial, sans-serif" font-size="14px" text-anchor="start" x="1152.6" y="335.0">América</text><text fill="black" font-family="Arial, sans-serif" font-size="14px" text-anchor="start" x="1152.6" y="353.0">del Norte</text><text fill="black" font-family="Arial, sans-serif" font-size="14px" text-anchor="middle" x="620.0" y="289.0">América</text><text fill="black" font-family="Arial, sans-serif" font-size="14px" text-anchor="middle" x="620.0" y="307.0">Central</text><text fill="black" font-family="Arial, sans-serif" font-size="14px" text-anchor="middle" x="1580.0" y="289.0">América</text><text fill="black" font-family="Arial, sans-serif" font-size="14px" text-anchor="middle" x="1580.0" y="307.0">del Sur</text><text fill="black" font-family="Arial, sans-serif" font-size="14px" text-anchor="start" x="1152.6" y="625.0">Canadá</text><text fill="black" font-family="Arial, sans-serif" font-size="14px" text-anchor="middle" x="1100.0" y="961.0">Estados Unidos</text><text fill="black" font-family="Arial, sans-serif" font-size="14px" text-anchor="middle" x="1100.0" y="1251.0">México</text><text fill="black" font-family="Arial, sans-serif" font-size="14px" text-anchor="middle" x="1580.0" y="1251.0">Guatemala</text><text fill="black" font-family="Arial, sans-serif" font-size="14px" text-anchor="middle" x="140.0" y="381.0">Costa Rica</text><text fill="black" font-family="Arial, sans-serif" font-size="14px" text-anchor="start" x="672.6" y="625.0">Panamá</text><text fill="black" font-family="Arial, sans-serif" font-size="14px" text-anchor="end" x="567.4" y="915.0">Colombia</text><text fill="black" font-family="Arial, sans-serif" font-size="14px" text-anchor="middle" x="1580.0" y="961.0">Venezuela</text><text fill="black" font-family="Arial, sans-serif" font-size="14px" text-anchor="start" x="1152.6" y="2075.0">Brasil</text><text fill="black" font-family="Arial, sans-serif" font-size="14px" text-anchor="start" x="672.6" y="1495.0">Perú</text><text fill="black" font-family="Arial, sans-serif" font-size="14px" text-anchor="start" x="672.6" y="1205.0">Ecuador</text><text fill="black" font-family="Arial, sans-serif" font-size="14px" text-anchor="start" x="672.6" y="1785.0">Bolivia</text><text fill="black" font-family="Arial, sans-serif" font-size="14px" text-anchor="start" x="672.6" y="2075.0">Chile</text><text fill="black" font-family="Arial, sans-serif" font-size="14px" text-anchor="middle" x="620.0" y="2411.0">Argentina</text><text fill="black" font-family="Arial, sans-serif" font-size="14px" text-anchor="middle" x="1580.0" y="2411.0">Uruguay</text><text fill="black" font-family="Arial, sans-serif" font-size="14px" text-anchor="middle" x="1100.0" y="2319.0">Paraguay</text><text fill="gray" font-family="Arial, sans-serif" font-size="12px" text-anchor="end" x="1049.2" y="480.0">país</text><text fill="gray" font-family="Arial, sans-serif" font-size="12px" text-anchor="end" x="1049.2" y="625.0">país</text><text fill="gray" font-family="Arial, sans-serif" font-size="12px" text-anchor="end" x="1049.2" y="770.0">país</text><text fill="gray" font-family="Arial, sans-serif" font-size="12px" text-anchor="start" x="1150.8" y="770.0">país</text><text fill="gray" font-family="Arial, sans-serif" font-size="12px" text-anchor="middle" x="380.0" y="292.0">país</text><text fill="gray" font-family="Arial, sans-serif" font-size="12px" text-anchor="end" x="569.2" y="480.0">país</text><text fill="gray" font-family="Arial, sans-serif" font-size="12px" text-anchor="start" x="1150.8" y="625.0">país</text><text fill="gray" font-family="Arial, sans-serif" font-size="12px" text-anchor="start" x="1630.8" y="625.0">país</text><text fill="gray" font-family="Arial, sans-serif" font-size="12px" text-anchor="end" x="1289.2" y="1162.0">país</text><text fill="gray" font-family="Arial, sans-serif" font-size="12px" text-anchor="start" x="1150.8" y="727.0">frontera</text><text fill="gray" font-family="Arial, sans-serif" font-size="12px" text-anchor="end" x="1049.2" y="1060.0">frontera</text><text fill="gray" font-family="Arial, sans-serif" font-size="12px" text-anchor="start" x="1390.8" y="1162.0">frontera</text><text fill="gray" font-family="Arial, sans-serif" font-size="12px" text-anchor="end" x="569.2" y="770.0">frontera</text><text fill="gray" font-family="Arial, sans-serif" font-size="12px" text-anchor="end" x="1049.2" y="872.0">frontera</text><text fill="gray" font-family="Arial, sans-serif" font-size="12px" text-anchor="end" x="569.2" y="1060.0">frontera</text><text fill="gray" font-family="Arial, sans-serif" font-size="12px" text-anchor="end" x="569.2" y="1205.0">frontera</text><text fill="gray" font-family="Arial, sans-serif" font-size="12px" text-anchor="end" x="809.2" y="1495.0">frontera</text><text fill="gray" font-family="Arial, sans-serif" font-size="12px" text-anchor="end" x="569.2" y="1350.0">frontera</text><text fill="gray" font-family="Arial, sans-serif" font-size="12px" text-anchor="end" x="569.2" y="1640.0">frontera</text><text fill="gray" font-family="Arial, sans-serif" font-size="12px" text-anchor="end" x="569.2" y="1785.0">frontera</text><text fill="gray" font-family="Arial, sans-serif" font-size="12px" text-anchor="middle" x="860.0" y="1887.0">frontera</text><text fill="gray" font-family="Arial, sans-serif" font-size="12px" text-anchor="middle" x="860.0" y="2032.0">frontera</text><text fill="gray" font-family="Arial, sans-serif" font-size="12px" text-anchor="end" x="569.2" y="2075.0">frontera</text><text fill="gray" font-family="Arial, sans-serif" font-size="12px" text-anchor="end" x="569.2" y="1930.0">frontera</text><text fill="gray" font-family="Arial, sans-serif" font-size="12px" text-anchor="end" x="569.2" y="2220.0">frontera</text><text fill="gray" font-family="Arial, sans-serif" font-size="12px" text-anchor="middle" x="1100.0" y="2408.0">frontera</text><text fill="gray" font-family="Arial, sans-serif" font-size="12px" text-anchor="middle" x="860.0" y="2322.0">frontera</text><text fill="gray" font-family="Arial, sans-serif" font-size="12px" text-anchor="end" x="1049.2" y="2220.0">frontera</text><text fill="gray" font-family="Arial, sans-serif" font-size="12px" text-anchor="middle" x="860.0" y="2177.0">frontera</text><text fill="gray" font-family="Arial, sans-serif" font-size="12px" text-anchor="middle" x="1340.0" y="2177.0">frontera</text></svg>