<?xml version="1.0" encoding="utf-8" ?>
<svg baseProfile="full" height="1000" version="1.1" viewBox="0,0,1400,1000" width="1400" xmlns="http://www.w3.org/2000/svg" xmlns:ev="http://www.w3.org/2001/xml-events" xmlns:xlink="http://www.w3.org/1999/xlink"><defs><marker id="arrow-end" markerHeight="10" markerWidth="10" orient="auto" refX="10" refY="5"><path d="M 0 0 L 10 5 L 0 10 z" fill="black" /></marker><marker id="arrow-start" markerHeight="10" markerWidth="10" orient="auto" refX="0" refY="5"><path d="M 10 0 L 0 5 L 10 10 z" fill="black" /></marker><linearGradient id="gradient-americas" x1="0%" x2="0%" y1="0%" y2="100%"><stop offset="0%" stop-color="#abdcf1" /><stop offset="100%" stop-color="#5e90a4" /></linearGradient><linearGradient id="gradient-norte" x1="0%" x2="0%" y1="0%" y2="100%"><stop offset="0%" stop-color="#ffe34c" /><stop offset="100%" stop-color="#b29600" /></linearGradient><linearGradient id="gradient-centro" x1="0%" x2="0%" y1="0%" y2="100%"><stop offset="0%" stop-color="#ffc04c" /><stop offset="100%" stop-color="#b27300" /></linearGradient><linearGradient id="gradient-sur" x1="0%" x2="0%" y1="0%" y2="100%"><stop offset="0%" stop-color="#b1f3b1" /><stop offset="100%" stop-color="#64a664" /></linearGradient><linearGradient id="gradient-canada" x1="0%" x2="0%" y1="0%" y2="100%"><stop offset="0%" stop-color="#ff9797" /><stop offset="100%" stop-color="#b24a4a" /></linearGradient><linearGradient id="gradient-usa" x1="0%" x2="0%" y1="0%" y2="100%"><stop offset="0%" stop-color="#83dcd5" /><stop offset="100%" stop-color="#368f89" /></linearGradient><linearGradient id="gradient-mexico" x1="0%" x2="0%" y1="0%" y2="100%"><stop offset="0%" stop-color="#b4eae0" /><stop offset="100%" stop-color="#689d93" /></linearGradient><linearGradient id="gradient-guatemala" x1="0%" x2="0%" y1="0%" y2="100%"><stop offset="0%" stop-color="#f6a6a6" /><stop offset="100%" stop-color="#aa5a5a" /></linearGradient><linearGradient id="gradient-costarica" x1="0%" x2="0%" y1="0%" y2="100%"><stop offset="0%" stop-color="#c3b5e5" /><stop offset="100%" stop-color="#766998" /></linearGradient><linearGradient id="gradient-panama" x1="0%" x2="0%" y1="0%" y2="100%"><stop offset="0%" stop-color="#fccee0" /><stop offset="100%" stop-color="#b08293" /></linearGradient><linearGradient id="gradient-colombia" x1="0%" x2="0%" y1="0%" y2="100%"><stop offset="0%" stop-color="#ffffdf" /><stop offset="100%" stop-color="#b2b293" /></linearGradient><linearGradient id="gradient-venezuela" x1="0%" x2="0%" y1="0%" y2="100%"><stop offset="0%" stop-color="#c2e3f0" /><stop offset="100%" stop-color="#7597a3" /></linearGradient><linearGradient id="gradient-brasil" x1="0%" x2="0%" y1="0%" y2="100%"><stop offset="0%" stop-color="#ffdbdb" /><stop offset="100%" stop-color="#b28e8e" /></linearGradient><linearGradient id="gradient-peru" x1="0%" x2="0%" y1="0%" y2="100%"><stop offset="0%" stop-color="#e0c0c0" /><stop offset="100%" stop-color="#947373" /></linearGradient><linearGradient id="gradient-ecuador" x1="0%" x2="0%" y1="0%" y2="100%"><stop offset="0%" stop-color="#bae4df" /><stop offset="100%" stop-color="#6d9793" /></linearGradient><linearGradient id="gradient-bolivia" x1="0%" x2="0%" y1="0%" y2="100%"><stop offset="0%" stop-color="#fffae6" /><stop offset="100%" stop-color="#b2ad9a" /></linearGradient><linearGradient id="gradient-chile" x1="0%" x2="0%" y1="0%" y2="100%"><stop offset="0%" stop-color="#e9cfec" /><stop offset="100%" stop-color="#9c829f" /></linearGradient><linearGradient id="gradient-argentina" x1="0%" x2="0%" y1="0%" y2="100%"><stop offset="0%" stop-color="#ffe8e0" /><stop offset="100%" stop-color="#b29c93" /></linearGradient><linearGradient id="gradient-uruguay" x1="0%" x2="0%" y1="0%" y2="100%"><stop offset="0%" stop-color="#d7dcf0" /><stop offset="100%" stop-color="#8b90a3" /></linearGradient><linearGradient id="gradient-paraguay" x1="0%" x2="0%" y1="0%" y2="100%"><stop offset="0%" stop-color="#cbf0e3" /><stop offset="100%" stop-color="#7ea396" /></linearGradient></defs><ellipse cx="640.0" cy="75.0" fill="url(#gradient-americas)" rx="40.0" ry="25.0" stroke="black" /><rect fill="url(#gradient-norte)" height="50" stroke="black" width="80" x="300" y="200" /><rect fill="url(#gradient-centro)" height="50" stroke="black" width="80" x="600" y="200" /><rect fill="url(#gradient-sur)" height="50" stroke="black" width="80" x="900" y="200" /><rect fill="url(#gradient-canada)" height="50" stroke="black" width="80" x="100" y="380" /><rect fill="url(#gradient-usa)" height="50" stroke="black" width="80" x="300" y="380" /><rect fill="url(#gradient-mexico)" height="50" stroke="black" width="80" x="500" y="380" /><rect fill="url(#gradient-guatemala)" height="50" stroke="black" width="80" x="550" y="500" /><rect fill="url(#gradient-costarica)" height="50" stroke="black" width="80" x="650" y="500" /><rect fill="url(#gradient-panama)" height="50" stroke="black" width="80" x="750" y="500" /><rect fill="url(#gradient-colombia)" height="50" stroke="black" width="80" x="850" y="380" /><rect fill="url(#gradient-venezuela)" height="50" stroke="black" width="80" x="950" y="380" /><rect fill="url(#gradient-brasil)" height="50" stroke="black" width="80" x="1050" y="500" /><rect fill="url(#gradient-peru)" height="50" stroke="black" width="80" x="800" y="620" /><rect fill="url(#gradient-ecuador)" height="50" stroke="black" width="80" x="700" y="620" /><rect fill="url(#gradient-bolivia)" height="50" stroke="black" width="80" x="900" y="680" /><rect fill="url(#gradient-chile)" height="50" stroke="black" width="80" x="800" y="780" /><rect fill="url(#gradient-argentina)" height="50" stroke="black" width="80" x="950" y="780" /><rect fill="url(#gradient-uruguay)" height="50" stroke="black" width="80" x="1050" y="780" /><rect fill="url(#gradient-paraguay)" height="50" stroke="black" width="80" x="1000" y="680" /><path d="M 603.4099148556145,128.66062093877025 C 513.5,96.66666666666664 413.5,140.83333333333331 369.2720681155084,232.0715032489838" fill="none" marker-end="url(#arrow-end)" stroke="black" stroke-width="2" /><line marker-end="url(#arrow-end)" stroke="black" stroke-width="2" x1="640.0" x2="640.0" y1="152.5" y2="205.5" /><path d="M 676.5900851443855,128.66062093877025 C 713.5,216.66666666666669 813.5,260.8333333333333 910.7279318844916,232.0715032489838" fill="none" marker-end="url(#arrow-end)" stroke="black" stroke-width="2" /><polyline fill="none" marker-end="url(#arrow-end)" points="340.0,277.0 340.0,325.0 140.0,325.0 140.0,373.0" stroke="black" stroke-width="2" /><polyline fill="none" marker-end="url(#arrow-end)" points="340.0,277.0 340.0,380.5" stroke="black" stroke-width="2" /><polyline fill="none" marker-end="url(#arrow-end)" points="340.0,277.0 340.0,325.0 540.0,325.0 540.0,373.0" stroke="black" stroke-width="2" /><polyline fill="none" marker-end="url(#arrow-end)" points="640.0,269.5 640.0,381.25 590.0,381.25 590.0,493.0" stroke="black" stroke-width="2" /><polyline fill="none" marker-end="url(#arrow-end)" points="640.0,269.5 640.0,381.25 690.0,381.25 690.0,493.0" stroke="black" stroke-width="2" /><polyline fill="none" marker-end="url(#arrow-end)" points="640.0,269.5 640.0,381.25 790.0,381.25 790.0,493.0" stroke="black" stroke-width="2" /><polyline fill="none" marker-end="url(#arrow-end)" points="940.0,277.0 940.0,325.0 890.0,325.0 890.0,373.0" stroke="black" stroke-width="2" /><polyline fill="none" marker-end="url(#arrow-end)" points="940.0,277.0 940.0,325.0 990.0,325.0 990.0,373.0" stroke="black" stroke-width="2" /><path d="M 954.6021327230808,273.47415881000757 C 916.875,380.0 966.875,477.5 1075.3978672769192,509.02584118999243" fill="none" marker-end="url(#arrow-end)" stroke="black" stroke-width="2" /><polyline fill="none" marker-end="url(#arrow-end)" marker-start="url(#arrow-start)" points="172.0,405.0 240.0,405.0 240.0,412.5 308.0,412.5" stroke="black" stroke-width="2" /><polyline fill="none" marker-end="url(#arrow-end)" marker-start="url(#arrow-start)" points="372.0,412.5 440.0,412.5 440.0,405.0 508.0,405.0" stroke="black" stroke-width="2" /><polyline fill="none" marker-end="url(#arrow-end)" marker-start="url(#arrow-start)" points="540.0,437.0 540.0,465.0 590.0,465.0 590.0,493.0" stroke="black" stroke-width="2" /><polyline fill="none" marker-end="url(#arrow-end)" marker-start="url(#arrow-start)" points="790.0,493.0 790.0,465.0 890.0,465.0 890.0,437.0" stroke="black" stroke-width="2" /><line marker-end="url(#arrow-end)" marker-start="url(#arrow-start)" stroke="black" stroke-width="2" x1="922.0" x2="958.0" y1="405.0" y2="405.0" /><polyline fill="none" marker-end="url(#arrow-end)" marker-start="url(#arrow-start)" points="890.0,437.0 890.0,525.0 740.0,525.0 740.0,613.0" stroke="black" stroke-width="2" /><polyline fill="none" marker-end="url(#arrow-end)" marker-start="url(#arrow-start)" points="890.0,437.0 890.0,525.0 840.0,525.0 840.0,613.0" stroke="black" stroke-width="2" /><path d="M 916.6767997542764,422.67337983720813 C 916.9166666666666,509.1666666666667 983.5833333333334,553.3333333333333 1063.3232002457235,519.8266201627919" fill="none" marker-end="url(#arrow-end)" marker-start="url(#arrow-start)" stroke="black" stroke-width="2" /><line marker-end="url(#arrow-end)" marker-start="url(#arrow-start)" stroke="black" stroke-width="2" x1="772.0" x2="808.0" y1="645.0" y2="645.0" /><polyline fill="none" marker-end="url(#arrow-end)" marker-start="url(#arrow-start)" points="872.0,645.0 890.0,645.0 890.0,705.0 908.0,705.0" stroke="black" stroke-width="2" /><polyline fill="none" marker-end="url(#arrow-end)" marker-start="url(#arrow-start)" points="840.0,677.0 840.0,773.0" stroke="black" stroke-width="2" /><polyline fill="none" marker-end="url(#arrow-end)" marker-start="url(#arrow-start)" points="940.0,673.0 940.0,621.25 1090.0,621.25 1090.0,569.5" stroke="black" stroke-width="2" /><line marker-end="url(#arrow-end)" marker-start="url(#arrow-start)" stroke="black" stroke-width="2" x1="972.0" x2="1008.0" y1="705.0" y2="705.0" /><polyline fill="none" marker-end="url(#arrow-end)" marker-start="url(#arrow-start)" points="940.0,737.0 940.0,757.5 990.0,757.5 990.0,778.0" stroke="black" stroke-width="2" /><polyline fill="none" marker-end="url(#arrow-end)" marker-start="url(#arrow-start)" points="940.0,737.0 940.0,755.0 840.0,755.0 840.0,773.0" stroke="black" stroke-width="2" /><polyline fill="none" marker-end="url(#arrow-end)" marker-start="url(#arrow-start)" points="872.0,805.0 915.0,805.0 915.0,810.0 958.0,810.0" stroke="black" stroke-width="2" /><line marker-end="url(#arrow-end)" marker-start="url(#arrow-start)" stroke="black" stroke-width="2" x1="1021.9600748440911" x2="1058.039925155909" y1="808.4019962577954" y2="806.5980037422046" /><polyline fill="none" marker-end="url(#arrow-end)" marker-start="url(#arrow-start)" points="990.0,778.0 990.0,757.5 1040.0,757.5 1040.0,737.0" stroke="black" stroke-width="2" /><polyline fill="none" marker-end="url(#arrow-end)" marker-start="url(#arrow-start)" points="1090.0,569.5 1090.0,621.25 1040.0,621.25 1040.0,673.0" stroke="black" stroke-width="2" /><path d="M 1078.9757535028439,567.5410717047502 C 988.5416666666667,603.3333333333334 955.2083333333334,694.1666666666666 1001.024246497156,779.9589282952498" fill="none" marker-end="url(#arrow-end)" marker-start="url(#arrow-start)" stroke="black" stroke-width="2" /><polyline fill="none" marker-end="url(#arrow-end)" marker-start="url(#arrow-start)" points="1090.0,569.5 1090.0,773.0" stroke="black" stroke-width="2" /><text fill="black" font-family="Arial, sans-serif" font-size="14px" text-anchor="middle" x="640.0" y="90.0">América
Continente</text><text fill="black" font-family="Arial, sans-serif" font-size="14px" text-anchor="middle" x="340.0" y="240.0">América
del Norte</text><text fill="black" font-family="Arial, sans-serif" font-size="14px" text-anchor="middle" x="640.0" y="240.0">América
Central</text><text fill="black" font-family="Arial, sans-serif" font-size="14px" text-anchor="middle" x="940.0" y="240.0">América
del Sur</text><text fill="black" font-family="Arial, sans-serif" font-size="14px" text-anchor="middle" x="140.0" y="420.0">Canadá</text><text fill="black" font-family="Arial, sans-serif" font-size="14px" text-anchor="middle" x="340.0" y="420.0">Estados Unidos</text><text fill="black" font-family="Arial, sans-serif" font-size="14px" text-anchor="middle" x="540.0" y="420.0">México</text><text fill="black" font-family="Arial, sans-serif" font-size="14px" text-anchor="middle" x="590.0" y="540.0">Guatemala</text><text fill="black" font-family="Arial, sans-serif" font-size="14px" text-anchor="middle" x="690.0" y="540.0">Costa Rica</text><text fill="black" font-family="Arial, sans-serif" font-size="14px" text-anchor="middle" x="790.0" y="540.0">Panamá</text><text fill="black" font-family="Arial, sans-serif" font-size="14px" text-anchor="middle" x="890.0" y="420.0">Colombia</text><text fill="black" font-family="Arial, sans-serif" font-size="14px" text-anchor="middle" x="990.0" y="420.0">Venezuela</text><text fill="black" font-family="Arial, sans-serif" font-size="14px" text-anchor="middle" x="1090.0" y="540.0">Brasil</text><text fill="black" font-family="Arial, sans-serif" font-size="14px" text-anchor="middle" x="840.0" y="660.0">Perú</text><text fill="black" font-family="Arial, sans-serif" font-size="14px" text-anchor="middle" x="740.0" y="660.0">Ecuador</text><text fill="black" font-family="Arial, sans-serif" font-size="14px" text-anchor="middle" x="940.0" y="720.0">Bolivia</text><text fill="black" font-family="Arial, sans-serif" font-size="14px" text-anchor="middle" x="840.0" y="820.0">Chile</text><text fill="black" font-family="Arial, sans-serif" font-size="14px" text-anchor="middle" x="990.0" y="820.0">Argentina</text><text fill="black" font-family="Arial, sans-serif" font-size="14px" text-anchor="start" x="1120.0" y="805.0">Uruguay</text><text fill="black" font-family="Arial, sans-serif" font-size="14px" text-anchor="middle" x="1040.0" y="690.0">Paraguay</text><text fill="gray" font-family="Arial, sans-serif" font-size="12px" text-anchor="middle" x="240.0" y="310.0">país</text><text fill="gray" font-family="Arial, sans-serif" font-size="12px" text-anchor="middle" x="340.0" y="313.75">país</text><text fill="gray" font-family="Arial, sans-serif" font-size="12px" text-anchor="middle" x="440.0" y="310.0">país</text><text fill="gray" font-family="Arial, sans-serif" font-size="12px" text-anchor="middle" x="615.0" y="366.25">país</text><text fill="gray" font-family="Arial, sans-serif" font-size="12px" text-anchor="start" x="695.0" y="381.25">país</text><text fill="gray" font-family="Arial, sans-serif" font-size="12px" text-anchor="middle" x="715.0" y="366.25">país</text><text fill="gray" font-family="Arial, sans-serif" font-size="12px" text-anchor="middle" x="915.0" y="310.0">país</text><text fill="gray" font-family="Arial, sans-serif" font-size="12px" text-anchor="start" x="995.0" y="325.0">país</text><text fill="gray" font-family="Arial, sans-serif" font-size="12px" text-anchor="start" x="1045.0" y="391.25">país</text><text fill="gray" font-family="Arial, sans-serif" font-size="12px" text-anchor="middle" x="240.0" y="393.75">frontera</text><text fill="gray" font-family="Arial, sans-serif" font-size="12px" text-anchor="middle" x="440.0" y="393.75">frontera</text><text fill="gray" font-family="Arial, sans-serif" font-size="12px" text-anchor="middle" x="565.0" y="450.0">frontera</text><text fill="gray" font-family="Arial, sans-serif" font-size="12px" text-anchor="middle" x="840.0" y="450.0">frontera</text><text fill="gray" font-family="Arial, sans-serif" font-size="12px" text-anchor="middle" x="940.0" y="390.0">frontera</text><text fill="gray" font-family="Arial, sans-serif" font-size="12px" text-anchor="start" x="845.0" y="525.0">frontera</text><text fill="gray" font-family="Arial, sans-serif" font-size="12px" text-anchor="middle" x="865.0" y="540.0">frontera</text><text fill="gray" font-family="Arial, sans-serif" font-size="12px" text-anchor="middle" x="990.0" y="456.25">frontera</text><text fill="gray" font-family="Arial, sans-serif" font-size="12px" text-anchor="middle" x="790.0" y="630.0">frontera</text><text fill="gray" font-family="Arial, sans-serif" font-size="12px" text-anchor="start" x="920.0" y="675.0">frontera</text><text fill="gray" font-family="Arial, sans-serif" font-size="12px" text-anchor="middle" x="840.0" y="710.0">frontera</text><text fill="gray" font-family="Arial, sans-serif" font-size="12px" text-anchor="middle" x="1015.0" y="606.25">frontera</text><text fill="gray" font-family="Arial, sans-serif" font-size="12px" text-anchor="start" x="1020.0" y="705.0">frontera</text><text fill="gray" font-family="Arial, sans-serif" font-size="12px" text-anchor="middle" x="965.0" y="772.5">frontera</text><text fill="gray" font-family="Arial, sans-serif" font-size="12px" text-anchor="middle" x="890.0" y="770.0">frontera</text><text fill="gray" font-family="Arial, sans-serif" font-size="12px" text-anchor="middle" x="915.0" y="792.5">frontera</text><text fill="gray" font-family="Arial, sans-serif" font-size="12px" text-anchor="middle" x="1040.0" y="792.5">frontera</text><text fill="gray" font-family="Arial, sans-serif" font-size="12px" text-anchor="start" x="1045.0" y="757.5">frontera</text><text fill="gray" font-family="Arial, sans-serif" font-size="12px" text-anchor="start" x="1095.0" y="621.25">frontera</text><text fill="gray" font-family="Arial, sans-serif" font-size="12px" text-anchor="middle" x="1040.0" y="658.75">frontera</text><text fill="gray" font-family="Arial, sans-serif" font-size="12px" text-anchor="start" x="1120.0" y="671.25">frontera</text></svg>