<?xml version="1.0" encoding="utf-8" ?>
<svg baseProfile="full" height="900" version="1.1" viewBox="0,0,1000,900" width="1000" xmlns="http://www.w3.org/2000/svg" xmlns:ev="http://www.w3.org/2001/xml-events" xmlns:xlink="http://www.w3.org/1999/xlink"><defs><filter height="140%" id="text-glow" width="140%" x="-20%" y="-20%"><feGaussianBlur in="SourceGraphic" result="blur" stdDeviation="2" /><feFlood flood-color="white" flood-opacity="1" result="color" /><feComposite in="color" in2="blur" operator="in" result="shadow" /><feMerge><feMergeNode in="shadow" /><feMergeNode in="shadow" /><feMergeNode in="SourceGraphic" /></feMerge></filter><marker id="arrow-end" markerHeight="10" markerWidth="10" orient="auto" refX="10" refY="5"><path d="M 0 0 L 10 5 L 0 10 z" fill="black" /></marker><marker id="arrow-start" markerHeight="10" markerWidth="10" orient="auto" refX="0" refY="5"><path d="M 10 0 L 0 5 L 10 10 z" fill="black" /></marker><marker id="circle-start" markerHeight="2.4" markerUnits="userSpaceOnUse" markerWidth="2.4" orient="auto" refX="1.2" refY="1.2"><circle cx="1.2" cy="1.2" fill="black" r="1.2" /></marker><marker id="circle-end" markerHeight="2.4" markerUnits="userSpaceOnUse" markerWidth="2.4" orient="auto" refX="1.2" refY="1.2"><circle cx="1.2" cy="1.2" fill="black" r="1.2" /></marker><linearGradient id="gradient-start" x1="0%" x2="0%" y1="0%" y2="100%"><stop offset="0%" stop-color="#c5e3ed" /><stop offset="100%" stop-color="#7997a1" /></linearGradient><linearGradient id="gradient-lt2" x1="0%" x2="0%" y1="0%" y2="100%"><stop offset="0%" stop-color="#ffe34c" /><stop offset="100%" stop-color="#b29600" /></linearGradient><linearGradient id="gradient-init" x1="0%" x2="0%" y1="0%" y2="100%"><stop offset="0%" stop-color="#b1f3b1" /><stop offset="100%" stop-color="#64a664" /></linearGradient><linearGradient id="gradient-cond" x1="0%" x2="0%" y1="0%" y2="100%"><stop offset="0%" stop-color="#ffe34c" /><stop offset="100%" stop-color="#b29600" /></linearGradient><linearGradient id="gradient-divides" x1="0%" x2="0%" y1="0%" y2="100%"><stop offset="0%" stop-color="#ffe34c" /><stop offset="100%" stop-color="#b29600" /></linearGradient><linearGradient id="gradient-inc" x1="0%" x2="0%" y1="0%" y2="100%"><stop offset="0%" stop-color="#b1f3b1" /><stop offset="100%" stop-color="#64a664" /></linearGradient><linearGradient id="gradient-not_prime" x1="0%" x2="0%" y1="0%" y2="100%"><stop offset="0%" stop-color="#ff917e" /><stop offset="100%" stop-color="#b24531" /></linearGradient><linearGradient id="gradient-prime" x1="0%" x2="0%" y1="0%" y2="100%"><stop offset="0%" stop-color="#b1f3b1" /><stop offset="100%" stop-color="#64a664" /></linearGradient></defs><g id="start"><polygon fill="url(#gradient-start)" points="510.0,40.0 558.0,40.0 570.0,52.0 570.0,90.0 510.0,90.0" stroke="black" stroke-width="1.2" /><polygon fill="#67818a" points="558.0,40.0 570.0,52.0 558.0,52.0" stroke="black" stroke-width="0.8" /><line stroke="#67818a" stroke-linecap="round" stroke-width="1.5" x1="516.0" x2="546.0" y1="54.0" y2="54.0" /><line stroke="#67818a" stroke-linecap="round" stroke-width="1.5" x1="516.0" x2="562.0" y1="62.0" y2="62.0" /><line stroke="#67818a" stroke-linecap="round" stroke-width="1.5" x1="516.0" x2="562.0" y1="70.0" y2="70.0" /><line stroke="#67818a" stroke-linecap="round" stroke-width="1.5" x1="516.0" x2="543.6" y1="78.0" y2="78.0" /></g><g id="lt2"><polygon fill="url(#gradient-lt2)" points="540.0,132.0 580.0,157.0 540.0,182.0 500.0,157.0" stroke="black" stroke-width="1.5" /><line opacity="0.5" stroke="#998100" stroke-width="0.6" x1="500.0" x2="580.0" y1="157.0" y2="157.0" /></g><g id="init"><rect fill="url(#gradient-init)" height="50" rx="4" ry="4" stroke="black" stroke-width="1.2" width="80" x="500.0" y="224.0" /><line stroke="#568e56" stroke-width="0.8" x1="502.0" x2="578.0" y1="240.66666666666666" y2="240.66666666666666" /><line stroke="#568e56" stroke-width="0.8" x1="502.0" x2="578.0" y1="257.3333333333333" y2="257.3333333333333" /><circle cx="568.0" cy="232.33333333333334" fill="#00cc44" r="2.5" stroke="#568e56" stroke-width="0.5" /><circle cx="560.0" cy="232.33333333333334" fill="#ffaa00" r="2.5" stroke="#568e56" stroke-width="0.5" /><circle cx="568.0" cy="249.0" fill="#00cc44" r="2.5" stroke="#568e56" stroke-width="0.5" /><circle cx="560.0" cy="249.0" fill="#ffaa00" r="2.5" stroke="#568e56" stroke-width="0.5" /><circle cx="568.0" cy="265.66666666666663" fill="#00cc44" r="2.5" stroke="#568e56" stroke-width="0.5" /><circle cx="560.0" cy="265.66666666666663" fill="#ffaa00" r="2.5" stroke="#568e56" stroke-width="0.5" /><line stroke="#568e56" stroke-width="0.6" x1="506.0" x2="518.0" y1="229.0" y2="229.0" /><line stroke="#568e56" stroke-width="0.6" x1="506.0" x2="518.0" y1="232.33333333333334" y2="232.33333333333334" /><line stroke="#568e56" stroke-width="0.6" x1="506.0" x2="518.0" y1="235.66666666666666" y2="235.66666666666666" /><line stroke="#568e56" stroke-width="0.6" x1="506.0" x2="518.0" y1="245.66666666666666" y2="245.66666666666666" /><line stroke="#568e56" stroke-width="0.6" x1="506.0" x2="518.0" y1="249.0" y2="249.0" /><line stroke="#568e56" stroke-width="0.6" x1="506.0" x2="518.0" y1="252.33333333333331" y2="252.33333333333331" /><line stroke="#568e56" stroke-width="0.6" x1="506.0" x2="518.0" y1="262.3333333333333" y2="262.3333333333333" /><line stroke="#568e56" stroke-width="0.6" x1="506.0" x2="518.0" y1="265.66666666666663" y2="265.66666666666663" /><line stroke="#568e56" stroke-width="0.6" x1="506.0" x2="518.0" y1="269.0" y2="269.0" /></g><g id="cond"><polygon fill="url(#gradient-cond)" points="540.0,316.0 580.0,341.0 540.0,366.0 500.0,341.0" stroke="black" stroke-width="1.5" /><line opacity="0.5" stroke="#998100" stroke-width="0.6" x1="500.0" x2="580.0" y1="341.0" y2="341.0" /></g><g id="divides"><polygon fill="url(#gradient-divides)" points="540.0,408.0 580.0,433.0 540.0,458.0 500.0,433.0" stroke="black" stroke-width="1.5" /><line opacity="0.5" stroke="#998100" stroke-width="0.6" x1="500.0" x2="580.0" y1="433.0" y2="433.0" /></g><g id="inc"><rect fill="url(#gradient-inc)" height="50" rx="4" ry="4" stroke="black" stroke-width="1.2" width="80" x="500.0" y="500.0" /><line stroke="#568e56" stroke-width="0.8" x1="502.0" x2="578.0" y1="516.6666666666666" y2="516.6666666666666" /><line stroke="#568e56" stroke-width="0.8" x1="502.0" x2="578.0" y1="533.3333333333334" y2="533.3333333333334" /><circle cx="568.0" cy="508.3333333333333" fill="#00cc44" r="2.5" stroke="#568e56" stroke-width="0.5" /><circle cx="560.0" cy="508.3333333333333" fill="#ffaa00" r="2.5" stroke="#568e56" stroke-width="0.5" /><circle cx="568.0" cy="525.0" fill="#00cc44" r="2.5" stroke="#568e56" stroke-width="0.5" /><circle cx="560.0" cy="525.0" fill="#ffaa00" r="2.5" stroke="#568e56" stroke-width="0.5" /><circle cx="568.0" cy="541.6666666666667" fill="#00cc44" r="2.5" stroke="#568e56" stroke-width="0.5" /><circle cx="560.0" cy="541.6666666666667" fill="#ffaa00" r="2.5" stroke="#568e56" stroke-width="0.5" /><line stroke="#568e56" stroke-width="0.6" x1="506.0" x2="518.0" y1="505.0" y2="505.0" /><line stroke="#568e56" stroke-width="0.6" x1="506.0" x2="518.0" y1="508.3333333333333" y2="508.3333333333333" /><line stroke="#568e56" stroke-width="0.6" x1="506.0" x2="518.0" y1="511.6666666666667" y2="511.6666666666667" /><line stroke="#568e56" stroke-width="0.6" x1="506.0" x2="518.0" y1="521.6666666666666" y2="521.6666666666666" /><line stroke="#568e56" stroke-width="0.6" x1="506.0" x2="518.0" y1="525.0" y2="525.0" /><line stroke="#568e56" stroke-width="0.6" x1="506.0" x2="518.0" y1="528.3333333333333" y2="528.3333333333333" /><line stroke="#568e56" stroke-width="0.6" x1="506.0" x2="518.0" y1="538.3333333333334" y2="538.3333333333334" /><line stroke="#568e56" stroke-width="0.6" x1="506.0" x2="518.0" y1="541.6666666666667" y2="541.6666666666667" /><line stroke="#568e56" stroke-width="0.6" x1="506.0" x2="518.0" y1="545.0" y2="545.0" /></g><g id="not_prime"><polygon fill="url(#gradient-not_prime)" points="210.0,500.0 258.0,500.0 270.0,512.0 270.0,550.0 210.0,550.0" stroke="black" stroke-width="1.2" /><polygon fill="#993b2a" points="258.0,500.0 270.0,512.0 258.0,512.0" stroke="black" stroke-width="0.8" /><line stroke="#993b2a" stroke-linecap="round" stroke-width="1.5" x1="216.0" x2="246.0" y1="514.0" y2="514.0" /><line stroke="#993b2a" stroke-linecap="round" stroke-width="1.5" x1="216.0" x2="262.0" y1="522.0" y2="522.0" /><line stroke="#993b2a" stroke-linecap="round" stroke-width="1.5" x1="216.0" x2="262.0" y1="530.0" y2="530.0" /><line stroke="#993b2a" stroke-linecap="round" stroke-width="1.5" x1="216.0" x2="243.6" y1="538.0" y2="538.0" /></g><g id="prime"><polygon fill="url(#gradient-prime)" points="810.0,316.0 858.0,316.0 870.0,328.0 870.0,366.0 810.0,366.0" stroke="black" stroke-width="1.2" /><polygon fill="#568e56" points="858.0,316.0 870.0,328.0 858.0,328.0" stroke="black" stroke-width="0.8" /><line stroke="#568e56" stroke-linecap="round" stroke-width="1.5" x1="816.0" x2="846.0" y1="330.0" y2="330.0" /><line stroke="#568e56" stroke-linecap="round" stroke-width="1.5" x1="816.0" x2="862.0" y1="338.0" y2="338.0" /><line stroke="#568e56" stroke-linecap="round" stroke-width="1.5" x1="816.0" x2="862.0" y1="346.0" y2="346.0" /><line stroke="#568e56" stroke-linecap="round" stroke-width="1.5" x1="816.0" x2="843.6" y1="354.0" y2="354.0" /></g><polyline fill="none" marker-end="url(#arrow-end)" marker-start="url(#circle-start)" points="540.0,90.0 540.0,132.0" stroke="black" stroke-width="2" /><polyline fill="none" marker-end="url(#arrow-end)" marker-start="url(#circle-start)" points="500.0,157.0 253.2,157.0 253.2,500.0" stroke="black" stroke-width="2" /><polyline fill="none" marker-end="url(#arrow-end)" marker-start="url(#circle-start)" points="540.0,182.0 540.0,224.0" stroke="black" stroke-width="2" /><polyline fill="none" marker-end="url(#arrow-end)" marker-start="url(#circle-start)" points="540.0,274.0 540.0,316.0" stroke="black" stroke-width="2" /><polyline fill="none" marker-end="url(#arrow-end)" marker-start="url(#circle-start)" points="580.0,341.0 800.0,341.0" stroke="black" stroke-width="2" /><path d="M 540.0,366.0 C 481.48,380.0 481.48,394.0 540.0,408.0" fill="none" marker-end="url(#arrow-end)" marker-start="url(#circle-start)" stroke="black" stroke-width="2" /><polyline fill="none" marker-end="url(#arrow-end)" marker-start="url(#circle-start)" points="500.0,433.0 267.2,433.0 267.2,500.0" stroke="black" stroke-width="2" /><path d="M 540.0,458.0 C 481.48,472.0 481.48,486.0 540.0,500.0" fill="none" marker-end="url(#arrow-end)" marker-start="url(#circle-start)" stroke="black" stroke-width="2" /><path d="M 540.0,500.0 C 688.96,455.3333333333333 688.96,410.6666666666667 540.0,366.0" fill="none" marker-end="url(#arrow-end)" marker-start="url(#circle-start)" stroke="black" stroke-width="2" /><text fill="black" filter="url(#text-glow)" font-family="Arial, sans-serif" font-size="14px" text-anchor="start" x="592.6" y="65.0">Entrada: n</text><text fill="black" filter="url(#text-glow)" font-family="Arial, sans-serif" font-size="14px" text-anchor="end" x="487.4" y="157.0">n &lt; 2 ?</text><text fill="black" filter="url(#text-glow)" font-family="Arial, sans-serif" font-size="14px" text-anchor="start" x="592.6" y="295.0">i = 2</text><text fill="black" filter="url(#text-glow)" font-family="Arial, sans-serif" font-size="14px" text-anchor="end" x="487.4" y="341.0">i·i ≤ n ?</text><text fill="black" filter="url(#text-glow)" font-family="Arial, sans-serif" font-size="14px" text-anchor="start" x="592.6" y="479.0">n mod i == 0 ?</text><text fill="black" filter="url(#text-glow)" font-family="Arial, sans-serif" font-size="14px" text-anchor="middle" x="540.0" y="571.0">i = i + 1</text><text fill="black" filter="url(#text-glow)" font-family="Arial, sans-serif" font-size="14px" text-anchor="middle" x="240.0" y="571.0">NO es primo</text><text fill="black" filter="url(#text-glow)" font-family="Arial, sans-serif" font-size="14px" text-anchor="middle" x="840.0" y="387.0">ES PRIMO</text><text fill="gray" filter="url(#text-glow)" font-family="Arial, sans-serif" font-size="12px" text-anchor="middle" x="484.0" y="148.0">sí</text><text fill="gray" filter="url(#text-glow)" font-family="Arial, sans-serif" font-size="12px" text-anchor="middle" x="531.0" y="198.0">no</text><text fill="gray" filter="url(#text-glow)" font-family="Arial, sans-serif" font-size="12px" text-anchor="middle" x="596.0" y="350.0">no</text><text fill="gray" filter="url(#text-glow)" font-family="Arial, sans-serif" font-size="12px" text-anchor="middle" x="531.0" y="382.0">sí</text><text fill="gray" filter="url(#text-glow)" font-family="Arial, sans-serif" font-size="12px" text-anchor="middle" x="484.0" y="424.0">sí</text><text fill="gray" filter="url(#text-glow)" font-family="Arial, sans-serif" font-size="12px" text-anchor="middle" x="531.0" y="474.0">no</text><text fill="gray" filter="url(#text-glow)" font-family="Arial, sans-serif" font-size="12px" text-anchor="middle" x="549.0" y="484.0">repetir</text></svg>