<?xml version="1.0" encoding="utf-8" ?>
<svg baseProfile="full" height="2779.0" version="1.1" viewBox="0,0,1660.0,2779.0" width="1660.0" xmlns="http://www.w3.org/2000/svg" xmlns:ev="http://www.w3.org/2001/xml-events" xmlns:xlink="http://www.w3.org/1999/xlink"><defs><marker id="arrow-end" markerHeight="10" markerWidth="10" orient="auto" refX="10" refY="5"><path d="M 0 0 L 10 5 L 0 10 z" fill="black" /></marker><marker id="arrow-start" markerHeight="10" markerWidth="10" orient="auto" refX="0" refY="5"><path d="M 10 0 L 0 5 L 10 10 z" fill="black" /></marker><marker id="circle-start" markerHeight="10" markerWidth="10" orient="auto" refX="5" refY="5"><circle cx="5" cy="5" fill="black" r="4" /></marker><marker id="circle-end" markerHeight="10" markerWidth="10" orient="auto" refX="5" refY="5"><circle cx="5" cy="5" fill="black" r="4" /></marker><marker id="arrow-end-c0" markerHeight="10" markerWidth="10" orient="auto" refX="10" refY="5"><path d="M 0 0 L 10 5 L 0 10 z" fill="#c32222" /></marker><marker id="arrow-start-c0" markerHeight="10" markerWidth="10" orient="auto" refX="0" refY="5"><path d="M 10 0 L 0 5 L 10 10 z" fill="#c32222" /></marker><marker id="circle-start-c0" markerHeight="10" markerWidth="10" orient="auto" refX="5" refY="5"><circle cx="5" cy="5" fill="#c32222" r="4" /></marker><marker id="circle-end-c0" markerHeight="10" markerWidth="10" orient="auto" refX="5" refY="5"><circle cx="5" cy="5" fill="#c32222" r="4" /></marker><marker id="arrow-end-c1" markerHeight="10" markerWidth="10" orient="auto" refX="10" refY="5"><path d="M 0 0 L 10 5 L 0 10 z" fill="#c35222" /></marker><marker id="arrow-start-c1" markerHeight="10" markerWidth="10" orient="auto" refX="0" refY="5"><path d="M 10 0 L 0 5 L 10 10 z" fill="#c35222" /></marker><marker id="circle-start-c1" markerHeight="10" markerWidth="10" orient="auto" refX="5" refY="5"><circle cx="5" cy="5" fill="#c35222" r="4" /></marker><marker id="circle-end-c1" markerHeight="10" markerWidth="10" orient="auto" refX="5" refY="5"><circle cx="5" cy="5" fill="#c35222" r="4" /></marker><marker id="arrow-end-c2" markerHeight="10" markerWidth="10" orient="auto" refX="10" refY="5"><path d="M 0 0 L 10 5 L 0 10 z" fill="#c38222" /></marker><marker id="arrow-start-c2" markerHeight="10" markerWidth="10" orient="auto" refX="0" refY="5"><path d="M 10 0 L 0 5 L 10 10 z" fill="#c38222" /></marker><marker id="circle-start-c2" markerHeight="10" markerWidth="10" orient="auto" refX="5" refY="5"><circle cx="5" cy="5" fill="#c38222" r="4" /></marker><marker id="circle-end-c2" markerHeight="10" markerWidth="10" orient="auto" refX="5" refY="5"><circle cx="5" cy="5" fill="#c38222" r="4" /></marker><marker id="arrow-end-c3" markerHeight="10" markerWidth="10" orient="auto" refX="10" refY="5"><path d="M 0 0 L 10 5 L 0 10 z" fill="#c3b322" /></marker><marker id="arrow-start-c3" markerHeight="10" markerWidth="10" orient="auto" refX="0" refY="5"><path d="M 10 0 L 0 5 L 10 10 z" fill="#c3b322" /></marker><marker id="circle-start-c3" markerHeight="10" markerWidth="10" orient="auto" refX="5" refY="5"><circle cx="5" cy="5" fill="#c3b322" r="4" /></marker><marker id="circle-end-c3" markerHeight="10" markerWidth="10" orient="auto" refX="5" refY="5"><circle cx="5" cy="5" fill="#c3b322" r="4" /></marker><marker id="arrow-end-c4" markerHeight="10" markerWidth="10" orient="auto" refX="10" refY="5"><path d="M 0 0 L 10 5 L 0 10 z" fill="#a2c322" /></marker><marker id="arrow-start-c4" markerHeight="10" markerWidth="10" orient="auto" refX="0" refY="5"><path d="M 10 0 L 0 5 L 10 10 z" fill="#a2c322" /></marker><marker id="circle-start-c4" markerHeight="10" markerWidth="10" orient="auto" refX="5" refY="5"><circle cx="5" cy="5" fill="#a2c322" r="4" /></marker><marker id="circle-end-c4" markerHeight="10" markerWidth="10" orient="auto" refX="5" refY="5"><circle cx="5" cy="5" fill="#a2c322" r="4" /></marker><marker id="arrow-end-c5" markerHeight="10" markerWidth="10" orient="auto" refX="10" refY="5"><path d="M 0 0 L 10 5 L 0 10 z" fill="#72c322" /></marker><marker id="arrow-start-c5" markerHeight="10" markerWidth="10" orient="auto" refX="0" refY="5"><path d="M 10 0 L 0 5 L 10 10 z" fill="#72c322" /></marker><marker id="circle-start-c5" markerHeight="10" markerWidth="10" orient="auto" refX="5" refY="5"><circle cx="5" cy="5" fill="#72c322" r="4" /></marker><marker id="circle-end-c5" markerHeight="10" markerWidth="10" orient="auto" refX="5" refY="5"><circle cx="5" cy="5" fill="#72c322" r="4" /></marker><marker id="arrow-end-c6" markerHeight="10" markerWidth="10" orient="auto" refX="10" refY="5"><path d="M 0 0 L 10 5 L 0 10 z" fill="#42c322" /></marker><marker id="arrow-start-c6" markerHeight="10" markerWidth="10" orient="auto" refX="0" refY="5"><path d="M 10 0 L 0 5 L 10 10 z" fill="#42c322" /></marker><marker id="circle-start-c6" markerHeight="10" markerWidth="10" orient="auto" refX="5" refY="5"><circle cx="5" cy="5" fill="#42c322" r="4" /></marker><marker id="circle-end-c6" markerHeight="10" markerWidth="10" orient="auto" refX="5" refY="5"><circle cx="5" cy="5" fill="#42c322" r="4" /></marker><marker id="arrow-end-c7" markerHeight="10" markerWidth="10" orient="auto" refX="10" refY="5"><path d="M 0 0 L 10 5 L 0 10 z" fill="#22c332" /></marker><marker id="arrow-start-c7" markerHeight="10" markerWidth="10" orient="auto" refX="0" refY="5"><path d="M 10 0 L 0 5 L 10 10 z" fill="#22c332" /></marker><marker id="circle-start-c7" markerHeight="10" markerWidth="10" orient="auto" refX="5" refY="5"><circle cx="5" cy="5" fill="#22c332" r="4" /></marker><marker id="circle-end-c7" markerHeight="10" markerWidth="10" orient="auto" refX="5" refY="5"><circle cx="5" cy="5" fill="#22c332" r="4" /></marker><marker id="arrow-end-c8" markerHeight="10" markerWidth="10" orient="auto" refX="10" refY="5"><path d="M 0 0 L 10 5 L 0 10 z" fill="#22c362" /></marker><marker id="arrow-start-c8" markerHeight="10" markerWidth="10" orient="auto" refX="0" refY="5"><path d="M 10 0 L 0 5 L 10 10 z" fill="#22c362" /></marker><marker id="circle-start-c8" markerHeight="10" markerWidth="10" orient="auto" refX="5" refY="5"><circle cx="5" cy="5" fill="#22c362" r="4" /></marker><marker id="circle-end-c8" markerHeight="10" markerWidth="10" orient="auto" refX="5" refY="5"><circle cx="5" cy="5" fill="#22c362" r="4" /></marker><marker id="arrow-end-c9" markerHeight="10" markerWidth="10" orient="auto" refX="10" refY="5"><path d="M 0 0 L 10 5 L 0 10 z" fill="#22c392" /></marker><marker id="arrow-start-c9" markerHeight="10" markerWidth="10" orient="auto" refX="0" refY="5"><path d="M 10 0 L 0 5 L 10 10 z" fill="#22c392" /></marker><marker id="circle-start-c9" markerHeight="10" markerWidth="10" orient="auto" refX="5" refY="5"><circle cx="5" cy="5" fill="#22c392" r="4" /></marker><marker id="circle-end-c9" markerHeight="10" markerWidth="10" orient="auto" refX="5" refY="5"><circle cx="5" cy="5" fill="#22c392" r="4" /></marker><marker id="arrow-end-c10" markerHeight="10" markerWidth="10" orient="auto" refX="10" refY="5"><path d="M 0 0 L 10 5 L 0 10 z" fill="#22c3c3" /></marker><marker id="arrow-start-c10" markerHeight="10" markerWidth="10" orient="auto" refX="0" refY="5"><path d="M 10 0 L 0 5 L 10 10 z" fill="#22c3c3" /></marker><marker id="circle-start-c10" markerHeight="10" markerWidth="10" orient="auto" refX="5" refY="5"><circle cx="5" cy="5" fill="#22c3c3" r="4" /></marker><marker id="circle-end-c10" markerHeight="10" markerWidth="10" orient="auto" refX="5" refY="5"><circle cx="5" cy="5" fill="#22c3c3" r="4" /></marker><marker id="arrow-end-c11" markerHeight="10" markerWidth="10" orient="auto" refX="10" refY="5"><path d="M 0 0 L 10 5 L 0 10 z" fill="#2292c3" /></marker><marker id="arrow-start-c11" markerHeight="10" markerWidth="10" orient="auto" refX="0" refY="5"><path d="M 10 0 L 0 5 L 10 10 z" fill="#2292c3" /></marker><marker id="circle-start-c11" markerHeight="10" markerWidth="10" orient="auto" refX="5" refY="5"><circle cx="5" cy="5" fill="#2292c3" r="4" /></marker><marker id="circle-end-c11" markerHeight="10" markerWidth="10" orient="auto" refX="5" refY="5"><circle cx="5" cy="5" fill="#2292c3" r="4" /></marker><marker id="arrow-end-c12" markerHeight="10" markerWidth="10" orient="auto" refX="10" refY="5"><path d="M 0 0 L 10 5 L 0 10 z" fill="#2262c3" /></marker><marker id="arrow-start-c12" markerHeight="10" markerWidth="10" orient="auto" refX="0" refY="5"><path d="M 10 0 L 0 5 L 10 10 z" fill="#2262c3" /></marker><marker id="circle-start-c12" markerHeight="10" markerWidth="10" orient="auto" refX="5" refY="5"><circle cx="5" cy="5" fill="#2262c3" r="4" /></marker><marker id="circle-end-c12" markerHeight="10" markerWidth="10" orient="auto" refX="5" refY="5"><circle cx="5" cy="5" fill="#2262c3" r="4" /></marker><marker id="arrow-end-c13" markerHeight="10" markerWidth="10" orient="auto" refX="10" refY="5"><path d="M 0 0 L 10 5 L 0 10 z" fill="#2232c3" /></marker><marker id="arrow-start-c13" markerHeight="10" markerWidth="10" orient="auto" refX="0" refY="5"><path d="M 10 0 L 0 5 L 10 10 z" fill="#2232c3" /></marker><marker id="circle-start-c13" markerHeight="10" markerWidth="10" orient="auto" refX="5" refY="5"><circle cx="5" cy="5" fill="#2232c3" r="4" /></marker><marker id="circle-end-c13" markerHeight="10" markerWidth="10" orient="auto" refX="5" refY="5"><circle cx="5" cy="5" fill="#2232c3" r="4" /></marker><marker id="arrow-end-c14" markerHeight="10" markerWidth="10" orient="auto" refX="10" refY="5"><path d="M 0 0 L 10 5 L 0 10 z" fill="#4222c3" /></marker><marker id="arrow-start-c14" markerHeight="10" markerWidth="10" orient="auto" refX="0" refY="5"><path d="M 10 0 L 0 5 L 10 10 z" fill="#4222c3" /></marker><marker id="circle-start-c14" markerHeight="10" markerWidth="10" orient="auto" refX="5" refY="5"><circle cx="5" cy="5" fill="#4222c3" r="4" /></marker><marker id="circle-end-c14" markerHeight="10" markerWidth="10" orient="auto" refX="5" refY="5"><circle cx="5" cy="5" fill="#4222c3" r="4" /></marker><marker id="arrow-end-c15" markerHeight="10" markerWidth="10" orient="auto" refX="10" refY="5"><path d="M 0 0 L 10 5 L 0 10 z" fill="#7222c3" /></marker><marker id="arrow-start-c15" markerHeight="10" markerWidth="10" orient="auto" refX="0" refY="5"><path d="M 10 0 L 0 5 L 10 10 z" fill="#7222c3" /></marker><marker id="circle-start-c15" markerHeight="10" markerWidth="10" orient="auto" refX="5" refY="5"><circle cx="5" cy="5" fill="#7222c3" r="4" /></marker><marker id="circle-end-c15" markerHeight="10" markerWidth="10" orient="auto" refX="5" refY="5"><circle cx="5" cy="5" fill="#7222c3" r="4" /></marker><marker id="arrow-end-c16" markerHeight="10" markerWidth="10" orient="auto" refX="10" refY="5"><path d="M 0 0 L 10 5 L 0 10 z" fill="#a222c3" /></marker><marker id="arrow-start-c16" markerHeight="10" markerWidth="10" orient="auto" refX="0" refY="5"><path d="M 10 0 L 0 5 L 10 10 z" fill="#a222c3" /></marker><marker id="circle-start-c16" markerHeight="10" markerWidth="10" orient="auto" refX="5" refY="5"><circle cx="5" cy="5" fill="#a222c3" r="4" /></marker><marker id="circle-end-c16" markerHeight="10" markerWidth="10" orient="auto" refX="5" refY="5"><circle cx="5" cy="5" fill="#a222c3" r="4" /></marker><marker id="arrow-end-c17" markerHeight="10" markerWidth="10" orient="auto" refX="10" refY="5"><path d="M 0 0 L 10 5 L 0 10 z" fill="#c322b3" /></marker><marker id="arrow-start-c17" markerHeight="10" markerWidth="10" orient="auto" refX="0" refY="5"><path d="M 10 0 L 0 5 L 10 10 z" fill="#c322b3" /></marker><marker id="circle-start-c17" markerHeight="10" markerWidth="10" orient="auto" refX="5" refY="5"><circle cx="5" cy="5" fill="#c322b3" r="4" /></marker><marker id="circle-end-c17" markerHeight="10" markerWidth="10" orient="auto" refX="5" refY="5"><circle cx="5" cy="5" fill="#c322b3" r="4" /></marker><marker id="arrow-end-c18" markerHeight="10" markerWidth="10" orient="auto" refX="10" refY="5"><path d="M 0 0 L 10 5 L 0 10 z" fill="#c32282" /></marker><marker id="arrow-start-c18" markerHeight="10" markerWidth="10" orient="auto" refX="0" refY="5"><path d="M 10 0 L 0 5 L 10 10 z" fill="#c32282" /></marker><marker id="circle-start-c18" markerHeight="10" markerWidth="10" orient="auto" refX="5" refY="5"><circle cx="5" cy="5" fill="#c32282" r="4" /></marker><marker id="circle-end-c18" markerHeight="10" markerWidth="10" orient="auto" refX="5" refY="5"><circle cx="5" cy="5" fill="#c32282" r="4" /></marker><marker id="arrow-end-c19" markerHeight="10" markerWidth="10" orient="auto" refX="10" refY="5"><path d="M 0 0 L 10 5 L 0 10 z" fill="#c32252" /></marker><marker id="arrow-start-c19" markerHeight="10" markerWidth="10" orient="auto" refX="0" refY="5"><path d="M 10 0 L 0 5 L 10 10 z" fill="#c32252" /></marker><marker id="circle-start-c19" markerHeight="10" markerWidth="10" orient="auto" refX="5" refY="5"><circle cx="5" cy="5" fill="#c32252" r="4" /></marker><marker id="circle-end-c19" markerHeight="10" markerWidth="10" orient="auto" refX="5" refY="5"><circle cx="5" cy="5" fill="#c32252" r="4" /></marker><linearGradient id="gradient-legend" x1="0%" x2="0%" y1="0%" y2="100%"><stop offset="0%" stop-color="#a6a6a6" /><stop offset="100%" stop-color="#595959" /></linearGradient><linearGradient id="gradient-wd" x1="0%" x2="0%" y1="0%" y2="100%"><stop offset="0%" stop-color="#a6a6a6" /><stop offset="100%" stop-color="#595959" /></linearGradient><linearGradient id="gradient-staging" x1="0%" x2="0%" y1="0%" y2="100%"><stop offset="0%" stop-color="#a6a6a6" /><stop offset="100%" stop-color="#595959" /></linearGradient><linearGradient id="gradient-localrepo" x1="0%" x2="0%" y1="0%" y2="100%"><stop offset="0%" stop-color="#a6a6a6" /><stop offset="100%" stop-color="#595959" /></linearGradient><linearGradient id="gradient-remote" x1="0%" x2="0%" y1="0%" y2="100%"><stop offset="0%" stop-color="#a6a6a6" /><stop offset="100%" stop-color="#595959" /></linearGradient><linearGradient id="gradient-rescue" x1="0%" x2="0%" y1="0%" y2="100%"><stop offset="0%" stop-color="#a6a6a6" /><stop offset="100%" stop-color="#595959" /></linearGradient><linearGradient id="gradient-lg_inspect" x1="0%" x2="0%" y1="0%" y2="100%"><stop offset="0%" stop-color="#c5e3ed" /><stop offset="100%" stop-color="#7997a1" /></linearGradient><linearGradient id="gradient-lg_change" x1="0%" x2="0%" y1="0%" y2="100%"><stop offset="0%" stop-color="#b1f3b1" /><stop offset="100%" stop-color="#64a664" /></linearGradient><linearGradient id="gradient-lg_sync" x1="0%" x2="0%" y1="0%" y2="100%"><stop offset="0%" stop-color="#ffc04c" /><stop offset="100%" stop-color="#b27300" /></linearGradient><linearGradient id="gradient-lg_rescue" x1="0%" x2="0%" y1="0%" y2="100%"><stop offset="0%" stop-color="#ffd2da" /><stop offset="100%" stop-color="#b2868e" /></linearGradient><linearGradient id="gradient-status" x1="0%" x2="0%" y1="0%" y2="100%"><stop offset="0%" stop-color="#c5e3ed" /><stop offset="100%" stop-color="#7997a1" /></linearGradient><linearGradient id="gradient-diff" x1="0%" x2="0%" y1="0%" y2="100%"><stop offset="0%" stop-color="#c5e3ed" /><stop offset="100%" stop-color="#7997a1" /></linearGradient><linearGradient id="gradient-restore_file" x1="0%" x2="0%" y1="0%" y2="100%"><stop offset="0%" stop-color="#ffd2da" /><stop offset="100%" stop-color="#b2868e" /></linearGradient><linearGradient id="gradient-stash" x1="0%" x2="0%" y1="0%" y2="100%"><stop offset="0%" stop-color="#ffd2da" /><stop offset="100%" stop-color="#b2868e" /></linearGradient><linearGradient id="gradient-add" x1="0%" x2="0%" y1="0%" y2="100%"><stop offset="0%" stop-color="#b1f3b1" /><stop offset="100%" stop-color="#64a664" /></linearGradient><linearGradient id="gradient-unstage" x1="0%" x2="0%" y1="0%" y2="100%"><stop offset="0%" stop-color="#ffd2da" /><stop offset="100%" stop-color="#b2868e" /></linearGradient><linearGradient id="gradient-diff_staged" x1="0%" x2="0%" y1="0%" y2="100%"><stop offset="0%" stop-color="#c5e3ed" /><stop offset="100%" stop-color="#7997a1" /></linearGradient><linearGradient id="gradient-commit" x1="0%" x2="0%" y1="0%" y2="100%"><stop offset="0%" stop-color="#b1f3b1" /><stop offset="100%" stop-color="#64a664" /></linearGradient><linearGradient id="gradient-log" x1="0%" x2="0%" y1="0%" y2="100%"><stop offset="0%" stop-color="#c5e3ed" /><stop offset="100%" stop-color="#7997a1" /></linearGradient><linearGradient id="gradient-branches" x1="0%" x2="0%" y1="0%" y2="100%"><stop offset="0%" stop-color="#b1f3b1" /><stop offset="100%" stop-color="#64a664" /></linearGradient><linearGradient id="gradient-tags" x1="0%" x2="0%" y1="0%" y2="100%"><stop offset="0%" stop-color="#b1f3b1" /><stop offset="100%" stop-color="#64a664" /></linearGradient><linearGradient id="gradient-merge" x1="0%" x2="0%" y1="0%" y2="100%"><stop offset="0%" stop-color="#b1f3b1" /><stop offset="100%" stop-color="#64a664" /></linearGradient><linearGradient id="gradient-rebase" x1="0%" x2="0%" y1="0%" y2="100%"><stop offset="0%" stop-color="#b1f3b1" /><stop offset="100%" stop-color="#64a664" /></linearGradient><linearGradient id="gradient-push" x1="0%" x2="0%" y1="0%" y2="100%"><stop offset="0%" stop-color="#ffc04c" /><stop offset="100%" stop-color="#b27300" /></linearGradient><linearGradient id="gradient-fetch" x1="0%" x2="0%" y1="0%" y2="100%"><stop offset="0%" stop-color="#ffc04c" /><stop offset="100%" stop-color="#b27300" /></linearGradient><linearGradient id="gradient-pull" x1="0%" x2="0%" y1="0%" y2="100%"><stop offset="0%" stop-color="#ffc04c" /><stop offset="100%" stop-color="#b27300" /></linearGradient><linearGradient id="gradient-origin_branches" x1="0%" x2="0%" y1="0%" y2="100%"><stop offset="0%" stop-color="#ffc04c" /><stop offset="100%" stop-color="#b27300" /></linearGradient><linearGradient id="gradient-pr" x1="0%" x2="0%" y1="0%" y2="100%"><stop offset="0%" stop-color="#b1f3b1" /><stop offset="100%" stop-color="#64a664" /></linearGradient><linearGradient id="gradient-reset" x1="0%" x2="0%" y1="0%" y2="100%"><stop offset="0%" stop-color="#ffd2da" /><stop offset="100%" stop-color="#b2868e" /></linearGradient><linearGradient id="gradient-revert" x1="0%" x2="0%" y1="0%" y2="100%"><stop offset="0%" stop-color="#ffd2da" /><stop offset="100%" stop-color="#b2868e" /></linearGradient><linearGradient id="gradient-legend_icon" x1="0%" x2="0%" y1="0%" y2="100%"><stop offset="0%" stop-color="#a6a6a6" /><stop offset="100%" stop-color="#595959" /></linearGradient><linearGradient id="gradient-wd_icon" x1="0%" x2="0%" y1="0%" y2="100%"><stop offset="0%" stop-color="#a6a6a6" /><stop offset="100%" stop-color="#595959" /></linearGradient><linearGradient id="gradient-staging_icon" x1="0%" x2="0%" y1="0%" y2="100%"><stop offset="0%" stop-color="#a6a6a6" /><stop offset="100%" stop-color="#595959" /></linearGradient><linearGradient id="gradient-localrepo_icon" x1="0%" x2="0%" y1="0%" y2="100%"><stop offset="0%" stop-color="#a6a6a6" /><stop offset="100%" stop-color="#595959" /></linearGradient><linearGradient id="gradient-remote_icon" x1="0%" x2="0%" y1="0%" y2="100%"><stop offset="0%" stop-color="#a6a6a6" /><stop offset="100%" stop-color="#595959" /></linearGradient><linearGradient id="gradient-rescue_icon" x1="0%" x2="0%" y1="0%" y2="100%"><stop offset="0%" stop-color="#a6a6a6" /><stop offset="100%" stop-color="#595959" /></linearGradient></defs><rect fill="url(#gradient-legend)" height="181.0" opacity="0.3" rx="9.05" ry="9.05" stroke="black" stroke-width="2" width="490.0" x="760.0" y="20.0" /><rect fill="url(#gradient-wd)" height="485.0" opacity="0.3" rx="12.3" ry="12.3" stroke="black" stroke-width="2" width="246" x="100.0" y="20.0" /><rect fill="url(#gradient-staging)" height="485.0" opacity="0.3" rx="10.3" ry="10.3" stroke="black" stroke-width="2" width="206" x="100.0" y="745.0" /><rect fill="url(#gradient-localrepo)" height="334.0" opacity="0.3" rx="16.7" ry="16.7" stroke="black" stroke-width="2" width="620.0" x="100.0" y="1470.0" /><rect fill="url(#gradient-remote)" height="485.0" opacity="0.3" rx="18.0" ry="18.0" stroke="black" stroke-width="2" width="360.0" x="100.0" y="2044.0" /><rect fill="url(#gradient-rescue)" height="181.0" opacity="0.3" rx="9.05" ry="9.05" stroke="black" stroke-width="2" width="230.0" x="760.0" y="1470.0" /><rect fill="url(#gradient-lg_inspect)" height="50" stroke="black" width="80" x="770.0" y="90.0" /><rect fill="url(#gradient-lg_change)" height="50" stroke="black" width="80" x="900.0" y="90.0" /><rect fill="url(#gradient-lg_sync)" height="50" stroke="black" width="80" x="1030.0" y="90.0" /><rect fill="url(#gradient-lg_rescue)" height="50" stroke="black" width="80" x="1160.0" y="90.0" /><path d="m 33.382966,8e-4 c -3.861042,1.2762 -4.631646,6.37476 -8.713738,7.58064 -4.763632,3.80168 -7.027208,10.1432 -6.16644,16.12572 0.33152,3.88876 1.751504,7.57356 3.294256,11.12272 C 14.743804,40.50868 7.020292,45.29236 0,51.01416 c 0.0088,1.60388 2.571968,3.52192 3.1231,4.06796 3.251976,-1.413 1.180916,4.0242 4.391336,2.93684 0.547784,2.65168 4.059744,2.41792 4.424732,5.1808 3.474884,1.40976 5.871092,-3.60896 9.041844,-4.63968 4.692352,-3.27 9.331832,-6.6164 14.073835,-9.8148 4.49228,1.24988 8.3626,4.127 12.98444,5.03568 7.80432,2.36256 16.43632,1.5656 23.73004,-2.02148 4.6368,-2.28272 0.2696,-7.48384 -3.512,-7.30124 -7.07976,-1.44424 -14.26972,-3.36556 -20.32528,-7.46088 8.56576,-5.7508 17.58792,-10.81572 25.892,-16.95564 1.39956,-2.93964 -3.96644,-4.45148 -4.29872,-6.52308 -2.5844,0.91256 -2.66588,-1.5376 -2.34908,-2.97408 -1.63932,-1.19972 -3.72724,-3.25572 -4.68312,-4.18028 -8.53084,4.92348 -16.4076,10.8902 -24.95356,15.789 -2.407,-3.7232 -1.01408,-8.56452 -2.01052,-12.73416 -0.858401,-2.87864 1.40132,-7.4902 -0.910321,-9.33832 L 33.968326,0.0488 33.382806,0 Z m -0.1872,0.8914 c 0.3068,3.05576 -2.295922,6.0048 -0.538122,9.15572 0.675682,5.46024 0.604682,10.97176 0.699762,16.46244 -3.362242,1.81824 -6.593462,6.28168 -10.531522,5.58328 C 20.298644,29.42576 20.202072,25.23552 19.71614,21.7482 19.5367,15.91892 22.46468,9.9152 27.693068,7.11652 29.982004,5.45768 31.379684,2.92084 33.195766,0.8922 Z m 29.594001,6.4392 c 1.46792,2.53452 4.402,4.60776 3.57992,7.65776 1.61956,-0.52456 3.84108,-1.75012 3.77228,0.86636 2.411,1.43844 4.43252,4.9366 0.3672,5.68956 -7.52336,4.96068 -15.18952,9.69916 -22.79632,14.52964 -0.9216,-1.074 -5.60524,-6.12564 -3.166,-2.69128 3.265,2.94944 2.28268,7.38576 -1.67776,9.05112 -3.09804,2.1632 -7.06632,6.08608 -10.816643,3.16052 2.840322,1.60192 1.262722,4.59268 -1.56468,5.2684 -5.79348,4.02824 -11.478884,8.34496 -17.461448,12.1556 C 11.925032,61.34676 11.677424,58.83888 9.39482,59.16524 9.42802,57.0466 7.921908,56.51992 6.429668,56.32936 6.050108,54.97788 5.144404,52.72108 3.569348,54.4524 1.890272,53.17044 -0.134324,50.23212 3.121808,49.49748 9.527956,44.95864 15.784572,40.20916 22.281804,35.79912 c 1.534164,0.80484 3.739236,5.00052 4.030108,4.09568 -2.475856,-2.3784 -3.285572,-6.73764 0.843508,-7.77088 3.400024,-1.60856 6.755106,-5.66968 9.963827,-6.033 1.6652,1.04096 2.7588,5.7114 3.72452,5.18316 -0.2484,-2.83948 -5.46992,-6.43472 -1.878,-8.59836 7.42756,-5.4882 15.29672,-10.35556 23.22328,-15.07924 l 0.60088,-0.2652 z m -16.048,32.9764 c 7.33188,4.47516 15.82704,7.10848 24.43088,7.2878 2.95896,3.62772 -4.24068,5.12244 -6.89324,5.56544 -9.07796,1.72076 -18.81696,-0.2268 -26.63288,-5.07956 0.0952,-2.88528 5.25168,-3.33004 6.8208,-5.91508 0.75888,-0.61864 1.51188,-1.24448 2.27444,-1.8586 z" fill="black" stroke="black" stroke-width="0.5" transform="translate(183.0,243.0) scale(0.8333333333333334)" /><path d="m 12.420856,61.7005 c -0.901752,-1.95184 -1.520106,-2.59004 -2.509542,-2.59004 -0.365876,0 -0.39353,-0.037 -0.533738,-0.71228 -0.19222,-0.92592 -0.840804,-1.60888 -1.797812,-1.89308 -0.36702,-0.109 -0.757776,-0.1982 -0.86834,-0.1982 -0.1321,0 -0.303468,-0.28568 -0.499872,-0.83334 -0.358934,-1.0008 -0.976662,-1.71534 -1.482938,-1.71534 -0.19372,0 -0.550036,0.1222 -0.791824,0.27168 l -0.4396,0.2717 -0.61976,-0.61044 c -0.727678,-0.71674 -1.398376,-1.9033 -1.398376,-2.47392 0,-0.80186 0.371614,-1.2 1.531726,-1.64108 0.1745,-0.0664 2.639484,-1.80054 5.477732,-3.85378 12.105662,-8.75746 13.688092,-9.85432 13.983802,-9.69278 0.355472,0.1942 1.06138,0.98676 2.240946,2.51616 0.938626,1.217 1.295252,1.57706 1.562068,1.57706 0.16176,0 -0.0126,-0.32846 -0.554546,-1.0446 -2.204708,-2.9133 -1.7517,-5.69618 1.104954,-6.78776 1.095332,-0.41854 2.42461,-1.28368 5.173694,-3.3672 2.315476,-1.7549 3.870317,-2.61038 4.762757,-2.6205 0.53806,-0.006 0.6015,0.031 1.04036,0.60804 0.25704,0.338 0.85698,1.37022 1.33322,2.2938 0.96186,1.86546 1.14344,2.12528 1.48518,2.12528 0.54976,0 0.1164,-1.19058 -1.15096,-3.16142 -1.63672,-2.54542 -1.955,-3.5232 -1.44932,-4.45228 0.32188,-0.59136 4.23894,-3.42046 9.84424,-7.11004 5.27242,-3.47044 14.4363,-9.10636 14.80676,-9.10636 0.1042,0 0.25006,0.129 0.32408,0.28672 0.074,0.1578 0.57552,0.85238 1.1145,1.54372 1.89948,2.43646 2.44942,3.61534 2.31176,4.9554 -0.0832,0.81006 -0.0558,0.83294 0.64476,0.54018 1.94884,-0.81428 2.97162,-0.57646 2.97162,0.69098 0,0.27488 0.1192,0.4416 0.50902,0.71172 1.23736,0.8575 2.16708,2.28378 2.16708,3.32452 0,0.51574 -0.0626,0.65518 -0.48138,1.07408 -0.30412,0.30412 -0.7181,0.55168 -1.12416,0.67226 -0.37332,0.1108 -1.62728,0.82974 -2.99118,1.7148 -4.2357,2.7486 -19.17252,12.22338 -20.21678,12.824 -0.0972,0.0558 -0.87376,-0.63746 -2.08196,-1.8591 -1.18482,-1.198 -1.952,-1.8845 -1.99216,-1.78266 -0.08,0.20298 0.3841,0.91584 1.0952,1.68216 0.29266,0.3154 0.7448,1.00056 1.00474,1.5226 0.43504,0.87366 0.47262,1.03632 0.47262,2.04554 0,1.01058 -0.0374,1.17228 -0.47904,2.06568 -0.5417,1.0961 -1.39922,1.97108 -2.524,2.57548 -0.3809,0.20466 -1.2373,0.77474 -1.90316,1.26686 -3.18876,2.3567 -4.84414,3.16532 -6.507001,3.17856 -0.84492,0.006 -1.07256,-0.0456 -1.84778,-0.424 -1.208232,-0.58988 -1.212306,-0.59022 -0.580702,-0.0464 1.227322,1.05656 1.193242,2.48996 -0.08668,3.6439 -0.548778,0.49478 -1.415764,0.99314 -1.72773,0.99314 -0.10064,0 -2.325074,1.52716 -4.943136,3.3937 -8.074734,5.75688 -12.392204,8.7125 -12.726914,8.7125 -0.0779,0 -0.371548,-0.4975 -0.652472,-1.10556 z" fill="#ffff00" fill-rule="evenodd" stroke="#cbcbcb" stroke-width="0.0611682" transform="translate(183.0,243.0) scale(0.8333333333333334)" /><path d="m 22.489342,31.52582 c -0.64424,-0.73374 -1.395572,-2.34156 -1.757046,-3.75998 -0.432412,-1.69676 -0.8834,-5.1668 -0.882142,-6.78748 0.0042,-5.56444 2.985634,-10.93886 7.526286,-13.56762 1.005766,-0.58228 2.355818,-1.97466 4.135702,-4.2654 0.827626,-1.06518 1.543744,-1.93668 1.591384,-1.93668 0.1706,0 -0.1064,1.60026 -0.622596,3.59622 -0.598096,2.31274 -0.619242,3.40994 -0.09546,4.95432 0.18338,0.54074 0.362066,1.66158 0.466026,2.92328 0.1655,2.00848 0.43005,9.39754 0.43967,12.27946 l 0.006,1.4634 -1.13276,0.76812 c -0.62302,0.42246 -1.92204,1.3953 -2.886722,2.16188 -2.277544,1.80984 -3.762946,2.56562 -5.227054,2.65958 l -1.07041,0.0686 z" fill="#bfbfbf" fill-rule="evenodd" stroke="#cbcbcb" stroke-width="0.0701582" transform="translate(183.0,243.0) scale(0.8333333333333334)" /><path d="m 54.635847,53.58508 c -5.4849,-0.52902 -10.7308,-2.11586 -15.27404,-4.62028 -0.7235,-0.39882 -1.38848,-0.78378 -1.47772,-0.85548 -0.59134,-0.47502 0.83618,-2.0722 2.72012,-3.04342 1.85938,-0.95856 3.01272,-1.72266 3.55318,-2.35406 0.26648,-0.31134 0.96346,-0.95642 1.54882,-1.4335 l 1.0643,-0.86746 1.09542,0.64762 c 4.8739,2.88154 11.32624,5.16618 17.03906,6.03318 1.66192,0.25222 5.11384,0.59682 5.97832,0.59682 0.39332,0 0.85242,0.8396 0.85306,1.56004 0.002,1.97942 -3.89552,3.5343 -10.74242,4.28586 -1.21644,0.1336 -5.17222,0.165 -6.3581,0.0508 z" fill="#bfbfbf" fill-rule="evenodd" stroke="#cbcbcb" stroke-width="0.0701582" transform="translate(183.0,243.0) scale(0.8333333333333334)" /><rect fill="url(#gradient-status)" height="50" stroke="black" width="80" x="118.0" y="92.0" /><rect fill="url(#gradient-diff)" height="50" stroke="black" width="80" x="248.0" y="92.0" /><rect fill="url(#gradient-restore_file)" height="50" stroke="black" width="80" x="248.0" y="394.0" /><rect fill="url(#gradient-stash)" height="50" stroke="black" width="80" x="118.0" y="394.0" /><rect fill="url(#gradient-add)" height="50" stroke="black" width="80" x="163.0" y="968.0" /><rect fill="url(#gradient-unstage)" height="50" stroke="black" width="80" x="163.0" y="1119.0" /><rect fill="url(#gradient-diff_staged)" height="50" stroke="black" width="80" x="163.0" y="817.0" /><rect fill="url(#gradient-commit)" height="50" stroke="black" width="80" x="370.0" y="1693.0" /><rect fill="url(#gradient-log)" height="50" stroke="black" width="80" x="110.0" y="1542.0" /><rect fill="url(#gradient-branches)" height="50" stroke="black" width="80" x="240.0" y="1542.0" /><rect fill="url(#gradient-tags)" height="50" stroke="black" width="80" x="370.0" y="1542.0" /><rect fill="url(#gradient-merge)" height="50" stroke="black" width="80" x="500.0" y="1542.0" /><rect fill="url(#gradient-rebase)" height="50" stroke="black" width="80" x="630.0" y="1542.0" /><rect fill="url(#gradient-push)" height="50" stroke="black" width="80" x="240.0" y="2116.0" /><rect fill="url(#gradient-fetch)" height="50" stroke="black" width="80" x="110.0" y="2418.0" /><rect fill="url(#gradient-pull)" height="50" stroke="black" width="80" x="240.0" y="2418.0" /><rect fill="url(#gradient-origin_branches)" height="50" stroke="black" width="80" x="240.0" y="2267.0" /><rect fill="url(#gradient-pr)" height="50" stroke="black" width="80" x="370.0" y="2418.0" /><rect fill="url(#gradient-reset)" height="50" stroke="black" width="80" x="770.0" y="1540.0" /><rect fill="url(#gradient-revert)" height="50" stroke="black" width="80" x="900.0" y="1540.0" /><g id="legend_icon"><g transform="translate(770.0,30.0) scale(1.2048192771084338,0.6928406466512702) translate(-0.9,-1.4)"><path d="M 22.754087,32.116749 0.94545599,43.000013 V 4.7289739 L 22.754087,1.5702876 Z" fill="#e9e9ff" stroke="none" /><path d="M 50.712576,33.120864 V 1.4628125 L 22.754087,1.5702876 V 32.116749 Z" fill="#353564" stroke="none" /><path d="M 50.712576,33.120864 35.295871,44.770537 0.94545599,43.000013 22.754087,32.116749 Z" fill="#4d4d9f" stroke="none" /><path d="M 50.712576,1.4628125 35.295871,4.7384198 0.94545599,4.7289739 22.754087,1.5702876 Z" fill="#1c1ce6" opacity="1" stroke="none" /><path d="M 35.295871,44.770537 V 4.7384198 L 0.94545599,4.7289739 V 43.000013 Z" fill="#1a52ff" opacity="0.96" stroke="none" /><path d="M 50.712576,33.120864 35.295871,44.770537 V 4.7384198 L 50.712576,1.4628125 Z" fill="#1c9bd0" stroke="none" /><rect fill="none" height="43.3" opacity="0.67" stroke="#cbcbcb" stroke-width="0.48" width="49.8" x="0.9" y="1.4" /></g></g><g id="wd_icon"><g transform="translate(110.0,30.0) scale(1.2048192771084338,0.6928406466512702) translate(-0.9,-1.4)"><path d="M 22.754087,32.116749 0.94545599,43.000013 V 4.7289739 L 22.754087,1.5702876 Z" fill="#e9e9ff" stroke="none" /><path d="M 50.712576,33.120864 V 1.4628125 L 22.754087,1.5702876 V 32.116749 Z" fill="#353564" stroke="none" /><path d="M 50.712576,33.120864 35.295871,44.770537 0.94545599,43.000013 22.754087,32.116749 Z" fill="#4d4d9f" stroke="none" /><path d="M 50.712576,1.4628125 35.295871,4.7384198 0.94545599,4.7289739 22.754087,1.5702876 Z" fill="#1c1ce6" opacity="1" stroke="none" /><path d="M 35.295871,44.770537 V 4.7384198 L 0.94545599,4.7289739 V 43.000013 Z" fill="#1a52ff" opacity="0.96" stroke="none" /><path d="M 50.712576,33.120864 35.295871,44.770537 V 4.7384198 L 50.712576,1.4628125 Z" fill="#1c9bd0" stroke="none" /><rect fill="none" height="43.3" opacity="0.67" stroke="#cbcbcb" stroke-width="0.48" width="49.8" x="0.9" y="1.4" /></g></g><g id="staging_icon"><g transform="translate(110.0,755.0) scale(1.2048192771084338,0.6928406466512702) translate(-0.9,-1.4)"><path d="M 22.754087,32.116749 0.94545599,43.000013 V 4.7289739 L 22.754087,1.5702876 Z" fill="#e9e9ff" stroke="none" /><path d="M 50.712576,33.120864 V 1.4628125 L 22.754087,1.5702876 V 32.116749 Z" fill="#353564" stroke="none" /><path d="M 50.712576,33.120864 35.295871,44.770537 0.94545599,43.000013 22.754087,32.116749 Z" fill="#4d4d9f" stroke="none" /><path d="M 50.712576,1.4628125 35.295871,4.7384198 0.94545599,4.7289739 22.754087,1.5702876 Z" fill="#1c1ce6" opacity="1" stroke="none" /><path d="M 35.295871,44.770537 V 4.7384198 L 0.94545599,4.7289739 V 43.000013 Z" fill="#1a52ff" opacity="0.96" stroke="none" /><path d="M 50.712576,33.120864 35.295871,44.770537 V 4.7384198 L 50.712576,1.4628125 Z" fill="#1c9bd0" stroke="none" /><rect fill="none" height="43.3" opacity="0.67" stroke="#cbcbcb" stroke-width="0.48" width="49.8" x="0.9" y="1.4" /></g></g><g id="localrepo_icon"><g transform="translate(110.0,1480.0) scale(1.2048192771084338,0.6928406466512702) translate(-0.9,-1.4)"><path d="M 22.754087,32.116749 0.94545599,43.000013 V 4.7289739 L 22.754087,1.5702876 Z" fill="#e9e9ff" stroke="none" /><path d="M 50.712576,33.120864 V 1.4628125 L 22.754087,1.5702876 V 32.116749 Z" fill="#353564" stroke="none" /><path d="M 50.712576,33.120864 35.295871,44.770537 0.94545599,43.000013 22.754087,32.116749 Z" fill="#4d4d9f" stroke="none" /><path d="M 50.712576,1.4628125 35.295871,4.7384198 0.94545599,4.7289739 22.754087,1.5702876 Z" fill="#1c1ce6" opacity="1" stroke="none" /><path d="M 35.295871,44.770537 V 4.7384198 L 0.94545599,4.7289739 V 43.000013 Z" fill="#1a52ff" opacity="0.96" stroke="none" /><path d="M 50.712576,33.120864 35.295871,44.770537 V 4.7384198 L 50.712576,1.4628125 Z" fill="#1c9bd0" stroke="none" /><rect fill="none" height="43.3" opacity="0.67" stroke="#cbcbcb" stroke-width="0.48" width="49.8" x="0.9" y="1.4" /></g></g><ellipse cx="140.0" cy="2069.0" fill="url(#gradient-remote_icon)" rx="40.0" ry="25.0" stroke="black" /><g id="rescue_icon"><g transform="translate(770.0,1480.0) scale(1.2048192771084338,0.6928406466512702) translate(-0.9,-1.4)"><path d="M 22.754087,32.116749 0.94545599,43.000013 V 4.7289739 L 22.754087,1.5702876 Z" fill="#e9e9ff" stroke="none" /><path d="M 50.712576,33.120864 V 1.4628125 L 22.754087,1.5702876 V 32.116749 Z" fill="#353564" stroke="none" /><path d="M 50.712576,33.120864 35.295871,44.770537 0.94545599,43.000013 22.754087,32.116749 Z" fill="#4d4d9f" stroke="none" /><path d="M 50.712576,1.4628125 35.295871,4.7384198 0.94545599,4.7289739 22.754087,1.5702876 Z" fill="#1c1ce6" opacity="1" stroke="none" /><path d="M 35.295871,44.770537 V 4.7384198 L 0.94545599,4.7289739 V 43.000013 Z" fill="#1a52ff" opacity="0.96" stroke="none" /><path d="M 50.712576,33.120864 35.295871,44.770537 V 4.7384198 L 50.712576,1.4628125 Z" fill="#1c9bd0" stroke="none" /><rect fill="none" height="43.3" opacity="0.67" stroke="#cbcbcb" stroke-width="0.48" width="49.8" x="0.9" y="1.4" /></g></g><polyline fill="none" marker-end="url(#arrow-end-c0)" marker-start="url(#circle-start-c0)" points="191.0,268.0 100.0,268.0 100.0,630.5 306.0,630.5 306.0,993.0 235.0,993.0" stroke="#c32222" stroke-width="2" /><polyline fill="none" marker-end="url(#arrow-end-c1)" marker-start="url(#circle-start-c1)" points="235.0,993.0 306.0,993.0 306.0,1355.5 100.0,1355.5 100.0,1718.0 378.0,1718.0" stroke="#c35222" stroke-width="2" /><line marker-end="url(#arrow-end-c2)" marker-start="url(#arrow-start-c2)" stroke="#c38222" stroke-width="2" x1="170.65238646064685" x2="210.34761353935315" y1="146.39246700857962" y2="238.60753299142038" /><line marker-end="url(#arrow-end-c3)" marker-start="url(#arrow-start-c3)" stroke="#c3b322" stroke-width="2" x1="275.3476135393532" x2="235.65238646064685" y1="146.39246700857962" y2="238.60753299142038" /><line marker-end="url(#arrow-end-c4)" marker-start="url(#arrow-start-c4)" stroke="#a2c322" stroke-width="2" x1="203.0" x2="203.0" y1="874.0" y2="961.0" /><line marker-end="url(#arrow-end-c5)" marker-start="url(#arrow-start-c5)" stroke="#72c322" stroke-width="2" x1="177.67175532656915" x2="382.32824467343085" y1="1583.070904055046" y2="1701.929095944954" /><polyline fill="none" marker-end="url(#arrow-end-c6)" marker-start="url(#circle-start-c6)" points="378.0,1718.0 100.0,1718.0 100.0,1929.5 460.0,1929.5 460.0,2141.0 312.0,2141.0" stroke="#42c322" stroke-width="2" /><line marker-end="url(#arrow-end-c7)" marker-start="url(#circle-start-c7)" stroke="#22c332" stroke-width="2" x1="280.0" x2="280.0" y1="2173.0" y2="2260.0" /><line marker-end="url(#arrow-end-c8)" marker-start="url(#circle-start-c8)" stroke="#22c362" stroke-width="2" x1="259.1218214373909" x2="170.87817856260907" y1="2316.250807407338" y2="2418.749192592662" /><line marker-end="url(#arrow-end-c9)" marker-start="url(#circle-start-c9)" stroke="#22c392" stroke-width="2" x1="280.0" x2="280.0" y1="2324.0" y2="2411.0" /><line marker-end="url(#arrow-end-c10)" marker-start="url(#circle-start-c10)" stroke="#22c3c3" stroke-width="2" x1="160.80223457137492" x2="399.1977654286251" y1="2412.8783843682813" y2="1748.1216156317187" /><line marker-end="url(#arrow-end-c11)" marker-start="url(#circle-start-c11)" stroke="#2292c3" stroke-width="2" x1="289.10513375510055" x2="530.8948662448994" y1="2412.3227031943534" y2="1597.6772968056464" /><path d="M 300.8781785626091,2316.250807407338 C 296.9083333333333,2365.0833333333335 340.2416666666667,2415.4166666666665 389.1218214373909,2418.749192592662" fill="none" marker-end="url(#arrow-end-c12)" marker-start="url(#circle-start-c12)" stroke="#2262c3" stroke-width="2" /><path d="M 389.1218214373909,2418.749192592662 C 393.0916666666667,2369.9166666666665 349.7583333333333,2319.5833333333335 300.8781785626091,2316.250807407338" fill="none" marker-end="url(#arrow-end-c13)" marker-start="url(#circle-start-c13)" stroke="#2232c3" stroke-width="2" /><line marker-end="url(#arrow-end-c14)" marker-start="url(#circle-start-c14)" stroke="#4222c3" stroke-width="2" x1="210.34761353935315" x2="170.65238646064685" y1="297.3924670085796" y2="389.6075329914204" /><line marker-end="url(#arrow-end-c15)" marker-start="url(#circle-start-c15)" stroke="#7222c3" stroke-width="2" x1="170.65238646064685" x2="210.34761353935315" y1="389.6075329914204" y2="297.3924670085796" /><line marker-end="url(#arrow-end-c16)" marker-start="url(#circle-start-c16)" stroke="#a222c3" stroke-width="2" x1="235.65238646064685" x2="275.3476135393532" y1="297.3924670085796" y2="389.6075329914204" /><line marker-end="url(#arrow-end-c17)" marker-start="url(#circle-start-c17)" stroke="#c322b3" stroke-width="2" x1="203.0" x2="203.0" y1="1025.0" y2="1112.0" /><line marker-end="url(#arrow-end-c18)" marker-start="url(#circle-start-c18)" stroke="#c32282" stroke-width="2" x1="439.8881922560414" x2="780.1118077439586" y1="1706.5677664620641" y2="1576.4322335379359" /><line marker-end="url(#arrow-end-c19)" marker-start="url(#circle-start-c19)" stroke="#c32252" stroke-width="2" x1="440.74457185359887" x2="909.2554281464012" y1="1709.1246802007536" y2="1573.8753197992464" /><text fill="black" font-family="Arial, sans-serif" font-size="14px" text-anchor="end" x="757.4" y="161.0">Inspección</text><text fill="black" font-family="Arial, sans-serif" font-size="14px" text-anchor="end" x="757.4" y="179.0">(status/log/diff)</text><text fill="black" font-family="Arial, sans-serif" font-size="14px" text-anchor="middle" x="940.0" y="161.0">Cambio</text><text fill="black" font-family="Arial, sans-serif" font-size="14px" text-anchor="middle" x="940.0" y="179.0">(add/commit/merge)</text><text fill="black" font-family="Arial, sans-serif" font-size="14px" text-anchor="start" x="1122.6" y="161.0">Sync</text><text fill="black" font-family="Arial, sans-serif" font-size="14px" text-anchor="start" x="1122.6" y="179.0">(fetch/pull/push)</text><text fill="black" font-family="Arial, sans-serif" font-size="14px" text-anchor="start" x="1252.6" y="115.0">Rescate</text><text fill="black" font-family="Arial, sans-serif" font-size="14px" text-anchor="start" x="1252.6" y="133.0">(stash/reset/revert)</text><text fill="black" font-family="Arial, sans-serif" font-size="14px" text-anchor="start" x="275.6" y="268.0">Editar archivos</text><text fill="black" font-family="Arial, sans-serif" font-size="14px" text-anchor="start" x="275.6" y="286.0">(cambios locales)</text><text fill="black" font-family="Arial, sans-serif" font-size="14px" text-anchor="end" x="105.4" y="117.0">git status</text><text fill="black" font-family="Arial, sans-serif" font-size="14px" text-anchor="end" x="105.4" y="135.0">(ver estado)</text><text fill="black" font-family="Arial, sans-serif" font-size="14px" text-anchor="start" x="340.6" y="117.0">git diff</text><text fill="black" font-family="Arial, sans-serif" font-size="14px" text-anchor="start" x="340.6" y="135.0">(ver cambios)</text><text fill="black" font-family="Arial, sans-serif" font-size="14px" text-anchor="start" x="340.6" y="419.0">git restore &lt;file&gt;</text><text fill="black" font-family="Arial, sans-serif" font-size="14px" text-anchor="start" x="340.6" y="437.0">(descartar cambios)</text><text fill="black" font-family="Arial, sans-serif" font-size="14px" text-anchor="middle" x="158.0" y="465.0">git stash / pop</text><text fill="black" font-family="Arial, sans-serif" font-size="14px" text-anchor="middle" x="158.0" y="483.0">(guardar temporal)</text><text fill="black" font-family="Arial, sans-serif" font-size="14px" text-anchor="start" x="255.6" y="1039.0">git add &lt;file&gt; / .</text><text fill="black" font-family="Arial, sans-serif" font-size="14px" text-anchor="start" x="255.6" y="1057.0">(stage)</text><text fill="black" font-family="Arial, sans-serif" font-size="14px" text-anchor="start" x="255.6" y="1144.0">git restore --staged &lt;file&gt;</text><text fill="black" font-family="Arial, sans-serif" font-size="14px" text-anchor="start" x="255.6" y="1162.0">(unstage)</text><text fill="black" font-family="Arial, sans-serif" font-size="14px" text-anchor="start" x="255.6" y="888.0">git diff --staged</text><text fill="black" font-family="Arial, sans-serif" font-size="14px" text-anchor="start" x="255.6" y="906.0">(ver staged)</text><text fill="black" font-family="Arial, sans-serif" font-size="14px" text-anchor="end" x="357.4" y="1764.0">git commit -m "msg"</text><text fill="black" font-family="Arial, sans-serif" font-size="14px" text-anchor="end" x="357.4" y="1782.0">(snapshot)</text><text fill="black" font-family="Arial, sans-serif" font-size="14px" text-anchor="middle" x="150.0" y="1521.0">git log / show</text><text fill="black" font-family="Arial, sans-serif" font-size="14px" text-anchor="middle" x="150.0" y="1539.0">(historia)</text><text fill="black" font-family="Arial, sans-serif" font-size="14px" text-anchor="middle" x="280.0" y="1521.0">git branch</text><text fill="black" font-family="Arial, sans-serif" font-size="14px" text-anchor="middle" x="280.0" y="1539.0">/ git switch</text><text fill="black" font-family="Arial, sans-serif" font-size="14px" text-anchor="start" x="462.6" y="1521.0">git tag vX.Y.Z</text><text fill="black" font-family="Arial, sans-serif" font-size="14px" text-anchor="start" x="462.6" y="1539.0">(versiones)</text><text fill="black" font-family="Arial, sans-serif" font-size="14px" text-anchor="start" x="592.6" y="1521.0">git merge feature</text><text fill="black" font-family="Arial, sans-serif" font-size="14px" text-anchor="start" x="592.6" y="1539.0">(no reescribe)</text><text fill="black" font-family="Arial, sans-serif" font-size="14px" text-anchor="start" x="722.6" y="1521.0">git rebase main</text><text fill="black" font-family="Arial, sans-serif" font-size="14px" text-anchor="start" x="722.6" y="1539.0">(reescribe)</text><text fill="black" font-family="Arial, sans-serif" font-size="14px" text-anchor="end" x="227.4" y="2141.0">git push origin &lt;branch&gt;</text><text fill="black" font-family="Arial, sans-serif" font-size="14px" text-anchor="end" x="227.4" y="2159.0">(subir cambios)</text><text fill="black" font-family="Arial, sans-serif" font-size="14px" text-anchor="middle" x="150.0" y="2489.0">git fetch origin</text><text fill="black" font-family="Arial, sans-serif" font-size="14px" text-anchor="middle" x="150.0" y="2507.0">(traer refs, NO mezcla)</text><text fill="black" font-family="Arial, sans-serif" font-size="14px" text-anchor="start" x="332.6" y="2489.0">git pull</text><text fill="black" font-family="Arial, sans-serif" font-size="14px" text-anchor="start" x="332.6" y="2507.0">(fetch + merge/rebase)</text><text fill="black" font-family="Arial, sans-serif" font-size="14px" text-anchor="end" x="227.4" y="2292.0">origin/main</text><text fill="black" font-family="Arial, sans-serif" font-size="14px" text-anchor="end" x="227.4" y="2310.0">origin/feature/*</text><text fill="black" font-family="Arial, sans-serif" font-size="14px" text-anchor="start" x="462.6" y="2443.0">Pull Request / MR</text><text fill="black" font-family="Arial, sans-serif" font-size="14px" text-anchor="start" x="462.6" y="2461.0">(revisión + CI + merge)</text><text fill="black" font-family="Arial, sans-serif" font-size="14px" text-anchor="start" x="862.6" y="1611.0">git reset --soft|mixed|hard</text><text fill="black" font-family="Arial, sans-serif" font-size="14px" text-anchor="start" x="862.6" y="1629.0">(mueve HEAD)</text><text fill="black" font-family="Arial, sans-serif" font-size="14px" text-anchor="start" x="992.6" y="1565.0">git revert &lt;commit&gt;</text><text fill="black" font-family="Arial, sans-serif" font-size="14px" text-anchor="start" x="992.6" y="1583.0">(nuevo commit inverso)</text><text fill="gray" font-family="Arial, sans-serif" font-size="12px" text-anchor="end" x="155.53333333333336" y="630.5">preparar cambios</text><text fill="gray" font-family="Arial, sans-serif" font-size="12px" text-anchor="middle" x="237.5" y="1398.5">confirmar snapshot</text><text fill="gray" font-family="Arial, sans-serif" font-size="12px" text-anchor="end" x="139.7" y="192.5">inspección</text><text fill="gray" font-family="Arial, sans-serif" font-size="12px" text-anchor="start" x="306.3" y="192.5">inspección</text><text fill="gray" font-family="Arial, sans-serif" font-size="12px" text-anchor="end" x="152.2" y="917.5">inspección</text><text fill="gray" font-family="Arial, sans-serif" font-size="12px" text-anchor="middle" x="280.0" y="1599.5">inspección</text><text fill="gray" font-family="Arial, sans-serif" font-size="12px" text-anchor="end" x="250.86666666666667" y="1929.5">publicar a origin</text><text fill="gray" font-family="Arial, sans-serif" font-size="12px" text-anchor="end" x="229.2" y="2216.5">actualiza origin/*</text><text fill="gray" font-family="Arial, sans-serif" font-size="12px" text-anchor="end" x="164.2" y="2367.5">traer refs</text><text fill="gray" font-family="Arial, sans-serif" font-size="12px" text-anchor="start" x="330.8" y="2324.5">traer + mezclar</text><text fill="gray" font-family="Arial, sans-serif" font-size="12px" text-anchor="end" x="229.2" y="2037.5">refs en local</text><text fill="gray" font-family="Arial, sans-serif" font-size="12px" text-anchor="start" x="460.8" y="2005.0">merge/rebase</text><text fill="gray" font-family="Arial, sans-serif" font-size="12px" text-anchor="start" x="395.8" y="2410.5">crear PR</text><text fill="gray" font-family="Arial, sans-serif" font-size="12px" text-anchor="start" x="395.8" y="2324.5">merge a main</text><text fill="gray" font-family="Arial, sans-serif" font-size="12px" text-anchor="end" x="139.7" y="343.5">guardar temporal</text><text fill="gray" font-family="Arial, sans-serif" font-size="12px" text-anchor="start" x="241.3" y="300.5">recuperar</text><text fill="gray" font-family="Arial, sans-serif" font-size="12px" text-anchor="start" x="306.3" y="343.5">descartar local</text><text fill="gray" font-family="Arial, sans-serif" font-size="12px" text-anchor="end" x="152.2" y="1068.5">sacar del stage</text><text fill="gray" font-family="Arial, sans-serif" font-size="12px" text-anchor="middle" x="610.0" y="1598.5">mover HEAD</text><text fill="gray" font-family="Arial, sans-serif" font-size="12px" text-anchor="start" x="725.8" y="1684.5">revertir seguro</text><text fill="black" font-family="Arial, sans-serif" font-size="16px" font-weight="bold" text-anchor="start" x="860.0" y="36.0">Leyenda</text><text fill="black" font-family="Arial, sans-serif" font-size="16px" font-weight="bold" text-anchor="start" x="200.0" y="36.0">Working Directory</text><text fill="black" font-family="Arial, sans-serif" font-size="16px" font-weight="bold" text-anchor="start" x="200.0" y="54.0">(tu carpeta)</text><text fill="black" font-family="Arial, sans-serif" font-size="16px" font-weight="bold" text-anchor="start" x="200.0" y="761.0">Staging Area</text><text fill="black" font-family="Arial, sans-serif" font-size="16px" font-weight="bold" text-anchor="start" x="200.0" y="779.0">(Index)</text><text fill="black" font-family="Arial, sans-serif" font-size="16px" font-weight="bold" text-anchor="start" x="200.0" y="1486.0">Local Repo</text><text fill="black" font-family="Arial, sans-serif" font-size="16px" font-weight="bold" text-anchor="start" x="200.0" y="1504.0">(.git)</text><text fill="black" font-family="Arial, sans-serif" font-size="16px" font-weight="bold" text-anchor="start" x="200.0" y="2060.0">Remote Repo</text><text fill="black" font-family="Arial, sans-serif" font-size="16px" font-weight="bold" text-anchor="start" x="200.0" y="2078.0">(origin)</text><text fill="black" font-family="Arial, sans-serif" font-size="16px" font-weight="bold" text-anchor="start" x="860.0" y="1486.0">Rescate</text></svg>