<?xml version="1.0" encoding="utf-8" ?>
<svg baseProfile="full" height="2640.0" version="1.1" viewBox="0,0,1390.0,2640.0" width="1390.0" xmlns="http://www.w3.org/2000/svg" xmlns:ev="http://www.w3.org/2001/xml-events" xmlns:xlink="http://www.w3.org/1999/xlink"><defs><marker id="arrow-end" markerHeight="10" markerWidth="10" orient="auto" refX="10" refY="5"><path d="M 0 0 L 10 5 L 0 10 z" fill="black" /></marker><marker id="arrow-start" markerHeight="10" markerWidth="10" orient="auto" refX="0" refY="5"><path d="M 10 0 L 0 5 L 10 10 z" fill="black" /></marker><marker id="circle-start" markerHeight="10" markerWidth="10" orient="auto" refX="5" refY="5"><circle cx="5" cy="5" fill="black" r="4" /></marker><marker id="circle-end" markerHeight="10" markerWidth="10" orient="auto" refX="5" refY="5"><circle cx="5" cy="5" fill="black" r="4" /></marker><marker id="arrow-end-c0" markerHeight="10" markerWidth="10" orient="auto" refX="10" refY="5"><path d="M 0 0 L 10 5 L 0 10 z" fill="#c32222" /></marker><marker id="arrow-start-c0" markerHeight="10" markerWidth="10" orient="auto" refX="0" refY="5"><path d="M 10 0 L 0 5 L 10 10 z" fill="#c32222" /></marker><marker id="circle-start-c0" markerHeight="10" markerWidth="10" orient="auto" refX="5" refY="5"><circle cx="5" cy="5" fill="#c32222" r="4" /></marker><marker id="circle-end-c0" markerHeight="10" markerWidth="10" orient="auto" refX="5" refY="5"><circle cx="5" cy="5" fill="#c32222" r="4" /></marker><marker id="arrow-end-c1" markerHeight="10" markerWidth="10" orient="auto" refX="10" refY="5"><path d="M 0 0 L 10 5 L 0 10 z" fill="#c35e22" /></marker><marker id="arrow-start-c1" markerHeight="10" markerWidth="10" orient="auto" refX="0" refY="5"><path d="M 10 0 L 0 5 L 10 10 z" fill="#c35e22" /></marker><marker id="circle-start-c1" markerHeight="10" markerWidth="10" orient="auto" refX="5" refY="5"><circle cx="5" cy="5" fill="#c35e22" r="4" /></marker><marker id="circle-end-c1" markerHeight="10" markerWidth="10" orient="auto" refX="5" refY="5"><circle cx="5" cy="5" fill="#c35e22" r="4" /></marker><marker id="arrow-end-c2" markerHeight="10" markerWidth="10" orient="auto" refX="10" refY="5"><path d="M 0 0 L 10 5 L 0 10 z" fill="#c39a22" /></marker><marker id="arrow-start-c2" markerHeight="10" markerWidth="10" orient="auto" refX="0" refY="5"><path d="M 10 0 L 0 5 L 10 10 z" fill="#c39a22" /></marker><marker id="circle-start-c2" markerHeight="10" markerWidth="10" orient="auto" refX="5" refY="5"><circle cx="5" cy="5" fill="#c39a22" r="4" /></marker><marker id="circle-end-c2" markerHeight="10" markerWidth="10" orient="auto" refX="5" refY="5"><circle cx="5" cy="5" fill="#c39a22" r="4" /></marker><marker id="arrow-end-c3" markerHeight="10" markerWidth="10" orient="auto" refX="10" refY="5"><path d="M 0 0 L 10 5 L 0 10 z" fill="#aec322" /></marker><marker id="arrow-start-c3" markerHeight="10" markerWidth="10" orient="auto" refX="0" refY="5"><path d="M 10 0 L 0 5 L 10 10 z" fill="#aec322" /></marker><marker id="circle-start-c3" markerHeight="10" markerWidth="10" orient="auto" refX="5" refY="5"><circle cx="5" cy="5" fill="#aec322" r="4" /></marker><marker id="circle-end-c3" markerHeight="10" markerWidth="10" orient="auto" refX="5" refY="5"><circle cx="5" cy="5" fill="#aec322" r="4" /></marker><marker id="arrow-end-c4" markerHeight="10" markerWidth="10" orient="auto" refX="10" refY="5"><path d="M 0 0 L 10 5 L 0 10 z" fill="#72c322" /></marker><marker id="arrow-start-c4" markerHeight="10" markerWidth="10" orient="auto" refX="0" refY="5"><path d="M 10 0 L 0 5 L 10 10 z" fill="#72c322" /></marker><marker id="circle-start-c4" markerHeight="10" markerWidth="10" orient="auto" refX="5" refY="5"><circle cx="5" cy="5" fill="#72c322" r="4" /></marker><marker id="circle-end-c4" markerHeight="10" markerWidth="10" orient="auto" refX="5" refY="5"><circle cx="5" cy="5" fill="#72c322" r="4" /></marker><marker id="arrow-end-c5" markerHeight="10" markerWidth="10" orient="auto" refX="10" refY="5"><path d="M 0 0 L 10 5 L 0 10 z" fill="#36c322" /></marker><marker id="arrow-start-c5" markerHeight="10" markerWidth="10" orient="auto" refX="0" refY="5"><path d="M 10 0 L 0 5 L 10 10 z" fill="#36c322" /></marker><marker id="circle-start-c5" markerHeight="10" markerWidth="10" orient="auto" refX="5" refY="5"><circle cx="5" cy="5" fill="#36c322" r="4" /></marker><marker id="circle-end-c5" markerHeight="10" markerWidth="10" orient="auto" refX="5" refY="5"><circle cx="5" cy="5" fill="#36c322" r="4" /></marker><marker id="arrow-end-c6" markerHeight="10" markerWidth="10" orient="auto" refX="10" refY="5"><path d="M 0 0 L 10 5 L 0 10 z" fill="#22c34a" /></marker><marker id="arrow-start-c6" markerHeight="10" markerWidth="10" orient="auto" refX="0" refY="5"><path d="M 10 0 L 0 5 L 10 10 z" fill="#22c34a" /></marker><marker id="circle-start-c6" markerHeight="10" markerWidth="10" orient="auto" refX="5" refY="5"><circle cx="5" cy="5" fill="#22c34a" r="4" /></marker><marker id="circle-end-c6" markerHeight="10" markerWidth="10" orient="auto" refX="5" refY="5"><circle cx="5" cy="5" fill="#22c34a" r="4" /></marker><marker id="arrow-end-c7" markerHeight="10" markerWidth="10" orient="auto" refX="10" refY="5"><path d="M 0 0 L 10 5 L 0 10 z" fill="#22c386" /></marker><marker id="arrow-start-c7" markerHeight="10" markerWidth="10" orient="auto" refX="0" refY="5"><path d="M 10 0 L 0 5 L 10 10 z" fill="#22c386" /></marker><marker id="circle-start-c7" markerHeight="10" markerWidth="10" orient="auto" refX="5" refY="5"><circle cx="5" cy="5" fill="#22c386" r="4" /></marker><marker id="circle-end-c7" markerHeight="10" markerWidth="10" orient="auto" refX="5" refY="5"><circle cx="5" cy="5" fill="#22c386" r="4" /></marker><marker id="arrow-end-c8" markerHeight="10" markerWidth="10" orient="auto" refX="10" refY="5"><path d="M 0 0 L 10 5 L 0 10 z" fill="#22c3c3" /></marker><marker id="arrow-start-c8" markerHeight="10" markerWidth="10" orient="auto" refX="0" refY="5"><path d="M 10 0 L 0 5 L 10 10 z" fill="#22c3c3" /></marker><marker id="circle-start-c8" markerHeight="10" markerWidth="10" orient="auto" refX="5" refY="5"><circle cx="5" cy="5" fill="#22c3c3" r="4" /></marker><marker id="circle-end-c8" markerHeight="10" markerWidth="10" orient="auto" refX="5" refY="5"><circle cx="5" cy="5" fill="#22c3c3" r="4" /></marker><marker id="arrow-end-c9" markerHeight="10" markerWidth="10" orient="auto" refX="10" refY="5"><path d="M 0 0 L 10 5 L 0 10 z" fill="#2286c3" /></marker><marker id="arrow-start-c9" markerHeight="10" markerWidth="10" orient="auto" refX="0" refY="5"><path d="M 10 0 L 0 5 L 10 10 z" fill="#2286c3" /></marker><marker id="circle-start-c9" markerHeight="10" markerWidth="10" orient="auto" refX="5" refY="5"><circle cx="5" cy="5" fill="#2286c3" r="4" /></marker><marker id="circle-end-c9" markerHeight="10" markerWidth="10" orient="auto" refX="5" refY="5"><circle cx="5" cy="5" fill="#2286c3" r="4" /></marker><marker id="arrow-end-c10" markerHeight="10" markerWidth="10" orient="auto" refX="10" refY="5"><path d="M 0 0 L 10 5 L 0 10 z" fill="#224ac3" /></marker><marker id="arrow-start-c10" markerHeight="10" markerWidth="10" orient="auto" refX="0" refY="5"><path d="M 10 0 L 0 5 L 10 10 z" fill="#224ac3" /></marker><marker id="circle-start-c10" markerHeight="10" markerWidth="10" orient="auto" refX="5" refY="5"><circle cx="5" cy="5" fill="#224ac3" r="4" /></marker><marker id="circle-end-c10" markerHeight="10" markerWidth="10" orient="auto" refX="5" refY="5"><circle cx="5" cy="5" fill="#224ac3" r="4" /></marker><marker id="arrow-end-c11" markerHeight="10" markerWidth="10" orient="auto" refX="10" refY="5"><path d="M 0 0 L 10 5 L 0 10 z" fill="#3622c3" /></marker><marker id="arrow-start-c11" markerHeight="10" markerWidth="10" orient="auto" refX="0" refY="5"><path d="M 10 0 L 0 5 L 10 10 z" fill="#3622c3" /></marker><marker id="circle-start-c11" markerHeight="10" markerWidth="10" orient="auto" refX="5" refY="5"><circle cx="5" cy="5" fill="#3622c3" r="4" /></marker><marker id="circle-end-c11" markerHeight="10" markerWidth="10" orient="auto" refX="5" refY="5"><circle cx="5" cy="5" fill="#3622c3" r="4" /></marker><marker id="arrow-end-c12" markerHeight="10" markerWidth="10" orient="auto" refX="10" refY="5"><path d="M 0 0 L 10 5 L 0 10 z" fill="#7222c3" /></marker><marker id="arrow-start-c12" markerHeight="10" markerWidth="10" orient="auto" refX="0" refY="5"><path d="M 10 0 L 0 5 L 10 10 z" fill="#7222c3" /></marker><marker id="circle-start-c12" markerHeight="10" markerWidth="10" orient="auto" refX="5" refY="5"><circle cx="5" cy="5" fill="#7222c3" r="4" /></marker><marker id="circle-end-c12" markerHeight="10" markerWidth="10" orient="auto" refX="5" refY="5"><circle cx="5" cy="5" fill="#7222c3" r="4" /></marker><marker id="arrow-end-c13" markerHeight="10" markerWidth="10" orient="auto" refX="10" refY="5"><path d="M 0 0 L 10 5 L 0 10 z" fill="#ae22c3" /></marker><marker id="arrow-start-c13" markerHeight="10" markerWidth="10" orient="auto" refX="0" refY="5"><path d="M 10 0 L 0 5 L 10 10 z" fill="#ae22c3" /></marker><marker id="circle-start-c13" markerHeight="10" markerWidth="10" orient="auto" refX="5" refY="5"><circle cx="5" cy="5" fill="#ae22c3" r="4" /></marker><marker id="circle-end-c13" markerHeight="10" markerWidth="10" orient="auto" refX="5" refY="5"><circle cx="5" cy="5" fill="#ae22c3" r="4" /></marker><marker id="arrow-end-c14" markerHeight="10" markerWidth="10" orient="auto" refX="10" refY="5"><path d="M 0 0 L 10 5 L 0 10 z" fill="#c3229a" /></marker><marker id="arrow-start-c14" markerHeight="10" markerWidth="10" orient="auto" refX="0" refY="5"><path d="M 10 0 L 0 5 L 10 10 z" fill="#c3229a" /></marker><marker id="circle-start-c14" markerHeight="10" markerWidth="10" orient="auto" refX="5" refY="5"><circle cx="5" cy="5" fill="#c3229a" r="4" /></marker><marker id="circle-end-c14" markerHeight="10" markerWidth="10" orient="auto" refX="5" refY="5"><circle cx="5" cy="5" fill="#c3229a" r="4" /></marker><marker id="arrow-end-c15" markerHeight="10" markerWidth="10" orient="auto" refX="10" refY="5"><path d="M 0 0 L 10 5 L 0 10 z" fill="#c3225e" /></marker><marker id="arrow-start-c15" markerHeight="10" markerWidth="10" orient="auto" refX="0" refY="5"><path d="M 10 0 L 0 5 L 10 10 z" fill="#c3225e" /></marker><marker id="circle-start-c15" markerHeight="10" markerWidth="10" orient="auto" refX="5" refY="5"><circle cx="5" cy="5" fill="#c3225e" r="4" /></marker><marker id="circle-end-c15" markerHeight="10" markerWidth="10" orient="auto" refX="5" refY="5"><circle cx="5" cy="5" fill="#c3225e" r="4" /></marker><linearGradient id="gradient-phase0" x1="0%" x2="0%" y1="0%" y2="100%"><stop offset="0%" stop-color="#ffe34c" /><stop offset="100%" stop-color="#b29600" /></linearGradient><linearGradient id="gradient-positioner" x1="0%" x2="0%" y1="0%" y2="100%"><stop offset="0%" stop-color="#a6a6a6" /><stop offset="100%" stop-color="#595959" /></linearGradient><linearGradient id="gradient-container-calc" x1="0%" x2="0%" y1="0%" y2="100%"><stop offset="0%" stop-color="#a6a6a6" /><stop offset="100%" stop-color="#595959" /></linearGradient><linearGradient id="gradient-router" x1="0%" x2="0%" y1="0%" y2="100%"><stop offset="0%" stop-color="#a6a6a6" /><stop offset="100%" stop-color="#595959" /></linearGradient><linearGradient id="gradient-phase1" x1="0%" x2="0%" y1="0%" y2="100%"><stop offset="0%" stop-color="#ffc04c" /><stop offset="100%" stop-color="#b27300" /></linearGradient><linearGradient id="gradient-phase2" x1="0%" x2="0%" y1="0%" y2="100%"><stop offset="0%" stop-color="#4cffff" /><stop offset="100%" stop-color="#00b2b2" /></linearGradient><linearGradient id="gradient-label-optimizer" x1="0%" x2="0%" y1="0%" y2="100%"><stop offset="0%" stop-color="#a6a6a6" /><stop offset="100%" stop-color="#595959" /></linearGradient><linearGradient id="gradient-phase3" x1="0%" x2="0%" y1="0%" y2="100%"><stop offset="0%" stop-color="#ff917e" /><stop offset="100%" stop-color="#b24531" /></linearGradient><linearGradient id="gradient-collision-detector" x1="0%" x2="0%" y1="0%" y2="100%"><stop offset="0%" stop-color="#a6a6a6" /><stop offset="100%" stop-color="#595959" /></linearGradient><linearGradient id="gradient-iterative" x1="0%" x2="0%" y1="0%" y2="100%"><stop offset="0%" stop-color="#a6a6a6" /><stop offset="100%" stop-color="#595959" /></linearGradient><linearGradient id="gradient-validation" x1="0%" x2="0%" y1="0%" y2="100%"><stop offset="0%" stop-color="#a6a6a6" /><stop offset="100%" stop-color="#595959" /></linearGradient></defs><path d="m 33.382966,8e-4 c -3.861042,1.2762 -4.631646,6.37476 -8.713738,7.58064 -4.763632,3.80168 -7.027208,10.1432 -6.16644,16.12572 0.33152,3.88876 1.751504,7.57356 3.294256,11.12272 C 14.743804,40.50868 7.020292,45.29236 0,51.01416 c 0.0088,1.60388 2.571968,3.52192 3.1231,4.06796 3.251976,-1.413 1.180916,4.0242 4.391336,2.93684 0.547784,2.65168 4.059744,2.41792 4.424732,5.1808 3.474884,1.40976 5.871092,-3.60896 9.041844,-4.63968 4.692352,-3.27 9.331832,-6.6164 14.073835,-9.8148 4.49228,1.24988 8.3626,4.127 12.98444,5.03568 7.80432,2.36256 16.43632,1.5656 23.73004,-2.02148 4.6368,-2.28272 0.2696,-7.48384 -3.512,-7.30124 -7.07976,-1.44424 -14.26972,-3.36556 -20.32528,-7.46088 8.56576,-5.7508 17.58792,-10.81572 25.892,-16.95564 1.39956,-2.93964 -3.96644,-4.45148 -4.29872,-6.52308 -2.5844,0.91256 -2.66588,-1.5376 -2.34908,-2.97408 -1.63932,-1.19972 -3.72724,-3.25572 -4.68312,-4.18028 -8.53084,4.92348 -16.4076,10.8902 -24.95356,15.789 -2.407,-3.7232 -1.01408,-8.56452 -2.01052,-12.73416 -0.858401,-2.87864 1.40132,-7.4902 -0.910321,-9.33832 L 33.968326,0.0488 33.382806,0 Z m -0.1872,0.8914 c 0.3068,3.05576 -2.295922,6.0048 -0.538122,9.15572 0.675682,5.46024 0.604682,10.97176 0.699762,16.46244 -3.362242,1.81824 -6.593462,6.28168 -10.531522,5.58328 C 20.298644,29.42576 20.202072,25.23552 19.71614,21.7482 19.5367,15.91892 22.46468,9.9152 27.693068,7.11652 29.982004,5.45768 31.379684,2.92084 33.195766,0.8922 Z m 29.594001,6.4392 c 1.46792,2.53452 4.402,4.60776 3.57992,7.65776 1.61956,-0.52456 3.84108,-1.75012 3.77228,0.86636 2.411,1.43844 4.43252,4.9366 0.3672,5.68956 -7.52336,4.96068 -15.18952,9.69916 -22.79632,14.52964 -0.9216,-1.074 -5.60524,-6.12564 -3.166,-2.69128 3.265,2.94944 2.28268,7.38576 -1.67776,9.05112 -3.09804,2.1632 -7.06632,6.08608 -10.816643,3.16052 2.840322,1.60192 1.262722,4.59268 -1.56468,5.2684 -5.79348,4.02824 -11.478884,8.34496 -17.461448,12.1556 C 11.925032,61.34676 11.677424,58.83888 9.39482,59.16524 9.42802,57.0466 7.921908,56.51992 6.429668,56.32936 6.050108,54.97788 5.144404,52.72108 3.569348,54.4524 1.890272,53.17044 -0.134324,50.23212 3.121808,49.49748 9.527956,44.95864 15.784572,40.20916 22.281804,35.79912 c 1.534164,0.80484 3.739236,5.00052 4.030108,4.09568 -2.475856,-2.3784 -3.285572,-6.73764 0.843508,-7.77088 3.400024,-1.60856 6.755106,-5.66968 9.963827,-6.033 1.6652,1.04096 2.7588,5.7114 3.72452,5.18316 -0.2484,-2.83948 -5.46992,-6.43472 -1.878,-8.59836 7.42756,-5.4882 15.29672,-10.35556 23.22328,-15.07924 l 0.60088,-0.2652 z m -16.048,32.9764 c 7.33188,4.47516 15.82704,7.10848 24.43088,7.2878 2.95896,3.62772 -4.24068,5.12244 -6.89324,5.56544 -9.07796,1.72076 -18.81696,-0.2268 -26.63288,-5.07956 0.0952,-2.88528 5.25168,-3.33004 6.8208,-5.91508 0.75888,-0.61864 1.51188,-1.24448 2.27444,-1.8586 z" fill="black" stroke="black" stroke-width="0.5" transform="translate(580.0,20.0) scale(0.8333333333333334)" /><path d="m 12.420856,61.7005 c -0.901752,-1.95184 -1.520106,-2.59004 -2.509542,-2.59004 -0.365876,0 -0.39353,-0.037 -0.533738,-0.71228 -0.19222,-0.92592 -0.840804,-1.60888 -1.797812,-1.89308 -0.36702,-0.109 -0.757776,-0.1982 -0.86834,-0.1982 -0.1321,0 -0.303468,-0.28568 -0.499872,-0.83334 -0.358934,-1.0008 -0.976662,-1.71534 -1.482938,-1.71534 -0.19372,0 -0.550036,0.1222 -0.791824,0.27168 l -0.4396,0.2717 -0.61976,-0.61044 c -0.727678,-0.71674 -1.398376,-1.9033 -1.398376,-2.47392 0,-0.80186 0.371614,-1.2 1.531726,-1.64108 0.1745,-0.0664 2.639484,-1.80054 5.477732,-3.85378 12.105662,-8.75746 13.688092,-9.85432 13.983802,-9.69278 0.355472,0.1942 1.06138,0.98676 2.240946,2.51616 0.938626,1.217 1.295252,1.57706 1.562068,1.57706 0.16176,0 -0.0126,-0.32846 -0.554546,-1.0446 -2.204708,-2.9133 -1.7517,-5.69618 1.104954,-6.78776 1.095332,-0.41854 2.42461,-1.28368 5.173694,-3.3672 2.315476,-1.7549 3.870317,-2.61038 4.762757,-2.6205 0.53806,-0.006 0.6015,0.031 1.04036,0.60804 0.25704,0.338 0.85698,1.37022 1.33322,2.2938 0.96186,1.86546 1.14344,2.12528 1.48518,2.12528 0.54976,0 0.1164,-1.19058 -1.15096,-3.16142 -1.63672,-2.54542 -1.955,-3.5232 -1.44932,-4.45228 0.32188,-0.59136 4.23894,-3.42046 9.84424,-7.11004 5.27242,-3.47044 14.4363,-9.10636 14.80676,-9.10636 0.1042,0 0.25006,0.129 0.32408,0.28672 0.074,0.1578 0.57552,0.85238 1.1145,1.54372 1.89948,2.43646 2.44942,3.61534 2.31176,4.9554 -0.0832,0.81006 -0.0558,0.83294 0.64476,0.54018 1.94884,-0.81428 2.97162,-0.57646 2.97162,0.69098 0,0.27488 0.1192,0.4416 0.50902,0.71172 1.23736,0.8575 2.16708,2.28378 2.16708,3.32452 0,0.51574 -0.0626,0.65518 -0.48138,1.07408 -0.30412,0.30412 -0.7181,0.55168 -1.12416,0.67226 -0.37332,0.1108 -1.62728,0.82974 -2.99118,1.7148 -4.2357,2.7486 -19.17252,12.22338 -20.21678,12.824 -0.0972,0.0558 -0.87376,-0.63746 -2.08196,-1.8591 -1.18482,-1.198 -1.952,-1.8845 -1.99216,-1.78266 -0.08,0.20298 0.3841,0.91584 1.0952,1.68216 0.29266,0.3154 0.7448,1.00056 1.00474,1.5226 0.43504,0.87366 0.47262,1.03632 0.47262,2.04554 0,1.01058 -0.0374,1.17228 -0.47904,2.06568 -0.5417,1.0961 -1.39922,1.97108 -2.524,2.57548 -0.3809,0.20466 -1.2373,0.77474 -1.90316,1.26686 -3.18876,2.3567 -4.84414,3.16532 -6.507001,3.17856 -0.84492,0.006 -1.07256,-0.0456 -1.84778,-0.424 -1.208232,-0.58988 -1.212306,-0.59022 -0.580702,-0.0464 1.227322,1.05656 1.193242,2.48996 -0.08668,3.6439 -0.548778,0.49478 -1.415764,0.99314 -1.72773,0.99314 -0.10064,0 -2.325074,1.52716 -4.943136,3.3937 -8.074734,5.75688 -12.392204,8.7125 -12.726914,8.7125 -0.0779,0 -0.371548,-0.4975 -0.652472,-1.10556 z" fill="#ffff00" fill-rule="evenodd" stroke="#cbcbcb" stroke-width="0.0611682" transform="translate(580.0,20.0) scale(0.8333333333333334)" /><path d="m 22.489342,31.52582 c -0.64424,-0.73374 -1.395572,-2.34156 -1.757046,-3.75998 -0.432412,-1.69676 -0.8834,-5.1668 -0.882142,-6.78748 0.0042,-5.56444 2.985634,-10.93886 7.526286,-13.56762 1.005766,-0.58228 2.355818,-1.97466 4.135702,-4.2654 0.827626,-1.06518 1.543744,-1.93668 1.591384,-1.93668 0.1706,0 -0.1064,1.60026 -0.622596,3.59622 -0.598096,2.31274 -0.619242,3.40994 -0.09546,4.95432 0.18338,0.54074 0.362066,1.66158 0.466026,2.92328 0.1655,2.00848 0.43005,9.39754 0.43967,12.27946 l 0.006,1.4634 -1.13276,0.76812 c -0.62302,0.42246 -1.92204,1.3953 -2.886722,2.16188 -2.277544,1.80984 -3.762946,2.56562 -5.227054,2.65958 l -1.07041,0.0686 z" fill="#bfbfbf" fill-rule="evenodd" stroke="#cbcbcb" stroke-width="0.0701582" transform="translate(580.0,20.0) scale(0.8333333333333334)" /><path d="m 54.635847,53.58508 c -5.4849,-0.52902 -10.7308,-2.11586 -15.27404,-4.62028 -0.7235,-0.39882 -1.38848,-0.78378 -1.47772,-0.85548 -0.59134,-0.47502 0.83618,-2.0722 2.72012,-3.04342 1.85938,-0.95856 3.01272,-1.72266 3.55318,-2.35406 0.26648,-0.31134 0.96346,-0.95642 1.54882,-1.4335 l 1.0643,-0.86746 1.09542,0.64762 c 4.8739,2.88154 11.32624,5.16618 17.03906,6.03318 1.66192,0.25222 5.11384,0.59682 5.97832,0.59682 0.39332,0 0.85242,0.8396 0.85306,1.56004 0.002,1.97942 -3.89552,3.5343 -10.74242,4.28586 -1.21644,0.1336 -5.17222,0.165 -6.3581,0.0508 z" fill="#bfbfbf" fill-rule="evenodd" stroke="#cbcbcb" stroke-width="0.0701582" transform="translate(580.0,20.0) scale(0.8333333333333334)" /><g id="phase0"><g transform="translate(590.0,320.0) scale(1.2048192771084338,0.6928406466512702) translate(-0.9,-1.4)"><path d="M 22.754087,32.116749 0.94545599,43.000013 V 4.7289739 L 22.754087,1.5702876 Z" fill="#e9e9ff" stroke="none" /><path d="M 50.712576,33.120864 V 1.4628125 L 22.754087,1.5702876 V 32.116749 Z" fill="#353564" stroke="none" /><path d="M 50.712576,33.120864 35.295871,44.770537 0.94545599,43.000013 22.754087,32.116749 Z" fill="#4d4d9f" stroke="none" /><path d="M 50.712576,1.4628125 35.295871,4.7384198 0.94545599,4.7289739 22.754087,1.5702876 Z" fill="#1c1ce6" opacity="1" stroke="none" /><path d="M 35.295871,44.770537 V 4.7384198 L 0.94545599,4.7289739 V 43.000013 Z" fill="#1a52ff" opacity="0.96" stroke="none" /><path d="M 50.712576,33.120864 35.295871,44.770537 V 4.7384198 L 50.712576,1.4628125 Z" fill="#1c9bd0" stroke="none" /><rect fill="none" height="43.3" opacity="0.67" stroke="#cbcbcb" stroke-width="0.48" width="49.8" x="0.9" y="1.4" /></g></g><rect fill="url(#gradient-positioner)" height="50" stroke="black" width="80" x="580.0" y="600.0" /><rect fill="url(#gradient-container-calc)" height="50" stroke="black" width="80" x="1060.0" y="600.0" /><rect fill="url(#gradient-router)" height="50" stroke="black" width="80" x="100.0" y="600.0" /><g id="phase1"><g transform="translate(590.0,900.0) scale(1.2048192771084338,0.6928406466512702) translate(-0.9,-1.4)"><path d="M 22.754087,32.116749 0.94545599,43.000013 V 4.7289739 L 22.754087,1.5702876 Z" fill="#e9e9ff" stroke="none" /><path d="M 50.712576,33.120864 V 1.4628125 L 22.754087,1.5702876 V 32.116749 Z" fill="#353564" stroke="none" /><path d="M 50.712576,33.120864 35.295871,44.770537 0.94545599,43.000013 22.754087,32.116749 Z" fill="#4d4d9f" stroke="none" /><path d="M 50.712576,1.4628125 35.295871,4.7384198 0.94545599,4.7289739 22.754087,1.5702876 Z" fill="#1c1ce6" opacity="1" stroke="none" /><path d="M 35.295871,44.770537 V 4.7384198 L 0.94545599,4.7289739 V 43.000013 Z" fill="#1a52ff" opacity="0.96" stroke="none" /><path d="M 50.712576,33.120864 35.295871,44.770537 V 4.7384198 L 50.712576,1.4628125 Z" fill="#1c9bd0" stroke="none" /><rect fill="none" height="43.3" opacity="0.67" stroke="#cbcbcb" stroke-width="0.48" width="49.8" x="0.9" y="1.4" /></g></g><g id="phase2"><g transform="translate(590.0,1190.0) scale(1.2048192771084338,0.6928406466512702) translate(-0.9,-1.4)"><path d="M 22.754087,32.116749 0.94545599,43.000013 V 4.7289739 L 22.754087,1.5702876 Z" fill="#e9e9ff" stroke="none" /><path d="M 50.712576,33.120864 V 1.4628125 L 22.754087,1.5702876 V 32.116749 Z" fill="#353564" stroke="none" /><path d="M 50.712576,33.120864 35.295871,44.770537 0.94545599,43.000013 22.754087,32.116749 Z" fill="#4d4d9f" stroke="none" /><path d="M 50.712576,1.4628125 35.295871,4.7384198 0.94545599,4.7289739 22.754087,1.5702876 Z" fill="#1c1ce6" opacity="1" stroke="none" /><path d="M 35.295871,44.770537 V 4.7384198 L 0.94545599,4.7289739 V 43.000013 Z" fill="#1a52ff" opacity="0.96" stroke="none" /><path d="M 50.712576,33.120864 35.295871,44.770537 V 4.7384198 L 50.712576,1.4628125 Z" fill="#1c9bd0" stroke="none" /><rect fill="none" height="43.3" opacity="0.67" stroke="#cbcbcb" stroke-width="0.48" width="49.8" x="0.9" y="1.4" /></g></g><rect fill="url(#gradient-label-optimizer)" height="50" stroke="black" width="80" x="580.0" y="1470.0" /><g id="phase3"><g transform="translate(590.0,1770.0) scale(1.2048192771084338,0.6928406466512702) translate(-0.9,-1.4)"><path d="M 22.754087,32.116749 0.94545599,43.000013 V 4.7289739 L 22.754087,1.5702876 Z" fill="#e9e9ff" stroke="none" /><path d="M 50.712576,33.120864 V 1.4628125 L 22.754087,1.5702876 V 32.116749 Z" fill="#353564" stroke="none" /><path d="M 50.712576,33.120864 35.295871,44.770537 0.94545599,43.000013 22.754087,32.116749 Z" fill="#4d4d9f" stroke="none" /><path d="M 50.712576,1.4628125 35.295871,4.7384198 0.94545599,4.7289739 22.754087,1.5702876 Z" fill="#1c1ce6" opacity="1" stroke="none" /><path d="M 35.295871,44.770537 V 4.7384198 L 0.94545599,4.7289739 V 43.000013 Z" fill="#1a52ff" opacity="0.96" stroke="none" /><path d="M 50.712576,33.120864 35.295871,44.770537 V 4.7384198 L 50.712576,1.4628125 Z" fill="#1c9bd0" stroke="none" /><rect fill="none" height="43.3" opacity="0.67" stroke="#cbcbcb" stroke-width="0.48" width="49.8" x="0.9" y="1.4" /></g></g><rect fill="url(#gradient-collision-detector)" height="50" stroke="black" width="80" x="100.0" y="2050.0" /><ellipse cx="620.0" cy="2365.0" fill="url(#gradient-iterative)" rx="40.0" ry="25.0" stroke="black" /><rect fill="url(#gradient-validation)" height="50" stroke="black" width="80" x="580.0" y="2050.0" /><path d="m 33.382966,8e-4 c -3.861042,1.2762 -4.631646,6.37476 -8.713738,7.58064 -4.763632,3.80168 -7.027208,10.1432 -6.16644,16.12572 0.33152,3.88876 1.751504,7.57356 3.294256,11.12272 C 14.743804,40.50868 7.020292,45.29236 0,51.01416 c 0.0088,1.60388 2.571968,3.52192 3.1231,4.06796 3.251976,-1.413 1.180916,4.0242 4.391336,2.93684 0.547784,2.65168 4.059744,2.41792 4.424732,5.1808 3.474884,1.40976 5.871092,-3.60896 9.041844,-4.63968 4.692352,-3.27 9.331832,-6.6164 14.073835,-9.8148 4.49228,1.24988 8.3626,4.127 12.98444,5.03568 7.80432,2.36256 16.43632,1.5656 23.73004,-2.02148 4.6368,-2.28272 0.2696,-7.48384 -3.512,-7.30124 -7.07976,-1.44424 -14.26972,-3.36556 -20.32528,-7.46088 8.56576,-5.7508 17.58792,-10.81572 25.892,-16.95564 1.39956,-2.93964 -3.96644,-4.45148 -4.29872,-6.52308 -2.5844,0.91256 -2.66588,-1.5376 -2.34908,-2.97408 -1.63932,-1.19972 -3.72724,-3.25572 -4.68312,-4.18028 -8.53084,4.92348 -16.4076,10.8902 -24.95356,15.789 -2.407,-3.7232 -1.01408,-8.56452 -2.01052,-12.73416 -0.858401,-2.87864 1.40132,-7.4902 -0.910321,-9.33832 L 33.968326,0.0488 33.382806,0 Z m -0.1872,0.8914 c 0.3068,3.05576 -2.295922,6.0048 -0.538122,9.15572 0.675682,5.46024 0.604682,10.97176 0.699762,16.46244 -3.362242,1.81824 -6.593462,6.28168 -10.531522,5.58328 C 20.298644,29.42576 20.202072,25.23552 19.71614,21.7482 19.5367,15.91892 22.46468,9.9152 27.693068,7.11652 29.982004,5.45768 31.379684,2.92084 33.195766,0.8922 Z m 29.594001,6.4392 c 1.46792,2.53452 4.402,4.60776 3.57992,7.65776 1.61956,-0.52456 3.84108,-1.75012 3.77228,0.86636 2.411,1.43844 4.43252,4.9366 0.3672,5.68956 -7.52336,4.96068 -15.18952,9.69916 -22.79632,14.52964 -0.9216,-1.074 -5.60524,-6.12564 -3.166,-2.69128 3.265,2.94944 2.28268,7.38576 -1.67776,9.05112 -3.09804,2.1632 -7.06632,6.08608 -10.816643,3.16052 2.840322,1.60192 1.262722,4.59268 -1.56468,5.2684 -5.79348,4.02824 -11.478884,8.34496 -17.461448,12.1556 C 11.925032,61.34676 11.677424,58.83888 9.39482,59.16524 9.42802,57.0466 7.921908,56.51992 6.429668,56.32936 6.050108,54.97788 5.144404,52.72108 3.569348,54.4524 1.890272,53.17044 -0.134324,50.23212 3.121808,49.49748 9.527956,44.95864 15.784572,40.20916 22.281804,35.79912 c 1.534164,0.80484 3.739236,5.00052 4.030108,4.09568 -2.475856,-2.3784 -3.285572,-6.73764 0.843508,-7.77088 3.400024,-1.60856 6.755106,-5.66968 9.963827,-6.033 1.6652,1.04096 2.7588,5.7114 3.72452,5.18316 -0.2484,-2.83948 -5.46992,-6.43472 -1.878,-8.59836 7.42756,-5.4882 15.29672,-10.35556 23.22328,-15.07924 l 0.60088,-0.2652 z m -16.048,32.9764 c 7.33188,4.47516 15.82704,7.10848 24.43088,7.2878 2.95896,3.62772 -4.24068,5.12244 -6.89324,5.56544 -9.07796,1.72076 -18.81696,-0.2268 -26.63288,-5.07956 0.0952,-2.88528 5.25168,-3.33004 6.8208,-5.91508 0.75888,-0.61864 1.51188,-1.24448 2.27444,-1.8586 z" fill="black" stroke="black" stroke-width="0.5" transform="translate(1060.0,2050.0) scale(0.8333333333333334)" /><path d="m 12.420856,61.7005 c -0.901752,-1.95184 -1.520106,-2.59004 -2.509542,-2.59004 -0.365876,0 -0.39353,-0.037 -0.533738,-0.71228 -0.19222,-0.92592 -0.840804,-1.60888 -1.797812,-1.89308 -0.36702,-0.109 -0.757776,-0.1982 -0.86834,-0.1982 -0.1321,0 -0.303468,-0.28568 -0.499872,-0.83334 -0.358934,-1.0008 -0.976662,-1.71534 -1.482938,-1.71534 -0.19372,0 -0.550036,0.1222 -0.791824,0.27168 l -0.4396,0.2717 -0.61976,-0.61044 c -0.727678,-0.71674 -1.398376,-1.9033 -1.398376,-2.47392 0,-0.80186 0.371614,-1.2 1.531726,-1.64108 0.1745,-0.0664 2.639484,-1.80054 5.477732,-3.85378 12.105662,-8.75746 13.688092,-9.85432 13.983802,-9.69278 0.355472,0.1942 1.06138,0.98676 2.240946,2.51616 0.938626,1.217 1.295252,1.57706 1.562068,1.57706 0.16176,0 -0.0126,-0.32846 -0.554546,-1.0446 -2.204708,-2.9133 -1.7517,-5.69618 1.104954,-6.78776 1.095332,-0.41854 2.42461,-1.28368 5.173694,-3.3672 2.315476,-1.7549 3.870317,-2.61038 4.762757,-2.6205 0.53806,-0.006 0.6015,0.031 1.04036,0.60804 0.25704,0.338 0.85698,1.37022 1.33322,2.2938 0.96186,1.86546 1.14344,2.12528 1.48518,2.12528 0.54976,0 0.1164,-1.19058 -1.15096,-3.16142 -1.63672,-2.54542 -1.955,-3.5232 -1.44932,-4.45228 0.32188,-0.59136 4.23894,-3.42046 9.84424,-7.11004 5.27242,-3.47044 14.4363,-9.10636 14.80676,-9.10636 0.1042,0 0.25006,0.129 0.32408,0.28672 0.074,0.1578 0.57552,0.85238 1.1145,1.54372 1.89948,2.43646 2.44942,3.61534 2.31176,4.9554 -0.0832,0.81006 -0.0558,0.83294 0.64476,0.54018 1.94884,-0.81428 2.97162,-0.57646 2.97162,0.69098 0,0.27488 0.1192,0.4416 0.50902,0.71172 1.23736,0.8575 2.16708,2.28378 2.16708,3.32452 0,0.51574 -0.0626,0.65518 -0.48138,1.07408 -0.30412,0.30412 -0.7181,0.55168 -1.12416,0.67226 -0.37332,0.1108 -1.62728,0.82974 -2.99118,1.7148 -4.2357,2.7486 -19.17252,12.22338 -20.21678,12.824 -0.0972,0.0558 -0.87376,-0.63746 -2.08196,-1.8591 -1.18482,-1.198 -1.952,-1.8845 -1.99216,-1.78266 -0.08,0.20298 0.3841,0.91584 1.0952,1.68216 0.29266,0.3154 0.7448,1.00056 1.00474,1.5226 0.43504,0.87366 0.47262,1.03632 0.47262,2.04554 0,1.01058 -0.0374,1.17228 -0.47904,2.06568 -0.5417,1.0961 -1.39922,1.97108 -2.524,2.57548 -0.3809,0.20466 -1.2373,0.77474 -1.90316,1.26686 -3.18876,2.3567 -4.84414,3.16532 -6.507001,3.17856 -0.84492,0.006 -1.07256,-0.0456 -1.84778,-0.424 -1.208232,-0.58988 -1.212306,-0.59022 -0.580702,-0.0464 1.227322,1.05656 1.193242,2.48996 -0.08668,3.6439 -0.548778,0.49478 -1.415764,0.99314 -1.72773,0.99314 -0.10064,0 -2.325074,1.52716 -4.943136,3.3937 -8.074734,5.75688 -12.392204,8.7125 -12.726914,8.7125 -0.0779,0 -0.371548,-0.4975 -0.652472,-1.10556 z" fill="#ffff00" fill-rule="evenodd" stroke="#cbcbcb" stroke-width="0.0611682" transform="translate(1060.0,2050.0) scale(0.8333333333333334)" /><path d="m 22.489342,31.52582 c -0.64424,-0.73374 -1.395572,-2.34156 -1.757046,-3.75998 -0.432412,-1.69676 -0.8834,-5.1668 -0.882142,-6.78748 0.0042,-5.56444 2.985634,-10.93886 7.526286,-13.56762 1.005766,-0.58228 2.355818,-1.97466 4.135702,-4.2654 0.827626,-1.06518 1.543744,-1.93668 1.591384,-1.93668 0.1706,0 -0.1064,1.60026 -0.622596,3.59622 -0.598096,2.31274 -0.619242,3.40994 -0.09546,4.95432 0.18338,0.54074 0.362066,1.66158 0.466026,2.92328 0.1655,2.00848 0.43005,9.39754 0.43967,12.27946 l 0.006,1.4634 -1.13276,0.76812 c -0.62302,0.42246 -1.92204,1.3953 -2.886722,2.16188 -2.277544,1.80984 -3.762946,2.56562 -5.227054,2.65958 l -1.07041,0.0686 z" fill="#bfbfbf" fill-rule="evenodd" stroke="#cbcbcb" stroke-width="0.0701582" transform="translate(1060.0,2050.0) scale(0.8333333333333334)" /><path d="m 54.635847,53.58508 c -5.4849,-0.52902 -10.7308,-2.11586 -15.27404,-4.62028 -0.7235,-0.39882 -1.38848,-0.78378 -1.47772,-0.85548 -0.59134,-0.47502 0.83618,-2.0722 2.72012,-3.04342 1.85938,-0.95856 3.01272,-1.72266 3.55318,-2.35406 0.26648,-0.31134 0.96346,-0.95642 1.54882,-1.4335 l 1.0643,-0.86746 1.09542,0.64762 c 4.8739,2.88154 11.32624,5.16618 17.03906,6.03318 1.66192,0.25222 5.11384,0.59682 5.97832,0.59682 0.39332,0 0.85242,0.8396 0.85306,1.56004 0.002,1.97942 -3.89552,3.5343 -10.74242,4.28586 -1.21644,0.1336 -5.17222,0.165 -6.3581,0.0508 z" fill="#bfbfbf" fill-rule="evenodd" stroke="#cbcbcb" stroke-width="0.0701582" transform="translate(1060.0,2050.0) scale(0.8333333333333334)" /><line marker-end="url(#arrow-end-c0)" marker-start="url(#circle-start-c0)" stroke="#c32222" stroke-width="2" x1="620.0" x2="620.0" y1="77.0" y2="303.0" /><line marker-end="url(#arrow-end-c1)" marker-start="url(#circle-start-c1)" stroke="#c35e22" stroke-width="2" x1="620.0" x2="620.0" y1="367.0" y2="593.0" /><line marker-end="url(#arrow-end-c2)" marker-start="url(#circle-start-c2)" stroke="#c39a22" stroke-width="2" x1="647.3892973422653" x2="1072.6107026577347" y1="351.5477004776186" y2="608.4522995223814" /><line marker-end="url(#arrow-end-c3)" marker-start="url(#circle-start-c3)" stroke="#aec322" stroke-width="2" x1="592.6107026577347" x2="167.3892973422653" y1="351.5477004776186" y2="608.4522995223814" /><line marker-end="url(#arrow-end-c4)" marker-start="url(#circle-start-c4)" stroke="#72c322" stroke-width="2" x1="620.0" x2="620.0" y1="657.0" y2="883.0" /><line marker-end="url(#arrow-end-c5)" marker-start="url(#circle-start-c5)" stroke="#36c322" stroke-width="2" x1="1072.6107026577347" x2="647.3892973422653" y1="641.5477004776186" y2="898.4522995223814" /><line marker-end="url(#arrow-end-c6)" marker-start="url(#circle-start-c6)" stroke="#22c34a" stroke-width="2" x1="167.3892973422653" x2="592.6107026577347" y1="641.5477004776186" y2="898.4522995223814" /><line marker-end="url(#arrow-end-c7)" marker-start="url(#circle-start-c7)" stroke="#22c386" stroke-width="2" x1="620.0" x2="620.0" y1="947.0" y2="1173.0" /><line marker-end="url(#arrow-end-c8)" marker-start="url(#circle-start-c8)" stroke="#22c3c3" stroke-width="2" x1="620.0" x2="620.0" y1="1237.0" y2="1463.0" /><line marker-end="url(#arrow-end-c9)" marker-start="url(#circle-start-c9)" stroke="#2286c3" stroke-width="2" x1="620.0" x2="620.0" y1="1527.0" y2="1753.0" /><line marker-end="url(#arrow-end-c10)" marker-start="url(#circle-start-c10)" stroke="#224ac3" stroke-width="2" x1="592.6107026577347" x2="167.3892973422653" y1="1801.5477004776187" y2="2058.4522995223815" /><line marker-end="url(#arrow-end-c11)" marker-start="url(#circle-start-c11)" stroke="#3622c3" stroke-width="2" x1="167.3892973422653" x2="585.7633783221684" y1="2091.5477004776185" y2="2344.315374402977" /><line marker-end="url(#circle-end-c12)" marker-start="url(#arrow-start-c12)" stroke="#7222c3" stroke-width="2" x1="620.0" x2="620.0" y1="2325.0" y2="1817.0" /><line marker-end="url(#arrow-end-c13)" marker-start="url(#circle-start-c13)" stroke="#ae22c3" stroke-width="2" x1="620.0" x2="620.0" y1="1817.0" y2="2043.0" /><line marker-end="url(#circle-end-c14)" marker-start="url(#arrow-start-c14)" stroke="#c3229a" stroke-width="2" x1="620.0" x2="620.0" y1="2043.0" y2="367.0" /><line marker-end="url(#arrow-end-c15)" marker-start="url(#circle-start-c15)" stroke="#c3225e" stroke-width="2" x1="652.0" x2="1068.0" y1="2075.0" y2="2075.0" /><text fill="black" font-family="Arial, sans-serif" font-size="14px" text-anchor="start" x="672.6" y="45.0">Layout</text><text fill="black" font-family="Arial, sans-serif" font-size="14px" text-anchor="start" x="672.6" y="63.0">(Input)</text><text fill="black" font-family="Arial, sans-serif" font-size="14px" text-anchor="start" x="672.6" y="289.0">Fase 0: Preparación</text><text fill="black" font-family="Arial, sans-serif" font-size="14px" text-anchor="start" x="672.6" y="307.0">- Calcular posiciones faltantes</text><text fill="black" font-family="Arial, sans-serif" font-size="14px" text-anchor="start" x="672.6" y="325.0">- Calcular dimensiones contenedores</text><text fill="black" font-family="Arial, sans-serif" font-size="14px" text-anchor="start" x="672.6" y="343.0">- Calcular rutas de conexiones</text><text fill="black" font-family="Arial, sans-serif" font-size="14px" text-anchor="start" x="672.6" y="579.0">AutoLayoutPositioner v4.0</text><text fill="black" font-family="Arial, sans-serif" font-size="14px" text-anchor="start" x="672.6" y="597.0">1. Resolver contenedores</text><text fill="black" font-family="Arial, sans-serif" font-size="14px" text-anchor="start" x="672.6" y="615.0">2. Topología + centralidad + resolución</text><text fill="black" font-family="Arial, sans-serif" font-size="14px" text-anchor="start" x="672.6" y="633.0">3. Barycenter + Position Opt.</text><text fill="black" font-family="Arial, sans-serif" font-size="14px" text-anchor="start" x="672.6" y="651.0">4. Escala X global</text><text fill="black" font-family="Arial, sans-serif" font-size="14px" text-anchor="middle" x="1100.0" y="671.0">ContainerCalculator</text><text fill="black" font-family="Arial, sans-serif" font-size="14px" text-anchor="middle" x="1100.0" y="689.0">- Calcular bounds</text><text fill="black" font-family="Arial, sans-serif" font-size="14px" text-anchor="middle" x="1100.0" y="707.0">- Considerar íconos + etiquetas</text><text fill="black" font-family="Arial, sans-serif" font-size="14px" text-anchor="middle" x="1100.0" y="725.0">- Aplicar padding</text><text fill="black" font-family="Arial, sans-serif" font-size="14px" text-anchor="middle" x="140.0" y="671.0">RouterManager</text><text fill="black" font-family="Arial, sans-serif" font-size="14px" text-anchor="middle" x="140.0" y="689.0">- Calcular paths</text><text fill="black" font-family="Arial, sans-serif" font-size="14px" text-anchor="middle" x="140.0" y="707.0">- Intersección con bordes</text><text fill="black" font-family="Arial, sans-serif" font-size="14px" text-anchor="middle" x="140.0" y="725.0">- Extensión para markers</text><text fill="black" font-family="Arial, sans-serif" font-size="14px" text-anchor="start" x="672.6" y="915.0">Fase 1: Análisis</text><text fill="black" font-family="Arial, sans-serif" font-size="14px" text-anchor="start" x="672.6" y="933.0">- Niveles topológicos (longest-path)</text><text fill="black" font-family="Arial, sans-serif" font-size="14px" text-anchor="start" x="672.6" y="951.0">- Centralidad (degree-based)</text><text fill="black" font-family="Arial, sans-serif" font-size="14px" text-anchor="start" x="672.6" y="969.0">- Resolución conexiones a primarios</text><text fill="black" font-family="Arial, sans-serif" font-size="14px" text-anchor="start" x="672.6" y="987.0">- Grupos conectados</text><text fill="black" font-family="Arial, sans-serif" font-size="14px" text-anchor="start" x="672.6" y="1205.0">Fase 2: Optimización Etiquetas</text><text fill="black" font-family="Arial, sans-serif" font-size="14px" text-anchor="start" x="672.6" y="1223.0">- Generar posiciones candidatas</text><text fill="black" font-family="Arial, sans-serif" font-size="14px" text-anchor="start" x="672.6" y="1241.0">- Evaluar colisiones</text><text fill="black" font-family="Arial, sans-serif" font-size="14px" text-anchor="start" x="672.6" y="1259.0">- Minimizar densidad local</text><text fill="black" font-family="Arial, sans-serif" font-size="14px" text-anchor="start" x="672.6" y="1495.0">LabelPositionOptimizer</text><text fill="black" font-family="Arial, sans-serif" font-size="14px" text-anchor="start" x="672.6" y="1513.0">- Score basado en colisiones</text><text fill="black" font-family="Arial, sans-serif" font-size="14px" text-anchor="start" x="672.6" y="1531.0">- Penalización por densidad</text><text fill="black" font-family="Arial, sans-serif" font-size="14px" text-anchor="start" x="672.6" y="1549.0">- Preferencias por categoría</text><text fill="black" font-family="Arial, sans-serif" font-size="14px" text-anchor="start" x="672.6" y="1785.0">Fase 3: Resolución Colisiones</text><text fill="black" font-family="Arial, sans-serif" font-size="14px" text-anchor="start" x="672.6" y="1803.0">- Detectar solapamientos</text><text fill="black" font-family="Arial, sans-serif" font-size="14px" text-anchor="start" x="672.6" y="1821.0">- Calcular fuerzas de repulsión</text><text fill="black" font-family="Arial, sans-serif" font-size="14px" text-anchor="start" x="672.6" y="1839.0">- Aplicar desplazamientos</text><text fill="black" font-family="Arial, sans-serif" font-size="14px" text-anchor="start" x="672.6" y="1857.0">- Recalcular routing</text><text fill="black" font-family="Arial, sans-serif" font-size="14px" text-anchor="middle" x="140.0" y="2121.0">CollisionDetector</text><text fill="black" font-family="Arial, sans-serif" font-size="14px" text-anchor="middle" x="140.0" y="2139.0">- Detectar overlaps</text><text fill="black" font-family="Arial, sans-serif" font-size="14px" text-anchor="middle" x="140.0" y="2157.0">- Calcular vectores</text><text fill="black" font-family="Arial, sans-serif" font-size="14px" text-anchor="middle" x="140.0" y="2175.0">- Peso por tamaño (hp/wp)</text><text fill="black" font-family="Arial, sans-serif" font-size="14px" text-anchor="middle" x="620.0" y="2411.0">Iteración</text><text fill="black" font-family="Arial, sans-serif" font-size="14px" text-anchor="middle" x="620.0" y="2429.0">Hasta 100 iteraciones</text><text fill="black" font-family="Arial, sans-serif" font-size="14px" text-anchor="middle" x="620.0" y="2447.0">o convergencia</text><text fill="black" font-family="Arial, sans-serif" font-size="14px" text-anchor="start" x="672.6" y="2121.0">Validación</text><text fill="black" font-family="Arial, sans-serif" font-size="14px" text-anchor="start" x="672.6" y="2139.0">- Verificar canvas bounds</text><text fill="black" font-family="Arial, sans-serif" font-size="14px" text-anchor="start" x="672.6" y="2157.0">- Expandir si necesario</text><text fill="black" font-family="Arial, sans-serif" font-size="14px" text-anchor="start" x="672.6" y="2175.0">- Recalcular estructuras</text><text fill="black" font-family="Arial, sans-serif" font-size="14px" text-anchor="middle" x="1100.0" y="2121.0">Layout</text><text fill="black" font-family="Arial, sans-serif" font-size="14px" text-anchor="middle" x="1100.0" y="2139.0">(Optimizado)</text><text fill="gray" font-family="Arial, sans-serif" font-size="12px" text-anchor="end" x="569.2" y="190.0">1</text><text fill="gray" font-family="Arial, sans-serif" font-size="12px" text-anchor="end" x="569.2" y="480.0">calc pos</text><text fill="gray" font-family="Arial, sans-serif" font-size="12px" text-anchor="middle" x="860.0" y="437.0">calc dims</text><text fill="gray" font-family="Arial, sans-serif" font-size="12px" text-anchor="middle" x="380.0" y="437.0">calc paths</text><text fill="gray" font-family="Arial, sans-serif" font-size="12px" text-anchor="end" x="569.2" y="1060.0">2</text><text fill="gray" font-family="Arial, sans-serif" font-size="12px" text-anchor="end" x="569.2" y="1350.0">optimize</text><text fill="gray" font-family="Arial, sans-serif" font-size="12px" text-anchor="middle" x="380.0" y="1887.0">detect</text><text fill="gray" font-family="Arial, sans-serif" font-size="12px" text-anchor="middle" x="376.57633783221684" y="2174.9315374402977">resolve</text><text fill="gray" font-family="Arial, sans-serif" font-size="12px" text-anchor="end" x="569.2" y="2071.0">repeat</text><text fill="gray" font-family="Arial, sans-serif" font-size="12px" text-anchor="end" x="569.2" y="1930.0">validate</text><text fill="gray" font-family="Arial, sans-serif" font-size="12px" text-anchor="end" x="569.2" y="1205.0">recalc if expanded</text><text fill="gray" font-family="Arial, sans-serif" font-size="12px" text-anchor="middle" x="860.0" y="2032.0">done</text></svg>