<?xml version="1.0" encoding="utf-8" ?>
<svg baseProfile="full" height="1670" version="1.1" viewBox="0,0,1800,1670" width="1800" xmlns="http://www.w3.org/2000/svg" xmlns:ev="http://www.w3.org/2001/xml-events" xmlns:xlink="http://www.w3.org/1999/xlink"><defs><filter height="140%" id="text-glow" width="140%" x="-20%" y="-20%"><feGaussianBlur in="SourceGraphic" result="blur" stdDeviation="2" /><feFlood flood-color="white" flood-opacity="1" result="color" /><feComposite in="color" in2="blur" operator="in" result="shadow" /><feMerge><feMergeNode in="shadow" /><feMergeNode in="shadow" /><feMergeNode in="SourceGraphic" /></feMerge></filter><marker id="arrow-end" markerHeight="10" markerWidth="10" orient="auto" refX="10" refY="5"><path d="M 0 0 L 10 5 L 0 10 z" fill="black" /></marker><marker id="arrow-start" markerHeight="10" markerWidth="10" orient="auto" refX="0" refY="5"><path d="M 10 0 L 0 5 L 10 10 z" fill="black" /></marker><marker id="circle-start" markerHeight="10" markerWidth="10" orient="auto" refX="5" refY="5"><circle cx="5" cy="5" fill="black" r="4" /></marker><marker id="circle-end" markerHeight="10" markerWidth="10" orient="auto" refX="5" refY="5"><circle cx="5" cy="5" fill="black" r="4" /></marker><linearGradient id="gradient-input" x1="0%" x2="0%" y1="0%" y2="100%"><stop offset="0%" stop-color="#c5e3ed" /><stop offset="100%" stop-color="#7997a1" /></linearGradient><linearGradient id="gradient-phase0" x1="0%" x2="0%" y1="0%" y2="100%"><stop offset="0%" stop-color="#ffe34c" /><stop offset="100%" stop-color="#b29600" /></linearGradient><linearGradient id="gradient-positioner" x1="0%" x2="0%" y1="0%" y2="100%"><stop offset="0%" stop-color="#ffffe9" /><stop offset="100%" stop-color="#b2b29c" /></linearGradient><linearGradient id="gradient-container-calc" x1="0%" x2="0%" y1="0%" y2="100%"><stop offset="0%" stop-color="#ffffe9" /><stop offset="100%" stop-color="#b2b29c" /></linearGradient><linearGradient id="gradient-router" x1="0%" x2="0%" y1="0%" y2="100%"><stop offset="0%" stop-color="#ffffe9" /><stop offset="100%" stop-color="#b2b29c" /></linearGradient><linearGradient id="gradient-phase1" x1="0%" x2="0%" y1="0%" y2="100%"><stop offset="0%" stop-color="#ffc04c" /><stop offset="100%" stop-color="#b27300" /></linearGradient><linearGradient id="gradient-phase2" x1="0%" x2="0%" y1="0%" y2="100%"><stop offset="0%" stop-color="#4cffff" /><stop offset="100%" stop-color="#00b2b2" /></linearGradient><linearGradient id="gradient-label-optimizer" x1="0%" x2="0%" y1="0%" y2="100%"><stop offset="0%" stop-color="#a6a6a6" /><stop offset="100%" stop-color="#595959" /></linearGradient><linearGradient id="gradient-phase3" x1="0%" x2="0%" y1="0%" y2="100%"><stop offset="0%" stop-color="#ff917e" /><stop offset="100%" stop-color="#b24531" /></linearGradient><linearGradient id="gradient-collision-detector" x1="0%" x2="0%" y1="0%" y2="100%"><stop offset="0%" stop-color="#a6a6a6" /><stop offset="100%" stop-color="#595959" /></linearGradient><linearGradient id="gradient-iterative" x1="0%" x2="0%" y1="0%" y2="100%"><stop offset="0%" stop-color="#a6a6a6" /><stop offset="100%" stop-color="#595959" /></linearGradient><linearGradient id="gradient-validation" x1="0%" x2="0%" y1="0%" y2="100%"><stop offset="0%" stop-color="#a6a6a6" /><stop offset="100%" stop-color="#595959" /></linearGradient><linearGradient id="gradient-output" x1="0%" x2="0%" y1="0%" y2="100%"><stop offset="0%" stop-color="#b1f3b1" /><stop offset="100%" stop-color="#64a664" /></linearGradient></defs><g id="input"><rect fill="url(#gradient-input)" height="30.0" stroke="none" width="67.2" x="327.1688658909035" y="30.0" /><line stroke="black" stroke-width="1.2" x1="327.1688658909035" x2="327.1688658909035" y1="30.0" y2="60.0" /><line stroke="black" stroke-width="1.2" x1="394.3688658909035" x2="394.3688658909035" y1="30.0" y2="60.0" /><ellipse cx="360.7688658909035" cy="60.0" fill="url(#gradient-input)" rx="33.6" ry="8" stroke="black" stroke-width="1.2" /><ellipse cx="360.7688658909035" cy="30.0" fill="#c5e3ed" rx="33.6" ry="8" stroke="black" stroke-width="1.2" /><ellipse cx="360.7688658909035" cy="40.0" fill="none" rx="33.6" ry="4.8" stroke="#67818a" stroke-width="0.6" /><ellipse cx="360.7688658909035" cy="50.0" fill="none" rx="33.6" ry="4.8" stroke="#67818a" stroke-width="0.6" /></g><g id="phase0"><rect fill="url(#gradient-phase0)" height="46" rx="2" ry="2" stroke="black" stroke-width="1.2" width="64" x="328.7688658909018" y="314.0" /><polygon fill="#7f6b00" points="324.7688658909018,314.0 360.7688658909018,304.0 396.7688658909018,314.0" stroke="black" stroke-width="1.0" /><rect fill="#ffeb7f" height="7" stroke="#7f6b00" stroke-width="0.7" width="10" x="335.7688658909018" y="320.0" /><line stroke="#7f6b00" stroke-width="0.5" x1="340.7688658909018" x2="340.7688658909018" y1="320.0" y2="327.0" /><line stroke="#7f6b00" stroke-width="0.5" x1="335.7688658909018" x2="345.7688658909018" y1="323.5" y2="323.5" /><rect fill="#ffeb7f" height="7" stroke="#7f6b00" stroke-width="0.7" width="10" x="355.7688658909018" y="320.0" /><line stroke="#7f6b00" stroke-width="0.5" x1="360.7688658909018" x2="360.7688658909018" y1="320.0" y2="327.0" /><line stroke="#7f6b00" stroke-width="0.5" x1="355.7688658909018" x2="365.7688658909018" y1="323.5" y2="323.5" /><rect fill="#ffeb7f" height="7" stroke="#7f6b00" stroke-width="0.7" width="10" x="375.7688658909018" y="320.0" /><line stroke="#7f6b00" stroke-width="0.5" x1="380.7688658909018" x2="380.7688658909018" y1="320.0" y2="327.0" /><line stroke="#7f6b00" stroke-width="0.5" x1="375.7688658909018" x2="385.7688658909018" y1="323.5" y2="323.5" /><rect fill="#ffeb7f" height="7" stroke="#7f6b00" stroke-width="0.7" width="10" x="335.7688658909018" y="334.0" /><line stroke="#7f6b00" stroke-width="0.5" x1="340.7688658909018" x2="340.7688658909018" y1="334.0" y2="341.0" /><line stroke="#7f6b00" stroke-width="0.5" x1="335.7688658909018" x2="345.7688658909018" y1="337.5" y2="337.5" /><rect fill="#ffeb7f" height="7" stroke="#7f6b00" stroke-width="0.7" width="10" x="355.7688658909018" y="334.0" /><line stroke="#7f6b00" stroke-width="0.5" x1="360.7688658909018" x2="360.7688658909018" y1="334.0" y2="341.0" /><line stroke="#7f6b00" stroke-width="0.5" x1="355.7688658909018" x2="365.7688658909018" y1="337.5" y2="337.5" /><rect fill="#ffeb7f" height="7" stroke="#7f6b00" stroke-width="0.7" width="10" x="375.7688658909018" y="334.0" /><line stroke="#7f6b00" stroke-width="0.5" x1="380.7688658909018" x2="380.7688658909018" y1="334.0" y2="341.0" /><line stroke="#7f6b00" stroke-width="0.5" x1="375.7688658909018" x2="385.7688658909018" y1="337.5" y2="337.5" /><rect fill="#7f6b00" height="12" stroke="black" stroke-width="0.8" width="10" x="355.7688658909018" y="348.0" /><circle cx="363.2688658909018" cy="354.0" fill="#ffeb7f" r="1.2" /></g><g id="positioner"><rect fill="url(#gradient-positioner)" height="50" rx="4" ry="4" stroke="black" stroke-width="1.2" width="80" x="220.0" y="600.0" /><line stroke="#999986" stroke-width="0.8" x1="222.0" x2="298.0" y1="616.6666666666666" y2="616.6666666666666" /><line stroke="#999986" stroke-width="0.8" x1="222.0" x2="298.0" y1="633.3333333333334" y2="633.3333333333334" /><circle cx="288.0" cy="608.3333333333334" fill="#00cc44" r="2.5" stroke="#999986" stroke-width="0.5" /><circle cx="280.0" cy="608.3333333333334" fill="#ffaa00" r="2.5" stroke="#999986" stroke-width="0.5" /><circle cx="288.0" cy="625.0" fill="#00cc44" r="2.5" stroke="#999986" stroke-width="0.5" /><circle cx="280.0" cy="625.0" fill="#ffaa00" r="2.5" stroke="#999986" stroke-width="0.5" /><circle cx="288.0" cy="641.6666666666667" fill="#00cc44" r="2.5" stroke="#999986" stroke-width="0.5" /><circle cx="280.0" cy="641.6666666666667" fill="#ffaa00" r="2.5" stroke="#999986" stroke-width="0.5" /><line stroke="#999986" stroke-width="0.6" x1="226.0" x2="238.0" y1="605.0" y2="605.0" /><line stroke="#999986" stroke-width="0.6" x1="226.0" x2="238.0" y1="608.3333333333334" y2="608.3333333333334" /><line stroke="#999986" stroke-width="0.6" x1="226.0" x2="238.0" y1="611.6666666666666" y2="611.6666666666666" /><line stroke="#999986" stroke-width="0.6" x1="226.0" x2="238.0" y1="621.6666666666666" y2="621.6666666666666" /><line stroke="#999986" stroke-width="0.6" x1="226.0" x2="238.0" y1="625.0" y2="625.0" /><line stroke="#999986" stroke-width="0.6" x1="226.0" x2="238.0" y1="628.3333333333333" y2="628.3333333333333" /><line stroke="#999986" stroke-width="0.6" x1="226.0" x2="238.0" y1="638.3333333333334" y2="638.3333333333334" /><line stroke="#999986" stroke-width="0.6" x1="226.0" x2="238.0" y1="641.6666666666667" y2="641.6666666666667" /><line stroke="#999986" stroke-width="0.6" x1="226.0" x2="238.0" y1="645.0" y2="645.0" /></g><g id="container-calc"><rect fill="url(#gradient-container-calc)" height="50" rx="4" ry="4" stroke="black" stroke-width="1.2" width="80" x="340.0" y="600.0" /><line stroke="#999986" stroke-width="0.8" x1="342.0" x2="418.0" y1="616.6666666666666" y2="616.6666666666666" /><line stroke="#999986" stroke-width="0.8" x1="342.0" x2="418.0" y1="633.3333333333334" y2="633.3333333333334" /><circle cx="408.0" cy="608.3333333333334" fill="#00cc44" r="2.5" stroke="#999986" stroke-width="0.5" /><circle cx="400.0" cy="608.3333333333334" fill="#ffaa00" r="2.5" stroke="#999986" stroke-width="0.5" /><circle cx="408.0" cy="625.0" fill="#00cc44" r="2.5" stroke="#999986" stroke-width="0.5" /><circle cx="400.0" cy="625.0" fill="#ffaa00" r="2.5" stroke="#999986" stroke-width="0.5" /><circle cx="408.0" cy="641.6666666666667" fill="#00cc44" r="2.5" stroke="#999986" stroke-width="0.5" /><circle cx="400.0" cy="641.6666666666667" fill="#ffaa00" r="2.5" stroke="#999986" stroke-width="0.5" /><line stroke="#999986" stroke-width="0.6" x1="346.0" x2="358.0" y1="605.0" y2="605.0" /><line stroke="#999986" stroke-width="0.6" x1="346.0" x2="358.0" y1="608.3333333333334" y2="608.3333333333334" /><line stroke="#999986" stroke-width="0.6" x1="346.0" x2="358.0" y1="611.6666666666666" y2="611.6666666666666" /><line stroke="#999986" stroke-width="0.6" x1="346.0" x2="358.0" y1="621.6666666666666" y2="621.6666666666666" /><line stroke="#999986" stroke-width="0.6" x1="346.0" x2="358.0" y1="625.0" y2="625.0" /><line stroke="#999986" stroke-width="0.6" x1="346.0" x2="358.0" y1="628.3333333333333" y2="628.3333333333333" /><line stroke="#999986" stroke-width="0.6" x1="346.0" x2="358.0" y1="638.3333333333334" y2="638.3333333333334" /><line stroke="#999986" stroke-width="0.6" x1="346.0" x2="358.0" y1="641.6666666666667" y2="641.6666666666667" /><line stroke="#999986" stroke-width="0.6" x1="346.0" x2="358.0" y1="645.0" y2="645.0" /></g><g id="router"><rect fill="url(#gradient-router)" height="50" rx="4" ry="4" stroke="black" stroke-width="1.2" width="80" x="460.0" y="600.0" /><line stroke="#999986" stroke-width="0.8" x1="462.0" x2="538.0" y1="616.6666666666666" y2="616.6666666666666" /><line stroke="#999986" stroke-width="0.8" x1="462.0" x2="538.0" y1="633.3333333333334" y2="633.3333333333334" /><circle cx="528.0" cy="608.3333333333334" fill="#00cc44" r="2.5" stroke="#999986" stroke-width="0.5" /><circle cx="520.0" cy="608.3333333333334" fill="#ffaa00" r="2.5" stroke="#999986" stroke-width="0.5" /><circle cx="528.0" cy="625.0" fill="#00cc44" r="2.5" stroke="#999986" stroke-width="0.5" /><circle cx="520.0" cy="625.0" fill="#ffaa00" r="2.5" stroke="#999986" stroke-width="0.5" /><circle cx="528.0" cy="641.6666666666667" fill="#00cc44" r="2.5" stroke="#999986" stroke-width="0.5" /><circle cx="520.0" cy="641.6666666666667" fill="#ffaa00" r="2.5" stroke="#999986" stroke-width="0.5" /><line stroke="#999986" stroke-width="0.6" x1="466.0" x2="478.0" y1="605.0" y2="605.0" /><line stroke="#999986" stroke-width="0.6" x1="466.0" x2="478.0" y1="608.3333333333334" y2="608.3333333333334" /><line stroke="#999986" stroke-width="0.6" x1="466.0" x2="478.0" y1="611.6666666666666" y2="611.6666666666666" /><line stroke="#999986" stroke-width="0.6" x1="466.0" x2="478.0" y1="621.6666666666666" y2="621.6666666666666" /><line stroke="#999986" stroke-width="0.6" x1="466.0" x2="478.0" y1="625.0" y2="625.0" /><line stroke="#999986" stroke-width="0.6" x1="466.0" x2="478.0" y1="628.3333333333333" y2="628.3333333333333" /><line stroke="#999986" stroke-width="0.6" x1="466.0" x2="478.0" y1="638.3333333333334" y2="638.3333333333334" /><line stroke="#999986" stroke-width="0.6" x1="466.0" x2="478.0" y1="641.6666666666667" y2="641.6666666666667" /><line stroke="#999986" stroke-width="0.6" x1="466.0" x2="478.0" y1="645.0" y2="645.0" /></g><g id="phase1"><rect fill="url(#gradient-phase1)" height="46" rx="2" ry="2" stroke="black" stroke-width="1.2" width="64" x="279.44391517170277" y="894.0" /><polygon fill="#7f5200" points="275.44391517170277,894.0 311.44391517170277,884.0 347.44391517170277,894.0" stroke="black" stroke-width="1.0" /><rect fill="#ffd27f" height="7" stroke="#7f5200" stroke-width="0.7" width="10" x="286.44391517170277" y="900.0" /><line stroke="#7f5200" stroke-width="0.5" x1="291.44391517170277" x2="291.44391517170277" y1="900.0" y2="907.0" /><line stroke="#7f5200" stroke-width="0.5" x1="286.44391517170277" x2="296.44391517170277" y1="903.5" y2="903.5" /><rect fill="#ffd27f" height="7" stroke="#7f5200" stroke-width="0.7" width="10" x="306.44391517170277" y="900.0" /><line stroke="#7f5200" stroke-width="0.5" x1="311.44391517170277" x2="311.44391517170277" y1="900.0" y2="907.0" /><line stroke="#7f5200" stroke-width="0.5" x1="306.44391517170277" x2="316.44391517170277" y1="903.5" y2="903.5" /><rect fill="#ffd27f" height="7" stroke="#7f5200" stroke-width="0.7" width="10" x="326.44391517170277" y="900.0" /><line stroke="#7f5200" stroke-width="0.5" x1="331.44391517170277" x2="331.44391517170277" y1="900.0" y2="907.0" /><line stroke="#7f5200" stroke-width="0.5" x1="326.44391517170277" x2="336.44391517170277" y1="903.5" y2="903.5" /><rect fill="#ffd27f" height="7" stroke="#7f5200" stroke-width="0.7" width="10" x="286.44391517170277" y="914.0" /><line stroke="#7f5200" stroke-width="0.5" x1="291.44391517170277" x2="291.44391517170277" y1="914.0" y2="921.0" /><line stroke="#7f5200" stroke-width="0.5" x1="286.44391517170277" x2="296.44391517170277" y1="917.5" y2="917.5" /><rect fill="#ffd27f" height="7" stroke="#7f5200" stroke-width="0.7" width="10" x="306.44391517170277" y="914.0" /><line stroke="#7f5200" stroke-width="0.5" x1="311.44391517170277" x2="311.44391517170277" y1="914.0" y2="921.0" /><line stroke="#7f5200" stroke-width="0.5" x1="306.44391517170277" x2="316.44391517170277" y1="917.5" y2="917.5" /><rect fill="#ffd27f" height="7" stroke="#7f5200" stroke-width="0.7" width="10" x="326.44391517170277" y="914.0" /><line stroke="#7f5200" stroke-width="0.5" x1="331.44391517170277" x2="331.44391517170277" y1="914.0" y2="921.0" /><line stroke="#7f5200" stroke-width="0.5" x1="326.44391517170277" x2="336.44391517170277" y1="917.5" y2="917.5" /><rect fill="#7f5200" height="12" stroke="black" stroke-width="0.8" width="10" x="306.44391517170277" y="928.0" /><circle cx="313.94391517170277" cy="934.0" fill="#ffd27f" r="1.2" /></g><g id="phase2"><rect fill="url(#gradient-phase2)" height="46" rx="2" ry="2" stroke="black" stroke-width="1.2" width="64" x="108.0" y="604.0" /><polygon fill="#007f7f" points="104.0,604.0 140.0,594.0 176.0,604.0" stroke="black" stroke-width="1.0" /><rect fill="#7fffff" height="7" stroke="#007f7f" stroke-width="0.7" width="10" x="115.0" y="610.0" /><line stroke="#007f7f" stroke-width="0.5" x1="120.0" x2="120.0" y1="610.0" y2="617.0" /><line stroke="#007f7f" stroke-width="0.5" x1="115.0" x2="125.0" y1="613.5" y2="613.5" /><rect fill="#7fffff" height="7" stroke="#007f7f" stroke-width="0.7" width="10" x="135.0" y="610.0" /><line stroke="#007f7f" stroke-width="0.5" x1="140.0" x2="140.0" y1="610.0" y2="617.0" /><line stroke="#007f7f" stroke-width="0.5" x1="135.0" x2="145.0" y1="613.5" y2="613.5" /><rect fill="#7fffff" height="7" stroke="#007f7f" stroke-width="0.7" width="10" x="155.0" y="610.0" /><line stroke="#007f7f" stroke-width="0.5" x1="160.0" x2="160.0" y1="610.0" y2="617.0" /><line stroke="#007f7f" stroke-width="0.5" x1="155.0" x2="165.0" y1="613.5" y2="613.5" /><rect fill="#7fffff" height="7" stroke="#007f7f" stroke-width="0.7" width="10" x="115.0" y="624.0" /><line stroke="#007f7f" stroke-width="0.5" x1="120.0" x2="120.0" y1="624.0" y2="631.0" /><line stroke="#007f7f" stroke-width="0.5" x1="115.0" x2="125.0" y1="627.5" y2="627.5" /><rect fill="#7fffff" height="7" stroke="#007f7f" stroke-width="0.7" width="10" x="135.0" y="624.0" /><line stroke="#007f7f" stroke-width="0.5" x1="140.0" x2="140.0" y1="624.0" y2="631.0" /><line stroke="#007f7f" stroke-width="0.5" x1="135.0" x2="145.0" y1="627.5" y2="627.5" /><rect fill="#7fffff" height="7" stroke="#007f7f" stroke-width="0.7" width="10" x="155.0" y="624.0" /><line stroke="#007f7f" stroke-width="0.5" x1="160.0" x2="160.0" y1="624.0" y2="631.0" /><line stroke="#007f7f" stroke-width="0.5" x1="155.0" x2="165.0" y1="627.5" y2="627.5" /><rect fill="#007f7f" height="12" stroke="black" stroke-width="0.8" width="10" x="135.0" y="638.0" /><circle cx="142.5" cy="644.0" fill="#7fffff" r="1.2" /></g><g id="label-optimizer"><rect fill="url(#gradient-label-optimizer)" height="50" rx="4" ry="4" stroke="black" stroke-width="1.2" width="80" x="151.44391517170277" y="890.0" /><line stroke="#4c4c4c" stroke-width="0.8" x1="153.44391517170277" x2="229.44391517170277" y1="906.6666666666666" y2="906.6666666666666" /><line stroke="#4c4c4c" stroke-width="0.8" x1="153.44391517170277" x2="229.44391517170277" y1="923.3333333333334" y2="923.3333333333334" /><circle cx="219.44391517170277" cy="898.3333333333334" fill="#00cc44" r="2.5" stroke="#4c4c4c" stroke-width="0.5" /><circle cx="211.44391517170277" cy="898.3333333333334" fill="#ffaa00" r="2.5" stroke="#4c4c4c" stroke-width="0.5" /><circle cx="219.44391517170277" cy="915.0" fill="#00cc44" r="2.5" stroke="#4c4c4c" stroke-width="0.5" /><circle cx="211.44391517170277" cy="915.0" fill="#ffaa00" r="2.5" stroke="#4c4c4c" stroke-width="0.5" /><circle cx="219.44391517170277" cy="931.6666666666667" fill="#00cc44" r="2.5" stroke="#4c4c4c" stroke-width="0.5" /><circle cx="211.44391517170277" cy="931.6666666666667" fill="#ffaa00" r="2.5" stroke="#4c4c4c" stroke-width="0.5" /><line stroke="#4c4c4c" stroke-width="0.6" x1="157.44391517170277" x2="169.44391517170277" y1="895.0" y2="895.0" /><line stroke="#4c4c4c" stroke-width="0.6" x1="157.44391517170277" x2="169.44391517170277" y1="898.3333333333334" y2="898.3333333333334" /><line stroke="#4c4c4c" stroke-width="0.6" x1="157.44391517170277" x2="169.44391517170277" y1="901.6666666666666" y2="901.6666666666666" /><line stroke="#4c4c4c" stroke-width="0.6" x1="157.44391517170277" x2="169.44391517170277" y1="911.6666666666666" y2="911.6666666666666" /><line stroke="#4c4c4c" stroke-width="0.6" x1="157.44391517170277" x2="169.44391517170277" y1="915.0" y2="915.0" /><line stroke="#4c4c4c" stroke-width="0.6" x1="157.44391517170277" x2="169.44391517170277" y1="918.3333333333333" y2="918.3333333333333" /><line stroke="#4c4c4c" stroke-width="0.6" x1="157.44391517170277" x2="169.44391517170277" y1="928.3333333333334" y2="928.3333333333334" /><line stroke="#4c4c4c" stroke-width="0.6" x1="157.44391517170277" x2="169.44391517170277" y1="931.6666666666667" y2="931.6666666666667" /><line stroke="#4c4c4c" stroke-width="0.6" x1="157.44391517170277" x2="169.44391517170277" y1="935.0" y2="935.0" /></g><g id="phase3"><rect fill="url(#gradient-phase3)" height="46" rx="2" ry="2" stroke="black" stroke-width="1.2" width="64" x="193.5922395531337" y="1184.0" /><polygon fill="#7f3123" points="189.5922395531337,1184.0 225.5922395531337,1174.0 261.5922395531337,1184.0" stroke="black" stroke-width="1.0" /><rect fill="#ffb1a3" height="7" stroke="#7f3123" stroke-width="0.7" width="10" x="200.5922395531337" y="1190.0" /><line stroke="#7f3123" stroke-width="0.5" x1="205.5922395531337" x2="205.5922395531337" y1="1190.0" y2="1197.0" /><line stroke="#7f3123" stroke-width="0.5" x1="200.5922395531337" x2="210.5922395531337" y1="1193.5" y2="1193.5" /><rect fill="#ffb1a3" height="7" stroke="#7f3123" stroke-width="0.7" width="10" x="220.5922395531337" y="1190.0" /><line stroke="#7f3123" stroke-width="0.5" x1="225.5922395531337" x2="225.5922395531337" y1="1190.0" y2="1197.0" /><line stroke="#7f3123" stroke-width="0.5" x1="220.5922395531337" x2="230.5922395531337" y1="1193.5" y2="1193.5" /><rect fill="#ffb1a3" height="7" stroke="#7f3123" stroke-width="0.7" width="10" x="240.5922395531337" y="1190.0" /><line stroke="#7f3123" stroke-width="0.5" x1="245.5922395531337" x2="245.5922395531337" y1="1190.0" y2="1197.0" /><line stroke="#7f3123" stroke-width="0.5" x1="240.5922395531337" x2="250.5922395531337" y1="1193.5" y2="1193.5" /><rect fill="#ffb1a3" height="7" stroke="#7f3123" stroke-width="0.7" width="10" x="200.5922395531337" y="1204.0" /><line stroke="#7f3123" stroke-width="0.5" x1="205.5922395531337" x2="205.5922395531337" y1="1204.0" y2="1211.0" /><line stroke="#7f3123" stroke-width="0.5" x1="200.5922395531337" x2="210.5922395531337" y1="1207.5" y2="1207.5" /><rect fill="#ffb1a3" height="7" stroke="#7f3123" stroke-width="0.7" width="10" x="220.5922395531337" y="1204.0" /><line stroke="#7f3123" stroke-width="0.5" x1="225.5922395531337" x2="225.5922395531337" y1="1204.0" y2="1211.0" /><line stroke="#7f3123" stroke-width="0.5" x1="220.5922395531337" x2="230.5922395531337" y1="1207.5" y2="1207.5" /><rect fill="#ffb1a3" height="7" stroke="#7f3123" stroke-width="0.7" width="10" x="240.5922395531337" y="1204.0" /><line stroke="#7f3123" stroke-width="0.5" x1="245.5922395531337" x2="245.5922395531337" y1="1204.0" y2="1211.0" /><line stroke="#7f3123" stroke-width="0.5" x1="240.5922395531337" x2="250.5922395531337" y1="1207.5" y2="1207.5" /><rect fill="#7f3123" height="12" stroke="black" stroke-width="0.8" width="10" x="220.5922395531337" y="1218.0" /><circle cx="228.0922395531337" cy="1224.0" fill="#ffb1a3" r="1.2" /></g><g id="collision-detector"><rect fill="url(#gradient-collision-detector)" height="50" rx="4" ry="4" stroke="black" stroke-width="1.2" width="80" x="145.05414724232253" y="1470.0" /><line stroke="#4c4c4c" stroke-width="0.8" x1="147.05414724232253" x2="223.05414724232253" y1="1486.6666666666667" y2="1486.6666666666667" /><line stroke="#4c4c4c" stroke-width="0.8" x1="147.05414724232253" x2="223.05414724232253" y1="1503.3333333333333" y2="1503.3333333333333" /><circle cx="213.05414724232253" cy="1478.3333333333333" fill="#00cc44" r="2.5" stroke="#4c4c4c" stroke-width="0.5" /><circle cx="205.05414724232253" cy="1478.3333333333333" fill="#ffaa00" r="2.5" stroke="#4c4c4c" stroke-width="0.5" /><circle cx="213.05414724232253" cy="1495.0" fill="#00cc44" r="2.5" stroke="#4c4c4c" stroke-width="0.5" /><circle cx="205.05414724232253" cy="1495.0" fill="#ffaa00" r="2.5" stroke="#4c4c4c" stroke-width="0.5" /><circle cx="213.05414724232253" cy="1511.6666666666665" fill="#00cc44" r="2.5" stroke="#4c4c4c" stroke-width="0.5" /><circle cx="205.05414724232253" cy="1511.6666666666665" fill="#ffaa00" r="2.5" stroke="#4c4c4c" stroke-width="0.5" /><line stroke="#4c4c4c" stroke-width="0.6" x1="151.05414724232253" x2="163.05414724232253" y1="1475.0" y2="1475.0" /><line stroke="#4c4c4c" stroke-width="0.6" x1="151.05414724232253" x2="163.05414724232253" y1="1478.3333333333333" y2="1478.3333333333333" /><line stroke="#4c4c4c" stroke-width="0.6" x1="151.05414724232253" x2="163.05414724232253" y1="1481.6666666666667" y2="1481.6666666666667" /><line stroke="#4c4c4c" stroke-width="0.6" x1="151.05414724232253" x2="163.05414724232253" y1="1491.6666666666667" y2="1491.6666666666667" /><line stroke="#4c4c4c" stroke-width="0.6" x1="151.05414724232253" x2="163.05414724232253" y1="1495.0" y2="1495.0" /><line stroke="#4c4c4c" stroke-width="0.6" x1="151.05414724232253" x2="163.05414724232253" y1="1498.3333333333335" y2="1498.3333333333335" /><line stroke="#4c4c4c" stroke-width="0.6" x1="151.05414724232253" x2="163.05414724232253" y1="1508.3333333333333" y2="1508.3333333333333" /><line stroke="#4c4c4c" stroke-width="0.6" x1="151.05414724232253" x2="163.05414724232253" y1="1511.6666666666665" y2="1511.6666666666665" /><line stroke="#4c4c4c" stroke-width="0.6" x1="151.05414724232253" x2="163.05414724232253" y1="1515.0" y2="1515.0" /></g><g id="iterative"><ellipse cx="240.7688658909018" cy="343.0" fill="url(#gradient-iterative)" rx="36.0" ry="11.0" stroke="#595959" stroke-width="0.8" /><circle cx="240.7688658909018" cy="331.0" fill="url(#gradient-iterative)" r="17.0" stroke="#595959" stroke-width="0.8" /><circle cx="226.7688658909018" cy="337.0" fill="url(#gradient-iterative)" r="13.0" stroke="#595959" stroke-width="0.8" /><circle cx="254.7688658909018" cy="337.0" fill="url(#gradient-iterative)" r="13.0" stroke="#595959" stroke-width="0.8" /><ellipse cx="240.7688658909018" cy="339.0" fill="url(#gradient-iterative)" rx="30.4" ry="14.000000000000002" stroke="none" /></g><g id="validation"><rect fill="url(#gradient-validation)" height="50" rx="4" ry="4" stroke="black" stroke-width="1.2" width="80" x="265.05414724232253" y="1470.0" /><line stroke="#4c4c4c" stroke-width="0.8" x1="267.05414724232253" x2="343.05414724232253" y1="1486.6666666666667" y2="1486.6666666666667" /><line stroke="#4c4c4c" stroke-width="0.8" x1="267.05414724232253" x2="343.05414724232253" y1="1503.3333333333333" y2="1503.3333333333333" /><circle cx="333.05414724232253" cy="1478.3333333333333" fill="#00cc44" r="2.5" stroke="#4c4c4c" stroke-width="0.5" /><circle cx="325.05414724232253" cy="1478.3333333333333" fill="#ffaa00" r="2.5" stroke="#4c4c4c" stroke-width="0.5" /><circle cx="333.05414724232253" cy="1495.0" fill="#00cc44" r="2.5" stroke="#4c4c4c" stroke-width="0.5" /><circle cx="325.05414724232253" cy="1495.0" fill="#ffaa00" r="2.5" stroke="#4c4c4c" stroke-width="0.5" /><circle cx="333.05414724232253" cy="1511.6666666666665" fill="#00cc44" r="2.5" stroke="#4c4c4c" stroke-width="0.5" /><circle cx="325.05414724232253" cy="1511.6666666666665" fill="#ffaa00" r="2.5" stroke="#4c4c4c" stroke-width="0.5" /><line stroke="#4c4c4c" stroke-width="0.6" x1="271.05414724232253" x2="283.05414724232253" y1="1475.0" y2="1475.0" /><line stroke="#4c4c4c" stroke-width="0.6" x1="271.05414724232253" x2="283.05414724232253" y1="1478.3333333333333" y2="1478.3333333333333" /><line stroke="#4c4c4c" stroke-width="0.6" x1="271.05414724232253" x2="283.05414724232253" y1="1481.6666666666667" y2="1481.6666666666667" /><line stroke="#4c4c4c" stroke-width="0.6" x1="271.05414724232253" x2="283.05414724232253" y1="1491.6666666666667" y2="1491.6666666666667" /><line stroke="#4c4c4c" stroke-width="0.6" x1="271.05414724232253" x2="283.05414724232253" y1="1495.0" y2="1495.0" /><line stroke="#4c4c4c" stroke-width="0.6" x1="271.05414724232253" x2="283.05414724232253" y1="1498.3333333333335" y2="1498.3333333333335" /><line stroke="#4c4c4c" stroke-width="0.6" x1="271.05414724232253" x2="283.05414724232253" y1="1508.3333333333333" y2="1508.3333333333333" /><line stroke="#4c4c4c" stroke-width="0.6" x1="271.05414724232253" x2="283.05414724232253" y1="1511.6666666666665" y2="1511.6666666666665" /><line stroke="#4c4c4c" stroke-width="0.6" x1="271.05414724232253" x2="283.05414724232253" y1="1515.0" y2="1515.0" /></g><g id="output"><rect fill="url(#gradient-output)" height="30.0" stroke="none" width="67.2" x="391.4541472423225" y="1480.0" /><line stroke="black" stroke-width="1.2" x1="391.4541472423225" x2="391.4541472423225" y1="1480.0" y2="1510.0" /><line stroke="black" stroke-width="1.2" x1="458.65414724232255" x2="458.65414724232255" y1="1480.0" y2="1510.0" /><ellipse cx="425.05414724232253" cy="1510.0" fill="url(#gradient-output)" rx="33.6" ry="8" stroke="black" stroke-width="1.2" /><ellipse cx="425.05414724232253" cy="1480.0" fill="#b1f3b1" rx="33.6" ry="8" stroke="black" stroke-width="1.2" /><ellipse cx="425.05414724232253" cy="1490.0" fill="none" rx="33.6" ry="4.8" stroke="#568e56" stroke-width="0.6" /><ellipse cx="425.05414724232253" cy="1500.0" fill="none" rx="33.6" ry="4.8" stroke="#568e56" stroke-width="0.6" /></g><line marker-end="url(#arrow-end)" marker-start="url(#circle-start)" stroke="black" stroke-width="2" x1="360.7688658909033" x2="360.76886589090196" y1="77.0" y2="328.0" /><line marker-end="url(#arrow-end)" marker-start="url(#circle-start)" stroke="black" stroke-width="2" x1="350.26556965089844" x2="270.50329624000335" y1="390.22715282812345" y2="619.7728471718765" /><line marker-end="url(#arrow-end)" marker-start="url(#circle-start)" stroke="black" stroke-width="2" x1="362.98120396997956" x2="377.78766192092223" y1="391.92343277631437" y2="605.5765672236856" /><line marker-end="url(#arrow-end)" marker-start="url(#circle-start)" stroke="black" stroke-width="2" x1="375.11935942930444" x2="485.64950646159735" y1="388.6018065024618" y2="608.8981934975383" /><line marker-end="url(#arrow-end)" marker-start="url(#circle-start)" stroke="black" stroke-width="2" x1="265.58930836126314" x2="305.85460681043963" y1="681.508088359066" y2="908.491911640934" /><line marker-end="url(#arrow-end)" marker-start="url(#circle-start)" stroke="black" stroke-width="2" x1="372.92714939017884" x2="318.51676578152393" y1="668.7085690836852" y2="908.7914309163148" /><line marker-end="url(#arrow-end)" marker-start="url(#circle-start)" stroke="black" stroke-width="2" x1="483.0727383289565" x2="328.37117684274625" y1="664.6563585983102" y2="912.8436414016898" /><line marker-end="url(#arrow-end)" marker-start="url(#circle-start)" stroke="black" stroke-width="2" x1="295.15892557370694" x2="156.28498959799583" y1="912.4536914670374" y2="677.5463085329626" /><line marker-end="url(#arrow-end)" marker-start="url(#circle-start)" stroke="black" stroke-width="2" x1="145.58930836126314" x2="185.85460681043963" y1="681.508088359066" y2="908.491911640934" /><line marker-end="url(#arrow-end)" marker-start="url(#circle-start)" stroke="black" stroke-width="2" x1="195.03350040231624" x2="222.00265432252024" y1="971.798032610087" y2="1210.7019673899129" /><line marker-end="url(#arrow-end)" marker-start="url(#circle-start)" stroke="black" stroke-width="2" x1="220.9666716303925" x2="189.67971516506373" y1="1274.1639246050156" y2="1488.3360753949844" /><line marker-end="url(#arrow-end)" marker-start="url(#circle-start)" stroke="black" stroke-width="2" x1="186.57300573515514" x2="238.87029277486104" y1="1488.0360661232264" y2="387.4549173459669" /><line marker-end="url(#circle-end)" marker-start="url(#arrow-start)" stroke="black" stroke-width="2" x1="240.09067841229717" x2="226.13478953601742" y1="387.4942503585686" y2="1210.5045997131451" /><line marker-end="url(#arrow-end)" marker-start="url(#circle-start)" stroke="black" stroke-width="2" x1="234.78332960145107" x2="295.8630571940052" y1="1273.1516535234841" y2="1476.8483464765159" /><line marker-end="url(#circle-end)" marker-start="url(#arrow-start)" stroke="black" stroke-width="2" x1="306.606019337371" x2="359.21699379585334" y1="1475.5376519479464" y2="391.9623480520535" /><line marker-end="url(#arrow-end)" marker-start="url(#circle-start)" stroke="black" stroke-width="2" x1="336.88193632682743" x2="393.22635815781763" y1="1504.1846053036975" y2="1498.3153946963025" /><text fill="black" filter="url(#text-glow)" font-family="Arial, sans-serif" font-size="14px" text-anchor="start" x="413.3688658909035" y="45.0">Layout</text><text fill="black" filter="url(#text-glow)" font-family="Arial, sans-serif" font-size="14px" text-anchor="start" x="413.3688658909035" y="63.0">(Input)</text><text fill="black" filter="url(#text-glow)" font-family="Arial, sans-serif" font-size="14px" text-anchor="start" x="413.3688658909018" y="381.0">Fase 0: Preparación</text><text fill="black" filter="url(#text-glow)" font-family="Arial, sans-serif" font-size="14px" text-anchor="start" x="413.3688658909018" y="399.0">- Calcular posiciones faltantes</text><text fill="black" filter="url(#text-glow)" font-family="Arial, sans-serif" font-size="14px" text-anchor="start" x="413.3688658909018" y="417.0">- Calcular dimensiones contenedores</text><text fill="black" filter="url(#text-glow)" font-family="Arial, sans-serif" font-size="14px" text-anchor="start" x="413.3688658909018" y="435.0">- Calcular rutas de conexiones</text><text fill="black" filter="url(#text-glow)" font-family="Arial, sans-serif" font-size="14px" text-anchor="start" x="312.6" y="671.0">AutoLayoutPositioner v4.0</text><text fill="black" filter="url(#text-glow)" font-family="Arial, sans-serif" font-size="14px" text-anchor="start" x="312.6" y="689.0">1. Resolver contenedores</text><text fill="black" filter="url(#text-glow)" font-family="Arial, sans-serif" font-size="14px" text-anchor="start" x="312.6" y="707.0">2. Topología + centralidad + resolución</text><text fill="black" filter="url(#text-glow)" font-family="Arial, sans-serif" font-size="14px" text-anchor="start" x="312.6" y="725.0">3. Barycenter + Position Opt.</text><text fill="black" filter="url(#text-glow)" font-family="Arial, sans-serif" font-size="14px" text-anchor="start" x="312.6" y="743.0">4. Escala X global</text><text fill="black" filter="url(#text-glow)" font-family="Arial, sans-serif" font-size="14px" text-anchor="start" x="432.6" y="671.0">ContainerCalculator</text><text fill="black" filter="url(#text-glow)" font-family="Arial, sans-serif" font-size="14px" text-anchor="start" x="432.6" y="689.0">- Calcular bounds</text><text fill="black" filter="url(#text-glow)" font-family="Arial, sans-serif" font-size="14px" text-anchor="start" x="432.6" y="707.0">- Considerar íconos + etiquetas</text><text fill="black" filter="url(#text-glow)" font-family="Arial, sans-serif" font-size="14px" text-anchor="start" x="432.6" y="725.0">- Aplicar padding</text><text fill="black" filter="url(#text-glow)" font-family="Arial, sans-serif" font-size="14px" text-anchor="start" x="552.6" y="579.0">RouterManager</text><text fill="black" filter="url(#text-glow)" font-family="Arial, sans-serif" font-size="14px" text-anchor="start" x="552.6" y="597.0">- Calcular paths</text><text fill="black" filter="url(#text-glow)" font-family="Arial, sans-serif" font-size="14px" text-anchor="start" x="552.6" y="615.0">- Intersección con bordes</text><text fill="black" filter="url(#text-glow)" font-family="Arial, sans-serif" font-size="14px" text-anchor="start" x="552.6" y="633.0">- Extensión para markers</text><text fill="black" filter="url(#text-glow)" font-family="Arial, sans-serif" font-size="14px" text-anchor="start" x="364.0439151717028" y="961.0">Fase 1: Análisis</text><text fill="black" filter="url(#text-glow)" font-family="Arial, sans-serif" font-size="14px" text-anchor="start" x="364.0439151717028" y="979.0">- Niveles topológicos (longest-path)</text><text fill="black" filter="url(#text-glow)" font-family="Arial, sans-serif" font-size="14px" text-anchor="start" x="364.0439151717028" y="997.0">- Centralidad (degree-based)</text><text fill="black" filter="url(#text-glow)" font-family="Arial, sans-serif" font-size="14px" text-anchor="start" x="364.0439151717028" y="1015.0">- Resolución conexiones a primarios</text><text fill="black" filter="url(#text-glow)" font-family="Arial, sans-serif" font-size="14px" text-anchor="start" x="364.0439151717028" y="1033.0">- Grupos conectados</text><text fill="black" filter="url(#text-glow)" font-family="Arial, sans-serif" font-size="14px" text-anchor="middle" x="140.0" y="671.0">Fase 2: Optimización Etiquetas</text><text fill="black" filter="url(#text-glow)" font-family="Arial, sans-serif" font-size="14px" text-anchor="middle" x="140.0" y="689.0">- Generar posiciones candidatas</text><text fill="black" filter="url(#text-glow)" font-family="Arial, sans-serif" font-size="14px" text-anchor="middle" x="140.0" y="707.0">- Evaluar colisiones</text><text fill="black" filter="url(#text-glow)" font-family="Arial, sans-serif" font-size="14px" text-anchor="middle" x="140.0" y="725.0">- Minimizar densidad local</text><text fill="black" filter="url(#text-glow)" font-family="Arial, sans-serif" font-size="14px" text-anchor="start" x="244.04391517170276" y="961.0">LabelPositionOptimizer</text><text fill="black" filter="url(#text-glow)" font-family="Arial, sans-serif" font-size="14px" text-anchor="start" x="244.04391517170276" y="979.0">- Score basado en colisiones</text><text fill="black" filter="url(#text-glow)" font-family="Arial, sans-serif" font-size="14px" text-anchor="start" x="244.04391517170276" y="997.0">- Penalización por densidad</text><text fill="black" filter="url(#text-glow)" font-family="Arial, sans-serif" font-size="14px" text-anchor="start" x="244.04391517170276" y="1015.0">- Preferencias por categoría</text><text fill="black" filter="url(#text-glow)" font-family="Arial, sans-serif" font-size="14px" text-anchor="start" x="278.19223955313373" y="1251.0">Fase 3: Resolución Colisiones</text><text fill="black" filter="url(#text-glow)" font-family="Arial, sans-serif" font-size="14px" text-anchor="start" x="278.19223955313373" y="1269.0">- Detectar solapamientos</text><text fill="black" filter="url(#text-glow)" font-family="Arial, sans-serif" font-size="14px" text-anchor="start" x="278.19223955313373" y="1287.0">- Calcular fuerzas de repulsión</text><text fill="black" filter="url(#text-glow)" font-family="Arial, sans-serif" font-size="14px" text-anchor="start" x="278.19223955313373" y="1305.0">- Aplicar desplazamientos</text><text fill="black" filter="url(#text-glow)" font-family="Arial, sans-serif" font-size="14px" text-anchor="start" x="278.19223955313373" y="1323.0">- Recalcular routing</text><text fill="black" filter="url(#text-glow)" font-family="Arial, sans-serif" font-size="14px" text-anchor="middle" x="185.05414724232253" y="1541.0">CollisionDetector</text><text fill="black" filter="url(#text-glow)" font-family="Arial, sans-serif" font-size="14px" text-anchor="middle" x="185.05414724232253" y="1559.0">- Detectar overlaps</text><text fill="black" filter="url(#text-glow)" font-family="Arial, sans-serif" font-size="14px" text-anchor="middle" x="185.05414724232253" y="1577.0">- Calcular vectores</text><text fill="black" filter="url(#text-glow)" font-family="Arial, sans-serif" font-size="14px" text-anchor="middle" x="185.05414724232253" y="1595.0">- Peso por tamaño (hp/wp)</text><text fill="black" filter="url(#text-glow)" font-family="Arial, sans-serif" font-size="14px" text-anchor="end" x="188.1688658909018" y="289.0">Iteración</text><text fill="black" filter="url(#text-glow)" font-family="Arial, sans-serif" font-size="14px" text-anchor="end" x="188.1688658909018" y="307.0">Hasta 100 iteraciones</text><text fill="black" filter="url(#text-glow)" font-family="Arial, sans-serif" font-size="14px" text-anchor="end" x="188.1688658909018" y="325.0">o convergencia</text><text fill="black" filter="url(#text-glow)" font-family="Arial, sans-serif" font-size="14px" text-anchor="start" x="357.65414724232255" y="1541.0">Validación</text><text fill="black" filter="url(#text-glow)" font-family="Arial, sans-serif" font-size="14px" text-anchor="start" x="357.65414724232255" y="1559.0">- Verificar canvas bounds</text><text fill="black" filter="url(#text-glow)" font-family="Arial, sans-serif" font-size="14px" text-anchor="start" x="357.65414724232255" y="1577.0">- Expandir si necesario</text><text fill="black" filter="url(#text-glow)" font-family="Arial, sans-serif" font-size="14px" text-anchor="start" x="357.65414724232255" y="1595.0">- Recalcular estructuras</text><text fill="black" filter="url(#text-glow)" font-family="Arial, sans-serif" font-size="14px" text-anchor="start" x="477.65414724232255" y="1495.0">Layout</text><text fill="black" filter="url(#text-glow)" font-family="Arial, sans-serif" font-size="14px" text-anchor="start" x="477.65414724232255" y="1513.0">(Optimizado)</text><text fill="gray" filter="url(#text-glow)" font-family="Arial, sans-serif" font-size="12px" text-anchor="end" x="309.96886589090263" y="202.5">1</text><text fill="gray" filter="url(#text-glow)" font-family="Arial, sans-serif" font-size="12px" text-anchor="middle" x="310.3844329454509" y="462.0">calc pos</text><text fill="gray" filter="url(#text-glow)" font-family="Arial, sans-serif" font-size="12px" text-anchor="start" x="421.1844329454509" y="455.75">calc dims</text><text fill="gray" filter="url(#text-glow)" font-family="Arial, sans-serif" font-size="12px" text-anchor="start" x="481.1844329454509" y="498.75">calc paths</text><text fill="gray" filter="url(#text-glow)" font-family="Arial, sans-serif" font-size="12px" text-anchor="middle" x="225.72195758585138" y="752.0">2</text><text fill="gray" filter="url(#text-glow)" font-family="Arial, sans-serif" font-size="12px" text-anchor="end" x="114.92195758585139" y="795.0">optimize</text><text fill="gray" filter="url(#text-glow)" font-family="Arial, sans-serif" font-size="12px" text-anchor="end" x="154.5231933977281" y="1381.25">detect</text><text fill="gray" filter="url(#text-glow)" font-family="Arial, sans-serif" font-size="12px" text-anchor="end" x="161.9216492550081" y="937.7454917345967">resolve</text><text fill="gray" filter="url(#text-glow)" font-family="Arial, sans-serif" font-size="12px" text-anchor="start" x="283.9127339741573" y="755.9994250358568">repeat</text><text fill="gray" filter="url(#text-glow)" font-family="Arial, sans-serif" font-size="12px" text-anchor="start" x="316.12319339772813" y="1375.0">validate</text><text fill="gray" filter="url(#text-glow)" font-family="Arial, sans-serif" font-size="12px" text-anchor="start" x="383.7115065666122" y="933.75">recalc if expanded</text><text fill="gray" filter="url(#text-glow)" font-family="Arial, sans-serif" font-size="12px" text-anchor="middle" x="365.05414724232253" y="1458.25">done</text></svg>