<?xml version="1.0" encoding="utf-8" ?>
<svg baseProfile="full" height="1400" version="1.1" viewBox="0,0,1800,1400" width="1800" xmlns="http://www.w3.org/2000/svg" xmlns:ev="http://www.w3.org/2001/xml-events" xmlns:xlink="http://www.w3.org/1999/xlink"><defs><filter height="140%" id="text-glow" width="140%" x="-20%" y="-20%"><feGaussianBlur in="SourceGraphic" result="blur" stdDeviation="2" /><feFlood flood-color="white" flood-opacity="1" result="color" /><feComposite in="color" in2="blur" operator="in" result="shadow" /><feMerge><feMergeNode in="shadow" /><feMergeNode in="shadow" /><feMergeNode in="SourceGraphic" /></feMerge></filter><marker id="arrow-end" markerHeight="10" markerWidth="10" orient="auto" refX="10" refY="5"><path d="M 0 0 L 10 5 L 0 10 z" fill="black" /></marker><marker id="arrow-start" markerHeight="10" markerWidth="10" orient="auto" refX="0" refY="5"><path d="M 10 0 L 0 5 L 10 10 z" fill="black" /></marker><marker id="circle-start" markerHeight="10" markerWidth="10" orient="auto" refX="5" refY="5"><circle cx="5" cy="5" fill="black" r="4" /></marker><marker id="circle-end" markerHeight="10" markerWidth="10" orient="auto" refX="5" refY="5"><circle cx="5" cy="5" fill="black" r="4" /></marker><linearGradient id="gradient-input" x1="0%" x2="0%" y1="0%" y2="100%"><stop offset="0%" stop-color="#c5e3ed" /><stop offset="100%" stop-color="#7997a1" /></linearGradient><linearGradient id="gradient-phase0" x1="0%" x2="0%" y1="0%" y2="100%"><stop offset="0%" stop-color="#ffe34c" /><stop offset="100%" stop-color="#b29600" /></linearGradient><linearGradient id="gradient-positioner" x1="0%" x2="0%" y1="0%" y2="100%"><stop offset="0%" stop-color="#ffffe9" /><stop offset="100%" stop-color="#b2b29c" /></linearGradient><linearGradient id="gradient-container-calc" x1="0%" x2="0%" y1="0%" y2="100%"><stop offset="0%" stop-color="#ffffe9" /><stop offset="100%" stop-color="#b2b29c" /></linearGradient><linearGradient id="gradient-router" x1="0%" x2="0%" y1="0%" y2="100%"><stop offset="0%" stop-color="#ffffe9" /><stop offset="100%" stop-color="#b2b29c" /></linearGradient><linearGradient id="gradient-phase1" x1="0%" x2="0%" y1="0%" y2="100%"><stop offset="0%" stop-color="#ffc04c" /><stop offset="100%" stop-color="#b27300" /></linearGradient><linearGradient id="gradient-phase2" x1="0%" x2="0%" y1="0%" y2="100%"><stop offset="0%" stop-color="#4cffff" /><stop offset="100%" stop-color="#00b2b2" /></linearGradient><linearGradient id="gradient-label-optimizer" x1="0%" x2="0%" y1="0%" y2="100%"><stop offset="0%" stop-color="#a6a6a6" /><stop offset="100%" stop-color="#595959" /></linearGradient><linearGradient id="gradient-phase3" x1="0%" x2="0%" y1="0%" y2="100%"><stop offset="0%" stop-color="#ff917e" /><stop offset="100%" stop-color="#b24531" /></linearGradient><linearGradient id="gradient-collision-detector" x1="0%" x2="0%" y1="0%" y2="100%"><stop offset="0%" stop-color="#a6a6a6" /><stop offset="100%" stop-color="#595959" /></linearGradient><linearGradient id="gradient-iterative" x1="0%" x2="0%" y1="0%" y2="100%"><stop offset="0%" stop-color="#a6a6a6" /><stop offset="100%" stop-color="#595959" /></linearGradient><linearGradient id="gradient-validation" x1="0%" x2="0%" y1="0%" y2="100%"><stop offset="0%" stop-color="#a6a6a6" /><stop offset="100%" stop-color="#595959" /></linearGradient><linearGradient id="gradient-output" x1="0%" x2="0%" y1="0%" y2="100%"><stop offset="0%" stop-color="#b1f3b1" /><stop offset="100%" stop-color="#64a664" /></linearGradient></defs><g id="input"><rect fill="url(#gradient-input)" height="30.0" stroke="none" width="67.2" x="381.840236146747" y="30.0" /><line stroke="black" stroke-width="1.2" x1="381.840236146747" x2="381.840236146747" y1="30.0" y2="60.0" /><line stroke="black" stroke-width="1.2" x1="449.040236146747" x2="449.040236146747" y1="30.0" y2="60.0" /><ellipse cx="415.440236146747" cy="60.0" fill="url(#gradient-input)" rx="33.6" ry="8" stroke="black" stroke-width="1.2" /><ellipse cx="415.440236146747" cy="30.0" fill="#c5e3ed" rx="33.6" ry="8" stroke="black" stroke-width="1.2" /><ellipse cx="415.440236146747" cy="40.0" fill="none" rx="33.6" ry="4.8" stroke="#67818a" stroke-width="0.6" /><ellipse cx="415.440236146747" cy="50.0" fill="none" rx="33.6" ry="4.8" stroke="#67818a" stroke-width="0.6" /></g><g id="phase0"><rect fill="url(#gradient-phase0)" height="46" rx="2" ry="2" stroke="black" stroke-width="1.2" width="64" x="383.4402361467521" y="894.0" /><polygon fill="#7f6b00" points="379.4402361467521,894.0 415.4402361467521,884.0 451.4402361467521,894.0" stroke="black" stroke-width="1.0" /><rect fill="#ffeb7f" height="7" stroke="#7f6b00" stroke-width="0.7" width="10" x="390.4402361467521" y="900.0" /><line stroke="#7f6b00" stroke-width="0.5" x1="395.4402361467521" x2="395.4402361467521" y1="900.0" y2="907.0" /><line stroke="#7f6b00" stroke-width="0.5" x1="390.4402361467521" x2="400.4402361467521" y1="903.5" y2="903.5" /><rect fill="#ffeb7f" height="7" stroke="#7f6b00" stroke-width="0.7" width="10" x="410.4402361467521" y="900.0" /><line stroke="#7f6b00" stroke-width="0.5" x1="415.4402361467521" x2="415.4402361467521" y1="900.0" y2="907.0" /><line stroke="#7f6b00" stroke-width="0.5" x1="410.4402361467521" x2="420.4402361467521" y1="903.5" y2="903.5" /><rect fill="#ffeb7f" height="7" stroke="#7f6b00" stroke-width="0.7" width="10" x="430.4402361467521" y="900.0" /><line stroke="#7f6b00" stroke-width="0.5" x1="435.4402361467521" x2="435.4402361467521" y1="900.0" y2="907.0" /><line stroke="#7f6b00" stroke-width="0.5" x1="430.4402361467521" x2="440.4402361467521" y1="903.5" y2="903.5" /><rect fill="#ffeb7f" height="7" stroke="#7f6b00" stroke-width="0.7" width="10" x="390.4402361467521" y="914.0" /><line stroke="#7f6b00" stroke-width="0.5" x1="395.4402361467521" x2="395.4402361467521" y1="914.0" y2="921.0" /><line stroke="#7f6b00" stroke-width="0.5" x1="390.4402361467521" x2="400.4402361467521" y1="917.5" y2="917.5" /><rect fill="#ffeb7f" height="7" stroke="#7f6b00" stroke-width="0.7" width="10" x="410.4402361467521" y="914.0" /><line stroke="#7f6b00" stroke-width="0.5" x1="415.4402361467521" x2="415.4402361467521" y1="914.0" y2="921.0" /><line stroke="#7f6b00" stroke-width="0.5" x1="410.4402361467521" x2="420.4402361467521" y1="917.5" y2="917.5" /><rect fill="#ffeb7f" height="7" stroke="#7f6b00" stroke-width="0.7" width="10" x="430.4402361467521" y="914.0" /><line stroke="#7f6b00" stroke-width="0.5" x1="435.4402361467521" x2="435.4402361467521" y1="914.0" y2="921.0" /><line stroke="#7f6b00" stroke-width="0.5" x1="430.4402361467521" x2="440.4402361467521" y1="917.5" y2="917.5" /><rect fill="#7f6b00" height="12" stroke="black" stroke-width="0.8" width="10" x="410.4402361467521" y="928.0" /><circle cx="417.9402361467521" cy="934.0" fill="#ffeb7f" r="1.2" /></g><g id="positioner"><rect fill="url(#gradient-positioner)" height="50" rx="4" ry="4" stroke="black" stroke-width="1.2" width="80" x="111.10278514542813" y="310.0" /><line stroke="#999986" stroke-width="0.8" x1="113.10278514542813" x2="189.10278514542813" y1="326.6666666666667" y2="326.6666666666667" /><line stroke="#999986" stroke-width="0.8" x1="113.10278514542813" x2="189.10278514542813" y1="343.3333333333333" y2="343.3333333333333" /><circle cx="179.10278514542813" cy="318.3333333333333" fill="#00cc44" r="2.5" stroke="#999986" stroke-width="0.5" /><circle cx="171.10278514542813" cy="318.3333333333333" fill="#ffaa00" r="2.5" stroke="#999986" stroke-width="0.5" /><circle cx="179.10278514542813" cy="335.0" fill="#00cc44" r="2.5" stroke="#999986" stroke-width="0.5" /><circle cx="171.10278514542813" cy="335.0" fill="#ffaa00" r="2.5" stroke="#999986" stroke-width="0.5" /><circle cx="179.10278514542813" cy="351.66666666666663" fill="#00cc44" r="2.5" stroke="#999986" stroke-width="0.5" /><circle cx="171.10278514542813" cy="351.66666666666663" fill="#ffaa00" r="2.5" stroke="#999986" stroke-width="0.5" /><line stroke="#999986" stroke-width="0.6" x1="117.10278514542813" x2="129.10278514542813" y1="315.0" y2="315.0" /><line stroke="#999986" stroke-width="0.6" x1="117.10278514542813" x2="129.10278514542813" y1="318.3333333333333" y2="318.3333333333333" /><line stroke="#999986" stroke-width="0.6" x1="117.10278514542813" x2="129.10278514542813" y1="321.6666666666667" y2="321.6666666666667" /><line stroke="#999986" stroke-width="0.6" x1="117.10278514542813" x2="129.10278514542813" y1="331.6666666666667" y2="331.6666666666667" /><line stroke="#999986" stroke-width="0.6" x1="117.10278514542813" x2="129.10278514542813" y1="335.0" y2="335.0" /><line stroke="#999986" stroke-width="0.6" x1="117.10278514542813" x2="129.10278514542813" y1="338.33333333333337" y2="338.33333333333337" /><line stroke="#999986" stroke-width="0.6" x1="117.10278514542813" x2="129.10278514542813" y1="348.3333333333333" y2="348.3333333333333" /><line stroke="#999986" stroke-width="0.6" x1="117.10278514542813" x2="129.10278514542813" y1="351.66666666666663" y2="351.66666666666663" /><line stroke="#999986" stroke-width="0.6" x1="117.10278514542813" x2="129.10278514542813" y1="355.0" y2="355.0" /></g><g id="container-calc"><rect fill="url(#gradient-container-calc)" height="50" rx="4" ry="4" stroke="black" stroke-width="1.2" width="80" x="231.10278514542813" y="310.0" /><line stroke="#999986" stroke-width="0.8" x1="233.10278514542813" x2="309.10278514542813" y1="326.6666666666667" y2="326.6666666666667" /><line stroke="#999986" stroke-width="0.8" x1="233.10278514542813" x2="309.10278514542813" y1="343.3333333333333" y2="343.3333333333333" /><circle cx="299.10278514542813" cy="318.3333333333333" fill="#00cc44" r="2.5" stroke="#999986" stroke-width="0.5" /><circle cx="291.10278514542813" cy="318.3333333333333" fill="#ffaa00" r="2.5" stroke="#999986" stroke-width="0.5" /><circle cx="299.10278514542813" cy="335.0" fill="#00cc44" r="2.5" stroke="#999986" stroke-width="0.5" /><circle cx="291.10278514542813" cy="335.0" fill="#ffaa00" r="2.5" stroke="#999986" stroke-width="0.5" /><circle cx="299.10278514542813" cy="351.66666666666663" fill="#00cc44" r="2.5" stroke="#999986" stroke-width="0.5" /><circle cx="291.10278514542813" cy="351.66666666666663" fill="#ffaa00" r="2.5" stroke="#999986" stroke-width="0.5" /><line stroke="#999986" stroke-width="0.6" x1="237.10278514542813" x2="249.10278514542813" y1="315.0" y2="315.0" /><line stroke="#999986" stroke-width="0.6" x1="237.10278514542813" x2="249.10278514542813" y1="318.3333333333333" y2="318.3333333333333" /><line stroke="#999986" stroke-width="0.6" x1="237.10278514542813" x2="249.10278514542813" y1="321.6666666666667" y2="321.6666666666667" /><line stroke="#999986" stroke-width="0.6" x1="237.10278514542813" x2="249.10278514542813" y1="331.6666666666667" y2="331.6666666666667" /><line stroke="#999986" stroke-width="0.6" x1="237.10278514542813" x2="249.10278514542813" y1="335.0" y2="335.0" /><line stroke="#999986" stroke-width="0.6" x1="237.10278514542813" x2="249.10278514542813" y1="338.33333333333337" y2="338.33333333333337" /><line stroke="#999986" stroke-width="0.6" x1="237.10278514542813" x2="249.10278514542813" y1="348.3333333333333" y2="348.3333333333333" /><line stroke="#999986" stroke-width="0.6" x1="237.10278514542813" x2="249.10278514542813" y1="351.66666666666663" y2="351.66666666666663" /><line stroke="#999986" stroke-width="0.6" x1="237.10278514542813" x2="249.10278514542813" y1="355.0" y2="355.0" /></g><g id="router"><rect fill="url(#gradient-router)" height="50" rx="4" ry="4" stroke="black" stroke-width="1.2" width="80" x="351.10278514542813" y="310.0" /><line stroke="#999986" stroke-width="0.8" x1="353.10278514542813" x2="429.10278514542813" y1="326.6666666666667" y2="326.6666666666667" /><line stroke="#999986" stroke-width="0.8" x1="353.10278514542813" x2="429.10278514542813" y1="343.3333333333333" y2="343.3333333333333" /><circle cx="419.10278514542813" cy="318.3333333333333" fill="#00cc44" r="2.5" stroke="#999986" stroke-width="0.5" /><circle cx="411.10278514542813" cy="318.3333333333333" fill="#ffaa00" r="2.5" stroke="#999986" stroke-width="0.5" /><circle cx="419.10278514542813" cy="335.0" fill="#00cc44" r="2.5" stroke="#999986" stroke-width="0.5" /><circle cx="411.10278514542813" cy="335.0" fill="#ffaa00" r="2.5" stroke="#999986" stroke-width="0.5" /><circle cx="419.10278514542813" cy="351.66666666666663" fill="#00cc44" r="2.5" stroke="#999986" stroke-width="0.5" /><circle cx="411.10278514542813" cy="351.66666666666663" fill="#ffaa00" r="2.5" stroke="#999986" stroke-width="0.5" /><line stroke="#999986" stroke-width="0.6" x1="357.10278514542813" x2="369.10278514542813" y1="315.0" y2="315.0" /><line stroke="#999986" stroke-width="0.6" x1="357.10278514542813" x2="369.10278514542813" y1="318.3333333333333" y2="318.3333333333333" /><line stroke="#999986" stroke-width="0.6" x1="357.10278514542813" x2="369.10278514542813" y1="321.6666666666667" y2="321.6666666666667" /><line stroke="#999986" stroke-width="0.6" x1="357.10278514542813" x2="369.10278514542813" y1="331.6666666666667" y2="331.6666666666667" /><line stroke="#999986" stroke-width="0.6" x1="357.10278514542813" x2="369.10278514542813" y1="335.0" y2="335.0" /><line stroke="#999986" stroke-width="0.6" x1="357.10278514542813" x2="369.10278514542813" y1="338.33333333333337" y2="338.33333333333337" /><line stroke="#999986" stroke-width="0.6" x1="357.10278514542813" x2="369.10278514542813" y1="348.3333333333333" y2="348.3333333333333" /><line stroke="#999986" stroke-width="0.6" x1="357.10278514542813" x2="369.10278514542813" y1="351.66666666666663" y2="351.66666666666663" /><line stroke="#999986" stroke-width="0.6" x1="357.10278514542813" x2="369.10278514542813" y1="355.0" y2="355.0" /></g><g id="phase1"><rect fill="url(#gradient-phase1)" height="46" rx="2" ry="2" stroke="black" stroke-width="1.2" width="64" x="228.0" y="604.0" /><polygon fill="#7f5200" points="224.0,604.0 260.0,594.0 296.0,604.0" stroke="black" stroke-width="1.0" /><rect fill="#ffd27f" height="7" stroke="#7f5200" stroke-width="0.7" width="10" x="235.0" y="610.0" /><line stroke="#7f5200" stroke-width="0.5" x1="240.0" x2="240.0" y1="610.0" y2="617.0" /><line stroke="#7f5200" stroke-width="0.5" x1="235.0" x2="245.0" y1="613.5" y2="613.5" /><rect fill="#ffd27f" height="7" stroke="#7f5200" stroke-width="0.7" width="10" x="255.0" y="610.0" /><line stroke="#7f5200" stroke-width="0.5" x1="260.0" x2="260.0" y1="610.0" y2="617.0" /><line stroke="#7f5200" stroke-width="0.5" x1="255.0" x2="265.0" y1="613.5" y2="613.5" /><rect fill="#ffd27f" height="7" stroke="#7f5200" stroke-width="0.7" width="10" x="275.0" y="610.0" /><line stroke="#7f5200" stroke-width="0.5" x1="280.0" x2="280.0" y1="610.0" y2="617.0" /><line stroke="#7f5200" stroke-width="0.5" x1="275.0" x2="285.0" y1="613.5" y2="613.5" /><rect fill="#ffd27f" height="7" stroke="#7f5200" stroke-width="0.7" width="10" x="235.0" y="624.0" /><line stroke="#7f5200" stroke-width="0.5" x1="240.0" x2="240.0" y1="624.0" y2="631.0" /><line stroke="#7f5200" stroke-width="0.5" x1="235.0" x2="245.0" y1="627.5" y2="627.5" /><rect fill="#ffd27f" height="7" stroke="#7f5200" stroke-width="0.7" width="10" x="255.0" y="624.0" /><line stroke="#7f5200" stroke-width="0.5" x1="260.0" x2="260.0" y1="624.0" y2="631.0" /><line stroke="#7f5200" stroke-width="0.5" x1="255.0" x2="265.0" y1="627.5" y2="627.5" /><rect fill="#ffd27f" height="7" stroke="#7f5200" stroke-width="0.7" width="10" x="275.0" y="624.0" /><line stroke="#7f5200" stroke-width="0.5" x1="280.0" x2="280.0" y1="624.0" y2="631.0" /><line stroke="#7f5200" stroke-width="0.5" x1="275.0" x2="285.0" y1="627.5" y2="627.5" /><rect fill="#7f5200" height="12" stroke="black" stroke-width="0.8" width="10" x="255.0" y="638.0" /><circle cx="262.5" cy="644.0" fill="#ffd27f" r="1.2" /></g><g id="phase2"><rect fill="url(#gradient-phase2)" height="46" rx="2" ry="2" stroke="black" stroke-width="1.2" width="64" x="263.4402361467521" y="894.0" /><polygon fill="#007f7f" points="259.4402361467521,894.0 295.4402361467521,884.0 331.4402361467521,894.0" stroke="black" stroke-width="1.0" /><rect fill="#7fffff" height="7" stroke="#007f7f" stroke-width="0.7" width="10" x="270.4402361467521" y="900.0" /><line stroke="#007f7f" stroke-width="0.5" x1="275.4402361467521" x2="275.4402361467521" y1="900.0" y2="907.0" /><line stroke="#007f7f" stroke-width="0.5" x1="270.4402361467521" x2="280.4402361467521" y1="903.5" y2="903.5" /><rect fill="#7fffff" height="7" stroke="#007f7f" stroke-width="0.7" width="10" x="290.4402361467521" y="900.0" /><line stroke="#007f7f" stroke-width="0.5" x1="295.4402361467521" x2="295.4402361467521" y1="900.0" y2="907.0" /><line stroke="#007f7f" stroke-width="0.5" x1="290.4402361467521" x2="300.4402361467521" y1="903.5" y2="903.5" /><rect fill="#7fffff" height="7" stroke="#007f7f" stroke-width="0.7" width="10" x="310.4402361467521" y="900.0" /><line stroke="#007f7f" stroke-width="0.5" x1="315.4402361467521" x2="315.4402361467521" y1="900.0" y2="907.0" /><line stroke="#007f7f" stroke-width="0.5" x1="310.4402361467521" x2="320.4402361467521" y1="903.5" y2="903.5" /><rect fill="#7fffff" height="7" stroke="#007f7f" stroke-width="0.7" width="10" x="270.4402361467521" y="914.0" /><line stroke="#007f7f" stroke-width="0.5" x1="275.4402361467521" x2="275.4402361467521" y1="914.0" y2="921.0" /><line stroke="#007f7f" stroke-width="0.5" x1="270.4402361467521" x2="280.4402361467521" y1="917.5" y2="917.5" /><rect fill="#7fffff" height="7" stroke="#007f7f" stroke-width="0.7" width="10" x="290.4402361467521" y="914.0" /><line stroke="#007f7f" stroke-width="0.5" x1="295.4402361467521" x2="295.4402361467521" y1="914.0" y2="921.0" /><line stroke="#007f7f" stroke-width="0.5" x1="290.4402361467521" x2="300.4402361467521" y1="917.5" y2="917.5" /><rect fill="#7fffff" height="7" stroke="#007f7f" stroke-width="0.7" width="10" x="310.4402361467521" y="914.0" /><line stroke="#007f7f" stroke-width="0.5" x1="315.4402361467521" x2="315.4402361467521" y1="914.0" y2="921.0" /><line stroke="#007f7f" stroke-width="0.5" x1="310.4402361467521" x2="320.4402361467521" y1="917.5" y2="917.5" /><rect fill="#007f7f" height="12" stroke="black" stroke-width="0.8" width="10" x="290.4402361467521" y="928.0" /><circle cx="297.9402361467521" cy="934.0" fill="#7fffff" r="1.2" /></g><g id="label-optimizer"><rect fill="url(#gradient-label-optimizer)" height="50" rx="4" ry="4" stroke="black" stroke-width="1.2" width="80" x="471.10278514542813" y="310.0" /><line stroke="#4c4c4c" stroke-width="0.8" x1="473.10278514542813" x2="549.1027851454281" y1="326.6666666666667" y2="326.6666666666667" /><line stroke="#4c4c4c" stroke-width="0.8" x1="473.10278514542813" x2="549.1027851454281" y1="343.3333333333333" y2="343.3333333333333" /><circle cx="539.1027851454281" cy="318.3333333333333" fill="#00cc44" r="2.5" stroke="#4c4c4c" stroke-width="0.5" /><circle cx="531.1027851454281" cy="318.3333333333333" fill="#ffaa00" r="2.5" stroke="#4c4c4c" stroke-width="0.5" /><circle cx="539.1027851454281" cy="335.0" fill="#00cc44" r="2.5" stroke="#4c4c4c" stroke-width="0.5" /><circle cx="531.1027851454281" cy="335.0" fill="#ffaa00" r="2.5" stroke="#4c4c4c" stroke-width="0.5" /><circle cx="539.1027851454281" cy="351.66666666666663" fill="#00cc44" r="2.5" stroke="#4c4c4c" stroke-width="0.5" /><circle cx="531.1027851454281" cy="351.66666666666663" fill="#ffaa00" r="2.5" stroke="#4c4c4c" stroke-width="0.5" /><line stroke="#4c4c4c" stroke-width="0.6" x1="477.10278514542813" x2="489.10278514542813" y1="315.0" y2="315.0" /><line stroke="#4c4c4c" stroke-width="0.6" x1="477.10278514542813" x2="489.10278514542813" y1="318.3333333333333" y2="318.3333333333333" /><line stroke="#4c4c4c" stroke-width="0.6" x1="477.10278514542813" x2="489.10278514542813" y1="321.6666666666667" y2="321.6666666666667" /><line stroke="#4c4c4c" stroke-width="0.6" x1="477.10278514542813" x2="489.10278514542813" y1="331.6666666666667" y2="331.6666666666667" /><line stroke="#4c4c4c" stroke-width="0.6" x1="477.10278514542813" x2="489.10278514542813" y1="335.0" y2="335.0" /><line stroke="#4c4c4c" stroke-width="0.6" x1="477.10278514542813" x2="489.10278514542813" y1="338.33333333333337" y2="338.33333333333337" /><line stroke="#4c4c4c" stroke-width="0.6" x1="477.10278514542813" x2="489.10278514542813" y1="348.3333333333333" y2="348.3333333333333" /><line stroke="#4c4c4c" stroke-width="0.6" x1="477.10278514542813" x2="489.10278514542813" y1="351.66666666666663" y2="351.66666666666663" /><line stroke="#4c4c4c" stroke-width="0.6" x1="477.10278514542813" x2="489.10278514542813" y1="355.0" y2="355.0" /></g><g id="phase3"><rect fill="url(#gradient-phase3)" height="46" rx="2" ry="2" stroke="black" stroke-width="1.2" width="64" x="253.8140308453551" y="1184.0" /><polygon fill="#7f3123" points="249.8140308453551,1184.0 285.8140308453551,1174.0 321.8140308453551,1184.0" stroke="black" stroke-width="1.0" /><rect fill="#ffb1a3" height="7" stroke="#7f3123" stroke-width="0.7" width="10" x="260.8140308453551" y="1190.0" /><line stroke="#7f3123" stroke-width="0.5" x1="265.8140308453551" x2="265.8140308453551" y1="1190.0" y2="1197.0" /><line stroke="#7f3123" stroke-width="0.5" x1="260.8140308453551" x2="270.8140308453551" y1="1193.5" y2="1193.5" /><rect fill="#ffb1a3" height="7" stroke="#7f3123" stroke-width="0.7" width="10" x="280.8140308453551" y="1190.0" /><line stroke="#7f3123" stroke-width="0.5" x1="285.8140308453551" x2="285.8140308453551" y1="1190.0" y2="1197.0" /><line stroke="#7f3123" stroke-width="0.5" x1="280.8140308453551" x2="290.8140308453551" y1="1193.5" y2="1193.5" /><rect fill="#ffb1a3" height="7" stroke="#7f3123" stroke-width="0.7" width="10" x="300.8140308453551" y="1190.0" /><line stroke="#7f3123" stroke-width="0.5" x1="305.8140308453551" x2="305.8140308453551" y1="1190.0" y2="1197.0" /><line stroke="#7f3123" stroke-width="0.5" x1="300.8140308453551" x2="310.8140308453551" y1="1193.5" y2="1193.5" /><rect fill="#ffb1a3" height="7" stroke="#7f3123" stroke-width="0.7" width="10" x="260.8140308453551" y="1204.0" /><line stroke="#7f3123" stroke-width="0.5" x1="265.8140308453551" x2="265.8140308453551" y1="1204.0" y2="1211.0" /><line stroke="#7f3123" stroke-width="0.5" x1="260.8140308453551" x2="270.8140308453551" y1="1207.5" y2="1207.5" /><rect fill="#ffb1a3" height="7" stroke="#7f3123" stroke-width="0.7" width="10" x="280.8140308453551" y="1204.0" /><line stroke="#7f3123" stroke-width="0.5" x1="285.8140308453551" x2="285.8140308453551" y1="1204.0" y2="1211.0" /><line stroke="#7f3123" stroke-width="0.5" x1="280.8140308453551" x2="290.8140308453551" y1="1207.5" y2="1207.5" /><rect fill="#ffb1a3" height="7" stroke="#7f3123" stroke-width="0.7" width="10" x="300.8140308453551" y="1204.0" /><line stroke="#7f3123" stroke-width="0.5" x1="305.8140308453551" x2="305.8140308453551" y1="1204.0" y2="1211.0" /><line stroke="#7f3123" stroke-width="0.5" x1="300.8140308453551" x2="310.8140308453551" y1="1207.5" y2="1207.5" /><rect fill="#7f3123" height="12" stroke="black" stroke-width="0.8" width="10" x="280.8140308453551" y="1218.0" /><circle cx="288.3140308453551" cy="1224.0" fill="#ffb1a3" r="1.2" /></g><g id="collision-detector"><rect fill="url(#gradient-collision-detector)" height="50" rx="4" ry="4" stroke="black" stroke-width="1.2" width="80" x="100.0" y="600.0" /><line stroke="#4c4c4c" stroke-width="0.8" x1="102.0" x2="178.0" y1="616.6666666666666" y2="616.6666666666666" /><line stroke="#4c4c4c" stroke-width="0.8" x1="102.0" x2="178.0" y1="633.3333333333334" y2="633.3333333333334" /><circle cx="168.0" cy="608.3333333333334" fill="#00cc44" r="2.5" stroke="#4c4c4c" stroke-width="0.5" /><circle cx="160.0" cy="608.3333333333334" fill="#ffaa00" r="2.5" stroke="#4c4c4c" stroke-width="0.5" /><circle cx="168.0" cy="625.0" fill="#00cc44" r="2.5" stroke="#4c4c4c" stroke-width="0.5" /><circle cx="160.0" cy="625.0" fill="#ffaa00" r="2.5" stroke="#4c4c4c" stroke-width="0.5" /><circle cx="168.0" cy="641.6666666666667" fill="#00cc44" r="2.5" stroke="#4c4c4c" stroke-width="0.5" /><circle cx="160.0" cy="641.6666666666667" fill="#ffaa00" r="2.5" stroke="#4c4c4c" stroke-width="0.5" /><line stroke="#4c4c4c" stroke-width="0.6" x1="106.0" x2="118.0" y1="605.0" y2="605.0" /><line stroke="#4c4c4c" stroke-width="0.6" x1="106.0" x2="118.0" y1="608.3333333333334" y2="608.3333333333334" /><line stroke="#4c4c4c" stroke-width="0.6" x1="106.0" x2="118.0" y1="611.6666666666666" y2="611.6666666666666" /><line stroke="#4c4c4c" stroke-width="0.6" x1="106.0" x2="118.0" y1="621.6666666666666" y2="621.6666666666666" /><line stroke="#4c4c4c" stroke-width="0.6" x1="106.0" x2="118.0" y1="625.0" y2="625.0" /><line stroke="#4c4c4c" stroke-width="0.6" x1="106.0" x2="118.0" y1="628.3333333333333" y2="628.3333333333333" /><line stroke="#4c4c4c" stroke-width="0.6" x1="106.0" x2="118.0" y1="638.3333333333334" y2="638.3333333333334" /><line stroke="#4c4c4c" stroke-width="0.6" x1="106.0" x2="118.0" y1="641.6666666666667" y2="641.6666666666667" /><line stroke="#4c4c4c" stroke-width="0.6" x1="106.0" x2="118.0" y1="645.0" y2="645.0" /></g><g id="iterative"><ellipse cx="175.4402361467521" cy="923.0" fill="url(#gradient-iterative)" rx="36.0" ry="11.0" stroke="#595959" stroke-width="0.8" /><circle cx="175.4402361467521" cy="911.0" fill="url(#gradient-iterative)" r="17.0" stroke="#595959" stroke-width="0.8" /><circle cx="161.4402361467521" cy="917.0" fill="url(#gradient-iterative)" r="13.0" stroke="#595959" stroke-width="0.8" /><circle cx="189.4402361467521" cy="917.0" fill="url(#gradient-iterative)" r="13.0" stroke="#595959" stroke-width="0.8" /><ellipse cx="175.4402361467521" cy="919.0" fill="url(#gradient-iterative)" rx="30.4" ry="14.000000000000002" stroke="none" /></g><g id="validation"><rect fill="url(#gradient-validation)" height="50" rx="4" ry="4" stroke="black" stroke-width="1.2" width="80" x="460.0" y="600.0" /><line stroke="#4c4c4c" stroke-width="0.8" x1="462.0" x2="538.0" y1="616.6666666666666" y2="616.6666666666666" /><line stroke="#4c4c4c" stroke-width="0.8" x1="462.0" x2="538.0" y1="633.3333333333334" y2="633.3333333333334" /><circle cx="528.0" cy="608.3333333333334" fill="#00cc44" r="2.5" stroke="#4c4c4c" stroke-width="0.5" /><circle cx="520.0" cy="608.3333333333334" fill="#ffaa00" r="2.5" stroke="#4c4c4c" stroke-width="0.5" /><circle cx="528.0" cy="625.0" fill="#00cc44" r="2.5" stroke="#4c4c4c" stroke-width="0.5" /><circle cx="520.0" cy="625.0" fill="#ffaa00" r="2.5" stroke="#4c4c4c" stroke-width="0.5" /><circle cx="528.0" cy="641.6666666666667" fill="#00cc44" r="2.5" stroke="#4c4c4c" stroke-width="0.5" /><circle cx="520.0" cy="641.6666666666667" fill="#ffaa00" r="2.5" stroke="#4c4c4c" stroke-width="0.5" /><line stroke="#4c4c4c" stroke-width="0.6" x1="466.0" x2="478.0" y1="605.0" y2="605.0" /><line stroke="#4c4c4c" stroke-width="0.6" x1="466.0" x2="478.0" y1="608.3333333333334" y2="608.3333333333334" /><line stroke="#4c4c4c" stroke-width="0.6" x1="466.0" x2="478.0" y1="611.6666666666666" y2="611.6666666666666" /><line stroke="#4c4c4c" stroke-width="0.6" x1="466.0" x2="478.0" y1="621.6666666666666" y2="621.6666666666666" /><line stroke="#4c4c4c" stroke-width="0.6" x1="466.0" x2="478.0" y1="625.0" y2="625.0" /><line stroke="#4c4c4c" stroke-width="0.6" x1="466.0" x2="478.0" y1="628.3333333333333" y2="628.3333333333333" /><line stroke="#4c4c4c" stroke-width="0.6" x1="466.0" x2="478.0" y1="638.3333333333334" y2="638.3333333333334" /><line stroke="#4c4c4c" stroke-width="0.6" x1="466.0" x2="478.0" y1="641.6666666666667" y2="641.6666666666667" /><line stroke="#4c4c4c" stroke-width="0.6" x1="466.0" x2="478.0" y1="645.0" y2="645.0" /></g><g id="output"><rect fill="url(#gradient-output)" height="30.0" stroke="none" width="67.2" x="346.4" y="610.0" /><line stroke="black" stroke-width="1.2" x1="346.4" x2="346.4" y1="610.0" y2="640.0" /><line stroke="black" stroke-width="1.2" x1="413.6" x2="413.6" y1="610.0" y2="640.0" /><ellipse cx="380.0" cy="640.0" fill="url(#gradient-output)" rx="33.6" ry="8" stroke="black" stroke-width="1.2" /><ellipse cx="380.0" cy="610.0" fill="#b1f3b1" rx="33.6" ry="8" stroke="black" stroke-width="1.2" /><ellipse cx="380.0" cy="620.0" fill="none" rx="33.6" ry="4.8" stroke="#568e56" stroke-width="0.6" /><ellipse cx="380.0" cy="630.0" fill="none" rx="33.6" ry="4.8" stroke="#568e56" stroke-width="0.6" /></g><line marker-end="url(#arrow-end)" marker-start="url(#circle-start)" stroke="black" stroke-width="2" x1="415.44023614674717" x2="415.44023614675194" y1="77.0" y2="908.0" /><line marker-end="url(#arrow-end)" marker-start="url(#circle-start)" stroke="black" stroke-width="2" x1="402.1693779943549" x2="164.37364329782534" y1="910.8815466774255" y2="389.11845332257457" /><line marker-end="url(#arrow-end)" marker-start="url(#circle-start)" stroke="black" stroke-width="2" x1="407.86629332143417" x2="278.6767279707461" y1="908.9092394741008" y2="378.59076052589927" /><line marker-end="url(#arrow-end)" marker-start="url(#circle-start)" stroke="black" stroke-width="2" x1="414.1269158809964" x2="392.4161054111838" y1="908.0269615163095" y2="379.4730384836905" /><line marker-end="url(#arrow-end)" marker-start="url(#circle-start)" stroke="black" stroke-width="2" x1="162.3520668227328" x2="248.75071832269532" y1="389.9575309687674" y2="620.0424690312326" /><line marker-end="url(#arrow-end)" marker-start="url(#circle-start)" stroke="black" stroke-width="2" x1="269.92906595909056" x2="261.17371918633756" y1="379.47846749410644" y2="618.0215325058936" /><line marker-end="url(#arrow-end)" marker-start="url(#circle-start)" stroke="black" stroke-width="2" x1="378.3777576189656" x2="272.72502752646255" y1="376.8610911658741" y2="620.6389088341259" /><line marker-end="url(#arrow-end)" marker-start="url(#circle-start)" stroke="black" stroke-width="2" x1="263.88176760804083" x2="291.5584685387113" y1="681.7636880767515" y2="908.2363119232485" /><line marker-end="url(#arrow-end)" marker-start="url(#circle-start)" stroke="black" stroke-width="2" x1="306.59283722670904" x2="499.9501840654712" y1="910.0063425179366" y2="389.9936574820635" /><line marker-end="url(#arrow-end)" marker-start="url(#circle-start)" stroke="black" stroke-width="2" x1="503.1875238289895" x2="293.7292921617937" y1="391.0056226883527" y2="1211.4943773116472" /><line marker-end="url(#arrow-end)" marker-start="url(#circle-start)" stroke="black" stroke-width="2" x1="278.1670097509869" x2="147.64702109436817" y1="1211.427132923042" y2="681.0728670769578" /><line marker-end="url(#arrow-end)" marker-start="url(#circle-start)" stroke="black" stroke-width="2" x1="144.05387536121717" x2="170.37289194523066" y1="681.7421816287998" y2="887.8222729640003" /><line marker-end="url(#circle-end)" marker-start="url(#arrow-start)" stroke="black" stroke-width="2" x1="188.66746889493066" x2="275.23224464681226" y1="965.2497061422405" y2="1212.3002350862075" /><line marker-end="url(#arrow-end)" marker-start="url(#circle-start)" stroke="black" stroke-width="2" x1="296.49337957152875" x2="489.32065127382634" y1="1212.3345974536262" y2="667.6654025463738" /><line marker-end="url(#circle-end)" marker-start="url(#arrow-start)" stroke="black" stroke-width="2" x1="491.38509168932063" x2="424.0551444574315" y1="668.3185553652112" y2="909.1814446347888" /><line marker-end="url(#arrow-end)" marker-start="url(#circle-start)" stroke="black" stroke-width="2" x1="468.1722109154951" x2="411.8277890845049" y1="634.1846053036974" y2="628.3153946963026" /><text fill="black" filter="url(#text-glow)" font-family="Arial, sans-serif" font-size="14px" text-anchor="start" x="468.040236146747" y="45.0">Layout</text><text fill="black" filter="url(#text-glow)" font-family="Arial, sans-serif" font-size="14px" text-anchor="start" x="468.040236146747" y="63.0">(Input)</text><text fill="black" filter="url(#text-glow)" font-family="Arial, sans-serif" font-size="14px" text-anchor="start" x="468.04023614675214" y="961.0">Fase 0: Preparación</text><text fill="black" filter="url(#text-glow)" font-family="Arial, sans-serif" font-size="14px" text-anchor="start" x="468.04023614675214" y="979.0">- Calcular posiciones faltantes</text><text fill="black" filter="url(#text-glow)" font-family="Arial, sans-serif" font-size="14px" text-anchor="start" x="468.04023614675214" y="997.0">- Calcular dimensiones contenedores</text><text fill="black" filter="url(#text-glow)" font-family="Arial, sans-serif" font-size="14px" text-anchor="start" x="468.04023614675214" y="1015.0">- Calcular rutas de conexiones</text><text fill="black" filter="url(#text-glow)" font-family="Arial, sans-serif" font-size="14px" text-anchor="start" x="203.70278514542812" y="289.0">AutoLayoutPositioner v4.0</text><text fill="black" filter="url(#text-glow)" font-family="Arial, sans-serif" font-size="14px" text-anchor="start" x="203.70278514542812" y="307.0">1. Resolver contenedores</text><text fill="black" filter="url(#text-glow)" font-family="Arial, sans-serif" font-size="14px" text-anchor="start" x="203.70278514542812" y="325.0">2. Topología + centralidad + resolución</text><text fill="black" filter="url(#text-glow)" font-family="Arial, sans-serif" font-size="14px" text-anchor="start" x="203.70278514542812" y="343.0">3. Barycenter + Position Opt.</text><text fill="black" filter="url(#text-glow)" font-family="Arial, sans-serif" font-size="14px" text-anchor="start" x="203.70278514542812" y="361.0">4. Escala X global</text><text fill="black" filter="url(#text-glow)" font-family="Arial, sans-serif" font-size="14px" text-anchor="start" x="323.70278514542815" y="381.0">ContainerCalculator</text><text fill="black" filter="url(#text-glow)" font-family="Arial, sans-serif" font-size="14px" text-anchor="start" x="323.70278514542815" y="399.0">- Calcular bounds</text><text fill="black" filter="url(#text-glow)" font-family="Arial, sans-serif" font-size="14px" text-anchor="start" x="323.70278514542815" y="417.0">- Considerar íconos + etiquetas</text><text fill="black" filter="url(#text-glow)" font-family="Arial, sans-serif" font-size="14px" text-anchor="start" x="323.70278514542815" y="435.0">- Aplicar padding</text><text fill="black" filter="url(#text-glow)" font-family="Arial, sans-serif" font-size="14px" text-anchor="start" x="443.70278514542815" y="289.0">RouterManager</text><text fill="black" filter="url(#text-glow)" font-family="Arial, sans-serif" font-size="14px" text-anchor="start" x="443.70278514542815" y="307.0">- Calcular paths</text><text fill="black" filter="url(#text-glow)" font-family="Arial, sans-serif" font-size="14px" text-anchor="start" x="443.70278514542815" y="325.0">- Intersección con bordes</text><text fill="black" filter="url(#text-glow)" font-family="Arial, sans-serif" font-size="14px" text-anchor="start" x="443.70278514542815" y="343.0">- Extensión para markers</text><text fill="black" filter="url(#text-glow)" font-family="Arial, sans-serif" font-size="14px" text-anchor="middle" x="260.0" y="671.0">Fase 1: Análisis</text><text fill="black" filter="url(#text-glow)" font-family="Arial, sans-serif" font-size="14px" text-anchor="middle" x="260.0" y="689.0">- Niveles topológicos (longest-path)</text><text fill="black" filter="url(#text-glow)" font-family="Arial, sans-serif" font-size="14px" text-anchor="middle" x="260.0" y="707.0">- Centralidad (degree-based)</text><text fill="black" filter="url(#text-glow)" font-family="Arial, sans-serif" font-size="14px" text-anchor="middle" x="260.0" y="725.0">- Resolución conexiones a primarios</text><text fill="black" filter="url(#text-glow)" font-family="Arial, sans-serif" font-size="14px" text-anchor="middle" x="260.0" y="743.0">- Grupos conectados</text><text fill="black" filter="url(#text-glow)" font-family="Arial, sans-serif" font-size="14px" text-anchor="start" x="348.04023614675214" y="961.0">Fase 2: Optimización Etiquetas</text><text fill="black" filter="url(#text-glow)" font-family="Arial, sans-serif" font-size="14px" text-anchor="start" x="348.04023614675214" y="979.0">- Generar posiciones candidatas</text><text fill="black" filter="url(#text-glow)" font-family="Arial, sans-serif" font-size="14px" text-anchor="start" x="348.04023614675214" y="997.0">- Evaluar colisiones</text><text fill="black" filter="url(#text-glow)" font-family="Arial, sans-serif" font-size="14px" text-anchor="start" x="348.04023614675214" y="1015.0">- Minimizar densidad local</text><text fill="black" filter="url(#text-glow)" font-family="Arial, sans-serif" font-size="14px" text-anchor="start" x="563.7027851454282" y="381.0">LabelPositionOptimizer</text><text fill="black" filter="url(#text-glow)" font-family="Arial, sans-serif" font-size="14px" text-anchor="start" x="563.7027851454282" y="399.0">- Score basado en colisiones</text><text fill="black" filter="url(#text-glow)" font-family="Arial, sans-serif" font-size="14px" text-anchor="start" x="563.7027851454282" y="417.0">- Penalización por densidad</text><text fill="black" filter="url(#text-glow)" font-family="Arial, sans-serif" font-size="14px" text-anchor="start" x="563.7027851454282" y="435.0">- Preferencias por categoría</text><text fill="black" filter="url(#text-glow)" font-family="Arial, sans-serif" font-size="14px" text-anchor="start" x="338.4140308453551" y="1251.0">Fase 3: Resolución Colisiones</text><text fill="black" filter="url(#text-glow)" font-family="Arial, sans-serif" font-size="14px" text-anchor="start" x="338.4140308453551" y="1269.0">- Detectar solapamientos</text><text fill="black" filter="url(#text-glow)" font-family="Arial, sans-serif" font-size="14px" text-anchor="start" x="338.4140308453551" y="1287.0">- Calcular fuerzas de repulsión</text><text fill="black" filter="url(#text-glow)" font-family="Arial, sans-serif" font-size="14px" text-anchor="start" x="338.4140308453551" y="1305.0">- Aplicar desplazamientos</text><text fill="black" filter="url(#text-glow)" font-family="Arial, sans-serif" font-size="14px" text-anchor="start" x="338.4140308453551" y="1323.0">- Recalcular routing</text><text fill="black" filter="url(#text-glow)" font-family="Arial, sans-serif" font-size="14px" text-anchor="middle" x="140.0" y="671.0">CollisionDetector</text><text fill="black" filter="url(#text-glow)" font-family="Arial, sans-serif" font-size="14px" text-anchor="middle" x="140.0" y="689.0">- Detectar overlaps</text><text fill="black" filter="url(#text-glow)" font-family="Arial, sans-serif" font-size="14px" text-anchor="middle" x="140.0" y="707.0">- Calcular vectores</text><text fill="black" filter="url(#text-glow)" font-family="Arial, sans-serif" font-size="14px" text-anchor="middle" x="140.0" y="725.0">- Peso por tamaño (hp/wp)</text><text fill="black" filter="url(#text-glow)" font-family="Arial, sans-serif" font-size="14px" text-anchor="middle" x="175.4402361467521" y="869.0">Iteración</text><text fill="black" filter="url(#text-glow)" font-family="Arial, sans-serif" font-size="14px" text-anchor="middle" x="175.4402361467521" y="887.0">Hasta 100 iteraciones</text><text fill="black" filter="url(#text-glow)" font-family="Arial, sans-serif" font-size="14px" text-anchor="middle" x="175.4402361467521" y="905.0">o convergencia</text><text fill="black" filter="url(#text-glow)" font-family="Arial, sans-serif" font-size="14px" text-anchor="start" x="552.6" y="625.0">Validación</text><text fill="black" filter="url(#text-glow)" font-family="Arial, sans-serif" font-size="14px" text-anchor="start" x="552.6" y="643.0">- Verificar canvas bounds</text><text fill="black" filter="url(#text-glow)" font-family="Arial, sans-serif" font-size="14px" text-anchor="start" x="552.6" y="661.0">- Expandir si necesario</text><text fill="black" filter="url(#text-glow)" font-family="Arial, sans-serif" font-size="14px" text-anchor="start" x="552.6" y="679.0">- Recalcular estructuras</text><text fill="black" filter="url(#text-glow)" font-family="Arial, sans-serif" font-size="14px" text-anchor="start" x="432.6" y="579.0">Layout</text><text fill="black" filter="url(#text-glow)" font-family="Arial, sans-serif" font-size="14px" text-anchor="start" x="432.6" y="597.0">(Optimizado)</text><text fill="gray" filter="url(#text-glow)" font-family="Arial, sans-serif" font-size="12px" text-anchor="end" x="364.64023614674954" y="492.5">1</text><text fill="gray" filter="url(#text-glow)" font-family="Arial, sans-serif" font-size="12px" text-anchor="end" x="232.4715106460901" y="650.0">calc pos</text><text fill="gray" filter="url(#text-glow)" font-family="Arial, sans-serif" font-size="12px" text-anchor="middle" x="343.2715106460901" y="686.75">calc dims</text><text fill="gray" filter="url(#text-glow)" font-family="Arial, sans-serif" font-size="12px" text-anchor="start" x="454.07151064609013" y="600.75">calc paths</text><text fill="gray" filter="url(#text-glow)" font-family="Arial, sans-serif" font-size="12px" text-anchor="middle" x="277.72011807337606" y="838.0">2</text><text fill="gray" filter="url(#text-glow)" font-family="Arial, sans-serif" font-size="12px" text-anchor="start" x="454.07151064609013" y="693.0">optimize</text><text fill="gray" filter="url(#text-glow)" font-family="Arial, sans-serif" font-size="12px" text-anchor="end" x="162.10701542267753" y="989.25">detect</text><text fill="gray" filter="url(#text-glow)" font-family="Arial, sans-serif" font-size="12px" text-anchor="end" x="106.4133836532239" y="784.7822272964">resolve</text><text fill="gray" filter="url(#text-glow)" font-family="Arial, sans-serif" font-size="12px" text-anchor="end" x="181.14985677087145" y="1088.774970614224">repeat</text><text fill="gray" filter="url(#text-glow)" font-family="Arial, sans-serif" font-size="12px" text-anchor="end" x="342.10701542267753" y="940.0">validate</text><text fill="gray" filter="url(#text-glow)" font-family="Arial, sans-serif" font-size="12px" text-anchor="start" x="508.52011807337607" y="788.75">recalc if expanded</text><text fill="gray" filter="url(#text-glow)" font-family="Arial, sans-serif" font-size="12px" text-anchor="end" x="389.2" y="588.25">done</text></svg>