<?xml version="1.0" encoding="utf-8" ?>
<svg baseProfile="full" height="1400" version="1.1" viewBox="0,0,1800,1400" width="1800" xmlns="http://www.w3.org/2000/svg" xmlns:ev="http://www.w3.org/2001/xml-events" xmlns:xlink="http://www.w3.org/1999/xlink"><defs><filter height="140%" id="text-glow" width="140%" x="-20%" y="-20%"><feGaussianBlur in="SourceGraphic" result="blur" stdDeviation="2" /><feFlood flood-color="white" flood-opacity="1" result="color" /><feComposite in="color" in2="blur" operator="in" result="shadow" /><feMerge><feMergeNode in="shadow" /><feMergeNode in="shadow" /><feMergeNode in="SourceGraphic" /></feMerge></filter><marker id="arrow-end" markerHeight="10" markerWidth="10" orient="auto" refX="10" refY="5"><path d="M 0 0 L 10 5 L 0 10 z" fill="black" /></marker><marker id="arrow-start" markerHeight="10" markerWidth="10" orient="auto" refX="0" refY="5"><path d="M 10 0 L 0 5 L 10 10 z" fill="black" /></marker><marker id="circle-start" markerHeight="10" markerWidth="10" orient="auto" refX="5" refY="5"><circle cx="5" cy="5" fill="black" r="4" /></marker><marker id="circle-end" markerHeight="10" markerWidth="10" orient="auto" refX="5" refY="5"><circle cx="5" cy="5" fill="black" r="4" /></marker><linearGradient id="gradient-input" x1="0%" x2="0%" y1="0%" y2="100%"><stop offset="0%" stop-color="#c5e3ed" /><stop offset="100%" stop-color="#7997a1" /></linearGradient><linearGradient id="gradient-phase0" x1="0%" x2="0%" y1="0%" y2="100%"><stop offset="0%" stop-color="#ffe34c" /><stop offset="100%" stop-color="#b29600" /></linearGradient><linearGradient id="gradient-positioner" x1="0%" x2="0%" y1="0%" y2="100%"><stop offset="0%" stop-color="#ffffe9" /><stop offset="100%" stop-color="#b2b29c" /></linearGradient><linearGradient id="gradient-container-calc" x1="0%" x2="0%" y1="0%" y2="100%"><stop offset="0%" stop-color="#ffffe9" /><stop offset="100%" stop-color="#b2b29c" /></linearGradient><linearGradient id="gradient-router" x1="0%" x2="0%" y1="0%" y2="100%"><stop offset="0%" stop-color="#ffffe9" /><stop offset="100%" stop-color="#b2b29c" /></linearGradient><linearGradient id="gradient-phase1" x1="0%" x2="0%" y1="0%" y2="100%"><stop offset="0%" stop-color="#ffc04c" /><stop offset="100%" stop-color="#b27300" /></linearGradient><linearGradient id="gradient-phase2" x1="0%" x2="0%" y1="0%" y2="100%"><stop offset="0%" stop-color="#4cffff" /><stop offset="100%" stop-color="#00b2b2" /></linearGradient><linearGradient id="gradient-label-optimizer" x1="0%" x2="0%" y1="0%" y2="100%"><stop offset="0%" stop-color="#a6a6a6" /><stop offset="100%" stop-color="#595959" /></linearGradient><linearGradient id="gradient-phase3" x1="0%" x2="0%" y1="0%" y2="100%"><stop offset="0%" stop-color="#ff917e" /><stop offset="100%" stop-color="#b24531" /></linearGradient><linearGradient id="gradient-collision-detector" x1="0%" x2="0%" y1="0%" y2="100%"><stop offset="0%" stop-color="#a6a6a6" /><stop offset="100%" stop-color="#595959" /></linearGradient><linearGradient id="gradient-iterative" x1="0%" x2="0%" y1="0%" y2="100%"><stop offset="0%" stop-color="#a6a6a6" /><stop offset="100%" stop-color="#595959" /></linearGradient><linearGradient id="gradient-validation" x1="0%" x2="0%" y1="0%" y2="100%"><stop offset="0%" stop-color="#a6a6a6" /><stop offset="100%" stop-color="#595959" /></linearGradient><linearGradient id="gradient-output" x1="0%" x2="0%" y1="0%" y2="100%"><stop offset="0%" stop-color="#b1f3b1" /><stop offset="100%" stop-color="#64a664" /></linearGradient></defs><g id="input"><rect fill="url(#gradient-input)" height="30.0" stroke="none" width="67.2" x="296.0759652349061" y="30.0" /><line stroke="black" stroke-width="1.2" x1="296.0759652349061" x2="296.0759652349061" y1="30.0" y2="60.0" /><line stroke="black" stroke-width="1.2" x1="363.27596523490615" x2="363.27596523490615" y1="30.0" y2="60.0" /><ellipse cx="329.67596523490613" cy="60.0" fill="url(#gradient-input)" rx="33.6" ry="8" stroke="black" stroke-width="1.2" /><ellipse cx="329.67596523490613" cy="30.0" fill="#c5e3ed" rx="33.6" ry="8" stroke="black" stroke-width="1.2" /><ellipse cx="329.67596523490613" cy="40.0" fill="none" rx="33.6" ry="4.8" stroke="#67818a" stroke-width="0.6" /><ellipse cx="329.67596523490613" cy="50.0" fill="none" rx="33.6" ry="4.8" stroke="#67818a" stroke-width="0.6" /></g><g id="phase0"><rect fill="url(#gradient-phase0)" height="46" rx="2" ry="2" stroke="black" stroke-width="1.2" width="64" x="297.6759652349044" y="1184.0" /><polygon fill="#7f6b00" points="293.6759652349044,1184.0 329.6759652349044,1174.0 365.6759652349044,1184.0" stroke="black" stroke-width="1.0" /><rect fill="#ffeb7f" height="7" stroke="#7f6b00" stroke-width="0.7" width="10" x="304.6759652349044" y="1190.0" /><line stroke="#7f6b00" stroke-width="0.5" x1="309.6759652349044" x2="309.6759652349044" y1="1190.0" y2="1197.0" /><line stroke="#7f6b00" stroke-width="0.5" x1="304.6759652349044" x2="314.6759652349044" y1="1193.5" y2="1193.5" /><rect fill="#ffeb7f" height="7" stroke="#7f6b00" stroke-width="0.7" width="10" x="324.6759652349044" y="1190.0" /><line stroke="#7f6b00" stroke-width="0.5" x1="329.6759652349044" x2="329.6759652349044" y1="1190.0" y2="1197.0" /><line stroke="#7f6b00" stroke-width="0.5" x1="324.6759652349044" x2="334.6759652349044" y1="1193.5" y2="1193.5" /><rect fill="#ffeb7f" height="7" stroke="#7f6b00" stroke-width="0.7" width="10" x="344.6759652349044" y="1190.0" /><line stroke="#7f6b00" stroke-width="0.5" x1="349.6759652349044" x2="349.6759652349044" y1="1190.0" y2="1197.0" /><line stroke="#7f6b00" stroke-width="0.5" x1="344.6759652349044" x2="354.6759652349044" y1="1193.5" y2="1193.5" /><rect fill="#ffeb7f" height="7" stroke="#7f6b00" stroke-width="0.7" width="10" x="304.6759652349044" y="1204.0" /><line stroke="#7f6b00" stroke-width="0.5" x1="309.6759652349044" x2="309.6759652349044" y1="1204.0" y2="1211.0" /><line stroke="#7f6b00" stroke-width="0.5" x1="304.6759652349044" x2="314.6759652349044" y1="1207.5" y2="1207.5" /><rect fill="#ffeb7f" height="7" stroke="#7f6b00" stroke-width="0.7" width="10" x="324.6759652349044" y="1204.0" /><line stroke="#7f6b00" stroke-width="0.5" x1="329.6759652349044" x2="329.6759652349044" y1="1204.0" y2="1211.0" /><line stroke="#7f6b00" stroke-width="0.5" x1="324.6759652349044" x2="334.6759652349044" y1="1207.5" y2="1207.5" /><rect fill="#ffeb7f" height="7" stroke="#7f6b00" stroke-width="0.7" width="10" x="344.6759652349044" y="1204.0" /><line stroke="#7f6b00" stroke-width="0.5" x1="349.6759652349044" x2="349.6759652349044" y1="1204.0" y2="1211.0" /><line stroke="#7f6b00" stroke-width="0.5" x1="344.6759652349044" x2="354.6759652349044" y1="1207.5" y2="1207.5" /><rect fill="#7f6b00" height="12" stroke="black" stroke-width="0.8" width="10" x="324.6759652349044" y="1218.0" /><circle cx="332.1759652349044" cy="1224.0" fill="#ffeb7f" r="1.2" /></g><g id="positioner"><rect fill="url(#gradient-positioner)" height="50" rx="4" ry="4" stroke="black" stroke-width="1.2" width="80" x="100.0" y="600.0" /><line stroke="#999986" stroke-width="0.8" x1="102.0" x2="178.0" y1="616.6666666666666" y2="616.6666666666666" /><line stroke="#999986" stroke-width="0.8" x1="102.0" x2="178.0" y1="633.3333333333334" y2="633.3333333333334" /><circle cx="168.0" cy="608.3333333333334" fill="#00cc44" r="2.5" stroke="#999986" stroke-width="0.5" /><circle cx="160.0" cy="608.3333333333334" fill="#ffaa00" r="2.5" stroke="#999986" stroke-width="0.5" /><circle cx="168.0" cy="625.0" fill="#00cc44" r="2.5" stroke="#999986" stroke-width="0.5" /><circle cx="160.0" cy="625.0" fill="#ffaa00" r="2.5" stroke="#999986" stroke-width="0.5" /><circle cx="168.0" cy="641.6666666666667" fill="#00cc44" r="2.5" stroke="#999986" stroke-width="0.5" /><circle cx="160.0" cy="641.6666666666667" fill="#ffaa00" r="2.5" stroke="#999986" stroke-width="0.5" /><line stroke="#999986" stroke-width="0.6" x1="106.0" x2="118.0" y1="605.0" y2="605.0" /><line stroke="#999986" stroke-width="0.6" x1="106.0" x2="118.0" y1="608.3333333333334" y2="608.3333333333334" /><line stroke="#999986" stroke-width="0.6" x1="106.0" x2="118.0" y1="611.6666666666666" y2="611.6666666666666" /><line stroke="#999986" stroke-width="0.6" x1="106.0" x2="118.0" y1="621.6666666666666" y2="621.6666666666666" /><line stroke="#999986" stroke-width="0.6" x1="106.0" x2="118.0" y1="625.0" y2="625.0" /><line stroke="#999986" stroke-width="0.6" x1="106.0" x2="118.0" y1="628.3333333333333" y2="628.3333333333333" /><line stroke="#999986" stroke-width="0.6" x1="106.0" x2="118.0" y1="638.3333333333334" y2="638.3333333333334" /><line stroke="#999986" stroke-width="0.6" x1="106.0" x2="118.0" y1="641.6666666666667" y2="641.6666666666667" /><line stroke="#999986" stroke-width="0.6" x1="106.0" x2="118.0" y1="645.0" y2="645.0" /></g><g id="container-calc"><rect fill="url(#gradient-container-calc)" height="50" rx="4" ry="4" stroke="black" stroke-width="1.2" width="80" x="220.0" y="600.0" /><line stroke="#999986" stroke-width="0.8" x1="222.0" x2="298.0" y1="616.6666666666666" y2="616.6666666666666" /><line stroke="#999986" stroke-width="0.8" x1="222.0" x2="298.0" y1="633.3333333333334" y2="633.3333333333334" /><circle cx="288.0" cy="608.3333333333334" fill="#00cc44" r="2.5" stroke="#999986" stroke-width="0.5" /><circle cx="280.0" cy="608.3333333333334" fill="#ffaa00" r="2.5" stroke="#999986" stroke-width="0.5" /><circle cx="288.0" cy="625.0" fill="#00cc44" r="2.5" stroke="#999986" stroke-width="0.5" /><circle cx="280.0" cy="625.0" fill="#ffaa00" r="2.5" stroke="#999986" stroke-width="0.5" /><circle cx="288.0" cy="641.6666666666667" fill="#00cc44" r="2.5" stroke="#999986" stroke-width="0.5" /><circle cx="280.0" cy="641.6666666666667" fill="#ffaa00" r="2.5" stroke="#999986" stroke-width="0.5" /><line stroke="#999986" stroke-width="0.6" x1="226.0" x2="238.0" y1="605.0" y2="605.0" /><line stroke="#999986" stroke-width="0.6" x1="226.0" x2="238.0" y1="608.3333333333334" y2="608.3333333333334" /><line stroke="#999986" stroke-width="0.6" x1="226.0" x2="238.0" y1="611.6666666666666" y2="611.6666666666666" /><line stroke="#999986" stroke-width="0.6" x1="226.0" x2="238.0" y1="621.6666666666666" y2="621.6666666666666" /><line stroke="#999986" stroke-width="0.6" x1="226.0" x2="238.0" y1="625.0" y2="625.0" /><line stroke="#999986" stroke-width="0.6" x1="226.0" x2="238.0" y1="628.3333333333333" y2="628.3333333333333" /><line stroke="#999986" stroke-width="0.6" x1="226.0" x2="238.0" y1="638.3333333333334" y2="638.3333333333334" /><line stroke="#999986" stroke-width="0.6" x1="226.0" x2="238.0" y1="641.6666666666667" y2="641.6666666666667" /><line stroke="#999986" stroke-width="0.6" x1="226.0" x2="238.0" y1="645.0" y2="645.0" /></g><g id="router"><rect fill="url(#gradient-router)" height="50" rx="4" ry="4" stroke="black" stroke-width="1.2" width="80" x="340.0" y="600.0" /><line stroke="#999986" stroke-width="0.8" x1="342.0" x2="418.0" y1="616.6666666666666" y2="616.6666666666666" /><line stroke="#999986" stroke-width="0.8" x1="342.0" x2="418.0" y1="633.3333333333334" y2="633.3333333333334" /><circle cx="408.0" cy="608.3333333333334" fill="#00cc44" r="2.5" stroke="#999986" stroke-width="0.5" /><circle cx="400.0" cy="608.3333333333334" fill="#ffaa00" r="2.5" stroke="#999986" stroke-width="0.5" /><circle cx="408.0" cy="625.0" fill="#00cc44" r="2.5" stroke="#999986" stroke-width="0.5" /><circle cx="400.0" cy="625.0" fill="#ffaa00" r="2.5" stroke="#999986" stroke-width="0.5" /><circle cx="408.0" cy="641.6666666666667" fill="#00cc44" r="2.5" stroke="#999986" stroke-width="0.5" /><circle cx="400.0" cy="641.6666666666667" fill="#ffaa00" r="2.5" stroke="#999986" stroke-width="0.5" /><line stroke="#999986" stroke-width="0.6" x1="346.0" x2="358.0" y1="605.0" y2="605.0" /><line stroke="#999986" stroke-width="0.6" x1="346.0" x2="358.0" y1="608.3333333333334" y2="608.3333333333334" /><line stroke="#999986" stroke-width="0.6" x1="346.0" x2="358.0" y1="611.6666666666666" y2="611.6666666666666" /><line stroke="#999986" stroke-width="0.6" x1="346.0" x2="358.0" y1="621.6666666666666" y2="621.6666666666666" /><line stroke="#999986" stroke-width="0.6" x1="346.0" x2="358.0" y1="625.0" y2="625.0" /><line stroke="#999986" stroke-width="0.6" x1="346.0" x2="358.0" y1="628.3333333333333" y2="628.3333333333333" /><line stroke="#999986" stroke-width="0.6" x1="346.0" x2="358.0" y1="638.3333333333334" y2="638.3333333333334" /><line stroke="#999986" stroke-width="0.6" x1="346.0" x2="358.0" y1="641.6666666666667" y2="641.6666666666667" /><line stroke="#999986" stroke-width="0.6" x1="346.0" x2="358.0" y1="645.0" y2="645.0" /></g><g id="phase1"><rect fill="url(#gradient-phase1)" height="46" rx="2" ry="2" stroke="black" stroke-width="1.2" width="64" x="173.17496425209401" y="894.0" /><polygon fill="#7f5200" points="169.17496425209401,894.0 205.17496425209401,884.0 241.17496425209401,894.0" stroke="black" stroke-width="1.0" /><rect fill="#ffd27f" height="7" stroke="#7f5200" stroke-width="0.7" width="10" x="180.17496425209401" y="900.0" /><line stroke="#7f5200" stroke-width="0.5" x1="185.17496425209401" x2="185.17496425209401" y1="900.0" y2="907.0" /><line stroke="#7f5200" stroke-width="0.5" x1="180.17496425209401" x2="190.17496425209401" y1="903.5" y2="903.5" /><rect fill="#ffd27f" height="7" stroke="#7f5200" stroke-width="0.7" width="10" x="200.17496425209401" y="900.0" /><line stroke="#7f5200" stroke-width="0.5" x1="205.17496425209401" x2="205.17496425209401" y1="900.0" y2="907.0" /><line stroke="#7f5200" stroke-width="0.5" x1="200.17496425209401" x2="210.17496425209401" y1="903.5" y2="903.5" /><rect fill="#ffd27f" height="7" stroke="#7f5200" stroke-width="0.7" width="10" x="220.17496425209401" y="900.0" /><line stroke="#7f5200" stroke-width="0.5" x1="225.17496425209401" x2="225.17496425209401" y1="900.0" y2="907.0" /><line stroke="#7f5200" stroke-width="0.5" x1="220.17496425209401" x2="230.17496425209401" y1="903.5" y2="903.5" /><rect fill="#ffd27f" height="7" stroke="#7f5200" stroke-width="0.7" width="10" x="180.17496425209401" y="914.0" /><line stroke="#7f5200" stroke-width="0.5" x1="185.17496425209401" x2="185.17496425209401" y1="914.0" y2="921.0" /><line stroke="#7f5200" stroke-width="0.5" x1="180.17496425209401" x2="190.17496425209401" y1="917.5" y2="917.5" /><rect fill="#ffd27f" height="7" stroke="#7f5200" stroke-width="0.7" width="10" x="200.17496425209401" y="914.0" /><line stroke="#7f5200" stroke-width="0.5" x1="205.17496425209401" x2="205.17496425209401" y1="914.0" y2="921.0" /><line stroke="#7f5200" stroke-width="0.5" x1="200.17496425209401" x2="210.17496425209401" y1="917.5" y2="917.5" /><rect fill="#ffd27f" height="7" stroke="#7f5200" stroke-width="0.7" width="10" x="220.17496425209401" y="914.0" /><line stroke="#7f5200" stroke-width="0.5" x1="225.17496425209401" x2="225.17496425209401" y1="914.0" y2="921.0" /><line stroke="#7f5200" stroke-width="0.5" x1="220.17496425209401" x2="230.17496425209401" y1="917.5" y2="917.5" /><rect fill="#7f5200" height="12" stroke="black" stroke-width="0.8" width="10" x="200.17496425209401" y="928.0" /><circle cx="207.67496425209401" cy="934.0" fill="#ffd27f" r="1.2" /></g><g id="phase2"><rect fill="url(#gradient-phase2)" height="46" rx="2" ry="2" stroke="black" stroke-width="1.2" width="64" x="177.67596523490442" y="1184.0" /><polygon fill="#007f7f" points="173.67596523490442,1184.0 209.67596523490442,1174.0 245.67596523490442,1184.0" stroke="black" stroke-width="1.0" /><rect fill="#7fffff" height="7" stroke="#007f7f" stroke-width="0.7" width="10" x="184.67596523490442" y="1190.0" /><line stroke="#007f7f" stroke-width="0.5" x1="189.67596523490442" x2="189.67596523490442" y1="1190.0" y2="1197.0" /><line stroke="#007f7f" stroke-width="0.5" x1="184.67596523490442" x2="194.67596523490442" y1="1193.5" y2="1193.5" /><rect fill="#7fffff" height="7" stroke="#007f7f" stroke-width="0.7" width="10" x="204.67596523490442" y="1190.0" /><line stroke="#007f7f" stroke-width="0.5" x1="209.67596523490442" x2="209.67596523490442" y1="1190.0" y2="1197.0" /><line stroke="#007f7f" stroke-width="0.5" x1="204.67596523490442" x2="214.67596523490442" y1="1193.5" y2="1193.5" /><rect fill="#7fffff" height="7" stroke="#007f7f" stroke-width="0.7" width="10" x="224.67596523490442" y="1190.0" /><line stroke="#007f7f" stroke-width="0.5" x1="229.67596523490442" x2="229.67596523490442" y1="1190.0" y2="1197.0" /><line stroke="#007f7f" stroke-width="0.5" x1="224.67596523490442" x2="234.67596523490442" y1="1193.5" y2="1193.5" /><rect fill="#7fffff" height="7" stroke="#007f7f" stroke-width="0.7" width="10" x="184.67596523490442" y="1204.0" /><line stroke="#007f7f" stroke-width="0.5" x1="189.67596523490442" x2="189.67596523490442" y1="1204.0" y2="1211.0" /><line stroke="#007f7f" stroke-width="0.5" x1="184.67596523490442" x2="194.67596523490442" y1="1207.5" y2="1207.5" /><rect fill="#7fffff" height="7" stroke="#007f7f" stroke-width="0.7" width="10" x="204.67596523490442" y="1204.0" /><line stroke="#007f7f" stroke-width="0.5" x1="209.67596523490442" x2="209.67596523490442" y1="1204.0" y2="1211.0" /><line stroke="#007f7f" stroke-width="0.5" x1="204.67596523490442" x2="214.67596523490442" y1="1207.5" y2="1207.5" /><rect fill="#7fffff" height="7" stroke="#007f7f" stroke-width="0.7" width="10" x="224.67596523490442" y="1204.0" /><line stroke="#007f7f" stroke-width="0.5" x1="229.67596523490442" x2="229.67596523490442" y1="1204.0" y2="1211.0" /><line stroke="#007f7f" stroke-width="0.5" x1="224.67596523490442" x2="234.67596523490442" y1="1207.5" y2="1207.5" /><rect fill="#007f7f" height="12" stroke="black" stroke-width="0.8" width="10" x="204.67596523490442" y="1218.0" /><circle cx="212.17596523490442" cy="1224.0" fill="#7fffff" r="1.2" /></g><g id="label-optimizer"><rect fill="url(#gradient-label-optimizer)" height="50" rx="4" ry="4" stroke="black" stroke-width="1.2" width="80" x="460.0" y="600.0" /><line stroke="#4c4c4c" stroke-width="0.8" x1="462.0" x2="538.0" y1="616.6666666666666" y2="616.6666666666666" /><line stroke="#4c4c4c" stroke-width="0.8" x1="462.0" x2="538.0" y1="633.3333333333334" y2="633.3333333333334" /><circle cx="528.0" cy="608.3333333333334" fill="#00cc44" r="2.5" stroke="#4c4c4c" stroke-width="0.5" /><circle cx="520.0" cy="608.3333333333334" fill="#ffaa00" r="2.5" stroke="#4c4c4c" stroke-width="0.5" /><circle cx="528.0" cy="625.0" fill="#00cc44" r="2.5" stroke="#4c4c4c" stroke-width="0.5" /><circle cx="520.0" cy="625.0" fill="#ffaa00" r="2.5" stroke="#4c4c4c" stroke-width="0.5" /><circle cx="528.0" cy="641.6666666666667" fill="#00cc44" r="2.5" stroke="#4c4c4c" stroke-width="0.5" /><circle cx="520.0" cy="641.6666666666667" fill="#ffaa00" r="2.5" stroke="#4c4c4c" stroke-width="0.5" /><line stroke="#4c4c4c" stroke-width="0.6" x1="466.0" x2="478.0" y1="605.0" y2="605.0" /><line stroke="#4c4c4c" stroke-width="0.6" x1="466.0" x2="478.0" y1="608.3333333333334" y2="608.3333333333334" /><line stroke="#4c4c4c" stroke-width="0.6" x1="466.0" x2="478.0" y1="611.6666666666666" y2="611.6666666666666" /><line stroke="#4c4c4c" stroke-width="0.6" x1="466.0" x2="478.0" y1="621.6666666666666" y2="621.6666666666666" /><line stroke="#4c4c4c" stroke-width="0.6" x1="466.0" x2="478.0" y1="625.0" y2="625.0" /><line stroke="#4c4c4c" stroke-width="0.6" x1="466.0" x2="478.0" y1="628.3333333333333" y2="628.3333333333333" /><line stroke="#4c4c4c" stroke-width="0.6" x1="466.0" x2="478.0" y1="638.3333333333334" y2="638.3333333333334" /><line stroke="#4c4c4c" stroke-width="0.6" x1="466.0" x2="478.0" y1="641.6666666666667" y2="641.6666666666667" /><line stroke="#4c4c4c" stroke-width="0.6" x1="466.0" x2="478.0" y1="645.0" y2="645.0" /></g><g id="phase3"><rect fill="url(#gradient-phase3)" height="46" rx="2" ry="2" stroke="black" stroke-width="1.2" width="64" x="653.174964252094" y="894.0" /><polygon fill="#7f3123" points="649.174964252094,894.0 685.174964252094,884.0 721.174964252094,894.0" stroke="black" stroke-width="1.0" /><rect fill="#ffb1a3" height="7" stroke="#7f3123" stroke-width="0.7" width="10" x="660.174964252094" y="900.0" /><line stroke="#7f3123" stroke-width="0.5" x1="665.174964252094" x2="665.174964252094" y1="900.0" y2="907.0" /><line stroke="#7f3123" stroke-width="0.5" x1="660.174964252094" x2="670.174964252094" y1="903.5" y2="903.5" /><rect fill="#ffb1a3" height="7" stroke="#7f3123" stroke-width="0.7" width="10" x="680.174964252094" y="900.0" /><line stroke="#7f3123" stroke-width="0.5" x1="685.174964252094" x2="685.174964252094" y1="900.0" y2="907.0" /><line stroke="#7f3123" stroke-width="0.5" x1="680.174964252094" x2="690.174964252094" y1="903.5" y2="903.5" /><rect fill="#ffb1a3" height="7" stroke="#7f3123" stroke-width="0.7" width="10" x="700.174964252094" y="900.0" /><line stroke="#7f3123" stroke-width="0.5" x1="705.174964252094" x2="705.174964252094" y1="900.0" y2="907.0" /><line stroke="#7f3123" stroke-width="0.5" x1="700.174964252094" x2="710.174964252094" y1="903.5" y2="903.5" /><rect fill="#ffb1a3" height="7" stroke="#7f3123" stroke-width="0.7" width="10" x="660.174964252094" y="914.0" /><line stroke="#7f3123" stroke-width="0.5" x1="665.174964252094" x2="665.174964252094" y1="914.0" y2="921.0" /><line stroke="#7f3123" stroke-width="0.5" x1="660.174964252094" x2="670.174964252094" y1="917.5" y2="917.5" /><rect fill="#ffb1a3" height="7" stroke="#7f3123" stroke-width="0.7" width="10" x="680.174964252094" y="914.0" /><line stroke="#7f3123" stroke-width="0.5" x1="685.174964252094" x2="685.174964252094" y1="914.0" y2="921.0" /><line stroke="#7f3123" stroke-width="0.5" x1="680.174964252094" x2="690.174964252094" y1="917.5" y2="917.5" /><rect fill="#ffb1a3" height="7" stroke="#7f3123" stroke-width="0.7" width="10" x="700.174964252094" y="914.0" /><line stroke="#7f3123" stroke-width="0.5" x1="705.174964252094" x2="705.174964252094" y1="914.0" y2="921.0" /><line stroke="#7f3123" stroke-width="0.5" x1="700.174964252094" x2="710.174964252094" y1="917.5" y2="917.5" /><rect fill="#7f3123" height="12" stroke="black" stroke-width="0.8" width="10" x="680.174964252094" y="928.0" /><circle cx="687.674964252094" cy="934.0" fill="#ffb1a3" r="1.2" /></g><g id="collision-detector"><rect fill="url(#gradient-collision-detector)" height="50" rx="4" ry="4" stroke="black" stroke-width="1.2" width="80" x="405.174964252094" y="890.0" /><line stroke="#4c4c4c" stroke-width="0.8" x1="407.174964252094" x2="483.174964252094" y1="906.6666666666666" y2="906.6666666666666" /><line stroke="#4c4c4c" stroke-width="0.8" x1="407.174964252094" x2="483.174964252094" y1="923.3333333333334" y2="923.3333333333334" /><circle cx="473.174964252094" cy="898.3333333333334" fill="#00cc44" r="2.5" stroke="#4c4c4c" stroke-width="0.5" /><circle cx="465.174964252094" cy="898.3333333333334" fill="#ffaa00" r="2.5" stroke="#4c4c4c" stroke-width="0.5" /><circle cx="473.174964252094" cy="915.0" fill="#00cc44" r="2.5" stroke="#4c4c4c" stroke-width="0.5" /><circle cx="465.174964252094" cy="915.0" fill="#ffaa00" r="2.5" stroke="#4c4c4c" stroke-width="0.5" /><circle cx="473.174964252094" cy="931.6666666666667" fill="#00cc44" r="2.5" stroke="#4c4c4c" stroke-width="0.5" /><circle cx="465.174964252094" cy="931.6666666666667" fill="#ffaa00" r="2.5" stroke="#4c4c4c" stroke-width="0.5" /><line stroke="#4c4c4c" stroke-width="0.6" x1="411.174964252094" x2="423.174964252094" y1="895.0" y2="895.0" /><line stroke="#4c4c4c" stroke-width="0.6" x1="411.174964252094" x2="423.174964252094" y1="898.3333333333334" y2="898.3333333333334" /><line stroke="#4c4c4c" stroke-width="0.6" x1="411.174964252094" x2="423.174964252094" y1="901.6666666666666" y2="901.6666666666666" /><line stroke="#4c4c4c" stroke-width="0.6" x1="411.174964252094" x2="423.174964252094" y1="911.6666666666666" y2="911.6666666666666" /><line stroke="#4c4c4c" stroke-width="0.6" x1="411.174964252094" x2="423.174964252094" y1="915.0" y2="915.0" /><line stroke="#4c4c4c" stroke-width="0.6" x1="411.174964252094" x2="423.174964252094" y1="918.3333333333333" y2="918.3333333333333" /><line stroke="#4c4c4c" stroke-width="0.6" x1="411.174964252094" x2="423.174964252094" y1="928.3333333333334" y2="928.3333333333334" /><line stroke="#4c4c4c" stroke-width="0.6" x1="411.174964252094" x2="423.174964252094" y1="931.6666666666667" y2="931.6666666666667" /><line stroke="#4c4c4c" stroke-width="0.6" x1="411.174964252094" x2="423.174964252094" y1="935.0" y2="935.0" /></g><g id="iterative"><ellipse cx="565.1749642520991" cy="343.0" fill="url(#gradient-iterative)" rx="36.0" ry="11.0" stroke="#595959" stroke-width="0.8" /><circle cx="565.1749642520991" cy="331.0" fill="url(#gradient-iterative)" r="17.0" stroke="#595959" stroke-width="0.8" /><circle cx="551.1749642520991" cy="337.0" fill="url(#gradient-iterative)" r="13.0" stroke="#595959" stroke-width="0.8" /><circle cx="579.1749642520991" cy="337.0" fill="url(#gradient-iterative)" r="13.0" stroke="#595959" stroke-width="0.8" /><ellipse cx="565.1749642520991" cy="339.0" fill="url(#gradient-iterative)" rx="30.4" ry="14.000000000000002" stroke="none" /></g><g id="validation"><rect fill="url(#gradient-validation)" height="50" rx="4" ry="4" stroke="black" stroke-width="1.2" width="80" x="285.174964252094" y="890.0" /><line stroke="#4c4c4c" stroke-width="0.8" x1="287.174964252094" x2="363.174964252094" y1="906.6666666666666" y2="906.6666666666666" /><line stroke="#4c4c4c" stroke-width="0.8" x1="287.174964252094" x2="363.174964252094" y1="923.3333333333334" y2="923.3333333333334" /><circle cx="353.174964252094" cy="898.3333333333334" fill="#00cc44" r="2.5" stroke="#4c4c4c" stroke-width="0.5" /><circle cx="345.174964252094" cy="898.3333333333334" fill="#ffaa00" r="2.5" stroke="#4c4c4c" stroke-width="0.5" /><circle cx="353.174964252094" cy="915.0" fill="#00cc44" r="2.5" stroke="#4c4c4c" stroke-width="0.5" /><circle cx="345.174964252094" cy="915.0" fill="#ffaa00" r="2.5" stroke="#4c4c4c" stroke-width="0.5" /><circle cx="353.174964252094" cy="931.6666666666667" fill="#00cc44" r="2.5" stroke="#4c4c4c" stroke-width="0.5" /><circle cx="345.174964252094" cy="931.6666666666667" fill="#ffaa00" r="2.5" stroke="#4c4c4c" stroke-width="0.5" /><line stroke="#4c4c4c" stroke-width="0.6" x1="291.174964252094" x2="303.174964252094" y1="895.0" y2="895.0" /><line stroke="#4c4c4c" stroke-width="0.6" x1="291.174964252094" x2="303.174964252094" y1="898.3333333333334" y2="898.3333333333334" /><line stroke="#4c4c4c" stroke-width="0.6" x1="291.174964252094" x2="303.174964252094" y1="901.6666666666666" y2="901.6666666666666" /><line stroke="#4c4c4c" stroke-width="0.6" x1="291.174964252094" x2="303.174964252094" y1="911.6666666666666" y2="911.6666666666666" /><line stroke="#4c4c4c" stroke-width="0.6" x1="291.174964252094" x2="303.174964252094" y1="915.0" y2="915.0" /><line stroke="#4c4c4c" stroke-width="0.6" x1="291.174964252094" x2="303.174964252094" y1="918.3333333333333" y2="918.3333333333333" /><line stroke="#4c4c4c" stroke-width="0.6" x1="291.174964252094" x2="303.174964252094" y1="928.3333333333334" y2="928.3333333333334" /><line stroke="#4c4c4c" stroke-width="0.6" x1="291.174964252094" x2="303.174964252094" y1="931.6666666666667" y2="931.6666666666667" /><line stroke="#4c4c4c" stroke-width="0.6" x1="291.174964252094" x2="303.174964252094" y1="935.0" y2="935.0" /></g><g id="output"><rect fill="url(#gradient-output)" height="30.0" stroke="none" width="67.2" x="531.574964252094" y="900.0" /><line stroke="black" stroke-width="1.2" x1="531.574964252094" x2="531.574964252094" y1="900.0" y2="930.0" /><line stroke="black" stroke-width="1.2" x1="598.774964252094" x2="598.774964252094" y1="900.0" y2="930.0" /><ellipse cx="565.174964252094" cy="930.0" fill="url(#gradient-output)" rx="33.6" ry="8" stroke="black" stroke-width="1.2" /><ellipse cx="565.174964252094" cy="900.0" fill="#b1f3b1" rx="33.6" ry="8" stroke="black" stroke-width="1.2" /><ellipse cx="565.174964252094" cy="910.0" fill="none" rx="33.6" ry="4.8" stroke="#568e56" stroke-width="0.6" /><ellipse cx="565.174964252094" cy="920.0" fill="none" rx="33.6" ry="4.8" stroke="#568e56" stroke-width="0.6" /></g><line marker-end="url(#arrow-end)" marker-start="url(#circle-start)" stroke="black" stroke-width="2" x1="329.6759652349061" x2="329.6759652349045" y1="77.0" y2="1198.0" /><line marker-end="url(#arrow-end)" marker-start="url(#circle-start)" stroke="black" stroke-width="2" x1="319.72945180890923" x2="149.9465134259952" y1="1199.5850880213916" y2="680.4149119786084" /><line marker-end="url(#arrow-end)" marker-start="url(#circle-start)" stroke="black" stroke-width="2" x1="325.9386281291009" x2="263.73733710580353" y1="1198.21899448794" y2="669.2810055120599" /><line marker-end="url(#arrow-end)" marker-start="url(#circle-start)" stroke="black" stroke-width="2" x1="332.38413700951" x2="377.2918282253944" y1="1198.114802719142" y2="669.3851972808579" /><line marker-end="url(#arrow-end)" marker-start="url(#circle-start)" stroke="black" stroke-width="2" x1="147.01670098143157" x2="198.15826327066245" y1="681.2212412843752" y2="908.7787587156248" /><line marker-end="url(#arrow-end)" marker-start="url(#circle-start)" stroke="black" stroke-width="2" x1="254.29329601407775" x2="210.88166823801626" y1="668.98703748556" y2="908.51296251444" /><line marker-end="url(#arrow-end)" marker-start="url(#circle-start)" stroke="black" stroke-width="2" x1="363.98787193121683" x2="221.18709232087718" y1="665.2058072379941" y2="912.2941927620059" /><line marker-end="url(#arrow-end)" marker-start="url(#circle-start)" stroke="black" stroke-width="2" x1="205.6715666193623" x2="209.17936286763614" y1="971.9961464256061" y2="1198.003853574394" /><line marker-end="url(#arrow-end)" marker-start="url(#circle-start)" stroke="black" stroke-width="2" x1="223.99958830095812" x2="485.6763769339463" y1="1201.3847274648376" y2="678.6152725351623" /><line marker-end="url(#arrow-end)" marker-start="url(#circle-start)" stroke="black" stroke-width="2" x1="516.7070126664305" x2="668.4679515856635" y1="677.2924115417405" y2="925.2075884582595" /><line marker-end="url(#arrow-end)" marker-start="url(#circle-start)" stroke="black" stroke-width="2" x1="653.2182789258364" x2="477.1316495783516" y1="950.835589305924" y2="941.664410694076" /><line marker-end="url(#arrow-end)" marker-start="url(#circle-start)" stroke="black" stroke-width="2" x1="451.5270086886465" x2="557.2349087064085" y1="908.6367805945234" y2="386.70402425684574" /><line marker-end="url(#circle-end)" marker-start="url(#arrow-start)" stroke="black" stroke-width="2" x1="572.9572417510223" x2="678.9491422529555" y1="386.7356490570725" y2="921.111480754342" /><line marker-end="url(#arrow-end)" marker-start="url(#circle-start)" stroke="black" stroke-width="2" x1="653.2518467811283" x2="357.09808172305975" y1="950.283116842294" y2="929.716883157706" /><line marker-end="url(#circle-end)" marker-start="url(#arrow-start)" stroke="black" stroke-width="2" x1="325.6510505004377" x2="329.19987898656075" y1="959.4964582709421" y2="1198.0035417290578" /><line marker-end="url(#arrow-end)" marker-start="url(#circle-start)" stroke="black" stroke-width="2" x1="357.1316495783516" x2="533.2182789258364" y1="925.835589305924" y2="916.664410694076" /><text fill="black" filter="url(#text-glow)" font-family="Arial, sans-serif" font-size="14px" text-anchor="start" x="382.27596523490615" y="45.0">Layout</text><text fill="black" filter="url(#text-glow)" font-family="Arial, sans-serif" font-size="14px" text-anchor="start" x="382.27596523490615" y="63.0">(Input)</text><text fill="black" filter="url(#text-glow)" font-family="Arial, sans-serif" font-size="14px" text-anchor="start" x="382.27596523490445" y="1251.0">Fase 0: Preparación</text><text fill="black" filter="url(#text-glow)" font-family="Arial, sans-serif" font-size="14px" text-anchor="start" x="382.27596523490445" y="1269.0">- Calcular posiciones faltantes</text><text fill="black" filter="url(#text-glow)" font-family="Arial, sans-serif" font-size="14px" text-anchor="start" x="382.27596523490445" y="1287.0">- Calcular dimensiones contenedores</text><text fill="black" filter="url(#text-glow)" font-family="Arial, sans-serif" font-size="14px" text-anchor="start" x="382.27596523490445" y="1305.0">- Calcular rutas de conexiones</text><text fill="black" filter="url(#text-glow)" font-family="Arial, sans-serif" font-size="14px" text-anchor="start" x="192.6" y="671.0">AutoLayoutPositioner v4.0</text><text fill="black" filter="url(#text-glow)" font-family="Arial, sans-serif" font-size="14px" text-anchor="start" x="192.6" y="689.0">1. Resolver contenedores</text><text fill="black" filter="url(#text-glow)" font-family="Arial, sans-serif" font-size="14px" text-anchor="start" x="192.6" y="707.0">2. Topología + centralidad + resolución</text><text fill="black" filter="url(#text-glow)" font-family="Arial, sans-serif" font-size="14px" text-anchor="start" x="192.6" y="725.0">3. Barycenter + Position Opt.</text><text fill="black" filter="url(#text-glow)" font-family="Arial, sans-serif" font-size="14px" text-anchor="start" x="192.6" y="743.0">4. Escala X global</text><text fill="black" filter="url(#text-glow)" font-family="Arial, sans-serif" font-size="14px" text-anchor="start" x="312.6" y="579.0">ContainerCalculator</text><text fill="black" filter="url(#text-glow)" font-family="Arial, sans-serif" font-size="14px" text-anchor="start" x="312.6" y="597.0">- Calcular bounds</text><text fill="black" filter="url(#text-glow)" font-family="Arial, sans-serif" font-size="14px" text-anchor="start" x="312.6" y="615.0">- Considerar íconos + etiquetas</text><text fill="black" filter="url(#text-glow)" font-family="Arial, sans-serif" font-size="14px" text-anchor="start" x="312.6" y="633.0">- Aplicar padding</text><text fill="black" filter="url(#text-glow)" font-family="Arial, sans-serif" font-size="14px" text-anchor="middle" x="380.0" y="579.0">RouterManager</text><text fill="black" filter="url(#text-glow)" font-family="Arial, sans-serif" font-size="14px" text-anchor="middle" x="380.0" y="597.0">- Calcular paths</text><text fill="black" filter="url(#text-glow)" font-family="Arial, sans-serif" font-size="14px" text-anchor="middle" x="380.0" y="615.0">- Intersección con bordes</text><text fill="black" filter="url(#text-glow)" font-family="Arial, sans-serif" font-size="14px" text-anchor="middle" x="380.0" y="633.0">- Extensión para markers</text><text fill="black" filter="url(#text-glow)" font-family="Arial, sans-serif" font-size="14px" text-anchor="start" x="257.77496425209404" y="961.0">Fase 1: Análisis</text><text fill="black" filter="url(#text-glow)" font-family="Arial, sans-serif" font-size="14px" text-anchor="start" x="257.77496425209404" y="979.0">- Niveles topológicos (longest-path)</text><text fill="black" filter="url(#text-glow)" font-family="Arial, sans-serif" font-size="14px" text-anchor="start" x="257.77496425209404" y="997.0">- Centralidad (degree-based)</text><text fill="black" filter="url(#text-glow)" font-family="Arial, sans-serif" font-size="14px" text-anchor="start" x="257.77496425209404" y="1015.0">- Resolución conexiones a primarios</text><text fill="black" filter="url(#text-glow)" font-family="Arial, sans-serif" font-size="14px" text-anchor="start" x="257.77496425209404" y="1033.0">- Grupos conectados</text><text fill="black" filter="url(#text-glow)" font-family="Arial, sans-serif" font-size="14px" text-anchor="middle" x="209.67596523490442" y="1251.0">Fase 2: Optimización Etiquetas</text><text fill="black" filter="url(#text-glow)" font-family="Arial, sans-serif" font-size="14px" text-anchor="middle" x="209.67596523490442" y="1269.0">- Generar posiciones candidatas</text><text fill="black" filter="url(#text-glow)" font-family="Arial, sans-serif" font-size="14px" text-anchor="middle" x="209.67596523490442" y="1287.0">- Evaluar colisiones</text><text fill="black" filter="url(#text-glow)" font-family="Arial, sans-serif" font-size="14px" text-anchor="middle" x="209.67596523490442" y="1305.0">- Minimizar densidad local</text><text fill="black" filter="url(#text-glow)" font-family="Arial, sans-serif" font-size="14px" text-anchor="start" x="552.6" y="625.0">LabelPositionOptimizer</text><text fill="black" filter="url(#text-glow)" font-family="Arial, sans-serif" font-size="14px" text-anchor="start" x="552.6" y="643.0">- Score basado en colisiones</text><text fill="black" filter="url(#text-glow)" font-family="Arial, sans-serif" font-size="14px" text-anchor="start" x="552.6" y="661.0">- Penalización por densidad</text><text fill="black" filter="url(#text-glow)" font-family="Arial, sans-serif" font-size="14px" text-anchor="start" x="552.6" y="679.0">- Preferencias por categoría</text><text fill="black" filter="url(#text-glow)" font-family="Arial, sans-serif" font-size="14px" text-anchor="start" x="737.774964252094" y="961.0">Fase 3: Resolución Colisiones</text><text fill="black" filter="url(#text-glow)" font-family="Arial, sans-serif" font-size="14px" text-anchor="start" x="737.774964252094" y="979.0">- Detectar solapamientos</text><text fill="black" filter="url(#text-glow)" font-family="Arial, sans-serif" font-size="14px" text-anchor="start" x="737.774964252094" y="997.0">- Calcular fuerzas de repulsión</text><text fill="black" filter="url(#text-glow)" font-family="Arial, sans-serif" font-size="14px" text-anchor="start" x="737.774964252094" y="1015.0">- Aplicar desplazamientos</text><text fill="black" filter="url(#text-glow)" font-family="Arial, sans-serif" font-size="14px" text-anchor="start" x="737.774964252094" y="1033.0">- Recalcular routing</text><text fill="black" filter="url(#text-glow)" font-family="Arial, sans-serif" font-size="14px" text-anchor="start" x="497.77496425209404" y="961.0">CollisionDetector</text><text fill="black" filter="url(#text-glow)" font-family="Arial, sans-serif" font-size="14px" text-anchor="start" x="497.77496425209404" y="979.0">- Detectar overlaps</text><text fill="black" filter="url(#text-glow)" font-family="Arial, sans-serif" font-size="14px" text-anchor="start" x="497.77496425209404" y="997.0">- Calcular vectores</text><text fill="black" filter="url(#text-glow)" font-family="Arial, sans-serif" font-size="14px" text-anchor="start" x="497.77496425209404" y="1015.0">- Peso por tamaño (hp/wp)</text><text fill="black" filter="url(#text-glow)" font-family="Arial, sans-serif" font-size="14px" text-anchor="start" x="617.7749642520992" y="335.0">Iteración</text><text fill="black" filter="url(#text-glow)" font-family="Arial, sans-serif" font-size="14px" text-anchor="start" x="617.7749642520992" y="353.0">Hasta 100 iteraciones</text><text fill="black" filter="url(#text-glow)" font-family="Arial, sans-serif" font-size="14px" text-anchor="start" x="617.7749642520992" y="371.0">o convergencia</text><text fill="black" filter="url(#text-glow)" font-family="Arial, sans-serif" font-size="14px" text-anchor="start" x="377.77496425209404" y="961.0">Validación</text><text fill="black" filter="url(#text-glow)" font-family="Arial, sans-serif" font-size="14px" text-anchor="start" x="377.77496425209404" y="979.0">- Verificar canvas bounds</text><text fill="black" filter="url(#text-glow)" font-family="Arial, sans-serif" font-size="14px" text-anchor="start" x="377.77496425209404" y="997.0">- Expandir si necesario</text><text fill="black" filter="url(#text-glow)" font-family="Arial, sans-serif" font-size="14px" text-anchor="start" x="377.77496425209404" y="1015.0">- Recalcular estructuras</text><text fill="black" filter="url(#text-glow)" font-family="Arial, sans-serif" font-size="14px" text-anchor="start" x="617.774964252094" y="869.0">Layout</text><text fill="black" filter="url(#text-glow)" font-family="Arial, sans-serif" font-size="14px" text-anchor="start" x="617.774964252094" y="887.0">(Optimizado)</text><text fill="gray" filter="url(#text-glow)" font-family="Arial, sans-serif" font-size="12px" text-anchor="end" x="278.87596523490527" y="594.5">1</text><text fill="gray" filter="url(#text-glow)" font-family="Arial, sans-serif" font-size="12px" text-anchor="end" x="184.0379826174522" y="940.0">calc pos</text><text fill="gray" filter="url(#text-glow)" font-family="Arial, sans-serif" font-size="12px" text-anchor="middle" x="294.8379826174522" y="890.75">calc dims</text><text fill="gray" filter="url(#text-glow)" font-family="Arial, sans-serif" font-size="12px" text-anchor="start" x="405.6379826174522" y="933.75">calc paths</text><text fill="gray" filter="url(#text-glow)" font-family="Arial, sans-serif" font-size="12px" text-anchor="end" x="156.6254647434992" y="1085.0">2</text><text fill="gray" filter="url(#text-glow)" font-family="Arial, sans-serif" font-size="12px" text-anchor="end" x="304.0379826174522" y="983.0">optimize</text><text fill="gray" filter="url(#text-glow)" font-family="Arial, sans-serif" font-size="12px" text-anchor="middle" x="565.174964252094" y="989.25">detect</text><text fill="gray" filter="url(#text-glow)" font-family="Arial, sans-serif" font-size="12px" text-anchor="start" x="555.1809586975274" y="647.6704024256846">resolve</text><text fill="gray" filter="url(#text-glow)" font-family="Arial, sans-serif" font-size="12px" text-anchor="start" x="676.7531920019889" y="653.9235649057073">repeat</text><text fill="gray" filter="url(#text-glow)" font-family="Arial, sans-serif" font-size="12px" text-anchor="start" x="555.974964252094" y="897.0">validate</text><text fill="gray" filter="url(#text-glow)" font-family="Arial, sans-serif" font-size="12px" text-anchor="start" x="378.22546474349923" y="1078.75">recalc if expanded</text><text fill="gray" filter="url(#text-glow)" font-family="Arial, sans-serif" font-size="12px" text-anchor="start" x="495.974964252094" y="878.25">done</text></svg>