<?xml version="1.0" encoding="utf-8" ?>
<svg baseProfile="full" height="900" version="1.1" viewBox="0,0,1400,900" width="1400" xmlns="http://www.w3.org/2000/svg" xmlns:ev="http://www.w3.org/2001/xml-events" xmlns:xlink="http://www.w3.org/1999/xlink"><defs><marker id="arrow-end" markerHeight="10" markerWidth="10" orient="auto" refX="10" refY="5"><path d="M 0 0 L 10 5 L 0 10 z" fill="black" /></marker><marker id="arrow-start" markerHeight="10" markerWidth="10" orient="auto" refX="0" refY="5"><path d="M 10 0 L 0 5 L 10 10 z" fill="black" /></marker><linearGradient id="gradient-v1.0" x1="0%" x2="0%" y1="0%" y2="100%"><stop offset="0%" stop-color="#b1f3b1" /><stop offset="100%" stop-color="#64a664" /></linearGradient><linearGradient id="gradient-v1.5" x1="0%" x2="0%" y1="0%" y2="100%"><stop offset="0%" stop-color="#c5e3ed" /><stop offset="100%" stop-color="#7997a1" /></linearGradient><linearGradient id="gradient-v2.0" x1="0%" x2="0%" y1="0%" y2="100%"><stop offset="0%" stop-color="#ffe34c" /><stop offset="100%" stop-color="#b29600" /></linearGradient><linearGradient id="gradient-v2.1" x1="0%" x2="0%" y1="0%" y2="100%"><stop offset="0%" stop-color="#ffc04c" /><stop offset="100%" stop-color="#b27300" /></linearGradient><linearGradient id="gradient-v3.0" x1="0%" x2="0%" y1="0%" y2="100%"><stop offset="0%" stop-color="#ffe34c" /><stop offset="100%" stop-color="#b29600" /></linearGradient><linearGradient id="gradient-v3.1" x1="0%" x2="0%" y1="0%" y2="100%"><stop offset="0%" stop-color="#a6a6a6" /><stop offset="100%" stop-color="#595959" /></linearGradient><linearGradient id="gradient-feat-coords" x1="0%" x2="0%" y1="0%" y2="100%"><stop offset="0%" stop-color="#a6a6a6" /><stop offset="100%" stop-color="#595959" /></linearGradient><linearGradient id="gradient-feat-waypoints" x1="0%" x2="0%" y1="0%" y2="100%"><stop offset="0%" stop-color="#a6a6a6" /><stop offset="100%" stop-color="#595959" /></linearGradient><linearGradient id="gradient-feat-autolayout" x1="0%" x2="0%" y1="0%" y2="100%"><stop offset="0%" stop-color="#a6a6a6" /><stop offset="100%" stop-color="#595959" /></linearGradient><linearGradient id="gradient-feat-routing" x1="0%" x2="0%" y1="0%" y2="100%"><stop offset="0%" stop-color="#a6a6a6" /><stop offset="100%" stop-color="#595959" /></linearGradient><linearGradient id="gradient-feat-hierarchical" x1="0%" x2="0%" y1="0%" y2="100%"><stop offset="0%" stop-color="#a6a6a6" /><stop offset="100%" stop-color="#595959" /></linearGradient><linearGradient id="gradient-feat-v4" x1="0%" x2="0%" y1="0%" y2="100%"><stop offset="0%" stop-color="#a6a6a6" /><stop offset="100%" stop-color="#595959" /></linearGradient><linearGradient id="gradient-status-done" x1="0%" x2="0%" y1="0%" y2="100%"><stop offset="0%" stop-color="#b1f3b1" /><stop offset="100%" stop-color="#64a664" /></linearGradient></defs><g id="v1.0"><g transform="translate(110.0,210.0) scale(1.2048192771084338,0.6928406466512702) translate(-0.9,-1.4)"><path d="M 22.754087,32.116749 0.94545599,43.000013 V 4.7289739 L 22.754087,1.5702876 Z" fill="#e9e9ff" stroke="none" /><path d="M 50.712576,33.120864 V 1.4628125 L 22.754087,1.5702876 V 32.116749 Z" fill="#353564" stroke="none" /><path d="M 50.712576,33.120864 35.295871,44.770537 0.94545599,43.000013 22.754087,32.116749 Z" fill="#4d4d9f" stroke="none" /><path d="M 50.712576,1.4628125 35.295871,4.7384198 0.94545599,4.7289739 22.754087,1.5702876 Z" fill="#1c1ce6" opacity="1" stroke="none" /><path d="M 35.295871,44.770537 V 4.7384198 L 0.94545599,4.7289739 V 43.000013 Z" fill="#1a52ff" opacity="0.96" stroke="none" /><path d="M 50.712576,33.120864 35.295871,44.770537 V 4.7384198 L 50.712576,1.4628125 Z" fill="#1c9bd0" stroke="none" /><rect fill="none" height="43.3" opacity="0.67" stroke="#cbcbcb" stroke-width="0.48" width="49.8" x="0.9" y="1.4" /></g></g><g id="v1.5"><g transform="translate(310.0,210.0) scale(1.2048192771084338,0.6928406466512702) translate(-0.9,-1.4)"><path d="M 22.754087,32.116749 0.94545599,43.000013 V 4.7289739 L 22.754087,1.5702876 Z" fill="#e9e9ff" stroke="none" /><path d="M 50.712576,33.120864 V 1.4628125 L 22.754087,1.5702876 V 32.116749 Z" fill="#353564" stroke="none" /><path d="M 50.712576,33.120864 35.295871,44.770537 0.94545599,43.000013 22.754087,32.116749 Z" fill="#4d4d9f" stroke="none" /><path d="M 50.712576,1.4628125 35.295871,4.7384198 0.94545599,4.7289739 22.754087,1.5702876 Z" fill="#1c1ce6" opacity="1" stroke="none" /><path d="M 35.295871,44.770537 V 4.7384198 L 0.94545599,4.7289739 V 43.000013 Z" fill="#1a52ff" opacity="0.96" stroke="none" /><path d="M 50.712576,33.120864 35.295871,44.770537 V 4.7384198 L 50.712576,1.4628125 Z" fill="#1c9bd0" stroke="none" /><rect fill="none" height="43.3" opacity="0.67" stroke="#cbcbcb" stroke-width="0.48" width="49.8" x="0.9" y="1.4" /></g></g><g id="v2.0"><g transform="translate(510.0,210.0) scale(1.2048192771084338,0.6928406466512702) translate(-0.9,-1.4)"><path d="M 22.754087,32.116749 0.94545599,43.000013 V 4.7289739 L 22.754087,1.5702876 Z" fill="#e9e9ff" stroke="none" /><path d="M 50.712576,33.120864 V 1.4628125 L 22.754087,1.5702876 V 32.116749 Z" fill="#353564" stroke="none" /><path d="M 50.712576,33.120864 35.295871,44.770537 0.94545599,43.000013 22.754087,32.116749 Z" fill="#4d4d9f" stroke="none" /><path d="M 50.712576,1.4628125 35.295871,4.7384198 0.94545599,4.7289739 22.754087,1.5702876 Z" fill="#1c1ce6" opacity="1" stroke="none" /><path d="M 35.295871,44.770537 V 4.7384198 L 0.94545599,4.7289739 V 43.000013 Z" fill="#1a52ff" opacity="0.96" stroke="none" /><path d="M 50.712576,33.120864 35.295871,44.770537 V 4.7384198 L 50.712576,1.4628125 Z" fill="#1c9bd0" stroke="none" /><rect fill="none" height="43.3" opacity="0.67" stroke="#cbcbcb" stroke-width="0.48" width="49.8" x="0.9" y="1.4" /></g></g><g id="v2.1"><g transform="translate(710.0,210.0) scale(1.2048192771084338,0.6928406466512702) translate(-0.9,-1.4)"><path d="M 22.754087,32.116749 0.94545599,43.000013 V 4.7289739 L 22.754087,1.5702876 Z" fill="#e9e9ff" stroke="none" /><path d="M 50.712576,33.120864 V 1.4628125 L 22.754087,1.5702876 V 32.116749 Z" fill="#353564" stroke="none" /><path d="M 50.712576,33.120864 35.295871,44.770537 0.94545599,43.000013 22.754087,32.116749 Z" fill="#4d4d9f" stroke="none" /><path d="M 50.712576,1.4628125 35.295871,4.7384198 0.94545599,4.7289739 22.754087,1.5702876 Z" fill="#1c1ce6" opacity="1" stroke="none" /><path d="M 35.295871,44.770537 V 4.7384198 L 0.94545599,4.7289739 V 43.000013 Z" fill="#1a52ff" opacity="0.96" stroke="none" /><path d="M 50.712576,33.120864 35.295871,44.770537 V 4.7384198 L 50.712576,1.4628125 Z" fill="#1c9bd0" stroke="none" /><rect fill="none" height="43.3" opacity="0.67" stroke="#cbcbcb" stroke-width="0.48" width="49.8" x="0.9" y="1.4" /></g></g><g id="v3.0"><g transform="translate(910.0,210.0) scale(1.2048192771084338,0.6928406466512702) translate(-0.9,-1.4)"><path d="M 22.754087,32.116749 0.94545599,43.000013 V 4.7289739 L 22.754087,1.5702876 Z" fill="#e9e9ff" stroke="none" /><path d="M 50.712576,33.120864 V 1.4628125 L 22.754087,1.5702876 V 32.116749 Z" fill="#353564" stroke="none" /><path d="M 50.712576,33.120864 35.295871,44.770537 0.94545599,43.000013 22.754087,32.116749 Z" fill="#4d4d9f" stroke="none" /><path d="M 50.712576,1.4628125 35.295871,4.7384198 0.94545599,4.7289739 22.754087,1.5702876 Z" fill="#1c1ce6" opacity="1" stroke="none" /><path d="M 35.295871,44.770537 V 4.7384198 L 0.94545599,4.7289739 V 43.000013 Z" fill="#1a52ff" opacity="0.96" stroke="none" /><path d="M 50.712576,33.120864 35.295871,44.770537 V 4.7384198 L 50.712576,1.4628125 Z" fill="#1c9bd0" stroke="none" /><rect fill="none" height="43.3" opacity="0.67" stroke="#cbcbcb" stroke-width="0.48" width="49.8" x="0.9" y="1.4" /></g></g><g id="v3.1"><g transform="translate(1110.0,210.0) scale(1.2048192771084338,0.6928406466512702) translate(-0.9,-1.4)"><path d="M 22.754087,32.116749 0.94545599,43.000013 V 4.7289739 L 22.754087,1.5702876 Z" fill="#e9e9ff" stroke="none" /><path d="M 50.712576,33.120864 V 1.4628125 L 22.754087,1.5702876 V 32.116749 Z" fill="#353564" stroke="none" /><path d="M 50.712576,33.120864 35.295871,44.770537 0.94545599,43.000013 22.754087,32.116749 Z" fill="#4d4d9f" stroke="none" /><path d="M 50.712576,1.4628125 35.295871,4.7384198 0.94545599,4.7289739 22.754087,1.5702876 Z" fill="#1c1ce6" opacity="1" stroke="none" /><path d="M 35.295871,44.770537 V 4.7384198 L 0.94545599,4.7289739 V 43.000013 Z" fill="#1a52ff" opacity="0.96" stroke="none" /><path d="M 50.712576,33.120864 35.295871,44.770537 V 4.7384198 L 50.712576,1.4628125 Z" fill="#1c9bd0" stroke="none" /><rect fill="none" height="43.3" opacity="0.67" stroke="#cbcbcb" stroke-width="0.48" width="49.8" x="0.9" y="1.4" /></g></g><rect fill="url(#gradient-feat-coords)" height="50" stroke="black" width="80" x="100" y="400" /><rect fill="url(#gradient-feat-waypoints)" height="50" stroke="black" width="80" x="300" y="400" /><rect fill="url(#gradient-feat-autolayout)" height="50" stroke="black" width="80" x="500" y="400" /><rect fill="url(#gradient-feat-routing)" height="50" stroke="black" width="80" x="700" y="400" /><rect fill="url(#gradient-feat-hierarchical)" height="50" stroke="black" width="80" x="900" y="400" /><rect fill="url(#gradient-feat-v4)" height="50" stroke="black" width="80" x="1100" y="400" /><ellipse cx="640.0" cy="625.0" fill="url(#gradient-status-done)" rx="40.0" ry="25.0" stroke="black" /><line marker-end="url(#arrow-end)" stroke="black" stroke-width="2" x1="172.0" x2="308.0" y1="225.0" y2="225.0" /><line marker-end="url(#arrow-end)" stroke="black" stroke-width="2" x1="372.0" x2="508.0" y1="225.0" y2="225.0" /><line marker-end="url(#arrow-end)" stroke="black" stroke-width="2" x1="572.0" x2="708.0" y1="225.0" y2="225.0" /><line marker-end="url(#arrow-end)" stroke="black" stroke-width="2" x1="772.0" x2="908.0" y1="225.0" y2="225.0" /><line marker-end="url(#arrow-end)" stroke="black" stroke-width="2" x1="972.0" x2="1108.0" y1="225.0" y2="225.0" /><line marker-end="url(#arrow-end)" stroke="black" stroke-width="2" x1="140.0" x2="140.0" y1="257.0" y2="393.0" /><line marker-end="url(#arrow-end)" stroke="black" stroke-width="2" x1="340.0" x2="340.0" y1="257.0" y2="393.0" /><line marker-end="url(#arrow-end)" stroke="black" stroke-width="2" x1="540.0" x2="540.0" y1="257.0" y2="393.0" /><line marker-end="url(#arrow-end)" stroke="black" stroke-width="2" x1="740.0" x2="740.0" y1="257.0" y2="393.0" /><line marker-end="url(#arrow-end)" stroke="black" stroke-width="2" x1="940.0" x2="940.0" y1="257.0" y2="393.0" /><line marker-end="url(#arrow-end)" stroke="black" stroke-width="2" x1="1140.0" x2="1140.0" y1="257.0" y2="393.0" /><text fill="black" font-family="Arial, sans-serif" font-size="14px" text-anchor="middle" x="140.0" y="144">SDJF v1.0</text><text fill="black" font-family="Arial, sans-serif" font-size="14px" text-anchor="middle" x="140.0" y="162">(Jun 2025)</text><text fill="black" font-family="Arial, sans-serif" font-size="14px" text-anchor="middle" x="140.0" y="180">Base</text><text fill="black" font-family="Arial, sans-serif" font-size="14px" text-anchor="middle" x="340.0" y="144">SDJF v1.5</text><text fill="black" font-family="Arial, sans-serif" font-size="14px" text-anchor="middle" x="340.0" y="162">(Dic 2025)</text><text fill="black" font-family="Arial, sans-serif" font-size="14px" text-anchor="middle" x="340.0" y="180">Waypoints</text><text fill="black" font-family="Arial, sans-serif" font-size="14px" text-anchor="middle" x="540.0" y="144">SDJF v2.0</text><text fill="black" font-family="Arial, sans-serif" font-size="14px" text-anchor="middle" x="540.0" y="162">(Ene 2026)</text><text fill="black" font-family="Arial, sans-serif" font-size="14px" text-anchor="middle" x="540.0" y="180">Auto-layout</text><text fill="black" font-family="Arial, sans-serif" font-size="14px" text-anchor="middle" x="740.0" y="144">SDJF v2.1</text><text fill="black" font-family="Arial, sans-serif" font-size="14px" text-anchor="middle" x="740.0" y="162">(Q1 2026)</text><text fill="black" font-family="Arial, sans-serif" font-size="14px" text-anchor="middle" x="740.0" y="180">Routing</text><text fill="black" font-family="Arial, sans-serif" font-size="14px" text-anchor="middle" x="940.0" y="144">SDJF v3.0</text><text fill="black" font-family="Arial, sans-serif" font-size="14px" text-anchor="middle" x="940.0" y="162">(Ene 2026)</text><text fill="black" font-family="Arial, sans-serif" font-size="14px" text-anchor="middle" x="940.0" y="180">Layout jerárquico</text><text fill="black" font-family="Arial, sans-serif" font-size="14px" text-anchor="middle" x="1195.0" y="215.0">v3.1</text><text fill="black" font-family="Arial, sans-serif" font-size="14px" text-anchor="middle" x="1195.0" y="233.0">(Feb 2026)</text><text fill="black" font-family="Arial, sans-serif" font-size="14px" text-anchor="middle" x="1195.0" y="251.0">Auto v4.0</text><text fill="black" font-family="Arial, sans-serif" font-size="14px" text-anchor="middle" x="1195.0" y="269.0">LAF 10 fases</text><text fill="black" font-family="Arial, sans-serif" font-size="14px" text-anchor="middle" x="140.0" y="460.0">Coordenadas</text><text fill="black" font-family="Arial, sans-serif" font-size="14px" text-anchor="middle" x="140.0" y="478.0">explícitas</text><text fill="black" font-family="Arial, sans-serif" font-size="14px" text-anchor="middle" x="340.0" y="460.0">Waypoints</text><text fill="black" font-family="Arial, sans-serif" font-size="14px" text-anchor="middle" x="340.0" y="478.0">manuales</text><text fill="black" font-family="Arial, sans-serif" font-size="14px" text-anchor="middle" x="540.0" y="460.0">Coordenadas</text><text fill="black" font-family="Arial, sans-serif" font-size="14px" text-anchor="middle" x="540.0" y="478.0">opcionales</text><text fill="black" font-family="Arial, sans-serif" font-size="14px" text-anchor="middle" x="540.0" y="496.0">hp/wp</text><text fill="black" font-family="Arial, sans-serif" font-size="14px" text-anchor="middle" x="740.0" y="460.0">Routing</text><text fill="black" font-family="Arial, sans-serif" font-size="14px" text-anchor="middle" x="740.0" y="478.0">declarativo</text><text fill="black" font-family="Arial, sans-serif" font-size="14px" text-anchor="middle" x="740.0" y="496.0">orthogonal/bezier</text><text fill="black" font-family="Arial, sans-serif" font-size="14px" text-anchor="middle" x="940.0" y="460.0">Layout jerárquico</text><text fill="black" font-family="Arial, sans-serif" font-size="14px" text-anchor="middle" x="940.0" y="478.0">Label optimizer</text><text fill="black" font-family="Arial, sans-serif" font-size="14px" text-anchor="middle" x="940.0" y="496.0">LAF 8 fases</text><text fill="black" font-family="Arial, sans-serif" font-size="14px" text-anchor="middle" x="1140.0" y="460.0">Barycenter</text><text fill="black" font-family="Arial, sans-serif" font-size="14px" text-anchor="middle" x="1140.0" y="478.0">Position Opt.</text><text fill="black" font-family="Arial, sans-serif" font-size="14px" text-anchor="middle" x="1140.0" y="496.0">Centralidad</text><text fill="black" font-family="Arial, sans-serif" font-size="14px" text-anchor="middle" x="1140.0" y="514.0">LAF 10 fases</text><text fill="black" font-family="Arial, sans-serif" font-size="14px" text-anchor="middle" x="640.0" y="660.0">COMPLETADO</text><text fill="gray" font-family="Arial, sans-serif" font-size="12px" text-anchor="end" x="89.2" y="325.0">features</text><text fill="gray" font-family="Arial, sans-serif" font-size="12px" text-anchor="end" x="289.2" y="325.0">features</text><text fill="gray" font-family="Arial, sans-serif" font-size="12px" text-anchor="start" x="590.8" y="325.0">features</text><text fill="gray" font-family="Arial, sans-serif" font-size="12px" text-anchor="start" x="790.8" y="325.0">features</text><text fill="gray" font-family="Arial, sans-serif" font-size="12px" text-anchor="start" x="990.8" y="325.0">features</text><text fill="gray" font-family="Arial, sans-serif" font-size="12px" text-anchor="start" x="1190.8" y="325.0">features</text></svg>