<?xml version="1.0" encoding="utf-8" ?>
<svg baseProfile="full" height="900" version="1.1" viewBox="0,0,1400,900" width="1400" xmlns="http://www.w3.org/2000/svg" xmlns:ev="http://www.w3.org/2001/xml-events" xmlns:xlink="http://www.w3.org/1999/xlink"><defs><filter height="140%" id="text-glow" width="140%" x="-20%" y="-20%"><feGaussianBlur in="SourceGraphic" result="blur" stdDeviation="2" /><feFlood flood-color="white" flood-opacity="1" result="color" /><feComposite in="color" in2="blur" operator="in" result="shadow" /><feMerge><feMergeNode in="shadow" /><feMergeNode in="shadow" /><feMergeNode in="SourceGraphic" /></feMerge></filter><marker id="arrow-end" markerHeight="10" markerWidth="10" orient="auto" refX="10" refY="5"><path d="M 0 0 L 10 5 L 0 10 z" fill="black" /></marker><marker id="arrow-start" markerHeight="10" markerWidth="10" orient="auto" refX="0" refY="5"><path d="M 10 0 L 0 5 L 10 10 z" fill="black" /></marker><marker id="circle-start" markerHeight="10" markerWidth="10" orient="auto" refX="5" refY="5"><circle cx="5" cy="5" fill="black" r="4" /></marker><marker id="circle-end" markerHeight="10" markerWidth="10" orient="auto" refX="5" refY="5"><circle cx="5" cy="5" fill="black" r="4" /></marker><linearGradient id="gradient-v1.0" x1="0%" x2="0%" y1="0%" y2="100%"><stop offset="0%" stop-color="#b1f3b1" /><stop offset="100%" stop-color="#64a664" /></linearGradient><linearGradient id="gradient-v1.5" x1="0%" x2="0%" y1="0%" y2="100%"><stop offset="0%" stop-color="#c5e3ed" /><stop offset="100%" stop-color="#7997a1" /></linearGradient><linearGradient id="gradient-v2.0" x1="0%" x2="0%" y1="0%" y2="100%"><stop offset="0%" stop-color="#ffe34c" /><stop offset="100%" stop-color="#b29600" /></linearGradient><linearGradient id="gradient-v2.1" x1="0%" x2="0%" y1="0%" y2="100%"><stop offset="0%" stop-color="#ffc04c" /><stop offset="100%" stop-color="#b27300" /></linearGradient><linearGradient id="gradient-v3.0" x1="0%" x2="0%" y1="0%" y2="100%"><stop offset="0%" stop-color="#ffe34c" /><stop offset="100%" stop-color="#b29600" /></linearGradient><linearGradient id="gradient-v3.1" x1="0%" x2="0%" y1="0%" y2="100%"><stop offset="0%" stop-color="#a6a6a6" /><stop offset="100%" stop-color="#595959" /></linearGradient><linearGradient id="gradient-feat-coords" x1="0%" x2="0%" y1="0%" y2="100%"><stop offset="0%" stop-color="#a6a6a6" /><stop offset="100%" stop-color="#595959" /></linearGradient><linearGradient id="gradient-feat-waypoints" x1="0%" x2="0%" y1="0%" y2="100%"><stop offset="0%" stop-color="#a6a6a6" /><stop offset="100%" stop-color="#595959" /></linearGradient><linearGradient id="gradient-feat-autolayout" x1="0%" x2="0%" y1="0%" y2="100%"><stop offset="0%" stop-color="#a6a6a6" /><stop offset="100%" stop-color="#595959" /></linearGradient><linearGradient id="gradient-feat-routing" x1="0%" x2="0%" y1="0%" y2="100%"><stop offset="0%" stop-color="#a6a6a6" /><stop offset="100%" stop-color="#595959" /></linearGradient><linearGradient id="gradient-feat-hierarchical" x1="0%" x2="0%" y1="0%" y2="100%"><stop offset="0%" stop-color="#a6a6a6" /><stop offset="100%" stop-color="#595959" /></linearGradient><linearGradient id="gradient-feat-v4" x1="0%" x2="0%" y1="0%" y2="100%"><stop offset="0%" stop-color="#a6a6a6" /><stop offset="100%" stop-color="#595959" /></linearGradient><linearGradient id="gradient-status-done" x1="0%" x2="0%" y1="0%" y2="100%"><stop offset="0%" stop-color="#b1f3b1" /><stop offset="100%" stop-color="#64a664" /></linearGradient></defs><g id="v1.0"><rect fill="url(#gradient-v1.0)" height="46" rx="2" ry="2" stroke="black" stroke-width="1.2" width="64" x="108" y="204" /><polygon fill="#487748" points="104,204 140.0,194 176,204" stroke="black" stroke-width="1.0" /><rect fill="#c7f6c7" height="7" stroke="#487748" stroke-width="0.7" width="10" x="115" y="210" /><line stroke="#487748" stroke-width="0.5" x1="120.0" x2="120.0" y1="210" y2="217" /><line stroke="#487748" stroke-width="0.5" x1="115" x2="125" y1="213.5" y2="213.5" /><rect fill="#c7f6c7" height="7" stroke="#487748" stroke-width="0.7" width="10" x="135" y="210" /><line stroke="#487748" stroke-width="0.5" x1="140.0" x2="140.0" y1="210" y2="217" /><line stroke="#487748" stroke-width="0.5" x1="135" x2="145" y1="213.5" y2="213.5" /><rect fill="#c7f6c7" height="7" stroke="#487748" stroke-width="0.7" width="10" x="155" y="210" /><line stroke="#487748" stroke-width="0.5" x1="160.0" x2="160.0" y1="210" y2="217" /><line stroke="#487748" stroke-width="0.5" x1="155" x2="165" y1="213.5" y2="213.5" /><rect fill="#c7f6c7" height="7" stroke="#487748" stroke-width="0.7" width="10" x="115" y="224" /><line stroke="#487748" stroke-width="0.5" x1="120.0" x2="120.0" y1="224" y2="231" /><line stroke="#487748" stroke-width="0.5" x1="115" x2="125" y1="227.5" y2="227.5" /><rect fill="#c7f6c7" height="7" stroke="#487748" stroke-width="0.7" width="10" x="135" y="224" /><line stroke="#487748" stroke-width="0.5" x1="140.0" x2="140.0" y1="224" y2="231" /><line stroke="#487748" stroke-width="0.5" x1="135" x2="145" y1="227.5" y2="227.5" /><rect fill="#c7f6c7" height="7" stroke="#487748" stroke-width="0.7" width="10" x="155" y="224" /><line stroke="#487748" stroke-width="0.5" x1="160.0" x2="160.0" y1="224" y2="231" /><line stroke="#487748" stroke-width="0.5" x1="155" x2="165" y1="227.5" y2="227.5" /><rect fill="#487748" height="12" stroke="black" stroke-width="0.8" width="10" x="135.0" y="238" /><circle cx="142.5" cy="244.0" fill="#c7f6c7" r="1.2" /></g><g id="v1.5"><rect fill="url(#gradient-v1.5)" height="46" rx="2" ry="2" stroke="black" stroke-width="1.2" width="64" x="308" y="204" /><polygon fill="#566c73" points="304,204 340.0,194 376,204" stroke="black" stroke-width="1.0" /><rect fill="#d6ebf2" height="7" stroke="#566c73" stroke-width="0.7" width="10" x="315" y="210" /><line stroke="#566c73" stroke-width="0.5" x1="320.0" x2="320.0" y1="210" y2="217" /><line stroke="#566c73" stroke-width="0.5" x1="315" x2="325" y1="213.5" y2="213.5" /><rect fill="#d6ebf2" height="7" stroke="#566c73" stroke-width="0.7" width="10" x="335" y="210" /><line stroke="#566c73" stroke-width="0.5" x1="340.0" x2="340.0" y1="210" y2="217" /><line stroke="#566c73" stroke-width="0.5" x1="335" x2="345" y1="213.5" y2="213.5" /><rect fill="#d6ebf2" height="7" stroke="#566c73" stroke-width="0.7" width="10" x="355" y="210" /><line stroke="#566c73" stroke-width="0.5" x1="360.0" x2="360.0" y1="210" y2="217" /><line stroke="#566c73" stroke-width="0.5" x1="355" x2="365" y1="213.5" y2="213.5" /><rect fill="#d6ebf2" height="7" stroke="#566c73" stroke-width="0.7" width="10" x="315" y="224" /><line stroke="#566c73" stroke-width="0.5" x1="320.0" x2="320.0" y1="224" y2="231" /><line stroke="#566c73" stroke-width="0.5" x1="315" x2="325" y1="227.5" y2="227.5" /><rect fill="#d6ebf2" height="7" stroke="#566c73" stroke-width="0.7" width="10" x="335" y="224" /><line stroke="#566c73" stroke-width="0.5" x1="340.0" x2="340.0" y1="224" y2="231" /><line stroke="#566c73" stroke-width="0.5" x1="335" x2="345" y1="227.5" y2="227.5" /><rect fill="#d6ebf2" height="7" stroke="#566c73" stroke-width="0.7" width="10" x="355" y="224" /><line stroke="#566c73" stroke-width="0.5" x1="360.0" x2="360.0" y1="224" y2="231" /><line stroke="#566c73" stroke-width="0.5" x1="355" x2="365" y1="227.5" y2="227.5" /><rect fill="#566c73" height="12" stroke="black" stroke-width="0.8" width="10" x="335.0" y="238" /><circle cx="342.5" cy="244.0" fill="#d6ebf2" r="1.2" /></g><g id="v2.0"><rect fill="url(#gradient-v2.0)" height="46" rx="2" ry="2" stroke="black" stroke-width="1.2" width="64" x="508" y="204" /><polygon fill="#7f6b00" points="504,204 540.0,194 576,204" stroke="black" stroke-width="1.0" /><rect fill="#ffeb7f" height="7" stroke="#7f6b00" stroke-width="0.7" width="10" x="515" y="210" /><line stroke="#7f6b00" stroke-width="0.5" x1="520.0" x2="520.0" y1="210" y2="217" /><line stroke="#7f6b00" stroke-width="0.5" x1="515" x2="525" y1="213.5" y2="213.5" /><rect fill="#ffeb7f" height="7" stroke="#7f6b00" stroke-width="0.7" width="10" x="535" y="210" /><line stroke="#7f6b00" stroke-width="0.5" x1="540.0" x2="540.0" y1="210" y2="217" /><line stroke="#7f6b00" stroke-width="0.5" x1="535" x2="545" y1="213.5" y2="213.5" /><rect fill="#ffeb7f" height="7" stroke="#7f6b00" stroke-width="0.7" width="10" x="555" y="210" /><line stroke="#7f6b00" stroke-width="0.5" x1="560.0" x2="560.0" y1="210" y2="217" /><line stroke="#7f6b00" stroke-width="0.5" x1="555" x2="565" y1="213.5" y2="213.5" /><rect fill="#ffeb7f" height="7" stroke="#7f6b00" stroke-width="0.7" width="10" x="515" y="224" /><line stroke="#7f6b00" stroke-width="0.5" x1="520.0" x2="520.0" y1="224" y2="231" /><line stroke="#7f6b00" stroke-width="0.5" x1="515" x2="525" y1="227.5" y2="227.5" /><rect fill="#ffeb7f" height="7" stroke="#7f6b00" stroke-width="0.7" width="10" x="535" y="224" /><line stroke="#7f6b00" stroke-width="0.5" x1="540.0" x2="540.0" y1="224" y2="231" /><line stroke="#7f6b00" stroke-width="0.5" x1="535" x2="545" y1="227.5" y2="227.5" /><rect fill="#ffeb7f" height="7" stroke="#7f6b00" stroke-width="0.7" width="10" x="555" y="224" /><line stroke="#7f6b00" stroke-width="0.5" x1="560.0" x2="560.0" y1="224" y2="231" /><line stroke="#7f6b00" stroke-width="0.5" x1="555" x2="565" y1="227.5" y2="227.5" /><rect fill="#7f6b00" height="12" stroke="black" stroke-width="0.8" width="10" x="535.0" y="238" /><circle cx="542.5" cy="244.0" fill="#ffeb7f" r="1.2" /></g><g id="v2.1"><rect fill="url(#gradient-v2.1)" height="46" rx="2" ry="2" stroke="black" stroke-width="1.2" width="64" x="708" y="204" /><polygon fill="#7f5200" points="704,204 740.0,194 776,204" stroke="black" stroke-width="1.0" /><rect fill="#ffd27f" height="7" stroke="#7f5200" stroke-width="0.7" width="10" x="715" y="210" /><line stroke="#7f5200" stroke-width="0.5" x1="720.0" x2="720.0" y1="210" y2="217" /><line stroke="#7f5200" stroke-width="0.5" x1="715" x2="725" y1="213.5" y2="213.5" /><rect fill="#ffd27f" height="7" stroke="#7f5200" stroke-width="0.7" width="10" x="735" y="210" /><line stroke="#7f5200" stroke-width="0.5" x1="740.0" x2="740.0" y1="210" y2="217" /><line stroke="#7f5200" stroke-width="0.5" x1="735" x2="745" y1="213.5" y2="213.5" /><rect fill="#ffd27f" height="7" stroke="#7f5200" stroke-width="0.7" width="10" x="755" y="210" /><line stroke="#7f5200" stroke-width="0.5" x1="760.0" x2="760.0" y1="210" y2="217" /><line stroke="#7f5200" stroke-width="0.5" x1="755" x2="765" y1="213.5" y2="213.5" /><rect fill="#ffd27f" height="7" stroke="#7f5200" stroke-width="0.7" width="10" x="715" y="224" /><line stroke="#7f5200" stroke-width="0.5" x1="720.0" x2="720.0" y1="224" y2="231" /><line stroke="#7f5200" stroke-width="0.5" x1="715" x2="725" y1="227.5" y2="227.5" /><rect fill="#ffd27f" height="7" stroke="#7f5200" stroke-width="0.7" width="10" x="735" y="224" /><line stroke="#7f5200" stroke-width="0.5" x1="740.0" x2="740.0" y1="224" y2="231" /><line stroke="#7f5200" stroke-width="0.5" x1="735" x2="745" y1="227.5" y2="227.5" /><rect fill="#ffd27f" height="7" stroke="#7f5200" stroke-width="0.7" width="10" x="755" y="224" /><line stroke="#7f5200" stroke-width="0.5" x1="760.0" x2="760.0" y1="224" y2="231" /><line stroke="#7f5200" stroke-width="0.5" x1="755" x2="765" y1="227.5" y2="227.5" /><rect fill="#7f5200" height="12" stroke="black" stroke-width="0.8" width="10" x="735.0" y="238" /><circle cx="742.5" cy="244.0" fill="#ffd27f" r="1.2" /></g><g id="v3.0"><rect fill="url(#gradient-v3.0)" height="46" rx="2" ry="2" stroke="black" stroke-width="1.2" width="64" x="908" y="204" /><polygon fill="#7f6b00" points="904,204 940.0,194 976,204" stroke="black" stroke-width="1.0" /><rect fill="#ffeb7f" height="7" stroke="#7f6b00" stroke-width="0.7" width="10" x="915" y="210" /><line stroke="#7f6b00" stroke-width="0.5" x1="920.0" x2="920.0" y1="210" y2="217" /><line stroke="#7f6b00" stroke-width="0.5" x1="915" x2="925" y1="213.5" y2="213.5" /><rect fill="#ffeb7f" height="7" stroke="#7f6b00" stroke-width="0.7" width="10" x="935" y="210" /><line stroke="#7f6b00" stroke-width="0.5" x1="940.0" x2="940.0" y1="210" y2="217" /><line stroke="#7f6b00" stroke-width="0.5" x1="935" x2="945" y1="213.5" y2="213.5" /><rect fill="#ffeb7f" height="7" stroke="#7f6b00" stroke-width="0.7" width="10" x="955" y="210" /><line stroke="#7f6b00" stroke-width="0.5" x1="960.0" x2="960.0" y1="210" y2="217" /><line stroke="#7f6b00" stroke-width="0.5" x1="955" x2="965" y1="213.5" y2="213.5" /><rect fill="#ffeb7f" height="7" stroke="#7f6b00" stroke-width="0.7" width="10" x="915" y="224" /><line stroke="#7f6b00" stroke-width="0.5" x1="920.0" x2="920.0" y1="224" y2="231" /><line stroke="#7f6b00" stroke-width="0.5" x1="915" x2="925" y1="227.5" y2="227.5" /><rect fill="#ffeb7f" height="7" stroke="#7f6b00" stroke-width="0.7" width="10" x="935" y="224" /><line stroke="#7f6b00" stroke-width="0.5" x1="940.0" x2="940.0" y1="224" y2="231" /><line stroke="#7f6b00" stroke-width="0.5" x1="935" x2="945" y1="227.5" y2="227.5" /><rect fill="#ffeb7f" height="7" stroke="#7f6b00" stroke-width="0.7" width="10" x="955" y="224" /><line stroke="#7f6b00" stroke-width="0.5" x1="960.0" x2="960.0" y1="224" y2="231" /><line stroke="#7f6b00" stroke-width="0.5" x1="955" x2="965" y1="227.5" y2="227.5" /><rect fill="#7f6b00" height="12" stroke="black" stroke-width="0.8" width="10" x="935.0" y="238" /><circle cx="942.5" cy="244.0" fill="#ffeb7f" r="1.2" /></g><g id="v3.1"><rect fill="url(#gradient-v3.1)" height="46" rx="2" ry="2" stroke="black" stroke-width="1.2" width="64" x="1108" y="204" /><polygon fill="#404040" points="1104,204 1140.0,194 1176,204" stroke="black" stroke-width="1.0" /><rect fill="#bfbfbf" height="7" stroke="#404040" stroke-width="0.7" width="10" x="1115" y="210" /><line stroke="#404040" stroke-width="0.5" x1="1120.0" x2="1120.0" y1="210" y2="217" /><line stroke="#404040" stroke-width="0.5" x1="1115" x2="1125" y1="213.5" y2="213.5" /><rect fill="#bfbfbf" height="7" stroke="#404040" stroke-width="0.7" width="10" x="1135" y="210" /><line stroke="#404040" stroke-width="0.5" x1="1140.0" x2="1140.0" y1="210" y2="217" /><line stroke="#404040" stroke-width="0.5" x1="1135" x2="1145" y1="213.5" y2="213.5" /><rect fill="#bfbfbf" height="7" stroke="#404040" stroke-width="0.7" width="10" x="1155" y="210" /><line stroke="#404040" stroke-width="0.5" x1="1160.0" x2="1160.0" y1="210" y2="217" /><line stroke="#404040" stroke-width="0.5" x1="1155" x2="1165" y1="213.5" y2="213.5" /><rect fill="#bfbfbf" height="7" stroke="#404040" stroke-width="0.7" width="10" x="1115" y="224" /><line stroke="#404040" stroke-width="0.5" x1="1120.0" x2="1120.0" y1="224" y2="231" /><line stroke="#404040" stroke-width="0.5" x1="1115" x2="1125" y1="227.5" y2="227.5" /><rect fill="#bfbfbf" height="7" stroke="#404040" stroke-width="0.7" width="10" x="1135" y="224" /><line stroke="#404040" stroke-width="0.5" x1="1140.0" x2="1140.0" y1="224" y2="231" /><line stroke="#404040" stroke-width="0.5" x1="1135" x2="1145" y1="227.5" y2="227.5" /><rect fill="#bfbfbf" height="7" stroke="#404040" stroke-width="0.7" width="10" x="1155" y="224" /><line stroke="#404040" stroke-width="0.5" x1="1160.0" x2="1160.0" y1="224" y2="231" /><line stroke="#404040" stroke-width="0.5" x1="1155" x2="1165" y1="227.5" y2="227.5" /><rect fill="#404040" height="12" stroke="black" stroke-width="0.8" width="10" x="1135.0" y="238" /><circle cx="1142.5" cy="244.0" fill="#bfbfbf" r="1.2" /></g><g id="feat-coords"><rect fill="url(#gradient-feat-coords)" height="50" rx="4" ry="4" stroke="black" stroke-width="1.2" width="80" x="100" y="400" /><line stroke="#4c4c4c" stroke-width="0.8" x1="102" x2="178" y1="416.6666666666667" y2="416.6666666666667" /><line stroke="#4c4c4c" stroke-width="0.8" x1="102" x2="178" y1="433.3333333333333" y2="433.3333333333333" /><circle cx="168" cy="408.3333333333333" fill="#00cc44" r="2.5" stroke="#4c4c4c" stroke-width="0.5" /><circle cx="160" cy="408.3333333333333" fill="#ffaa00" r="2.5" stroke="#4c4c4c" stroke-width="0.5" /><circle cx="168" cy="425.0" fill="#00cc44" r="2.5" stroke="#4c4c4c" stroke-width="0.5" /><circle cx="160" cy="425.0" fill="#ffaa00" r="2.5" stroke="#4c4c4c" stroke-width="0.5" /><circle cx="168" cy="441.66666666666663" fill="#00cc44" r="2.5" stroke="#4c4c4c" stroke-width="0.5" /><circle cx="160" cy="441.66666666666663" fill="#ffaa00" r="2.5" stroke="#4c4c4c" stroke-width="0.5" /><line stroke="#4c4c4c" stroke-width="0.6" x1="106" x2="118" y1="405.0" y2="405.0" /><line stroke="#4c4c4c" stroke-width="0.6" x1="106" x2="118" y1="408.3333333333333" y2="408.3333333333333" /><line stroke="#4c4c4c" stroke-width="0.6" x1="106" x2="118" y1="411.6666666666667" y2="411.6666666666667" /><line stroke="#4c4c4c" stroke-width="0.6" x1="106" x2="118" y1="421.6666666666667" y2="421.6666666666667" /><line stroke="#4c4c4c" stroke-width="0.6" x1="106" x2="118" y1="425.0" y2="425.0" /><line stroke="#4c4c4c" stroke-width="0.6" x1="106" x2="118" y1="428.33333333333337" y2="428.33333333333337" /><line stroke="#4c4c4c" stroke-width="0.6" x1="106" x2="118" y1="438.3333333333333" y2="438.3333333333333" /><line stroke="#4c4c4c" stroke-width="0.6" x1="106" x2="118" y1="441.66666666666663" y2="441.66666666666663" /><line stroke="#4c4c4c" stroke-width="0.6" x1="106" x2="118" y1="445.0" y2="445.0" /></g><g id="feat-waypoints"><rect fill="url(#gradient-feat-waypoints)" height="50" rx="4" ry="4" stroke="black" stroke-width="1.2" width="80" x="300" y="400" /><line stroke="#4c4c4c" stroke-width="0.8" x1="302" x2="378" y1="416.6666666666667" y2="416.6666666666667" /><line stroke="#4c4c4c" stroke-width="0.8" x1="302" x2="378" y1="433.3333333333333" y2="433.3333333333333" /><circle cx="368" cy="408.3333333333333" fill="#00cc44" r="2.5" stroke="#4c4c4c" stroke-width="0.5" /><circle cx="360" cy="408.3333333333333" fill="#ffaa00" r="2.5" stroke="#4c4c4c" stroke-width="0.5" /><circle cx="368" cy="425.0" fill="#00cc44" r="2.5" stroke="#4c4c4c" stroke-width="0.5" /><circle cx="360" cy="425.0" fill="#ffaa00" r="2.5" stroke="#4c4c4c" stroke-width="0.5" /><circle cx="368" cy="441.66666666666663" fill="#00cc44" r="2.5" stroke="#4c4c4c" stroke-width="0.5" /><circle cx="360" cy="441.66666666666663" fill="#ffaa00" r="2.5" stroke="#4c4c4c" stroke-width="0.5" /><line stroke="#4c4c4c" stroke-width="0.6" x1="306" x2="318" y1="405.0" y2="405.0" /><line stroke="#4c4c4c" stroke-width="0.6" x1="306" x2="318" y1="408.3333333333333" y2="408.3333333333333" /><line stroke="#4c4c4c" stroke-width="0.6" x1="306" x2="318" y1="411.6666666666667" y2="411.6666666666667" /><line stroke="#4c4c4c" stroke-width="0.6" x1="306" x2="318" y1="421.6666666666667" y2="421.6666666666667" /><line stroke="#4c4c4c" stroke-width="0.6" x1="306" x2="318" y1="425.0" y2="425.0" /><line stroke="#4c4c4c" stroke-width="0.6" x1="306" x2="318" y1="428.33333333333337" y2="428.33333333333337" /><line stroke="#4c4c4c" stroke-width="0.6" x1="306" x2="318" y1="438.3333333333333" y2="438.3333333333333" /><line stroke="#4c4c4c" stroke-width="0.6" x1="306" x2="318" y1="441.66666666666663" y2="441.66666666666663" /><line stroke="#4c4c4c" stroke-width="0.6" x1="306" x2="318" y1="445.0" y2="445.0" /></g><g id="feat-autolayout"><rect fill="url(#gradient-feat-autolayout)" height="50" rx="4" ry="4" stroke="black" stroke-width="1.2" width="80" x="500" y="400" /><line stroke="#4c4c4c" stroke-width="0.8" x1="502" x2="578" y1="416.6666666666667" y2="416.6666666666667" /><line stroke="#4c4c4c" stroke-width="0.8" x1="502" x2="578" y1="433.3333333333333" y2="433.3333333333333" /><circle cx="568" cy="408.3333333333333" fill="#00cc44" r="2.5" stroke="#4c4c4c" stroke-width="0.5" /><circle cx="560" cy="408.3333333333333" fill="#ffaa00" r="2.5" stroke="#4c4c4c" stroke-width="0.5" /><circle cx="568" cy="425.0" fill="#00cc44" r="2.5" stroke="#4c4c4c" stroke-width="0.5" /><circle cx="560" cy="425.0" fill="#ffaa00" r="2.5" stroke="#4c4c4c" stroke-width="0.5" /><circle cx="568" cy="441.66666666666663" fill="#00cc44" r="2.5" stroke="#4c4c4c" stroke-width="0.5" /><circle cx="560" cy="441.66666666666663" fill="#ffaa00" r="2.5" stroke="#4c4c4c" stroke-width="0.5" /><line stroke="#4c4c4c" stroke-width="0.6" x1="506" x2="518" y1="405.0" y2="405.0" /><line stroke="#4c4c4c" stroke-width="0.6" x1="506" x2="518" y1="408.3333333333333" y2="408.3333333333333" /><line stroke="#4c4c4c" stroke-width="0.6" x1="506" x2="518" y1="411.6666666666667" y2="411.6666666666667" /><line stroke="#4c4c4c" stroke-width="0.6" x1="506" x2="518" y1="421.6666666666667" y2="421.6666666666667" /><line stroke="#4c4c4c" stroke-width="0.6" x1="506" x2="518" y1="425.0" y2="425.0" /><line stroke="#4c4c4c" stroke-width="0.6" x1="506" x2="518" y1="428.33333333333337" y2="428.33333333333337" /><line stroke="#4c4c4c" stroke-width="0.6" x1="506" x2="518" y1="438.3333333333333" y2="438.3333333333333" /><line stroke="#4c4c4c" stroke-width="0.6" x1="506" x2="518" y1="441.66666666666663" y2="441.66666666666663" /><line stroke="#4c4c4c" stroke-width="0.6" x1="506" x2="518" y1="445.0" y2="445.0" /></g><g id="feat-routing"><rect fill="url(#gradient-feat-routing)" height="50" rx="4" ry="4" stroke="black" stroke-width="1.2" width="80" x="700" y="400" /><line stroke="#4c4c4c" stroke-width="0.8" x1="702" x2="778" y1="416.6666666666667" y2="416.6666666666667" /><line stroke="#4c4c4c" stroke-width="0.8" x1="702" x2="778" y1="433.3333333333333" y2="433.3333333333333" /><circle cx="768" cy="408.3333333333333" fill="#00cc44" r="2.5" stroke="#4c4c4c" stroke-width="0.5" /><circle cx="760" cy="408.3333333333333" fill="#ffaa00" r="2.5" stroke="#4c4c4c" stroke-width="0.5" /><circle cx="768" cy="425.0" fill="#00cc44" r="2.5" stroke="#4c4c4c" stroke-width="0.5" /><circle cx="760" cy="425.0" fill="#ffaa00" r="2.5" stroke="#4c4c4c" stroke-width="0.5" /><circle cx="768" cy="441.66666666666663" fill="#00cc44" r="2.5" stroke="#4c4c4c" stroke-width="0.5" /><circle cx="760" cy="441.66666666666663" fill="#ffaa00" r="2.5" stroke="#4c4c4c" stroke-width="0.5" /><line stroke="#4c4c4c" stroke-width="0.6" x1="706" x2="718" y1="405.0" y2="405.0" /><line stroke="#4c4c4c" stroke-width="0.6" x1="706" x2="718" y1="408.3333333333333" y2="408.3333333333333" /><line stroke="#4c4c4c" stroke-width="0.6" x1="706" x2="718" y1="411.6666666666667" y2="411.6666666666667" /><line stroke="#4c4c4c" stroke-width="0.6" x1="706" x2="718" y1="421.6666666666667" y2="421.6666666666667" /><line stroke="#4c4c4c" stroke-width="0.6" x1="706" x2="718" y1="425.0" y2="425.0" /><line stroke="#4c4c4c" stroke-width="0.6" x1="706" x2="718" y1="428.33333333333337" y2="428.33333333333337" /><line stroke="#4c4c4c" stroke-width="0.6" x1="706" x2="718" y1="438.3333333333333" y2="438.3333333333333" /><line stroke="#4c4c4c" stroke-width="0.6" x1="706" x2="718" y1="441.66666666666663" y2="441.66666666666663" /><line stroke="#4c4c4c" stroke-width="0.6" x1="706" x2="718" y1="445.0" y2="445.0" /></g><g id="feat-hierarchical"><rect fill="url(#gradient-feat-hierarchical)" height="50" rx="4" ry="4" stroke="black" stroke-width="1.2" width="80" x="900" y="400" /><line stroke="#4c4c4c" stroke-width="0.8" x1="902" x2="978" y1="416.6666666666667" y2="416.6666666666667" /><line stroke="#4c4c4c" stroke-width="0.8" x1="902" x2="978" y1="433.3333333333333" y2="433.3333333333333" /><circle cx="968" cy="408.3333333333333" fill="#00cc44" r="2.5" stroke="#4c4c4c" stroke-width="0.5" /><circle cx="960" cy="408.3333333333333" fill="#ffaa00" r="2.5" stroke="#4c4c4c" stroke-width="0.5" /><circle cx="968" cy="425.0" fill="#00cc44" r="2.5" stroke="#4c4c4c" stroke-width="0.5" /><circle cx="960" cy="425.0" fill="#ffaa00" r="2.5" stroke="#4c4c4c" stroke-width="0.5" /><circle cx="968" cy="441.66666666666663" fill="#00cc44" r="2.5" stroke="#4c4c4c" stroke-width="0.5" /><circle cx="960" cy="441.66666666666663" fill="#ffaa00" r="2.5" stroke="#4c4c4c" stroke-width="0.5" /><line stroke="#4c4c4c" stroke-width="0.6" x1="906" x2="918" y1="405.0" y2="405.0" /><line stroke="#4c4c4c" stroke-width="0.6" x1="906" x2="918" y1="408.3333333333333" y2="408.3333333333333" /><line stroke="#4c4c4c" stroke-width="0.6" x1="906" x2="918" y1="411.6666666666667" y2="411.6666666666667" /><line stroke="#4c4c4c" stroke-width="0.6" x1="906" x2="918" y1="421.6666666666667" y2="421.6666666666667" /><line stroke="#4c4c4c" stroke-width="0.6" x1="906" x2="918" y1="425.0" y2="425.0" /><line stroke="#4c4c4c" stroke-width="0.6" x1="906" x2="918" y1="428.33333333333337" y2="428.33333333333337" /><line stroke="#4c4c4c" stroke-width="0.6" x1="906" x2="918" y1="438.3333333333333" y2="438.3333333333333" /><line stroke="#4c4c4c" stroke-width="0.6" x1="906" x2="918" y1="441.66666666666663" y2="441.66666666666663" /><line stroke="#4c4c4c" stroke-width="0.6" x1="906" x2="918" y1="445.0" y2="445.0" /></g><g id="feat-v4"><rect fill="url(#gradient-feat-v4)" height="50" rx="4" ry="4" stroke="black" stroke-width="1.2" width="80" x="1100" y="400" /><line stroke="#4c4c4c" stroke-width="0.8" x1="1102" x2="1178" y1="416.6666666666667" y2="416.6666666666667" /><line stroke="#4c4c4c" stroke-width="0.8" x1="1102" x2="1178" y1="433.3333333333333" y2="433.3333333333333" /><circle cx="1168" cy="408.3333333333333" fill="#00cc44" r="2.5" stroke="#4c4c4c" stroke-width="0.5" /><circle cx="1160" cy="408.3333333333333" fill="#ffaa00" r="2.5" stroke="#4c4c4c" stroke-width="0.5" /><circle cx="1168" cy="425.0" fill="#00cc44" r="2.5" stroke="#4c4c4c" stroke-width="0.5" /><circle cx="1160" cy="425.0" fill="#ffaa00" r="2.5" stroke="#4c4c4c" stroke-width="0.5" /><circle cx="1168" cy="441.66666666666663" fill="#00cc44" r="2.5" stroke="#4c4c4c" stroke-width="0.5" /><circle cx="1160" cy="441.66666666666663" fill="#ffaa00" r="2.5" stroke="#4c4c4c" stroke-width="0.5" /><line stroke="#4c4c4c" stroke-width="0.6" x1="1106" x2="1118" y1="405.0" y2="405.0" /><line stroke="#4c4c4c" stroke-width="0.6" x1="1106" x2="1118" y1="408.3333333333333" y2="408.3333333333333" /><line stroke="#4c4c4c" stroke-width="0.6" x1="1106" x2="1118" y1="411.6666666666667" y2="411.6666666666667" /><line stroke="#4c4c4c" stroke-width="0.6" x1="1106" x2="1118" y1="421.6666666666667" y2="421.6666666666667" /><line stroke="#4c4c4c" stroke-width="0.6" x1="1106" x2="1118" y1="425.0" y2="425.0" /><line stroke="#4c4c4c" stroke-width="0.6" x1="1106" x2="1118" y1="428.33333333333337" y2="428.33333333333337" /><line stroke="#4c4c4c" stroke-width="0.6" x1="1106" x2="1118" y1="438.3333333333333" y2="438.3333333333333" /><line stroke="#4c4c4c" stroke-width="0.6" x1="1106" x2="1118" y1="441.66666666666663" y2="441.66666666666663" /><line stroke="#4c4c4c" stroke-width="0.6" x1="1106" x2="1118" y1="445.0" y2="445.0" /></g><g id="status-done"><ellipse cx="640.0" cy="633.0" fill="url(#gradient-status-done)" rx="36.0" ry="11.0" stroke="#64a664" stroke-width="0.8" /><circle cx="640.0" cy="621.0" fill="url(#gradient-status-done)" r="17.0" stroke="#64a664" stroke-width="0.8" /><circle cx="626.0" cy="627.0" fill="url(#gradient-status-done)" r="13.0" stroke="#64a664" stroke-width="0.8" /><circle cx="654.0" cy="627.0" fill="url(#gradient-status-done)" r="13.0" stroke="#64a664" stroke-width="0.8" /><ellipse cx="640.0" cy="629.0" fill="url(#gradient-status-done)" rx="30.4" ry="14.000000000000002" stroke="none" /></g><line marker-end="url(#arrow-end)" marker-start="url(#circle-start)" stroke="black" stroke-width="2" x1="172.0" x2="308.0" y1="225.0" y2="225.0" /><line marker-end="url(#arrow-end)" marker-start="url(#circle-start)" stroke="black" stroke-width="2" x1="372.0" x2="508.0" y1="225.0" y2="225.0" /><line marker-end="url(#arrow-end)" marker-start="url(#circle-start)" stroke="black" stroke-width="2" x1="572.0" x2="708.0" y1="225.0" y2="225.0" /><line marker-end="url(#arrow-end)" marker-start="url(#circle-start)" stroke="black" stroke-width="2" x1="772.0" x2="908.0" y1="225.0" y2="225.0" /><line marker-end="url(#arrow-end)" marker-start="url(#circle-start)" stroke="black" stroke-width="2" x1="972.0" x2="1108.0" y1="225.0" y2="225.0" /><line marker-end="url(#arrow-end)" marker-start="url(#circle-start)" stroke="black" stroke-width="2" x1="140.0" x2="140.0" y1="257.0" y2="393.0" /><line marker-end="url(#arrow-end)" marker-start="url(#circle-start)" stroke="black" stroke-width="2" x1="340.0" x2="340.0" y1="257.0" y2="393.0" /><line marker-end="url(#arrow-end)" marker-start="url(#circle-start)" stroke="black" stroke-width="2" x1="540.0" x2="540.0" y1="257.0" y2="393.0" /><line marker-end="url(#arrow-end)" marker-start="url(#circle-start)" stroke="black" stroke-width="2" x1="740.0" x2="740.0" y1="257.0" y2="393.0" /><line marker-end="url(#arrow-end)" marker-start="url(#circle-start)" stroke="black" stroke-width="2" x1="940.0" x2="940.0" y1="257.0" y2="393.0" /><line marker-end="url(#arrow-end)" marker-start="url(#circle-start)" stroke="black" stroke-width="2" x1="1140.0" x2="1140.0" y1="257.0" y2="393.0" /><text fill="black" filter="url(#text-glow)" font-family="Arial, sans-serif" font-size="14px" text-anchor="start" x="192.6" y="179.0">SDJF v1.0</text><text fill="black" filter="url(#text-glow)" font-family="Arial, sans-serif" font-size="14px" text-anchor="start" x="192.6" y="197.0">(Jun 2025)</text><text fill="black" filter="url(#text-glow)" font-family="Arial, sans-serif" font-size="14px" text-anchor="start" x="192.6" y="215.0">Base</text><text fill="black" filter="url(#text-glow)" font-family="Arial, sans-serif" font-size="14px" text-anchor="start" x="392.6" y="179.0">SDJF v1.5</text><text fill="black" filter="url(#text-glow)" font-family="Arial, sans-serif" font-size="14px" text-anchor="start" x="392.6" y="197.0">(Dic 2025)</text><text fill="black" filter="url(#text-glow)" font-family="Arial, sans-serif" font-size="14px" text-anchor="start" x="392.6" y="215.0">Waypoints</text><text fill="black" filter="url(#text-glow)" font-family="Arial, sans-serif" font-size="14px" text-anchor="start" x="592.6" y="179.0">SDJF v2.0</text><text fill="black" filter="url(#text-glow)" font-family="Arial, sans-serif" font-size="14px" text-anchor="start" x="592.6" y="197.0">(Ene 2026)</text><text fill="black" filter="url(#text-glow)" font-family="Arial, sans-serif" font-size="14px" text-anchor="start" x="592.6" y="215.0">Auto-layout</text><text fill="black" filter="url(#text-glow)" font-family="Arial, sans-serif" font-size="14px" text-anchor="start" x="792.6" y="179.0">SDJF v2.1</text><text fill="black" filter="url(#text-glow)" font-family="Arial, sans-serif" font-size="14px" text-anchor="start" x="792.6" y="197.0">(Q1 2026)</text><text fill="black" filter="url(#text-glow)" font-family="Arial, sans-serif" font-size="14px" text-anchor="start" x="792.6" y="215.0">Routing</text><text fill="black" filter="url(#text-glow)" font-family="Arial, sans-serif" font-size="14px" text-anchor="middle" x="940.0" y="271.0">SDJF v3.0</text><text fill="black" filter="url(#text-glow)" font-family="Arial, sans-serif" font-size="14px" text-anchor="middle" x="940.0" y="289.0">(Ene 2026)</text><text fill="black" filter="url(#text-glow)" font-family="Arial, sans-serif" font-size="14px" text-anchor="middle" x="940.0" y="307.0">Layout jerárquico</text><text fill="black" filter="url(#text-glow)" font-family="Arial, sans-serif" font-size="14px" text-anchor="start" x="1192.6" y="225.0">v3.1</text><text fill="black" filter="url(#text-glow)" font-family="Arial, sans-serif" font-size="14px" text-anchor="start" x="1192.6" y="243.0">(Feb 2026)</text><text fill="black" filter="url(#text-glow)" font-family="Arial, sans-serif" font-size="14px" text-anchor="start" x="1192.6" y="261.0">Auto v4.0</text><text fill="black" filter="url(#text-glow)" font-family="Arial, sans-serif" font-size="14px" text-anchor="start" x="1192.6" y="279.0">LAF 10 fases</text><text fill="black" filter="url(#text-glow)" font-family="Arial, sans-serif" font-size="14px" text-anchor="middle" x="140.0" y="471.0">Coordenadas</text><text fill="black" filter="url(#text-glow)" font-family="Arial, sans-serif" font-size="14px" text-anchor="middle" x="140.0" y="489.0">explícitas</text><text fill="black" filter="url(#text-glow)" font-family="Arial, sans-serif" font-size="14px" text-anchor="middle" x="340.0" y="471.0">Waypoints</text><text fill="black" filter="url(#text-glow)" font-family="Arial, sans-serif" font-size="14px" text-anchor="middle" x="340.0" y="489.0">manuales</text><text fill="black" filter="url(#text-glow)" font-family="Arial, sans-serif" font-size="14px" text-anchor="middle" x="540.0" y="471.0">Coordenadas</text><text fill="black" filter="url(#text-glow)" font-family="Arial, sans-serif" font-size="14px" text-anchor="middle" x="540.0" y="489.0">opcionales</text><text fill="black" filter="url(#text-glow)" font-family="Arial, sans-serif" font-size="14px" text-anchor="middle" x="540.0" y="507.0">hp/wp</text><text fill="black" filter="url(#text-glow)" font-family="Arial, sans-serif" font-size="14px" text-anchor="middle" x="740.0" y="471.0">Routing</text><text fill="black" filter="url(#text-glow)" font-family="Arial, sans-serif" font-size="14px" text-anchor="middle" x="740.0" y="489.0">declarativo</text><text fill="black" filter="url(#text-glow)" font-family="Arial, sans-serif" font-size="14px" text-anchor="middle" x="740.0" y="507.0">orthogonal/bezier</text><text fill="black" filter="url(#text-glow)" font-family="Arial, sans-serif" font-size="14px" text-anchor="middle" x="940.0" y="471.0">Layout jerárquico</text><text fill="black" filter="url(#text-glow)" font-family="Arial, sans-serif" font-size="14px" text-anchor="middle" x="940.0" y="489.0">Label optimizer</text><text fill="black" filter="url(#text-glow)" font-family="Arial, sans-serif" font-size="14px" text-anchor="middle" x="940.0" y="507.0">LAF 8 fases</text><text fill="black" filter="url(#text-glow)" font-family="Arial, sans-serif" font-size="14px" text-anchor="middle" x="1140.0" y="471.0">Barycenter</text><text fill="black" filter="url(#text-glow)" font-family="Arial, sans-serif" font-size="14px" text-anchor="middle" x="1140.0" y="489.0">Position Opt.</text><text fill="black" filter="url(#text-glow)" font-family="Arial, sans-serif" font-size="14px" text-anchor="middle" x="1140.0" y="507.0">Centralidad</text><text fill="black" filter="url(#text-glow)" font-family="Arial, sans-serif" font-size="14px" text-anchor="middle" x="1140.0" y="525.0">LAF 10 fases</text><text fill="black" filter="url(#text-glow)" font-family="Arial, sans-serif" font-size="14px" text-anchor="middle" x="640.0" y="671.0">COMPLETADO</text><text fill="gray" filter="url(#text-glow)" font-family="Arial, sans-serif" font-size="12px" text-anchor="end" x="89.2" y="325.0">features</text><text fill="gray" filter="url(#text-glow)" font-family="Arial, sans-serif" font-size="12px" text-anchor="end" x="289.2" y="325.0">features</text><text fill="gray" filter="url(#text-glow)" font-family="Arial, sans-serif" font-size="12px" text-anchor="start" x="590.8" y="325.0">features</text><text fill="gray" filter="url(#text-glow)" font-family="Arial, sans-serif" font-size="12px" text-anchor="start" x="790.8" y="325.0">features</text><text fill="gray" filter="url(#text-glow)" font-family="Arial, sans-serif" font-size="12px" text-anchor="start" x="990.8" y="325.0">features</text><text fill="gray" filter="url(#text-glow)" font-family="Arial, sans-serif" font-size="12px" text-anchor="start" x="1190.8" y="325.0">features</text></svg>