<?xml version="1.0" encoding="utf-8" ?>
<svg baseProfile="full" height="2060.0" version="1.1" viewBox="0,0,1390.0,2060.0" width="1390.0" xmlns="http://www.w3.org/2000/svg" xmlns:ev="http://www.w3.org/2001/xml-events" xmlns:xlink="http://www.w3.org/1999/xlink"><defs><marker id="arrow-end" markerHeight="10" markerWidth="10" orient="auto" refX="10" refY="5"><path d="M 0 0 L 10 5 L 0 10 z" fill="black" /></marker><marker id="arrow-start" markerHeight="10" markerWidth="10" orient="auto" refX="0" refY="5"><path d="M 10 0 L 0 5 L 10 10 z" fill="black" /></marker><marker id="circle-start" markerHeight="10" markerWidth="10" orient="auto" refX="5" refY="5"><circle cx="5" cy="5" fill="black" r="4" /></marker><marker id="circle-end" markerHeight="10" markerWidth="10" orient="auto" refX="5" refY="5"><circle cx="5" cy="5" fill="black" r="4" /></marker><marker id="arrow-end-c0" markerHeight="10" markerWidth="10" orient="auto" refX="10" refY="5"><path d="M 0 0 L 10 5 L 0 10 z" fill="#c32222" /></marker><marker id="arrow-start-c0" markerHeight="10" markerWidth="10" orient="auto" refX="0" refY="5"><path d="M 10 0 L 0 5 L 10 10 z" fill="#c32222" /></marker><marker id="circle-start-c0" markerHeight="10" markerWidth="10" orient="auto" refX="5" refY="5"><circle cx="5" cy="5" fill="#c32222" r="4" /></marker><marker id="circle-end-c0" markerHeight="10" markerWidth="10" orient="auto" refX="5" refY="5"><circle cx="5" cy="5" fill="#c32222" r="4" /></marker><marker id="arrow-end-c1" markerHeight="10" markerWidth="10" orient="auto" refX="10" refY="5"><path d="M 0 0 L 10 5 L 0 10 z" fill="#c37a22" /></marker><marker id="arrow-start-c1" markerHeight="10" markerWidth="10" orient="auto" refX="0" refY="5"><path d="M 10 0 L 0 5 L 10 10 z" fill="#c37a22" /></marker><marker id="circle-start-c1" markerHeight="10" markerWidth="10" orient="auto" refX="5" refY="5"><circle cx="5" cy="5" fill="#c37a22" r="4" /></marker><marker id="circle-end-c1" markerHeight="10" markerWidth="10" orient="auto" refX="5" refY="5"><circle cx="5" cy="5" fill="#c37a22" r="4" /></marker><marker id="arrow-end-c2" markerHeight="10" markerWidth="10" orient="auto" refX="10" refY="5"><path d="M 0 0 L 10 5 L 0 10 z" fill="#b4c322" /></marker><marker id="arrow-start-c2" markerHeight="10" markerWidth="10" orient="auto" refX="0" refY="5"><path d="M 10 0 L 0 5 L 10 10 z" fill="#b4c322" /></marker><marker id="circle-start-c2" markerHeight="10" markerWidth="10" orient="auto" refX="5" refY="5"><circle cx="5" cy="5" fill="#b4c322" r="4" /></marker><marker id="circle-end-c2" markerHeight="10" markerWidth="10" orient="auto" refX="5" refY="5"><circle cx="5" cy="5" fill="#b4c322" r="4" /></marker><marker id="arrow-end-c3" markerHeight="10" markerWidth="10" orient="auto" refX="10" refY="5"><path d="M 0 0 L 10 5 L 0 10 z" fill="#5cc322" /></marker><marker id="arrow-start-c3" markerHeight="10" markerWidth="10" orient="auto" refX="0" refY="5"><path d="M 10 0 L 0 5 L 10 10 z" fill="#5cc322" /></marker><marker id="circle-start-c3" markerHeight="10" markerWidth="10" orient="auto" refX="5" refY="5"><circle cx="5" cy="5" fill="#5cc322" r="4" /></marker><marker id="circle-end-c3" markerHeight="10" markerWidth="10" orient="auto" refX="5" refY="5"><circle cx="5" cy="5" fill="#5cc322" r="4" /></marker><marker id="arrow-end-c4" markerHeight="10" markerWidth="10" orient="auto" refX="10" refY="5"><path d="M 0 0 L 10 5 L 0 10 z" fill="#22c33f" /></marker><marker id="arrow-start-c4" markerHeight="10" markerWidth="10" orient="auto" refX="0" refY="5"><path d="M 10 0 L 0 5 L 10 10 z" fill="#22c33f" /></marker><marker id="circle-start-c4" markerHeight="10" markerWidth="10" orient="auto" refX="5" refY="5"><circle cx="5" cy="5" fill="#22c33f" r="4" /></marker><marker id="circle-end-c4" markerHeight="10" markerWidth="10" orient="auto" refX="5" refY="5"><circle cx="5" cy="5" fill="#22c33f" r="4" /></marker><marker id="arrow-end-c5" markerHeight="10" markerWidth="10" orient="auto" refX="10" refY="5"><path d="M 0 0 L 10 5 L 0 10 z" fill="#22c397" /></marker><marker id="arrow-start-c5" markerHeight="10" markerWidth="10" orient="auto" refX="0" refY="5"><path d="M 10 0 L 0 5 L 10 10 z" fill="#22c397" /></marker><marker id="circle-start-c5" markerHeight="10" markerWidth="10" orient="auto" refX="5" refY="5"><circle cx="5" cy="5" fill="#22c397" r="4" /></marker><marker id="circle-end-c5" markerHeight="10" markerWidth="10" orient="auto" refX="5" refY="5"><circle cx="5" cy="5" fill="#22c397" r="4" /></marker><marker id="arrow-end-c6" markerHeight="10" markerWidth="10" orient="auto" refX="10" refY="5"><path d="M 0 0 L 10 5 L 0 10 z" fill="#2297c3" /></marker><marker id="arrow-start-c6" markerHeight="10" markerWidth="10" orient="auto" refX="0" refY="5"><path d="M 10 0 L 0 5 L 10 10 z" fill="#2297c3" /></marker><marker id="circle-start-c6" markerHeight="10" markerWidth="10" orient="auto" refX="5" refY="5"><circle cx="5" cy="5" fill="#2297c3" r="4" /></marker><marker id="circle-end-c6" markerHeight="10" markerWidth="10" orient="auto" refX="5" refY="5"><circle cx="5" cy="5" fill="#2297c3" r="4" /></marker><marker id="arrow-end-c7" markerHeight="10" markerWidth="10" orient="auto" refX="10" refY="5"><path d="M 0 0 L 10 5 L 0 10 z" fill="#223fc3" /></marker><marker id="arrow-start-c7" markerHeight="10" markerWidth="10" orient="auto" refX="0" refY="5"><path d="M 10 0 L 0 5 L 10 10 z" fill="#223fc3" /></marker><marker id="circle-start-c7" markerHeight="10" markerWidth="10" orient="auto" refX="5" refY="5"><circle cx="5" cy="5" fill="#223fc3" r="4" /></marker><marker id="circle-end-c7" markerHeight="10" markerWidth="10" orient="auto" refX="5" refY="5"><circle cx="5" cy="5" fill="#223fc3" r="4" /></marker><marker id="arrow-end-c8" markerHeight="10" markerWidth="10" orient="auto" refX="10" refY="5"><path d="M 0 0 L 10 5 L 0 10 z" fill="#5c22c3" /></marker><marker id="arrow-start-c8" markerHeight="10" markerWidth="10" orient="auto" refX="0" refY="5"><path d="M 10 0 L 0 5 L 10 10 z" fill="#5c22c3" /></marker><marker id="circle-start-c8" markerHeight="10" markerWidth="10" orient="auto" refX="5" refY="5"><circle cx="5" cy="5" fill="#5c22c3" r="4" /></marker><marker id="circle-end-c8" markerHeight="10" markerWidth="10" orient="auto" refX="5" refY="5"><circle cx="5" cy="5" fill="#5c22c3" r="4" /></marker><marker id="arrow-end-c9" markerHeight="10" markerWidth="10" orient="auto" refX="10" refY="5"><path d="M 0 0 L 10 5 L 0 10 z" fill="#b422c3" /></marker><marker id="arrow-start-c9" markerHeight="10" markerWidth="10" orient="auto" refX="0" refY="5"><path d="M 10 0 L 0 5 L 10 10 z" fill="#b422c3" /></marker><marker id="circle-start-c9" markerHeight="10" markerWidth="10" orient="auto" refX="5" refY="5"><circle cx="5" cy="5" fill="#b422c3" r="4" /></marker><marker id="circle-end-c9" markerHeight="10" markerWidth="10" orient="auto" refX="5" refY="5"><circle cx="5" cy="5" fill="#b422c3" r="4" /></marker><marker id="arrow-end-c10" markerHeight="10" markerWidth="10" orient="auto" refX="10" refY="5"><path d="M 0 0 L 10 5 L 0 10 z" fill="#c3227a" /></marker><marker id="arrow-start-c10" markerHeight="10" markerWidth="10" orient="auto" refX="0" refY="5"><path d="M 10 0 L 0 5 L 10 10 z" fill="#c3227a" /></marker><marker id="circle-start-c10" markerHeight="10" markerWidth="10" orient="auto" refX="5" refY="5"><circle cx="5" cy="5" fill="#c3227a" r="4" /></marker><marker id="circle-end-c10" markerHeight="10" markerWidth="10" orient="auto" refX="5" refY="5"><circle cx="5" cy="5" fill="#c3227a" r="4" /></marker><linearGradient id="gradient-v1.0" x1="0%" x2="0%" y1="0%" y2="100%"><stop offset="0%" stop-color="#b1f3b1" /><stop offset="100%" stop-color="#64a664" /></linearGradient><linearGradient id="gradient-v1.5" x1="0%" x2="0%" y1="0%" y2="100%"><stop offset="0%" stop-color="#c5e3ed" /><stop offset="100%" stop-color="#7997a1" /></linearGradient><linearGradient id="gradient-v2.0" x1="0%" x2="0%" y1="0%" y2="100%"><stop offset="0%" stop-color="#ffe34c" /><stop offset="100%" stop-color="#b29600" /></linearGradient><linearGradient id="gradient-v2.1" x1="0%" x2="0%" y1="0%" y2="100%"><stop offset="0%" stop-color="#ffc04c" /><stop offset="100%" stop-color="#b27300" /></linearGradient><linearGradient id="gradient-v3.0" x1="0%" x2="0%" y1="0%" y2="100%"><stop offset="0%" stop-color="#ffe34c" /><stop offset="100%" stop-color="#b29600" /></linearGradient><linearGradient id="gradient-v3.1" x1="0%" x2="0%" y1="0%" y2="100%"><stop offset="0%" stop-color="#a6a6a6" /><stop offset="100%" stop-color="#595959" /></linearGradient><linearGradient id="gradient-feat-coords" x1="0%" x2="0%" y1="0%" y2="100%"><stop offset="0%" stop-color="#a6a6a6" /><stop offset="100%" stop-color="#595959" /></linearGradient><linearGradient id="gradient-feat-waypoints" x1="0%" x2="0%" y1="0%" y2="100%"><stop offset="0%" stop-color="#a6a6a6" /><stop offset="100%" stop-color="#595959" /></linearGradient><linearGradient id="gradient-feat-autolayout" x1="0%" x2="0%" y1="0%" y2="100%"><stop offset="0%" stop-color="#a6a6a6" /><stop offset="100%" stop-color="#595959" /></linearGradient><linearGradient id="gradient-feat-routing" x1="0%" x2="0%" y1="0%" y2="100%"><stop offset="0%" stop-color="#a6a6a6" /><stop offset="100%" stop-color="#595959" /></linearGradient><linearGradient id="gradient-feat-hierarchical" x1="0%" x2="0%" y1="0%" y2="100%"><stop offset="0%" stop-color="#a6a6a6" /><stop offset="100%" stop-color="#595959" /></linearGradient><linearGradient id="gradient-feat-v4" x1="0%" x2="0%" y1="0%" y2="100%"><stop offset="0%" stop-color="#a6a6a6" /><stop offset="100%" stop-color="#595959" /></linearGradient><linearGradient id="gradient-status-done" x1="0%" x2="0%" y1="0%" y2="100%"><stop offset="0%" stop-color="#b1f3b1" /><stop offset="100%" stop-color="#64a664" /></linearGradient></defs><g id="v1.0"><g transform="translate(110.0,30.0) scale(1.2048192771084338,0.6928406466512702) translate(-0.9,-1.4)"><path d="M 22.754087,32.116749 0.94545599,43.000013 V 4.7289739 L 22.754087,1.5702876 Z" fill="#e9e9ff" stroke="none" /><path d="M 50.712576,33.120864 V 1.4628125 L 22.754087,1.5702876 V 32.116749 Z" fill="#353564" stroke="none" /><path d="M 50.712576,33.120864 35.295871,44.770537 0.94545599,43.000013 22.754087,32.116749 Z" fill="#4d4d9f" stroke="none" /><path d="M 50.712576,1.4628125 35.295871,4.7384198 0.94545599,4.7289739 22.754087,1.5702876 Z" fill="#1c1ce6" opacity="1" stroke="none" /><path d="M 35.295871,44.770537 V 4.7384198 L 0.94545599,4.7289739 V 43.000013 Z" fill="#1a52ff" opacity="0.96" stroke="none" /><path d="M 50.712576,33.120864 35.295871,44.770537 V 4.7384198 L 50.712576,1.4628125 Z" fill="#1c9bd0" stroke="none" /><rect fill="none" height="43.3" opacity="0.67" stroke="#cbcbcb" stroke-width="0.48" width="49.8" x="0.9" y="1.4" /></g></g><g id="v1.5"><g transform="translate(110.0,320.0) scale(1.2048192771084338,0.6928406466512702) translate(-0.9,-1.4)"><path d="M 22.754087,32.116749 0.94545599,43.000013 V 4.7289739 L 22.754087,1.5702876 Z" fill="#e9e9ff" stroke="none" /><path d="M 50.712576,33.120864 V 1.4628125 L 22.754087,1.5702876 V 32.116749 Z" fill="#353564" stroke="none" /><path d="M 50.712576,33.120864 35.295871,44.770537 0.94545599,43.000013 22.754087,32.116749 Z" fill="#4d4d9f" stroke="none" /><path d="M 50.712576,1.4628125 35.295871,4.7384198 0.94545599,4.7289739 22.754087,1.5702876 Z" fill="#1c1ce6" opacity="1" stroke="none" /><path d="M 35.295871,44.770537 V 4.7384198 L 0.94545599,4.7289739 V 43.000013 Z" fill="#1a52ff" opacity="0.96" stroke="none" /><path d="M 50.712576,33.120864 35.295871,44.770537 V 4.7384198 L 50.712576,1.4628125 Z" fill="#1c9bd0" stroke="none" /><rect fill="none" height="43.3" opacity="0.67" stroke="#cbcbcb" stroke-width="0.48" width="49.8" x="0.9" y="1.4" /></g></g><g id="v2.0"><g transform="translate(110.0,610.0) scale(1.2048192771084338,0.6928406466512702) translate(-0.9,-1.4)"><path d="M 22.754087,32.116749 0.94545599,43.000013 V 4.7289739 L 22.754087,1.5702876 Z" fill="#e9e9ff" stroke="none" /><path d="M 50.712576,33.120864 V 1.4628125 L 22.754087,1.5702876 V 32.116749 Z" fill="#353564" stroke="none" /><path d="M 50.712576,33.120864 35.295871,44.770537 0.94545599,43.000013 22.754087,32.116749 Z" fill="#4d4d9f" stroke="none" /><path d="M 50.712576,1.4628125 35.295871,4.7384198 0.94545599,4.7289739 22.754087,1.5702876 Z" fill="#1c1ce6" opacity="1" stroke="none" /><path d="M 35.295871,44.770537 V 4.7384198 L 0.94545599,4.7289739 V 43.000013 Z" fill="#1a52ff" opacity="0.96" stroke="none" /><path d="M 50.712576,33.120864 35.295871,44.770537 V 4.7384198 L 50.712576,1.4628125 Z" fill="#1c9bd0" stroke="none" /><rect fill="none" height="43.3" opacity="0.67" stroke="#cbcbcb" stroke-width="0.48" width="49.8" x="0.9" y="1.4" /></g></g><g id="v2.1"><g transform="translate(110.0,900.0) scale(1.2048192771084338,0.6928406466512702) translate(-0.9,-1.4)"><path d="M 22.754087,32.116749 0.94545599,43.000013 V 4.7289739 L 22.754087,1.5702876 Z" fill="#e9e9ff" stroke="none" /><path d="M 50.712576,33.120864 V 1.4628125 L 22.754087,1.5702876 V 32.116749 Z" fill="#353564" stroke="none" /><path d="M 50.712576,33.120864 35.295871,44.770537 0.94545599,43.000013 22.754087,32.116749 Z" fill="#4d4d9f" stroke="none" /><path d="M 50.712576,1.4628125 35.295871,4.7384198 0.94545599,4.7289739 22.754087,1.5702876 Z" fill="#1c1ce6" opacity="1" stroke="none" /><path d="M 35.295871,44.770537 V 4.7384198 L 0.94545599,4.7289739 V 43.000013 Z" fill="#1a52ff" opacity="0.96" stroke="none" /><path d="M 50.712576,33.120864 35.295871,44.770537 V 4.7384198 L 50.712576,1.4628125 Z" fill="#1c9bd0" stroke="none" /><rect fill="none" height="43.3" opacity="0.67" stroke="#cbcbcb" stroke-width="0.48" width="49.8" x="0.9" y="1.4" /></g></g><g id="v3.0"><g transform="translate(110.0,1190.0) scale(1.2048192771084338,0.6928406466512702) translate(-0.9,-1.4)"><path d="M 22.754087,32.116749 0.94545599,43.000013 V 4.7289739 L 22.754087,1.5702876 Z" fill="#e9e9ff" stroke="none" /><path d="M 50.712576,33.120864 V 1.4628125 L 22.754087,1.5702876 V 32.116749 Z" fill="#353564" stroke="none" /><path d="M 50.712576,33.120864 35.295871,44.770537 0.94545599,43.000013 22.754087,32.116749 Z" fill="#4d4d9f" stroke="none" /><path d="M 50.712576,1.4628125 35.295871,4.7384198 0.94545599,4.7289739 22.754087,1.5702876 Z" fill="#1c1ce6" opacity="1" stroke="none" /><path d="M 35.295871,44.770537 V 4.7384198 L 0.94545599,4.7289739 V 43.000013 Z" fill="#1a52ff" opacity="0.96" stroke="none" /><path d="M 50.712576,33.120864 35.295871,44.770537 V 4.7384198 L 50.712576,1.4628125 Z" fill="#1c9bd0" stroke="none" /><rect fill="none" height="43.3" opacity="0.67" stroke="#cbcbcb" stroke-width="0.48" width="49.8" x="0.9" y="1.4" /></g></g><g id="v3.1"><g transform="translate(110.0,1480.0) scale(1.2048192771084338,0.6928406466512702) translate(-0.9,-1.4)"><path d="M 22.754087,32.116749 0.94545599,43.000013 V 4.7289739 L 22.754087,1.5702876 Z" fill="#e9e9ff" stroke="none" /><path d="M 50.712576,33.120864 V 1.4628125 L 22.754087,1.5702876 V 32.116749 Z" fill="#353564" stroke="none" /><path d="M 50.712576,33.120864 35.295871,44.770537 0.94545599,43.000013 22.754087,32.116749 Z" fill="#4d4d9f" stroke="none" /><path d="M 50.712576,1.4628125 35.295871,4.7384198 0.94545599,4.7289739 22.754087,1.5702876 Z" fill="#1c1ce6" opacity="1" stroke="none" /><path d="M 35.295871,44.770537 V 4.7384198 L 0.94545599,4.7289739 V 43.000013 Z" fill="#1a52ff" opacity="0.96" stroke="none" /><path d="M 50.712576,33.120864 35.295871,44.770537 V 4.7384198 L 50.712576,1.4628125 Z" fill="#1c9bd0" stroke="none" /><rect fill="none" height="43.3" opacity="0.67" stroke="#cbcbcb" stroke-width="0.48" width="49.8" x="0.9" y="1.4" /></g></g><rect fill="url(#gradient-feat-coords)" height="50" stroke="black" width="80" x="580.0" y="20.0" /><rect fill="url(#gradient-feat-waypoints)" height="50" stroke="black" width="80" x="580.0" y="310.0" /><rect fill="url(#gradient-feat-autolayout)" height="50" stroke="black" width="80" x="580.0" y="600.0" /><rect fill="url(#gradient-feat-routing)" height="50" stroke="black" width="80" x="580.0" y="890.0" /><rect fill="url(#gradient-feat-hierarchical)" height="50" stroke="black" width="80" x="580.0" y="1180.0" /><rect fill="url(#gradient-feat-v4)" height="50" stroke="black" width="80" x="100.0" y="1760.0" /><ellipse cx="1100.0" cy="45.0" fill="url(#gradient-status-done)" rx="40.0" ry="25.0" stroke="black" /><line marker-end="url(#arrow-end-c0)" marker-start="url(#circle-start-c0)" stroke="#c32222" stroke-width="2" x1="140.0" x2="140.0" y1="77.0" y2="303.0" /><line marker-end="url(#arrow-end-c1)" marker-start="url(#circle-start-c1)" stroke="#c37a22" stroke-width="2" x1="140.0" x2="140.0" y1="367.0" y2="593.0" /><line marker-end="url(#arrow-end-c2)" marker-start="url(#circle-start-c2)" stroke="#b4c322" stroke-width="2" x1="140.0" x2="140.0" y1="657.0" y2="883.0" /><line marker-end="url(#arrow-end-c3)" marker-start="url(#circle-start-c3)" stroke="#5cc322" stroke-width="2" x1="140.0" x2="140.0" y1="947.0" y2="1173.0" /><line marker-end="url(#arrow-end-c4)" marker-start="url(#circle-start-c4)" stroke="#22c33f" stroke-width="2" x1="140.0" x2="140.0" y1="1237.0" y2="1463.0" /><line marker-end="url(#arrow-end-c5)" marker-start="url(#circle-start-c5)" stroke="#22c397" stroke-width="2" x1="172.0" x2="588.0" y1="45.0" y2="45.0" /><line marker-end="url(#arrow-end-c6)" marker-start="url(#circle-start-c6)" stroke="#2297c3" stroke-width="2" x1="172.0" x2="588.0" y1="335.0" y2="335.0" /><line marker-end="url(#arrow-end-c7)" marker-start="url(#circle-start-c7)" stroke="#223fc3" stroke-width="2" x1="172.0" x2="588.0" y1="625.0" y2="625.0" /><line marker-end="url(#arrow-end-c8)" marker-start="url(#circle-start-c8)" stroke="#5c22c3" stroke-width="2" x1="172.0" x2="588.0" y1="915.0" y2="915.0" /><line marker-end="url(#arrow-end-c9)" marker-start="url(#circle-start-c9)" stroke="#b422c3" stroke-width="2" x1="172.0" x2="588.0" y1="1205.0" y2="1205.0" /><line marker-end="url(#arrow-end-c10)" marker-start="url(#circle-start-c10)" stroke="#c3227a" stroke-width="2" x1="140.0" x2="140.0" y1="1527.0" y2="1753.0" /><text fill="black" font-family="Arial, sans-serif" font-size="14px" text-anchor="end" x="87.4" y="45.0">SDJF v1.0</text><text fill="black" font-family="Arial, sans-serif" font-size="14px" text-anchor="end" x="87.4" y="63.0">(Jun 2025)</text><text fill="black" font-family="Arial, sans-serif" font-size="14px" text-anchor="end" x="87.4" y="81.0">Base</text><text fill="black" font-family="Arial, sans-serif" font-size="14px" text-anchor="end" x="87.4" y="335.0">SDJF v1.5</text><text fill="black" font-family="Arial, sans-serif" font-size="14px" text-anchor="end" x="87.4" y="353.0">(Dic 2025)</text><text fill="black" font-family="Arial, sans-serif" font-size="14px" text-anchor="end" x="87.4" y="371.0">Waypoints</text><text fill="black" font-family="Arial, sans-serif" font-size="14px" text-anchor="start" x="192.6" y="671.0">SDJF v2.0</text><text fill="black" font-family="Arial, sans-serif" font-size="14px" text-anchor="start" x="192.6" y="689.0">(Ene 2026)</text><text fill="black" font-family="Arial, sans-serif" font-size="14px" text-anchor="start" x="192.6" y="707.0">Auto-layout</text><text fill="black" font-family="Arial, sans-serif" font-size="14px" text-anchor="end" x="87.4" y="915.0">SDJF v2.1</text><text fill="black" font-family="Arial, sans-serif" font-size="14px" text-anchor="end" x="87.4" y="933.0">(Q1 2026)</text><text fill="black" font-family="Arial, sans-serif" font-size="14px" text-anchor="end" x="87.4" y="951.0">Routing</text><text fill="black" font-family="Arial, sans-serif" font-size="14px" text-anchor="start" x="192.6" y="1251.0">SDJF v3.0</text><text fill="black" font-family="Arial, sans-serif" font-size="14px" text-anchor="start" x="192.6" y="1269.0">(Ene 2026)</text><text fill="black" font-family="Arial, sans-serif" font-size="14px" text-anchor="start" x="192.6" y="1287.0">Layout jerárquico</text><text fill="black" font-family="Arial, sans-serif" font-size="14px" text-anchor="start" x="192.6" y="1495.0">v3.1</text><text fill="black" font-family="Arial, sans-serif" font-size="14px" text-anchor="start" x="192.6" y="1513.0">(Feb 2026)</text><text fill="black" font-family="Arial, sans-serif" font-size="14px" text-anchor="start" x="192.6" y="1531.0">Auto v4.0</text><text fill="black" font-family="Arial, sans-serif" font-size="14px" text-anchor="start" x="192.6" y="1549.0">LAF 10 fases</text><text fill="black" font-family="Arial, sans-serif" font-size="14px" text-anchor="middle" x="620.0" y="91.0">Coordenadas</text><text fill="black" font-family="Arial, sans-serif" font-size="14px" text-anchor="middle" x="620.0" y="109.0">explícitas</text><text fill="black" font-family="Arial, sans-serif" font-size="14px" text-anchor="middle" x="620.0" y="381.0">Waypoints</text><text fill="black" font-family="Arial, sans-serif" font-size="14px" text-anchor="middle" x="620.0" y="399.0">manuales</text><text fill="black" font-family="Arial, sans-serif" font-size="14px" text-anchor="middle" x="620.0" y="671.0">Coordenadas</text><text fill="black" font-family="Arial, sans-serif" font-size="14px" text-anchor="middle" x="620.0" y="689.0">opcionales</text><text fill="black" font-family="Arial, sans-serif" font-size="14px" text-anchor="middle" x="620.0" y="707.0">hp/wp</text><text fill="black" font-family="Arial, sans-serif" font-size="14px" text-anchor="middle" x="620.0" y="961.0">Routing</text><text fill="black" font-family="Arial, sans-serif" font-size="14px" text-anchor="middle" x="620.0" y="979.0">declarativo</text><text fill="black" font-family="Arial, sans-serif" font-size="14px" text-anchor="middle" x="620.0" y="997.0">orthogonal/bezier</text><text fill="black" font-family="Arial, sans-serif" font-size="14px" text-anchor="middle" x="620.0" y="1251.0">Layout jerárquico</text><text fill="black" font-family="Arial, sans-serif" font-size="14px" text-anchor="middle" x="620.0" y="1269.0">Label optimizer</text><text fill="black" font-family="Arial, sans-serif" font-size="14px" text-anchor="middle" x="620.0" y="1287.0">LAF 8 fases</text><text fill="black" font-family="Arial, sans-serif" font-size="14px" text-anchor="middle" x="140.0" y="1831.0">Barycenter</text><text fill="black" font-family="Arial, sans-serif" font-size="14px" text-anchor="middle" x="140.0" y="1849.0">Position Opt.</text><text fill="black" font-family="Arial, sans-serif" font-size="14px" text-anchor="middle" x="140.0" y="1867.0">Centralidad</text><text fill="black" font-family="Arial, sans-serif" font-size="14px" text-anchor="middle" x="140.0" y="1885.0">LAF 10 fases</text><text fill="black" font-family="Arial, sans-serif" font-size="14px" text-anchor="middle" x="1100.0" y="91.0">COMPLETADO</text><text fill="gray" font-family="Arial, sans-serif" font-size="12px" text-anchor="middle" x="380.0" y="88.0">features</text><text fill="gray" font-family="Arial, sans-serif" font-size="12px" text-anchor="middle" x="380.0" y="292.0">features</text><text fill="gray" font-family="Arial, sans-serif" font-size="12px" text-anchor="middle" x="380.0" y="582.0">features</text><text fill="gray" font-family="Arial, sans-serif" font-size="12px" text-anchor="middle" x="380.0" y="872.0">features</text><text fill="gray" font-family="Arial, sans-serif" font-size="12px" text-anchor="middle" x="380.0" y="1162.0">features</text><text fill="gray" font-family="Arial, sans-serif" font-size="12px" text-anchor="end" x="89.2" y="1640.0">features</text></svg>