<?xml version="1.0" encoding="utf-8" ?>
<svg baseProfile="full" height="900" version="1.1" viewBox="0,0,1400,900" width="1400" xmlns="http://www.w3.org/2000/svg" xmlns:ev="http://www.w3.org/2001/xml-events" xmlns:xlink="http://www.w3.org/1999/xlink"><defs><marker id="arrow-end" markerHeight="10" markerWidth="10" orient="auto" refX="10" refY="5"><path d="M 0 0 L 10 5 L 0 10 z" fill="black" /></marker><marker id="arrow-start" markerHeight="10" markerWidth="10" orient="auto" refX="0" refY="5"><path d="M 10 0 L 0 5 L 10 10 z" fill="black" /></marker><linearGradient id="gradient-v1.0" x1="0%" x2="0%" y1="0%" y2="100%"><stop offset="0%" stop-color="#b1f3b1" /><stop offset="100%" stop-color="#64a664" /></linearGradient><linearGradient id="gradient-v1.5" x1="0%" x2="0%" y1="0%" y2="100%"><stop offset="0%" stop-color="#c5e3ed" /><stop offset="100%" stop-color="#7997a1" /></linearGradient><linearGradient id="gradient-v2.0" x1="0%" x2="0%" y1="0%" y2="100%"><stop offset="0%" stop-color="#ffe34c" /><stop offset="100%" stop-color="#b29600" /></linearGradient><linearGradient id="gradient-v2.1" x1="0%" x2="0%" y1="0%" y2="100%"><stop offset="0%" stop-color="#ffc04c" /><stop offset="100%" stop-color="#b27300" /></linearGradient><linearGradient id="gradient-v2.2" x1="0%" x2="0%" y1="0%" y2="100%"><stop offset="0%" stop-color="#ff917e" /><stop offset="100%" stop-color="#b24531" /></linearGradient><linearGradient id="gradient-v3.0" x1="0%" x2="0%" y1="0%" y2="100%"><stop offset="0%" stop-color="#a6a6a6" /><stop offset="100%" stop-color="#595959" /></linearGradient><linearGradient id="gradient-feat-coords" x1="0%" x2="0%" y1="0%" y2="100%"><stop offset="0%" stop-color="#a6a6a6" /><stop offset="100%" stop-color="#595959" /></linearGradient><linearGradient id="gradient-feat-waypoints" x1="0%" x2="0%" y1="0%" y2="100%"><stop offset="0%" stop-color="#a6a6a6" /><stop offset="100%" stop-color="#595959" /></linearGradient><linearGradient id="gradient-feat-autolayout" x1="0%" x2="0%" y1="0%" y2="100%"><stop offset="0%" stop-color="#a6a6a6" /><stop offset="100%" stop-color="#595959" /></linearGradient><linearGradient id="gradient-feat-routing" x1="0%" x2="0%" y1="0%" y2="100%"><stop offset="0%" stop-color="#a6a6a6" /><stop offset="100%" stop-color="#595959" /></linearGradient><linearGradient id="gradient-feat-constraints" x1="0%" x2="0%" y1="0%" y2="100%"><stop offset="0%" stop-color="#a6a6a6" /><stop offset="100%" stop-color="#595959" /></linearGradient><linearGradient id="gradient-feat-themes" x1="0%" x2="0%" y1="0%" y2="100%"><stop offset="0%" stop-color="#a6a6a6" /><stop offset="100%" stop-color="#595959" /></linearGradient><linearGradient id="gradient-status-done" x1="0%" x2="0%" y1="0%" y2="100%"><stop offset="0%" stop-color="#b1f3b1" /><stop offset="100%" stop-color="#64a664" /></linearGradient><linearGradient id="gradient-status-current" x1="0%" x2="0%" y1="0%" y2="100%"><stop offset="0%" stop-color="#ffe34c" /><stop offset="100%" stop-color="#b29600" /></linearGradient><linearGradient id="gradient-status-planned" x1="0%" x2="0%" y1="0%" y2="100%"><stop offset="0%" stop-color="#a6a6a6" /><stop offset="100%" stop-color="#595959" /></linearGradient></defs><rect fill="url(#gradient-v1.0)" height="50" stroke="black" width="80" x="100" y="200" /><rect fill="url(#gradient-v1.5)" height="50" stroke="black" width="80" x="300" y="200" /><rect fill="url(#gradient-v2.0)" height="50" stroke="black" width="80" x="500" y="200" /><rect fill="url(#gradient-v2.1)" height="50" stroke="black" width="80" x="700" y="200" /><rect fill="url(#gradient-v2.2)" height="50" stroke="black" width="80" x="900" y="200" /><ellipse cx="1140.0" cy="225.0" fill="url(#gradient-v3.0)" rx="40.0" ry="25.0" stroke="black" /><rect fill="url(#gradient-feat-coords)" height="50" stroke="black" width="80" x="100" y="400" /><rect fill="url(#gradient-feat-waypoints)" height="50" stroke="black" width="80" x="300" y="400" /><rect fill="url(#gradient-feat-autolayout)" height="50" stroke="black" width="80" x="500" y="400" /><rect fill="url(#gradient-feat-routing)" height="50" stroke="black" width="80" x="700" y="400" /><rect fill="url(#gradient-feat-constraints)" height="50" stroke="black" width="80" x="900" y="400" /><rect fill="url(#gradient-feat-themes)" height="50" stroke="black" width="80" x="1100" y="400" /><ellipse cx="390.0" cy="625.0" fill="url(#gradient-status-done)" rx="40.0" ry="25.0" stroke="black" /><ellipse cx="740.0" cy="625.0" fill="url(#gradient-status-current)" rx="40.0" ry="25.0" stroke="black" /><ellipse cx="1040.0" cy="625.0" fill="url(#gradient-status-planned)" rx="40.0" ry="25.0" stroke="black" /><line marker-end="url(#arrow-end)" stroke="black" stroke-width="2" x1="172.0" x2="308.0" y1="225.0" y2="225.0" /><line marker-end="url(#arrow-end)" stroke="black" stroke-width="2" x1="372.0" x2="508.0" y1="225.0" y2="225.0" /><line marker-end="url(#arrow-end)" stroke="black" stroke-width="2" x1="572.0" x2="708.0" y1="225.0" y2="225.0" /><line marker-end="url(#arrow-end)" stroke="black" stroke-width="2" x1="772.0" x2="908.0" y1="225.0" y2="225.0" /><line marker-end="url(#arrow-end)" stroke="black" stroke-width="2" x1="972.0" x2="1100.0" y1="225.0" y2="225.0" /><line marker-end="url(#arrow-end)" stroke="black" stroke-width="2" x1="140.0" x2="140.0" y1="257.0" y2="393.0" /><line marker-end="url(#arrow-end)" stroke="black" stroke-width="2" x1="340.0" x2="340.0" y1="257.0" y2="393.0" /><line marker-end="url(#arrow-end)" stroke="black" stroke-width="2" x1="540.0" x2="540.0" y1="257.0" y2="393.0" /><line marker-end="url(#arrow-end)" stroke="black" stroke-width="2" x1="740.0" x2="740.0" y1="257.0" y2="393.0" /><line marker-end="url(#arrow-end)" stroke="black" stroke-width="2" x1="940.0" x2="940.0" y1="257.0" y2="393.0" /><line marker-end="url(#arrow-end)" stroke="black" stroke-width="2" x1="1140.0" x2="1140.0" y1="265.0" y2="393.0" /><text fill="black" font-family="Arial, sans-serif" font-size="14px" text-anchor="middle" x="140.0" y="240.0">SDJF v1.0
(Jun 2025)
Base</text><text fill="black" font-family="Arial, sans-serif" font-size="14px" text-anchor="middle" x="340.0" y="240.0">SDJF v1.5
(Dic 2025)
Waypoints</text><text fill="black" font-family="Arial, sans-serif" font-size="14px" text-anchor="middle" x="540.0" y="240.0">SDJF v2.0
(Ene 2026)
Auto-layout</text><text fill="black" font-family="Arial, sans-serif" font-size="14px" text-anchor="middle" x="740.0" y="240.0">SDJF v2.1
(Q1 2026)
Routing</text><text fill="black" font-family="Arial, sans-serif" font-size="14px" text-anchor="middle" x="940.0" y="240.0">SDJF v2.2
(Q2 2026)
Optimización</text><text fill="black" font-family="Arial, sans-serif" font-size="14px" text-anchor="middle" x="1140.0" y="240.0">SDJF v3.0
(Q3-Q4 2026)
Temas</text><text fill="black" font-family="Arial, sans-serif" font-size="14px" text-anchor="middle" x="140.0" y="440.0">Coordenadas
explícitas</text><text fill="black" font-family="Arial, sans-serif" font-size="14px" text-anchor="middle" x="340.0" y="440.0">Waypoints
manuales</text><text fill="black" font-family="Arial, sans-serif" font-size="14px" text-anchor="middle" x="540.0" y="440.0">Coordenadas
opcionales
hp/wp</text><text fill="black" font-family="Arial, sans-serif" font-size="14px" text-anchor="middle" x="740.0" y="440.0">Routing
declarativo
orthogonal/bezier</text><text fill="black" font-family="Arial, sans-serif" font-size="14px" text-anchor="middle" x="940.0" y="440.0">Layout
constraints
margins</text><text fill="black" font-family="Arial, sans-serif" font-size="14px" text-anchor="middle" x="1140.0" y="440.0">Temas
Animación
Íconos custom</text><text fill="black" font-family="Arial, sans-serif" font-size="14px" text-anchor="middle" x="390.0" y="640.0">COMPLETADO</text><text fill="black" font-family="Arial, sans-serif" font-size="14px" text-anchor="middle" x="740.0" y="640.0">EN DESARROLLO</text><text fill="black" font-family="Arial, sans-serif" font-size="14px" text-anchor="middle" x="1040.0" y="640.0">PLANIFICADO</text><text fill="gray" font-family="Arial, sans-serif" font-size="12px" text-anchor="middle" x="140.0" y="310.0">features</text><text fill="gray" font-family="Arial, sans-serif" font-size="12px" text-anchor="middle" x="340.0" y="310.0">features</text><text fill="gray" font-family="Arial, sans-serif" font-size="12px" text-anchor="middle" x="540.0" y="310.0">features</text><text fill="gray" font-family="Arial, sans-serif" font-size="12px" text-anchor="middle" x="740.0" y="310.0">features</text><text fill="gray" font-family="Arial, sans-serif" font-size="12px" text-anchor="middle" x="940.0" y="310.0">features</text><text fill="gray" font-family="Arial, sans-serif" font-size="12px" text-anchor="middle" x="1140.0" y="314.0">features</text></svg>