<?xml version="1.0" encoding="utf-8" ?>
<svg baseProfile="full" height="900" version="1.1" viewBox="0,0,1200,900" width="1200" xmlns="http://www.w3.org/2000/svg" xmlns:ev="http://www.w3.org/2001/xml-events" xmlns:xlink="http://www.w3.org/1999/xlink"><defs><marker id="arrow-end" markerHeight="10" markerWidth="10" orient="auto" refX="10" refY="5"><path d="M 0 0 L 10 5 L 0 10 z" fill="black" /></marker><marker id="arrow-start" markerHeight="10" markerWidth="10" orient="auto" refX="0" refY="5"><path d="M 10 0 L 0 5 L 10 10 z" fill="black" /></marker><linearGradient id="gradient-manager" x1="0%" x2="0%" y1="0%" y2="100%"><stop offset="0%" stop-color="#ffe34c" /><stop offset="100%" stop-color="#b29600" /></linearGradient><linearGradient id="gradient-router-base" x1="0%" x2="0%" y1="0%" y2="100%"><stop offset="0%" stop-color="#c5e3ed" /><stop offset="100%" stop-color="#7997a1" /></linearGradient><linearGradient id="gradient-straight" x1="0%" x2="0%" y1="0%" y2="100%"><stop offset="0%" stop-color="#b1f3b1" /><stop offset="100%" stop-color="#64a664" /></linearGradient><linearGradient id="gradient-orthogonal" x1="0%" x2="0%" y1="0%" y2="100%"><stop offset="0%" stop-color="#ffc04c" /><stop offset="100%" stop-color="#b27300" /></linearGradient><linearGradient id="gradient-bezier" x1="0%" x2="0%" y1="0%" y2="100%"><stop offset="0%" stop-color="#4cffff" /><stop offset="100%" stop-color="#00b2b2" /></linearGradient><linearGradient id="gradient-arc" x1="0%" x2="0%" y1="0%" y2="100%"><stop offset="0%" stop-color="#a6a6a6" /><stop offset="100%" stop-color="#595959" /></linearGradient><linearGradient id="gradient-manual" x1="0%" x2="0%" y1="0%" y2="100%"><stop offset="0%" stop-color="#a6a6a6" /><stop offset="100%" stop-color="#595959" /></linearGradient><linearGradient id="gradient-path-class" x1="0%" x2="0%" y1="0%" y2="100%"><stop offset="0%" stop-color="#c5e3ed" /><stop offset="100%" stop-color="#7997a1" /></linearGradient><linearGradient id="gradient-point-class" x1="0%" x2="0%" y1="0%" y2="100%"><stop offset="0%" stop-color="#c5e3ed" /><stop offset="100%" stop-color="#7997a1" /></linearGradient><linearGradient id="gradient-astar" x1="0%" x2="0%" y1="0%" y2="100%"><stop offset="0%" stop-color="#ff917e" /><stop offset="100%" stop-color="#b24531" /></linearGradient><linearGradient id="gradient-grid" x1="0%" x2="0%" y1="0%" y2="100%"><stop offset="0%" stop-color="#a6a6a6" /><stop offset="100%" stop-color="#595959" /></linearGradient><linearGradient id="gradient-optimizer" x1="0%" x2="0%" y1="0%" y2="100%"><stop offset="0%" stop-color="#ffe34c" /><stop offset="100%" stop-color="#b29600" /></linearGradient><linearGradient id="gradient-draw-connections" x1="0%" x2="0%" y1="0%" y2="100%"><stop offset="0%" stop-color="#b1f3b1" /><stop offset="100%" stop-color="#64a664" /></linearGradient></defs><rect fill="url(#gradient-manager)" height="50" stroke="black" width="80" x="550" y="100" /><g id="router-base"><g transform="translate(560.0,260.0) scale(1.2048192771084338,0.6928406466512702) translate(-0.9,-1.4)"><path d="M 22.754087,32.116749 0.94545599,43.000013 V 4.7289739 L 22.754087,1.5702876 Z" fill="#e9e9ff" stroke="none" /><path d="M 50.712576,33.120864 V 1.4628125 L 22.754087,1.5702876 V 32.116749 Z" fill="#353564" stroke="none" /><path d="M 50.712576,33.120864 35.295871,44.770537 0.94545599,43.000013 22.754087,32.116749 Z" fill="#4d4d9f" stroke="none" /><path d="M 50.712576,1.4628125 35.295871,4.7384198 0.94545599,4.7289739 22.754087,1.5702876 Z" fill="#1c1ce6" opacity="1" stroke="none" /><path d="M 35.295871,44.770537 V 4.7384198 L 0.94545599,4.7289739 V 43.000013 Z" fill="#1a52ff" opacity="0.96" stroke="none" /><path d="M 50.712576,33.120864 35.295871,44.770537 V 4.7384198 L 50.712576,1.4628125 Z" fill="#1c9bd0" stroke="none" /><rect fill="none" height="43.3" opacity="0.67" stroke="#cbcbcb" stroke-width="0.48" width="49.8" x="0.9" y="1.4" /></g></g><rect fill="url(#gradient-straight)" height="50" stroke="black" width="80" x="150" y="400" /><rect fill="url(#gradient-orthogonal)" height="50" stroke="black" width="80" x="350" y="400" /><rect fill="url(#gradient-bezier)" height="50" stroke="black" width="80" x="550" y="400" /><rect fill="url(#gradient-arc)" height="50" stroke="black" width="80" x="750" y="400" /><rect fill="url(#gradient-manual)" height="50" stroke="black" width="80" x="950" y="400" /><ellipse cx="240.0" cy="625.0" fill="url(#gradient-path-class)" rx="40.0" ry="25.0" stroke="black" /><ellipse cx="440.0" cy="625.0" fill="url(#gradient-point-class)" rx="40.0" ry="25.0" stroke="black" /><ellipse cx="640.0" cy="625.0" fill="url(#gradient-astar)" rx="40.0" ry="25.0" stroke="black" /><ellipse cx="840.0" cy="625.0" fill="url(#gradient-grid)" rx="40.0" ry="25.0" stroke="black" /><g id="optimizer"><g transform="translate(110.0,110.0) scale(1.2048192771084338,0.6928406466512702) translate(-0.9,-1.4)"><path d="M 22.754087,32.116749 0.94545599,43.000013 V 4.7289739 L 22.754087,1.5702876 Z" fill="#e9e9ff" stroke="none" /><path d="M 50.712576,33.120864 V 1.4628125 L 22.754087,1.5702876 V 32.116749 Z" fill="#353564" stroke="none" /><path d="M 50.712576,33.120864 35.295871,44.770537 0.94545599,43.000013 22.754087,32.116749 Z" fill="#4d4d9f" stroke="none" /><path d="M 50.712576,1.4628125 35.295871,4.7384198 0.94545599,4.7289739 22.754087,1.5702876 Z" fill="#1c1ce6" opacity="1" stroke="none" /><path d="M 35.295871,44.770537 V 4.7384198 L 0.94545599,4.7289739 V 43.000013 Z" fill="#1a52ff" opacity="0.96" stroke="none" /><path d="M 50.712576,33.120864 35.295871,44.770537 V 4.7384198 L 50.712576,1.4628125 Z" fill="#1c9bd0" stroke="none" /><rect fill="none" height="43.3" opacity="0.67" stroke="#cbcbcb" stroke-width="0.48" width="49.8" x="0.9" y="1.4" /></g></g><g id="draw-connections"><g transform="translate(1010.0,110.0) scale(1.2048192771084338,0.6928406466512702) translate(-0.9,-1.4)"><path d="M 22.754087,32.116749 0.94545599,43.000013 V 4.7289739 L 22.754087,1.5702876 Z" fill="#e9e9ff" stroke="none" /><path d="M 50.712576,33.120864 V 1.4628125 L 22.754087,1.5702876 V 32.116749 Z" fill="#353564" stroke="none" /><path d="M 50.712576,33.120864 35.295871,44.770537 0.94545599,43.000013 22.754087,32.116749 Z" fill="#4d4d9f" stroke="none" /><path d="M 50.712576,1.4628125 35.295871,4.7384198 0.94545599,4.7289739 22.754087,1.5702876 Z" fill="#1c1ce6" opacity="1" stroke="none" /><path d="M 35.295871,44.770537 V 4.7384198 L 0.94545599,4.7289739 V 43.000013 Z" fill="#1a52ff" opacity="0.96" stroke="none" /><path d="M 50.712576,33.120864 35.295871,44.770537 V 4.7384198 L 50.712576,1.4628125 Z" fill="#1c9bd0" stroke="none" /><rect fill="none" height="43.3" opacity="0.67" stroke="#cbcbcb" stroke-width="0.48" width="49.8" x="0.9" y="1.4" /></g></g><line marker-end="url(#arrow-end)" stroke="black" stroke-width="2" x1="172.0" x2="558.0" y1="125.0" y2="125.0" /><line marker-end="url(#arrow-end)" stroke="black" stroke-width="2" x1="590.0" x2="590.0" y1="157.0" y2="243.0" /><line marker-end="url(#arrow-end)" stroke="black" stroke-width="2" x1="560.0374663177906" x2="219.96253368220943" y1="286.23595013082854" y2="413.76404986917146" /><line marker-end="url(#arrow-end)" stroke="black" stroke-width="2" x1="564.4" x2="415.6" y1="294.2" y2="405.8" /><line marker-end="url(#arrow-end)" stroke="black" stroke-width="2" x1="590.0" x2="590.0" y1="307.0" y2="393.0" /><line marker-end="url(#arrow-end)" stroke="black" stroke-width="2" x1="615.6" x2="764.4" y1="294.2" y2="405.8" /><line marker-end="url(#arrow-end)" stroke="black" stroke-width="2" x1="619.9625336822094" x2="960.0374663177906" y1="286.23595013082854" y2="413.76404986917146" /><line marker-end="url(#arrow-end)" stroke="black" stroke-width="2" x1="197.76114000116266" x2="230.29857499854668" y1="456.04456000465063" y2="586.1942999941867" /><line marker-end="url(#arrow-end)" stroke="black" stroke-width="2" x1="370.8" x2="264.0" y1="450.6" y2="593.0" /><line marker-end="url(#arrow-end)" stroke="black" stroke-width="2" x1="562.2162194520173" x2="274.72972568497835" y1="440.8764460274187" y2="605.1544424657267" /><line marker-end="url(#arrow-end)" stroke="black" stroke-width="2" x1="759.9266104483701" x2="277.5917369395375" y1="435.93577801877456" y2="611.3302774765318" /><line marker-end="url(#arrow-end)" stroke="black" stroke-width="2" x1="414.98780190217695" x2="608.7652476222788" y1="444.99024152174155" y2="600.012198097823" /><line marker-end="url(#arrow-end)" stroke="black" stroke-width="2" x1="680.0" x2="800.0" y1="625.0" y2="625.0" /><line marker-end="url(#arrow-end)" stroke="black" stroke-width="2" x1="280.0" x2="400.0" y1="625.0" y2="625.0" /><line marker-end="url(#arrow-end)" stroke="black" stroke-width="2" x1="622.0" x2="1008.0" y1="125.0" y2="125.0" /><text fill="black" font-family="Arial, sans-serif" font-size="14px" text-anchor="middle" x="590.0" y="62">ConnectionRouterManager</text><text fill="black" font-family="Arial, sans-serif" font-size="14px" text-anchor="middle" x="590.0" y="80">(Dispatcher)</text><text fill="black" font-family="Arial, sans-serif" font-size="14px" text-anchor="middle" x="645.0" y="265.0">ConnectionRouter</text><text fill="black" font-family="Arial, sans-serif" font-size="14px" text-anchor="middle" x="645.0" y="283.0">(Abstract)</text><text fill="black" font-family="Arial, sans-serif" font-size="14px" text-anchor="middle" x="190.0" y="362">StraightRouter</text><text fill="black" font-family="Arial, sans-serif" font-size="14px" text-anchor="middle" x="190.0" y="380">(Línea recta)</text><text fill="black" font-family="Arial, sans-serif" font-size="14px" text-anchor="middle" x="390.0" y="460.0">OrthogonalRouter</text><text fill="black" font-family="Arial, sans-serif" font-size="14px" text-anchor="middle" x="390.0" y="478.0">(H-V / V-H)</text><text fill="black" font-family="Arial, sans-serif" font-size="14px" text-anchor="middle" x="535" y="415.0">BezierRouter</text><text fill="black" font-family="Arial, sans-serif" font-size="14px" text-anchor="middle" x="535" y="433.0">(Curvas)</text><text fill="black" font-family="Arial, sans-serif" font-size="14px" text-anchor="middle" x="790.0" y="460.0">ArcRouter</text><text fill="black" font-family="Arial, sans-serif" font-size="14px" text-anchor="middle" x="790.0" y="478.0">(Círculos)</text><text fill="black" font-family="Arial, sans-serif" font-size="14px" text-anchor="middle" x="990.0" y="460.0">ManualRouter</text><text fill="black" font-family="Arial, sans-serif" font-size="14px" text-anchor="middle" x="990.0" y="478.0">(v1.5 compat)</text><text fill="black" font-family="Arial, sans-serif" font-size="14px" text-anchor="middle" x="240.0" y="660.0">Path</text><text fill="black" font-family="Arial, sans-serif" font-size="14px" text-anchor="middle" x="240.0" y="678.0">(Resultado)</text><text fill="black" font-family="Arial, sans-serif" font-size="14px" text-anchor="middle" x="440.0" y="660.0">Point</text><text fill="black" font-family="Arial, sans-serif" font-size="14px" text-anchor="middle" x="440.0" y="678.0">(2D)</text><text fill="black" font-family="Arial, sans-serif" font-size="14px" text-anchor="middle" x="640.0" y="660.0">A* Algorithm</text><text fill="black" font-family="Arial, sans-serif" font-size="14px" text-anchor="middle" x="640.0" y="678.0">(Collision avoid)</text><text fill="black" font-family="Arial, sans-serif" font-size="14px" text-anchor="middle" x="840.0" y="660.0">Grid</text><text fill="black" font-family="Arial, sans-serif" font-size="14px" text-anchor="middle" x="840.0" y="678.0">(Discretization)</text><text fill="black" font-family="Arial, sans-serif" font-size="14px" text-anchor="middle" x="140.0" y="160.0">AutoLayoutOptimizer</text><text fill="black" font-family="Arial, sans-serif" font-size="14px" text-anchor="middle" x="1040.0" y="160.0">draw/connections.py</text><text fill="black" font-family="Arial, sans-serif" font-size="14px" text-anchor="middle" x="1040.0" y="178.0">(Rendering)</text><text fill="gray" font-family="Arial, sans-serif" font-size="12px" text-anchor="middle" x="365.0" y="82.0">usa</text><text fill="gray" font-family="Arial, sans-serif" font-size="12px" text-anchor="end" x="539.2" y="200.0">delega</text><text fill="gray" font-family="Arial, sans-serif" font-size="12px" text-anchor="end" x="163.2298574998547" y="521.1194299994187">retorna</text><text fill="gray" font-family="Arial, sans-serif" font-size="12px" text-anchor="end" x="266.59999999999997" y="521.8">retorna</text><text fill="gray" font-family="Arial, sans-serif" font-size="12px" text-anchor="start" x="469.27297256849783" y="566.0154442465727">retorna</text><text fill="gray" font-family="Arial, sans-serif" font-size="12px" text-anchor="start" x="569.5591736939538" y="523.6330277476532">retorna</text><text fill="gray" font-family="Arial, sans-serif" font-size="12px" text-anchor="start" x="562.6765247622278" y="522.5012198097822">usa (avoid)</text><text fill="gray" font-family="Arial, sans-serif" font-size="12px" text-anchor="middle" x="740.0" y="582.0">usa</text><text fill="gray" font-family="Arial, sans-serif" font-size="12px" text-anchor="middle" x="340.0" y="668.0">contiene</text><text fill="gray" font-family="Arial, sans-serif" font-size="12px" text-anchor="middle" x="815.0" y="82.0">computed_path</text></svg>