<?xml version="1.0" encoding="utf-8" ?>
<svg baseProfile="full" height="900" version="1.1" viewBox="0,0,1200,900" width="1200" xmlns="http://www.w3.org/2000/svg" xmlns:ev="http://www.w3.org/2001/xml-events" xmlns:xlink="http://www.w3.org/1999/xlink"><defs><filter height="140%" id="text-glow" width="140%" x="-20%" y="-20%"><feGaussianBlur in="SourceGraphic" result="blur" stdDeviation="2" /><feFlood flood-color="white" flood-opacity="1" result="color" /><feComposite in="color" in2="blur" operator="in" result="shadow" /><feMerge><feMergeNode in="shadow" /><feMergeNode in="shadow" /><feMergeNode in="SourceGraphic" /></feMerge></filter><marker id="arrow-end" markerHeight="10" markerWidth="10" orient="auto" refX="10" refY="5"><path d="M 0 0 L 10 5 L 0 10 z" fill="black" /></marker><marker id="arrow-start" markerHeight="10" markerWidth="10" orient="auto" refX="0" refY="5"><path d="M 10 0 L 0 5 L 10 10 z" fill="black" /></marker><marker id="circle-start" markerHeight="10" markerWidth="10" orient="auto" refX="5" refY="5"><circle cx="5" cy="5" fill="black" r="4" /></marker><marker id="circle-end" markerHeight="10" markerWidth="10" orient="auto" refX="5" refY="5"><circle cx="5" cy="5" fill="black" r="4" /></marker><linearGradient id="gradient-manager" x1="0%" x2="0%" y1="0%" y2="100%"><stop offset="0%" stop-color="#ffe34c" /><stop offset="100%" stop-color="#b29600" /></linearGradient><linearGradient id="gradient-router-base" x1="0%" x2="0%" y1="0%" y2="100%"><stop offset="0%" stop-color="#c5e3ed" /><stop offset="100%" stop-color="#7997a1" /></linearGradient><linearGradient id="gradient-straight" x1="0%" x2="0%" y1="0%" y2="100%"><stop offset="0%" stop-color="#b1f3b1" /><stop offset="100%" stop-color="#64a664" /></linearGradient><linearGradient id="gradient-orthogonal" x1="0%" x2="0%" y1="0%" y2="100%"><stop offset="0%" stop-color="#ffc04c" /><stop offset="100%" stop-color="#b27300" /></linearGradient><linearGradient id="gradient-bezier" x1="0%" x2="0%" y1="0%" y2="100%"><stop offset="0%" stop-color="#4cffff" /><stop offset="100%" stop-color="#00b2b2" /></linearGradient><linearGradient id="gradient-arc" x1="0%" x2="0%" y1="0%" y2="100%"><stop offset="0%" stop-color="#a6a6a6" /><stop offset="100%" stop-color="#595959" /></linearGradient><linearGradient id="gradient-manual" x1="0%" x2="0%" y1="0%" y2="100%"><stop offset="0%" stop-color="#a6a6a6" /><stop offset="100%" stop-color="#595959" /></linearGradient><linearGradient id="gradient-path-class" x1="0%" x2="0%" y1="0%" y2="100%"><stop offset="0%" stop-color="#c5e3ed" /><stop offset="100%" stop-color="#7997a1" /></linearGradient><linearGradient id="gradient-point-class" x1="0%" x2="0%" y1="0%" y2="100%"><stop offset="0%" stop-color="#c5e3ed" /><stop offset="100%" stop-color="#7997a1" /></linearGradient><linearGradient id="gradient-astar" x1="0%" x2="0%" y1="0%" y2="100%"><stop offset="0%" stop-color="#ff917e" /><stop offset="100%" stop-color="#b24531" /></linearGradient><linearGradient id="gradient-grid" x1="0%" x2="0%" y1="0%" y2="100%"><stop offset="0%" stop-color="#a6a6a6" /><stop offset="100%" stop-color="#595959" /></linearGradient><linearGradient id="gradient-optimizer" x1="0%" x2="0%" y1="0%" y2="100%"><stop offset="0%" stop-color="#ffe34c" /><stop offset="100%" stop-color="#b29600" /></linearGradient><linearGradient id="gradient-draw-connections" x1="0%" x2="0%" y1="0%" y2="100%"><stop offset="0%" stop-color="#b1f3b1" /><stop offset="100%" stop-color="#64a664" /></linearGradient></defs><g id="manager"><rect fill="url(#gradient-manager)" height="50" rx="4" ry="4" stroke="black" stroke-width="1.2" width="80" x="550" y="100" /><line stroke="#998100" stroke-width="0.8" x1="552" x2="628" y1="116.66666666666667" y2="116.66666666666667" /><line stroke="#998100" stroke-width="0.8" x1="552" x2="628" y1="133.33333333333334" y2="133.33333333333334" /><circle cx="618" cy="108.33333333333333" fill="#00cc44" r="2.5" stroke="#998100" stroke-width="0.5" /><circle cx="610" cy="108.33333333333333" fill="#ffaa00" r="2.5" stroke="#998100" stroke-width="0.5" /><circle cx="618" cy="125.0" fill="#00cc44" r="2.5" stroke="#998100" stroke-width="0.5" /><circle cx="610" cy="125.0" fill="#ffaa00" r="2.5" stroke="#998100" stroke-width="0.5" /><circle cx="618" cy="141.66666666666669" fill="#00cc44" r="2.5" stroke="#998100" stroke-width="0.5" /><circle cx="610" cy="141.66666666666669" fill="#ffaa00" r="2.5" stroke="#998100" stroke-width="0.5" /><line stroke="#998100" stroke-width="0.6" x1="556" x2="568" y1="105.0" y2="105.0" /><line stroke="#998100" stroke-width="0.6" x1="556" x2="568" y1="108.33333333333333" y2="108.33333333333333" /><line stroke="#998100" stroke-width="0.6" x1="556" x2="568" y1="111.66666666666667" y2="111.66666666666667" /><line stroke="#998100" stroke-width="0.6" x1="556" x2="568" y1="121.66666666666667" y2="121.66666666666667" /><line stroke="#998100" stroke-width="0.6" x1="556" x2="568" y1="125.0" y2="125.0" /><line stroke="#998100" stroke-width="0.6" x1="556" x2="568" y1="128.33333333333334" y2="128.33333333333334" /><line stroke="#998100" stroke-width="0.6" x1="556" x2="568" y1="138.33333333333334" y2="138.33333333333334" /><line stroke="#998100" stroke-width="0.6" x1="556" x2="568" y1="141.66666666666669" y2="141.66666666666669" /><line stroke="#998100" stroke-width="0.6" x1="556" x2="568" y1="145.0" y2="145.0" /></g><g id="router-base"><rect fill="url(#gradient-router-base)" height="46" rx="2" ry="2" stroke="black" stroke-width="1.2" width="64" x="558" y="254" /><polygon fill="#566c73" points="554,254 590.0,244 626,254" stroke="black" stroke-width="1.0" /><rect fill="#d6ebf2" height="7" stroke="#566c73" stroke-width="0.7" width="10" x="565" y="260" /><line stroke="#566c73" stroke-width="0.5" x1="570.0" x2="570.0" y1="260" y2="267" /><line stroke="#566c73" stroke-width="0.5" x1="565" x2="575" y1="263.5" y2="263.5" /><rect fill="#d6ebf2" height="7" stroke="#566c73" stroke-width="0.7" width="10" x="585" y="260" /><line stroke="#566c73" stroke-width="0.5" x1="590.0" x2="590.0" y1="260" y2="267" /><line stroke="#566c73" stroke-width="0.5" x1="585" x2="595" y1="263.5" y2="263.5" /><rect fill="#d6ebf2" height="7" stroke="#566c73" stroke-width="0.7" width="10" x="605" y="260" /><line stroke="#566c73" stroke-width="0.5" x1="610.0" x2="610.0" y1="260" y2="267" /><line stroke="#566c73" stroke-width="0.5" x1="605" x2="615" y1="263.5" y2="263.5" /><rect fill="#d6ebf2" height="7" stroke="#566c73" stroke-width="0.7" width="10" x="565" y="274" /><line stroke="#566c73" stroke-width="0.5" x1="570.0" x2="570.0" y1="274" y2="281" /><line stroke="#566c73" stroke-width="0.5" x1="565" x2="575" y1="277.5" y2="277.5" /><rect fill="#d6ebf2" height="7" stroke="#566c73" stroke-width="0.7" width="10" x="585" y="274" /><line stroke="#566c73" stroke-width="0.5" x1="590.0" x2="590.0" y1="274" y2="281" /><line stroke="#566c73" stroke-width="0.5" x1="585" x2="595" y1="277.5" y2="277.5" /><rect fill="#d6ebf2" height="7" stroke="#566c73" stroke-width="0.7" width="10" x="605" y="274" /><line stroke="#566c73" stroke-width="0.5" x1="610.0" x2="610.0" y1="274" y2="281" /><line stroke="#566c73" stroke-width="0.5" x1="605" x2="615" y1="277.5" y2="277.5" /><rect fill="#566c73" height="12" stroke="black" stroke-width="0.8" width="10" x="585.0" y="288" /><circle cx="592.5" cy="294.0" fill="#d6ebf2" r="1.2" /></g><g id="straight"><rect fill="url(#gradient-straight)" height="50" rx="4" ry="4" stroke="black" stroke-width="1.2" width="80" x="150" y="400" /><line stroke="#568e56" stroke-width="0.8" x1="152" x2="228" y1="416.6666666666667" y2="416.6666666666667" /><line stroke="#568e56" stroke-width="0.8" x1="152" x2="228" y1="433.3333333333333" y2="433.3333333333333" /><circle cx="218" cy="408.3333333333333" fill="#00cc44" r="2.5" stroke="#568e56" stroke-width="0.5" /><circle cx="210" cy="408.3333333333333" fill="#ffaa00" r="2.5" stroke="#568e56" stroke-width="0.5" /><circle cx="218" cy="425.0" fill="#00cc44" r="2.5" stroke="#568e56" stroke-width="0.5" /><circle cx="210" cy="425.0" fill="#ffaa00" r="2.5" stroke="#568e56" stroke-width="0.5" /><circle cx="218" cy="441.66666666666663" fill="#00cc44" r="2.5" stroke="#568e56" stroke-width="0.5" /><circle cx="210" cy="441.66666666666663" fill="#ffaa00" r="2.5" stroke="#568e56" stroke-width="0.5" /><line stroke="#568e56" stroke-width="0.6" x1="156" x2="168" y1="405.0" y2="405.0" /><line stroke="#568e56" stroke-width="0.6" x1="156" x2="168" y1="408.3333333333333" y2="408.3333333333333" /><line stroke="#568e56" stroke-width="0.6" x1="156" x2="168" y1="411.6666666666667" y2="411.6666666666667" /><line stroke="#568e56" stroke-width="0.6" x1="156" x2="168" y1="421.6666666666667" y2="421.6666666666667" /><line stroke="#568e56" stroke-width="0.6" x1="156" x2="168" y1="425.0" y2="425.0" /><line stroke="#568e56" stroke-width="0.6" x1="156" x2="168" y1="428.33333333333337" y2="428.33333333333337" /><line stroke="#568e56" stroke-width="0.6" x1="156" x2="168" y1="438.3333333333333" y2="438.3333333333333" /><line stroke="#568e56" stroke-width="0.6" x1="156" x2="168" y1="441.66666666666663" y2="441.66666666666663" /><line stroke="#568e56" stroke-width="0.6" x1="156" x2="168" y1="445.0" y2="445.0" /></g><g id="orthogonal"><rect fill="url(#gradient-orthogonal)" height="50" rx="4" ry="4" stroke="black" stroke-width="1.2" width="80" x="350" y="400" /><line stroke="#996300" stroke-width="0.8" x1="352" x2="428" y1="416.6666666666667" y2="416.6666666666667" /><line stroke="#996300" stroke-width="0.8" x1="352" x2="428" y1="433.3333333333333" y2="433.3333333333333" /><circle cx="418" cy="408.3333333333333" fill="#00cc44" r="2.5" stroke="#996300" stroke-width="0.5" /><circle cx="410" cy="408.3333333333333" fill="#ffaa00" r="2.5" stroke="#996300" stroke-width="0.5" /><circle cx="418" cy="425.0" fill="#00cc44" r="2.5" stroke="#996300" stroke-width="0.5" /><circle cx="410" cy="425.0" fill="#ffaa00" r="2.5" stroke="#996300" stroke-width="0.5" /><circle cx="418" cy="441.66666666666663" fill="#00cc44" r="2.5" stroke="#996300" stroke-width="0.5" /><circle cx="410" cy="441.66666666666663" fill="#ffaa00" r="2.5" stroke="#996300" stroke-width="0.5" /><line stroke="#996300" stroke-width="0.6" x1="356" x2="368" y1="405.0" y2="405.0" /><line stroke="#996300" stroke-width="0.6" x1="356" x2="368" y1="408.3333333333333" y2="408.3333333333333" /><line stroke="#996300" stroke-width="0.6" x1="356" x2="368" y1="411.6666666666667" y2="411.6666666666667" /><line stroke="#996300" stroke-width="0.6" x1="356" x2="368" y1="421.6666666666667" y2="421.6666666666667" /><line stroke="#996300" stroke-width="0.6" x1="356" x2="368" y1="425.0" y2="425.0" /><line stroke="#996300" stroke-width="0.6" x1="356" x2="368" y1="428.33333333333337" y2="428.33333333333337" /><line stroke="#996300" stroke-width="0.6" x1="356" x2="368" y1="438.3333333333333" y2="438.3333333333333" /><line stroke="#996300" stroke-width="0.6" x1="356" x2="368" y1="441.66666666666663" y2="441.66666666666663" /><line stroke="#996300" stroke-width="0.6" x1="356" x2="368" y1="445.0" y2="445.0" /></g><g id="bezier"><rect fill="url(#gradient-bezier)" height="50" rx="4" ry="4" stroke="black" stroke-width="1.2" width="80" x="550" y="400" /><line stroke="#009999" stroke-width="0.8" x1="552" x2="628" y1="416.6666666666667" y2="416.6666666666667" /><line stroke="#009999" stroke-width="0.8" x1="552" x2="628" y1="433.3333333333333" y2="433.3333333333333" /><circle cx="618" cy="408.3333333333333" fill="#00cc44" r="2.5" stroke="#009999" stroke-width="0.5" /><circle cx="610" cy="408.3333333333333" fill="#ffaa00" r="2.5" stroke="#009999" stroke-width="0.5" /><circle cx="618" cy="425.0" fill="#00cc44" r="2.5" stroke="#009999" stroke-width="0.5" /><circle cx="610" cy="425.0" fill="#ffaa00" r="2.5" stroke="#009999" stroke-width="0.5" /><circle cx="618" cy="441.66666666666663" fill="#00cc44" r="2.5" stroke="#009999" stroke-width="0.5" /><circle cx="610" cy="441.66666666666663" fill="#ffaa00" r="2.5" stroke="#009999" stroke-width="0.5" /><line stroke="#009999" stroke-width="0.6" x1="556" x2="568" y1="405.0" y2="405.0" /><line stroke="#009999" stroke-width="0.6" x1="556" x2="568" y1="408.3333333333333" y2="408.3333333333333" /><line stroke="#009999" stroke-width="0.6" x1="556" x2="568" y1="411.6666666666667" y2="411.6666666666667" /><line stroke="#009999" stroke-width="0.6" x1="556" x2="568" y1="421.6666666666667" y2="421.6666666666667" /><line stroke="#009999" stroke-width="0.6" x1="556" x2="568" y1="425.0" y2="425.0" /><line stroke="#009999" stroke-width="0.6" x1="556" x2="568" y1="428.33333333333337" y2="428.33333333333337" /><line stroke="#009999" stroke-width="0.6" x1="556" x2="568" y1="438.3333333333333" y2="438.3333333333333" /><line stroke="#009999" stroke-width="0.6" x1="556" x2="568" y1="441.66666666666663" y2="441.66666666666663" /><line stroke="#009999" stroke-width="0.6" x1="556" x2="568" y1="445.0" y2="445.0" /></g><g id="arc"><rect fill="url(#gradient-arc)" height="50" rx="4" ry="4" stroke="black" stroke-width="1.2" width="80" x="750" y="400" /><line stroke="#4c4c4c" stroke-width="0.8" x1="752" x2="828" y1="416.6666666666667" y2="416.6666666666667" /><line stroke="#4c4c4c" stroke-width="0.8" x1="752" x2="828" y1="433.3333333333333" y2="433.3333333333333" /><circle cx="818" cy="408.3333333333333" fill="#00cc44" r="2.5" stroke="#4c4c4c" stroke-width="0.5" /><circle cx="810" cy="408.3333333333333" fill="#ffaa00" r="2.5" stroke="#4c4c4c" stroke-width="0.5" /><circle cx="818" cy="425.0" fill="#00cc44" r="2.5" stroke="#4c4c4c" stroke-width="0.5" /><circle cx="810" cy="425.0" fill="#ffaa00" r="2.5" stroke="#4c4c4c" stroke-width="0.5" /><circle cx="818" cy="441.66666666666663" fill="#00cc44" r="2.5" stroke="#4c4c4c" stroke-width="0.5" /><circle cx="810" cy="441.66666666666663" fill="#ffaa00" r="2.5" stroke="#4c4c4c" stroke-width="0.5" /><line stroke="#4c4c4c" stroke-width="0.6" x1="756" x2="768" y1="405.0" y2="405.0" /><line stroke="#4c4c4c" stroke-width="0.6" x1="756" x2="768" y1="408.3333333333333" y2="408.3333333333333" /><line stroke="#4c4c4c" stroke-width="0.6" x1="756" x2="768" y1="411.6666666666667" y2="411.6666666666667" /><line stroke="#4c4c4c" stroke-width="0.6" x1="756" x2="768" y1="421.6666666666667" y2="421.6666666666667" /><line stroke="#4c4c4c" stroke-width="0.6" x1="756" x2="768" y1="425.0" y2="425.0" /><line stroke="#4c4c4c" stroke-width="0.6" x1="756" x2="768" y1="428.33333333333337" y2="428.33333333333337" /><line stroke="#4c4c4c" stroke-width="0.6" x1="756" x2="768" y1="438.3333333333333" y2="438.3333333333333" /><line stroke="#4c4c4c" stroke-width="0.6" x1="756" x2="768" y1="441.66666666666663" y2="441.66666666666663" /><line stroke="#4c4c4c" stroke-width="0.6" x1="756" x2="768" y1="445.0" y2="445.0" /></g><g id="manual"><rect fill="url(#gradient-manual)" height="50" rx="4" ry="4" stroke="black" stroke-width="1.2" width="80" x="950" y="400" /><line stroke="#4c4c4c" stroke-width="0.8" x1="952" x2="1028" y1="416.6666666666667" y2="416.6666666666667" /><line stroke="#4c4c4c" stroke-width="0.8" x1="952" x2="1028" y1="433.3333333333333" y2="433.3333333333333" /><circle cx="1018" cy="408.3333333333333" fill="#00cc44" r="2.5" stroke="#4c4c4c" stroke-width="0.5" /><circle cx="1010" cy="408.3333333333333" fill="#ffaa00" r="2.5" stroke="#4c4c4c" stroke-width="0.5" /><circle cx="1018" cy="425.0" fill="#00cc44" r="2.5" stroke="#4c4c4c" stroke-width="0.5" /><circle cx="1010" cy="425.0" fill="#ffaa00" r="2.5" stroke="#4c4c4c" stroke-width="0.5" /><circle cx="1018" cy="441.66666666666663" fill="#00cc44" r="2.5" stroke="#4c4c4c" stroke-width="0.5" /><circle cx="1010" cy="441.66666666666663" fill="#ffaa00" r="2.5" stroke="#4c4c4c" stroke-width="0.5" /><line stroke="#4c4c4c" stroke-width="0.6" x1="956" x2="968" y1="405.0" y2="405.0" /><line stroke="#4c4c4c" stroke-width="0.6" x1="956" x2="968" y1="408.3333333333333" y2="408.3333333333333" /><line stroke="#4c4c4c" stroke-width="0.6" x1="956" x2="968" y1="411.6666666666667" y2="411.6666666666667" /><line stroke="#4c4c4c" stroke-width="0.6" x1="956" x2="968" y1="421.6666666666667" y2="421.6666666666667" /><line stroke="#4c4c4c" stroke-width="0.6" x1="956" x2="968" y1="425.0" y2="425.0" /><line stroke="#4c4c4c" stroke-width="0.6" x1="956" x2="968" y1="428.33333333333337" y2="428.33333333333337" /><line stroke="#4c4c4c" stroke-width="0.6" x1="956" x2="968" y1="438.3333333333333" y2="438.3333333333333" /><line stroke="#4c4c4c" stroke-width="0.6" x1="956" x2="968" y1="441.66666666666663" y2="441.66666666666663" /><line stroke="#4c4c4c" stroke-width="0.6" x1="956" x2="968" y1="445.0" y2="445.0" /></g><g id="path-class"><ellipse cx="240.0" cy="633.0" fill="url(#gradient-path-class)" rx="36.0" ry="11.0" stroke="#7997a1" stroke-width="0.8" /><circle cx="240.0" cy="621.0" fill="url(#gradient-path-class)" r="17.0" stroke="#7997a1" stroke-width="0.8" /><circle cx="226.0" cy="627.0" fill="url(#gradient-path-class)" r="13.0" stroke="#7997a1" stroke-width="0.8" /><circle cx="254.0" cy="627.0" fill="url(#gradient-path-class)" r="13.0" stroke="#7997a1" stroke-width="0.8" /><ellipse cx="240.0" cy="629.0" fill="url(#gradient-path-class)" rx="30.4" ry="14.000000000000002" stroke="none" /></g><g id="point-class"><ellipse cx="440.0" cy="633.0" fill="url(#gradient-point-class)" rx="36.0" ry="11.0" stroke="#7997a1" stroke-width="0.8" /><circle cx="440.0" cy="621.0" fill="url(#gradient-point-class)" r="17.0" stroke="#7997a1" stroke-width="0.8" /><circle cx="426.0" cy="627.0" fill="url(#gradient-point-class)" r="13.0" stroke="#7997a1" stroke-width="0.8" /><circle cx="454.0" cy="627.0" fill="url(#gradient-point-class)" r="13.0" stroke="#7997a1" stroke-width="0.8" /><ellipse cx="440.0" cy="629.0" fill="url(#gradient-point-class)" rx="30.4" ry="14.000000000000002" stroke="none" /></g><g id="astar"><ellipse cx="640.0" cy="633.0" fill="url(#gradient-astar)" rx="36.0" ry="11.0" stroke="#b24531" stroke-width="0.8" /><circle cx="640.0" cy="621.0" fill="url(#gradient-astar)" r="17.0" stroke="#b24531" stroke-width="0.8" /><circle cx="626.0" cy="627.0" fill="url(#gradient-astar)" r="13.0" stroke="#b24531" stroke-width="0.8" /><circle cx="654.0" cy="627.0" fill="url(#gradient-astar)" r="13.0" stroke="#b24531" stroke-width="0.8" /><ellipse cx="640.0" cy="629.0" fill="url(#gradient-astar)" rx="30.4" ry="14.000000000000002" stroke="none" /></g><g id="grid"><ellipse cx="840.0" cy="633.0" fill="url(#gradient-grid)" rx="36.0" ry="11.0" stroke="#595959" stroke-width="0.8" /><circle cx="840.0" cy="621.0" fill="url(#gradient-grid)" r="17.0" stroke="#595959" stroke-width="0.8" /><circle cx="826.0" cy="627.0" fill="url(#gradient-grid)" r="13.0" stroke="#595959" stroke-width="0.8" /><circle cx="854.0" cy="627.0" fill="url(#gradient-grid)" r="13.0" stroke="#595959" stroke-width="0.8" /><ellipse cx="840.0" cy="629.0" fill="url(#gradient-grid)" rx="30.4" ry="14.000000000000002" stroke="none" /></g><g id="optimizer"><rect fill="url(#gradient-optimizer)" height="46" rx="2" ry="2" stroke="black" stroke-width="1.2" width="64" x="108" y="104" /><polygon fill="#7f6b00" points="104,104 140.0,94 176,104" stroke="black" stroke-width="1.0" /><rect fill="#ffeb7f" height="7" stroke="#7f6b00" stroke-width="0.7" width="10" x="115" y="110" /><line stroke="#7f6b00" stroke-width="0.5" x1="120.0" x2="120.0" y1="110" y2="117" /><line stroke="#7f6b00" stroke-width="0.5" x1="115" x2="125" y1="113.5" y2="113.5" /><rect fill="#ffeb7f" height="7" stroke="#7f6b00" stroke-width="0.7" width="10" x="135" y="110" /><line stroke="#7f6b00" stroke-width="0.5" x1="140.0" x2="140.0" y1="110" y2="117" /><line stroke="#7f6b00" stroke-width="0.5" x1="135" x2="145" y1="113.5" y2="113.5" /><rect fill="#ffeb7f" height="7" stroke="#7f6b00" stroke-width="0.7" width="10" x="155" y="110" /><line stroke="#7f6b00" stroke-width="0.5" x1="160.0" x2="160.0" y1="110" y2="117" /><line stroke="#7f6b00" stroke-width="0.5" x1="155" x2="165" y1="113.5" y2="113.5" /><rect fill="#ffeb7f" height="7" stroke="#7f6b00" stroke-width="0.7" width="10" x="115" y="124" /><line stroke="#7f6b00" stroke-width="0.5" x1="120.0" x2="120.0" y1="124" y2="131" /><line stroke="#7f6b00" stroke-width="0.5" x1="115" x2="125" y1="127.5" y2="127.5" /><rect fill="#ffeb7f" height="7" stroke="#7f6b00" stroke-width="0.7" width="10" x="135" y="124" /><line stroke="#7f6b00" stroke-width="0.5" x1="140.0" x2="140.0" y1="124" y2="131" /><line stroke="#7f6b00" stroke-width="0.5" x1="135" x2="145" y1="127.5" y2="127.5" /><rect fill="#ffeb7f" height="7" stroke="#7f6b00" stroke-width="0.7" width="10" x="155" y="124" /><line stroke="#7f6b00" stroke-width="0.5" x1="160.0" x2="160.0" y1="124" y2="131" /><line stroke="#7f6b00" stroke-width="0.5" x1="155" x2="165" y1="127.5" y2="127.5" /><rect fill="#7f6b00" height="12" stroke="black" stroke-width="0.8" width="10" x="135.0" y="138" /><circle cx="142.5" cy="144.0" fill="#ffeb7f" r="1.2" /></g><g id="draw-connections"><rect fill="url(#gradient-draw-connections)" height="46" rx="2" ry="2" stroke="black" stroke-width="1.2" width="64" x="1008" y="104" /><polygon fill="#487748" points="1004,104 1040.0,94 1076,104" stroke="black" stroke-width="1.0" /><rect fill="#c7f6c7" height="7" stroke="#487748" stroke-width="0.7" width="10" x="1015" y="110" /><line stroke="#487748" stroke-width="0.5" x1="1020.0" x2="1020.0" y1="110" y2="117" /><line stroke="#487748" stroke-width="0.5" x1="1015" x2="1025" y1="113.5" y2="113.5" /><rect fill="#c7f6c7" height="7" stroke="#487748" stroke-width="0.7" width="10" x="1035" y="110" /><line stroke="#487748" stroke-width="0.5" x1="1040.0" x2="1040.0" y1="110" y2="117" /><line stroke="#487748" stroke-width="0.5" x1="1035" x2="1045" y1="113.5" y2="113.5" /><rect fill="#c7f6c7" height="7" stroke="#487748" stroke-width="0.7" width="10" x="1055" y="110" /><line stroke="#487748" stroke-width="0.5" x1="1060.0" x2="1060.0" y1="110" y2="117" /><line stroke="#487748" stroke-width="0.5" x1="1055" x2="1065" y1="113.5" y2="113.5" /><rect fill="#c7f6c7" height="7" stroke="#487748" stroke-width="0.7" width="10" x="1015" y="124" /><line stroke="#487748" stroke-width="0.5" x1="1020.0" x2="1020.0" y1="124" y2="131" /><line stroke="#487748" stroke-width="0.5" x1="1015" x2="1025" y1="127.5" y2="127.5" /><rect fill="#c7f6c7" height="7" stroke="#487748" stroke-width="0.7" width="10" x="1035" y="124" /><line stroke="#487748" stroke-width="0.5" x1="1040.0" x2="1040.0" y1="124" y2="131" /><line stroke="#487748" stroke-width="0.5" x1="1035" x2="1045" y1="127.5" y2="127.5" /><rect fill="#c7f6c7" height="7" stroke="#487748" stroke-width="0.7" width="10" x="1055" y="124" /><line stroke="#487748" stroke-width="0.5" x1="1060.0" x2="1060.0" y1="124" y2="131" /><line stroke="#487748" stroke-width="0.5" x1="1055" x2="1065" y1="127.5" y2="127.5" /><rect fill="#487748" height="12" stroke="black" stroke-width="0.8" width="10" x="1035.0" y="138" /><circle cx="1042.5" cy="144.0" fill="#c7f6c7" r="1.2" /></g><line marker-end="url(#arrow-end)" marker-start="url(#circle-start)" stroke="black" stroke-width="2" x1="172.0" x2="558.0" y1="125.0" y2="125.0" /><line marker-end="url(#arrow-end)" marker-start="url(#circle-start)" stroke="black" stroke-width="2" x1="590.0" x2="590.0" y1="157.0" y2="243.0" /><line marker-end="url(#arrow-end)" marker-start="url(#circle-start)" stroke="black" stroke-width="2" x1="560.0374663177906" x2="219.96253368220943" y1="286.23595013082854" y2="413.76404986917146" /><line marker-end="url(#arrow-end)" marker-start="url(#circle-start)" stroke="black" stroke-width="2" x1="564.4" x2="415.6" y1="294.2" y2="405.8" /><line marker-end="url(#arrow-end)" marker-start="url(#circle-start)" stroke="black" stroke-width="2" x1="590.0" x2="590.0" y1="307.0" y2="393.0" /><line marker-end="url(#arrow-end)" marker-start="url(#circle-start)" stroke="black" stroke-width="2" x1="615.6" x2="764.4" y1="294.2" y2="405.8" /><line marker-end="url(#arrow-end)" marker-start="url(#circle-start)" stroke="black" stroke-width="2" x1="619.9625336822094" x2="960.0374663177906" y1="286.23595013082854" y2="413.76404986917146" /><line marker-end="url(#arrow-end)" marker-start="url(#circle-start)" stroke="black" stroke-width="2" x1="197.76114000116266" x2="230.29857499854668" y1="456.04456000465063" y2="586.1942999941867" /><line marker-end="url(#arrow-end)" marker-start="url(#circle-start)" stroke="black" stroke-width="2" x1="370.8" x2="264.0" y1="450.6" y2="593.0" /><line marker-end="url(#arrow-end)" marker-start="url(#circle-start)" stroke="black" stroke-width="2" x1="562.2162194520173" x2="274.72972568497835" y1="440.8764460274187" y2="605.1544424657267" /><line marker-end="url(#arrow-end)" marker-start="url(#circle-start)" stroke="black" stroke-width="2" x1="759.9266104483701" x2="277.5917369395375" y1="435.93577801877456" y2="611.3302774765318" /><line marker-end="url(#arrow-end)" marker-start="url(#circle-start)" stroke="black" stroke-width="2" x1="414.98780190217695" x2="608.7652476222788" y1="444.99024152174155" y2="600.012198097823" /><line marker-end="url(#arrow-end)" marker-start="url(#circle-start)" stroke="black" stroke-width="2" x1="680.0" x2="800.0" y1="625.0" y2="625.0" /><line marker-end="url(#arrow-end)" marker-start="url(#circle-start)" stroke="black" stroke-width="2" x1="280.0" x2="400.0" y1="625.0" y2="625.0" /><line marker-end="url(#arrow-end)" marker-start="url(#circle-start)" stroke="black" stroke-width="2" x1="622.0" x2="1008.0" y1="125.0" y2="125.0" /><text fill="black" filter="url(#text-glow)" font-family="Arial, sans-serif" font-size="14px" text-anchor="middle" x="590.0" y="79.0">ConnectionRouterManager</text><text fill="black" filter="url(#text-glow)" font-family="Arial, sans-serif" font-size="14px" text-anchor="middle" x="590.0" y="97.0">(Dispatcher)</text><text fill="black" filter="url(#text-glow)" font-family="Arial, sans-serif" font-size="14px" text-anchor="start" x="642.6" y="275.0">ConnectionRouter</text><text fill="black" filter="url(#text-glow)" font-family="Arial, sans-serif" font-size="14px" text-anchor="start" x="642.6" y="293.0">(Abstract)</text><text fill="black" filter="url(#text-glow)" font-family="Arial, sans-serif" font-size="14px" text-anchor="middle" x="190.0" y="379.0">StraightRouter</text><text fill="black" filter="url(#text-glow)" font-family="Arial, sans-serif" font-size="14px" text-anchor="middle" x="190.0" y="397.0">(Línea recta)</text><text fill="black" filter="url(#text-glow)" font-family="Arial, sans-serif" font-size="14px" text-anchor="start" x="442.6" y="379.0">OrthogonalRouter</text><text fill="black" filter="url(#text-glow)" font-family="Arial, sans-serif" font-size="14px" text-anchor="start" x="442.6" y="397.0">(H-V / V-H)</text><text fill="black" filter="url(#text-glow)" font-family="Arial, sans-serif" font-size="14px" text-anchor="end" x="537.4" y="425.0">BezierRouter</text><text fill="black" filter="url(#text-glow)" font-family="Arial, sans-serif" font-size="14px" text-anchor="end" x="537.4" y="443.0">(Curvas)</text><text fill="black" filter="url(#text-glow)" font-family="Arial, sans-serif" font-size="14px" text-anchor="middle" x="790.0" y="471.0">ArcRouter</text><text fill="black" filter="url(#text-glow)" font-family="Arial, sans-serif" font-size="14px" text-anchor="middle" x="790.0" y="489.0">(Círculos)</text><text fill="black" filter="url(#text-glow)" font-family="Arial, sans-serif" font-size="14px" text-anchor="middle" x="990.0" y="471.0">ManualRouter</text><text fill="black" filter="url(#text-glow)" font-family="Arial, sans-serif" font-size="14px" text-anchor="middle" x="990.0" y="489.0">(v1.5 compat)</text><text fill="black" filter="url(#text-glow)" font-family="Arial, sans-serif" font-size="14px" text-anchor="middle" x="240.0" y="671.0">Path</text><text fill="black" filter="url(#text-glow)" font-family="Arial, sans-serif" font-size="14px" text-anchor="middle" x="240.0" y="689.0">(Resultado)</text><text fill="black" filter="url(#text-glow)" font-family="Arial, sans-serif" font-size="14px" text-anchor="middle" x="440.0" y="671.0">Point</text><text fill="black" filter="url(#text-glow)" font-family="Arial, sans-serif" font-size="14px" text-anchor="middle" x="440.0" y="689.0">(2D)</text><text fill="black" filter="url(#text-glow)" font-family="Arial, sans-serif" font-size="14px" text-anchor="middle" x="640.0" y="671.0">A* Algorithm</text><text fill="black" filter="url(#text-glow)" font-family="Arial, sans-serif" font-size="14px" text-anchor="middle" x="640.0" y="689.0">(Collision avoid)</text><text fill="black" filter="url(#text-glow)" font-family="Arial, sans-serif" font-size="14px" text-anchor="middle" x="840.0" y="671.0">Grid</text><text fill="black" filter="url(#text-glow)" font-family="Arial, sans-serif" font-size="14px" text-anchor="middle" x="840.0" y="689.0">(Discretization)</text><text fill="black" filter="url(#text-glow)" font-family="Arial, sans-serif" font-size="14px" text-anchor="middle" x="140.0" y="171.0">AutoLayoutOptimizer</text><text fill="black" filter="url(#text-glow)" font-family="Arial, sans-serif" font-size="14px" text-anchor="middle" x="1040.0" y="171.0">draw/connections.py</text><text fill="black" filter="url(#text-glow)" font-family="Arial, sans-serif" font-size="14px" text-anchor="middle" x="1040.0" y="189.0">(Rendering)</text><text fill="gray" filter="url(#text-glow)" font-family="Arial, sans-serif" font-size="12px" text-anchor="middle" x="365.0" y="82.0">usa</text><text fill="gray" filter="url(#text-glow)" font-family="Arial, sans-serif" font-size="12px" text-anchor="end" x="539.2" y="200.0">delega</text><text fill="gray" filter="url(#text-glow)" font-family="Arial, sans-serif" font-size="12px" text-anchor="end" x="163.2298574998547" y="521.1194299994187">retorna</text><text fill="gray" filter="url(#text-glow)" font-family="Arial, sans-serif" font-size="12px" text-anchor="middle" x="317.4" y="478.79999999999995">retorna</text><text fill="gray" filter="url(#text-glow)" font-family="Arial, sans-serif" font-size="12px" text-anchor="middle" x="418.4729725684978" y="480.01544424657266">retorna</text><text fill="gray" filter="url(#text-glow)" font-family="Arial, sans-serif" font-size="12px" text-anchor="middle" x="518.7591736939538" y="566.6330277476532">retorna</text><text fill="gray" filter="url(#text-glow)" font-family="Arial, sans-serif" font-size="12px" text-anchor="start" x="562.6765247622278" y="522.5012198097822">usa (avoid)</text><text fill="gray" filter="url(#text-glow)" font-family="Arial, sans-serif" font-size="12px" text-anchor="middle" x="740.0" y="582.0">usa</text><text fill="gray" filter="url(#text-glow)" font-family="Arial, sans-serif" font-size="12px" text-anchor="middle" x="340.0" y="668.0">contiene</text><text fill="gray" filter="url(#text-glow)" font-family="Arial, sans-serif" font-size="12px" text-anchor="middle" x="815.0" y="82.0">computed_path</text></svg>