<?xml version="1.0" encoding="utf-8" ?>
<svg baseProfile="full" height="1770.0" version="1.1" viewBox="0,0,1870.0,1770.0" width="1870.0" xmlns="http://www.w3.org/2000/svg" xmlns:ev="http://www.w3.org/2001/xml-events" xmlns:xlink="http://www.w3.org/1999/xlink"><defs><marker id="arrow-end" markerHeight="10" markerWidth="10" orient="auto" refX="10" refY="5"><path d="M 0 0 L 10 5 L 0 10 z" fill="black" /></marker><marker id="arrow-start" markerHeight="10" markerWidth="10" orient="auto" refX="0" refY="5"><path d="M 10 0 L 0 5 L 10 10 z" fill="black" /></marker><linearGradient id="gradient-manager" x1="0%" x2="0%" y1="0%" y2="100%"><stop offset="0%" stop-color="#ffe34c" /><stop offset="100%" stop-color="#b29600" /></linearGradient><linearGradient id="gradient-router-base" x1="0%" x2="0%" y1="0%" y2="100%"><stop offset="0%" stop-color="#c5e3ed" /><stop offset="100%" stop-color="#7997a1" /></linearGradient><linearGradient id="gradient-straight" x1="0%" x2="0%" y1="0%" y2="100%"><stop offset="0%" stop-color="#b1f3b1" /><stop offset="100%" stop-color="#64a664" /></linearGradient><linearGradient id="gradient-orthogonal" x1="0%" x2="0%" y1="0%" y2="100%"><stop offset="0%" stop-color="#ffc04c" /><stop offset="100%" stop-color="#b27300" /></linearGradient><linearGradient id="gradient-bezier" x1="0%" x2="0%" y1="0%" y2="100%"><stop offset="0%" stop-color="#4cffff" /><stop offset="100%" stop-color="#00b2b2" /></linearGradient><linearGradient id="gradient-arc" x1="0%" x2="0%" y1="0%" y2="100%"><stop offset="0%" stop-color="#a6a6a6" /><stop offset="100%" stop-color="#595959" /></linearGradient><linearGradient id="gradient-manual" x1="0%" x2="0%" y1="0%" y2="100%"><stop offset="0%" stop-color="#a6a6a6" /><stop offset="100%" stop-color="#595959" /></linearGradient><linearGradient id="gradient-path-class" x1="0%" x2="0%" y1="0%" y2="100%"><stop offset="0%" stop-color="#c5e3ed" /><stop offset="100%" stop-color="#7997a1" /></linearGradient><linearGradient id="gradient-point-class" x1="0%" x2="0%" y1="0%" y2="100%"><stop offset="0%" stop-color="#c5e3ed" /><stop offset="100%" stop-color="#7997a1" /></linearGradient><linearGradient id="gradient-astar" x1="0%" x2="0%" y1="0%" y2="100%"><stop offset="0%" stop-color="#ff917e" /><stop offset="100%" stop-color="#b24531" /></linearGradient><linearGradient id="gradient-grid" x1="0%" x2="0%" y1="0%" y2="100%"><stop offset="0%" stop-color="#a6a6a6" /><stop offset="100%" stop-color="#595959" /></linearGradient><linearGradient id="gradient-optimizer" x1="0%" x2="0%" y1="0%" y2="100%"><stop offset="0%" stop-color="#ffe34c" /><stop offset="100%" stop-color="#b29600" /></linearGradient><linearGradient id="gradient-draw-connections" x1="0%" x2="0%" y1="0%" y2="100%"><stop offset="0%" stop-color="#b1f3b1" /><stop offset="100%" stop-color="#64a664" /></linearGradient></defs><rect fill="url(#gradient-manager)" height="50" stroke="black" width="80" x="580.0" y="310.0" /><g id="router-base"><g transform="translate(590.0,610.0) scale(1.2048192771084338,0.6928406466512702) translate(-0.9,-1.4)"><path d="M 22.754087,32.116749 0.94545599,43.000013 V 4.7289739 L 22.754087,1.5702876 Z" fill="#e9e9ff" stroke="none" /><path d="M 50.712576,33.120864 V 1.4628125 L 22.754087,1.5702876 V 32.116749 Z" fill="#353564" stroke="none" /><path d="M 50.712576,33.120864 35.295871,44.770537 0.94545599,43.000013 22.754087,32.116749 Z" fill="#4d4d9f" stroke="none" /><path d="M 50.712576,1.4628125 35.295871,4.7384198 0.94545599,4.7289739 22.754087,1.5702876 Z" fill="#1c1ce6" opacity="1" stroke="none" /><path d="M 35.295871,44.770537 V 4.7384198 L 0.94545599,4.7289739 V 43.000013 Z" fill="#1a52ff" opacity="0.96" stroke="none" /><path d="M 50.712576,33.120864 35.295871,44.770537 V 4.7384198 L 50.712576,1.4628125 Z" fill="#1c9bd0" stroke="none" /><rect fill="none" height="43.3" opacity="0.67" stroke="#cbcbcb" stroke-width="0.48" width="49.8" x="0.9" y="1.4" /></g></g><rect fill="url(#gradient-straight)" height="50" stroke="black" width="80" x="580.0" y="890.0" /><rect fill="url(#gradient-orthogonal)" height="50" stroke="black" width="80" x="1540.0" y="890.0" /><rect fill="url(#gradient-bezier)" height="50" stroke="black" width="80" x="1060.0" y="890.0" /><rect fill="url(#gradient-arc)" height="50" stroke="black" width="80" x="100.0" y="890.0" /><rect fill="url(#gradient-manual)" height="50" stroke="black" width="80" x="1060.0" y="600.0" /><ellipse cx="620.0" cy="1205.0" fill="url(#gradient-path-class)" rx="40.0" ry="25.0" stroke="black" /><ellipse cx="620.0" cy="1495.0" fill="url(#gradient-point-class)" rx="40.0" ry="25.0" stroke="black" /><ellipse cx="1100.0" cy="1205.0" fill="url(#gradient-astar)" rx="40.0" ry="25.0" stroke="black" /><ellipse cx="1100.0" cy="1495.0" fill="url(#gradient-grid)" rx="40.0" ry="25.0" stroke="black" /><g id="optimizer"><g transform="translate(590.0,30.0) scale(1.2048192771084338,0.6928406466512702) translate(-0.9,-1.4)"><path d="M 22.754087,32.116749 0.94545599,43.000013 V 4.7289739 L 22.754087,1.5702876 Z" fill="#e9e9ff" stroke="none" /><path d="M 50.712576,33.120864 V 1.4628125 L 22.754087,1.5702876 V 32.116749 Z" fill="#353564" stroke="none" /><path d="M 50.712576,33.120864 35.295871,44.770537 0.94545599,43.000013 22.754087,32.116749 Z" fill="#4d4d9f" stroke="none" /><path d="M 50.712576,1.4628125 35.295871,4.7384198 0.94545599,4.7289739 22.754087,1.5702876 Z" fill="#1c1ce6" opacity="1" stroke="none" /><path d="M 35.295871,44.770537 V 4.7384198 L 0.94545599,4.7289739 V 43.000013 Z" fill="#1a52ff" opacity="0.96" stroke="none" /><path d="M 50.712576,33.120864 35.295871,44.770537 V 4.7384198 L 50.712576,1.4628125 Z" fill="#1c9bd0" stroke="none" /><rect fill="none" height="43.3" opacity="0.67" stroke="#cbcbcb" stroke-width="0.48" width="49.8" x="0.9" y="1.4" /></g></g><g id="draw-connections"><g transform="translate(1070.0,320.0) scale(1.2048192771084338,0.6928406466512702) translate(-0.9,-1.4)"><path d="M 22.754087,32.116749 0.94545599,43.000013 V 4.7289739 L 22.754087,1.5702876 Z" fill="#e9e9ff" stroke="none" /><path d="M 50.712576,33.120864 V 1.4628125 L 22.754087,1.5702876 V 32.116749 Z" fill="#353564" stroke="none" /><path d="M 50.712576,33.120864 35.295871,44.770537 0.94545599,43.000013 22.754087,32.116749 Z" fill="#4d4d9f" stroke="none" /><path d="M 50.712576,1.4628125 35.295871,4.7384198 0.94545599,4.7289739 22.754087,1.5702876 Z" fill="#1c1ce6" opacity="1" stroke="none" /><path d="M 35.295871,44.770537 V 4.7384198 L 0.94545599,4.7289739 V 43.000013 Z" fill="#1a52ff" opacity="0.96" stroke="none" /><path d="M 50.712576,33.120864 35.295871,44.770537 V 4.7384198 L 50.712576,1.4628125 Z" fill="#1c9bd0" stroke="none" /><rect fill="none" height="43.3" opacity="0.67" stroke="#cbcbcb" stroke-width="0.48" width="49.8" x="0.9" y="1.4" /></g></g><line marker-end="url(#arrow-end)" stroke="black" stroke-width="2" x1="620.0" x2="620.0" y1="77.0" y2="303.0" /><line marker-end="url(#arrow-end)" stroke="black" stroke-width="2" x1="620.0" x2="620.0" y1="367.0" y2="593.0" /><line marker-end="url(#arrow-end)" stroke="black" stroke-width="2" x1="620.0" x2="620.0" y1="657.0" y2="883.0" /><line marker-end="url(#arrow-end)" stroke="black" stroke-width="2" x1="650.632820515769" x2="1549.367179484231" y1="634.2536645308052" y2="905.7463354691948" /><line marker-end="url(#arrow-end)" stroke="black" stroke-width="2" x1="647.3892973422653" x2="1072.6107026577347" y1="641.5477004776186" y2="898.4522995223814" /><line marker-end="url(#arrow-end)" stroke="black" stroke-width="2" x1="592.6107026577347" x2="167.3892973422653" y1="641.5477004776186" y2="898.4522995223814" /><line marker-end="url(#arrow-end)" stroke="black" stroke-width="2" x1="652.0" x2="1068.0" y1="625.0" y2="625.0" /><line marker-end="url(#arrow-end)" stroke="black" stroke-width="2" x1="620.0" x2="620.0" y1="947.0" y2="1165.0" /><line marker-end="url(#arrow-end)" stroke="black" stroke-width="2" x1="1549.367179484231" x2="658.2910256447112" y1="924.2536645308052" y2="1193.4329193364936" /><line marker-end="url(#arrow-end)" stroke="black" stroke-width="2" x1="1072.6107026577347" x2="654.2366216778316" y1="931.5477004776186" y2="1184.3153744029767" /><line marker-end="url(#arrow-end)" stroke="black" stroke-width="2" x1="167.3892973422653" x2="585.7633783221684" y1="931.5477004776186" y2="1184.3153744029767" /><line marker-end="url(#arrow-end)" stroke="black" stroke-width="2" x1="1552.6107026577347" x2="1134.2366216778316" y1="931.5477004776186" y2="1184.3153744029767" /><line marker-end="url(#arrow-end)" stroke="black" stroke-width="2" x1="1100.0" x2="1100.0" y1="1245.0" y2="1455.0" /><line marker-end="url(#arrow-end)" stroke="black" stroke-width="2" x1="620.0" x2="620.0" y1="1245.0" y2="1455.0" /><line marker-end="url(#arrow-end)" stroke="black" stroke-width="2" x1="652.0" x2="1068.0" y1="335.0" y2="335.0" /><text fill="black" font-family="Arial, sans-serif" font-size="14px" text-anchor="end" x="567.4" y="335.0">ConnectionRouterManager</text><text fill="black" font-family="Arial, sans-serif" font-size="14px" text-anchor="end" x="567.4" y="353.0">(Dispatcher)</text><text fill="black" font-family="Arial, sans-serif" font-size="14px" text-anchor="end" x="567.4" y="625.0">ConnectionRouter</text><text fill="black" font-family="Arial, sans-serif" font-size="14px" text-anchor="end" x="567.4" y="643.0">(Abstract)</text><text fill="black" font-family="Arial, sans-serif" font-size="14px" text-anchor="start" x="672.6" y="915.0">StraightRouter</text><text fill="black" font-family="Arial, sans-serif" font-size="14px" text-anchor="start" x="672.6" y="933.0">(Línea recta)</text><text fill="black" font-family="Arial, sans-serif" font-size="14px" text-anchor="middle" x="1580.0" y="869.0">OrthogonalRouter</text><text fill="black" font-family="Arial, sans-serif" font-size="14px" text-anchor="middle" x="1580.0" y="887.0">(H-V / V-H)</text><text fill="black" font-family="Arial, sans-serif" font-size="14px" text-anchor="start" x="1152.6" y="915.0">BezierRouter</text><text fill="black" font-family="Arial, sans-serif" font-size="14px" text-anchor="start" x="1152.6" y="933.0">(Curvas)</text><text fill="black" font-family="Arial, sans-serif" font-size="14px" text-anchor="middle" x="140.0" y="961.0">ArcRouter</text><text fill="black" font-family="Arial, sans-serif" font-size="14px" text-anchor="middle" x="140.0" y="979.0">(Círculos)</text><text fill="black" font-family="Arial, sans-serif" font-size="14px" text-anchor="middle" x="1100.0" y="671.0">ManualRouter</text><text fill="black" font-family="Arial, sans-serif" font-size="14px" text-anchor="middle" x="1100.0" y="689.0">(v1.5 compat)</text><text fill="black" font-family="Arial, sans-serif" font-size="14px" text-anchor="start" x="672.6" y="1205.0">Path</text><text fill="black" font-family="Arial, sans-serif" font-size="14px" text-anchor="start" x="672.6" y="1223.0">(Resultado)</text><text fill="black" font-family="Arial, sans-serif" font-size="14px" text-anchor="middle" x="620.0" y="1541.0">Point</text><text fill="black" font-family="Arial, sans-serif" font-size="14px" text-anchor="middle" x="620.0" y="1559.0">(2D)</text><text fill="black" font-family="Arial, sans-serif" font-size="14px" text-anchor="start" x="1152.6" y="1205.0">A* Algorithm</text><text fill="black" font-family="Arial, sans-serif" font-size="14px" text-anchor="start" x="1152.6" y="1223.0">(Collision avoid)</text><text fill="black" font-family="Arial, sans-serif" font-size="14px" text-anchor="middle" x="1100.0" y="1541.0">Grid</text><text fill="black" font-family="Arial, sans-serif" font-size="14px" text-anchor="middle" x="1100.0" y="1559.0">(Discretization)</text><text fill="black" font-family="Arial, sans-serif" font-size="14px" text-anchor="start" x="672.6" y="45.0">AutoLayoutOptimizer</text><text fill="black" font-family="Arial, sans-serif" font-size="14px" text-anchor="middle" x="1100.0" y="381.0">draw/connections.py</text><text fill="black" font-family="Arial, sans-serif" font-size="14px" text-anchor="middle" x="1100.0" y="399.0">(Rendering)</text><text fill="gray" font-family="Arial, sans-serif" font-size="12px" text-anchor="end" x="569.2" y="190.0">usa</text><text fill="gray" font-family="Arial, sans-serif" font-size="12px" text-anchor="end" x="569.2" y="480.0">delega</text><text fill="gray" font-family="Arial, sans-serif" font-size="12px" text-anchor="end" x="569.2" y="1056.0">retorna</text><text fill="gray" font-family="Arial, sans-serif" font-size="12px" text-anchor="middle" x="1103.8291025644712" y="1015.8432919336494">retorna</text><text fill="gray" font-family="Arial, sans-serif" font-size="12px" text-anchor="middle" x="863.4236621677832" y="1014.9315374402977">retorna</text><text fill="gray" font-family="Arial, sans-serif" font-size="12px" text-anchor="middle" x="376.57633783221684" y="1014.9315374402977">retorna</text><text fill="gray" font-family="Arial, sans-serif" font-size="12px" text-anchor="middle" x="1343.4236621677833" y="1014.9315374402977">usa (avoid)</text><text fill="gray" font-family="Arial, sans-serif" font-size="12px" text-anchor="end" x="1049.2" y="1350.0">usa</text><text fill="gray" font-family="Arial, sans-serif" font-size="12px" text-anchor="end" x="569.2" y="1350.0">contiene</text><text fill="gray" font-family="Arial, sans-serif" font-size="12px" text-anchor="middle" x="860.0" y="292.0">computed_path</text></svg>