<?xml version="1.0" encoding="utf-8" ?>
<svg baseProfile="full" height="3510.0" version="1.1" viewBox="0,0,1390.0,3510.0" width="1390.0" xmlns="http://www.w3.org/2000/svg" xmlns:ev="http://www.w3.org/2001/xml-events" xmlns:xlink="http://www.w3.org/1999/xlink"><defs><marker id="arrow-end" markerHeight="10" markerWidth="10" orient="auto" refX="10" refY="5"><path d="M 0 0 L 10 5 L 0 10 z" fill="black" /></marker><marker id="arrow-start" markerHeight="10" markerWidth="10" orient="auto" refX="0" refY="5"><path d="M 10 0 L 0 5 L 10 10 z" fill="black" /></marker><linearGradient id="gradient-input_svg" x1="0%" x2="0%" y1="0%" y2="100%"><stop offset="0%" stop-color="#a6a6a6" /><stop offset="100%" stop-color="#595959" /></linearGradient><linearGradient id="gradient-parser" x1="0%" x2="0%" y1="0%" y2="100%"><stop offset="0%" stop-color="#81b8ff" /><stop offset="100%" stop-color="#356bb2" /></linearGradient><linearGradient id="gradient-extract_elements" x1="0%" x2="0%" y1="0%" y2="100%"><stop offset="0%" stop-color="#81b8ff" /><stop offset="100%" stop-color="#356bb2" /></linearGradient><linearGradient id="gradient-extract_attrs" x1="0%" x2="0%" y1="0%" y2="100%"><stop offset="0%" stop-color="#81b8ff" /><stop offset="100%" stop-color="#356bb2" /></linearGradient><linearGradient id="gradient-normalizer" x1="0%" x2="0%" y1="0%" y2="100%"><stop offset="0%" stop-color="#ffc081" /><stop offset="100%" stop-color="#b27435" /></linearGradient><linearGradient id="gradient-calc_bbox" x1="0%" x2="0%" y1="0%" y2="100%"><stop offset="0%" stop-color="#ffc081" /><stop offset="100%" stop-color="#b27435" /></linearGradient><linearGradient id="gradient-calc_scale" x1="0%" x2="0%" y1="0%" y2="100%"><stop offset="0%" stop-color="#ffc081" /><stop offset="100%" stop-color="#b27435" /></linearGradient><linearGradient id="gradient-normalize_coords" x1="0%" x2="0%" y1="0%" y2="100%"><stop offset="0%" stop-color="#ffc081" /><stop offset="100%" stop-color="#b27435" /></linearGradient><linearGradient id="gradient-simplifier" x1="0%" x2="0%" y1="0%" y2="100%"><stop offset="0%" stop-color="#c081c0" /><stop offset="100%" stop-color="#743574" /></linearGradient><linearGradient id="gradient-combine_paths" x1="0%" x2="0%" y1="0%" y2="100%"><stop offset="0%" stop-color="#c081c0" /><stop offset="100%" stop-color="#743574" /></linearGradient><linearGradient id="gradient-remove_invisible" x1="0%" x2="0%" y1="0%" y2="100%"><stop offset="0%" stop-color="#c081c0" /><stop offset="100%" stop-color="#743574" /></linearGradient><linearGradient id="gradient-optimize_paths" x1="0%" x2="0%" y1="0%" y2="100%"><stop offset="0%" stop-color="#c081c0" /><stop offset="100%" stop-color="#743574" /></linearGradient><linearGradient id="gradient-codegen" x1="0%" x2="0%" y1="0%" y2="100%"><stop offset="0%" stop-color="#c8f6c8" /><stop offset="100%" stop-color="#7baa7b" /></linearGradient><linearGradient id="gradient-create_function" x1="0%" x2="0%" y1="0%" y2="100%"><stop offset="0%" stop-color="#c8f6c8" /><stop offset="100%" stop-color="#7baa7b" /></linearGradient><linearGradient id="gradient-generate_paths" x1="0%" x2="0%" y1="0%" y2="100%"><stop offset="0%" stop-color="#c8f6c8" /><stop offset="100%" stop-color="#7baa7b" /></linearGradient><linearGradient id="gradient-format_code" x1="0%" x2="0%" y1="0%" y2="100%"><stop offset="0%" stop-color="#c8f6c8" /><stop offset="100%" stop-color="#7baa7b" /></linearGradient><linearGradient id="gradient-output_py" x1="0%" x2="0%" y1="0%" y2="100%"><stop offset="0%" stop-color="#a6a6a6" /><stop offset="100%" stop-color="#595959" /></linearGradient><linearGradient id="gradient-register" x1="0%" x2="0%" y1="0%" y2="100%"><stop offset="0%" stop-color="#ffeb81" /><stop offset="100%" stop-color="#b29e35" /></linearGradient><linearGradient id="gradient-ready" x1="0%" x2="0%" y1="0%" y2="100%"><stop offset="0%" stop-color="#c8f6c8" /><stop offset="100%" stop-color="#7baa7b" /></linearGradient></defs><ellipse cx="620.0" cy="45.0" fill="url(#gradient-input_svg)" rx="40.0" ry="25.0" stroke="black" /><rect fill="url(#gradient-parser)" height="50" stroke="black" width="80" x="580.0" y="310.0" /><rect fill="url(#gradient-extract_elements)" height="50" stroke="black" width="80" x="100.0" y="600.0" /><rect fill="url(#gradient-extract_attrs)" height="50" stroke="black" width="80" x="580.0" y="600.0" /><rect fill="url(#gradient-normalizer)" height="50" stroke="black" width="80" x="580.0" y="890.0" /><rect fill="url(#gradient-calc_bbox)" height="50" stroke="black" width="80" x="580.0" y="1180.0" /><rect fill="url(#gradient-calc_scale)" height="50" stroke="black" width="80" x="1060.0" y="1180.0" /><rect fill="url(#gradient-normalize_coords)" height="50" stroke="black" width="80" x="100.0" y="1180.0" /><rect fill="url(#gradient-simplifier)" height="50" stroke="black" width="80" x="580.0" y="1470.0" /><rect fill="url(#gradient-combine_paths)" height="50" stroke="black" width="80" x="580.0" y="1760.0" /><rect fill="url(#gradient-remove_invisible)" height="50" stroke="black" width="80" x="1060.0" y="1760.0" /><rect fill="url(#gradient-optimize_paths)" height="50" stroke="black" width="80" x="100.0" y="1760.0" /><rect fill="url(#gradient-codegen)" height="50" stroke="black" width="80" x="580.0" y="2050.0" /><rect fill="url(#gradient-create_function)" height="50" stroke="black" width="80" x="580.0" y="2340.0" /><rect fill="url(#gradient-generate_paths)" height="50" stroke="black" width="80" x="1060.0" y="2340.0" /><rect fill="url(#gradient-format_code)" height="50" stroke="black" width="80" x="100.0" y="2340.0" /><ellipse cx="620.0" cy="2655.0" fill="url(#gradient-output_py)" rx="40.0" ry="25.0" stroke="black" /><rect fill="url(#gradient-register)" height="50" stroke="black" width="80" x="580.0" y="2920.0" /><ellipse cx="620.0" cy="3235.0" fill="url(#gradient-ready)" rx="40.0" ry="25.0" stroke="black" /><line stroke="black" stroke-width="2" x1="620.0" x2="620.0" y1="85.0" y2="303.0" /><polyline fill="none" points="588.0,335.0 380.0,335.0 380.0,625.0 172.0,625.0" stroke="black" stroke-width="2" /><polyline fill="none" points="620.0,367.0 620.0,593.0" stroke="black" stroke-width="2" /><path d="M 167.3892973422653,641.5477004776186 C 256.5,793.6666666666666 416.5,890.3333333333334 592.6107026577347,898.4522995223814" fill="none" stroke="black" stroke-width="2" /><path d="M 620.0,657.0 C 576.5,721.6666666666666 576.5,818.3333333333334 620.0,883.0" fill="none" stroke="black" stroke-width="2" /><polyline fill="none" points="620.0,947.0 620.0,1173.0" stroke="black" stroke-width="2" /><polyline fill="none" points="652.0,915.0 860.0,915.0 860.0,1205.0 1068.0,1205.0" stroke="black" stroke-width="2" /><polyline fill="none" points="588.0,915.0 380.0,915.0 380.0,1205.0 172.0,1205.0" stroke="black" stroke-width="2" /><path d="M 620.0,1237.0 C 576.5,1301.6666666666667 576.5,1398.3333333333333 620.0,1463.0" fill="none" stroke="black" stroke-width="2" /><path d="M 1072.6107026577347,1221.5477004776187 C 896.5,1229.6666666666667 736.5,1326.3333333333333 647.3892973422653,1478.4522995223813" fill="none" stroke="black" stroke-width="2" /><path d="M 167.3892973422653,1221.5477004776187 C 256.5,1373.6666666666667 416.5,1470.3333333333333 592.6107026577347,1478.4522995223813" fill="none" stroke="black" stroke-width="2" /><polyline fill="none" points="620.0,1527.0 620.0,1753.0" stroke="black" stroke-width="2" /><polyline fill="none" points="652.0,1495.0 860.0,1495.0 860.0,1785.0 1068.0,1785.0" stroke="black" stroke-width="2" /><polyline fill="none" points="588.0,1495.0 380.0,1495.0 380.0,1785.0 172.0,1785.0" stroke="black" stroke-width="2" /><path d="M 620.0,1817.0 C 576.5,1881.6666666666667 576.5,1978.3333333333333 620.0,2043.0" fill="none" stroke="black" stroke-width="2" /><path d="M 1072.6107026577347,1801.5477004776187 C 896.5,1809.6666666666667 736.5,1906.3333333333333 647.3892973422653,2058.4522995223815" fill="none" stroke="black" stroke-width="2" /><path d="M 167.3892973422653,1801.5477004776187 C 256.5,1953.6666666666667 416.5,2050.333333333333 592.6107026577347,2058.4522995223815" fill="none" stroke="black" stroke-width="2" /><polyline fill="none" points="620.0,2107.0 620.0,2333.0" stroke="black" stroke-width="2" /><polyline fill="none" points="652.0,2075.0 860.0,2075.0 860.0,2365.0 1068.0,2365.0" stroke="black" stroke-width="2" /><polyline fill="none" points="588.0,2075.0 380.0,2075.0 380.0,2365.0 172.0,2365.0" stroke="black" stroke-width="2" /><path d="M 620.0,2397.0 C 576.5,2461.6666666666665 576.5,2558.3333333333335 620.0,2615.0" fill="none" stroke="black" stroke-width="2" /><path d="M 1072.6107026577347,2381.5477004776185 C 896.5,2389.6666666666665 736.5,2486.3333333333335 654.2366216778316,2634.315374402977" fill="none" stroke="black" stroke-width="2" /><path d="M 167.3892973422653,2381.5477004776185 C 256.5,2533.6666666666665 416.5,2630.3333333333335 585.7633783221684,2634.315374402977" fill="none" stroke="black" stroke-width="2" /><line stroke="black" stroke-width="2" x1="620.0" x2="620.0" y1="2695.0" y2="2913.0" /><line stroke="black" stroke-width="2" x1="620.0" x2="620.0" y1="2977.0" y2="3195.0" /><text fill="black" font-family="Arial, sans-serif" font-size="14px" text-anchor="start" x="672.6" y="45.0">archivo.svg</text><text fill="black" font-family="Arial, sans-serif" font-size="14px" text-anchor="start" x="672.6" y="63.0">(input)</text><text fill="black" font-family="Arial, sans-serif" font-size="14px" text-anchor="start" x="672.6" y="335.0">SVG Parser</text><text fill="black" font-family="Arial, sans-serif" font-size="14px" text-anchor="start" x="672.6" y="353.0">(Fase 1)</text><text fill="black" font-family="Arial, sans-serif" font-size="14px" text-anchor="middle" x="140.0" y="671.0">Extraer Elementos</text><text fill="black" font-family="Arial, sans-serif" font-size="14px" text-anchor="middle" x="140.0" y="689.0">&lt;path&gt; &lt;rect&gt;</text><text fill="black" font-family="Arial, sans-serif" font-size="14px" text-anchor="middle" x="140.0" y="707.0">&lt;circle&gt; etc.</text><text fill="black" font-family="Arial, sans-serif" font-size="14px" text-anchor="start" x="672.6" y="625.0">Extraer Atributos</text><text fill="black" font-family="Arial, sans-serif" font-size="14px" text-anchor="start" x="672.6" y="643.0">fill, stroke</text><text fill="black" font-family="Arial, sans-serif" font-size="14px" text-anchor="start" x="672.6" y="661.0">transform</text><text fill="black" font-family="Arial, sans-serif" font-size="14px" text-anchor="start" x="672.6" y="915.0">Normalizer</text><text fill="black" font-family="Arial, sans-serif" font-size="14px" text-anchor="start" x="672.6" y="933.0">(Fase 2)</text><text fill="black" font-family="Arial, sans-serif" font-size="14px" text-anchor="start" x="672.6" y="1205.0">Calcular</text><text fill="black" font-family="Arial, sans-serif" font-size="14px" text-anchor="start" x="672.6" y="1223.0">Bounding Box</text><text fill="black" font-family="Arial, sans-serif" font-size="14px" text-anchor="start" x="1152.6" y="1205.0">Calcular Escala</text><text fill="black" font-family="Arial, sans-serif" font-size="14px" text-anchor="start" x="1152.6" y="1223.0">ICON_WIDTH/HEIGHT</text><text fill="black" font-family="Arial, sans-serif" font-size="14px" text-anchor="middle" x="140.0" y="1251.0">Normalizar</text><text fill="black" font-family="Arial, sans-serif" font-size="14px" text-anchor="middle" x="140.0" y="1269.0">Coordenadas</text><text fill="black" font-family="Arial, sans-serif" font-size="14px" text-anchor="middle" x="140.0" y="1287.0">(0,0 origin)</text><text fill="black" font-family="Arial, sans-serif" font-size="14px" text-anchor="middle" x="620.0" y="1541.0">Simplifier</text><text fill="black" font-family="Arial, sans-serif" font-size="14px" text-anchor="middle" x="620.0" y="1559.0">(Fase 3)</text><text fill="black" font-family="Arial, sans-serif" font-size="14px" text-anchor="middle" x="620.0" y="1577.0">Opcional</text><text fill="black" font-family="Arial, sans-serif" font-size="14px" text-anchor="start" x="672.6" y="1785.0">Combinar</text><text fill="black" font-family="Arial, sans-serif" font-size="14px" text-anchor="start" x="672.6" y="1803.0">Paths Similares</text><text fill="black" font-family="Arial, sans-serif" font-size="14px" text-anchor="middle" x="1100.0" y="1831.0">Eliminar</text><text fill="black" font-family="Arial, sans-serif" font-size="14px" text-anchor="middle" x="1100.0" y="1849.0">Invisibles</text><text fill="black" font-family="Arial, sans-serif" font-size="14px" text-anchor="middle" x="1100.0" y="1867.0">opacity=0</text><text fill="black" font-family="Arial, sans-serif" font-size="14px" text-anchor="middle" x="140.0" y="1831.0">Optimizar</text><text fill="black" font-family="Arial, sans-serif" font-size="14px" text-anchor="middle" x="140.0" y="1849.0">Path Data</text><text fill="black" font-family="Arial, sans-serif" font-size="14px" text-anchor="middle" x="140.0" y="1867.0">Reducir decimales</text><text fill="black" font-family="Arial, sans-serif" font-size="14px" text-anchor="start" x="672.6" y="2075.0">Code Generator</text><text fill="black" font-family="Arial, sans-serif" font-size="14px" text-anchor="start" x="672.6" y="2093.0">(Fase 4)</text><text fill="black" font-family="Arial, sans-serif" font-size="14px" text-anchor="start" x="672.6" y="2365.0">Crear Función</text><text fill="black" font-family="Arial, sans-serif" font-size="14px" text-anchor="start" x="672.6" y="2383.0">draw_&lt;nombre&gt;()</text><text fill="black" font-family="Arial, sans-serif" font-size="14px" text-anchor="start" x="1152.6" y="2365.0">Generar</text><text fill="black" font-family="Arial, sans-serif" font-size="14px" text-anchor="start" x="1152.6" y="2383.0">dwg.add()</text><text fill="black" font-family="Arial, sans-serif" font-size="14px" text-anchor="start" x="1152.6" y="2401.0">para cada elemento</text><text fill="black" font-family="Arial, sans-serif" font-size="14px" text-anchor="middle" x="140.0" y="2411.0">Formatear</text><text fill="black" font-family="Arial, sans-serif" font-size="14px" text-anchor="middle" x="140.0" y="2429.0">Código PEP8</text><text fill="black" font-family="Arial, sans-serif" font-size="14px" text-anchor="start" x="672.6" y="2655.0">draw_&lt;nombre&gt;.py</text><text fill="black" font-family="Arial, sans-serif" font-size="14px" text-anchor="start" x="672.6" y="2673.0">(output)</text><text fill="black" font-family="Arial, sans-serif" font-size="14px" text-anchor="start" x="672.6" y="2945.0">Registrar en</text><text fill="black" font-family="Arial, sans-serif" font-size="14px" text-anchor="start" x="672.6" y="2963.0">ICON_TYPES</text><text fill="black" font-family="Arial, sans-serif" font-size="14px" text-anchor="start" x="672.6" y="2981.0">(opcional)</text><text fill="black" font-family="Arial, sans-serif" font-size="14px" text-anchor="middle" x="620.0" y="3281.0">Ícono Listo</text><text fill="black" font-family="Arial, sans-serif" font-size="14px" text-anchor="middle" x="620.0" y="3299.0">para Usar en .gag</text><text fill="gray" font-family="Arial, sans-serif" font-size="12px" text-anchor="end" x="569.2" y="194.0">lee SVG</text><text fill="gray" font-family="Arial, sans-serif" font-size="12px" text-anchor="middle" x="380.0" y="437.0">parsea XML</text><text fill="gray" font-family="Arial, sans-serif" font-size="12px" text-anchor="end" x="569.2" y="480.0">extrae</text><text fill="gray" font-family="Arial, sans-serif" font-size="12px" text-anchor="end" x="569.2" y="1060.0">procesa</text><text fill="gray" font-family="Arial, sans-serif" font-size="12px" text-anchor="end" x="569.2" y="1640.0">optimiza</text><text fill="gray" font-family="Arial, sans-serif" font-size="12px" text-anchor="end" x="569.2" y="2220.0">genera</text><text fill="gray" font-family="Arial, sans-serif" font-size="12px" text-anchor="end" x="569.2" y="2804.0">registro
opcional</text><text fill="gray" font-family="Arial, sans-serif" font-size="12px" text-anchor="end" x="569.2" y="3086.0">disponible</text></svg>