<?xml version="1.0" encoding="utf-8" ?>
<svg baseProfile="full" height="1720" version="1.1" viewBox="0,0,800,1720" width="800" xmlns="http://www.w3.org/2000/svg" xmlns:ev="http://www.w3.org/2001/xml-events" xmlns:xlink="http://www.w3.org/1999/xlink"><defs><style type="text/css"><![CDATA[text{paint-order:stroke;stroke:#ffffff;stroke-width:3px;stroke-linejoin:round;stroke-linecap:round}]]></style><filter height="140%" id="text-glow" width="140%" x="-20%" y="-20%"><feMerge><feMergeNode in="SourceGraphic" /></feMerge></filter><marker id="arrow-end" markerHeight="10" markerWidth="10" orient="auto" refX="10" refY="5"><path d="M 0 0 L 10 5 L 0 10 z" fill="black" /></marker><marker id="arrow-start" markerHeight="10" markerWidth="10" orient="auto" refX="0" refY="5"><path d="M 10 0 L 0 5 L 10 10 z" fill="black" /></marker><marker id="circle-start" markerHeight="2.4" markerUnits="userSpaceOnUse" markerWidth="2.4" orient="auto" refX="1.2" refY="1.2"><circle cx="1.2" cy="1.2" fill="black" r="1.2" /></marker><marker id="circle-end" markerHeight="2.4" markerUnits="userSpaceOnUse" markerWidth="2.4" orient="auto" refX="1.2" refY="1.2"><circle cx="1.2" cy="1.2" fill="black" r="1.2" /></marker><linearGradient id="gradient-input_svg" x1="0%" x2="0%" y1="0%" y2="100%"><stop offset="0%" stop-color="#a6a6a6" /><stop offset="100%" stop-color="#595959" /></linearGradient><linearGradient id="gradient-parser" x1="0%" x2="0%" y1="0%" y2="100%"><stop offset="0%" stop-color="#81b8ff" /><stop offset="100%" stop-color="#356bb2" /></linearGradient><linearGradient id="gradient-extract_elements" x1="0%" x2="0%" y1="0%" y2="100%"><stop offset="0%" stop-color="#81b8ff" /><stop offset="100%" stop-color="#356bb2" /></linearGradient><linearGradient id="gradient-extract_attrs" x1="0%" x2="0%" y1="0%" y2="100%"><stop offset="0%" stop-color="#81b8ff" /><stop offset="100%" stop-color="#356bb2" /></linearGradient><linearGradient id="gradient-normalizer" x1="0%" x2="0%" y1="0%" y2="100%"><stop offset="0%" stop-color="#ffc081" /><stop offset="100%" stop-color="#b27435" /></linearGradient><linearGradient id="gradient-calc_bbox" x1="0%" x2="0%" y1="0%" y2="100%"><stop offset="0%" stop-color="#ffc081" /><stop offset="100%" stop-color="#b27435" /></linearGradient><linearGradient id="gradient-calc_scale" x1="0%" x2="0%" y1="0%" y2="100%"><stop offset="0%" stop-color="#ffc081" /><stop offset="100%" stop-color="#b27435" /></linearGradient><linearGradient id="gradient-normalize_coords" x1="0%" x2="0%" y1="0%" y2="100%"><stop offset="0%" stop-color="#ffc081" /><stop offset="100%" stop-color="#b27435" /></linearGradient><linearGradient id="gradient-simplifier" x1="0%" x2="0%" y1="0%" y2="100%"><stop offset="0%" stop-color="#c081c0" /><stop offset="100%" stop-color="#743574" /></linearGradient><linearGradient id="gradient-combine_paths" x1="0%" x2="0%" y1="0%" y2="100%"><stop offset="0%" stop-color="#c081c0" /><stop offset="100%" stop-color="#743574" /></linearGradient><linearGradient id="gradient-remove_invisible" x1="0%" x2="0%" y1="0%" y2="100%"><stop offset="0%" stop-color="#c081c0" /><stop offset="100%" stop-color="#743574" /></linearGradient><linearGradient id="gradient-optimize_paths" x1="0%" x2="0%" y1="0%" y2="100%"><stop offset="0%" stop-color="#c081c0" /><stop offset="100%" stop-color="#743574" /></linearGradient><linearGradient id="gradient-codegen" x1="0%" x2="0%" y1="0%" y2="100%"><stop offset="0%" stop-color="#c8f6c8" /><stop offset="100%" stop-color="#7baa7b" /></linearGradient><linearGradient id="gradient-create_function" x1="0%" x2="0%" y1="0%" y2="100%"><stop offset="0%" stop-color="#c8f6c8" /><stop offset="100%" stop-color="#7baa7b" /></linearGradient><linearGradient id="gradient-generate_paths" x1="0%" x2="0%" y1="0%" y2="100%"><stop offset="0%" stop-color="#c8f6c8" /><stop offset="100%" stop-color="#7baa7b" /></linearGradient><linearGradient id="gradient-format_code" x1="0%" x2="0%" y1="0%" y2="100%"><stop offset="0%" stop-color="#c8f6c8" /><stop offset="100%" stop-color="#7baa7b" /></linearGradient><linearGradient id="gradient-output_py" x1="0%" x2="0%" y1="0%" y2="100%"><stop offset="0%" stop-color="#a6a6a6" /><stop offset="100%" stop-color="#595959" /></linearGradient><linearGradient id="gradient-register" x1="0%" x2="0%" y1="0%" y2="100%"><stop offset="0%" stop-color="#ffeb81" /><stop offset="100%" stop-color="#b29e35" /></linearGradient><linearGradient id="gradient-ready" x1="0%" x2="0%" y1="0%" y2="100%"><stop offset="0%" stop-color="#c8f6c8" /><stop offset="100%" stop-color="#7baa7b" /></linearGradient></defs><g id="input_svg"><ellipse cx="400.0" cy="93.0" fill="url(#gradient-input_svg)" rx="36.0" ry="11.0" stroke="#595959" stroke-width="0.8" /><circle cx="400.0" cy="81.0" fill="url(#gradient-input_svg)" r="17.0" stroke="#595959" stroke-width="0.8" /><circle cx="386.0" cy="87.0" fill="url(#gradient-input_svg)" r="13.0" stroke="#595959" stroke-width="0.8" /><circle cx="414.0" cy="87.0" fill="url(#gradient-input_svg)" r="13.0" stroke="#595959" stroke-width="0.8" /><ellipse cx="400.0" cy="89.0" fill="url(#gradient-input_svg)" rx="30.4" ry="14.000000000000002" stroke="none" /></g><g id="parser"><rect fill="url(#gradient-parser)" height="50" rx="4" ry="4" stroke="black" stroke-width="1.2" width="80" x="360" y="190" /><line stroke="#2d5c99" stroke-width="0.8" x1="362" x2="438" y1="206.66666666666666" y2="206.66666666666666" /><line stroke="#2d5c99" stroke-width="0.8" x1="362" x2="438" y1="223.33333333333334" y2="223.33333333333334" /><circle cx="428" cy="198.33333333333334" fill="#00cc44" r="2.5" stroke="#2d5c99" stroke-width="0.5" /><circle cx="420" cy="198.33333333333334" fill="#ffaa00" r="2.5" stroke="#2d5c99" stroke-width="0.5" /><circle cx="428" cy="215.0" fill="#00cc44" r="2.5" stroke="#2d5c99" stroke-width="0.5" /><circle cx="420" cy="215.0" fill="#ffaa00" r="2.5" stroke="#2d5c99" stroke-width="0.5" /><circle cx="428" cy="231.66666666666669" fill="#00cc44" r="2.5" stroke="#2d5c99" stroke-width="0.5" /><circle cx="420" cy="231.66666666666669" fill="#ffaa00" r="2.5" stroke="#2d5c99" stroke-width="0.5" /><line stroke="#2d5c99" stroke-width="0.6" x1="366" x2="378" y1="195.0" y2="195.0" /><line stroke="#2d5c99" stroke-width="0.6" x1="366" x2="378" y1="198.33333333333334" y2="198.33333333333334" /><line stroke="#2d5c99" stroke-width="0.6" x1="366" x2="378" y1="201.66666666666666" y2="201.66666666666666" /><line stroke="#2d5c99" stroke-width="0.6" x1="366" x2="378" y1="211.66666666666666" y2="211.66666666666666" /><line stroke="#2d5c99" stroke-width="0.6" x1="366" x2="378" y1="215.0" y2="215.0" /><line stroke="#2d5c99" stroke-width="0.6" x1="366" x2="378" y1="218.33333333333331" y2="218.33333333333331" /><line stroke="#2d5c99" stroke-width="0.6" x1="366" x2="378" y1="228.33333333333334" y2="228.33333333333334" /><line stroke="#2d5c99" stroke-width="0.6" x1="366" x2="378" y1="231.66666666666669" y2="231.66666666666669" /><line stroke="#2d5c99" stroke-width="0.6" x1="366" x2="378" y1="235.0" y2="235.0" /></g><g id="extract_elements"><rect fill="url(#gradient-extract_elements)" height="50" rx="4" ry="4" stroke="black" stroke-width="1.2" width="80" x="260" y="320" /><line stroke="#2d5c99" stroke-width="0.8" x1="262" x2="338" y1="336.6666666666667" y2="336.6666666666667" /><line stroke="#2d5c99" stroke-width="0.8" x1="262" x2="338" y1="353.3333333333333" y2="353.3333333333333" /><circle cx="328" cy="328.3333333333333" fill="#00cc44" r="2.5" stroke="#2d5c99" stroke-width="0.5" /><circle cx="320" cy="328.3333333333333" fill="#ffaa00" r="2.5" stroke="#2d5c99" stroke-width="0.5" /><circle cx="328" cy="345.0" fill="#00cc44" r="2.5" stroke="#2d5c99" stroke-width="0.5" /><circle cx="320" cy="345.0" fill="#ffaa00" r="2.5" stroke="#2d5c99" stroke-width="0.5" /><circle cx="328" cy="361.66666666666663" fill="#00cc44" r="2.5" stroke="#2d5c99" stroke-width="0.5" /><circle cx="320" cy="361.66666666666663" fill="#ffaa00" r="2.5" stroke="#2d5c99" stroke-width="0.5" /><line stroke="#2d5c99" stroke-width="0.6" x1="266" x2="278" y1="325.0" y2="325.0" /><line stroke="#2d5c99" stroke-width="0.6" x1="266" x2="278" y1="328.3333333333333" y2="328.3333333333333" /><line stroke="#2d5c99" stroke-width="0.6" x1="266" x2="278" y1="331.6666666666667" y2="331.6666666666667" /><line stroke="#2d5c99" stroke-width="0.6" x1="266" x2="278" y1="341.6666666666667" y2="341.6666666666667" /><line stroke="#2d5c99" stroke-width="0.6" x1="266" x2="278" y1="345.0" y2="345.0" /><line stroke="#2d5c99" stroke-width="0.6" x1="266" x2="278" y1="348.33333333333337" y2="348.33333333333337" /><line stroke="#2d5c99" stroke-width="0.6" x1="266" x2="278" y1="358.3333333333333" y2="358.3333333333333" /><line stroke="#2d5c99" stroke-width="0.6" x1="266" x2="278" y1="361.66666666666663" y2="361.66666666666663" /><line stroke="#2d5c99" stroke-width="0.6" x1="266" x2="278" y1="365.0" y2="365.0" /></g><g id="extract_attrs"><rect fill="url(#gradient-extract_attrs)" height="50" rx="4" ry="4" stroke="black" stroke-width="1.2" width="80" x="460" y="320" /><line stroke="#2d5c99" stroke-width="0.8" x1="462" x2="538" y1="336.6666666666667" y2="336.6666666666667" /><line stroke="#2d5c99" stroke-width="0.8" x1="462" x2="538" y1="353.3333333333333" y2="353.3333333333333" /><circle cx="528" cy="328.3333333333333" fill="#00cc44" r="2.5" stroke="#2d5c99" stroke-width="0.5" /><circle cx="520" cy="328.3333333333333" fill="#ffaa00" r="2.5" stroke="#2d5c99" stroke-width="0.5" /><circle cx="528" cy="345.0" fill="#00cc44" r="2.5" stroke="#2d5c99" stroke-width="0.5" /><circle cx="520" cy="345.0" fill="#ffaa00" r="2.5" stroke="#2d5c99" stroke-width="0.5" /><circle cx="528" cy="361.66666666666663" fill="#00cc44" r="2.5" stroke="#2d5c99" stroke-width="0.5" /><circle cx="520" cy="361.66666666666663" fill="#ffaa00" r="2.5" stroke="#2d5c99" stroke-width="0.5" /><line stroke="#2d5c99" stroke-width="0.6" x1="466" x2="478" y1="325.0" y2="325.0" /><line stroke="#2d5c99" stroke-width="0.6" x1="466" x2="478" y1="328.3333333333333" y2="328.3333333333333" /><line stroke="#2d5c99" stroke-width="0.6" x1="466" x2="478" y1="331.6666666666667" y2="331.6666666666667" /><line stroke="#2d5c99" stroke-width="0.6" x1="466" x2="478" y1="341.6666666666667" y2="341.6666666666667" /><line stroke="#2d5c99" stroke-width="0.6" x1="466" x2="478" y1="345.0" y2="345.0" /><line stroke="#2d5c99" stroke-width="0.6" x1="466" x2="478" y1="348.33333333333337" y2="348.33333333333337" /><line stroke="#2d5c99" stroke-width="0.6" x1="466" x2="478" y1="358.3333333333333" y2="358.3333333333333" /><line stroke="#2d5c99" stroke-width="0.6" x1="466" x2="478" y1="361.66666666666663" y2="361.66666666666663" /><line stroke="#2d5c99" stroke-width="0.6" x1="466" x2="478" y1="365.0" y2="365.0" /></g><g id="normalizer"><rect fill="url(#gradient-normalizer)" height="50" rx="4" ry="4" stroke="black" stroke-width="1.2" width="80" x="360" y="450" /><line stroke="#99632d" stroke-width="0.8" x1="362" x2="438" y1="466.6666666666667" y2="466.6666666666667" /><line stroke="#99632d" stroke-width="0.8" x1="362" x2="438" y1="483.3333333333333" y2="483.3333333333333" /><circle cx="428" cy="458.3333333333333" fill="#00cc44" r="2.5" stroke="#99632d" stroke-width="0.5" /><circle cx="420" cy="458.3333333333333" fill="#ffaa00" r="2.5" stroke="#99632d" stroke-width="0.5" /><circle cx="428" cy="475.0" fill="#00cc44" r="2.5" stroke="#99632d" stroke-width="0.5" /><circle cx="420" cy="475.0" fill="#ffaa00" r="2.5" stroke="#99632d" stroke-width="0.5" /><circle cx="428" cy="491.66666666666663" fill="#00cc44" r="2.5" stroke="#99632d" stroke-width="0.5" /><circle cx="420" cy="491.66666666666663" fill="#ffaa00" r="2.5" stroke="#99632d" stroke-width="0.5" /><line stroke="#99632d" stroke-width="0.6" x1="366" x2="378" y1="455.0" y2="455.0" /><line stroke="#99632d" stroke-width="0.6" x1="366" x2="378" y1="458.3333333333333" y2="458.3333333333333" /><line stroke="#99632d" stroke-width="0.6" x1="366" x2="378" y1="461.6666666666667" y2="461.6666666666667" /><line stroke="#99632d" stroke-width="0.6" x1="366" x2="378" y1="471.6666666666667" y2="471.6666666666667" /><line stroke="#99632d" stroke-width="0.6" x1="366" x2="378" y1="475.0" y2="475.0" /><line stroke="#99632d" stroke-width="0.6" x1="366" x2="378" y1="478.33333333333337" y2="478.33333333333337" /><line stroke="#99632d" stroke-width="0.6" x1="366" x2="378" y1="488.3333333333333" y2="488.3333333333333" /><line stroke="#99632d" stroke-width="0.6" x1="366" x2="378" y1="491.66666666666663" y2="491.66666666666663" /><line stroke="#99632d" stroke-width="0.6" x1="366" x2="378" y1="495.0" y2="495.0" /></g><g id="calc_bbox"><rect fill="url(#gradient-calc_bbox)" height="50" rx="4" ry="4" stroke="black" stroke-width="1.2" width="80" x="160" y="580" /><line stroke="#99632d" stroke-width="0.8" x1="162" x2="238" y1="596.6666666666666" y2="596.6666666666666" /><line stroke="#99632d" stroke-width="0.8" x1="162" x2="238" y1="613.3333333333334" y2="613.3333333333334" /><circle cx="228" cy="588.3333333333334" fill="#00cc44" r="2.5" stroke="#99632d" stroke-width="0.5" /><circle cx="220" cy="588.3333333333334" fill="#ffaa00" r="2.5" stroke="#99632d" stroke-width="0.5" /><circle cx="228" cy="605.0" fill="#00cc44" r="2.5" stroke="#99632d" stroke-width="0.5" /><circle cx="220" cy="605.0" fill="#ffaa00" r="2.5" stroke="#99632d" stroke-width="0.5" /><circle cx="228" cy="621.6666666666667" fill="#00cc44" r="2.5" stroke="#99632d" stroke-width="0.5" /><circle cx="220" cy="621.6666666666667" fill="#ffaa00" r="2.5" stroke="#99632d" stroke-width="0.5" /><line stroke="#99632d" stroke-width="0.6" x1="166" x2="178" y1="585.0" y2="585.0" /><line stroke="#99632d" stroke-width="0.6" x1="166" x2="178" y1="588.3333333333334" y2="588.3333333333334" /><line stroke="#99632d" stroke-width="0.6" x1="166" x2="178" y1="591.6666666666666" y2="591.6666666666666" /><line stroke="#99632d" stroke-width="0.6" x1="166" x2="178" y1="601.6666666666666" y2="601.6666666666666" /><line stroke="#99632d" stroke-width="0.6" x1="166" x2="178" y1="605.0" y2="605.0" /><line stroke="#99632d" stroke-width="0.6" x1="166" x2="178" y1="608.3333333333333" y2="608.3333333333333" /><line stroke="#99632d" stroke-width="0.6" x1="166" x2="178" y1="618.3333333333334" y2="618.3333333333334" /><line stroke="#99632d" stroke-width="0.6" x1="166" x2="178" y1="621.6666666666667" y2="621.6666666666667" /><line stroke="#99632d" stroke-width="0.6" x1="166" x2="178" y1="625.0" y2="625.0" /></g><g id="calc_scale"><rect fill="url(#gradient-calc_scale)" height="50" rx="4" ry="4" stroke="black" stroke-width="1.2" width="80" x="360" y="580" /><line stroke="#99632d" stroke-width="0.8" x1="362" x2="438" y1="596.6666666666666" y2="596.6666666666666" /><line stroke="#99632d" stroke-width="0.8" x1="362" x2="438" y1="613.3333333333334" y2="613.3333333333334" /><circle cx="428" cy="588.3333333333334" fill="#00cc44" r="2.5" stroke="#99632d" stroke-width="0.5" /><circle cx="420" cy="588.3333333333334" fill="#ffaa00" r="2.5" stroke="#99632d" stroke-width="0.5" /><circle cx="428" cy="605.0" fill="#00cc44" r="2.5" stroke="#99632d" stroke-width="0.5" /><circle cx="420" cy="605.0" fill="#ffaa00" r="2.5" stroke="#99632d" stroke-width="0.5" /><circle cx="428" cy="621.6666666666667" fill="#00cc44" r="2.5" stroke="#99632d" stroke-width="0.5" /><circle cx="420" cy="621.6666666666667" fill="#ffaa00" r="2.5" stroke="#99632d" stroke-width="0.5" /><line stroke="#99632d" stroke-width="0.6" x1="366" x2="378" y1="585.0" y2="585.0" /><line stroke="#99632d" stroke-width="0.6" x1="366" x2="378" y1="588.3333333333334" y2="588.3333333333334" /><line stroke="#99632d" stroke-width="0.6" x1="366" x2="378" y1="591.6666666666666" y2="591.6666666666666" /><line stroke="#99632d" stroke-width="0.6" x1="366" x2="378" y1="601.6666666666666" y2="601.6666666666666" /><line stroke="#99632d" stroke-width="0.6" x1="366" x2="378" y1="605.0" y2="605.0" /><line stroke="#99632d" stroke-width="0.6" x1="366" x2="378" y1="608.3333333333333" y2="608.3333333333333" /><line stroke="#99632d" stroke-width="0.6" x1="366" x2="378" y1="618.3333333333334" y2="618.3333333333334" /><line stroke="#99632d" stroke-width="0.6" x1="366" x2="378" y1="621.6666666666667" y2="621.6666666666667" /><line stroke="#99632d" stroke-width="0.6" x1="366" x2="378" y1="625.0" y2="625.0" /></g><g id="normalize_coords"><rect fill="url(#gradient-normalize_coords)" height="50" rx="4" ry="4" stroke="black" stroke-width="1.2" width="80" x="560" y="580" /><line stroke="#99632d" stroke-width="0.8" x1="562" x2="638" y1="596.6666666666666" y2="596.6666666666666" /><line stroke="#99632d" stroke-width="0.8" x1="562" x2="638" y1="613.3333333333334" y2="613.3333333333334" /><circle cx="628" cy="588.3333333333334" fill="#00cc44" r="2.5" stroke="#99632d" stroke-width="0.5" /><circle cx="620" cy="588.3333333333334" fill="#ffaa00" r="2.5" stroke="#99632d" stroke-width="0.5" /><circle cx="628" cy="605.0" fill="#00cc44" r="2.5" stroke="#99632d" stroke-width="0.5" /><circle cx="620" cy="605.0" fill="#ffaa00" r="2.5" stroke="#99632d" stroke-width="0.5" /><circle cx="628" cy="621.6666666666667" fill="#00cc44" r="2.5" stroke="#99632d" stroke-width="0.5" /><circle cx="620" cy="621.6666666666667" fill="#ffaa00" r="2.5" stroke="#99632d" stroke-width="0.5" /><line stroke="#99632d" stroke-width="0.6" x1="566" x2="578" y1="585.0" y2="585.0" /><line stroke="#99632d" stroke-width="0.6" x1="566" x2="578" y1="588.3333333333334" y2="588.3333333333334" /><line stroke="#99632d" stroke-width="0.6" x1="566" x2="578" y1="591.6666666666666" y2="591.6666666666666" /><line stroke="#99632d" stroke-width="0.6" x1="566" x2="578" y1="601.6666666666666" y2="601.6666666666666" /><line stroke="#99632d" stroke-width="0.6" x1="566" x2="578" y1="605.0" y2="605.0" /><line stroke="#99632d" stroke-width="0.6" x1="566" x2="578" y1="608.3333333333333" y2="608.3333333333333" /><line stroke="#99632d" stroke-width="0.6" x1="566" x2="578" y1="618.3333333333334" y2="618.3333333333334" /><line stroke="#99632d" stroke-width="0.6" x1="566" x2="578" y1="621.6666666666667" y2="621.6666666666667" /><line stroke="#99632d" stroke-width="0.6" x1="566" x2="578" y1="625.0" y2="625.0" /></g><g id="simplifier"><rect fill="url(#gradient-simplifier)" height="50" rx="4" ry="4" stroke="black" stroke-width="1.2" width="80" x="360" y="710" /><line stroke="#632d63" stroke-width="0.8" x1="362" x2="438" y1="726.6666666666666" y2="726.6666666666666" /><line stroke="#632d63" stroke-width="0.8" x1="362" x2="438" y1="743.3333333333334" y2="743.3333333333334" /><circle cx="428" cy="718.3333333333334" fill="#00cc44" r="2.5" stroke="#632d63" stroke-width="0.5" /><circle cx="420" cy="718.3333333333334" fill="#ffaa00" r="2.5" stroke="#632d63" stroke-width="0.5" /><circle cx="428" cy="735.0" fill="#00cc44" r="2.5" stroke="#632d63" stroke-width="0.5" /><circle cx="420" cy="735.0" fill="#ffaa00" r="2.5" stroke="#632d63" stroke-width="0.5" /><circle cx="428" cy="751.6666666666667" fill="#00cc44" r="2.5" stroke="#632d63" stroke-width="0.5" /><circle cx="420" cy="751.6666666666667" fill="#ffaa00" r="2.5" stroke="#632d63" stroke-width="0.5" /><line stroke="#632d63" stroke-width="0.6" x1="366" x2="378" y1="715.0" y2="715.0" /><line stroke="#632d63" stroke-width="0.6" x1="366" x2="378" y1="718.3333333333334" y2="718.3333333333334" /><line stroke="#632d63" stroke-width="0.6" x1="366" x2="378" y1="721.6666666666666" y2="721.6666666666666" /><line stroke="#632d63" stroke-width="0.6" x1="366" x2="378" y1="731.6666666666666" y2="731.6666666666666" /><line stroke="#632d63" stroke-width="0.6" x1="366" x2="378" y1="735.0" y2="735.0" /><line stroke="#632d63" stroke-width="0.6" x1="366" x2="378" y1="738.3333333333333" y2="738.3333333333333" /><line stroke="#632d63" stroke-width="0.6" x1="366" x2="378" y1="748.3333333333334" y2="748.3333333333334" /><line stroke="#632d63" stroke-width="0.6" x1="366" x2="378" y1="751.6666666666667" y2="751.6666666666667" /><line stroke="#632d63" stroke-width="0.6" x1="366" x2="378" y1="755.0" y2="755.0" /></g><g id="combine_paths"><rect fill="url(#gradient-combine_paths)" height="50" rx="4" ry="4" stroke="black" stroke-width="1.2" width="80" x="160" y="840" /><line stroke="#632d63" stroke-width="0.8" x1="162" x2="238" y1="856.6666666666666" y2="856.6666666666666" /><line stroke="#632d63" stroke-width="0.8" x1="162" x2="238" y1="873.3333333333334" y2="873.3333333333334" /><circle cx="228" cy="848.3333333333334" fill="#00cc44" r="2.5" stroke="#632d63" stroke-width="0.5" /><circle cx="220" cy="848.3333333333334" fill="#ffaa00" r="2.5" stroke="#632d63" stroke-width="0.5" /><circle cx="228" cy="865.0" fill="#00cc44" r="2.5" stroke="#632d63" stroke-width="0.5" /><circle cx="220" cy="865.0" fill="#ffaa00" r="2.5" stroke="#632d63" stroke-width="0.5" /><circle cx="228" cy="881.6666666666667" fill="#00cc44" r="2.5" stroke="#632d63" stroke-width="0.5" /><circle cx="220" cy="881.6666666666667" fill="#ffaa00" r="2.5" stroke="#632d63" stroke-width="0.5" /><line stroke="#632d63" stroke-width="0.6" x1="166" x2="178" y1="845.0" y2="845.0" /><line stroke="#632d63" stroke-width="0.6" x1="166" x2="178" y1="848.3333333333334" y2="848.3333333333334" /><line stroke="#632d63" stroke-width="0.6" x1="166" x2="178" y1="851.6666666666666" y2="851.6666666666666" /><line stroke="#632d63" stroke-width="0.6" x1="166" x2="178" y1="861.6666666666666" y2="861.6666666666666" /><line stroke="#632d63" stroke-width="0.6" x1="166" x2="178" y1="865.0" y2="865.0" /><line stroke="#632d63" stroke-width="0.6" x1="166" x2="178" y1="868.3333333333333" y2="868.3333333333333" /><line stroke="#632d63" stroke-width="0.6" x1="166" x2="178" y1="878.3333333333334" y2="878.3333333333334" /><line stroke="#632d63" stroke-width="0.6" x1="166" x2="178" y1="881.6666666666667" y2="881.6666666666667" /><line stroke="#632d63" stroke-width="0.6" x1="166" x2="178" y1="885.0" y2="885.0" /></g><g id="remove_invisible"><rect fill="url(#gradient-remove_invisible)" height="50" rx="4" ry="4" stroke="black" stroke-width="1.2" width="80" x="360" y="840" /><line stroke="#632d63" stroke-width="0.8" x1="362" x2="438" y1="856.6666666666666" y2="856.6666666666666" /><line stroke="#632d63" stroke-width="0.8" x1="362" x2="438" y1="873.3333333333334" y2="873.3333333333334" /><circle cx="428" cy="848.3333333333334" fill="#00cc44" r="2.5" stroke="#632d63" stroke-width="0.5" /><circle cx="420" cy="848.3333333333334" fill="#ffaa00" r="2.5" stroke="#632d63" stroke-width="0.5" /><circle cx="428" cy="865.0" fill="#00cc44" r="2.5" stroke="#632d63" stroke-width="0.5" /><circle cx="420" cy="865.0" fill="#ffaa00" r="2.5" stroke="#632d63" stroke-width="0.5" /><circle cx="428" cy="881.6666666666667" fill="#00cc44" r="2.5" stroke="#632d63" stroke-width="0.5" /><circle cx="420" cy="881.6666666666667" fill="#ffaa00" r="2.5" stroke="#632d63" stroke-width="0.5" /><line stroke="#632d63" stroke-width="0.6" x1="366" x2="378" y1="845.0" y2="845.0" /><line stroke="#632d63" stroke-width="0.6" x1="366" x2="378" y1="848.3333333333334" y2="848.3333333333334" /><line stroke="#632d63" stroke-width="0.6" x1="366" x2="378" y1="851.6666666666666" y2="851.6666666666666" /><line stroke="#632d63" stroke-width="0.6" x1="366" x2="378" y1="861.6666666666666" y2="861.6666666666666" /><line stroke="#632d63" stroke-width="0.6" x1="366" x2="378" y1="865.0" y2="865.0" /><line stroke="#632d63" stroke-width="0.6" x1="366" x2="378" y1="868.3333333333333" y2="868.3333333333333" /><line stroke="#632d63" stroke-width="0.6" x1="366" x2="378" y1="878.3333333333334" y2="878.3333333333334" /><line stroke="#632d63" stroke-width="0.6" x1="366" x2="378" y1="881.6666666666667" y2="881.6666666666667" /><line stroke="#632d63" stroke-width="0.6" x1="366" x2="378" y1="885.0" y2="885.0" /></g><g id="optimize_paths"><rect fill="url(#gradient-optimize_paths)" height="50" rx="4" ry="4" stroke="black" stroke-width="1.2" width="80" x="560" y="840" /><line stroke="#632d63" stroke-width="0.8" x1="562" x2="638" y1="856.6666666666666" y2="856.6666666666666" /><line stroke="#632d63" stroke-width="0.8" x1="562" x2="638" y1="873.3333333333334" y2="873.3333333333334" /><circle cx="628" cy="848.3333333333334" fill="#00cc44" r="2.5" stroke="#632d63" stroke-width="0.5" /><circle cx="620" cy="848.3333333333334" fill="#ffaa00" r="2.5" stroke="#632d63" stroke-width="0.5" /><circle cx="628" cy="865.0" fill="#00cc44" r="2.5" stroke="#632d63" stroke-width="0.5" /><circle cx="620" cy="865.0" fill="#ffaa00" r="2.5" stroke="#632d63" stroke-width="0.5" /><circle cx="628" cy="881.6666666666667" fill="#00cc44" r="2.5" stroke="#632d63" stroke-width="0.5" /><circle cx="620" cy="881.6666666666667" fill="#ffaa00" r="2.5" stroke="#632d63" stroke-width="0.5" /><line stroke="#632d63" stroke-width="0.6" x1="566" x2="578" y1="845.0" y2="845.0" /><line stroke="#632d63" stroke-width="0.6" x1="566" x2="578" y1="848.3333333333334" y2="848.3333333333334" /><line stroke="#632d63" stroke-width="0.6" x1="566" x2="578" y1="851.6666666666666" y2="851.6666666666666" /><line stroke="#632d63" stroke-width="0.6" x1="566" x2="578" y1="861.6666666666666" y2="861.6666666666666" /><line stroke="#632d63" stroke-width="0.6" x1="566" x2="578" y1="865.0" y2="865.0" /><line stroke="#632d63" stroke-width="0.6" x1="566" x2="578" y1="868.3333333333333" y2="868.3333333333333" /><line stroke="#632d63" stroke-width="0.6" x1="566" x2="578" y1="878.3333333333334" y2="878.3333333333334" /><line stroke="#632d63" stroke-width="0.6" x1="566" x2="578" y1="881.6666666666667" y2="881.6666666666667" /><line stroke="#632d63" stroke-width="0.6" x1="566" x2="578" y1="885.0" y2="885.0" /></g><g id="codegen"><rect fill="url(#gradient-codegen)" height="50" rx="4" ry="4" stroke="black" stroke-width="1.2" width="80" x="360" y="970" /><line stroke="#6a916a" stroke-width="0.8" x1="362" x2="438" y1="986.6666666666666" y2="986.6666666666666" /><line stroke="#6a916a" stroke-width="0.8" x1="362" x2="438" y1="1003.3333333333334" y2="1003.3333333333334" /><circle cx="428" cy="978.3333333333334" fill="#00cc44" r="2.5" stroke="#6a916a" stroke-width="0.5" /><circle cx="420" cy="978.3333333333334" fill="#ffaa00" r="2.5" stroke="#6a916a" stroke-width="0.5" /><circle cx="428" cy="995.0" fill="#00cc44" r="2.5" stroke="#6a916a" stroke-width="0.5" /><circle cx="420" cy="995.0" fill="#ffaa00" r="2.5" stroke="#6a916a" stroke-width="0.5" /><circle cx="428" cy="1011.6666666666667" fill="#00cc44" r="2.5" stroke="#6a916a" stroke-width="0.5" /><circle cx="420" cy="1011.6666666666667" fill="#ffaa00" r="2.5" stroke="#6a916a" stroke-width="0.5" /><line stroke="#6a916a" stroke-width="0.6" x1="366" x2="378" y1="975.0" y2="975.0" /><line stroke="#6a916a" stroke-width="0.6" x1="366" x2="378" y1="978.3333333333334" y2="978.3333333333334" /><line stroke="#6a916a" stroke-width="0.6" x1="366" x2="378" y1="981.6666666666666" y2="981.6666666666666" /><line stroke="#6a916a" stroke-width="0.6" x1="366" x2="378" y1="991.6666666666666" y2="991.6666666666666" /><line stroke="#6a916a" stroke-width="0.6" x1="366" x2="378" y1="995.0" y2="995.0" /><line stroke="#6a916a" stroke-width="0.6" x1="366" x2="378" y1="998.3333333333333" y2="998.3333333333333" /><line stroke="#6a916a" stroke-width="0.6" x1="366" x2="378" y1="1008.3333333333334" y2="1008.3333333333334" /><line stroke="#6a916a" stroke-width="0.6" x1="366" x2="378" y1="1011.6666666666667" y2="1011.6666666666667" /><line stroke="#6a916a" stroke-width="0.6" x1="366" x2="378" y1="1015.0" y2="1015.0" /></g><g id="create_function"><rect fill="url(#gradient-create_function)" height="50" rx="4" ry="4" stroke="black" stroke-width="1.2" width="80" x="160" y="1100" /><line stroke="#6a916a" stroke-width="0.8" x1="162" x2="238" y1="1116.6666666666667" y2="1116.6666666666667" /><line stroke="#6a916a" stroke-width="0.8" x1="162" x2="238" y1="1133.3333333333333" y2="1133.3333333333333" /><circle cx="228" cy="1108.3333333333333" fill="#00cc44" r="2.5" stroke="#6a916a" stroke-width="0.5" /><circle cx="220" cy="1108.3333333333333" fill="#ffaa00" r="2.5" stroke="#6a916a" stroke-width="0.5" /><circle cx="228" cy="1125.0" fill="#00cc44" r="2.5" stroke="#6a916a" stroke-width="0.5" /><circle cx="220" cy="1125.0" fill="#ffaa00" r="2.5" stroke="#6a916a" stroke-width="0.5" /><circle cx="228" cy="1141.6666666666665" fill="#00cc44" r="2.5" stroke="#6a916a" stroke-width="0.5" /><circle cx="220" cy="1141.6666666666665" fill="#ffaa00" r="2.5" stroke="#6a916a" stroke-width="0.5" /><line stroke="#6a916a" stroke-width="0.6" x1="166" x2="178" y1="1105.0" y2="1105.0" /><line stroke="#6a916a" stroke-width="0.6" x1="166" x2="178" y1="1108.3333333333333" y2="1108.3333333333333" /><line stroke="#6a916a" stroke-width="0.6" x1="166" x2="178" y1="1111.6666666666667" y2="1111.6666666666667" /><line stroke="#6a916a" stroke-width="0.6" x1="166" x2="178" y1="1121.6666666666667" y2="1121.6666666666667" /><line stroke="#6a916a" stroke-width="0.6" x1="166" x2="178" y1="1125.0" y2="1125.0" /><line stroke="#6a916a" stroke-width="0.6" x1="166" x2="178" y1="1128.3333333333335" y2="1128.3333333333335" /><line stroke="#6a916a" stroke-width="0.6" x1="166" x2="178" y1="1138.3333333333333" y2="1138.3333333333333" /><line stroke="#6a916a" stroke-width="0.6" x1="166" x2="178" y1="1141.6666666666665" y2="1141.6666666666665" /><line stroke="#6a916a" stroke-width="0.6" x1="166" x2="178" y1="1145.0" y2="1145.0" /></g><g id="generate_paths"><rect fill="url(#gradient-generate_paths)" height="50" rx="4" ry="4" stroke="black" stroke-width="1.2" width="80" x="360" y="1100" /><line stroke="#6a916a" stroke-width="0.8" x1="362" x2="438" y1="1116.6666666666667" y2="1116.6666666666667" /><line stroke="#6a916a" stroke-width="0.8" x1="362" x2="438" y1="1133.3333333333333" y2="1133.3333333333333" /><circle cx="428" cy="1108.3333333333333" fill="#00cc44" r="2.5" stroke="#6a916a" stroke-width="0.5" /><circle cx="420" cy="1108.3333333333333" fill="#ffaa00" r="2.5" stroke="#6a916a" stroke-width="0.5" /><circle cx="428" cy="1125.0" fill="#00cc44" r="2.5" stroke="#6a916a" stroke-width="0.5" /><circle cx="420" cy="1125.0" fill="#ffaa00" r="2.5" stroke="#6a916a" stroke-width="0.5" /><circle cx="428" cy="1141.6666666666665" fill="#00cc44" r="2.5" stroke="#6a916a" stroke-width="0.5" /><circle cx="420" cy="1141.6666666666665" fill="#ffaa00" r="2.5" stroke="#6a916a" stroke-width="0.5" /><line stroke="#6a916a" stroke-width="0.6" x1="366" x2="378" y1="1105.0" y2="1105.0" /><line stroke="#6a916a" stroke-width="0.6" x1="366" x2="378" y1="1108.3333333333333" y2="1108.3333333333333" /><line stroke="#6a916a" stroke-width="0.6" x1="366" x2="378" y1="1111.6666666666667" y2="1111.6666666666667" /><line stroke="#6a916a" stroke-width="0.6" x1="366" x2="378" y1="1121.6666666666667" y2="1121.6666666666667" /><line stroke="#6a916a" stroke-width="0.6" x1="366" x2="378" y1="1125.0" y2="1125.0" /><line stroke="#6a916a" stroke-width="0.6" x1="366" x2="378" y1="1128.3333333333335" y2="1128.3333333333335" /><line stroke="#6a916a" stroke-width="0.6" x1="366" x2="378" y1="1138.3333333333333" y2="1138.3333333333333" /><line stroke="#6a916a" stroke-width="0.6" x1="366" x2="378" y1="1141.6666666666665" y2="1141.6666666666665" /><line stroke="#6a916a" stroke-width="0.6" x1="366" x2="378" y1="1145.0" y2="1145.0" /></g><g id="format_code"><rect fill="url(#gradient-format_code)" height="50" rx="4" ry="4" stroke="black" stroke-width="1.2" width="80" x="560" y="1100" /><line stroke="#6a916a" stroke-width="0.8" x1="562" x2="638" y1="1116.6666666666667" y2="1116.6666666666667" /><line stroke="#6a916a" stroke-width="0.8" x1="562" x2="638" y1="1133.3333333333333" y2="1133.3333333333333" /><circle cx="628" cy="1108.3333333333333" fill="#00cc44" r="2.5" stroke="#6a916a" stroke-width="0.5" /><circle cx="620" cy="1108.3333333333333" fill="#ffaa00" r="2.5" stroke="#6a916a" stroke-width="0.5" /><circle cx="628" cy="1125.0" fill="#00cc44" r="2.5" stroke="#6a916a" stroke-width="0.5" /><circle cx="620" cy="1125.0" fill="#ffaa00" r="2.5" stroke="#6a916a" stroke-width="0.5" /><circle cx="628" cy="1141.6666666666665" fill="#00cc44" r="2.5" stroke="#6a916a" stroke-width="0.5" /><circle cx="620" cy="1141.6666666666665" fill="#ffaa00" r="2.5" stroke="#6a916a" stroke-width="0.5" /><line stroke="#6a916a" stroke-width="0.6" x1="566" x2="578" y1="1105.0" y2="1105.0" /><line stroke="#6a916a" stroke-width="0.6" x1="566" x2="578" y1="1108.3333333333333" y2="1108.3333333333333" /><line stroke="#6a916a" stroke-width="0.6" x1="566" x2="578" y1="1111.6666666666667" y2="1111.6666666666667" /><line stroke="#6a916a" stroke-width="0.6" x1="566" x2="578" y1="1121.6666666666667" y2="1121.6666666666667" /><line stroke="#6a916a" stroke-width="0.6" x1="566" x2="578" y1="1125.0" y2="1125.0" /><line stroke="#6a916a" stroke-width="0.6" x1="566" x2="578" y1="1128.3333333333335" y2="1128.3333333333335" /><line stroke="#6a916a" stroke-width="0.6" x1="566" x2="578" y1="1138.3333333333333" y2="1138.3333333333333" /><line stroke="#6a916a" stroke-width="0.6" x1="566" x2="578" y1="1141.6666666666665" y2="1141.6666666666665" /><line stroke="#6a916a" stroke-width="0.6" x1="566" x2="578" y1="1145.0" y2="1145.0" /></g><g id="output_py"><ellipse cx="400.0" cy="1263.0" fill="url(#gradient-output_py)" rx="36.0" ry="11.0" stroke="#595959" stroke-width="0.8" /><circle cx="400.0" cy="1251.0" fill="url(#gradient-output_py)" r="17.0" stroke="#595959" stroke-width="0.8" /><circle cx="386.0" cy="1257.0" fill="url(#gradient-output_py)" r="13.0" stroke="#595959" stroke-width="0.8" /><circle cx="414.0" cy="1257.0" fill="url(#gradient-output_py)" r="13.0" stroke="#595959" stroke-width="0.8" /><ellipse cx="400.0" cy="1259.0" fill="url(#gradient-output_py)" rx="30.4" ry="14.000000000000002" stroke="none" /></g><g id="register"><rect fill="url(#gradient-register)" height="50" rx="4" ry="4" stroke="black" stroke-width="1.2" width="80" x="360" y="1360" /><line stroke="#99882d" stroke-width="0.8" x1="362" x2="438" y1="1376.6666666666667" y2="1376.6666666666667" /><line stroke="#99882d" stroke-width="0.8" x1="362" x2="438" y1="1393.3333333333333" y2="1393.3333333333333" /><circle cx="428" cy="1368.3333333333333" fill="#00cc44" r="2.5" stroke="#99882d" stroke-width="0.5" /><circle cx="420" cy="1368.3333333333333" fill="#ffaa00" r="2.5" stroke="#99882d" stroke-width="0.5" /><circle cx="428" cy="1385.0" fill="#00cc44" r="2.5" stroke="#99882d" stroke-width="0.5" /><circle cx="420" cy="1385.0" fill="#ffaa00" r="2.5" stroke="#99882d" stroke-width="0.5" /><circle cx="428" cy="1401.6666666666665" fill="#00cc44" r="2.5" stroke="#99882d" stroke-width="0.5" /><circle cx="420" cy="1401.6666666666665" fill="#ffaa00" r="2.5" stroke="#99882d" stroke-width="0.5" /><line stroke="#99882d" stroke-width="0.6" x1="366" x2="378" y1="1365.0" y2="1365.0" /><line stroke="#99882d" stroke-width="0.6" x1="366" x2="378" y1="1368.3333333333333" y2="1368.3333333333333" /><line stroke="#99882d" stroke-width="0.6" x1="366" x2="378" y1="1371.6666666666667" y2="1371.6666666666667" /><line stroke="#99882d" stroke-width="0.6" x1="366" x2="378" y1="1381.6666666666667" y2="1381.6666666666667" /><line stroke="#99882d" stroke-width="0.6" x1="366" x2="378" y1="1385.0" y2="1385.0" /><line stroke="#99882d" stroke-width="0.6" x1="366" x2="378" y1="1388.3333333333335" y2="1388.3333333333335" /><line stroke="#99882d" stroke-width="0.6" x1="366" x2="378" y1="1398.3333333333333" y2="1398.3333333333333" /><line stroke="#99882d" stroke-width="0.6" x1="366" x2="378" y1="1401.6666666666665" y2="1401.6666666666665" /><line stroke="#99882d" stroke-width="0.6" x1="366" x2="378" y1="1405.0" y2="1405.0" /></g><g id="ready"><ellipse cx="400.0" cy="1523.0" fill="url(#gradient-ready)" rx="36.0" ry="11.0" stroke="#7baa7b" stroke-width="0.8" /><circle cx="400.0" cy="1511.0" fill="url(#gradient-ready)" r="17.0" stroke="#7baa7b" stroke-width="0.8" /><circle cx="386.0" cy="1517.0" fill="url(#gradient-ready)" r="13.0" stroke="#7baa7b" stroke-width="0.8" /><circle cx="414.0" cy="1517.0" fill="url(#gradient-ready)" r="13.0" stroke="#7baa7b" stroke-width="0.8" /><ellipse cx="400.0" cy="1519.0" fill="url(#gradient-ready)" rx="30.4" ry="14.000000000000002" stroke="none" /></g><line stroke="black" stroke-width="2" x1="400.0" x2="400.0" y1="110.0" y2="190.0" /><path d="M 385.6,240.0 L 339.4,240.0 Q 314.4,240.0 314.4,265.0 L 314.4,320.0" fill="none" stroke="black" stroke-width="2" /><path d="M 414.4,240.0 L 460.6,240.0 Q 485.6,240.0 485.6,265.0 L 485.6,320.0" fill="none" stroke="black" stroke-width="2" /><path d="M 319.2307692307692,370.0 C 313.8333333333333,403.3333333333333 347.1666666666667,446.6666666666667 380.7692307692308,450.0" fill="none" stroke="black" stroke-width="2" /><path d="M 480.7692307692308,370.0 C 447.1666666666667,373.3333333333333 413.8333333333333,416.6666666666667 419.2307692307692,450.0" fill="none" stroke="black" stroke-width="2" /><path d="M 360.0,498.1 L 265.0,498.1 Q 240.0,498.1 240.0,523.1 L 240.0,581.9" fill="none" stroke="black" stroke-width="2" /><polyline fill="none" points="400.0,500.0 400.0,580.0" stroke="black" stroke-width="2" /><path d="M 440.0,498.1 L 535.0,498.1 Q 560.0,498.1 560.0,523.1 L 560.0,581.9" fill="none" stroke="black" stroke-width="2" /><path d="M 238.46153846153845,630.0 C 247.16666666666669,678.3333333333334 313.83333333333337,721.6666666666666 361.53846153846155,710.0" fill="none" stroke="black" stroke-width="2" /><path d="M 400.0,630.0 C 380.5,648.3333333333334 380.5,691.6666666666666 400.0,710.0" fill="none" stroke="black" stroke-width="2" /><path d="M 561.5384615384615,630.0 C 513.8333333333334,618.3333333333334 447.16666666666663,661.6666666666666 438.46153846153845,710.0" fill="none" stroke="black" stroke-width="2" /><path d="M 360.0,758.1 L 265.0,758.1 Q 240.0,758.1 240.0,783.1 L 240.0,841.9" fill="none" stroke="black" stroke-width="2" /><polyline fill="none" points="400.0,760.0 400.0,840.0" stroke="black" stroke-width="2" /><path d="M 440.0,758.1 L 535.0,758.1 Q 560.0,758.1 560.0,783.1 L 560.0,841.9" fill="none" stroke="black" stroke-width="2" /><path d="M 238.46153846153845,890.0 C 247.16666666666669,938.3333333333334 313.83333333333337,981.6666666666666 361.53846153846155,970.0" fill="none" stroke="black" stroke-width="2" /><path d="M 400.0,890.0 C 380.5,908.3333333333334 380.5,951.6666666666666 400.0,970.0" fill="none" stroke="black" stroke-width="2" /><path d="M 561.5384615384615,890.0 C 513.8333333333334,878.3333333333334 447.16666666666663,921.6666666666666 438.46153846153845,970.0" fill="none" stroke="black" stroke-width="2" /><path d="M 360.0,1018.1 L 265.0,1018.1 Q 240.0,1018.1 240.0,1043.1 L 240.0,1101.9" fill="none" stroke="black" stroke-width="2" /><polyline fill="none" points="400.0,1020.0 400.0,1100.0" stroke="black" stroke-width="2" /><path d="M 440.0,1018.1 L 535.0,1018.1 Q 560.0,1018.1 560.0,1043.1 L 560.0,1101.9" fill="none" stroke="black" stroke-width="2" /><path d="M 238.46153846153845,1150.0 C 247.16666666666669,1198.3333333333333 313.83333333333337,1241.6666666666667 361.53846153846155,1230.0" fill="none" stroke="black" stroke-width="2" /><path d="M 400.0,1150.0 C 380.5,1168.3333333333333 380.5,1211.6666666666667 400.0,1230.0" fill="none" stroke="black" stroke-width="2" /><path d="M 561.5384615384615,1150.0 C 513.8333333333334,1138.3333333333333 447.16666666666663,1181.6666666666667 438.46153846153845,1230.0" fill="none" stroke="black" stroke-width="2" /><line stroke="black" stroke-width="2" x1="400.0" x2="400.0" y1="1280.0" y2="1360.0" /><line stroke="black" stroke-width="2" x1="400.0" x2="400.0" y1="1410.0" y2="1490.0" /><text fill="black" filter="url(#text-glow)" font-family="Arial, sans-serif" font-size="14px" text-anchor="start" x="452.6" y="85.0">archivo.svg</text><text fill="black" filter="url(#text-glow)" font-family="Arial, sans-serif" font-size="14px" text-anchor="start" x="452.6" y="103.0">(input)</text><text fill="black" filter="url(#text-glow)" font-family="Arial, sans-serif" font-size="14px" text-anchor="start" x="452.6" y="261.0">SVG Parser</text><text fill="black" filter="url(#text-glow)" font-family="Arial, sans-serif" font-size="14px" text-anchor="start" x="452.6" y="279.0">(Fase 1)</text><text fill="black" filter="url(#text-glow)" font-family="Arial, sans-serif" font-size="14px" text-anchor="end" x="247.4" y="345.0">Extraer Elementos</text><text fill="black" filter="url(#text-glow)" font-family="Arial, sans-serif" font-size="14px" text-anchor="end" x="247.4" y="363.0">&lt;path&gt; &lt;rect&gt;</text><text fill="black" filter="url(#text-glow)" font-family="Arial, sans-serif" font-size="14px" text-anchor="end" x="247.4" y="381.0">&lt;circle&gt; etc.</text><text fill="black" filter="url(#text-glow)" font-family="Arial, sans-serif" font-size="14px" text-anchor="start" x="552.6" y="345.0">Extraer Atributos</text><text fill="black" filter="url(#text-glow)" font-family="Arial, sans-serif" font-size="14px" text-anchor="start" x="552.6" y="363.0">fill, stroke</text><text fill="black" filter="url(#text-glow)" font-family="Arial, sans-serif" font-size="14px" text-anchor="start" x="552.6" y="381.0">transform</text><text fill="black" filter="url(#text-glow)" font-family="Arial, sans-serif" font-size="14px" text-anchor="start" x="452.6" y="475.0">Normalizer</text><text fill="black" filter="url(#text-glow)" font-family="Arial, sans-serif" font-size="14px" text-anchor="start" x="452.6" y="493.0">(Fase 2)</text><text fill="black" filter="url(#text-glow)" font-family="Arial, sans-serif" font-size="14px" text-anchor="start" x="252.6" y="605.0">Calcular</text><text fill="black" filter="url(#text-glow)" font-family="Arial, sans-serif" font-size="14px" text-anchor="start" x="252.6" y="623.0">Bounding Box</text><text fill="black" filter="url(#text-glow)" font-family="Arial, sans-serif" font-size="14px" text-anchor="middle" x="400.0" y="651.0">Calcular Escala</text><text fill="black" filter="url(#text-glow)" font-family="Arial, sans-serif" font-size="14px" text-anchor="middle" x="400.0" y="669.0">ICON_WIDTH/HEIGHT</text><text fill="black" filter="url(#text-glow)" font-family="Arial, sans-serif" font-size="14px" text-anchor="start" x="652.6" y="605.0">Normalizar</text><text fill="black" filter="url(#text-glow)" font-family="Arial, sans-serif" font-size="14px" text-anchor="start" x="652.6" y="623.0">Coordenadas</text><text fill="black" filter="url(#text-glow)" font-family="Arial, sans-serif" font-size="14px" text-anchor="start" x="652.6" y="641.0">(0,0 origin)</text><text fill="black" filter="url(#text-glow)" font-family="Arial, sans-serif" font-size="14px" text-anchor="middle" x="400.0" y="781.0">Simplifier</text><text fill="black" filter="url(#text-glow)" font-family="Arial, sans-serif" font-size="14px" text-anchor="middle" x="400.0" y="799.0">(Fase 3)</text><text fill="black" filter="url(#text-glow)" font-family="Arial, sans-serif" font-size="14px" text-anchor="middle" x="400.0" y="817.0">Opcional</text><text fill="black" filter="url(#text-glow)" font-family="Arial, sans-serif" font-size="14px" text-anchor="end" x="147.4" y="865.0">Combinar</text><text fill="black" filter="url(#text-glow)" font-family="Arial, sans-serif" font-size="14px" text-anchor="end" x="147.4" y="883.0">Paths Similares</text><text fill="black" filter="url(#text-glow)" font-family="Arial, sans-serif" font-size="14px" text-anchor="start" x="452.6" y="865.0">Eliminar</text><text fill="black" filter="url(#text-glow)" font-family="Arial, sans-serif" font-size="14px" text-anchor="start" x="452.6" y="883.0">Invisibles</text><text fill="black" filter="url(#text-glow)" font-family="Arial, sans-serif" font-size="14px" text-anchor="start" x="452.6" y="901.0">opacity=0</text><text fill="black" filter="url(#text-glow)" font-family="Arial, sans-serif" font-size="14px" text-anchor="start" x="652.6" y="865.0">Optimizar</text><text fill="black" filter="url(#text-glow)" font-family="Arial, sans-serif" font-size="14px" text-anchor="start" x="652.6" y="883.0">Path Data</text><text fill="black" filter="url(#text-glow)" font-family="Arial, sans-serif" font-size="14px" text-anchor="start" x="652.6" y="901.0">Reducir decimales</text><text fill="black" filter="url(#text-glow)" font-family="Arial, sans-serif" font-size="14px" text-anchor="start" x="452.6" y="995.0">Code Generator</text><text fill="black" filter="url(#text-glow)" font-family="Arial, sans-serif" font-size="14px" text-anchor="start" x="452.6" y="1013.0">(Fase 4)</text><text fill="black" filter="url(#text-glow)" font-family="Arial, sans-serif" font-size="14px" text-anchor="end" x="147.4" y="1125.0">Crear Función</text><text fill="black" filter="url(#text-glow)" font-family="Arial, sans-serif" font-size="14px" text-anchor="end" x="147.4" y="1143.0">draw_&lt;nombre&gt;()</text><text fill="black" filter="url(#text-glow)" font-family="Arial, sans-serif" font-size="14px" text-anchor="start" x="452.6" y="1171.0">Generar</text><text fill="black" filter="url(#text-glow)" font-family="Arial, sans-serif" font-size="14px" text-anchor="start" x="452.6" y="1189.0">dwg.add()</text><text fill="black" filter="url(#text-glow)" font-family="Arial, sans-serif" font-size="14px" text-anchor="start" x="452.6" y="1207.0">para cada elemento</text><text fill="black" filter="url(#text-glow)" font-family="Arial, sans-serif" font-size="14px" text-anchor="start" x="652.6" y="1171.0">Formatear</text><text fill="black" filter="url(#text-glow)" font-family="Arial, sans-serif" font-size="14px" text-anchor="start" x="652.6" y="1189.0">Código PEP8</text><text fill="black" filter="url(#text-glow)" font-family="Arial, sans-serif" font-size="14px" text-anchor="start" x="452.6" y="1255.0">draw_&lt;nombre&gt;.py</text><text fill="black" filter="url(#text-glow)" font-family="Arial, sans-serif" font-size="14px" text-anchor="start" x="452.6" y="1273.0">(output)</text><text fill="black" filter="url(#text-glow)" font-family="Arial, sans-serif" font-size="14px" text-anchor="start" x="452.6" y="1385.0">Registrar en</text><text fill="black" filter="url(#text-glow)" font-family="Arial, sans-serif" font-size="14px" text-anchor="start" x="452.6" y="1403.0">ICON_TYPES</text><text fill="black" filter="url(#text-glow)" font-family="Arial, sans-serif" font-size="14px" text-anchor="start" x="452.6" y="1421.0">(opcional)</text><text fill="black" filter="url(#text-glow)" font-family="Arial, sans-serif" font-size="14px" text-anchor="middle" x="400.0" y="1561.0">Ícono Listo</text><text fill="black" filter="url(#text-glow)" font-family="Arial, sans-serif" font-size="14px" text-anchor="middle" x="400.0" y="1579.0">para Usar en .gag</text><text fill="#14181d" font-family="Arial, sans-serif" font-size="12px" text-anchor="end" x="349.2" y="150.0">lee SVG</text><text fill="#14181d" font-family="Arial, sans-serif" font-size="12px" text-anchor="end" x="287.3333333333333" y="266.6666666666667">parsea XML</text><text fill="#14181d" font-family="Arial, sans-serif" font-size="12px" text-anchor="middle" x="461.8666666666666" y="223.66666666666669">extrae</text><text fill="#14181d" font-family="Arial, sans-serif" font-size="12px" text-anchor="middle" x="280.0" y="483.0333333333333">procesa</text><text fill="#14181d" font-family="Arial, sans-serif" font-size="12px" text-anchor="middle" x="280.0" y="743.0333333333333">optimiza</text><text fill="#14181d" font-family="Arial, sans-serif" font-size="12px" text-anchor="middle" x="280.0" y="1003.0333333333335">genera</text><text fill="#14181d" font-family="Arial, sans-serif" font-size="12px" text-anchor="end" x="349.2" y="1320.0">registro
opcional</text><text fill="#14181d" font-family="Arial, sans-serif" font-size="12px" text-anchor="end" x="349.2" y="1450.0">disponible</text></svg>