<?xml version="1.0" encoding="utf-8" ?>
<svg baseProfile="full" height="1840" version="1.1" viewBox="0,0,1400,1840" width="1400" xmlns="http://www.w3.org/2000/svg" xmlns:ev="http://www.w3.org/2001/xml-events" xmlns:xlink="http://www.w3.org/1999/xlink"><defs><marker id="arrow-end" markerHeight="10" markerWidth="10" orient="auto" refX="10" refY="5"><path d="M 0 0 L 10 5 L 0 10 z" fill="black" /></marker><marker id="arrow-start" markerHeight="10" markerWidth="10" orient="auto" refX="0" refY="5"><path d="M 10 0 L 0 5 L 10 10 z" fill="black" /></marker><linearGradient id="gradient-input_svg" x1="0%" x2="0%" y1="0%" y2="100%"><stop offset="0%" stop-color="#a6a6a6" /><stop offset="100%" stop-color="#595959" /></linearGradient><linearGradient id="gradient-parser" x1="0%" x2="0%" y1="0%" y2="100%"><stop offset="0%" stop-color="#81b8ff" /><stop offset="100%" stop-color="#356bb2" /></linearGradient><linearGradient id="gradient-extract_elements" x1="0%" x2="0%" y1="0%" y2="100%"><stop offset="0%" stop-color="#81b8ff" /><stop offset="100%" stop-color="#356bb2" /></linearGradient><linearGradient id="gradient-extract_attrs" x1="0%" x2="0%" y1="0%" y2="100%"><stop offset="0%" stop-color="#81b8ff" /><stop offset="100%" stop-color="#356bb2" /></linearGradient><linearGradient id="gradient-normalizer" x1="0%" x2="0%" y1="0%" y2="100%"><stop offset="0%" stop-color="#ffc081" /><stop offset="100%" stop-color="#b27435" /></linearGradient><linearGradient id="gradient-calc_bbox" x1="0%" x2="0%" y1="0%" y2="100%"><stop offset="0%" stop-color="#ffc081" /><stop offset="100%" stop-color="#b27435" /></linearGradient><linearGradient id="gradient-calc_scale" x1="0%" x2="0%" y1="0%" y2="100%"><stop offset="0%" stop-color="#ffc081" /><stop offset="100%" stop-color="#b27435" /></linearGradient><linearGradient id="gradient-normalize_coords" x1="0%" x2="0%" y1="0%" y2="100%"><stop offset="0%" stop-color="#ffc081" /><stop offset="100%" stop-color="#b27435" /></linearGradient><linearGradient id="gradient-simplifier" x1="0%" x2="0%" y1="0%" y2="100%"><stop offset="0%" stop-color="#c081c0" /><stop offset="100%" stop-color="#743574" /></linearGradient><linearGradient id="gradient-combine_paths" x1="0%" x2="0%" y1="0%" y2="100%"><stop offset="0%" stop-color="#c081c0" /><stop offset="100%" stop-color="#743574" /></linearGradient><linearGradient id="gradient-remove_invisible" x1="0%" x2="0%" y1="0%" y2="100%"><stop offset="0%" stop-color="#c081c0" /><stop offset="100%" stop-color="#743574" /></linearGradient><linearGradient id="gradient-optimize_paths" x1="0%" x2="0%" y1="0%" y2="100%"><stop offset="0%" stop-color="#c081c0" /><stop offset="100%" stop-color="#743574" /></linearGradient><linearGradient id="gradient-codegen" x1="0%" x2="0%" y1="0%" y2="100%"><stop offset="0%" stop-color="#c8f6c8" /><stop offset="100%" stop-color="#7baa7b" /></linearGradient><linearGradient id="gradient-create_function" x1="0%" x2="0%" y1="0%" y2="100%"><stop offset="0%" stop-color="#c8f6c8" /><stop offset="100%" stop-color="#7baa7b" /></linearGradient><linearGradient id="gradient-generate_paths" x1="0%" x2="0%" y1="0%" y2="100%"><stop offset="0%" stop-color="#c8f6c8" /><stop offset="100%" stop-color="#7baa7b" /></linearGradient><linearGradient id="gradient-format_code" x1="0%" x2="0%" y1="0%" y2="100%"><stop offset="0%" stop-color="#c8f6c8" /><stop offset="100%" stop-color="#7baa7b" /></linearGradient><linearGradient id="gradient-output_py" x1="0%" x2="0%" y1="0%" y2="100%"><stop offset="0%" stop-color="#a6a6a6" /><stop offset="100%" stop-color="#595959" /></linearGradient><linearGradient id="gradient-register" x1="0%" x2="0%" y1="0%" y2="100%"><stop offset="0%" stop-color="#ffeb81" /><stop offset="100%" stop-color="#b29e35" /></linearGradient><linearGradient id="gradient-ready" x1="0%" x2="0%" y1="0%" y2="100%"><stop offset="0%" stop-color="#c8f6c8" /><stop offset="100%" stop-color="#7baa7b" /></linearGradient></defs><ellipse cx="700.0" cy="45.0" fill="url(#gradient-input_svg)" rx="40.0" ry="25.0" stroke="black" /><rect fill="url(#gradient-parser)" height="50" stroke="black" width="80" x="660.0" y="170" /><rect fill="url(#gradient-extract_elements)" height="50" stroke="black" width="80" x="600.0" y="320" /><rect fill="url(#gradient-extract_attrs)" height="50" stroke="black" width="80" x="720.0" y="320" /><rect fill="url(#gradient-normalizer)" height="50" stroke="black" width="80" x="660.0" y="470" /><rect fill="url(#gradient-calc_bbox)" height="50" stroke="black" width="80" x="540.0" y="620" /><rect fill="url(#gradient-calc_scale)" height="50" stroke="black" width="80" x="660.0" y="620" /><rect fill="url(#gradient-normalize_coords)" height="50" stroke="black" width="80" x="780.0" y="620" /><rect fill="url(#gradient-simplifier)" height="50" stroke="black" width="80" x="660.0" y="770" /><rect fill="url(#gradient-combine_paths)" height="50" stroke="black" width="80" x="540.0" y="920" /><rect fill="url(#gradient-remove_invisible)" height="50" stroke="black" width="80" x="660.0" y="920" /><rect fill="url(#gradient-optimize_paths)" height="50" stroke="black" width="80" x="780.0" y="920" /><rect fill="url(#gradient-codegen)" height="50" stroke="black" width="80" x="660.0" y="1070" /><rect fill="url(#gradient-create_function)" height="50" stroke="black" width="80" x="540.0" y="1220" /><rect fill="url(#gradient-generate_paths)" height="50" stroke="black" width="80" x="660.0" y="1220" /><rect fill="url(#gradient-format_code)" height="50" stroke="black" width="80" x="780.0" y="1220" /><ellipse cx="700.0" cy="1395.0" fill="url(#gradient-output_py)" rx="40.0" ry="25.0" stroke="black" /><rect fill="url(#gradient-register)" height="50" stroke="black" width="80" x="660.0" y="1520" /><ellipse cx="700.0" cy="1695.0" fill="url(#gradient-ready)" rx="40.0" ry="25.0" stroke="black" /><line stroke="black" stroke-width="2" x1="700.0" x2="700.0" y1="85.0" y2="163.0" /><polyline fill="none" points="700.0,227.0 700.0,270.0 640.0,270.0 640.0,313.0" stroke="black" stroke-width="2" /><polyline fill="none" points="700.0,227.0 700.0,270.0 760.0,270.0 760.0,313.0" stroke="black" stroke-width="2" /><path d="M 651.8845016433313,374.7112541083283 C 637.5,404.0 657.5,454.0 688.1154983566687,465.2887458916717" fill="none" stroke="black" stroke-width="2" /><path d="M 748.1154983566687,374.7112541083283 C 717.5,386.0 697.5,436.0 711.8845016433313,465.2887458916717" fill="none" stroke="black" stroke-width="2" /><polyline fill="none" points="700.0,527.0 700.0,570.0 580.0,570.0 580.0,613.0" stroke="black" stroke-width="2" /><polyline fill="none" points="700.0,527.0 700.0,613.0" stroke="black" stroke-width="2" /><polyline fill="none" points="700.0,527.0 700.0,570.0 820.0,570.0 820.0,613.0" stroke="black" stroke-width="2" /><path d="M 599.9902415217416,669.987801902177 C 597.5,713.0 637.5,763.0 680.0097584782584,770.012198097823" fill="none" stroke="black" stroke-width="2" /><path d="M 700.0,677.0 C 677.5,695.0 677.5,745.0 700.0,763.0" fill="none" stroke="black" stroke-width="2" /><path d="M 800.0097584782584,669.987801902177 C 757.5,677.0 717.5,727.0 719.9902415217416,770.012198097823" fill="none" stroke="black" stroke-width="2" /><polyline fill="none" points="700.0,827.0 700.0,870.0 580.0,870.0 580.0,913.0" stroke="black" stroke-width="2" /><polyline fill="none" points="700.0,827.0 700.0,913.0" stroke="black" stroke-width="2" /><polyline fill="none" points="700.0,827.0 700.0,870.0 820.0,870.0 820.0,913.0" stroke="black" stroke-width="2" /><path d="M 599.9902415217416,969.987801902177 C 597.5,1013.0 637.5,1063.0 680.0097584782584,1070.012198097823" fill="none" stroke="black" stroke-width="2" /><path d="M 700.0,977.0 C 677.5,995.0 677.5,1045.0 700.0,1063.0" fill="none" stroke="black" stroke-width="2" /><path d="M 800.0097584782584,969.987801902177 C 757.5,977.0 717.5,1027.0 719.9902415217416,1070.012198097823" fill="none" stroke="black" stroke-width="2" /><polyline fill="none" points="700.0,1127.0 700.0,1170.0 580.0,1170.0 580.0,1213.0" stroke="black" stroke-width="2" /><polyline fill="none" points="700.0,1127.0 700.0,1213.0" stroke="black" stroke-width="2" /><polyline fill="none" points="700.0,1127.0 700.0,1170.0 820.0,1170.0 820.0,1213.0" stroke="black" stroke-width="2" /><path d="M 599.9902415217416,1269.987801902177 C 597.5,1313.0 637.5,1363.0 675.012198097823,1363.7652476222788" fill="none" stroke="black" stroke-width="2" /><path d="M 700.0,1277.0 C 677.5,1295.0 677.5,1345.0 700.0,1355.0" fill="none" stroke="black" stroke-width="2" /><path d="M 800.0097584782584,1269.987801902177 C 757.5,1277.0 717.5,1327.0 724.987801902177,1363.7652476222788" fill="none" stroke="black" stroke-width="2" /><line stroke="black" stroke-width="2" x1="700.0" x2="700.0" y1="1435.0" y2="1513.0" /><line stroke="black" stroke-width="2" x1="700.0" x2="700.0" y1="1577.0" y2="1655.0" /><text fill="black" font-family="Arial, sans-serif" font-size="14px" text-anchor="start" x="752.6" y="45.0">archivo.svg
(input)</text><text fill="black" font-family="Arial, sans-serif" font-size="14px" text-anchor="start" x="752.6" y="195.0">SVG Parser
(Fase 1)</text><text fill="black" font-family="Arial, sans-serif" font-size="14px" text-anchor="end" x="587.4" y="345.0">Extraer Elementos
&lt;path&gt; &lt;rect&gt;
&lt;circle&gt; etc.</text><text fill="black" font-family="Arial, sans-serif" font-size="14px" text-anchor="start" x="812.6" y="345.0">Extraer Atributos
fill, stroke
transform</text><text fill="black" font-family="Arial, sans-serif" font-size="14px" text-anchor="start" x="752.6" y="495.0">Normalizer
(Fase 2)</text><text fill="black" font-family="Arial, sans-serif" font-size="14px" text-anchor="end" x="527.4" y="645.0">Calcular
Bounding Box</text><text fill="black" font-family="Arial, sans-serif" font-size="14px" text-anchor="middle" x="700.0" y="599.0">Calcular Escala
ICON_WIDTH/HEIGHT</text><text fill="black" font-family="Arial, sans-serif" font-size="14px" text-anchor="start" x="872.6" y="645.0">Normalizar
Coordenadas
(0,0 origin)</text><text fill="black" font-family="Arial, sans-serif" font-size="14px" text-anchor="start" x="752.6" y="795.0">Simplifier
(Fase 3)
Opcional</text><text fill="black" font-family="Arial, sans-serif" font-size="14px" text-anchor="end" x="527.4" y="945.0">Combinar
Paths Similares</text><text fill="black" font-family="Arial, sans-serif" font-size="14px" text-anchor="middle" x="700.0" y="991.0">Eliminar
Invisibles
opacity=0</text><text fill="black" font-family="Arial, sans-serif" font-size="14px" text-anchor="start" x="872.6" y="945.0">Optimizar
Path Data
Reducir decimales</text><text fill="black" font-family="Arial, sans-serif" font-size="14px" text-anchor="start" x="752.6" y="1095.0">Code Generator
(Fase 4)</text><text fill="black" font-family="Arial, sans-serif" font-size="14px" text-anchor="end" x="527.4" y="1245.0">Crear Función
draw_&lt;nombre&gt;()</text><text fill="black" font-family="Arial, sans-serif" font-size="14px" text-anchor="middle" x="700.0" y="1291.0">Generar
dwg.add()
para cada elemento</text><text fill="black" font-family="Arial, sans-serif" font-size="14px" text-anchor="start" x="872.6" y="1245.0">Formatear
Código PEP8</text><text fill="black" font-family="Arial, sans-serif" font-size="14px" text-anchor="start" x="752.6" y="1395.0">draw_&lt;nombre&gt;.py
(output)</text><text fill="black" font-family="Arial, sans-serif" font-size="14px" text-anchor="start" x="752.6" y="1545.0">Registrar en
ICON_TYPES
(opcional)</text><text fill="black" font-family="Arial, sans-serif" font-size="14px" text-anchor="middle" x="700.0" y="1741.0">Ícono Listo
para Usar en .gag</text><text fill="gray" font-family="Arial, sans-serif" font-size="12px" text-anchor="end" x="649.2" y="124.0">lee SVG</text><text fill="gray" font-family="Arial, sans-serif" font-size="12px" text-anchor="end" x="619.2" y="270.0">parsea XML</text><text fill="gray" font-family="Arial, sans-serif" font-size="12px" text-anchor="start" x="780.8" y="270.0">extrae</text><text fill="gray" font-family="Arial, sans-serif" font-size="12px" text-anchor="end" x="589.2" y="570.0">procesa</text><text fill="gray" font-family="Arial, sans-serif" font-size="12px" text-anchor="end" x="589.2" y="870.0">optimiza</text><text fill="gray" font-family="Arial, sans-serif" font-size="12px" text-anchor="middle" x="640.0" y="1213.0">genera</text><text fill="gray" font-family="Arial, sans-serif" font-size="12px" text-anchor="end" x="649.2" y="1474.0">registro
opcional</text><text fill="gray" font-family="Arial, sans-serif" font-size="12px" text-anchor="end" x="649.2" y="1616.0">disponible</text></svg>