<?xml version="1.0" encoding="utf-8" ?>
<svg baseProfile="full" height="3410" version="1.1" viewBox="0,0,1400,3410" width="1400" xmlns="http://www.w3.org/2000/svg" xmlns:ev="http://www.w3.org/2001/xml-events" xmlns:xlink="http://www.w3.org/1999/xlink"><defs><marker id="arrow-end" markerHeight="10" markerWidth="10" orient="auto" refX="10" refY="5"><path d="M 0 0 L 10 5 L 0 10 z" fill="black" /></marker><marker id="arrow-start" markerHeight="10" markerWidth="10" orient="auto" refX="0" refY="5"><path d="M 10 0 L 0 5 L 10 10 z" fill="black" /></marker><linearGradient id="gradient-input_svg" x1="0%" x2="0%" y1="0%" y2="100%"><stop offset="0%" stop-color="#a6a6a6" /><stop offset="100%" stop-color="#595959" /></linearGradient><linearGradient id="gradient-parser" x1="0%" x2="0%" y1="0%" y2="100%"><stop offset="0%" stop-color="#81b8ff" /><stop offset="100%" stop-color="#356bb2" /></linearGradient><linearGradient id="gradient-extract_elements" x1="0%" x2="0%" y1="0%" y2="100%"><stop offset="0%" stop-color="#81b8ff" /><stop offset="100%" stop-color="#356bb2" /></linearGradient><linearGradient id="gradient-extract_attrs" x1="0%" x2="0%" y1="0%" y2="100%"><stop offset="0%" stop-color="#81b8ff" /><stop offset="100%" stop-color="#356bb2" /></linearGradient><linearGradient id="gradient-normalizer" x1="0%" x2="0%" y1="0%" y2="100%"><stop offset="0%" stop-color="#ffc081" /><stop offset="100%" stop-color="#b27435" /></linearGradient><linearGradient id="gradient-calc_bbox" x1="0%" x2="0%" y1="0%" y2="100%"><stop offset="0%" stop-color="#ffc081" /><stop offset="100%" stop-color="#b27435" /></linearGradient><linearGradient id="gradient-calc_scale" x1="0%" x2="0%" y1="0%" y2="100%"><stop offset="0%" stop-color="#ffc081" /><stop offset="100%" stop-color="#b27435" /></linearGradient><linearGradient id="gradient-normalize_coords" x1="0%" x2="0%" y1="0%" y2="100%"><stop offset="0%" stop-color="#ffc081" /><stop offset="100%" stop-color="#b27435" /></linearGradient><linearGradient id="gradient-simplifier" x1="0%" x2="0%" y1="0%" y2="100%"><stop offset="0%" stop-color="#c081c0" /><stop offset="100%" stop-color="#743574" /></linearGradient><linearGradient id="gradient-combine_paths" x1="0%" x2="0%" y1="0%" y2="100%"><stop offset="0%" stop-color="#c081c0" /><stop offset="100%" stop-color="#743574" /></linearGradient><linearGradient id="gradient-remove_invisible" x1="0%" x2="0%" y1="0%" y2="100%"><stop offset="0%" stop-color="#c081c0" /><stop offset="100%" stop-color="#743574" /></linearGradient><linearGradient id="gradient-optimize_paths" x1="0%" x2="0%" y1="0%" y2="100%"><stop offset="0%" stop-color="#c081c0" /><stop offset="100%" stop-color="#743574" /></linearGradient><linearGradient id="gradient-codegen" x1="0%" x2="0%" y1="0%" y2="100%"><stop offset="0%" stop-color="#c8f6c8" /><stop offset="100%" stop-color="#7baa7b" /></linearGradient><linearGradient id="gradient-create_function" x1="0%" x2="0%" y1="0%" y2="100%"><stop offset="0%" stop-color="#c8f6c8" /><stop offset="100%" stop-color="#7baa7b" /></linearGradient><linearGradient id="gradient-generate_paths" x1="0%" x2="0%" y1="0%" y2="100%"><stop offset="0%" stop-color="#c8f6c8" /><stop offset="100%" stop-color="#7baa7b" /></linearGradient><linearGradient id="gradient-format_code" x1="0%" x2="0%" y1="0%" y2="100%"><stop offset="0%" stop-color="#c8f6c8" /><stop offset="100%" stop-color="#7baa7b" /></linearGradient><linearGradient id="gradient-output_py" x1="0%" x2="0%" y1="0%" y2="100%"><stop offset="0%" stop-color="#a6a6a6" /><stop offset="100%" stop-color="#595959" /></linearGradient><linearGradient id="gradient-register" x1="0%" x2="0%" y1="0%" y2="100%"><stop offset="0%" stop-color="#ffeb81" /><stop offset="100%" stop-color="#b29e35" /></linearGradient><linearGradient id="gradient-ready" x1="0%" x2="0%" y1="0%" y2="100%"><stop offset="0%" stop-color="#c8f6c8" /><stop offset="100%" stop-color="#7baa7b" /></linearGradient></defs><ellipse cx="259.17147386167244" cy="45.0" fill="url(#gradient-input_svg)" rx="40.0" ry="25.0" stroke="black" /><rect fill="url(#gradient-parser)" height="50" stroke="black" width="80" x="219.17147386167244" y="310.0" /><rect fill="url(#gradient-extract_elements)" height="50" stroke="black" width="80" x="159.8245493757446" y="600.0" /><rect fill="url(#gradient-extract_attrs)" height="50" stroke="black" width="80" x="279.8245493757446" y="600.0" /><rect fill="url(#gradient-normalizer)" height="50" stroke="black" width="80" x="220.62700274966005" y="890.0" /><rect fill="url(#gradient-calc_bbox)" height="50" stroke="black" width="80" x="101.299709790527" y="1180.0" /><rect fill="url(#gradient-calc_scale)" height="50" stroke="black" width="80" x="221.299709790527" y="1180.0" /><rect fill="url(#gradient-normalize_coords)" height="50" stroke="black" width="80" x="341.299709790527" y="1180.0" /><rect fill="url(#gradient-simplifier)" height="50" stroke="black" width="80" x="221.62623922263833" y="1470.0" /><rect fill="url(#gradient-combine_paths)" height="50" stroke="black" width="80" x="101.50955680846323" y="1760.0" /><rect fill="url(#gradient-remove_invisible)" height="50" stroke="black" width="80" x="221.50955680846323" y="1760.0" /><rect fill="url(#gradient-optimize_paths)" height="50" stroke="black" width="80" x="341.50955680846323" y="1760.0" /><rect fill="url(#gradient-codegen)" height="50" stroke="black" width="80" x="220.96091611092845" y="2050.0" /><rect fill="url(#gradient-create_function)" height="50" stroke="black" width="80" x="100.0" y="2340.0" /><rect fill="url(#gradient-generate_paths)" height="50" stroke="black" width="80" x="220.0" y="2340.0" /><rect fill="url(#gradient-format_code)" height="50" stroke="black" width="80" x="340.0" y="2340.0" /><ellipse cx="259.0390838890835" cy="2655.0" fill="url(#gradient-output_py)" rx="40.0" ry="25.0" stroke="black" /><rect fill="url(#gradient-register)" height="50" stroke="black" width="80" x="217.75811115836632" y="2920.0" /><ellipse cx="256.8982951721148" cy="3235.0" fill="url(#gradient-ready)" rx="40.0" ry="25.0" stroke="black" /><line stroke="black" stroke-width="2" x1="259.17147386167244" x2="259.17147386167244" y1="85.0" y2="303.0" /><polyline fill="none" points="259.17147386167244,367.0 259.17147386167244,480.0 199.8245493757446,480.0 199.8245493757446,593.0" stroke="black" stroke-width="2" /><polyline fill="none" points="259.17147386167244,367.0 259.17147386167244,480.0 319.8245493757446,480.0 319.8245493757446,593.0" stroke="black" stroke-width="2" /><path d="M 206.3910107805601,656.3190291136087 C 176.5920338337164,730.787034672754 196.85951829168823,827.4537013394207 254.06054134484455,883.6809708863913" fill="none" stroke="black" stroke-width="2" /><path d="M 313.42438907019994,656.3534359849655 C 256.5920338337164,712.787034672754 236.85951829168823,809.4537013394207 267.0271630552047,883.6465640150345" fill="none" stroke="black" stroke-width="2" /><polyline fill="none" points="260.62700274966005,947.0 260.62700274966005,1060.0 141.299709790527,1060.0 141.299709790527,1173.0" stroke="black" stroke-width="2" /><polyline fill="none" points="260.7012322923895,946.9999139057434 261.2254802477976,1173.0000860942566" stroke="black" stroke-width="2" /><polyline fill="none" points="260.62700274966005,947.0 260.62700274966005,1060.0 381.299709790527,1060.0 381.299709790527,1173.0" stroke="black" stroke-width="2" /><path d="M 153.5633760746383,1234.5567672331051 C 137.9085529345641,1319.7156460814836 178.01739607860122,1416.38231274815 249.36257293852702,1465.4432327668949" fill="none" stroke="black" stroke-width="2" /><path d="M 261.3357406015753,1236.9999797153164 C 217.9085529345641,1301.7156460814836 218.01739607860122,1398.38231274815 261.59020841159,1463.0000202846836" fill="none" stroke="black" stroke-width="2" /><path d="M 369.09289526377415,1234.5802920727544 C 297.9085529345641,1283.7156460814836 258.0173960786012,1380.38231274815 273.8330537493912,1465.4197079272456" fill="none" stroke="black" stroke-width="2" /><polyline fill="none" points="261.62623922263833,1527.0 261.62623922263833,1640.0 141.50955680846323,1640.0 141.50955680846323,1753.0" stroke="black" stroke-width="2" /><polyline fill="none" points="261.613363922806,1526.9999974097914 261.52243210829556,1753.0000025902086" stroke="black" stroke-width="2" /><polyline fill="none" points="261.62623922263833,1527.0 261.62623922263833,1640.0 381.50955680846323,1640.0 381.50955680846323,1753.0" stroke="black" stroke-width="2" /><path d="M 153.69700462405638,1814.588276660566 C 137.82667657595164,1899.5843705620366 177.64379634344004,1996.2510372287031 248.7734682953353,2045.411723339434" fill="none" stroke="black" stroke-width="2" /><path d="M 261.449017253627,1816.9999427337348 C 217.82667657595164,1881.5843705620366 217.64379634344004,1978.2510372287031 261.0214556657647,2043.0000572662652" fill="none" stroke="black" stroke-width="2" /><path d="M 369.22658566031373,1814.548749885126 C 297.82667657595164,1863.5843705620366 257.64379634344004,1960.2510372287031 273.24388725907795,2045.451250114874" fill="none" stroke="black" stroke-width="2" /><polyline fill="none" points="260.96091611092845,2107.0 260.96091611092845,2220.0 140.0,2220.0 140.0,2333.0" stroke="black" stroke-width="2" /><polyline fill="none" points="260.8548845704181,2106.9998243325244 260.10603154051034,2333.0001756674756" stroke="black" stroke-width="2" /><polyline fill="none" points="260.96091611092845,2107.0 260.96091611092845,2220.0 380.0,2220.0 380.0,2333.0" stroke="black" stroke-width="2" /><path d="M 152.15145843244125,2394.603075143719 C 136.1796946296945,2479.522529250029 175.859389259389,2576.189195916696 243.8497608485319,2617.996156070352" fill="none" stroke="black" stroke-width="2" /><path d="M 259.89396845949096,2396.9998243325244 C 216.1796946296945,2461.522529250029 215.859389259389,2558.189195916696 259.1716233147198,2615.0002195843444" fill="none" stroke="black" stroke-width="2" /><path d="M 367.6812374801694,2394.533846515143 C 296.1796946296945,2443.522529250029 255.859389259389,2540.189195916696 274.43753703887177,2618.0826918560715" fill="none" stroke="black" stroke-width="2" /><line stroke="black" stroke-width="2" x1="258.8623997188423" x2="257.89945849455927" y1="2694.9996097818967" y2="2913.000312174483" /><line stroke="black" stroke-width="2" x1="257.663235328611" x2="257.0168899593089" y1="2976.9998593524556" y2="3195.000175809431" /><text fill="black" font-family="Arial, sans-serif" font-size="14px" text-anchor="middle" x="314.17147386167244" y="35.0">archivo.svg</text><text fill="black" font-family="Arial, sans-serif" font-size="14px" text-anchor="middle" x="314.17147386167244" y="53.0">(input)</text><text fill="black" font-family="Arial, sans-serif" font-size="14px" text-anchor="middle" x="314.17147386167244" y="325.0">SVG Parser</text><text fill="black" font-family="Arial, sans-serif" font-size="14px" text-anchor="middle" x="314.17147386167244" y="343.0">(Fase 1)</text><text fill="black" font-family="Arial, sans-serif" font-size="14px" text-anchor="middle" x="144.8245493757446" y="615.0">Extraer Elementos</text><text fill="black" font-family="Arial, sans-serif" font-size="14px" text-anchor="middle" x="144.8245493757446" y="633.0">&lt;path&gt; &lt;rect&gt;</text><text fill="black" font-family="Arial, sans-serif" font-size="14px" text-anchor="middle" x="144.8245493757446" y="651.0">&lt;circle&gt; etc.</text><text fill="black" font-family="Arial, sans-serif" font-size="14px" text-anchor="middle" x="374.8245493757446" y="615.0">Extraer Atributos</text><text fill="black" font-family="Arial, sans-serif" font-size="14px" text-anchor="middle" x="374.8245493757446" y="633.0">fill, stroke</text><text fill="black" font-family="Arial, sans-serif" font-size="14px" text-anchor="middle" x="374.8245493757446" y="651.0">transform</text><text fill="black" font-family="Arial, sans-serif" font-size="14px" text-anchor="middle" x="315.62700274966005" y="905.0">Normalizer</text><text fill="black" font-family="Arial, sans-serif" font-size="14px" text-anchor="middle" x="315.62700274966005" y="923.0">(Fase 2)</text><text fill="black" font-family="Arial, sans-serif" font-size="14px" text-anchor="middle" x="86.299709790527" y="1195.0">Calcular</text><text fill="black" font-family="Arial, sans-serif" font-size="14px" text-anchor="middle" x="86.299709790527" y="1213.0">Bounding Box</text><text fill="black" font-family="Arial, sans-serif" font-size="14px" text-anchor="middle" x="261.299709790527" y="1240.0">Calcular Escala</text><text fill="black" font-family="Arial, sans-serif" font-size="14px" text-anchor="middle" x="261.299709790527" y="1258.0">ICON_WIDTH/HEIGHT</text><text fill="black" font-family="Arial, sans-serif" font-size="14px" text-anchor="middle" x="436.299709790527" y="1195.0">Normalizar</text><text fill="black" font-family="Arial, sans-serif" font-size="14px" text-anchor="middle" x="436.299709790527" y="1213.0">Coordenadas</text><text fill="black" font-family="Arial, sans-serif" font-size="14px" text-anchor="middle" x="436.299709790527" y="1231.0">(0,0 origin)</text><text fill="black" font-family="Arial, sans-serif" font-size="14px" text-anchor="middle" x="316.62623922263833" y="1485.0">Simplifier</text><text fill="black" font-family="Arial, sans-serif" font-size="14px" text-anchor="middle" x="316.62623922263833" y="1503.0">(Fase 3)</text><text fill="black" font-family="Arial, sans-serif" font-size="14px" text-anchor="middle" x="316.62623922263833" y="1521.0">Opcional</text><text fill="black" font-family="Arial, sans-serif" font-size="14px" text-anchor="middle" x="86.50955680846323" y="1775.0">Combinar</text><text fill="black" font-family="Arial, sans-serif" font-size="14px" text-anchor="middle" x="86.50955680846323" y="1793.0">Paths Similares</text><text fill="black" font-family="Arial, sans-serif" font-size="14px" text-anchor="middle" x="261.50955680846323" y="1820.0">Eliminar</text><text fill="black" font-family="Arial, sans-serif" font-size="14px" text-anchor="middle" x="261.50955680846323" y="1838.0">Invisibles</text><text fill="black" font-family="Arial, sans-serif" font-size="14px" text-anchor="middle" x="261.50955680846323" y="1856.0">opacity=0</text><text fill="black" font-family="Arial, sans-serif" font-size="14px" text-anchor="middle" x="436.50955680846323" y="1775.0">Optimizar</text><text fill="black" font-family="Arial, sans-serif" font-size="14px" text-anchor="middle" x="436.50955680846323" y="1793.0">Path Data</text><text fill="black" font-family="Arial, sans-serif" font-size="14px" text-anchor="middle" x="436.50955680846323" y="1811.0">Reducir decimales</text><text fill="black" font-family="Arial, sans-serif" font-size="14px" text-anchor="middle" x="315.96091611092845" y="2065.0">Code Generator</text><text fill="black" font-family="Arial, sans-serif" font-size="14px" text-anchor="middle" x="315.96091611092845" y="2083.0">(Fase 4)</text><text fill="black" font-family="Arial, sans-serif" font-size="14px" text-anchor="middle" x="85.0" y="2355.0">Crear Función</text><text fill="black" font-family="Arial, sans-serif" font-size="14px" text-anchor="middle" x="85.0" y="2373.0">draw_&lt;nombre&gt;()</text><text fill="black" font-family="Arial, sans-serif" font-size="14px" text-anchor="middle" x="260.0" y="2400.0">Generar</text><text fill="black" font-family="Arial, sans-serif" font-size="14px" text-anchor="middle" x="260.0" y="2418.0">dwg.add()</text><text fill="black" font-family="Arial, sans-serif" font-size="14px" text-anchor="middle" x="260.0" y="2436.0">para cada elemento</text><text fill="black" font-family="Arial, sans-serif" font-size="14px" text-anchor="middle" x="435.0" y="2355.0">Formatear</text><text fill="black" font-family="Arial, sans-serif" font-size="14px" text-anchor="middle" x="435.0" y="2373.0">Código PEP8</text><text fill="black" font-family="Arial, sans-serif" font-size="14px" text-anchor="middle" x="314.0390838890835" y="2645.0">draw_&lt;nombre&gt;.py</text><text fill="black" font-family="Arial, sans-serif" font-size="14px" text-anchor="middle" x="314.0390838890835" y="2663.0">(output)</text><text fill="black" font-family="Arial, sans-serif" font-size="14px" text-anchor="middle" x="312.7581111583663" y="2935.0">Registrar en</text><text fill="black" font-family="Arial, sans-serif" font-size="14px" text-anchor="middle" x="312.7581111583663" y="2953.0">ICON_TYPES</text><text fill="black" font-family="Arial, sans-serif" font-size="14px" text-anchor="middle" x="312.7581111583663" y="2971.0">(opcional)</text><text fill="black" font-family="Arial, sans-serif" font-size="14px" text-anchor="middle" x="256.8982951721148" y="3270.0">Ícono Listo</text><text fill="black" font-family="Arial, sans-serif" font-size="14px" text-anchor="middle" x="256.8982951721148" y="3288.0">para Usar en .gag</text><text fill="gray" font-family="Arial, sans-serif" font-size="12px" text-anchor="end" x="208.37147386167243" y="194.0">lee SVG</text><text fill="gray" font-family="Arial, sans-serif" font-size="12px" text-anchor="end" x="178.6980116187085" y="480.0">parsea XML</text><text fill="gray" font-family="Arial, sans-serif" font-size="12px" text-anchor="start" x="340.29801161870853" y="480.0">extrae</text><text fill="gray" font-family="Arial, sans-serif" font-size="12px" text-anchor="end" x="150.16335627009352" y="1060.0">procesa</text><text fill="gray" font-family="Arial, sans-serif" font-size="12px" text-anchor="end" x="150.76789801555077" y="1640.0">optimiza</text><text fill="gray" font-family="Arial, sans-serif" font-size="12px" text-anchor="end" x="149.68045805546421" y="2220.0">genera</text><text fill="gray" font-family="Arial, sans-serif" font-size="12px" text-anchor="end" x="207.5809291067008" y="2803.99996097819">registro
opcional</text><text fill="gray" font-family="Arial, sans-serif" font-size="12px" text-anchor="end" x="206.54006264395997" y="3086.000017580943">disponible</text></svg>