<?xml version="1.0" encoding="utf-8" ?>
<svg baseProfile="full" height="3510.0" version="1.1" viewBox="0,0,1390.0,3510.0" width="1390.0" xmlns="http://www.w3.org/2000/svg" xmlns:ev="http://www.w3.org/2001/xml-events" xmlns:xlink="http://www.w3.org/1999/xlink"><defs><marker id="arrow-end" markerHeight="10" markerWidth="10" orient="auto" refX="10" refY="5"><path d="M 0 0 L 10 5 L 0 10 z" fill="black" /></marker><marker id="arrow-start" markerHeight="10" markerWidth="10" orient="auto" refX="0" refY="5"><path d="M 10 0 L 0 5 L 10 10 z" fill="black" /></marker><marker id="circle-start" markerHeight="10" markerWidth="10" orient="auto" refX="5" refY="5"><circle cx="5" cy="5" fill="black" r="4" /></marker><marker id="circle-end" markerHeight="10" markerWidth="10" orient="auto" refX="5" refY="5"><circle cx="5" cy="5" fill="black" r="4" /></marker><marker id="arrow-end-c0" markerHeight="10" markerWidth="10" orient="auto" refX="10" refY="5"><path d="M 0 0 L 10 5 L 0 10 z" fill="#c32222" /></marker><marker id="arrow-start-c0" markerHeight="10" markerWidth="10" orient="auto" refX="0" refY="5"><path d="M 10 0 L 0 5 L 10 10 z" fill="#c32222" /></marker><marker id="circle-start-c0" markerHeight="10" markerWidth="10" orient="auto" refX="5" refY="5"><circle cx="5" cy="5" fill="#c32222" r="4" /></marker><marker id="circle-end-c0" markerHeight="10" markerWidth="10" orient="auto" refX="5" refY="5"><circle cx="5" cy="5" fill="#c32222" r="4" /></marker><marker id="arrow-end-c1" markerHeight="10" markerWidth="10" orient="auto" refX="10" refY="5"><path d="M 0 0 L 10 5 L 0 10 z" fill="#c34822" /></marker><marker id="arrow-start-c1" markerHeight="10" markerWidth="10" orient="auto" refX="0" refY="5"><path d="M 10 0 L 0 5 L 10 10 z" fill="#c34822" /></marker><marker id="circle-start-c1" markerHeight="10" markerWidth="10" orient="auto" refX="5" refY="5"><circle cx="5" cy="5" fill="#c34822" r="4" /></marker><marker id="circle-end-c1" markerHeight="10" markerWidth="10" orient="auto" refX="5" refY="5"><circle cx="5" cy="5" fill="#c34822" r="4" /></marker><marker id="arrow-end-c2" markerHeight="10" markerWidth="10" orient="auto" refX="10" refY="5"><path d="M 0 0 L 10 5 L 0 10 z" fill="#c36f22" /></marker><marker id="arrow-start-c2" markerHeight="10" markerWidth="10" orient="auto" refX="0" refY="5"><path d="M 10 0 L 0 5 L 10 10 z" fill="#c36f22" /></marker><marker id="circle-start-c2" markerHeight="10" markerWidth="10" orient="auto" refX="5" refY="5"><circle cx="5" cy="5" fill="#c36f22" r="4" /></marker><marker id="circle-end-c2" markerHeight="10" markerWidth="10" orient="auto" refX="5" refY="5"><circle cx="5" cy="5" fill="#c36f22" r="4" /></marker><marker id="arrow-end-c3" markerHeight="10" markerWidth="10" orient="auto" refX="10" refY="5"><path d="M 0 0 L 10 5 L 0 10 z" fill="#c39622" /></marker><marker id="arrow-start-c3" markerHeight="10" markerWidth="10" orient="auto" refX="0" refY="5"><path d="M 10 0 L 0 5 L 10 10 z" fill="#c39622" /></marker><marker id="circle-start-c3" markerHeight="10" markerWidth="10" orient="auto" refX="5" refY="5"><circle cx="5" cy="5" fill="#c39622" r="4" /></marker><marker id="circle-end-c3" markerHeight="10" markerWidth="10" orient="auto" refX="5" refY="5"><circle cx="5" cy="5" fill="#c39622" r="4" /></marker><marker id="arrow-end-c4" markerHeight="10" markerWidth="10" orient="auto" refX="10" refY="5"><path d="M 0 0 L 10 5 L 0 10 z" fill="#c3bc22" /></marker><marker id="arrow-start-c4" markerHeight="10" markerWidth="10" orient="auto" refX="0" refY="5"><path d="M 10 0 L 0 5 L 10 10 z" fill="#c3bc22" /></marker><marker id="circle-start-c4" markerHeight="10" markerWidth="10" orient="auto" refX="5" refY="5"><circle cx="5" cy="5" fill="#c3bc22" r="4" /></marker><marker id="circle-end-c4" markerHeight="10" markerWidth="10" orient="auto" refX="5" refY="5"><circle cx="5" cy="5" fill="#c3bc22" r="4" /></marker><marker id="arrow-end-c5" markerHeight="10" markerWidth="10" orient="auto" refX="10" refY="5"><path d="M 0 0 L 10 5 L 0 10 z" fill="#a2c322" /></marker><marker id="arrow-start-c5" markerHeight="10" markerWidth="10" orient="auto" refX="0" refY="5"><path d="M 10 0 L 0 5 L 10 10 z" fill="#a2c322" /></marker><marker id="circle-start-c5" markerHeight="10" markerWidth="10" orient="auto" refX="5" refY="5"><circle cx="5" cy="5" fill="#a2c322" r="4" /></marker><marker id="circle-end-c5" markerHeight="10" markerWidth="10" orient="auto" refX="5" refY="5"><circle cx="5" cy="5" fill="#a2c322" r="4" /></marker><marker id="arrow-end-c6" markerHeight="10" markerWidth="10" orient="auto" refX="10" refY="5"><path d="M 0 0 L 10 5 L 0 10 z" fill="#7cc322" /></marker><marker id="arrow-start-c6" markerHeight="10" markerWidth="10" orient="auto" refX="0" refY="5"><path d="M 10 0 L 0 5 L 10 10 z" fill="#7cc322" /></marker><marker id="circle-start-c6" markerHeight="10" markerWidth="10" orient="auto" refX="5" refY="5"><circle cx="5" cy="5" fill="#7cc322" r="4" /></marker><marker id="circle-end-c6" markerHeight="10" markerWidth="10" orient="auto" refX="5" refY="5"><circle cx="5" cy="5" fill="#7cc322" r="4" /></marker><marker id="arrow-end-c7" markerHeight="10" markerWidth="10" orient="auto" refX="10" refY="5"><path d="M 0 0 L 10 5 L 0 10 z" fill="#55c322" /></marker><marker id="arrow-start-c7" markerHeight="10" markerWidth="10" orient="auto" refX="0" refY="5"><path d="M 10 0 L 0 5 L 10 10 z" fill="#55c322" /></marker><marker id="circle-start-c7" markerHeight="10" markerWidth="10" orient="auto" refX="5" refY="5"><circle cx="5" cy="5" fill="#55c322" r="4" /></marker><marker id="circle-end-c7" markerHeight="10" markerWidth="10" orient="auto" refX="5" refY="5"><circle cx="5" cy="5" fill="#55c322" r="4" /></marker><marker id="arrow-end-c8" markerHeight="10" markerWidth="10" orient="auto" refX="10" refY="5"><path d="M 0 0 L 10 5 L 0 10 z" fill="#2fc322" /></marker><marker id="arrow-start-c8" markerHeight="10" markerWidth="10" orient="auto" refX="0" refY="5"><path d="M 10 0 L 0 5 L 10 10 z" fill="#2fc322" /></marker><marker id="circle-start-c8" markerHeight="10" markerWidth="10" orient="auto" refX="5" refY="5"><circle cx="5" cy="5" fill="#2fc322" r="4" /></marker><marker id="circle-end-c8" markerHeight="10" markerWidth="10" orient="auto" refX="5" refY="5"><circle cx="5" cy="5" fill="#2fc322" r="4" /></marker><marker id="arrow-end-c9" markerHeight="10" markerWidth="10" orient="auto" refX="10" refY="5"><path d="M 0 0 L 10 5 L 0 10 z" fill="#22c33c" /></marker><marker id="arrow-start-c9" markerHeight="10" markerWidth="10" orient="auto" refX="0" refY="5"><path d="M 10 0 L 0 5 L 10 10 z" fill="#22c33c" /></marker><marker id="circle-start-c9" markerHeight="10" markerWidth="10" orient="auto" refX="5" refY="5"><circle cx="5" cy="5" fill="#22c33c" r="4" /></marker><marker id="circle-end-c9" markerHeight="10" markerWidth="10" orient="auto" refX="5" refY="5"><circle cx="5" cy="5" fill="#22c33c" r="4" /></marker><marker id="arrow-end-c10" markerHeight="10" markerWidth="10" orient="auto" refX="10" refY="5"><path d="M 0 0 L 10 5 L 0 10 z" fill="#22c362" /></marker><marker id="arrow-start-c10" markerHeight="10" markerWidth="10" orient="auto" refX="0" refY="5"><path d="M 10 0 L 0 5 L 10 10 z" fill="#22c362" /></marker><marker id="circle-start-c10" markerHeight="10" markerWidth="10" orient="auto" refX="5" refY="5"><circle cx="5" cy="5" fill="#22c362" r="4" /></marker><marker id="circle-end-c10" markerHeight="10" markerWidth="10" orient="auto" refX="5" refY="5"><circle cx="5" cy="5" fill="#22c362" r="4" /></marker><marker id="arrow-end-c11" markerHeight="10" markerWidth="10" orient="auto" refX="10" refY="5"><path d="M 0 0 L 10 5 L 0 10 z" fill="#22c389" /></marker><marker id="arrow-start-c11" markerHeight="10" markerWidth="10" orient="auto" refX="0" refY="5"><path d="M 10 0 L 0 5 L 10 10 z" fill="#22c389" /></marker><marker id="circle-start-c11" markerHeight="10" markerWidth="10" orient="auto" refX="5" refY="5"><circle cx="5" cy="5" fill="#22c389" r="4" /></marker><marker id="circle-end-c11" markerHeight="10" markerWidth="10" orient="auto" refX="5" refY="5"><circle cx="5" cy="5" fill="#22c389" r="4" /></marker><marker id="arrow-end-c12" markerHeight="10" markerWidth="10" orient="auto" refX="10" refY="5"><path d="M 0 0 L 10 5 L 0 10 z" fill="#22c3af" /></marker><marker id="arrow-start-c12" markerHeight="10" markerWidth="10" orient="auto" refX="0" refY="5"><path d="M 10 0 L 0 5 L 10 10 z" fill="#22c3af" /></marker><marker id="circle-start-c12" markerHeight="10" markerWidth="10" orient="auto" refX="5" refY="5"><circle cx="5" cy="5" fill="#22c3af" r="4" /></marker><marker id="circle-end-c12" markerHeight="10" markerWidth="10" orient="auto" refX="5" refY="5"><circle cx="5" cy="5" fill="#22c3af" r="4" /></marker><marker id="arrow-end-c13" markerHeight="10" markerWidth="10" orient="auto" refX="10" refY="5"><path d="M 0 0 L 10 5 L 0 10 z" fill="#22afc3" /></marker><marker id="arrow-start-c13" markerHeight="10" markerWidth="10" orient="auto" refX="0" refY="5"><path d="M 10 0 L 0 5 L 10 10 z" fill="#22afc3" /></marker><marker id="circle-start-c13" markerHeight="10" markerWidth="10" orient="auto" refX="5" refY="5"><circle cx="5" cy="5" fill="#22afc3" r="4" /></marker><marker id="circle-end-c13" markerHeight="10" markerWidth="10" orient="auto" refX="5" refY="5"><circle cx="5" cy="5" fill="#22afc3" r="4" /></marker><marker id="arrow-end-c14" markerHeight="10" markerWidth="10" orient="auto" refX="10" refY="5"><path d="M 0 0 L 10 5 L 0 10 z" fill="#2289c3" /></marker><marker id="arrow-start-c14" markerHeight="10" markerWidth="10" orient="auto" refX="0" refY="5"><path d="M 10 0 L 0 5 L 10 10 z" fill="#2289c3" /></marker><marker id="circle-start-c14" markerHeight="10" markerWidth="10" orient="auto" refX="5" refY="5"><circle cx="5" cy="5" fill="#2289c3" r="4" /></marker><marker id="circle-end-c14" markerHeight="10" markerWidth="10" orient="auto" refX="5" refY="5"><circle cx="5" cy="5" fill="#2289c3" r="4" /></marker><marker id="arrow-end-c15" markerHeight="10" markerWidth="10" orient="auto" refX="10" refY="5"><path d="M 0 0 L 10 5 L 0 10 z" fill="#2262c3" /></marker><marker id="arrow-start-c15" markerHeight="10" markerWidth="10" orient="auto" refX="0" refY="5"><path d="M 10 0 L 0 5 L 10 10 z" fill="#2262c3" /></marker><marker id="circle-start-c15" markerHeight="10" markerWidth="10" orient="auto" refX="5" refY="5"><circle cx="5" cy="5" fill="#2262c3" r="4" /></marker><marker id="circle-end-c15" markerHeight="10" markerWidth="10" orient="auto" refX="5" refY="5"><circle cx="5" cy="5" fill="#2262c3" r="4" /></marker><marker id="arrow-end-c16" markerHeight="10" markerWidth="10" orient="auto" refX="10" refY="5"><path d="M 0 0 L 10 5 L 0 10 z" fill="#223cc3" /></marker><marker id="arrow-start-c16" markerHeight="10" markerWidth="10" orient="auto" refX="0" refY="5"><path d="M 10 0 L 0 5 L 10 10 z" fill="#223cc3" /></marker><marker id="circle-start-c16" markerHeight="10" markerWidth="10" orient="auto" refX="5" refY="5"><circle cx="5" cy="5" fill="#223cc3" r="4" /></marker><marker id="circle-end-c16" markerHeight="10" markerWidth="10" orient="auto" refX="5" refY="5"><circle cx="5" cy="5" fill="#223cc3" r="4" /></marker><marker id="arrow-end-c17" markerHeight="10" markerWidth="10" orient="auto" refX="10" refY="5"><path d="M 0 0 L 10 5 L 0 10 z" fill="#2f22c3" /></marker><marker id="arrow-start-c17" markerHeight="10" markerWidth="10" orient="auto" refX="0" refY="5"><path d="M 10 0 L 0 5 L 10 10 z" fill="#2f22c3" /></marker><marker id="circle-start-c17" markerHeight="10" markerWidth="10" orient="auto" refX="5" refY="5"><circle cx="5" cy="5" fill="#2f22c3" r="4" /></marker><marker id="circle-end-c17" markerHeight="10" markerWidth="10" orient="auto" refX="5" refY="5"><circle cx="5" cy="5" fill="#2f22c3" r="4" /></marker><marker id="arrow-end-c18" markerHeight="10" markerWidth="10" orient="auto" refX="10" refY="5"><path d="M 0 0 L 10 5 L 0 10 z" fill="#5522c3" /></marker><marker id="arrow-start-c18" markerHeight="10" markerWidth="10" orient="auto" refX="0" refY="5"><path d="M 10 0 L 0 5 L 10 10 z" fill="#5522c3" /></marker><marker id="circle-start-c18" markerHeight="10" markerWidth="10" orient="auto" refX="5" refY="5"><circle cx="5" cy="5" fill="#5522c3" r="4" /></marker><marker id="circle-end-c18" markerHeight="10" markerWidth="10" orient="auto" refX="5" refY="5"><circle cx="5" cy="5" fill="#5522c3" r="4" /></marker><marker id="arrow-end-c19" markerHeight="10" markerWidth="10" orient="auto" refX="10" refY="5"><path d="M 0 0 L 10 5 L 0 10 z" fill="#7c22c3" /></marker><marker id="arrow-start-c19" markerHeight="10" markerWidth="10" orient="auto" refX="0" refY="5"><path d="M 10 0 L 0 5 L 10 10 z" fill="#7c22c3" /></marker><marker id="circle-start-c19" markerHeight="10" markerWidth="10" orient="auto" refX="5" refY="5"><circle cx="5" cy="5" fill="#7c22c3" r="4" /></marker><marker id="circle-end-c19" markerHeight="10" markerWidth="10" orient="auto" refX="5" refY="5"><circle cx="5" cy="5" fill="#7c22c3" r="4" /></marker><marker id="arrow-end-c20" markerHeight="10" markerWidth="10" orient="auto" refX="10" refY="5"><path d="M 0 0 L 10 5 L 0 10 z" fill="#a222c3" /></marker><marker id="arrow-start-c20" markerHeight="10" markerWidth="10" orient="auto" refX="0" refY="5"><path d="M 10 0 L 0 5 L 10 10 z" fill="#a222c3" /></marker><marker id="circle-start-c20" markerHeight="10" markerWidth="10" orient="auto" refX="5" refY="5"><circle cx="5" cy="5" fill="#a222c3" r="4" /></marker><marker id="circle-end-c20" markerHeight="10" markerWidth="10" orient="auto" refX="5" refY="5"><circle cx="5" cy="5" fill="#a222c3" r="4" /></marker><marker id="arrow-end-c21" markerHeight="10" markerWidth="10" orient="auto" refX="10" refY="5"><path d="M 0 0 L 10 5 L 0 10 z" fill="#c322bc" /></marker><marker id="arrow-start-c21" markerHeight="10" markerWidth="10" orient="auto" refX="0" refY="5"><path d="M 10 0 L 0 5 L 10 10 z" fill="#c322bc" /></marker><marker id="circle-start-c21" markerHeight="10" markerWidth="10" orient="auto" refX="5" refY="5"><circle cx="5" cy="5" fill="#c322bc" r="4" /></marker><marker id="circle-end-c21" markerHeight="10" markerWidth="10" orient="auto" refX="5" refY="5"><circle cx="5" cy="5" fill="#c322bc" r="4" /></marker><marker id="arrow-end-c22" markerHeight="10" markerWidth="10" orient="auto" refX="10" refY="5"><path d="M 0 0 L 10 5 L 0 10 z" fill="#c32296" /></marker><marker id="arrow-start-c22" markerHeight="10" markerWidth="10" orient="auto" refX="0" refY="5"><path d="M 10 0 L 0 5 L 10 10 z" fill="#c32296" /></marker><marker id="circle-start-c22" markerHeight="10" markerWidth="10" orient="auto" refX="5" refY="5"><circle cx="5" cy="5" fill="#c32296" r="4" /></marker><marker id="circle-end-c22" markerHeight="10" markerWidth="10" orient="auto" refX="5" refY="5"><circle cx="5" cy="5" fill="#c32296" r="4" /></marker><marker id="arrow-end-c23" markerHeight="10" markerWidth="10" orient="auto" refX="10" refY="5"><path d="M 0 0 L 10 5 L 0 10 z" fill="#c3226f" /></marker><marker id="arrow-start-c23" markerHeight="10" markerWidth="10" orient="auto" refX="0" refY="5"><path d="M 10 0 L 0 5 L 10 10 z" fill="#c3226f" /></marker><marker id="circle-start-c23" markerHeight="10" markerWidth="10" orient="auto" refX="5" refY="5"><circle cx="5" cy="5" fill="#c3226f" r="4" /></marker><marker id="circle-end-c23" markerHeight="10" markerWidth="10" orient="auto" refX="5" refY="5"><circle cx="5" cy="5" fill="#c3226f" r="4" /></marker><marker id="arrow-end-c24" markerHeight="10" markerWidth="10" orient="auto" refX="10" refY="5"><path d="M 0 0 L 10 5 L 0 10 z" fill="#c32248" /></marker><marker id="arrow-start-c24" markerHeight="10" markerWidth="10" orient="auto" refX="0" refY="5"><path d="M 10 0 L 0 5 L 10 10 z" fill="#c32248" /></marker><marker id="circle-start-c24" markerHeight="10" markerWidth="10" orient="auto" refX="5" refY="5"><circle cx="5" cy="5" fill="#c32248" r="4" /></marker><marker id="circle-end-c24" markerHeight="10" markerWidth="10" orient="auto" refX="5" refY="5"><circle cx="5" cy="5" fill="#c32248" r="4" /></marker><linearGradient id="gradient-input_svg" x1="0%" x2="0%" y1="0%" y2="100%"><stop offset="0%" stop-color="#a6a6a6" /><stop offset="100%" stop-color="#595959" /></linearGradient><linearGradient id="gradient-parser" x1="0%" x2="0%" y1="0%" y2="100%"><stop offset="0%" stop-color="#81b8ff" /><stop offset="100%" stop-color="#356bb2" /></linearGradient><linearGradient id="gradient-extract_elements" x1="0%" x2="0%" y1="0%" y2="100%"><stop offset="0%" stop-color="#81b8ff" /><stop offset="100%" stop-color="#356bb2" /></linearGradient><linearGradient id="gradient-extract_attrs" x1="0%" x2="0%" y1="0%" y2="100%"><stop offset="0%" stop-color="#81b8ff" /><stop offset="100%" stop-color="#356bb2" /></linearGradient><linearGradient id="gradient-normalizer" x1="0%" x2="0%" y1="0%" y2="100%"><stop offset="0%" stop-color="#ffc081" /><stop offset="100%" stop-color="#b27435" /></linearGradient><linearGradient id="gradient-calc_bbox" x1="0%" x2="0%" y1="0%" y2="100%"><stop offset="0%" stop-color="#ffc081" /><stop offset="100%" stop-color="#b27435" /></linearGradient><linearGradient id="gradient-calc_scale" x1="0%" x2="0%" y1="0%" y2="100%"><stop offset="0%" stop-color="#ffc081" /><stop offset="100%" stop-color="#b27435" /></linearGradient><linearGradient id="gradient-normalize_coords" x1="0%" x2="0%" y1="0%" y2="100%"><stop offset="0%" stop-color="#ffc081" /><stop offset="100%" stop-color="#b27435" /></linearGradient><linearGradient id="gradient-simplifier" x1="0%" x2="0%" y1="0%" y2="100%"><stop offset="0%" stop-color="#c081c0" /><stop offset="100%" stop-color="#743574" /></linearGradient><linearGradient id="gradient-combine_paths" x1="0%" x2="0%" y1="0%" y2="100%"><stop offset="0%" stop-color="#c081c0" /><stop offset="100%" stop-color="#743574" /></linearGradient><linearGradient id="gradient-remove_invisible" x1="0%" x2="0%" y1="0%" y2="100%"><stop offset="0%" stop-color="#c081c0" /><stop offset="100%" stop-color="#743574" /></linearGradient><linearGradient id="gradient-optimize_paths" x1="0%" x2="0%" y1="0%" y2="100%"><stop offset="0%" stop-color="#c081c0" /><stop offset="100%" stop-color="#743574" /></linearGradient><linearGradient id="gradient-codegen" x1="0%" x2="0%" y1="0%" y2="100%"><stop offset="0%" stop-color="#c8f6c8" /><stop offset="100%" stop-color="#7baa7b" /></linearGradient><linearGradient id="gradient-create_function" x1="0%" x2="0%" y1="0%" y2="100%"><stop offset="0%" stop-color="#c8f6c8" /><stop offset="100%" stop-color="#7baa7b" /></linearGradient><linearGradient id="gradient-generate_paths" x1="0%" x2="0%" y1="0%" y2="100%"><stop offset="0%" stop-color="#c8f6c8" /><stop offset="100%" stop-color="#7baa7b" /></linearGradient><linearGradient id="gradient-format_code" x1="0%" x2="0%" y1="0%" y2="100%"><stop offset="0%" stop-color="#c8f6c8" /><stop offset="100%" stop-color="#7baa7b" /></linearGradient><linearGradient id="gradient-output_py" x1="0%" x2="0%" y1="0%" y2="100%"><stop offset="0%" stop-color="#a6a6a6" /><stop offset="100%" stop-color="#595959" /></linearGradient><linearGradient id="gradient-register" x1="0%" x2="0%" y1="0%" y2="100%"><stop offset="0%" stop-color="#ffeb81" /><stop offset="100%" stop-color="#b29e35" /></linearGradient><linearGradient id="gradient-ready" x1="0%" x2="0%" y1="0%" y2="100%"><stop offset="0%" stop-color="#c8f6c8" /><stop offset="100%" stop-color="#7baa7b" /></linearGradient></defs><ellipse cx="620.0" cy="45.0" fill="url(#gradient-input_svg)" rx="40.0" ry="25.0" stroke="black" /><rect fill="url(#gradient-parser)" height="50" stroke="black" width="80" x="580.0" y="310.0" /><rect fill="url(#gradient-extract_elements)" height="50" stroke="black" width="80" x="100.0" y="600.0" /><rect fill="url(#gradient-extract_attrs)" height="50" stroke="black" width="80" x="580.0" y="600.0" /><rect fill="url(#gradient-normalizer)" height="50" stroke="black" width="80" x="580.0" y="890.0" /><rect fill="url(#gradient-calc_bbox)" height="50" stroke="black" width="80" x="580.0" y="1180.0" /><rect fill="url(#gradient-calc_scale)" height="50" stroke="black" width="80" x="1060.0" y="1180.0" /><rect fill="url(#gradient-normalize_coords)" height="50" stroke="black" width="80" x="100.0" y="1180.0" /><rect fill="url(#gradient-simplifier)" height="50" stroke="black" width="80" x="580.0" y="1470.0" /><rect fill="url(#gradient-combine_paths)" height="50" stroke="black" width="80" x="580.0" y="1760.0" /><rect fill="url(#gradient-remove_invisible)" height="50" stroke="black" width="80" x="1060.0" y="1760.0" /><rect fill="url(#gradient-optimize_paths)" height="50" stroke="black" width="80" x="100.0" y="1760.0" /><rect fill="url(#gradient-codegen)" height="50" stroke="black" width="80" x="580.0" y="2050.0" /><rect fill="url(#gradient-create_function)" height="50" stroke="black" width="80" x="580.0" y="2340.0" /><rect fill="url(#gradient-generate_paths)" height="50" stroke="black" width="80" x="1060.0" y="2340.0" /><rect fill="url(#gradient-format_code)" height="50" stroke="black" width="80" x="100.0" y="2340.0" /><ellipse cx="620.0" cy="2655.0" fill="url(#gradient-output_py)" rx="40.0" ry="25.0" stroke="black" /><rect fill="url(#gradient-register)" height="50" stroke="black" width="80" x="580.0" y="2920.0" /><ellipse cx="620.0" cy="3235.0" fill="url(#gradient-ready)" rx="40.0" ry="25.0" stroke="black" /><line stroke="#c32222" stroke-width="2" x1="620.0" x2="620.0" y1="85.0" y2="303.0" /><polyline fill="none" points="588.0,335.0 380.0,335.0 380.0,625.0 172.0,625.0" stroke="#c34822" stroke-width="2" /><polyline fill="none" points="620.0,367.0 620.0,593.0" stroke="#c36f22" stroke-width="2" /><path d="M 167.3892973422653,641.5477004776186 C 256.5,793.6666666666666 416.5,890.3333333333334 592.6107026577347,898.4522995223814" fill="none" stroke="#c39622" stroke-width="2" /><path d="M 620.0,657.0 C 576.5,721.6666666666666 576.5,818.3333333333334 620.0,883.0" fill="none" stroke="#c3bc22" stroke-width="2" /><polyline fill="none" points="620.0,947.0 620.0,1173.0" stroke="#a2c322" stroke-width="2" /><polyline fill="none" points="652.0,915.0 860.0,915.0 860.0,1205.0 1068.0,1205.0" stroke="#7cc322" stroke-width="2" /><polyline fill="none" points="588.0,915.0 380.0,915.0 380.0,1205.0 172.0,1205.0" stroke="#55c322" stroke-width="2" /><path d="M 620.0,1237.0 C 576.5,1301.6666666666667 576.5,1398.3333333333333 620.0,1463.0" fill="none" stroke="#2fc322" stroke-width="2" /><path d="M 1072.6107026577347,1221.5477004776187 C 896.5,1229.6666666666667 736.5,1326.3333333333333 647.3892973422653,1478.4522995223813" fill="none" stroke="#22c33c" stroke-width="2" /><path d="M 167.3892973422653,1221.5477004776187 C 256.5,1373.6666666666667 416.5,1470.3333333333333 592.6107026577347,1478.4522995223813" fill="none" stroke="#22c362" stroke-width="2" /><polyline fill="none" points="620.0,1527.0 620.0,1753.0" stroke="#22c389" stroke-width="2" /><polyline fill="none" points="652.0,1495.0 860.0,1495.0 860.0,1785.0 1068.0,1785.0" stroke="#22c3af" stroke-width="2" /><polyline fill="none" points="588.0,1495.0 380.0,1495.0 380.0,1785.0 172.0,1785.0" stroke="#22afc3" stroke-width="2" /><path d="M 620.0,1817.0 C 576.5,1881.6666666666667 576.5,1978.3333333333333 620.0,2043.0" fill="none" stroke="#2289c3" stroke-width="2" /><path d="M 1072.6107026577347,1801.5477004776187 C 896.5,1809.6666666666667 736.5,1906.3333333333333 647.3892973422653,2058.4522995223815" fill="none" stroke="#2262c3" stroke-width="2" /><path d="M 167.3892973422653,1801.5477004776187 C 256.5,1953.6666666666667 416.5,2050.333333333333 592.6107026577347,2058.4522995223815" fill="none" stroke="#223cc3" stroke-width="2" /><polyline fill="none" points="620.0,2107.0 620.0,2333.0" stroke="#2f22c3" stroke-width="2" /><polyline fill="none" points="652.0,2075.0 860.0,2075.0 860.0,2365.0 1068.0,2365.0" stroke="#5522c3" stroke-width="2" /><polyline fill="none" points="588.0,2075.0 380.0,2075.0 380.0,2365.0 172.0,2365.0" stroke="#7c22c3" stroke-width="2" /><path d="M 620.0,2397.0 C 576.5,2461.6666666666665 576.5,2558.3333333333335 620.0,2615.0" fill="none" stroke="#a222c3" stroke-width="2" /><path d="M 1072.6107026577347,2381.5477004776185 C 896.5,2389.6666666666665 736.5,2486.3333333333335 654.2366216778316,2634.315374402977" fill="none" stroke="#c322bc" stroke-width="2" /><path d="M 167.3892973422653,2381.5477004776185 C 256.5,2533.6666666666665 416.5,2630.3333333333335 585.7633783221684,2634.315374402977" fill="none" stroke="#c32296" stroke-width="2" /><line stroke="#c3226f" stroke-width="2" x1="620.0" x2="620.0" y1="2695.0" y2="2913.0" /><line stroke="#c32248" stroke-width="2" x1="620.0" x2="620.0" y1="2977.0" y2="3195.0" /><text fill="black" font-family="Arial, sans-serif" font-size="14px" text-anchor="start" x="672.6" y="45.0">archivo.svg</text><text fill="black" font-family="Arial, sans-serif" font-size="14px" text-anchor="start" x="672.6" y="63.0">(input)</text><text fill="black" font-family="Arial, sans-serif" font-size="14px" text-anchor="start" x="672.6" y="335.0">SVG Parser</text><text fill="black" font-family="Arial, sans-serif" font-size="14px" text-anchor="start" x="672.6" y="353.0">(Fase 1)</text><text fill="black" font-family="Arial, sans-serif" font-size="14px" text-anchor="middle" x="140.0" y="671.0">Extraer Elementos</text><text fill="black" font-family="Arial, sans-serif" font-size="14px" text-anchor="middle" x="140.0" y="689.0">&lt;path&gt; &lt;rect&gt;</text><text fill="black" font-family="Arial, sans-serif" font-size="14px" text-anchor="middle" x="140.0" y="707.0">&lt;circle&gt; etc.</text><text fill="black" font-family="Arial, sans-serif" font-size="14px" text-anchor="start" x="672.6" y="625.0">Extraer Atributos</text><text fill="black" font-family="Arial, sans-serif" font-size="14px" text-anchor="start" x="672.6" y="643.0">fill, stroke</text><text fill="black" font-family="Arial, sans-serif" font-size="14px" text-anchor="start" x="672.6" y="661.0">transform</text><text fill="black" font-family="Arial, sans-serif" font-size="14px" text-anchor="start" x="672.6" y="915.0">Normalizer</text><text fill="black" font-family="Arial, sans-serif" font-size="14px" text-anchor="start" x="672.6" y="933.0">(Fase 2)</text><text fill="black" font-family="Arial, sans-serif" font-size="14px" text-anchor="start" x="672.6" y="1205.0">Calcular</text><text fill="black" font-family="Arial, sans-serif" font-size="14px" text-anchor="start" x="672.6" y="1223.0">Bounding Box</text><text fill="black" font-family="Arial, sans-serif" font-size="14px" text-anchor="start" x="1152.6" y="1205.0">Calcular Escala</text><text fill="black" font-family="Arial, sans-serif" font-size="14px" text-anchor="start" x="1152.6" y="1223.0">ICON_WIDTH/HEIGHT</text><text fill="black" font-family="Arial, sans-serif" font-size="14px" text-anchor="middle" x="140.0" y="1251.0">Normalizar</text><text fill="black" font-family="Arial, sans-serif" font-size="14px" text-anchor="middle" x="140.0" y="1269.0">Coordenadas</text><text fill="black" font-family="Arial, sans-serif" font-size="14px" text-anchor="middle" x="140.0" y="1287.0">(0,0 origin)</text><text fill="black" font-family="Arial, sans-serif" font-size="14px" text-anchor="middle" x="620.0" y="1541.0">Simplifier</text><text fill="black" font-family="Arial, sans-serif" font-size="14px" text-anchor="middle" x="620.0" y="1559.0">(Fase 3)</text><text fill="black" font-family="Arial, sans-serif" font-size="14px" text-anchor="middle" x="620.0" y="1577.0">Opcional</text><text fill="black" font-family="Arial, sans-serif" font-size="14px" text-anchor="start" x="672.6" y="1785.0">Combinar</text><text fill="black" font-family="Arial, sans-serif" font-size="14px" text-anchor="start" x="672.6" y="1803.0">Paths Similares</text><text fill="black" font-family="Arial, sans-serif" font-size="14px" text-anchor="middle" x="1100.0" y="1831.0">Eliminar</text><text fill="black" font-family="Arial, sans-serif" font-size="14px" text-anchor="middle" x="1100.0" y="1849.0">Invisibles</text><text fill="black" font-family="Arial, sans-serif" font-size="14px" text-anchor="middle" x="1100.0" y="1867.0">opacity=0</text><text fill="black" font-family="Arial, sans-serif" font-size="14px" text-anchor="middle" x="140.0" y="1831.0">Optimizar</text><text fill="black" font-family="Arial, sans-serif" font-size="14px" text-anchor="middle" x="140.0" y="1849.0">Path Data</text><text fill="black" font-family="Arial, sans-serif" font-size="14px" text-anchor="middle" x="140.0" y="1867.0">Reducir decimales</text><text fill="black" font-family="Arial, sans-serif" font-size="14px" text-anchor="start" x="672.6" y="2075.0">Code Generator</text><text fill="black" font-family="Arial, sans-serif" font-size="14px" text-anchor="start" x="672.6" y="2093.0">(Fase 4)</text><text fill="black" font-family="Arial, sans-serif" font-size="14px" text-anchor="start" x="672.6" y="2365.0">Crear Función</text><text fill="black" font-family="Arial, sans-serif" font-size="14px" text-anchor="start" x="672.6" y="2383.0">draw_&lt;nombre&gt;()</text><text fill="black" font-family="Arial, sans-serif" font-size="14px" text-anchor="start" x="1152.6" y="2365.0">Generar</text><text fill="black" font-family="Arial, sans-serif" font-size="14px" text-anchor="start" x="1152.6" y="2383.0">dwg.add()</text><text fill="black" font-family="Arial, sans-serif" font-size="14px" text-anchor="start" x="1152.6" y="2401.0">para cada elemento</text><text fill="black" font-family="Arial, sans-serif" font-size="14px" text-anchor="middle" x="140.0" y="2411.0">Formatear</text><text fill="black" font-family="Arial, sans-serif" font-size="14px" text-anchor="middle" x="140.0" y="2429.0">Código PEP8</text><text fill="black" font-family="Arial, sans-serif" font-size="14px" text-anchor="start" x="672.6" y="2655.0">draw_&lt;nombre&gt;.py</text><text fill="black" font-family="Arial, sans-serif" font-size="14px" text-anchor="start" x="672.6" y="2673.0">(output)</text><text fill="black" font-family="Arial, sans-serif" font-size="14px" text-anchor="start" x="672.6" y="2945.0">Registrar en</text><text fill="black" font-family="Arial, sans-serif" font-size="14px" text-anchor="start" x="672.6" y="2963.0">ICON_TYPES</text><text fill="black" font-family="Arial, sans-serif" font-size="14px" text-anchor="start" x="672.6" y="2981.0">(opcional)</text><text fill="black" font-family="Arial, sans-serif" font-size="14px" text-anchor="middle" x="620.0" y="3281.0">Ícono Listo</text><text fill="black" font-family="Arial, sans-serif" font-size="14px" text-anchor="middle" x="620.0" y="3299.0">para Usar en .gag</text><text fill="gray" font-family="Arial, sans-serif" font-size="12px" text-anchor="end" x="569.2" y="194.0">lee SVG</text><text fill="gray" font-family="Arial, sans-serif" font-size="12px" text-anchor="middle" x="380.0" y="437.0">parsea XML</text><text fill="gray" font-family="Arial, sans-serif" font-size="12px" text-anchor="end" x="569.2" y="480.0">extrae</text><text fill="gray" font-family="Arial, sans-serif" font-size="12px" text-anchor="end" x="569.2" y="1060.0">procesa</text><text fill="gray" font-family="Arial, sans-serif" font-size="12px" text-anchor="end" x="569.2" y="1640.0">optimiza</text><text fill="gray" font-family="Arial, sans-serif" font-size="12px" text-anchor="end" x="569.2" y="2220.0">genera</text><text fill="gray" font-family="Arial, sans-serif" font-size="12px" text-anchor="end" x="569.2" y="2804.0">registro
opcional</text><text fill="gray" font-family="Arial, sans-serif" font-size="12px" text-anchor="end" x="569.2" y="3086.0">disponible</text></svg>