<?xml version="1.0" encoding="utf-8" ?>
<svg baseProfile="full" height="1920" version="1.1" viewBox="0,0,1400,1920" width="1400" xmlns="http://www.w3.org/2000/svg" xmlns:ev="http://www.w3.org/2001/xml-events" xmlns:xlink="http://www.w3.org/1999/xlink"><defs><marker id="arrow-end" markerHeight="10" markerWidth="10" orient="auto" refX="10" refY="5"><path d="M 0 0 L 10 5 L 0 10 z" fill="black" /></marker><marker id="arrow-start" markerHeight="10" markerWidth="10" orient="auto" refX="0" refY="5"><path d="M 10 0 L 0 5 L 10 10 z" fill="black" /></marker><linearGradient id="gradient-input_svg" x1="0%" x2="0%" y1="0%" y2="100%"><stop offset="0%" stop-color="#a6a6a6" /><stop offset="100%" stop-color="#595959" /></linearGradient><linearGradient id="gradient-parser" x1="0%" x2="0%" y1="0%" y2="100%"><stop offset="0%" stop-color="#81b8ff" /><stop offset="100%" stop-color="#356bb2" /></linearGradient><linearGradient id="gradient-extract_elements" x1="0%" x2="0%" y1="0%" y2="100%"><stop offset="0%" stop-color="#81b8ff" /><stop offset="100%" stop-color="#356bb2" /></linearGradient><linearGradient id="gradient-extract_attrs" x1="0%" x2="0%" y1="0%" y2="100%"><stop offset="0%" stop-color="#81b8ff" /><stop offset="100%" stop-color="#356bb2" /></linearGradient><linearGradient id="gradient-normalizer" x1="0%" x2="0%" y1="0%" y2="100%"><stop offset="0%" stop-color="#ffc081" /><stop offset="100%" stop-color="#b27435" /></linearGradient><linearGradient id="gradient-calc_bbox" x1="0%" x2="0%" y1="0%" y2="100%"><stop offset="0%" stop-color="#ffc081" /><stop offset="100%" stop-color="#b27435" /></linearGradient><linearGradient id="gradient-calc_scale" x1="0%" x2="0%" y1="0%" y2="100%"><stop offset="0%" stop-color="#ffc081" /><stop offset="100%" stop-color="#b27435" /></linearGradient><linearGradient id="gradient-normalize_coords" x1="0%" x2="0%" y1="0%" y2="100%"><stop offset="0%" stop-color="#ffc081" /><stop offset="100%" stop-color="#b27435" /></linearGradient><linearGradient id="gradient-simplifier" x1="0%" x2="0%" y1="0%" y2="100%"><stop offset="0%" stop-color="#c081c0" /><stop offset="100%" stop-color="#743574" /></linearGradient><linearGradient id="gradient-combine_paths" x1="0%" x2="0%" y1="0%" y2="100%"><stop offset="0%" stop-color="#c081c0" /><stop offset="100%" stop-color="#743574" /></linearGradient><linearGradient id="gradient-remove_invisible" x1="0%" x2="0%" y1="0%" y2="100%"><stop offset="0%" stop-color="#c081c0" /><stop offset="100%" stop-color="#743574" /></linearGradient><linearGradient id="gradient-optimize_paths" x1="0%" x2="0%" y1="0%" y2="100%"><stop offset="0%" stop-color="#c081c0" /><stop offset="100%" stop-color="#743574" /></linearGradient><linearGradient id="gradient-codegen" x1="0%" x2="0%" y1="0%" y2="100%"><stop offset="0%" stop-color="#c8f6c8" /><stop offset="100%" stop-color="#7baa7b" /></linearGradient><linearGradient id="gradient-create_function" x1="0%" x2="0%" y1="0%" y2="100%"><stop offset="0%" stop-color="#c8f6c8" /><stop offset="100%" stop-color="#7baa7b" /></linearGradient><linearGradient id="gradient-generate_paths" x1="0%" x2="0%" y1="0%" y2="100%"><stop offset="0%" stop-color="#c8f6c8" /><stop offset="100%" stop-color="#7baa7b" /></linearGradient><linearGradient id="gradient-format_code" x1="0%" x2="0%" y1="0%" y2="100%"><stop offset="0%" stop-color="#c8f6c8" /><stop offset="100%" stop-color="#7baa7b" /></linearGradient><linearGradient id="gradient-output_py" x1="0%" x2="0%" y1="0%" y2="100%"><stop offset="0%" stop-color="#a6a6a6" /><stop offset="100%" stop-color="#595959" /></linearGradient><linearGradient id="gradient-register" x1="0%" x2="0%" y1="0%" y2="100%"><stop offset="0%" stop-color="#ffeb81" /><stop offset="100%" stop-color="#b29e35" /></linearGradient><linearGradient id="gradient-ready" x1="0%" x2="0%" y1="0%" y2="100%"><stop offset="0%" stop-color="#c8f6c8" /><stop offset="100%" stop-color="#7baa7b" /></linearGradient></defs><ellipse cx="740.0" cy="125.0" fill="url(#gradient-input_svg)" rx="40.0" ry="25.0" stroke="black" /><rect fill="url(#gradient-parser)" height="50" stroke="black" width="80" x="700.0" y="250" /><rect fill="url(#gradient-extract_elements)" height="50" stroke="black" width="80" x="640.0" y="400" /><rect fill="url(#gradient-extract_attrs)" height="50" stroke="black" width="80" x="760.0" y="400" /><rect fill="url(#gradient-normalizer)" height="50" stroke="black" width="80" x="700.0" y="550" /><rect fill="url(#gradient-calc_bbox)" height="50" stroke="black" width="80" x="580.0" y="700" /><rect fill="url(#gradient-calc_scale)" height="50" stroke="black" width="80" x="700.0" y="700" /><rect fill="url(#gradient-normalize_coords)" height="50" stroke="black" width="80" x="820.0" y="700" /><rect fill="url(#gradient-simplifier)" height="50" stroke="black" width="80" x="700.0" y="850" /><rect fill="url(#gradient-combine_paths)" height="50" stroke="black" width="80" x="580.0" y="1000" /><rect fill="url(#gradient-remove_invisible)" height="50" stroke="black" width="80" x="700.0" y="1000" /><rect fill="url(#gradient-optimize_paths)" height="50" stroke="black" width="80" x="820.0" y="1000" /><rect fill="url(#gradient-codegen)" height="50" stroke="black" width="80" x="700.0" y="1150" /><rect fill="url(#gradient-create_function)" height="50" stroke="black" width="80" x="580.0" y="1300" /><rect fill="url(#gradient-generate_paths)" height="50" stroke="black" width="80" x="700.0" y="1300" /><rect fill="url(#gradient-format_code)" height="50" stroke="black" width="80" x="820.0" y="1300" /><ellipse cx="740.0" cy="1475.0" fill="url(#gradient-output_py)" rx="40.0" ry="25.0" stroke="black" /><rect fill="url(#gradient-register)" height="50" stroke="black" width="80" x="700.0" y="1600" /><ellipse cx="740.0" cy="1775.0" fill="url(#gradient-ready)" rx="40.0" ry="25.0" stroke="black" /><line stroke="black" stroke-width="2" x1="740.0" x2="740.0" y1="165.0" y2="243.0" /><polyline fill="none" points="740.0,307.0 740.0,350.0 680.0,350.0 680.0,393.0" stroke="black" stroke-width="2" /><polyline fill="none" points="740.0,307.0 740.0,350.0 800.0,350.0 800.0,393.0" stroke="black" stroke-width="2" /><path d="M 691.8845016433313,454.7112541083283 C 677.5,484.0 697.5,534.0 728.1154983566687,545.2887458916717" fill="none" stroke="black" stroke-width="2" /><path d="M 788.1154983566687,454.7112541083283 C 757.5,466.0 737.5,516.0 751.8845016433313,545.2887458916717" fill="none" stroke="black" stroke-width="2" /><polyline fill="none" points="740.0,607.0 740.0,650.0 620.0,650.0 620.0,693.0" stroke="black" stroke-width="2" /><polyline fill="none" points="740.0,607.0 740.0,693.0" stroke="black" stroke-width="2" /><polyline fill="none" points="740.0,607.0 740.0,650.0 860.0,650.0 860.0,693.0" stroke="black" stroke-width="2" /><path d="M 639.9902415217416,749.987801902177 C 637.5,793.0 677.5,843.0 720.0097584782584,850.012198097823" fill="none" stroke="black" stroke-width="2" /><path d="M 740.0,757.0 C 717.5,775.0 717.5,825.0 740.0,843.0" fill="none" stroke="black" stroke-width="2" /><path d="M 840.0097584782584,749.987801902177 C 797.5,757.0 757.5,807.0 759.9902415217416,850.012198097823" fill="none" stroke="black" stroke-width="2" /><polyline fill="none" points="740.0,907.0 740.0,950.0 620.0,950.0 620.0,993.0" stroke="black" stroke-width="2" /><polyline fill="none" points="740.0,907.0 740.0,993.0" stroke="black" stroke-width="2" /><polyline fill="none" points="740.0,907.0 740.0,950.0 860.0,950.0 860.0,993.0" stroke="black" stroke-width="2" /><path d="M 639.9902415217416,1049.987801902177 C 637.5,1093.0 677.5,1143.0 720.0097584782584,1150.012198097823" fill="none" stroke="black" stroke-width="2" /><path d="M 740.0,1057.0 C 717.5,1075.0 717.5,1125.0 740.0,1143.0" fill="none" stroke="black" stroke-width="2" /><path d="M 840.0097584782584,1049.987801902177 C 797.5,1057.0 757.5,1107.0 759.9902415217416,1150.012198097823" fill="none" stroke="black" stroke-width="2" /><polyline fill="none" points="740.0,1207.0 740.0,1250.0 620.0,1250.0 620.0,1293.0" stroke="black" stroke-width="2" /><polyline fill="none" points="740.0,1207.0 740.0,1293.0" stroke="black" stroke-width="2" /><polyline fill="none" points="740.0,1207.0 740.0,1250.0 860.0,1250.0 860.0,1293.0" stroke="black" stroke-width="2" /><path d="M 639.9902415217416,1349.987801902177 C 637.5,1393.0 677.5,1443.0 715.012198097823,1443.7652476222788" fill="none" stroke="black" stroke-width="2" /><path d="M 740.0,1357.0 C 717.5,1375.0 717.5,1425.0 740.0,1435.0" fill="none" stroke="black" stroke-width="2" /><path d="M 840.0097584782584,1349.987801902177 C 797.5,1357.0 757.5,1407.0 764.987801902177,1443.7652476222788" fill="none" stroke="black" stroke-width="2" /><line stroke="black" stroke-width="2" x1="740.0" x2="740.0" y1="1515.0" y2="1593.0" /><line stroke="black" stroke-width="2" x1="740.0" x2="740.0" y1="1657.0" y2="1735.0" /><text fill="black" font-family="Arial, sans-serif" font-size="14px" text-anchor="middle" x="740.0" y="140.0">archivo.svg
(input)</text><text fill="black" font-family="Arial, sans-serif" font-size="14px" text-anchor="middle" x="740.0" y="290.0">SVG Parser
(Fase 1)</text><text fill="black" font-family="Arial, sans-serif" font-size="14px" text-anchor="middle" x="680.0" y="440.0">Extraer Elementos
&lt;path&gt; &lt;rect&gt;
&lt;circle&gt; etc.</text><text fill="black" font-family="Arial, sans-serif" font-size="14px" text-anchor="middle" x="800.0" y="440.0">Extraer Atributos
fill, stroke
transform</text><text fill="black" font-family="Arial, sans-serif" font-size="14px" text-anchor="middle" x="740.0" y="590.0">Normalizer
(Fase 2)</text><text fill="black" font-family="Arial, sans-serif" font-size="14px" text-anchor="middle" x="620.0" y="740.0">Calcular
Bounding Box</text><text fill="black" font-family="Arial, sans-serif" font-size="14px" text-anchor="middle" x="740.0" y="740.0">Calcular Escala
ICON_WIDTH/HEIGHT</text><text fill="black" font-family="Arial, sans-serif" font-size="14px" text-anchor="middle" x="860.0" y="740.0">Normalizar
Coordenadas
(0,0 origin)</text><text fill="black" font-family="Arial, sans-serif" font-size="14px" text-anchor="middle" x="740.0" y="860.0">Simplifier
(Fase 3)
Opcional</text><text fill="black" font-family="Arial, sans-serif" font-size="14px" text-anchor="middle" x="620.0" y="1040.0">Combinar
Paths Similares</text><text fill="black" font-family="Arial, sans-serif" font-size="14px" text-anchor="middle" x="740.0" y="1040.0">Eliminar
Invisibles
opacity=0</text><text fill="black" font-family="Arial, sans-serif" font-size="14px" text-anchor="middle" x="860.0" y="1040.0">Optimizar
Path Data
Reducir decimales</text><text fill="black" font-family="Arial, sans-serif" font-size="14px" text-anchor="middle" x="740.0" y="1190.0">Code Generator
(Fase 4)</text><text fill="black" font-family="Arial, sans-serif" font-size="14px" text-anchor="middle" x="620.0" y="1340.0">Crear Función
draw_&lt;nombre&gt;()</text><text fill="black" font-family="Arial, sans-serif" font-size="14px" text-anchor="middle" x="740.0" y="1340.0">Generar
dwg.add()
para cada elemento</text><text fill="black" font-family="Arial, sans-serif" font-size="14px" text-anchor="middle" x="860.0" y="1340.0">Formatear
Código PEP8</text><text fill="black" font-family="Arial, sans-serif" font-size="14px" text-anchor="middle" x="740.0" y="1490.0">draw_&lt;nombre&gt;.py
(output)</text><text fill="black" font-family="Arial, sans-serif" font-size="14px" text-anchor="start" x="770.0" y="1625.0">Registrar en
ICON_TYPES
(opcional)</text><text fill="black" font-family="Arial, sans-serif" font-size="14px" text-anchor="middle" x="740.0" y="1790.0">Ícono Listo
para Usar en .gag</text><text fill="gray" font-family="Arial, sans-serif" font-size="12px" text-anchor="middle" x="740.0" y="189.0">lee SVG</text><text fill="gray" font-family="Arial, sans-serif" font-size="12px" text-anchor="middle" x="710.0" y="335.0">parsea XML</text><text fill="gray" font-family="Arial, sans-serif" font-size="12px" text-anchor="start" x="800.0" y="350.0">extrae</text><text fill="gray" font-family="Arial, sans-serif" font-size="12px" text-anchor="middle" x="680.0" y="635.0">procesa</text><text fill="gray" font-family="Arial, sans-serif" font-size="12px" text-anchor="middle" x="680.0" y="935.0">optimiza</text><text fill="gray" font-family="Arial, sans-serif" font-size="12px" text-anchor="middle" x="680.0" y="1235.0">genera</text><text fill="gray" font-family="Arial, sans-serif" font-size="12px" text-anchor="middle" x="740.0" y="1539.0">registro
opcional</text><text fill="gray" font-family="Arial, sans-serif" font-size="12px" text-anchor="middle" x="740.0" y="1681.0">disponible</text></svg>