<?xml version="1.0" encoding="utf-8" ?>
<svg baseProfile="full" height="3310.0" version="1.1" viewBox="0,0,866.0,3310.0" width="866.0" xmlns="http://www.w3.org/2000/svg" xmlns:ev="http://www.w3.org/2001/xml-events" xmlns:xlink="http://www.w3.org/1999/xlink"><defs><marker id="arrow-end" markerHeight="10" markerWidth="10" orient="auto" refX="10" refY="5"><path d="M 0 0 L 10 5 L 0 10 z" fill="black" /></marker><marker id="arrow-start" markerHeight="10" markerWidth="10" orient="auto" refX="0" refY="5"><path d="M 10 0 L 0 5 L 10 10 z" fill="black" /></marker><linearGradient id="gradient-input_svg" x1="0%" x2="0%" y1="0%" y2="100%"><stop offset="0%" stop-color="#a6a6a6" /><stop offset="100%" stop-color="#595959" /></linearGradient><linearGradient id="gradient-parser" x1="0%" x2="0%" y1="0%" y2="100%"><stop offset="0%" stop-color="#81b8ff" /><stop offset="100%" stop-color="#356bb2" /></linearGradient><linearGradient id="gradient-extract_elements" x1="0%" x2="0%" y1="0%" y2="100%"><stop offset="0%" stop-color="#81b8ff" /><stop offset="100%" stop-color="#356bb2" /></linearGradient><linearGradient id="gradient-extract_attrs" x1="0%" x2="0%" y1="0%" y2="100%"><stop offset="0%" stop-color="#81b8ff" /><stop offset="100%" stop-color="#356bb2" /></linearGradient><linearGradient id="gradient-normalizer" x1="0%" x2="0%" y1="0%" y2="100%"><stop offset="0%" stop-color="#ffc081" /><stop offset="100%" stop-color="#b27435" /></linearGradient><linearGradient id="gradient-calc_bbox" x1="0%" x2="0%" y1="0%" y2="100%"><stop offset="0%" stop-color="#ffc081" /><stop offset="100%" stop-color="#b27435" /></linearGradient><linearGradient id="gradient-calc_scale" x1="0%" x2="0%" y1="0%" y2="100%"><stop offset="0%" stop-color="#ffc081" /><stop offset="100%" stop-color="#b27435" /></linearGradient><linearGradient id="gradient-normalize_coords" x1="0%" x2="0%" y1="0%" y2="100%"><stop offset="0%" stop-color="#ffc081" /><stop offset="100%" stop-color="#b27435" /></linearGradient><linearGradient id="gradient-simplifier" x1="0%" x2="0%" y1="0%" y2="100%"><stop offset="0%" stop-color="#c081c0" /><stop offset="100%" stop-color="#743574" /></linearGradient><linearGradient id="gradient-combine_paths" x1="0%" x2="0%" y1="0%" y2="100%"><stop offset="0%" stop-color="#c081c0" /><stop offset="100%" stop-color="#743574" /></linearGradient><linearGradient id="gradient-remove_invisible" x1="0%" x2="0%" y1="0%" y2="100%"><stop offset="0%" stop-color="#c081c0" /><stop offset="100%" stop-color="#743574" /></linearGradient><linearGradient id="gradient-optimize_paths" x1="0%" x2="0%" y1="0%" y2="100%"><stop offset="0%" stop-color="#c081c0" /><stop offset="100%" stop-color="#743574" /></linearGradient><linearGradient id="gradient-codegen" x1="0%" x2="0%" y1="0%" y2="100%"><stop offset="0%" stop-color="#c8f6c8" /><stop offset="100%" stop-color="#7baa7b" /></linearGradient><linearGradient id="gradient-create_function" x1="0%" x2="0%" y1="0%" y2="100%"><stop offset="0%" stop-color="#c8f6c8" /><stop offset="100%" stop-color="#7baa7b" /></linearGradient><linearGradient id="gradient-generate_paths" x1="0%" x2="0%" y1="0%" y2="100%"><stop offset="0%" stop-color="#c8f6c8" /><stop offset="100%" stop-color="#7baa7b" /></linearGradient><linearGradient id="gradient-format_code" x1="0%" x2="0%" y1="0%" y2="100%"><stop offset="0%" stop-color="#c8f6c8" /><stop offset="100%" stop-color="#7baa7b" /></linearGradient><linearGradient id="gradient-output_py" x1="0%" x2="0%" y1="0%" y2="100%"><stop offset="0%" stop-color="#a6a6a6" /><stop offset="100%" stop-color="#595959" /></linearGradient><linearGradient id="gradient-register" x1="0%" x2="0%" y1="0%" y2="100%"><stop offset="0%" stop-color="#ffeb81" /><stop offset="100%" stop-color="#b29e35" /></linearGradient><linearGradient id="gradient-ready" x1="0%" x2="0%" y1="0%" y2="100%"><stop offset="0%" stop-color="#c8f6c8" /><stop offset="100%" stop-color="#7baa7b" /></linearGradient></defs><ellipse cx="40.0" cy="45.0" fill="url(#gradient-input_svg)" rx="40.0" ry="25.0" stroke="black" /><rect fill="url(#gradient-parser)" height="50" stroke="black" width="80" x="0" y="310.0" /><rect fill="url(#gradient-extract_elements)" height="50" stroke="black" width="80" x="0" y="600.0" /><rect fill="url(#gradient-extract_attrs)" height="50" stroke="black" width="80" x="240" y="600.0" /><rect fill="url(#gradient-normalizer)" height="50" stroke="black" width="80" x="0" y="890.0" /><rect fill="url(#gradient-calc_bbox)" height="50" stroke="black" width="80" x="0" y="1180.0" /><rect fill="url(#gradient-calc_scale)" height="50" stroke="black" width="80" x="240" y="1180.0" /><rect fill="url(#gradient-normalize_coords)" height="50" stroke="black" width="80" x="480" y="1180.0" /><rect fill="url(#gradient-simplifier)" height="50" stroke="black" width="80" x="0" y="1470.0" /><rect fill="url(#gradient-combine_paths)" height="50" stroke="black" width="80" x="0" y="1760.0" /><rect fill="url(#gradient-remove_invisible)" height="50" stroke="black" width="80" x="240" y="1760.0" /><rect fill="url(#gradient-optimize_paths)" height="50" stroke="black" width="80" x="480" y="1760.0" /><rect fill="url(#gradient-codegen)" height="50" stroke="black" width="80" x="0" y="2050.0" /><rect fill="url(#gradient-create_function)" height="50" stroke="black" width="80" x="0" y="2340.0" /><rect fill="url(#gradient-generate_paths)" height="50" stroke="black" width="80" x="240" y="2340.0" /><rect fill="url(#gradient-format_code)" height="50" stroke="black" width="80" x="480" y="2340.0" /><ellipse cx="40.0" cy="2655.0" fill="url(#gradient-output_py)" rx="40.0" ry="25.0" stroke="black" /><rect fill="url(#gradient-register)" height="50" stroke="black" width="80" x="0" y="2920.0" /><ellipse cx="40.0" cy="3235.0" fill="url(#gradient-ready)" rx="40.0" ry="25.0" stroke="black" /><line stroke="black" stroke-width="2" x1="40.0" x2="40.0" y1="85.0" y2="303.0" /><polyline fill="none" points="40.0,367.0 40.0,593.0" stroke="black" stroke-width="2" /><polyline fill="none" points="40.0,367.0 40.0,480.0 280.0,480.0 280.0,593.0" stroke="black" stroke-width="2" /><path d="M 40.0,657.0 C -3.5,721.6666666666666 -3.5,818.3333333333334 40.0,883.0" fill="none" stroke="black" stroke-width="2" /><path d="M 259.59783315090476,649.6526182759901 C 156.5,685.6666666666666 76.5,782.3333333333334 60.40216684909523,890.3473817240099" fill="none" stroke="black" stroke-width="2" /><polyline fill="none" points="40.0,947.0 40.0,1173.0" stroke="black" stroke-width="2" /><polyline fill="none" points="40.0,947.0 40.0,1060.0 280.0,1060.0 280.0,1173.0" stroke="black" stroke-width="2" /><polyline fill="none" points="72.0,915.0 280.0,915.0 280.0,1205.0 488.0,1205.0" stroke="black" stroke-width="2" /><path d="M 40.0,1237.0 C -3.5,1301.6666666666667 -3.5,1398.3333333333333 40.0,1463.0" fill="none" stroke="black" stroke-width="2" /><path d="M 259.59783315090476,1229.65261827599 C 156.5,1265.6666666666667 76.5,1362.3333333333333 60.40216684909523,1470.34738172401" fill="none" stroke="black" stroke-width="2" /><path d="M 492.6107026577347,1221.5477004776187 C 316.5,1229.6666666666667 156.5,1326.3333333333333 67.3892973422653,1478.4522995223813" fill="none" stroke="black" stroke-width="2" /><polyline fill="none" points="40.0,1527.0 40.0,1753.0" stroke="black" stroke-width="2" /><polyline fill="none" points="40.0,1527.0 40.0,1640.0 280.0,1640.0 280.0,1753.0" stroke="black" stroke-width="2" /><polyline fill="none" points="72.0,1495.0 280.0,1495.0 280.0,1785.0 488.0,1785.0" stroke="black" stroke-width="2" /><path d="M 40.0,1817.0 C -3.5,1881.6666666666667 -3.5,1978.3333333333333 40.0,2043.0" fill="none" stroke="black" stroke-width="2" /><path d="M 259.59783315090476,1809.65261827599 C 156.5,1845.6666666666667 76.5,1942.3333333333333 60.40216684909523,2050.34738172401" fill="none" stroke="black" stroke-width="2" /><path d="M 492.6107026577347,1801.5477004776187 C 316.5,1809.6666666666667 156.5,1906.3333333333333 67.3892973422653,2058.4522995223815" fill="none" stroke="black" stroke-width="2" /><polyline fill="none" points="40.0,2107.0 40.0,2333.0" stroke="black" stroke-width="2" /><polyline fill="none" points="40.0,2107.0 40.0,2220.0 280.0,2220.0 280.0,2333.0" stroke="black" stroke-width="2" /><polyline fill="none" points="72.0,2075.0 280.0,2075.0 280.0,2365.0 488.0,2365.0" stroke="black" stroke-width="2" /><path d="M 40.0,2397.0 C -3.5,2461.6666666666665 -3.5,2558.3333333333335 40.0,2615.0" fill="none" stroke="black" stroke-width="2" /><path d="M 259.59783315090476,2389.65261827599 C 156.5,2425.6666666666665 76.5,2522.3333333333335 65.50270856136905,2624.184227155012" fill="none" stroke="black" stroke-width="2" /><path d="M 492.6107026577347,2381.5477004776185 C 316.5,2389.6666666666665 156.5,2486.3333333333335 74.23662167783161,2634.315374402977" fill="none" stroke="black" stroke-width="2" /><line stroke="black" stroke-width="2" x1="40.0" x2="40.0" y1="2695.0" y2="2913.0" /><line stroke="black" stroke-width="2" x1="40.0" x2="40.0" y1="2977.0" y2="3195.0" /><text fill="black" font-family="Arial, sans-serif" font-size="14px" text-anchor="middle" x="40.0" y="5.0">archivo.svg</text><text fill="black" font-family="Arial, sans-serif" font-size="14px" text-anchor="middle" x="40.0" y="23.0">(input)</text><text fill="black" font-family="Arial, sans-serif" font-size="14px" text-anchor="middle" x="40.0" y="295.0">SVG Parser</text><text fill="black" font-family="Arial, sans-serif" font-size="14px" text-anchor="middle" x="40.0" y="313.0">(Fase 1)</text><text fill="black" font-family="Arial, sans-serif" font-size="14px" text-anchor="middle" x="40.0" y="585.0">Extraer Elementos</text><text fill="black" font-family="Arial, sans-serif" font-size="14px" text-anchor="middle" x="40.0" y="603.0">&lt;path&gt; &lt;rect&gt;</text><text fill="black" font-family="Arial, sans-serif" font-size="14px" text-anchor="middle" x="40.0" y="621.0">&lt;circle&gt; etc.</text><text fill="black" font-family="Arial, sans-serif" font-size="14px" text-anchor="middle" x="280.0" y="585.0">Extraer Atributos</text><text fill="black" font-family="Arial, sans-serif" font-size="14px" text-anchor="middle" x="280.0" y="603.0">fill, stroke</text><text fill="black" font-family="Arial, sans-serif" font-size="14px" text-anchor="middle" x="280.0" y="621.0">transform</text><text fill="black" font-family="Arial, sans-serif" font-size="14px" text-anchor="middle" x="40.0" y="875.0">Normalizer</text><text fill="black" font-family="Arial, sans-serif" font-size="14px" text-anchor="middle" x="40.0" y="893.0">(Fase 2)</text><text fill="black" font-family="Arial, sans-serif" font-size="14px" text-anchor="middle" x="40.0" y="1165.0">Calcular</text><text fill="black" font-family="Arial, sans-serif" font-size="14px" text-anchor="middle" x="40.0" y="1183.0">Bounding Box</text><text fill="black" font-family="Arial, sans-serif" font-size="14px" text-anchor="middle" x="280.0" y="1165.0">Calcular Escala</text><text fill="black" font-family="Arial, sans-serif" font-size="14px" text-anchor="middle" x="280.0" y="1183.0">ICON_WIDTH/HEIGHT</text><text fill="black" font-family="Arial, sans-serif" font-size="14px" text-anchor="middle" x="520.0" y="1165.0">Normalizar</text><text fill="black" font-family="Arial, sans-serif" font-size="14px" text-anchor="middle" x="520.0" y="1183.0">Coordenadas</text><text fill="black" font-family="Arial, sans-serif" font-size="14px" text-anchor="middle" x="520.0" y="1201.0">(0,0 origin)</text><text fill="black" font-family="Arial, sans-serif" font-size="14px" text-anchor="middle" x="40.0" y="1455.0">Simplifier</text><text fill="black" font-family="Arial, sans-serif" font-size="14px" text-anchor="middle" x="40.0" y="1473.0">(Fase 3)</text><text fill="black" font-family="Arial, sans-serif" font-size="14px" text-anchor="middle" x="40.0" y="1491.0">Opcional</text><text fill="black" font-family="Arial, sans-serif" font-size="14px" text-anchor="middle" x="40.0" y="1745.0">Combinar</text><text fill="black" font-family="Arial, sans-serif" font-size="14px" text-anchor="middle" x="40.0" y="1763.0">Paths Similares</text><text fill="black" font-family="Arial, sans-serif" font-size="14px" text-anchor="middle" x="280.0" y="1745.0">Eliminar</text><text fill="black" font-family="Arial, sans-serif" font-size="14px" text-anchor="middle" x="280.0" y="1763.0">Invisibles</text><text fill="black" font-family="Arial, sans-serif" font-size="14px" text-anchor="middle" x="280.0" y="1781.0">opacity=0</text><text fill="black" font-family="Arial, sans-serif" font-size="14px" text-anchor="middle" x="520.0" y="1745.0">Optimizar</text><text fill="black" font-family="Arial, sans-serif" font-size="14px" text-anchor="middle" x="520.0" y="1763.0">Path Data</text><text fill="black" font-family="Arial, sans-serif" font-size="14px" text-anchor="middle" x="520.0" y="1781.0">Reducir decimales</text><text fill="black" font-family="Arial, sans-serif" font-size="14px" text-anchor="middle" x="40.0" y="2035.0">Code Generator</text><text fill="black" font-family="Arial, sans-serif" font-size="14px" text-anchor="middle" x="40.0" y="2053.0">(Fase 4)</text><text fill="black" font-family="Arial, sans-serif" font-size="14px" text-anchor="middle" x="40.0" y="2325.0">Crear Función</text><text fill="black" font-family="Arial, sans-serif" font-size="14px" text-anchor="middle" x="40.0" y="2343.0">draw_&lt;nombre&gt;()</text><text fill="black" font-family="Arial, sans-serif" font-size="14px" text-anchor="middle" x="280.0" y="2325.0">Generar</text><text fill="black" font-family="Arial, sans-serif" font-size="14px" text-anchor="middle" x="280.0" y="2343.0">dwg.add()</text><text fill="black" font-family="Arial, sans-serif" font-size="14px" text-anchor="middle" x="280.0" y="2361.0">para cada elemento</text><text fill="black" font-family="Arial, sans-serif" font-size="14px" text-anchor="middle" x="520.0" y="2325.0">Formatear</text><text fill="black" font-family="Arial, sans-serif" font-size="14px" text-anchor="middle" x="520.0" y="2343.0">Código PEP8</text><text fill="black" font-family="Arial, sans-serif" font-size="14px" text-anchor="middle" x="40.0" y="2615.0">draw_&lt;nombre&gt;.py</text><text fill="black" font-family="Arial, sans-serif" font-size="14px" text-anchor="middle" x="40.0" y="2633.0">(output)</text><text fill="black" font-family="Arial, sans-serif" font-size="14px" text-anchor="middle" x="40.0" y="2905.0">Registrar en</text><text fill="black" font-family="Arial, sans-serif" font-size="14px" text-anchor="middle" x="40.0" y="2923.0">ICON_TYPES</text><text fill="black" font-family="Arial, sans-serif" font-size="14px" text-anchor="middle" x="40.0" y="2941.0">(opcional)</text><text fill="black" font-family="Arial, sans-serif" font-size="14px" text-anchor="middle" x="40.0" y="3195.0">Ícono Listo</text><text fill="black" font-family="Arial, sans-serif" font-size="14px" text-anchor="middle" x="40.0" y="3213.0">para Usar en .gag</text><text fill="gray" font-family="Arial, sans-serif" font-size="12px" text-anchor="start" x="90.8" y="194.0">lee SVG</text><text fill="gray" font-family="Arial, sans-serif" font-size="12px" text-anchor="start" x="90.8" y="523.0">parsea XML</text><text fill="gray" font-family="Arial, sans-serif" font-size="12px" text-anchor="middle" x="160.0" y="437.0">extrae</text><text fill="gray" font-family="Arial, sans-serif" font-size="12px" text-anchor="start" x="90.8" y="1060.0">procesa</text><text fill="gray" font-family="Arial, sans-serif" font-size="12px" text-anchor="start" x="90.8" y="1640.0">optimiza</text><text fill="gray" font-family="Arial, sans-serif" font-size="12px" text-anchor="start" x="90.8" y="2220.0">genera</text><text fill="gray" font-family="Arial, sans-serif" font-size="12px" text-anchor="start" x="90.8" y="2804.0">registro
opcional</text><text fill="gray" font-family="Arial, sans-serif" font-size="12px" text-anchor="start" x="90.8" y="3086.0">disponible</text></svg>