<?xml version="1.0" encoding="utf-8" ?>
<svg baseProfile="full" height="1670" version="1.1" viewBox="0,0,1400,1670" width="1400" xmlns="http://www.w3.org/2000/svg" xmlns:ev="http://www.w3.org/2001/xml-events" xmlns:xlink="http://www.w3.org/1999/xlink"><defs><filter height="140%" id="text-glow" width="140%" x="-20%" y="-20%"><feGaussianBlur in="SourceGraphic" result="blur" stdDeviation="2" /><feFlood flood-color="white" flood-opacity="1" result="color" /><feComposite in="color" in2="blur" operator="in" result="shadow" /><feMerge><feMergeNode in="shadow" /><feMergeNode in="shadow" /><feMergeNode in="SourceGraphic" /></feMerge></filter><marker id="arrow-end" markerHeight="10" markerWidth="10" orient="auto" refX="10" refY="5"><path d="M 0 0 L 10 5 L 0 10 z" fill="black" /></marker><marker id="arrow-start" markerHeight="10" markerWidth="10" orient="auto" refX="0" refY="5"><path d="M 10 0 L 0 5 L 10 10 z" fill="black" /></marker><marker id="circle-start" markerHeight="10" markerWidth="10" orient="auto" refX="5" refY="5"><circle cx="5" cy="5" fill="black" r="4" /></marker><marker id="circle-end" markerHeight="10" markerWidth="10" orient="auto" refX="5" refY="5"><circle cx="5" cy="5" fill="black" r="4" /></marker><linearGradient id="gradient-cli" x1="0%" x2="0%" y1="0%" y2="100%"><stop offset="0%" stop-color="#ffe34c" /><stop offset="100%" stop-color="#b29600" /></linearGradient><linearGradient id="gradient-generator" x1="0%" x2="0%" y1="0%" y2="100%"><stop offset="0%" stop-color="#ffc04c" /><stop offset="100%" stop-color="#b27300" /></linearGradient><linearGradient id="gradient-layout-obj" x1="0%" x2="0%" y1="0%" y2="100%"><stop offset="0%" stop-color="#c5e3ed" /><stop offset="100%" stop-color="#7997a1" /></linearGradient><linearGradient id="gradient-optimizer" x1="0%" x2="0%" y1="0%" y2="100%"><stop offset="0%" stop-color="#4cffff" /><stop offset="100%" stop-color="#00b2b2" /></linearGradient><linearGradient id="gradient-positioner" x1="0%" x2="0%" y1="0%" y2="100%"><stop offset="0%" stop-color="#a6a6a6" /><stop offset="100%" stop-color="#595959" /></linearGradient><linearGradient id="gradient-container-calc" x1="0%" x2="0%" y1="0%" y2="100%"><stop offset="0%" stop-color="#a6a6a6" /><stop offset="100%" stop-color="#595959" /></linearGradient><linearGradient id="gradient-sizing" x1="0%" x2="0%" y1="0%" y2="100%"><stop offset="0%" stop-color="#a6a6a6" /><stop offset="100%" stop-color="#595959" /></linearGradient><linearGradient id="gradient-geometry" x1="0%" x2="0%" y1="0%" y2="100%"><stop offset="0%" stop-color="#a6a6a6" /><stop offset="100%" stop-color="#595959" /></linearGradient><linearGradient id="gradient-router-manager" x1="0%" x2="0%" y1="0%" y2="100%"><stop offset="0%" stop-color="#b1f3b1" /><stop offset="100%" stop-color="#64a664" /></linearGradient><linearGradient id="gradient-router-base" x1="0%" x2="0%" y1="0%" y2="100%"><stop offset="0%" stop-color="#a6a6a6" /><stop offset="100%" stop-color="#595959" /></linearGradient><linearGradient id="gradient-routers" x1="0%" x2="0%" y1="0%" y2="100%"><stop offset="0%" stop-color="#a6a6a6" /><stop offset="100%" stop-color="#595959" /></linearGradient><linearGradient id="gradient-label-opt" x1="0%" x2="0%" y1="0%" y2="100%"><stop offset="0%" stop-color="#a6a6a6" /><stop offset="100%" stop-color="#595959" /></linearGradient><linearGradient id="gradient-collision-det" x1="0%" x2="0%" y1="0%" y2="100%"><stop offset="0%" stop-color="#a6a6a6" /><stop offset="100%" stop-color="#595959" /></linearGradient><linearGradient id="gradient-graph-analyzer" x1="0%" x2="0%" y1="0%" y2="100%"><stop offset="0%" stop-color="#a6a6a6" /><stop offset="100%" stop-color="#595959" /></linearGradient><linearGradient id="gradient-draw-elements" x1="0%" x2="0%" y1="0%" y2="100%"><stop offset="0%" stop-color="#ff917e" /><stop offset="100%" stop-color="#b24531" /></linearGradient><linearGradient id="gradient-draw-connections" x1="0%" x2="0%" y1="0%" y2="100%"><stop offset="0%" stop-color="#a6a6a6" /><stop offset="100%" stop-color="#595959" /></linearGradient><linearGradient id="gradient-draw-icons" x1="0%" x2="0%" y1="0%" y2="100%"><stop offset="0%" stop-color="#a6a6a6" /><stop offset="100%" stop-color="#595959" /></linearGradient></defs><g id="cli"><rect fill="url(#gradient-cli)" height="50" rx="4" ry="4" stroke="black" stroke-width="1.2" width="80" x="376.3051510465118" y="20.0" /><line stroke="#998100" stroke-width="0.8" x1="378.3051510465118" x2="454.3051510465118" y1="36.66666666666667" y2="36.66666666666667" /><line stroke="#998100" stroke-width="0.8" x1="378.3051510465118" x2="454.3051510465118" y1="53.333333333333336" y2="53.333333333333336" /><circle cx="444.3051510465118" cy="28.333333333333336" fill="#00cc44" r="2.5" stroke="#998100" stroke-width="0.5" /><circle cx="436.3051510465118" cy="28.333333333333336" fill="#ffaa00" r="2.5" stroke="#998100" stroke-width="0.5" /><circle cx="444.3051510465118" cy="45.00000000000001" fill="#00cc44" r="2.5" stroke="#998100" stroke-width="0.5" /><circle cx="436.3051510465118" cy="45.00000000000001" fill="#ffaa00" r="2.5" stroke="#998100" stroke-width="0.5" /><circle cx="444.3051510465118" cy="61.66666666666667" fill="#00cc44" r="2.5" stroke="#998100" stroke-width="0.5" /><circle cx="436.3051510465118" cy="61.66666666666667" fill="#ffaa00" r="2.5" stroke="#998100" stroke-width="0.5" /><line stroke="#998100" stroke-width="0.6" x1="382.3051510465118" x2="394.3051510465118" y1="25.0" y2="25.0" /><line stroke="#998100" stroke-width="0.6" x1="382.3051510465118" x2="394.3051510465118" y1="28.333333333333336" y2="28.333333333333336" /><line stroke="#998100" stroke-width="0.6" x1="382.3051510465118" x2="394.3051510465118" y1="31.666666666666668" y2="31.666666666666668" /><line stroke="#998100" stroke-width="0.6" x1="382.3051510465118" x2="394.3051510465118" y1="41.66666666666667" y2="41.66666666666667" /><line stroke="#998100" stroke-width="0.6" x1="382.3051510465118" x2="394.3051510465118" y1="45.00000000000001" y2="45.00000000000001" /><line stroke="#998100" stroke-width="0.6" x1="382.3051510465118" x2="394.3051510465118" y1="48.33333333333334" y2="48.33333333333334" /><line stroke="#998100" stroke-width="0.6" x1="382.3051510465118" x2="394.3051510465118" y1="58.333333333333336" y2="58.333333333333336" /><line stroke="#998100" stroke-width="0.6" x1="382.3051510465118" x2="394.3051510465118" y1="61.66666666666667" y2="61.66666666666667" /><line stroke="#998100" stroke-width="0.6" x1="382.3051510465118" x2="394.3051510465118" y1="65.0" y2="65.0" /></g><g id="generator"><rect fill="url(#gradient-generator)" height="46" rx="2" ry="2" stroke="black" stroke-width="1.2" width="64" x="384.3051510465101" y="314.0" /><polygon fill="#7f5200" points="380.3051510465101,314.0 416.3051510465101,304.0 452.3051510465101,314.0" stroke="black" stroke-width="1.0" /><rect fill="#ffd27f" height="7" stroke="#7f5200" stroke-width="0.7" width="10" x="391.3051510465101" y="320.0" /><line stroke="#7f5200" stroke-width="0.5" x1="396.3051510465101" x2="396.3051510465101" y1="320.0" y2="327.0" /><line stroke="#7f5200" stroke-width="0.5" x1="391.3051510465101" x2="401.3051510465101" y1="323.5" y2="323.5" /><rect fill="#ffd27f" height="7" stroke="#7f5200" stroke-width="0.7" width="10" x="411.3051510465101" y="320.0" /><line stroke="#7f5200" stroke-width="0.5" x1="416.3051510465101" x2="416.3051510465101" y1="320.0" y2="327.0" /><line stroke="#7f5200" stroke-width="0.5" x1="411.3051510465101" x2="421.3051510465101" y1="323.5" y2="323.5" /><rect fill="#ffd27f" height="7" stroke="#7f5200" stroke-width="0.7" width="10" x="431.3051510465101" y="320.0" /><line stroke="#7f5200" stroke-width="0.5" x1="436.3051510465101" x2="436.3051510465101" y1="320.0" y2="327.0" /><line stroke="#7f5200" stroke-width="0.5" x1="431.3051510465101" x2="441.3051510465101" y1="323.5" y2="323.5" /><rect fill="#ffd27f" height="7" stroke="#7f5200" stroke-width="0.7" width="10" x="391.3051510465101" y="334.0" /><line stroke="#7f5200" stroke-width="0.5" x1="396.3051510465101" x2="396.3051510465101" y1="334.0" y2="341.0" /><line stroke="#7f5200" stroke-width="0.5" x1="391.3051510465101" x2="401.3051510465101" y1="337.5" y2="337.5" /><rect fill="#ffd27f" height="7" stroke="#7f5200" stroke-width="0.7" width="10" x="411.3051510465101" y="334.0" /><line stroke="#7f5200" stroke-width="0.5" x1="416.3051510465101" x2="416.3051510465101" y1="334.0" y2="341.0" /><line stroke="#7f5200" stroke-width="0.5" x1="411.3051510465101" x2="421.3051510465101" y1="337.5" y2="337.5" /><rect fill="#ffd27f" height="7" stroke="#7f5200" stroke-width="0.7" width="10" x="431.3051510465101" y="334.0" /><line stroke="#7f5200" stroke-width="0.5" x1="436.3051510465101" x2="436.3051510465101" y1="334.0" y2="341.0" /><line stroke="#7f5200" stroke-width="0.5" x1="431.3051510465101" x2="441.3051510465101" y1="337.5" y2="337.5" /><rect fill="#7f5200" height="12" stroke="black" stroke-width="0.8" width="10" x="411.3051510465101" y="348.0" /><circle cx="418.8051510465101" cy="354.0" fill="#ffd27f" r="1.2" /></g><g id="layout-obj"><rect fill="url(#gradient-layout-obj)" height="30.0" stroke="none" width="67.2" x="159.68788317722513" y="610.0" /><line stroke="black" stroke-width="1.2" x1="159.68788317722513" x2="159.68788317722513" y1="610.0" y2="640.0" /><line stroke="black" stroke-width="1.2" x1="226.88788317722512" x2="226.88788317722512" y1="610.0" y2="640.0" /><ellipse cx="193.28788317722513" cy="640.0" fill="url(#gradient-layout-obj)" rx="33.6" ry="8" stroke="black" stroke-width="1.2" /><ellipse cx="193.28788317722513" cy="610.0" fill="#c5e3ed" rx="33.6" ry="8" stroke="black" stroke-width="1.2" /><ellipse cx="193.28788317722513" cy="620.0" fill="none" rx="33.6" ry="4.8" stroke="#67818a" stroke-width="0.6" /><ellipse cx="193.28788317722513" cy="630.0" fill="none" rx="33.6" ry="4.8" stroke="#67818a" stroke-width="0.6" /></g><g id="optimizer"><rect fill="url(#gradient-optimizer)" height="50" rx="4" ry="4" stroke="black" stroke-width="1.2" width="80" x="393.2878831772251" y="600.0" /><line stroke="#009999" stroke-width="0.8" x1="395.2878831772251" x2="471.2878831772251" y1="616.6666666666666" y2="616.6666666666666" /><line stroke="#009999" stroke-width="0.8" x1="395.2878831772251" x2="471.2878831772251" y1="633.3333333333334" y2="633.3333333333334" /><circle cx="461.2878831772251" cy="608.3333333333334" fill="#00cc44" r="2.5" stroke="#009999" stroke-width="0.5" /><circle cx="453.2878831772251" cy="608.3333333333334" fill="#ffaa00" r="2.5" stroke="#009999" stroke-width="0.5" /><circle cx="461.2878831772251" cy="625.0" fill="#00cc44" r="2.5" stroke="#009999" stroke-width="0.5" /><circle cx="453.2878831772251" cy="625.0" fill="#ffaa00" r="2.5" stroke="#009999" stroke-width="0.5" /><circle cx="461.2878831772251" cy="641.6666666666667" fill="#00cc44" r="2.5" stroke="#009999" stroke-width="0.5" /><circle cx="453.2878831772251" cy="641.6666666666667" fill="#ffaa00" r="2.5" stroke="#009999" stroke-width="0.5" /><line stroke="#009999" stroke-width="0.6" x1="399.2878831772251" x2="411.2878831772251" y1="605.0" y2="605.0" /><line stroke="#009999" stroke-width="0.6" x1="399.2878831772251" x2="411.2878831772251" y1="608.3333333333334" y2="608.3333333333334" /><line stroke="#009999" stroke-width="0.6" x1="399.2878831772251" x2="411.2878831772251" y1="611.6666666666666" y2="611.6666666666666" /><line stroke="#009999" stroke-width="0.6" x1="399.2878831772251" x2="411.2878831772251" y1="621.6666666666666" y2="621.6666666666666" /><line stroke="#009999" stroke-width="0.6" x1="399.2878831772251" x2="411.2878831772251" y1="625.0" y2="625.0" /><line stroke="#009999" stroke-width="0.6" x1="399.2878831772251" x2="411.2878831772251" y1="628.3333333333333" y2="628.3333333333333" /><line stroke="#009999" stroke-width="0.6" x1="399.2878831772251" x2="411.2878831772251" y1="638.3333333333334" y2="638.3333333333334" /><line stroke="#009999" stroke-width="0.6" x1="399.2878831772251" x2="411.2878831772251" y1="641.6666666666667" y2="641.6666666666667" /><line stroke="#009999" stroke-width="0.6" x1="399.2878831772251" x2="411.2878831772251" y1="645.0" y2="645.0" /></g><g id="positioner"><rect fill="url(#gradient-positioner)" height="50" rx="4" ry="4" stroke="black" stroke-width="1.2" width="80" x="220.0" y="890.0" /><line stroke="#4c4c4c" stroke-width="0.8" x1="222.0" x2="298.0" y1="906.6666666666666" y2="906.6666666666666" /><line stroke="#4c4c4c" stroke-width="0.8" x1="222.0" x2="298.0" y1="923.3333333333334" y2="923.3333333333334" /><circle cx="288.0" cy="898.3333333333334" fill="#00cc44" r="2.5" stroke="#4c4c4c" stroke-width="0.5" /><circle cx="280.0" cy="898.3333333333334" fill="#ffaa00" r="2.5" stroke="#4c4c4c" stroke-width="0.5" /><circle cx="288.0" cy="915.0" fill="#00cc44" r="2.5" stroke="#4c4c4c" stroke-width="0.5" /><circle cx="280.0" cy="915.0" fill="#ffaa00" r="2.5" stroke="#4c4c4c" stroke-width="0.5" /><circle cx="288.0" cy="931.6666666666667" fill="#00cc44" r="2.5" stroke="#4c4c4c" stroke-width="0.5" /><circle cx="280.0" cy="931.6666666666667" fill="#ffaa00" r="2.5" stroke="#4c4c4c" stroke-width="0.5" /><line stroke="#4c4c4c" stroke-width="0.6" x1="226.0" x2="238.0" y1="895.0" y2="895.0" /><line stroke="#4c4c4c" stroke-width="0.6" x1="226.0" x2="238.0" y1="898.3333333333334" y2="898.3333333333334" /><line stroke="#4c4c4c" stroke-width="0.6" x1="226.0" x2="238.0" y1="901.6666666666666" y2="901.6666666666666" /><line stroke="#4c4c4c" stroke-width="0.6" x1="226.0" x2="238.0" y1="911.6666666666666" y2="911.6666666666666" /><line stroke="#4c4c4c" stroke-width="0.6" x1="226.0" x2="238.0" y1="915.0" y2="915.0" /><line stroke="#4c4c4c" stroke-width="0.6" x1="226.0" x2="238.0" y1="918.3333333333333" y2="918.3333333333333" /><line stroke="#4c4c4c" stroke-width="0.6" x1="226.0" x2="238.0" y1="928.3333333333334" y2="928.3333333333334" /><line stroke="#4c4c4c" stroke-width="0.6" x1="226.0" x2="238.0" y1="931.6666666666667" y2="931.6666666666667" /><line stroke="#4c4c4c" stroke-width="0.6" x1="226.0" x2="238.0" y1="935.0" y2="935.0" /></g><g id="container-calc"><rect fill="url(#gradient-container-calc)" height="50" rx="4" ry="4" stroke="black" stroke-width="1.2" width="80" x="340.0" y="890.0" /><line stroke="#4c4c4c" stroke-width="0.8" x1="342.0" x2="418.0" y1="906.6666666666666" y2="906.6666666666666" /><line stroke="#4c4c4c" stroke-width="0.8" x1="342.0" x2="418.0" y1="923.3333333333334" y2="923.3333333333334" /><circle cx="408.0" cy="898.3333333333334" fill="#00cc44" r="2.5" stroke="#4c4c4c" stroke-width="0.5" /><circle cx="400.0" cy="898.3333333333334" fill="#ffaa00" r="2.5" stroke="#4c4c4c" stroke-width="0.5" /><circle cx="408.0" cy="915.0" fill="#00cc44" r="2.5" stroke="#4c4c4c" stroke-width="0.5" /><circle cx="400.0" cy="915.0" fill="#ffaa00" r="2.5" stroke="#4c4c4c" stroke-width="0.5" /><circle cx="408.0" cy="931.6666666666667" fill="#00cc44" r="2.5" stroke="#4c4c4c" stroke-width="0.5" /><circle cx="400.0" cy="931.6666666666667" fill="#ffaa00" r="2.5" stroke="#4c4c4c" stroke-width="0.5" /><line stroke="#4c4c4c" stroke-width="0.6" x1="346.0" x2="358.0" y1="895.0" y2="895.0" /><line stroke="#4c4c4c" stroke-width="0.6" x1="346.0" x2="358.0" y1="898.3333333333334" y2="898.3333333333334" /><line stroke="#4c4c4c" stroke-width="0.6" x1="346.0" x2="358.0" y1="901.6666666666666" y2="901.6666666666666" /><line stroke="#4c4c4c" stroke-width="0.6" x1="346.0" x2="358.0" y1="911.6666666666666" y2="911.6666666666666" /><line stroke="#4c4c4c" stroke-width="0.6" x1="346.0" x2="358.0" y1="915.0" y2="915.0" /><line stroke="#4c4c4c" stroke-width="0.6" x1="346.0" x2="358.0" y1="918.3333333333333" y2="918.3333333333333" /><line stroke="#4c4c4c" stroke-width="0.6" x1="346.0" x2="358.0" y1="928.3333333333334" y2="928.3333333333334" /><line stroke="#4c4c4c" stroke-width="0.6" x1="346.0" x2="358.0" y1="931.6666666666667" y2="931.6666666666667" /><line stroke="#4c4c4c" stroke-width="0.6" x1="346.0" x2="358.0" y1="935.0" y2="935.0" /></g><g id="sizing"><ellipse cx="318.0173145518728" cy="1213.0" fill="url(#gradient-sizing)" rx="36.0" ry="11.0" stroke="#595959" stroke-width="0.8" /><circle cx="318.0173145518728" cy="1201.0" fill="url(#gradient-sizing)" r="17.0" stroke="#595959" stroke-width="0.8" /><circle cx="304.0173145518728" cy="1207.0" fill="url(#gradient-sizing)" r="13.0" stroke="#595959" stroke-width="0.8" /><circle cx="332.0173145518728" cy="1207.0" fill="url(#gradient-sizing)" r="13.0" stroke="#595959" stroke-width="0.8" /><ellipse cx="318.0173145518728" cy="1209.0" fill="url(#gradient-sizing)" rx="30.4" ry="14.000000000000002" stroke="none" /></g><g id="geometry"><ellipse cx="438.0173145518728" cy="1213.0" fill="url(#gradient-geometry)" rx="36.0" ry="11.0" stroke="#595959" stroke-width="0.8" /><circle cx="438.0173145518728" cy="1201.0" fill="url(#gradient-geometry)" r="17.0" stroke="#595959" stroke-width="0.8" /><circle cx="424.0173145518728" cy="1207.0" fill="url(#gradient-geometry)" r="13.0" stroke="#595959" stroke-width="0.8" /><circle cx="452.0173145518728" cy="1207.0" fill="url(#gradient-geometry)" r="13.0" stroke="#595959" stroke-width="0.8" /><ellipse cx="438.0173145518728" cy="1209.0" fill="url(#gradient-geometry)" rx="30.4" ry="14.000000000000002" stroke="none" /></g><g id="router-manager"><rect fill="url(#gradient-router-manager)" height="50" rx="4" ry="4" stroke="black" stroke-width="1.2" width="80" x="100.0" y="890.0" /><line stroke="#568e56" stroke-width="0.8" x1="102.0" x2="178.0" y1="906.6666666666666" y2="906.6666666666666" /><line stroke="#568e56" stroke-width="0.8" x1="102.0" x2="178.0" y1="923.3333333333334" y2="923.3333333333334" /><circle cx="168.0" cy="898.3333333333334" fill="#00cc44" r="2.5" stroke="#568e56" stroke-width="0.5" /><circle cx="160.0" cy="898.3333333333334" fill="#ffaa00" r="2.5" stroke="#568e56" stroke-width="0.5" /><circle cx="168.0" cy="915.0" fill="#00cc44" r="2.5" stroke="#568e56" stroke-width="0.5" /><circle cx="160.0" cy="915.0" fill="#ffaa00" r="2.5" stroke="#568e56" stroke-width="0.5" /><circle cx="168.0" cy="931.6666666666667" fill="#00cc44" r="2.5" stroke="#568e56" stroke-width="0.5" /><circle cx="160.0" cy="931.6666666666667" fill="#ffaa00" r="2.5" stroke="#568e56" stroke-width="0.5" /><line stroke="#568e56" stroke-width="0.6" x1="106.0" x2="118.0" y1="895.0" y2="895.0" /><line stroke="#568e56" stroke-width="0.6" x1="106.0" x2="118.0" y1="898.3333333333334" y2="898.3333333333334" /><line stroke="#568e56" stroke-width="0.6" x1="106.0" x2="118.0" y1="901.6666666666666" y2="901.6666666666666" /><line stroke="#568e56" stroke-width="0.6" x1="106.0" x2="118.0" y1="911.6666666666666" y2="911.6666666666666" /><line stroke="#568e56" stroke-width="0.6" x1="106.0" x2="118.0" y1="915.0" y2="915.0" /><line stroke="#568e56" stroke-width="0.6" x1="106.0" x2="118.0" y1="918.3333333333333" y2="918.3333333333333" /><line stroke="#568e56" stroke-width="0.6" x1="106.0" x2="118.0" y1="928.3333333333334" y2="928.3333333333334" /><line stroke="#568e56" stroke-width="0.6" x1="106.0" x2="118.0" y1="931.6666666666667" y2="931.6666666666667" /><line stroke="#568e56" stroke-width="0.6" x1="106.0" x2="118.0" y1="935.0" y2="935.0" /></g><g id="router-base"><rect fill="url(#gradient-router-base)" height="50" rx="4" ry="4" stroke="black" stroke-width="1.2" width="80" x="158.0173145518728" y="1180.0" /><line stroke="#4c4c4c" stroke-width="0.8" x1="160.0173145518728" x2="236.0173145518728" y1="1196.6666666666667" y2="1196.6666666666667" /><line stroke="#4c4c4c" stroke-width="0.8" x1="160.0173145518728" x2="236.0173145518728" y1="1213.3333333333333" y2="1213.3333333333333" /><circle cx="226.0173145518728" cy="1188.3333333333333" fill="#00cc44" r="2.5" stroke="#4c4c4c" stroke-width="0.5" /><circle cx="218.0173145518728" cy="1188.3333333333333" fill="#ffaa00" r="2.5" stroke="#4c4c4c" stroke-width="0.5" /><circle cx="226.0173145518728" cy="1205.0" fill="#00cc44" r="2.5" stroke="#4c4c4c" stroke-width="0.5" /><circle cx="218.0173145518728" cy="1205.0" fill="#ffaa00" r="2.5" stroke="#4c4c4c" stroke-width="0.5" /><circle cx="226.0173145518728" cy="1221.6666666666665" fill="#00cc44" r="2.5" stroke="#4c4c4c" stroke-width="0.5" /><circle cx="218.0173145518728" cy="1221.6666666666665" fill="#ffaa00" r="2.5" stroke="#4c4c4c" stroke-width="0.5" /><line stroke="#4c4c4c" stroke-width="0.6" x1="164.0173145518728" x2="176.0173145518728" y1="1185.0" y2="1185.0" /><line stroke="#4c4c4c" stroke-width="0.6" x1="164.0173145518728" x2="176.0173145518728" y1="1188.3333333333333" y2="1188.3333333333333" /><line stroke="#4c4c4c" stroke-width="0.6" x1="164.0173145518728" x2="176.0173145518728" y1="1191.6666666666667" y2="1191.6666666666667" /><line stroke="#4c4c4c" stroke-width="0.6" x1="164.0173145518728" x2="176.0173145518728" y1="1201.6666666666667" y2="1201.6666666666667" /><line stroke="#4c4c4c" stroke-width="0.6" x1="164.0173145518728" x2="176.0173145518728" y1="1205.0" y2="1205.0" /><line stroke="#4c4c4c" stroke-width="0.6" x1="164.0173145518728" x2="176.0173145518728" y1="1208.3333333333335" y2="1208.3333333333335" /><line stroke="#4c4c4c" stroke-width="0.6" x1="164.0173145518728" x2="176.0173145518728" y1="1218.3333333333333" y2="1218.3333333333333" /><line stroke="#4c4c4c" stroke-width="0.6" x1="164.0173145518728" x2="176.0173145518728" y1="1221.6666666666665" y2="1221.6666666666665" /><line stroke="#4c4c4c" stroke-width="0.6" x1="164.0173145518728" x2="176.0173145518728" y1="1225.0" y2="1225.0" /></g><g id="routers"><ellipse cx="198.2203685344865" cy="1503.0" fill="url(#gradient-routers)" rx="36.0" ry="11.0" stroke="#595959" stroke-width="0.8" /><circle cx="198.2203685344865" cy="1491.0" fill="url(#gradient-routers)" r="17.0" stroke="#595959" stroke-width="0.8" /><circle cx="184.2203685344865" cy="1497.0" fill="url(#gradient-routers)" r="13.0" stroke="#595959" stroke-width="0.8" /><circle cx="212.2203685344865" cy="1497.0" fill="url(#gradient-routers)" r="13.0" stroke="#595959" stroke-width="0.8" /><ellipse cx="198.2203685344865" cy="1499.0" fill="url(#gradient-routers)" rx="30.4" ry="14.000000000000002" stroke="none" /></g><g id="label-opt"><rect fill="url(#gradient-label-opt)" height="50" rx="4" ry="4" stroke="black" stroke-width="1.2" width="80" x="460.0" y="890.0" /><line stroke="#4c4c4c" stroke-width="0.8" x1="462.0" x2="538.0" y1="906.6666666666666" y2="906.6666666666666" /><line stroke="#4c4c4c" stroke-width="0.8" x1="462.0" x2="538.0" y1="923.3333333333334" y2="923.3333333333334" /><circle cx="528.0" cy="898.3333333333334" fill="#00cc44" r="2.5" stroke="#4c4c4c" stroke-width="0.5" /><circle cx="520.0" cy="898.3333333333334" fill="#ffaa00" r="2.5" stroke="#4c4c4c" stroke-width="0.5" /><circle cx="528.0" cy="915.0" fill="#00cc44" r="2.5" stroke="#4c4c4c" stroke-width="0.5" /><circle cx="520.0" cy="915.0" fill="#ffaa00" r="2.5" stroke="#4c4c4c" stroke-width="0.5" /><circle cx="528.0" cy="931.6666666666667" fill="#00cc44" r="2.5" stroke="#4c4c4c" stroke-width="0.5" /><circle cx="520.0" cy="931.6666666666667" fill="#ffaa00" r="2.5" stroke="#4c4c4c" stroke-width="0.5" /><line stroke="#4c4c4c" stroke-width="0.6" x1="466.0" x2="478.0" y1="895.0" y2="895.0" /><line stroke="#4c4c4c" stroke-width="0.6" x1="466.0" x2="478.0" y1="898.3333333333334" y2="898.3333333333334" /><line stroke="#4c4c4c" stroke-width="0.6" x1="466.0" x2="478.0" y1="901.6666666666666" y2="901.6666666666666" /><line stroke="#4c4c4c" stroke-width="0.6" x1="466.0" x2="478.0" y1="911.6666666666666" y2="911.6666666666666" /><line stroke="#4c4c4c" stroke-width="0.6" x1="466.0" x2="478.0" y1="915.0" y2="915.0" /><line stroke="#4c4c4c" stroke-width="0.6" x1="466.0" x2="478.0" y1="918.3333333333333" y2="918.3333333333333" /><line stroke="#4c4c4c" stroke-width="0.6" x1="466.0" x2="478.0" y1="928.3333333333334" y2="928.3333333333334" /><line stroke="#4c4c4c" stroke-width="0.6" x1="466.0" x2="478.0" y1="931.6666666666667" y2="931.6666666666667" /><line stroke="#4c4c4c" stroke-width="0.6" x1="466.0" x2="478.0" y1="935.0" y2="935.0" /></g><g id="collision-det"><rect fill="url(#gradient-collision-det)" height="50" rx="4" ry="4" stroke="black" stroke-width="1.2" width="80" x="580.0" y="890.0" /><line stroke="#4c4c4c" stroke-width="0.8" x1="582.0" x2="658.0" y1="906.6666666666666" y2="906.6666666666666" /><line stroke="#4c4c4c" stroke-width="0.8" x1="582.0" x2="658.0" y1="923.3333333333334" y2="923.3333333333334" /><circle cx="648.0" cy="898.3333333333334" fill="#00cc44" r="2.5" stroke="#4c4c4c" stroke-width="0.5" /><circle cx="640.0" cy="898.3333333333334" fill="#ffaa00" r="2.5" stroke="#4c4c4c" stroke-width="0.5" /><circle cx="648.0" cy="915.0" fill="#00cc44" r="2.5" stroke="#4c4c4c" stroke-width="0.5" /><circle cx="640.0" cy="915.0" fill="#ffaa00" r="2.5" stroke="#4c4c4c" stroke-width="0.5" /><circle cx="648.0" cy="931.6666666666667" fill="#00cc44" r="2.5" stroke="#4c4c4c" stroke-width="0.5" /><circle cx="640.0" cy="931.6666666666667" fill="#ffaa00" r="2.5" stroke="#4c4c4c" stroke-width="0.5" /><line stroke="#4c4c4c" stroke-width="0.6" x1="586.0" x2="598.0" y1="895.0" y2="895.0" /><line stroke="#4c4c4c" stroke-width="0.6" x1="586.0" x2="598.0" y1="898.3333333333334" y2="898.3333333333334" /><line stroke="#4c4c4c" stroke-width="0.6" x1="586.0" x2="598.0" y1="901.6666666666666" y2="901.6666666666666" /><line stroke="#4c4c4c" stroke-width="0.6" x1="586.0" x2="598.0" y1="911.6666666666666" y2="911.6666666666666" /><line stroke="#4c4c4c" stroke-width="0.6" x1="586.0" x2="598.0" y1="915.0" y2="915.0" /><line stroke="#4c4c4c" stroke-width="0.6" x1="586.0" x2="598.0" y1="918.3333333333333" y2="918.3333333333333" /><line stroke="#4c4c4c" stroke-width="0.6" x1="586.0" x2="598.0" y1="928.3333333333334" y2="928.3333333333334" /><line stroke="#4c4c4c" stroke-width="0.6" x1="586.0" x2="598.0" y1="931.6666666666667" y2="931.6666666666667" /><line stroke="#4c4c4c" stroke-width="0.6" x1="586.0" x2="598.0" y1="935.0" y2="935.0" /></g><g id="graph-analyzer"><ellipse cx="313.2878831772251" cy="633.0" fill="url(#gradient-graph-analyzer)" rx="36.0" ry="11.0" stroke="#595959" stroke-width="0.8" /><circle cx="313.2878831772251" cy="621.0" fill="url(#gradient-graph-analyzer)" r="17.0" stroke="#595959" stroke-width="0.8" /><circle cx="299.2878831772251" cy="627.0" fill="url(#gradient-graph-analyzer)" r="13.0" stroke="#595959" stroke-width="0.8" /><circle cx="327.2878831772251" cy="627.0" fill="url(#gradient-graph-analyzer)" r="13.0" stroke="#595959" stroke-width="0.8" /><ellipse cx="313.2878831772251" cy="629.0" fill="url(#gradient-graph-analyzer)" rx="30.4" ry="14.000000000000002" stroke="none" /></g><g id="draw-elements"><rect fill="url(#gradient-draw-elements)" height="46" rx="2" ry="2" stroke="black" stroke-width="1.2" width="64" x="521.2878831772251" y="604.0" /><polygon fill="#7f3123" points="517.2878831772251,604.0 553.2878831772251,594.0 589.2878831772251,604.0" stroke="black" stroke-width="1.0" /><rect fill="#ffb1a3" height="7" stroke="#7f3123" stroke-width="0.7" width="10" x="528.2878831772251" y="610.0" /><line stroke="#7f3123" stroke-width="0.5" x1="533.2878831772251" x2="533.2878831772251" y1="610.0" y2="617.0" /><line stroke="#7f3123" stroke-width="0.5" x1="528.2878831772251" x2="538.2878831772251" y1="613.5" y2="613.5" /><rect fill="#ffb1a3" height="7" stroke="#7f3123" stroke-width="0.7" width="10" x="548.2878831772251" y="610.0" /><line stroke="#7f3123" stroke-width="0.5" x1="553.2878831772251" x2="553.2878831772251" y1="610.0" y2="617.0" /><line stroke="#7f3123" stroke-width="0.5" x1="548.2878831772251" x2="558.2878831772251" y1="613.5" y2="613.5" /><rect fill="#ffb1a3" height="7" stroke="#7f3123" stroke-width="0.7" width="10" x="568.2878831772251" y="610.0" /><line stroke="#7f3123" stroke-width="0.5" x1="573.2878831772251" x2="573.2878831772251" y1="610.0" y2="617.0" /><line stroke="#7f3123" stroke-width="0.5" x1="568.2878831772251" x2="578.2878831772251" y1="613.5" y2="613.5" /><rect fill="#ffb1a3" height="7" stroke="#7f3123" stroke-width="0.7" width="10" x="528.2878831772251" y="624.0" /><line stroke="#7f3123" stroke-width="0.5" x1="533.2878831772251" x2="533.2878831772251" y1="624.0" y2="631.0" /><line stroke="#7f3123" stroke-width="0.5" x1="528.2878831772251" x2="538.2878831772251" y1="627.5" y2="627.5" /><rect fill="#ffb1a3" height="7" stroke="#7f3123" stroke-width="0.7" width="10" x="548.2878831772251" y="624.0" /><line stroke="#7f3123" stroke-width="0.5" x1="553.2878831772251" x2="553.2878831772251" y1="624.0" y2="631.0" /><line stroke="#7f3123" stroke-width="0.5" x1="548.2878831772251" x2="558.2878831772251" y1="627.5" y2="627.5" /><rect fill="#ffb1a3" height="7" stroke="#7f3123" stroke-width="0.7" width="10" x="568.2878831772251" y="624.0" /><line stroke="#7f3123" stroke-width="0.5" x1="573.2878831772251" x2="573.2878831772251" y1="624.0" y2="631.0" /><line stroke="#7f3123" stroke-width="0.5" x1="568.2878831772251" x2="578.2878831772251" y1="627.5" y2="627.5" /><rect fill="#7f3123" height="12" stroke="black" stroke-width="0.8" width="10" x="548.2878831772251" y="638.0" /><circle cx="555.7878831772251" cy="644.0" fill="#ffb1a3" r="1.2" /></g><g id="draw-connections"><rect fill="url(#gradient-draw-connections)" height="46" rx="2" ry="2" stroke="black" stroke-width="1.2" width="64" x="264.3051510465101" y="314.0" /><polygon fill="#404040" points="260.3051510465101,314.0 296.3051510465101,304.0 332.3051510465101,314.0" stroke="black" stroke-width="1.0" /><rect fill="#bfbfbf" height="7" stroke="#404040" stroke-width="0.7" width="10" x="271.3051510465101" y="320.0" /><line stroke="#404040" stroke-width="0.5" x1="276.3051510465101" x2="276.3051510465101" y1="320.0" y2="327.0" /><line stroke="#404040" stroke-width="0.5" x1="271.3051510465101" x2="281.3051510465101" y1="323.5" y2="323.5" /><rect fill="#bfbfbf" height="7" stroke="#404040" stroke-width="0.7" width="10" x="291.3051510465101" y="320.0" /><line stroke="#404040" stroke-width="0.5" x1="296.3051510465101" x2="296.3051510465101" y1="320.0" y2="327.0" /><line stroke="#404040" stroke-width="0.5" x1="291.3051510465101" x2="301.3051510465101" y1="323.5" y2="323.5" /><rect fill="#bfbfbf" height="7" stroke="#404040" stroke-width="0.7" width="10" x="311.3051510465101" y="320.0" /><line stroke="#404040" stroke-width="0.5" x1="316.3051510465101" x2="316.3051510465101" y1="320.0" y2="327.0" /><line stroke="#404040" stroke-width="0.5" x1="311.3051510465101" x2="321.3051510465101" y1="323.5" y2="323.5" /><rect fill="#bfbfbf" height="7" stroke="#404040" stroke-width="0.7" width="10" x="271.3051510465101" y="334.0" /><line stroke="#404040" stroke-width="0.5" x1="276.3051510465101" x2="276.3051510465101" y1="334.0" y2="341.0" /><line stroke="#404040" stroke-width="0.5" x1="271.3051510465101" x2="281.3051510465101" y1="337.5" y2="337.5" /><rect fill="#bfbfbf" height="7" stroke="#404040" stroke-width="0.7" width="10" x="291.3051510465101" y="334.0" /><line stroke="#404040" stroke-width="0.5" x1="296.3051510465101" x2="296.3051510465101" y1="334.0" y2="341.0" /><line stroke="#404040" stroke-width="0.5" x1="291.3051510465101" x2="301.3051510465101" y1="337.5" y2="337.5" /><rect fill="#bfbfbf" height="7" stroke="#404040" stroke-width="0.7" width="10" x="311.3051510465101" y="334.0" /><line stroke="#404040" stroke-width="0.5" x1="316.3051510465101" x2="316.3051510465101" y1="334.0" y2="341.0" /><line stroke="#404040" stroke-width="0.5" x1="311.3051510465101" x2="321.3051510465101" y1="337.5" y2="337.5" /><rect fill="#404040" height="12" stroke="black" stroke-width="0.8" width="10" x="291.3051510465101" y="348.0" /><circle cx="298.8051510465101" cy="354.0" fill="#bfbfbf" r="1.2" /></g><g id="draw-icons"><ellipse cx="740.0" cy="923.0" fill="url(#gradient-draw-icons)" rx="36.0" ry="11.0" stroke="#595959" stroke-width="0.8" /><circle cx="740.0" cy="911.0" fill="url(#gradient-draw-icons)" r="17.0" stroke="#595959" stroke-width="0.8" /><circle cx="726.0" cy="917.0" fill="url(#gradient-draw-icons)" r="13.0" stroke="#595959" stroke-width="0.8" /><circle cx="754.0" cy="917.0" fill="url(#gradient-draw-icons)" r="13.0" stroke="#595959" stroke-width="0.8" /><ellipse cx="740.0" cy="919.0" fill="url(#gradient-draw-icons)" rx="30.4" ry="14.000000000000002" stroke="none" /></g><line marker-end="url(#arrow-end)" marker-start="url(#circle-start)" stroke="black" stroke-width="2" x1="416.30515104651164" x2="416.3051510465103" y1="77.0" y2="303.0" /><line marker-end="url(#arrow-end)" marker-start="url(#circle-start)" stroke="black" stroke-width="2" x1="396.79768513555126" x2="212.79534908818397" y1="360.3664891881549" y2="599.6335108118451" /><line marker-end="url(#arrow-end)" marker-start="url(#circle-start)" stroke="black" stroke-width="2" x1="418.17590265589064" x2="431.4171315678446" y1="366.9452702041476" y2="593.0547297958524" /><line marker-end="url(#arrow-end)" marker-start="url(#circle-start)" stroke="black" stroke-width="2" x1="416.87364398234496" x2="276.41423919488017" y1="652.4694876481753" y2="887.5305123518247" /><line marker-end="url(#arrow-end)" marker-start="url(#circle-start)" stroke="black" stroke-width="2" x1="427.50466426758317" x2="385.78321890964196" y1="656.4730738734423" y2="883.5269261265577" /><line marker-end="url(#arrow-end)" marker-start="url(#circle-start)" stroke="black" stroke-width="2" x1="410.5332812162068" x2="162.75460196101835" y1="647.4995130968566" y2="892.5004869031434" /><line marker-end="url(#arrow-end)" marker-start="url(#circle-start)" stroke="black" stroke-width="2" x1="440.46184687605404" x2="492.8260363011711" y1="656.1854813149947" y2="883.8145186850053" /><line marker-end="url(#arrow-end)" marker-start="url(#circle-start)" stroke="black" stroke-width="2" x1="450.61073622356423" x2="602.6771469536609" y1="651.9057384647763" y2="888.0942615352237" /><line marker-end="url(#arrow-end)" marker-start="url(#circle-start)" stroke="black" stroke-width="2" x1="401.2878831772251" x2="353.2878831772251" y1="625.0" y2="625.0" /><line marker-end="url(#arrow-end)" marker-start="url(#circle-start)" stroke="black" stroke-width="2" x1="266.2775177061236" x2="310.17041741921827" y1="946.3782212919933" y2="1165.7772233850083" /><line marker-end="url(#arrow-end)" marker-start="url(#circle-start)" stroke="black" stroke-width="2" x1="386.2775177061236" x2="430.17041741921827" y1="946.3782212919933" y2="1165.7772233850083" /><line marker-end="url(#arrow-end)" marker-start="url(#circle-start)" stroke="black" stroke-width="2" x1="146.27751770612363" x2="191.73979684574917" y1="946.3782212919933" y2="1173.6217787080066" /><line marker-end="url(#arrow-end)" marker-start="url(#circle-start)" stroke="black" stroke-width="2" x1="198.03972050308263" x2="198.19236109547424" y1="1236.9999921558326" y2="1455.0000098052092" /><line marker-end="url(#arrow-end)" marker-start="url(#circle-start)" stroke="black" stroke-width="2" x1="493.31159504561725" x2="446.37782074485125" y1="946.2932139475348" y2="1165.8834825655815" /><line marker-end="url(#arrow-end)" marker-start="url(#circle-start)" stroke="black" stroke-width="2" x1="602.9908169858503" x2="459.27879331955995" y1="942.1051230063831" y2="1171.118596242021" /><line marker-end="url(#circle-end)" marker-start="url(#arrow-start)" stroke="black" stroke-width="2" x1="401.2878831772251" x2="225.28788317722513" y1="625.0" y2="625.0" /><line marker-end="url(#arrow-end)" marker-start="url(#circle-start)" stroke="black" stroke-width="2" x1="429.9724763194492" x2="539.620557904286" y1="363.9344815036261" y2="596.0655184963739" /><line marker-end="url(#arrow-end)" marker-start="url(#circle-start)" stroke="black" stroke-width="2" x1="384.3051510465101" x2="328.3051510465101" y1="335.0" y2="335.0" /><line marker-end="url(#arrow-end)" marker-start="url(#circle-start)" stroke="black" stroke-width="2" x1="570.6107362235642" x2="718.3464336920762" y1="651.9057384647763" y2="881.3678269190297" /><text fill="black" filter="url(#text-glow)" font-family="Arial, sans-serif" font-size="14px" text-anchor="start" x="468.90515104651183" y="45.0">CLI Layer</text><text fill="black" filter="url(#text-glow)" font-family="Arial, sans-serif" font-size="14px" text-anchor="start" x="468.90515104651183" y="63.0">main.py</text><text fill="black" filter="url(#text-glow)" font-family="Arial, sans-serif" font-size="14px" text-anchor="start" x="468.9051510465101" y="335.0">Core Layer</text><text fill="black" filter="url(#text-glow)" font-family="Arial, sans-serif" font-size="14px" text-anchor="start" x="468.9051510465101" y="353.0">generator.py</text><text fill="black" filter="url(#text-glow)" font-family="Arial, sans-serif" font-size="14px" text-anchor="middle" x="193.28788317722513" y="671.0">Layout Object</text><text fill="black" filter="url(#text-glow)" font-family="Arial, sans-serif" font-size="14px" text-anchor="middle" x="193.28788317722513" y="689.0">Estado del diagrama</text><text fill="black" filter="url(#text-glow)" font-family="Arial, sans-serif" font-size="14px" text-anchor="start" x="485.88788317722515" y="579.0">AutoLayoutOptimizer v4.0</text><text fill="black" filter="url(#text-glow)" font-family="Arial, sans-serif" font-size="14px" text-anchor="start" x="485.88788317722515" y="597.0">Orquestador Layout</text><text fill="black" filter="url(#text-glow)" font-family="Arial, sans-serif" font-size="14px" text-anchor="middle" x="260.0" y="961.0">AutoLayoutPositioner v4.0</text><text fill="black" filter="url(#text-glow)" font-family="Arial, sans-serif" font-size="14px" text-anchor="middle" x="260.0" y="979.0">Barycenter + Position Opt.</text><text fill="black" filter="url(#text-glow)" font-family="Arial, sans-serif" font-size="14px" text-anchor="middle" x="380.0" y="869.0">ContainerCalculator</text><text fill="black" filter="url(#text-glow)" font-family="Arial, sans-serif" font-size="14px" text-anchor="middle" x="380.0" y="887.0">Dimensiones</text><text fill="black" filter="url(#text-glow)" font-family="Arial, sans-serif" font-size="14px" text-anchor="middle" x="318.0173145518728" y="1251.0">SizingCalculator</text><text fill="black" filter="url(#text-glow)" font-family="Arial, sans-serif" font-size="14px" text-anchor="middle" x="318.0173145518728" y="1269.0">hp/wp sizing</text><text fill="black" filter="url(#text-glow)" font-family="Arial, sans-serif" font-size="14px" text-anchor="start" x="490.6173145518728" y="1251.0">GeometryCalculator</text><text fill="black" filter="url(#text-glow)" font-family="Arial, sans-serif" font-size="14px" text-anchor="start" x="490.6173145518728" y="1269.0">Bounding boxes</text><text fill="black" filter="url(#text-glow)" font-family="Arial, sans-serif" font-size="14px" text-anchor="middle" x="140.0" y="869.0">RouterManager</text><text fill="black" filter="url(#text-glow)" font-family="Arial, sans-serif" font-size="14px" text-anchor="middle" x="140.0" y="887.0">Dispatcher routing</text><text fill="black" filter="url(#text-glow)" font-family="Arial, sans-serif" font-size="14px" text-anchor="end" x="145.4173145518728" y="1205.0">ConnectionRouter</text><text fill="black" filter="url(#text-glow)" font-family="Arial, sans-serif" font-size="14px" text-anchor="end" x="145.4173145518728" y="1223.0">Base abstracta</text><text fill="black" filter="url(#text-glow)" font-family="Arial, sans-serif" font-size="14px" text-anchor="middle" x="198.2203685344865" y="1541.0">Routers</text><text fill="black" filter="url(#text-glow)" font-family="Arial, sans-serif" font-size="14px" text-anchor="middle" x="198.2203685344865" y="1559.0">Straight, Orthogonal</text><text fill="black" filter="url(#text-glow)" font-family="Arial, sans-serif" font-size="14px" text-anchor="middle" x="198.2203685344865" y="1577.0">Bezier, Arc</text><text fill="black" filter="url(#text-glow)" font-family="Arial, sans-serif" font-size="14px" text-anchor="start" x="552.6" y="961.0">LabelPositionOptimizer</text><text fill="black" filter="url(#text-glow)" font-family="Arial, sans-serif" font-size="14px" text-anchor="start" x="552.6" y="979.0">Optimización etiquetas</text><text fill="black" filter="url(#text-glow)" font-family="Arial, sans-serif" font-size="14px" text-anchor="start" x="672.6" y="961.0">CollisionDetector</text><text fill="black" filter="url(#text-glow)" font-family="Arial, sans-serif" font-size="14px" text-anchor="start" x="672.6" y="979.0">Resolución colisiones</text><text fill="black" filter="url(#text-glow)" font-family="Arial, sans-serif" font-size="14px" text-anchor="end" x="260.6878831772251" y="579.0">GraphAnalyzer</text><text fill="black" filter="url(#text-glow)" font-family="Arial, sans-serif" font-size="14px" text-anchor="end" x="260.6878831772251" y="597.0">Topología + Centralidad</text><text fill="black" filter="url(#text-glow)" font-family="Arial, sans-serif" font-size="14px" text-anchor="start" x="605.8878831772251" y="625.0">Rendering Layer</text><text fill="black" filter="url(#text-glow)" font-family="Arial, sans-serif" font-size="14px" text-anchor="start" x="605.8878831772251" y="643.0">draw/elements.py</text><text fill="black" filter="url(#text-glow)" font-family="Arial, sans-serif" font-size="14px" text-anchor="end" x="243.7051510465101" y="289.0">draw/connections.py</text><text fill="black" filter="url(#text-glow)" font-family="Arial, sans-serif" font-size="14px" text-anchor="end" x="243.7051510465101" y="307.0">Render conexiones</text><text fill="black" filter="url(#text-glow)" font-family="Arial, sans-serif" font-size="14px" text-anchor="start" x="792.6" y="915.0">draw/*.py</text><text fill="black" filter="url(#text-glow)" font-family="Arial, sans-serif" font-size="14px" text-anchor="start" x="792.6" y="933.0">Íconos específicos</text><text fill="gray" filter="url(#text-glow)" font-family="Arial, sans-serif" font-size="12px" text-anchor="end" x="365.50515104651095" y="190.0">invoca</text><text fill="gray" filter="url(#text-glow)" font-family="Arial, sans-serif" font-size="12px" text-anchor="middle" x="304.7965171118676" y="437.0">crea</text><text fill="gray" filter="url(#text-glow)" font-family="Arial, sans-serif" font-size="12px" text-anchor="start" x="475.5965171118676" y="437.0">optimiza</text><text fill="gray" filter="url(#text-glow)" font-family="Arial, sans-serif" font-size="12px" text-anchor="end" x="295.84394158861255" y="727.0">fase 1</text><text fill="gray" filter="url(#text-glow)" font-family="Arial, sans-serif" font-size="12px" text-anchor="middle" x="406.64394158861256" y="727.0">fase 2</text><text fill="gray" filter="url(#text-glow)" font-family="Arial, sans-serif" font-size="12px" text-anchor="middle" x="286.64394158861256" y="813.0">fase 3</text><text fill="gray" filter="url(#text-glow)" font-family="Arial, sans-serif" font-size="12px" text-anchor="start" x="517.4439415886126" y="727.0">fase 4</text><text fill="gray" filter="url(#text-glow)" font-family="Arial, sans-serif" font-size="12px" text-anchor="start" x="577.4439415886125" y="813.0">fase 5</text><text fill="gray" filter="url(#text-glow)" font-family="Arial, sans-serif" font-size="12px" text-anchor="middle" x="377.2878831772251" y="582.0">análisis</text><text fill="gray" filter="url(#text-glow)" font-family="Arial, sans-serif" font-size="12px" text-anchor="end" x="237.42396756267095" y="1056.0777223385007">consulta</text><text fill="gray" filter="url(#text-glow)" font-family="Arial, sans-serif" font-size="12px" text-anchor="end" x="357.42396756267095" y="1056.0777223385007">consulta</text><text fill="gray" filter="url(#text-glow)" font-family="Arial, sans-serif" font-size="12px" text-anchor="end" x="118.2086572759364" y="1060.0">delega</text><text fill="gray" filter="url(#text-glow)" font-family="Arial, sans-serif" font-size="12px" text-anchor="end" x="147.31604079927843" y="1346.0000009805208">impl</text><text fill="gray" filter="url(#text-glow)" font-family="Arial, sans-serif" font-size="12px" text-anchor="start" x="520.6447078952342" y="1013.0883482565582">usa</text><text fill="gray" filter="url(#text-glow)" font-family="Arial, sans-serif" font-size="12px" text-anchor="middle" x="531.1348051527051" y="1099.6118596242022">usa</text><text fill="gray" filter="url(#text-glow)" font-family="Arial, sans-serif" font-size="12px" text-anchor="middle" x="313.2878831772251" y="582.0">actualiza</text><text fill="gray" filter="url(#text-glow)" font-family="Arial, sans-serif" font-size="12px" text-anchor="start" x="535.5965171118676" y="523.0">render</text><text fill="gray" filter="url(#text-glow)" font-family="Arial, sans-serif" font-size="12px" text-anchor="middle" x="356.3051510465101" y="292.0">render</text><text fill="gray" filter="url(#text-glow)" font-family="Arial, sans-serif" font-size="12px" text-anchor="middle" x="644.4785849578202" y="723.6367826919029">usa</text></svg>